<svg width="409" height="604" viewBox="0 0 409 604" fill="none" xmlns="http://www.w3.org/2000/svg">
<path d="M395.895 519.498C392.043 528.158 385.943 535.628 378.227 541.132C358.107 556.18 325.737 568.778 308.125 574.609L289.356 569.809L84.9742 502.486C67.8624 517.498 39.4756 518.422 22.0697 502.486C14.3649 495.744 9.07777 486.667 7.01551 476.639C3.04724 456.407 4.11804 435.781 8.48524 406.47C14.4901 365.969 20.0331 342.411 28.8095 314.003C30.8461 307.62 37.3759 295.679 40.5464 290.593C44.8664 284.203 50.4908 278.8 57.0493 274.74C71.3649 265.655 96.5278 255.726 114.884 249.427C117.559 250.568 120.305 251.535 123.105 252.322C123.223 253.868 123.416 256.403 123.416 256.403C125.428 279.186 142.458 352.648 152.811 380.246C158.06 394.208 161.146 401.624 167.004 416.13L172.61 414.829C182.457 393.035 209.207 329.143 222.014 290.825C227.969 273.024 235.2 254.75 239.859 233.693C245.889 238.083 255.728 245.081 258.547 246.022C272.458 250.666 290.255 257.102 304.214 262.148C320.538 268.048 334.25 275.393 346.229 287.955C356.997 299.241 367.748 322.678 375.66 347.507C392.574 400.58 403.631 456.918 403.625 482.264C403.625 488.489 401.777 503.314 399.747 509.302C398.613 512.64 397.443 516.055 395.895 519.498Z" fill="#106194"/>
<path d="M57.3022 377.978L85.7749 379.328C100.558 373.737 110.749 393.059 109.115 405.995C109.115 405.995 108.42 413.687 107.779 420.908C93.1808 425.073 79.7318 428.841 69.5716 431.499C69.3258 431.564 69.0955 431.678 68.8941 431.833C68.6927 431.988 68.5243 432.181 68.3988 432.402C68.2733 432.623 68.1932 432.867 68.1632 433.12C68.1331 433.372 68.1538 433.628 68.224 433.872C70.3236 441.163 73.3337 451.467 76.8133 463.408L62.0263 468.892L55.4526 470.539C46.7621 472.066 42.5247 473.286 34.0938 468.886C31.4476 467.203 29.1397 465.04 27.2891 462.509C22.7349 456.086 18.6578 438.388 21.1124 421.885C22.3264 413.712 25.8499 404.752 30.2897 399.719C32.7021 397.078 34.3515 393.83 35.0615 390.324C36.1876 386.726 38.4172 383.573 41.4345 381.312C44.4518 379.051 48.104 377.797 51.8737 377.726L57.3022 377.978Z" fill="white"/>
<path d="M243.334 146.25C246.342 144.2 250.021 143.381 253.614 143.959C260.667 145.011 263.265 149.008 264.303 151.296C267.428 158.141 265.905 169.893 262.456 176.889C259.529 183.703 254.637 189.49 248.405 193.51C243.9 195.884 238.818 196.942 233.74 196.564L232.658 198.828C231.053 202.197 227.251 208.099 227.251 208.099C223.346 214.021 218.92 219.583 214.025 224.718C206.111 232.352 197.143 238.814 187.396 243.905C178.776 247.961 169.741 251.069 160.449 253.172C157.2 253.797 153.921 254.259 150.626 254.555C129.54 256.464 112.041 250.98 95.5247 237.535C79.7699 224.709 72.8775 204.438 70.3579 182.012C68.9054 169.078 67.6361 155.022 65.7464 140.974C65.7464 140.974 48.898 80.9022 127.794 80.9022C245.498 80.9041 243.334 146.25 243.334 146.25Z" fill="white"/>
<path d="M222.338 289.858C227.94 273.219 234.594 256.14 239.167 236.716C239.167 236.716 239.45 235.523 239.877 233.708C236.985 231.609 234.953 230.082 234.953 230.082L220.96 216.791C218.828 219.484 216.547 222.122 214.035 224.728C206.117 232.359 197.146 238.817 187.396 243.905C178.776 247.961 169.741 251.069 160.449 253.172C157.2 253.797 153.922 254.259 150.626 254.555C141.258 255.528 131.79 254.733 122.715 252.212C123.144 254.758 123.44 256.537 123.44 256.537C125.498 279.464 142.484 352.699 152.814 380.246C158.063 394.208 161.149 401.624 167.007 416.13L172.613 414.828C182.46 393.035 209.209 329.143 222.017 290.825C222.124 290.503 222.231 290.181 222.338 289.858Z" fill="white"/>
<path d="M189.572 96.3668C200.152 100.745 208.975 108.519 214.649 118.464C218.128 124.663 220.711 131.323 222.322 138.246L243.334 146.25C246.342 144.2 250.021 143.381 253.614 143.959C260.66 145.011 263.259 149 264.303 151.289C269.747 138.985 274.191 125.731 274.513 111.881C275.468 70.6369 265.542 55.1456 243.468 35.3405C224.894 11.5901 198.679 4.96868 172.796 4.669C148.346 4.01471 124.353 11.3829 104.484 25.648C97.1496 31.114 90.6173 37.5814 85.0783 44.8613C72.5016 56.5581 62.2861 82.3127 62.7308 107.976C62.6959 118.823 63.7142 129.648 65.7714 140.298C68.6021 137.435 70.6654 135.336 70.6654 135.336C81.614 124.187 100.929 107.371 114.465 100.85C116.053 100.087 118.092 101.106 118.72 103.523C119.24 105.409 119.375 107.38 119.117 109.319C119.052 109.901 119.146 110.489 119.389 111.021C119.632 111.554 120.015 112.01 120.497 112.341C120.979 112.673 121.542 112.867 122.126 112.903C122.71 112.939 123.293 112.816 123.812 112.547C133.478 107.619 150.701 97.7029 162.909 92.9711C167.263 92.1785 171.725 92.1785 176.079 92.9711C180.639 93.8399 185.144 94.9737 189.572 96.3668Z" fill="#85807F"/>
<path d="M157.931 304.542C156.607 311.356 154.975 318.827 154.114 325.179C151.706 340.772 150.343 356.508 150.035 372.283C150.989 375.228 151.924 377.904 152.804 380.246C154.658 385.178 156.24 389.292 157.767 393.191C159.334 397.175 160.852 400.95 162.539 405.126C168.286 403.477 173.779 401.908 178.904 400.46C182.411 392.319 186.576 382.447 190.992 371.735C189.698 364.1 188.608 357.658 188.608 357.658C186.572 349.47 180.063 310.522 179.979 307.939C182.142 300.15 184.617 291.058 187.143 283.292C178.935 277.695 169.487 272.001 164.083 268.47C158.548 273.282 154.19 277.228 149.302 282.259L149.779 283.607C151.894 289.516 155.7 299.209 157.931 304.542Z" fill="#2198D6"/>
<path d="M101.896 422.568C108.143 420.793 114.665 418.925 121.287 417.02L117.717 413.931C88.5136 385.027 66.5631 362.663 40.2453 335.27C39.9161 334.925 39.5186 334.652 39.0781 334.469C38.6376 334.286 38.1639 334.197 37.687 334.207C37.2101 334.217 36.7405 334.326 36.3082 334.528C35.8758 334.729 35.4901 335.019 35.1757 335.377L30.7226 340.489L28.8998 342.588C28.342 343.228 28.0404 344.051 28.0531 344.899C28.0658 345.747 28.3919 346.561 28.9685 347.183C50.7167 370.689 76.0858 396.963 98.7482 419.589L101.896 422.568Z" fill="#645D5C"/>
<path d="M145.378 284.824C147.895 291.871 150.633 298.852 153.515 305.759V303.324C149.404 323.48 146.815 343.916 145.769 364.461C145.511 370.355 154.675 370.343 154.931 364.461C155.503 350.934 156.821 337.448 158.878 324.066C159.482 320.172 160.247 316.307 161.018 312.444C161.4 310.491 161.835 308.54 162.19 306.58C162.546 304.759 162.294 302.872 161.474 301.207C158.928 294.986 156.473 288.718 154.221 282.389C153.872 281.234 153.092 280.258 152.042 279.662C150.993 279.067 149.755 278.897 148.585 279.19C147.419 279.522 146.43 280.298 145.832 281.352C145.234 282.406 145.073 283.653 145.385 284.824H145.378Z" fill="#211715"/>
<path d="M182.734 282.072C181.373 286.292 180.115 290.545 178.901 294.809C177.447 298.89 176.308 303.076 175.492 307.33C175.464 310.249 175.814 313.158 176.534 315.986C178.114 326.091 179.832 336.174 181.688 346.236C182.461 350.456 183.188 354.707 184.211 358.876C185.618 364.602 194.455 362.174 193.046 356.44C190.998 348.103 189.725 339.531 188.275 331.077C187.423 326.114 186.596 321.151 185.793 316.189C185.505 314.391 185.221 312.591 184.952 310.789C184.85 310.109 184.761 309.43 184.656 308.752C184.511 307.798 184.734 309.749 184.694 309.042C184.644 308.84 184.619 308.632 184.621 308.424C184.633 308.37 184.679 307.743 184.608 308.195C184.511 308.84 184.868 307.544 184.854 307.588C185.074 306.933 185.236 306.252 185.41 305.576C186.062 303.221 186.72 300.867 187.383 298.514C188.719 293.826 190.082 289.149 191.582 284.511C193.396 278.886 184.553 276.477 182.747 282.076L182.734 282.072Z" fill="#211715"/>
<path d="M159.093 310.94C164.924 310.711 170.761 310.468 176.598 310.367C177.813 310.367 178.978 309.884 179.837 309.025C180.696 308.166 181.179 307.001 181.179 305.786C181.179 304.571 180.696 303.406 179.837 302.547C178.978 301.688 177.813 301.205 176.598 301.205C170.761 301.308 164.924 301.551 159.093 301.778C157.878 301.778 156.713 302.26 155.853 303.119C154.994 303.978 154.512 305.144 154.512 306.359C154.512 307.574 154.994 308.739 155.853 309.598C156.713 310.457 157.878 310.94 159.093 310.94Z" fill="#211715"/>
<path d="M148.016 290.325C154.106 283.769 160.557 277.557 167.338 271.719L161.785 272.435C171.018 278.445 180.527 284.026 189.462 290.499C190.513 291.103 191.76 291.269 192.933 290.962C194.106 290.654 195.111 289.898 195.73 288.856C196.317 287.8 196.473 286.559 196.167 285.392C195.861 284.224 195.116 283.219 194.087 282.587C185.162 276.115 175.652 270.534 166.41 264.525C165.532 264.029 164.516 263.831 163.516 263.96C162.516 264.089 161.584 264.538 160.86 265.241C154.078 271.074 147.627 277.282 141.537 283.836C137.552 288.168 144.019 294.664 148.016 290.314V290.325Z" fill="#211715"/>
<path d="M309.343 579.026C323.932 574.208 338.194 568.45 352.04 561.79C367.403 554.367 383.815 545.619 394.158 531.632C402.643 520.158 405.952 505.864 407.519 491.961C408.924 479.474 407.519 467.078 405.777 454.689C400.256 417.59 391.568 381.033 379.808 345.417C374.134 327.782 367.289 309.703 356.926 294.225C347.573 280.241 333.666 269.967 318.475 263.026C310.139 259.209 301.443 256.275 292.827 253.177C283.993 250.001 275.15 246.848 266.271 243.802C264.341 243.141 262.415 242.465 260.474 241.836C258.496 241.198 260.649 242.089 260.102 241.746C259.705 241.496 259.25 241.311 258.838 241.082C256.738 239.912 254.749 238.564 252.766 237.222C248.353 234.237 244.032 231.114 239.743 227.953C238.918 227.346 238.096 226.736 237.275 226.123C236.224 225.517 234.977 225.35 233.804 225.658C232.63 225.966 231.625 226.723 231.007 227.766C230.422 228.822 230.266 230.062 230.572 231.23C230.878 232.397 231.623 233.402 232.65 234.035C239.434 239.396 246.539 244.336 253.927 248.829C256.27 250.039 258.725 251.02 261.256 251.757C265.456 253.182 269.646 254.634 273.827 256.111C282.38 259.119 290.912 262.194 299.439 265.273C315.419 271.047 330.458 278.252 342.445 290.613C347.239 295.839 351.298 301.693 354.51 308.015C358.757 315.948 362.469 324.155 365.623 332.583C372.526 351.411 378.375 370.61 383.143 390.089C387.64 407.533 391.595 425.138 394.691 442.889C398.949 467.321 402.368 493.108 392.194 516.62C389.111 523.748 384.425 530.069 378.501 535.091C372.287 540.136 365.571 544.53 358.459 548.204C344.645 555.64 330.277 561.996 315.482 567.215C312.635 568.243 309.777 569.235 306.906 570.19C301.336 572.04 303.722 580.891 309.341 579.024L309.343 579.026Z" fill="#211715"/>
<path d="M279.674 499.844C290.017 495.454 299.96 490.344 310.063 485.45C311.103 484.829 311.859 483.825 312.166 482.653C312.473 481.481 312.308 480.235 311.706 479.184C311.076 478.153 310.071 477.407 308.903 477.101C307.735 476.795 306.493 476.952 305.438 477.54C295.335 482.434 285.396 487.546 275.049 491.932C274.006 492.551 273.248 493.556 272.941 494.729C272.633 495.902 272.8 497.149 273.406 498.2C274.041 499.225 275.045 499.967 276.212 500.273C277.378 500.579 278.618 500.425 279.674 499.844Z" fill="#211715"/>
<path d="M81.7256 499.252C65.1749 513.549 38.6835 512.831 23.2742 497.296C18.9264 493.034 15.5363 487.895 13.3297 482.22C11.5475 476.939 10.4149 471.46 9.95695 465.905C8.81541 454.017 8.86912 442.044 10.1173 430.167C11.4324 415.836 13.7 401.584 16.1088 387.4C18.1607 375.316 20.4989 363.277 23.301 351.344C25.8014 340.716 28.6874 330.185 31.8445 319.735C34.8661 309.998 39.2707 300.745 44.9232 292.261C51.4282 282.375 62.3137 276.468 72.6572 271.402C84.2388 265.844 96.1111 260.913 108.223 256.63C110.843 255.676 113.466 254.722 116.11 253.847C121.676 251.992 119.29 243.141 113.674 245.014C100.886 249.278 88.2554 254.269 75.9517 259.787C64.4992 264.924 52.7624 270.568 43.7321 279.493C39.5962 283.768 36.0914 288.611 33.3238 293.876C30.3338 299.109 27.6804 304.529 25.3796 310.1C23.4473 315.368 21.7864 320.733 20.4035 326.171C18.8243 331.689 17.3381 337.237 15.9447 342.816C9.23493 369.953 4.38816 397.518 1.43824 425.317C-0.118119 438.016 -0.412229 450.838 0.560221 463.595C0.97259 469.761 1.97805 475.873 3.56267 481.846C5.57873 488.487 8.91147 494.654 13.3621 499.979C29.5998 519.815 59.0001 524.289 80.8724 511.115C83.463 509.531 85.9144 507.731 88.2001 505.732C92.6703 501.871 86.1653 495.425 81.7218 499.254L81.7256 499.252Z" fill="#211715"/>
<path d="M287.03 405.176L302.394 461.415C303.946 467.097 312.787 464.685 311.229 458.98L295.864 402.75C294.312 397.07 285.471 399.48 287.03 405.186V405.176Z" fill="#211715"/>
<path d="M156.26 163.119C155.011 158.538 156.26 148.147 164.87 147.538C176.214 147.971 176.41 160.594 172.4 166.397C169.117 171.147 159.858 172.867 156.26 163.119Z" fill="#211715"/>
<path d="M88.8295 163.062C87.6842 158.471 88.8295 148.044 96.7145 147.431C107.104 147.865 107.283 160.527 103.611 166.349C100.603 171.115 92.122 172.842 88.8295 163.062Z" fill="#211715"/>
<path d="M123.796 173.51C122.332 175.992 120.933 178.506 119.689 181.1C118.972 182.408 118.534 183.851 118.402 185.337C118.366 186.245 118.534 187.15 118.892 187.986C119.25 188.821 119.79 189.566 120.473 190.166C121.566 191.196 122.89 191.947 124.335 192.357C125.276 192.547 126.228 192.674 127.186 192.739L125.968 192.577L126.079 192.592C127.273 192.873 128.527 192.709 129.608 192.13C130.128 191.827 130.583 191.424 130.947 190.944C131.31 190.465 131.576 189.919 131.729 189.336C131.881 188.754 131.918 188.148 131.836 187.552C131.754 186.956 131.556 186.381 131.252 185.862C130.96 185.346 130.568 184.894 130.097 184.533C129.627 184.172 129.089 183.91 128.515 183.762C127.707 183.646 126.902 183.571 126.094 183.474L127.312 183.638C126.929 183.583 126.554 183.483 126.194 183.34L127.287 183.802C126.958 183.65 126.645 183.463 126.354 183.245L127.282 183.961C127 183.746 126.74 183.505 126.503 183.241L127.219 184.167C127.154 184.083 127.1 183.991 127.056 183.894L127.518 184.988C127.462 184.841 127.422 184.688 127.4 184.531L127.564 185.749C127.551 185.585 127.551 185.419 127.564 185.255L127.4 186.473C127.467 186.06 127.585 185.658 127.749 185.274L127.287 186.368C128.592 183.538 130.066 180.79 131.7 178.137C132.023 177.618 132.239 177.038 132.335 176.434C132.43 175.83 132.404 175.212 132.257 174.618C132.11 174.025 131.846 173.466 131.479 172.976C131.113 172.486 130.652 172.074 130.124 171.765C129.596 171.456 129.012 171.256 128.405 171.176C127.798 171.097 127.182 171.14 126.592 171.302C126.002 171.465 125.451 171.744 124.971 172.124C124.491 172.503 124.091 172.974 123.796 173.51Z" fill="#211715"/>
<path d="M245.651 150.207C247.654 148.89 250.039 148.276 252.429 148.462C254.82 148.648 257.08 149.624 258.856 151.235C259.017 151.396 259.17 151.565 259.314 151.741C259.262 151.68 258.947 151.235 259.237 151.646C259.457 151.955 259.657 152.276 259.844 152.6C260.227 153.28 260.52 154.007 260.717 154.763C261.371 157.32 261.594 159.969 261.379 162.6C260.831 172.858 255.176 184.247 246.109 189.553C242.58 191.619 235.653 193.329 231.141 191.258C230.084 190.68 228.846 190.528 227.681 190.834C226.516 191.139 225.511 191.879 224.874 192.901C224.27 193.953 224.104 195.199 224.412 196.372C224.719 197.545 225.476 198.55 226.518 199.17C229.989 200.592 233.718 201.279 237.468 201.187C241.218 201.094 244.909 200.225 248.306 198.633C255.063 195.77 260.436 189.817 264.095 183.59C267.782 177.424 269.975 170.481 270.499 163.316C270.959 156.92 270.005 149.81 265.498 144.921C262.318 141.78 258.167 139.81 253.723 139.333C249.279 138.855 244.805 139.898 241.03 142.291C236.163 145.563 240.742 153.503 245.655 150.203L245.651 150.207Z" fill="#211715"/>
<path d="M150.158 207.767C149.799 207.971 149.431 208.148 149.066 208.339C148.137 208.826 149.706 208.112 149.12 208.339C148.912 208.417 148.705 208.501 148.495 208.58C147.559 208.918 146.603 209.2 145.632 209.425C145.158 209.536 144.68 209.635 144.199 209.723C143.956 209.769 143.712 209.807 143.47 209.849C142.284 210.051 144.09 209.799 143.393 209.862C142.334 209.956 141.282 210.053 140.217 210.076C139.239 210.095 138.26 210.063 137.285 209.983C137.142 209.971 136.119 209.895 136.835 209.95C137.474 210 136.709 209.929 136.581 209.908C136.136 209.834 135.694 209.748 135.245 209.645C133.11 209.074 131.02 208.342 128.996 207.455C127.824 207.135 126.574 207.292 125.517 207.892C124.461 208.491 123.685 209.484 123.359 210.654C123.072 211.825 123.244 213.06 123.839 214.108C124.435 215.156 125.408 215.936 126.56 216.289C128.683 217.229 130.882 217.986 133.134 218.553C140.462 220.07 148.087 219.06 154.768 215.69C155.287 215.386 155.742 214.983 156.105 214.504C156.469 214.024 156.735 213.478 156.888 212.896C157.04 212.314 157.077 211.707 156.995 211.111C156.913 210.515 156.715 209.941 156.411 209.421C156.107 208.902 155.704 208.447 155.225 208.084C154.746 207.72 154.199 207.454 153.617 207.301C153.035 207.149 152.429 207.112 151.833 207.194C151.236 207.276 150.662 207.474 150.143 207.778L150.158 207.767Z" fill="#211715"/>
<path d="M189.709 247.86C199.663 242.728 208.811 236.164 216.861 228.379C221.207 223.954 225.166 219.165 228.695 214.063C231.688 209.987 234.338 205.669 236.618 201.155C237.201 200.098 237.355 198.859 237.049 197.692C236.743 196.525 236 195.521 234.975 194.886C233.923 194.285 232.677 194.12 231.506 194.427C230.334 194.734 229.329 195.489 228.708 196.53C219.44 215.535 203.626 230.229 185.076 239.957C179.852 242.696 184.479 250.606 189.701 247.867L189.709 247.86Z" fill="#211715"/>
<path d="M61.1643 140.976C63.2448 156.559 64.3099 172.279 66.5259 187.837C68.0426 200.584 72.0237 212.913 78.2475 224.14C91.4502 246.623 117.848 259.774 143.555 259.503C159.751 259.331 175.112 254.605 189.708 247.86C190.75 247.24 191.505 246.235 191.813 245.063C192.12 243.891 191.955 242.645 191.352 241.593C190.72 240.565 189.715 239.82 188.548 239.513C187.38 239.207 186.139 239.364 185.084 239.95C162.915 250.194 136.729 255.082 113.887 243.972C103.285 239.122 94.2005 231.483 87.6041 221.87C81.2442 212.033 77.8886 200.653 75.9436 189.187C73.2409 173.26 72.4583 156.988 70.3205 140.976C70.2823 139.773 69.7874 138.63 68.9364 137.779C68.0854 136.928 66.9423 136.433 65.7395 136.395C63.5196 136.395 60.8283 138.506 61.1585 140.976H61.1643Z" fill="#211715"/>
<path d="M243.142 27.8392C230.697 14.4713 214.237 5.51977 196.252 2.33848C177.858 -1.20032 158.915 -0.71783 140.725 3.75285C123.12 8.10677 106.866 16.7494 93.4129 28.91C89.859 32.154 86.5569 35.6635 83.5351 39.4081C80.9526 42.653 78.0112 45.5447 75.5184 48.8945C70.3645 56.1172 66.3758 64.1038 63.6976 72.5629C56.3356 94.4886 57.0933 118.138 61.1876 140.642C61.5197 141.808 62.2963 142.796 63.3503 143.394C64.4043 143.993 65.6511 144.153 66.8222 143.841C67.9806 143.495 68.9604 142.715 69.5564 141.663C70.1523 140.612 70.3182 139.37 70.0193 138.199C66.6332 119.6 65.717 99.9285 70.5748 81.5092C72.6523 73.316 75.9171 65.4708 80.2655 58.2226C82.0421 55.256 84.1217 52.4818 86.4708 49.9444C89.3816 46.8636 91.9088 43.4546 94.8368 40.372C118.52 15.4095 154.088 5.94409 187.907 10.2254C206.584 12.5903 223.875 20.2806 236.658 34.3175C240.636 38.6866 247.101 32.1931 243.136 27.8392H243.142Z" fill="#211715"/>
<path d="M271.442 146.057C274.988 137.345 277.394 128.211 278.6 118.882C279.484 110.189 279.493 101.428 278.627 92.7326C277.54 79.9268 274.603 67.2776 267.894 56.1859C264.351 50.4921 260.182 45.2133 255.464 40.4484C251.36 36.2014 244.886 42.6835 248.986 46.9286C256.425 54.2375 262.107 63.1404 265.603 72.9657C269.955 86.136 270.665 100.766 269.831 114.521C268.964 124.539 266.528 134.359 262.612 143.621C262.298 144.793 262.457 146.04 263.056 147.095C263.655 148.149 264.645 148.926 265.811 149.256C266.982 149.551 268.221 149.383 269.27 148.787C270.32 148.191 271.099 147.213 271.446 146.057H271.442Z" fill="#211715"/>
<path d="M261.496 264.366C263.645 267.47 265.515 270.757 267.083 274.191C268.203 276.277 269.02 278.512 269.509 280.829V278.394C270.765 276.645 271.095 276.057 270.498 276.628C271.241 276.073 271.417 275.933 271.027 276.208C270.735 276.362 270.455 276.536 270.189 276.729C269.475 277.155 268.738 277.546 268.003 277.938C265.684 279.169 263.325 280.327 260.966 281.482C256.253 283.788 251.504 286.019 246.782 288.306C246.184 288.666 245.675 289.156 245.294 289.74C244.912 290.324 244.668 290.987 244.579 291.679C244.489 292.37 244.558 293.074 244.779 293.735C245 294.397 245.367 295 245.854 295.5C248.981 298.863 252.124 302.209 255.217 305.603C256.578 307.097 257.927 308.601 259.263 310.117C260.515 311.539 262.575 313.171 262.953 315.131C263.193 316.383 262.264 317.307 261.603 318.309C260.692 319.691 259.789 321.076 258.893 322.463C256.95 325.465 255.024 328.479 253.117 331.506C244.146 345.711 235.322 360.021 226.259 374.174C220.351 383.4 214.335 392.554 208.212 401.637C204.898 406.535 212.833 411.124 216.122 406.262C227.286 389.763 237.964 372.947 248.532 356.062C252.939 349.021 257.33 341.966 261.777 334.95C263.724 331.877 265.686 328.814 267.664 325.761C269.839 322.417 272.435 319.218 272.145 314.977C271.75 309.21 267.055 305.072 263.42 301.031C259.786 296.991 256.041 293.015 252.333 289.022L251.407 296.216C259.08 292.503 267.016 289.125 274.415 284.872C275.779 284.232 276.957 283.253 277.837 282.03C279.036 280.018 278.288 277.67 277.553 275.638C275.551 270.003 272.813 264.657 269.408 259.742C268.773 258.717 267.768 257.975 266.602 257.669C265.435 257.364 264.196 257.517 263.14 258.098C262.098 258.719 261.343 259.723 261.035 260.896C260.728 262.068 260.893 263.315 261.496 264.366Z" fill="#211715"/>
<path d="M118.858 256.541C120.614 275.716 125.266 294.811 129.591 313.528C134.201 334.731 139.871 355.69 146.579 376.325C151.296 390.213 157.108 403.75 162.597 417.342C162.952 418.494 163.733 419.466 164.781 420.061C165.828 420.656 167.063 420.828 168.234 420.543C169.401 420.213 170.391 419.436 170.99 418.381C171.588 417.326 171.748 416.078 171.433 414.907C166.329 402.271 161.032 389.683 156.442 376.847C153.294 368.045 150.715 359.036 148.234 350.029C142.141 327.901 136.856 305.56 132.378 283.005C131.343 277.798 130.364 272.578 129.503 267.34C129.155 265.227 128.832 263.11 128.534 260.992C128.497 260.793 128.472 260.592 128.457 260.391C128.408 259.992 128.358 259.591 128.31 259.192C128.207 258.301 128.115 257.415 128.034 256.533C128.002 255.328 127.509 254.181 126.657 253.329C125.804 252.477 124.658 251.984 123.453 251.952C122.24 251.96 121.08 252.446 120.223 253.303C119.366 254.16 118.88 255.321 118.872 256.533L118.858 256.541Z" fill="#211715"/>
<path d="M176.566 417.14C185.131 398.163 193.069 378.889 200.882 359.593C210.279 336.391 219.28 313.045 227.343 289.352C233.136 272.324 239.423 255.474 243.586 237.944C244.947 232.217 236.115 229.765 234.751 235.508C230.78 250.937 226.029 266.154 220.513 281.1C216.492 292.66 212.569 304.238 208.274 315.702C199.477 339.179 190.063 362.426 180.338 385.531C176.536 394.567 172.688 403.59 168.655 412.525C168.077 413.582 167.926 414.82 168.232 415.985C168.537 417.15 169.276 418.155 170.298 418.793C171.35 419.396 172.596 419.562 173.769 419.255C174.941 418.947 175.946 418.191 176.566 417.15V417.14Z" fill="#211715"/>
<path d="M187.259 100.322C194.938 103.527 201.682 108.623 206.862 115.135C212.167 122.405 215.925 130.685 217.904 139.464C219.362 145.173 228.202 142.755 226.74 137.029C224.444 127.105 220.127 117.761 214.058 109.581C208.21 102.1 200.589 96.196 191.884 92.4023C190.827 91.8251 189.589 91.6737 188.424 91.9792C187.258 92.2847 186.254 93.024 185.616 94.0458C185.012 95.0972 184.847 96.3438 185.154 97.5164C185.461 98.6891 186.218 99.6939 187.259 100.314V100.322Z" fill="#211715"/>
<path d="M120.963 410.692C97.0596 387.024 73.4338 363.088 50.0861 338.884C48.6863 337.438 47.2942 335.993 45.9098 334.547C44.4647 332.646 42.5813 331.123 40.4202 330.107C38.8896 329.592 37.2407 329.541 35.6813 329.961C34.1218 330.381 32.7217 331.254 31.6572 332.468C28.9295 335.052 26.5085 337.941 24.4421 341.079C21.9703 345.604 24.7208 349.324 27.7309 352.567C30.5431 355.596 33.363 358.617 36.1904 361.63C42.2259 368.062 48.2963 374.462 54.4017 380.828C67.9551 394.972 81.6598 408.969 95.516 422.82C99.6924 426.993 106.174 420.517 101.994 416.342C79.3706 393.745 57.1586 370.74 35.3582 347.326C34.6883 346.606 34.0221 345.877 33.3521 345.165C33.2453 345.053 32.8292 344.448 32.6593 344.449C32.2355 344.449 32.8673 344.587 32.6421 344.89C31.8786 345.917 32.1859 345.776 32.8616 344.999L36.6123 340.695C37.1445 340.186 37.6294 339.629 38.061 339.032C38.0954 338.971 38.4218 338.689 38.4027 338.639C38.4924 338.87 37.1677 338.639 37.204 338.622C36.9902 338.761 37.5418 339.061 37.9236 339.456L38.8283 340.399L40.6302 342.272C42.1126 343.814 43.597 345.355 45.0833 346.895C55.4656 357.656 65.9 368.366 76.3866 379.024C89.0034 391.824 101.705 404.54 114.493 417.171C118.692 421.324 125.17 414.848 120.971 410.692H120.963Z" fill="#211715"/>
<path d="M73.903 138.567C84.6952 127.243 96.7647 117.209 109.869 108.667C111.291 107.777 112.732 106.92 114.206 106.119C114.504 105.958 116.21 105.304 116.271 105.044C116.237 105.195 114.744 104.916 114.635 104.943C114.143 105.059 114.128 103.664 114.502 105.588C114.866 107.449 114.311 109.304 114.681 111.156C114.893 112.248 115.335 113.283 115.979 114.191C116.622 115.1 117.452 115.86 118.413 116.422C122.364 118.712 126.048 116.561 129.608 114.685C133.001 112.893 136.378 111.058 139.764 109.257C147.646 104.831 155.778 100.867 164.12 97.3841C165.271 97.0309 166.244 96.2504 166.839 95.2028C167.434 94.1551 167.606 92.9196 167.319 91.7495C166.988 90.5828 166.212 89.5929 165.158 88.9939C164.103 88.3949 162.855 88.2349 161.684 88.5486C153.844 91.7469 146.187 95.3791 138.751 99.4284C135.172 101.314 131.61 103.236 128.041 105.143C126.505 105.965 124.965 106.781 123.421 107.59C123.141 107.737 122.005 108.197 122.005 108.354C122.005 108.039 123.452 108.797 123.28 108.735C123.893 108.976 123.347 110.022 123.757 108.682C124.066 106.536 123.851 104.347 123.129 102.303C122.824 101.134 122.279 100.042 121.529 99.095C120.779 98.1483 119.84 97.368 118.772 96.8039C114.777 94.7787 110.847 97.4185 107.44 99.4208C100.423 103.698 93.7488 108.513 87.4779 113.824C80.477 119.556 73.7833 125.653 67.4247 132.091C63.2827 136.29 69.7572 142.778 73.903 138.567Z" fill="#211715"/>
<path d="M91.8905 270.436C89.1034 273.774 86.654 277.379 84.5781 281.2C82.9061 284.303 80.2281 288.47 80.8713 292.137C81.7093 296.908 87.9909 298.435 91.8485 300.136C92.3314 300.35 93.4614 301.134 93.9863 301.091C94.0302 301.091 94.2554 301.249 94.286 301.224C93.8584 301.596 93.5893 299.39 93.7992 299.543C93.6084 299.405 86.1261 307.647 85.3187 308.527C82.3315 311.772 78.5465 315.156 80.1937 319.979C81.6913 323.465 83.4825 326.816 85.5478 329.998C90.9438 339.758 96.6528 349.359 101.801 359.252L113.654 382.033L123.056 400.101C125.778 405.333 133.688 400.706 130.968 395.476L111.499 358.047C107.569 350.493 103.366 343.113 99.2048 335.683C97.1548 332.022 95.115 328.356 93.0854 324.684C92.2353 323.147 91.3891 321.609 90.5467 320.071C90.1555 319.353 89.7623 318.636 89.3729 317.918C89.1076 317.433 89.182 316.987 88.8919 317.3C88.9126 317.544 88.882 317.789 88.8022 318.021C88.5871 318.708 88.7385 318.649 89.2564 317.844C90.7109 316.563 91.9401 314.847 93.2648 313.427C94.7383 311.852 96.2291 310.294 97.7179 308.735C100.466 305.859 103.362 303.055 102.681 298.71C101.816 293.236 95.4274 291.763 91.0755 289.837C90.5926 289.547 90.0759 289.318 89.537 289.155C88.6838 289.043 88.5617 288.098 89.4168 290.003C90.123 291.579 89.6821 291.446 90.1001 290.812C90.517 290.025 90.8836 289.213 91.1976 288.38C93.1229 284.288 95.5352 280.442 98.3821 276.928C99.2103 276.053 99.6717 274.894 99.6717 273.689C99.6717 272.484 99.2103 271.325 98.3821 270.45C97.5181 269.599 96.3544 269.123 95.142 269.123C93.9297 269.123 92.766 269.599 91.902 270.45L91.8905 270.436Z" fill="#211715"/>
<path d="M86.9934 383.747C87.6176 383.512 88.255 383.314 88.9022 383.153C89.2133 383.079 89.5263 383.023 89.8394 382.962C90.6143 382.802 88.9365 383.002 89.9978 382.962C90.5916 382.931 91.1867 382.931 91.7806 382.962C91.9256 382.962 92.0707 382.987 92.2177 382.996C92.8437 383.037 92.1031 383.187 91.8588 382.949C91.9905 383.082 92.6395 383.103 92.838 383.153C93.3953 383.292 93.9203 383.502 94.4642 383.672C94.9204 383.813 94.0367 383.506 94.0271 383.481C94.05 383.535 94.3574 383.634 94.4089 383.663C94.7067 383.817 95.0044 383.964 95.2945 384.13C95.7985 384.418 96.2737 384.747 96.7509 385.073C96.121 384.522 97.44 385.545 96.7509 385.073C97.0105 385.304 97.2758 385.526 97.5297 385.76C97.9725 386.17 98.3956 386.599 98.799 387.049C99.0032 387.276 99.1998 387.509 99.3983 387.742C100.078 388.528 99.0968 387.283 99.5415 387.908C100.344 389.017 101.071 390.179 101.717 391.385C102.019 391.958 102.29 392.531 102.563 393.118C102.945 393.909 102.29 392.395 102.605 393.212C102.742 393.563 102.88 393.914 103.008 394.268C103.463 395.529 103.839 396.818 104.134 398.127C104.216 398.488 104.29 398.852 104.359 399.217C104.388 399.372 104.416 399.528 104.443 399.685C104.479 399.893 104.77 400.658 104.504 400.007C104.313 399.518 104.479 399.78 104.504 400.019C104.525 400.225 104.55 400.429 104.571 400.635C104.605 400.992 104.632 401.351 104.653 401.708C104.735 403.137 104.692 404.57 104.523 405.991C104.523 407.206 105.006 408.371 105.865 409.23C106.724 410.089 107.889 410.572 109.104 410.572C110.308 410.537 111.454 410.044 112.305 409.192C113.157 408.34 113.651 407.195 113.685 405.991C114.25 399.539 112.943 393.06 109.921 387.331C108.566 384.37 106.632 381.709 104.234 379.505C101.835 377.302 99.0206 375.6 95.955 374.501C92.2065 373.407 88.2053 373.553 84.5464 374.917C83.3748 375.24 82.3794 376.015 81.7793 377.072C81.1791 378.129 81.0234 379.381 81.3464 380.552C81.6694 381.724 82.4446 382.719 83.5015 383.319C84.5583 383.92 85.8103 384.075 86.982 383.752L86.9934 383.747Z" fill="#211715"/>
<path d="M51.086 378.938C51.9545 385.159 55.8578 390.685 59.8166 395.354C64.1937 400.324 68.961 404.937 74.073 409.148C76.4512 411.185 78.8734 413.174 81.2212 415.245C82.251 416.109 83.227 417.036 84.1435 418.02C83.483 417.275 84.3477 418.352 84.5042 418.699C84.702 419.141 84.8412 419.606 84.9184 420.083C85.0314 420.712 84.9534 421.36 84.6945 421.944C84.4355 422.527 84.0076 423.02 83.4659 423.359C81.2059 424.866 78.1462 424.198 75.7813 423.332C72.3208 421.804 69.0714 419.837 66.1135 417.48C62.6332 415.033 59.2681 412.438 56.0182 409.696C55.1437 408.866 53.9843 408.404 52.779 408.404C51.5738 408.404 50.4144 408.866 49.5399 409.696C48.6901 410.56 48.2139 411.723 48.2139 412.935C48.2139 414.147 48.6901 415.31 49.5399 416.174C52.9337 419.026 56.4292 421.751 60.0265 424.351C63.2687 426.878 66.7435 429.091 70.4044 430.961C77.482 434.229 86.8558 434.752 91.8758 427.705C95.7811 422.223 94.1491 414.869 89.5242 410.429C84.2141 405.331 78.2626 400.929 72.9315 395.84C67.4802 390.639 61.0248 384.35 59.9292 376.51C59.6001 375.343 58.8241 374.352 57.7693 373.753C56.7145 373.154 55.466 372.994 54.2946 373.31C53.1405 373.66 52.1652 374.44 51.5698 375.489C50.9745 376.538 50.8047 377.776 51.0955 378.946L51.086 378.938Z" fill="#211715"/>
<path d="M47.9848 435.309C53.3288 439.738 59.0299 443.716 65.0299 447.205C65.5492 447.508 66.1233 447.707 66.7194 447.788C67.3154 447.87 67.9217 447.834 68.5037 447.681C69.0857 447.529 69.6319 447.263 70.1112 446.9C70.5905 446.536 70.9935 446.081 71.2972 445.562C71.6009 445.043 71.7993 444.469 71.8811 443.873C71.9629 443.277 71.9265 442.67 71.774 442.088C71.6215 441.506 71.3558 440.96 70.9922 440.481C70.6286 440.001 70.1741 439.598 69.6547 439.295C66.8363 437.691 64.1025 435.943 61.4643 434.057C60.1168 433.113 58.7851 432.147 57.4693 431.158L56.4463 430.394L55.9481 430.013C55.4594 429.631 56.1848 430.203 56.2917 430.278C55.6713 429.812 55.0681 429.324 54.4631 428.839C53.5803 428.013 52.4265 427.538 51.2182 427.503C50.3106 427.5 49.4227 427.768 48.6673 428.271C47.9119 428.774 47.323 429.491 46.9753 430.329C46.6277 431.167 46.5369 432.09 46.7146 432.98C46.8923 433.87 47.3304 434.688 47.9734 435.328L47.9848 435.309Z" fill="#211715"/>
<path d="M234.835 584.63C247.063 584.84 259.267 584.187 270.895 580.595C274.266 579.555 277.555 578.276 280.842 576.997C292.729 572.112 300.681 556.001 298.826 542.321C298.1 537.762 296.894 533.293 295.228 528.988C291.481 520.757 286.307 513.254 279.945 506.826C275.364 502.153 269.172 495.015 260.447 489.399C259.236 488.735 257.991 488.134 256.719 487.597C250.4 484.89 243.473 483.918 236.652 484.782C240.149 494.854 242.93 502.819 244.316 506.711C239.605 510.338 236.265 512.275 227.078 512.348C216.832 512.428 191.62 513.348 181.385 513.915C179.637 513.887 177.905 514.262 176.325 515.01C174.745 515.758 173.357 516.859 172.271 518.229C171.307 519.903 170.833 521.813 170.903 523.743C170.973 525.673 171.584 527.545 172.666 529.145C173.568 530.226 174.69 531.103 175.957 531.716C177.225 532.329 178.609 532.665 180.016 532.701C172.08 536.264 172.849 546.761 177.268 550.315C179.961 552.175 183.211 553.058 186.475 552.815C184.872 555.212 184.047 558.046 184.114 560.929C184.238 562.702 184.889 564.397 185.984 565.796C187.079 567.195 188.568 568.235 190.259 568.782C194.912 570.526 200.209 569.486 204.956 569.559C201.413 573.542 204.089 579.217 208.187 581.603C211.694 583.643 215.925 583.884 219.976 584.075C224.902 584.315 229.871 584.544 234.835 584.63Z" fill="white"/>
<path d="M199.357 570.162C196.175 579.102 204.583 586.577 212.653 587.953C217.133 588.571 221.648 588.901 226.171 588.942C230.908 589.133 235.65 589.278 240.391 589.24C249.636 589.297 258.855 588.272 267.862 586.186C275.779 584.225 284.397 581.542 290.644 576.1C295.661 571.479 299.417 565.655 301.557 559.179C303.698 552.703 304.153 545.788 302.879 539.087C301.49 531.893 298.822 525.005 295.002 518.752C290.798 512.177 285.876 506.09 280.326 500.603C273.977 493.969 267.079 487.03 258.503 483.411C253.319 481.499 247.89 480.33 242.378 479.939C241.165 479.946 240.004 480.431 239.146 481.288C238.288 482.146 237.803 483.307 237.797 484.52C237.826 485.726 238.318 486.875 239.171 487.727C240.024 488.58 241.172 489.072 242.378 489.101L246.898 489.674C247.778 489.785 248.665 489.865 249.543 490.006C249.809 490.048 250.085 490.048 250.347 490.109C250.454 490.132 250.549 490.229 250.255 490.142C249.78 490 251.649 490.615 251.649 490.615C258.635 492.76 264.151 497.45 269.305 502.472C278.541 511.472 288.518 521.678 292.316 534.348C293.051 536.848 293.654 539.385 294.124 541.949C294.221 542.468 294.315 542.989 294.403 543.512C294.212 542.22 294.443 544.275 294.462 544.625C294.513 545.512 294.523 546.402 294.498 547.297C294.263 553.202 292.424 558.932 289.18 563.872C285.933 568.768 281.108 572.405 275.508 574.18C268.056 577.002 260.258 578.808 252.324 579.547C243.177 580.222 233.995 580.286 224.839 579.738C220.733 579.56 216.295 579.768 212.34 578.488C209.788 577.661 207.186 575.462 208.192 572.611C208.504 571.44 208.343 570.193 207.745 569.14C207.146 568.086 206.158 567.309 204.993 566.976C203.823 566.678 202.582 566.845 201.531 567.441C200.48 568.037 199.701 569.017 199.357 570.175V570.162Z" fill="#211715"/>
<path d="M199.381 572.945C185.103 577.829 130.162 594.855 118.45 598.484C118.21 598.56 117.957 598.587 117.707 598.564C117.456 598.54 117.212 598.467 116.99 598.349C116.768 598.23 116.572 598.068 116.413 597.873C116.255 597.677 116.137 597.452 116.066 597.21C111.453 581.524 78.735 470.232 68.2197 433.862C68.1495 433.618 68.1288 433.362 68.1589 433.11C68.1889 432.858 68.269 432.614 68.3945 432.393C68.5201 432.172 68.6885 431.978 68.8898 431.823C69.0912 431.668 69.3215 431.555 69.5673 431.49C104.177 422.433 176.959 400.505 203.315 393.792C203.777 393.674 204.268 393.733 204.689 393.958C205.111 394.184 205.432 394.559 205.59 395.01C214.065 419.472 237.508 487.416 243.748 505.076L199.381 572.945Z" fill="white"/>
<path d="M248.162 503.858C242.753 488.544 237.473 473.186 232.157 457.84C225.725 439.262 219.299 420.677 212.879 402.086L211.161 397.102C210.683 394.909 209.731 392.848 208.371 391.063C204.891 387.585 199.457 390.045 195.391 391.137C186.903 393.428 178.443 395.823 169.99 398.234C148.488 404.369 127.028 410.641 105.528 416.775C95.8771 419.526 86.2208 422.257 76.5377 424.888C72.0274 426.111 64.9383 426.59 63.732 432.028C63.0257 435.216 65.0986 439.541 65.9919 442.622C70.7447 458.981 75.5204 475.332 80.3189 491.676C85.8759 510.649 91.4393 529.62 97.009 548.587C101.15 562.687 105.292 576.786 109.435 590.885C110.002 592.809 110.569 594.734 111.134 596.661C111.386 597.744 111.76 598.795 112.246 599.795C113.038 601.142 114.274 602.17 115.743 602.701C117.212 603.233 118.82 603.234 120.29 602.706C126.726 600.894 133.078 598.738 139.473 596.751C157.195 591.234 174.926 585.735 192.583 580.011C195.256 579.142 197.939 578.268 200.6 577.36C206.149 575.464 203.765 566.612 198.165 568.524C175.613 576.222 152.737 583.031 129.984 590.106L122.252 592.507C120.421 593.2 118.538 593.749 116.621 594.149H119.055C121.046 594.508 120.532 596.726 120.275 595.294C120.225 595.027 120.114 594.75 120.038 594.491L119.444 592.475L117.933 587.321C116.557 582.641 115.181 577.961 113.806 573.281C109.91 560.023 106.016 546.765 102.126 533.508C93.7278 504.909 85.3548 476.305 77.0073 447.697C76.2234 445.008 75.4408 442.318 74.6595 439.627C74.3516 438.571 74.0455 437.516 73.7414 436.462C73.5511 435.249 73.208 434.065 72.7202 432.939L71.2181 435.787L71.6571 435.67C72.1141 435.601 72.5622 435.482 72.9932 435.315L75.0756 434.762C76.7884 434.301 78.5005 433.838 80.212 433.372C83.7992 432.395 87.3819 431.405 90.9602 430.402C107.906 425.668 124.808 420.772 141.712 415.896C157.554 411.315 173.374 406.724 189.255 402.313C192.24 401.482 195.23 400.664 198.226 399.858C199.513 399.513 200.802 399.172 202.091 398.833C202.633 398.746 203.166 398.608 203.683 398.421C205.651 397.446 201.327 402.16 201.278 396.552C201.355 396.902 201.473 397.241 201.629 397.564C203.642 403.382 205.655 409.2 207.666 415.018C217.519 443.512 227.392 472.002 237.284 500.485C237.961 502.421 238.641 504.355 239.323 506.29C239.672 507.444 240.451 508.421 241.5 509.016C242.549 509.612 243.787 509.781 244.957 509.489C246.123 509.157 247.112 508.38 247.71 507.326C248.309 506.272 248.47 505.025 248.158 503.854L248.162 503.858Z" fill="#211715"/>
<path d="M242.76 502.127C240.119 504.528 236.948 506.272 233.505 507.213C229.553 507.813 225.553 508.028 221.56 507.857C212.11 508.061 202.663 508.399 193.217 508.786C184.819 509.13 172.639 507.87 167.941 516.564C166.591 519.172 166.053 522.124 166.396 525.04C166.738 527.956 167.947 530.703 169.865 532.926C173.923 537.274 179.911 537.482 185.447 537.351C201.225 536.98 216.999 536.457 232.766 535.782C238.637 535.52 238.67 526.356 232.766 526.62C219.805 527.196 206.838 527.65 193.868 527.981C190.748 528.063 187.626 528.14 184.504 528.212C182.356 528.447 180.183 528.264 178.106 527.673C177.454 527.443 176.878 527.038 176.441 526.503C176.003 525.968 175.721 525.323 175.624 524.638C175.44 523.855 175.403 523.044 175.515 522.247C175.604 521.886 175.72 521.533 175.861 521.189C176.256 520.044 175.802 520.998 176.336 520.441C178.453 518.25 182.694 518.42 185.88 518.269C190.019 518.074 194.16 517.9 198.302 517.748C206.731 517.425 215.164 517.129 223.598 516.984C228.289 517.186 232.986 516.736 237.553 515.648C241.864 514.071 245.834 511.686 249.25 508.62C250.103 507.758 250.581 506.594 250.581 505.381C250.581 504.168 250.103 503.004 249.25 502.142C248.377 501.31 247.217 500.846 246.011 500.846C244.805 500.846 243.645 501.31 242.772 502.142L242.76 502.127Z" fill="#211715"/>
<path d="M175.907 529.773C173.405 531.586 171.492 534.095 170.406 536.987C169.32 539.88 169.109 543.028 169.799 546.039C171.227 552.876 176.861 556.537 183.509 557.249C187.158 557.474 190.819 557.41 194.458 557.058L207.178 556.394L233.087 555.039C238.953 554.732 238.989 545.568 233.087 545.877L191.16 548.07C188.547 548.359 185.909 548.346 183.299 548.032C182.498 547.962 181.723 547.712 181.032 547.301C180.34 546.89 179.75 546.329 179.304 545.659C178.695 544.407 178.439 543.012 178.562 541.624C178.673 540.105 179.379 538.691 180.526 537.688C181.547 537.049 182.285 536.045 182.591 534.88C182.896 533.715 182.745 532.478 182.17 531.42C181.55 530.378 180.545 529.621 179.372 529.313C178.199 529.006 176.952 529.172 175.901 529.777L175.907 529.773Z" fill="#211715"/>
<path d="M236.518 563.29C225.389 563.841 214.26 564.406 203.132 564.983C199.162 565.188 193.613 566.235 190.21 563.578C187.526 561.479 188.816 557.524 190.431 555.136L186.476 557.404H186.499C192.393 557.404 192.403 548.242 186.499 548.242C180.225 548.242 178.702 559.585 179.956 564.084C181.737 570.473 188.085 573.641 194.216 574.254C200.977 574.93 208.12 573.886 214.888 573.538C222.097 573.171 229.307 572.807 236.518 572.448C242.385 572.156 242.422 562.992 236.518 563.286V563.29Z" fill="#211715"/>
</svg>
