<svg width="661" height="541" viewBox="0 0 661 541" fill="none" xmlns="http://www.w3.org/2000/svg">
<path d="M383.463 397.767C380.157 398.627 377.196 400.483 374.982 403.084C371.462 407.596 369.574 413.167 369.627 418.89C369.698 424.565 370.379 430.216 371.658 435.745C371.954 436.643 372.065 437.591 371.983 438.533C371.902 439.474 371.63 440.389 371.185 441.223L376.61 443.448C378.504 436.757 380.973 430.156 383.451 423.729C385.894 417.384 389.431 408.84 393.531 399.343C392.059 398.384 390.401 397.747 388.666 397.476C386.93 397.204 385.157 397.303 383.463 397.767Z" fill="white"/>
<path d="M147.321 159.403C140.95 156.094 135.086 151.888 129.908 146.915C126.708 143.569 123.813 139.944 121.258 136.083C121.258 136.083 118.768 132.244 117.717 130.038C117.717 130.038 117.441 129.461 117.009 128.56C113.694 128.813 110.376 128.127 107.434 126.581C103.362 123.964 100.163 120.192 98.2457 115.748C95.9876 111.186 94.979 103.519 97.0102 99.046C97.6435 97.6987 98.6237 96.544 99.8503 95.7004C101.077 94.8568 102.506 94.3546 103.99 94.2453C105.901 93.9482 107.857 94.2346 109.603 95.0672C128.596 88.4098 138.288 85.5374 155.149 77.2082C173.837 67.9715 181.848 61.3019 193.139 48.4146C206.325 52.32 223.793 83.6161 225.754 99.2484C224.974 105.986 224.346 112.638 223.65 118.873C222.027 133.515 217.56 146.742 207.299 155.136C202.398 159.371 196.675 162.549 190.49 164.471C184.304 166.392 177.788 167.017 171.35 166.304C169.195 166.12 167.052 165.823 164.928 165.414C158.866 164.053 152.968 162.041 147.338 159.411" fill="white"/>
<path d="M443.647 479.815C443.647 499.021 443.412 518.016 438.325 536.674C437.142 541.014 443.872 542.866 445.055 538.529C450.303 519.283 450.627 499.627 450.627 479.815C450.627 475.323 443.647 475.316 443.647 479.815Z" fill="#211715"/>
<path d="M271.782 514.75C280.756 512.179 289.636 509.246 298.541 506.452C315.381 501.167 332.216 495.865 349.045 490.546L380.355 480.663C384.624 479.316 382.799 472.575 378.5 473.933C345.937 484.209 313.395 494.549 280.791 504.691C277.175 505.817 273.566 506.975 269.926 508.019C265.615 509.253 267.448 515.99 271.782 514.75Z" fill="#211715"/>
<path d="M442.918 145.66C441.381 151.341 440.471 157.172 440.204 163.05C438.822 173.812 436.946 188.744 426.549 193.121C424.457 193.91 422.687 195.371 421.514 197.274C418.623 202.414 423.015 205.279 425.579 208.656C427.185 210.827 428.237 213.357 428.645 216.027C428.463 221.292 428.685 226.563 429.31 231.794C429.68 235.478 430.517 239.101 431.802 242.575C433.611 247.625 437.309 251.776 442.118 254.153C449.996 257.945 461.073 260.109 468.504 258.865C469.369 258.725 470.255 258.905 470.996 259.371C471.738 259.837 472.285 260.557 472.535 261.397C474.376 265.339 475.948 269.401 477.238 273.557L477.863 275.651C485.459 269.745 494.119 265.352 503.372 262.711C516.031 258.93 529.16 256.948 542.371 256.825C543.009 256.819 543.645 256.877 544.271 256.999C548.529 249.914 557.659 243.674 563.249 238.676C573.915 229.12 589.948 210.012 591.95 181.438C592.788 166.128 589.422 150.881 582.216 137.347C565.678 107.005 544.348 99.9623 531.068 96.9695C518.293 94.2676 505.067 94.5549 492.422 97.8089C467 103.967 454.002 120.261 451.695 123.945C446.532 131.534 443.225 140.23 442.042 149.332" fill="white"/>
<path d="M490.614 98.2713C466.382 104.744 453.948 120.352 451.699 123.947C448.399 128.877 445.83 134.26 444.073 139.928C448.095 154.172 456.826 166.632 468.843 175.274C468.843 175.274 477.528 175.478 483.131 175.623C488.066 182.182 494.217 187.729 501.248 191.962C502.729 191.076 504.389 190.529 506.107 190.362C507.62 190.141 509.164 190.26 510.626 190.708C512.088 191.157 513.432 191.924 514.562 192.955C517.717 196.039 518.554 201.653 517.692 206.043C517.128 209.578 515.841 212.958 513.912 215.973C511.983 218.988 509.453 221.572 506.48 223.566C506.428 225.363 506.395 226.789 506.395 226.789C507.733 233.849 510.735 240.489 515.151 246.159C519.504 251.092 531.311 255.525 538.582 257.153L543.584 258.242C547.453 250.637 557.337 243.957 563.252 238.657C573.918 229.101 589.952 209.992 591.954 181.419C592.787 166.115 589.42 150.875 582.216 137.347C565.678 107.005 544.348 99.9623 531.068 96.9695C518.293 94.2676 505.067 94.5549 492.422 97.8089C491.813 97.9578 491.211 98.1119 490.614 98.2713Z" fill="#BDBDBD"/>
<path d="M480.602 272.618C479.698 269.674 478.643 266.778 477.444 263.941C477.002 262.894 476.547 261.85 476.081 260.809C475.964 260.552 475.854 260.285 475.732 260.034C475.4 259.371 476.215 261.202 475.687 259.903C473.069 253.481 465.914 256.014 460.557 255.577C454.774 255.125 449.124 253.618 443.884 251.131C441.625 249.981 439.626 248.38 438.01 246.426C436.395 244.472 435.197 242.207 434.492 239.772C432.707 233.381 431.891 226.758 432.074 220.124C432.385 217.193 432.026 214.229 431.025 211.456C430.023 208.684 428.405 206.175 426.292 204.119C425.125 202.798 423.553 201.327 424.306 199.442C425.282 196.999 428.167 196.404 430.193 195.177C434.344 192.435 437.509 188.436 439.222 183.764C444.136 171.927 442.966 158.801 446.286 146.594C447.465 142.254 440.735 140.401 439.555 144.739C436.52 155.908 437.232 167.697 433.665 178.749C432.353 182.811 430.271 187.064 426.444 189.286C423.912 190.757 421.422 191.68 419.523 194.071C418.553 195.214 417.851 196.559 417.467 198.008C417.083 199.457 417.027 200.974 417.304 202.447C418.504 207.857 424.49 210.527 425.144 216.245C425.465 219.05 425.09 222.075 425.235 224.911C425.407 228.451 425.777 231.979 426.343 235.478C427.134 241.769 429.783 247.682 433.951 252.461C437.791 256.544 443.158 258.706 448.427 260.285C454.72 262.34 461.369 263.072 467.958 262.437C469.343 262.263 469.005 261.956 469.568 263.266C469.832 263.865 470.113 264.458 470.378 265.055C471.734 268.121 472.899 271.268 473.868 274.478C475.173 278.764 481.913 276.937 480.599 272.623L480.602 272.618Z" fill="#211715"/>
<path d="M445.408 150.26C446.18 144.463 447.823 138.815 450.28 133.508C451.516 131.029 452.877 128.614 454.358 126.273C454.636 125.826 454.915 125.383 455.215 124.95C455.404 124.681 456.262 123.554 455.681 124.299C460.541 118.272 466.471 113.195 473.174 109.321C483.434 103.428 494.866 99.864 506.657 98.8826C518.449 97.9013 530.313 99.5264 541.406 103.643C561.317 111.147 576.738 129.564 583.799 149.463C588.582 162.532 589.787 176.642 587.289 190.333C585.073 201.6 580.482 212.266 573.822 221.62C568.541 228.82 562.307 235.269 555.29 240.791C550.628 244.337 546.418 248.439 542.751 253.007C539.704 257.046 538.201 262.042 538.514 267.093C538.599 269.84 538.828 272.581 539.202 275.303C539.451 276.194 540.042 276.951 540.846 277.408C541.65 277.866 542.602 277.987 543.495 277.746C544.375 277.481 545.12 276.887 545.574 276.088C546.029 275.289 546.159 274.346 545.938 273.454C545.602 270.773 545.446 268.073 545.472 265.372C545.296 263.387 545.745 261.396 546.758 259.68C549.493 254.607 554.18 250.745 558.546 247.115C566.091 241.16 572.874 234.298 578.742 226.684C586.585 216.08 591.858 203.799 594.144 190.809C596.43 177.819 595.666 164.476 591.914 151.831C585.235 129.428 569.198 108.15 547.447 98.6204C536.143 93.8291 523.96 91.4622 511.684 91.6726C499.408 91.883 487.312 94.666 476.179 99.842C459.506 107.601 446.071 121.003 440.745 138.853C439.842 141.985 439.151 145.174 438.676 148.399C438.459 149.291 438.592 150.232 439.046 151.029C439.5 151.827 440.241 152.422 441.119 152.691C442.012 152.93 442.963 152.807 443.767 152.35C444.57 151.893 445.162 151.138 445.413 150.248L445.408 150.26Z" fill="#211715"/>
<path d="M501.367 196.086C504.725 193.374 510.586 192.421 513.111 196.74C515.459 200.754 514.507 205.719 513.035 209.828C510.044 218.189 502.644 222.803 494.373 224.906C490.021 226.012 491.865 232.746 496.228 231.638C505.091 229.384 513.33 224.532 517.757 216.282C522.184 208.031 524.214 194.189 514.569 188.607C508.532 185.116 501.529 187.036 496.43 191.151C495.781 191.808 495.417 192.695 495.417 193.618C495.417 194.542 495.781 195.429 496.43 196.086C497.095 196.721 497.979 197.075 498.899 197.075C499.818 197.075 500.702 196.721 501.367 196.086Z" fill="#211715"/>
<path d="M444.748 177.923C443.22 180.912 442.427 188.301 447.999 189.99C455.529 191.358 457.615 182.638 455.875 178.026C454.451 174.25 448.626 171.695 444.748 177.923Z" fill="#211715"/>
<path d="M440.64 140.631C444.938 155.813 454.258 169.088 467.076 178.288C467.877 178.748 468.827 178.875 469.721 178.641C470.615 178.407 471.38 177.831 471.853 177.037C472.3 176.233 472.419 175.288 472.186 174.398C471.952 173.508 471.384 172.743 470.6 172.262C459.312 164.03 451.129 152.233 447.373 138.776C446.164 134.457 439.426 136.291 440.64 140.631Z" fill="#211715"/>
<path d="M467.052 157.837C475.069 170.955 483.506 184.27 496.446 193.074C497.247 193.532 498.196 193.658 499.089 193.424C499.982 193.19 500.747 192.615 501.221 191.823C501.67 191.019 501.791 190.073 501.558 189.182C501.324 188.292 500.755 187.526 499.969 187.046C488.091 178.963 480.425 166.334 473.08 154.314C470.739 150.487 464.703 153.989 467.052 157.837Z" fill="#211715"/>
<path d="M503.025 227.712C503.864 232.158 505.341 236.46 507.409 240.484C509.044 244.229 511.458 247.583 514.488 250.324C517.909 252.961 521.695 255.087 525.727 256.636C529.584 258.268 533.574 259.567 537.652 260.519C542.025 261.517 543.893 254.79 539.507 253.788C535.82 252.931 532.206 251.787 528.698 250.365C526.993 249.678 525.326 248.901 523.704 248.037C522.216 247.257 520.785 246.371 519.423 245.388C516.822 243.062 514.776 240.182 513.434 236.961C511.68 233.456 510.441 229.716 509.756 225.857C509.505 224.967 508.914 224.212 508.11 223.755C507.307 223.297 506.356 223.175 505.463 223.414C504.581 223.677 503.835 224.27 503.38 225.07C502.925 225.87 502.796 226.814 503.02 227.707L503.025 227.712Z" fill="#211715"/>
<path d="M429.331 226.171C433.622 227.199 438.046 227.564 442.448 227.253C443.374 227.253 444.262 226.885 444.916 226.23C445.571 225.576 445.938 224.688 445.938 223.762C445.938 222.837 445.571 221.949 444.916 221.295C444.262 220.64 443.374 220.272 442.448 220.272C439.55 220.469 436.638 220.365 433.761 219.96L434.688 220.086C433.512 219.922 432.341 219.717 431.186 219.44C430.293 219.194 429.339 219.313 428.534 219.77C427.729 220.227 427.139 220.985 426.893 221.878C426.647 222.77 426.765 223.724 427.223 224.529C427.68 225.334 428.438 225.925 429.331 226.171Z" fill="#211715"/>
<path d="M427.268 328.987C436.482 311.699 447.527 300.008 463.565 292.634C481.375 284.263 500.171 278.174 519.505 274.509C525.439 273.342 531.417 272.339 537.405 271.452C544.519 270.341 551.759 270.291 558.888 271.304C561.866 272.06 564.753 273.135 567.5 274.509C582.885 284.116 595.679 297.351 604.759 313.053C566.783 324.106 520.174 337.691 486.48 347.411C472.966 351.31 464.361 363.67 463.599 377.713C462.028 406.444 460.855 435.81 459.601 463.354L457.711 465.296C457.711 465.296 436.278 487.329 435.226 487.253C424.865 494.084 413.552 500.082 401.609 499.047C397.769 498.714 389.862 496.51 386.446 494.172C383.161 491.866 380.368 488.931 378.228 485.536C376.088 482.142 374.643 478.356 373.979 474.398C370.981 457.286 377.193 439.966 383.448 423.729C392.203 400.999 414.976 350.038 427.456 328.24" fill="#2198D6"/>
<path d="M54.6191 252.439C55.6121 247.838 56.5893 243.801 57.659 240.091C29.1272 238.233 10.1565 260.036 13.8578 284.655C16.8593 304.51 21.3948 335.601 24.6057 357.599C34.0064 355.802 45.721 353.561 59.2017 350.992C54.8282 345.336 51.5957 338.883 49.6841 331.994C44.9724 315.764 45.9322 297.406 49.1082 280.689C51.3192 269.042 52.9962 259.98 54.6191 252.439Z" fill="#0E2C43"/>
<path d="M147.324 159.412C152.954 162.041 158.852 164.054 164.914 165.415C167.038 165.823 169.181 166.12 171.336 166.305C177.158 166.897 183.039 166.45 188.705 164.985L189.415 167.02C189.477 167.702 189.636 168.372 189.886 169.009C190.208 169.604 190.64 170.131 191.16 170.563C193.475 172.689 196.065 174.494 198.861 175.93C198.734 177.991 198.538 180.202 198.282 182.534C190.74 188.748 181.264 191.278 171.301 191.887C157.386 192.851 143.436 190.582 130.543 185.256C128.275 180.649 126.125 175.295 125.87 170.974C127.107 169.73 128.045 168.22 128.61 166.559C130.384 160.908 131.66 155.112 132.421 149.238C136.972 153.195 141.971 156.607 147.315 159.403" fill="white"/>
<path d="M137.299 376.5L126.479 380.303C100.076 380.233 77.9664 371.909 63.9186 356.57C57.2087 349.689 52.3204 341.244 49.6963 331.999C44.9846 315.77 45.9444 297.412 49.1204 280.694C55.2282 248.463 57.2699 236.038 65.5241 220.838C78.9437 196.076 93.9163 190.457 119.394 175.397L125.869 170.929C126.252 177.491 131.017 186.425 133.878 191.538C137.787 198.484 139.951 202.253 144.628 211.415C154.959 231.675 162.044 245.077 171.537 263.714L174.259 268.618L175.345 270.573C183.438 258.221 197.736 201.347 198.969 174.133L201.226 174.873L206.208 176.498C235.351 186.874 248.903 203.895 253.882 235.865C258.293 264.179 258.033 295.18 257.81 325.038C257.48 330.238 257.286 332.891 252.075 336.206L137.299 376.5Z" fill="#C0E2F7"/>
<path d="M174.082 268.418L171.359 263.515C161.866 244.878 154.781 231.475 144.45 211.215C139.774 202.054 137.61 198.284 133.701 191.339C132.729 189.594 131.537 187.423 130.371 185.046C143.263 190.377 157.215 192.651 171.132 191.688C181.095 191.079 190.574 188.547 198.116 182.333C194.975 211.027 182.854 257.824 175.481 269.872" fill="#88CCF1"/>
<path d="M236.958 102.794C234.708 90.0152 231.852 74.6236 228.981 61.9597C224.552 42.5999 220.631 32.3197 211.051 21.9976C202.463 13.6981 184.473 3.61854 162.656 3.49988C151.795 3.27177 141.003 5.28131 130.952 9.40345L129.319 10.3161L128.245 10.9129C123.047 12.9945 118.195 15.8523 113.854 19.3887C112.92 20.2159 111.957 21.0134 111.03 21.8493C110.636 22.1983 110.248 22.5682 109.873 22.9434C105.269 27.6105 101.452 32.9936 98.5722 38.8829C93.59 48.9275 92.262 63.8374 89.7177 75.4508C86.6935 89.2456 83.5541 98.6812 81.364 110.298C79.8175 119.1 81.4986 128.163 86.0984 135.825C92.9653 147.334 105.015 154.031 121.768 153.4L132.128 153.005C132.179 152.667 132.231 152.339 132.282 151.99L132.774 149.532C130.929 147.948 129.908 146.915 129.908 146.915C126.708 143.569 123.814 139.944 121.258 136.083C121.258 136.083 118.768 132.244 117.717 130.038C117.717 130.038 117.442 129.461 117.009 128.56C113.695 128.813 110.376 128.127 107.434 126.581C103.362 123.964 100.163 120.192 98.2458 115.748C95.9877 111.186 94.9791 103.517 97.0103 99.0459C97.6436 97.6986 98.6238 96.5439 99.8504 95.7003C101.077 94.8567 102.506 94.3545 103.991 94.2452C106.335 93.8631 108.737 94.3939 110.702 95.7285L123.183 90.3554C134.124 86.7154 144.801 82.3218 155.135 77.2064C173.57 68.0971 181.61 61.4833 192.668 48.9362L201.182 53.5048C213.48 64.8007 226.1 90.797 225.439 101.889C224.791 107.721 224.242 113.446 223.641 118.87C222.325 130.776 219.118 141.758 212.441 149.957L212.715 149.946C222.291 147.041 229.164 142.158 233.51 134.567C239.029 124.85 238.877 113.802 236.958 102.794Z" fill="#85807F"/>
<path d="M213.642 153.311C221.074 151.292 227.765 147.172 232.913 141.444C238.345 134.686 241.399 126.326 241.603 117.657C242.015 108.593 239.951 99.5749 238.321 90.7117C236.626 81.496 234.848 72.2943 232.824 63.1396C229.683 48.9749 225.92 34.7788 216.734 23.2317C207.977 12.2412 193.801 5.41974 180.37 2.1931C170.479 -0.122853 160.247 -0.609596 150.181 0.756913C142.546 1.75509 134.329 3.51936 127.563 7.30267C123.642 9.49273 127.156 15.5254 131.086 13.3301C136.441 10.7101 142.169 8.93747 148.068 8.07573C156.234 6.63326 164.582 6.53247 172.781 7.77732C180.196 8.94288 187.388 11.2381 194.108 14.5831C199.434 17.0762 204.324 20.41 208.592 24.4567C217.476 33.4368 221.432 45.7256 224.392 57.6863C226.421 65.8881 228.089 74.1824 229.695 82.4767C231.292 90.7327 233.12 99.0549 234.166 107.4C235.312 116.542 234.796 126.14 229.718 134.099C225.606 140.547 218.952 144.359 211.796 146.578C207.519 147.905 209.344 154.646 213.651 153.309L213.642 153.311Z" fill="#211715"/>
<path d="M127.824 7.36726C115.81 11.9007 105.634 20.283 98.8842 31.2066C91.7382 42.485 89.9251 55.3619 87.5867 68.2422C85.2186 81.2919 81.1299 93.9296 78.4826 106.911C77.0432 113.239 77.0253 119.808 78.4303 126.144C79.946 132.403 82.9041 138.222 87.0684 143.135C95.6297 153.32 108.812 157.297 121.767 156.888C126.247 156.747 126.268 149.765 121.767 149.908C111.646 150.227 101.439 147.793 94.0818 140.462C90.177 136.486 87.3076 131.612 85.7255 126.268C84.1433 120.925 83.8968 115.274 85.0075 109.813C87.3842 97.8037 91.1501 86.1187 93.5583 74.1144C95.8059 62.925 96.572 50.645 101.76 40.3019C107.536 28.7845 117.321 18.4886 129.681 14.091C133.885 12.5972 132.074 5.8508 127.826 7.36028L127.824 7.36726Z" fill="#211715"/>
<path d="M466.848 288.358C473.479 275.919 489.335 266.744 503.372 262.706C516.031 258.925 529.16 256.943 542.371 256.82C544.249 256.692 546.114 257.215 547.653 258.299C549.191 259.384 550.31 260.965 550.821 262.777L552.203 269.553" fill="white"/>
<path d="M469.862 290.119C475.94 278.975 488.105 271.707 499.739 267.543C507.092 265.013 514.656 263.144 522.341 261.959C526.243 261.313 530.168 260.856 534.117 260.587C536.178 260.448 538.241 260.36 540.305 260.326C541.736 260.181 543.182 260.294 544.573 260.657C548.262 261.968 548.173 267.224 548.838 270.482C549.735 274.879 556.466 273.017 555.569 268.625C554.728 264.51 554.442 259.819 551.248 256.739C548.591 254.366 545.103 253.141 541.546 253.331C536.864 253.358 532.188 253.657 527.541 254.226C511.466 256.146 494.856 260.062 481.133 268.998C474.004 273.35 468.062 279.396 463.834 286.599C461.683 290.543 467.708 294.07 469.862 290.121V290.119Z" fill="#211715"/>
<path d="M270.205 310.43C298.178 305.093 326.152 299.759 354.125 294.427H352.27C374.491 300.57 396.717 306.713 418.949 312.855C423.282 314.061 425.132 307.329 420.804 306.123C402.362 300.992 383.912 295.893 365.453 290.824L359.006 289.044C356.748 288.421 354.286 287.355 351.942 287.758C347.292 288.56 342.662 289.525 338.027 290.408C327.631 292.386 317.236 294.369 306.843 296.356L268.35 303.697C263.942 304.538 265.807 311.267 270.205 310.43Z" fill="#211715"/>
<path d="M616.112 389.104C620.083 371.572 620.248 353.391 616.596 335.789C615.058 327.694 612.327 319.872 608.49 312.58C604.184 304.773 598.928 297.529 592.842 291.014C585.965 283.403 578.024 276.825 569.266 271.485C565.399 269.176 561.886 275.209 565.743 277.513C580.283 286.405 592.394 298.762 600.993 313.478C609.148 327.383 611.898 343.801 612.144 359.742C612.374 368.988 611.448 378.226 609.389 387.242C608.342 391.605 615.076 393.472 616.119 389.098L616.112 389.104Z" fill="#211715"/>
<path d="M569.266 271.492C561.286 266.54 550.65 266.592 541.675 267.442C529.221 268.768 516.885 271.032 504.772 274.213C493.621 277.029 482.696 280.674 472.088 285.118C462.333 289.191 452.989 293.55 444.879 300.45C436.397 308.013 429.402 317.094 424.254 327.226C422.131 331.184 428.154 334.714 430.282 330.749C434.618 322.261 440.291 314.526 447.085 307.84C454.107 301.191 462.386 296.855 471.188 293.03C492.265 284.178 514.408 278.119 537.055 275.007C542.987 274.061 549.011 273.827 554.998 274.309C558.775 274.571 562.445 275.67 565.744 277.527C569.571 279.902 573.074 273.862 569.268 271.499L569.266 271.492Z" fill="#211715"/>
<path d="M457.709 494.016C459.606 458.383 461.041 417.479 463.198 377.794C463.96 363.752 472.565 351.391 486.079 347.493C526.203 335.918 584.642 318.862 625.009 307.128C640.757 302.55 656.881 314.457 656.372 330.843C655.539 357.663 650.4 392.469 647.852 418.795" fill="#0E2C43"/>
<path d="M461.604 493.936C463.33 461.419 464.534 428.877 466.131 396.352C466.766 383.409 465.499 368.766 474.959 358.522C478.899 354.433 483.917 351.543 489.433 350.19C495.578 348.417 501.721 346.64 507.864 344.858C535.087 336.971 562.31 329.06 589.533 321.126C602.07 317.477 614.572 313.362 627.227 310.175C632.36 308.926 637.774 309.634 642.415 312.159C647.055 314.684 650.589 318.847 652.328 323.836C654.197 329.729 653.101 336.437 652.7 342.496C652.209 349.898 651.529 357.287 650.771 364.667C649.267 379.317 647.422 393.93 645.821 408.569C645.451 411.951 645.102 415.335 644.773 418.72C644.78 419.644 645.15 420.528 645.803 421.181C646.456 421.834 647.34 422.204 648.264 422.21C649.183 422.191 650.06 421.817 650.71 421.167C651.361 420.517 651.735 419.64 651.754 418.72C653.214 403.713 655.129 388.764 656.783 373.783C657.628 366.141 658.418 358.491 659.052 350.828C659.867 343.662 660.272 336.455 660.264 329.242C659.992 323.126 657.716 317.269 653.786 312.574C649.856 307.88 644.492 304.608 638.519 303.263C631.975 301.825 626.087 303.214 619.803 305.041L600.367 310.697C572.083 318.928 543.798 327.154 515.513 335.376C508.892 337.295 502.27 339.215 495.647 341.134C489.539 342.901 483.049 344.223 477.537 347.516C472.231 350.72 467.867 355.269 464.887 360.704C461.816 366.621 460.144 373.163 460 379.828C458.168 414.007 456.906 448.212 455.219 482.398C455.029 486.245 454.832 490.093 454.627 493.941C454.39 498.431 461.37 498.418 461.608 493.941L461.604 493.936Z" fill="#211715"/>
<path d="M424.446 326.476C417.989 337.791 412.36 349.603 406.821 361.389C400.422 375.001 394.273 388.729 388.372 402.573C382.439 416.533 376.228 430.693 372.462 445.411C367.951 463.036 367.655 484.389 383.612 496.396C386.98 498.694 390.752 500.334 394.729 501.23C398.885 502.422 403.222 502.848 407.529 502.487C418.358 501.429 428.046 496.126 436.991 490.256L435.229 490.732C437.642 490.479 439.379 488.463 441.061 486.874C443.712 484.376 446.296 481.802 448.867 479.227C452.666 475.429 456.438 471.605 460.182 467.755C463.323 464.532 458.384 459.591 455.245 462.818C448.413 469.842 441.677 477.127 434.315 483.603C434.068 483.82 433.808 484.022 433.568 484.242C433.288 484.499 434.369 483.839 433.606 484.183C435.852 483.171 435.376 483.582 434.304 483.877C433.535 484.166 432.816 484.571 432.17 485.078C430.755 485.992 429.324 486.881 427.877 487.744C423.07 490.747 417.862 493.052 412.407 494.59C407.716 495.866 402.783 495.963 398.045 494.873C393.986 494.148 390.143 492.513 386.807 490.09C378.12 482.912 376.122 471.87 376.835 461.134C377.659 448.768 382.121 436.877 386.526 425.407C392.318 410.33 398.858 395.53 405.514 380.819C413.279 363.656 421.125 346.362 430.468 329.99C432.699 326.083 426.669 322.563 424.441 326.469L424.446 326.476Z" fill="#211715"/>
<path d="M391.119 394.434C380.833 391.816 371.633 398.913 368.084 408.22C366.362 413.137 365.745 418.374 366.276 423.557C366.512 426.553 366.974 429.534 367.506 432.49C367.829 434.295 369.211 437.779 368.171 439.47C365.807 443.31 371.836 446.815 374.199 442.994C376.72 438.903 374.757 433.727 374.024 429.382C373.018 424.611 372.841 419.702 373.501 414.87C374.832 407.483 380.655 398.99 389.271 401.175C393.633 402.281 395.485 395.551 391.126 394.444L391.119 394.434Z" fill="#211715"/>
<path d="M4.37148 365.021C21.4732 361.753 38.5748 358.484 55.6765 355.215C60.0845 354.374 58.2191 347.645 53.8215 348.483C36.7198 351.74 19.6181 355.009 2.51647 358.29C-1.88983 359.133 -0.0260943 365.862 4.37148 365.021Z" fill="#211715"/>
<path d="M39.6671 238.64C31.7985 241.051 24.8087 245.715 19.5611 252.055C14.3134 258.395 11.0378 266.133 10.1388 274.314C9.23656 282.666 11.3498 291.241 12.5819 299.464C13.9639 308.759 15.335 318.056 16.695 327.354C18.2202 337.751 19.7401 348.147 21.2548 358.543C21.5048 359.434 22.0957 360.189 22.8994 360.647C23.7031 361.104 24.6546 361.226 25.5477 360.986C26.4282 360.721 27.1731 360.128 27.6279 359.329C28.0827 358.529 28.2127 357.586 27.9908 356.693C25.4163 339.109 22.833 321.527 20.241 303.949C19.6314 299.827 19.0188 295.706 18.4034 291.585C17.7175 287.863 17.2248 284.108 16.9271 280.335C16.4894 272.587 18.6809 264.918 23.1465 258.571C27.6122 252.224 34.0902 247.572 41.5308 245.367C45.7923 244.002 43.9739 237.261 39.674 238.636L39.6671 238.64Z" fill="#211715"/>
<path d="M129.626 188.621C141.575 193.514 154.411 195.87 167.319 195.538C179.418 195.28 191.261 192.702 200.824 184.931C201.474 184.274 201.838 183.388 201.838 182.464C201.838 181.54 201.474 180.654 200.824 179.996C200.16 179.361 199.276 179.006 198.357 179.006C197.437 179.006 196.554 179.361 195.889 179.996C187.494 186.813 176.455 188.497 165.953 188.577C154.126 188.694 142.397 186.42 131.472 181.89C130.579 181.649 129.627 181.771 128.823 182.228C128.019 182.686 127.428 183.442 127.179 184.333C126.956 185.225 127.086 186.169 127.541 186.969C127.996 187.768 128.741 188.362 129.622 188.626L129.626 188.621Z" fill="#211715"/>
<path d="M100.895 276.08C98.1548 286.362 95.9368 296.795 96.9629 307.463C97.1483 312.483 98.7729 317.344 101.643 321.467C105.571 326.702 110.93 329.481 116.825 331.995C122.068 334.204 127.52 335.876 133.1 336.986C137.483 337.885 139.359 331.159 134.955 330.255C129.38 329.184 123.939 327.51 118.726 325.263C112.637 322.558 106.439 319.077 104.645 312.105C101.762 300.903 104.732 288.782 107.625 277.937C108.782 273.591 102.053 271.736 100.895 276.08Z" fill="#211715"/>
<path d="M126.47 376.812C106.639 376.701 85.7057 371.877 70.6073 358.292C63.2133 351.856 57.5512 343.67 54.1391 334.48C50.4934 323.169 49.1483 311.243 50.183 299.404C50.9282 287.735 53.4533 276.267 55.6713 264.812C57.2418 256.678 58.8403 248.513 61.1717 240.555C65.4245 226.04 73.115 211.99 84.5557 201.714C91.3981 195.561 99.4306 190.922 107.376 186.357C114.283 182.392 121.076 178.462 127.631 173.941C131.304 171.405 127.818 165.353 124.108 167.913C118.232 171.967 112.203 175.555 105.999 179.101C98.0372 183.402 90.4143 188.302 83.1962 193.76C70.1501 204.124 60.9745 218.988 55.7097 234.682C53.2764 242.387 51.3321 250.239 49.8881 258.189C47.5253 270.004 44.9269 281.887 43.6757 293.88C42.1353 306.436 42.8952 319.167 45.9181 331.451C48.7817 341.879 54.1876 351.435 61.6516 359.26C78.1198 377.025 102.938 383.665 126.479 383.798C130.971 383.822 130.976 376.842 126.479 376.817L126.47 376.812Z" fill="#211715"/>
<path d="M139.847 374.24C142.366 379.591 149.019 381.046 154.812 382.241C159.175 383.138 165.658 382.067 169.85 383.215C172.134 383.838 174.579 386.759 176.812 387.545C177.906 388.017 179.132 388.087 180.272 387.741C181.412 387.395 182.392 386.655 183.039 385.655C183.577 384.874 183.93 383.981 184.072 383.044C184.213 382.107 184.14 381.15 183.857 380.245C183.495 379.498 183.069 378.783 182.585 378.109C186.087 377.91 190.108 377.673 190.108 377.673C195.68 381.844 202.526 383.952 209.478 383.639C213.762 383.29 219.354 383.014 222.156 379.05C229.422 371.248 236.154 362.966 242.307 354.259C244.669 351.579 246.264 345.593 244.575 342.178C241.82 336.547 233.899 329.549 226.151 325.635C225.032 325.075 223.805 324.765 222.555 324.726C221.305 324.687 220.061 324.919 218.909 325.406C212.333 328.179 203.974 329.2 197.565 332.104C197.053 332.345 196.561 332.57 196.081 332.83C194.975 333.53 193.827 334.164 192.644 334.727C188.781 332.679 184.545 331.433 180.189 331.062C176.299 330.739 158.709 332.371 152.383 333.515C148.017 334.373 143.972 336.416 140.691 339.423C136.882 343.021 135.252 348.322 133.96 353.399C132.653 358.596 131.54 364.044 132.739 369.279L135.866 371.46L139.847 374.24Z" fill="white"/>
<path d="M188.347 380.688C192.318 383.538 196.848 385.516 201.639 386.489C206.43 387.463 211.372 387.411 216.141 386.337C218.165 385.961 220.098 385.2 221.835 384.096C224.041 382.346 226.025 380.333 227.744 378.102C230.665 374.861 233.492 371.542 236.185 368.109C239.136 364.349 241.943 360.478 244.833 356.674C247.676 353.153 249.051 348.671 248.672 344.162C248.149 339.555 244.687 335.63 241.518 332.484C237.705 328.668 233.335 325.452 228.559 322.945C225.786 321.381 222.534 320.894 219.425 321.577C216.645 322.253 213.979 323.532 211.204 324.3C205.475 325.882 199.315 326.968 194.102 329.954C190.204 332.182 193.715 338.216 197.626 335.981C201.618 334.043 205.847 332.635 210.204 331.793C212.333 331.238 214.464 330.678 216.554 329.994C218.556 329.338 220.697 328.006 222.854 328.249C224.907 328.742 226.827 329.675 228.484 330.983C230.409 332.2 232.245 333.551 233.979 335.028C236.687 337.349 240.347 340.457 241.586 343.949C242.598 346.793 240.999 350.285 239.317 352.5C236.844 355.749 234.461 359.065 231.962 362.295C229.758 365.143 227.468 367.92 225.091 370.628C223.685 372.235 222.257 373.824 220.807 375.393C219.717 376.921 218.269 378.158 216.589 378.995C212.872 380.228 208.921 380.592 205.041 380.061C200.263 379.438 195.732 377.576 191.895 374.662C191.094 374.201 190.144 374.073 189.249 374.308C188.355 374.542 187.59 375.12 187.119 375.915C186.673 376.719 186.555 377.664 186.788 378.554C187.022 379.443 187.589 380.208 188.372 380.69L188.347 380.688Z" fill="#211715"/>
<path d="M207.138 347.964C208.091 347.75 209.025 347.458 209.93 347.092C211.029 346.678 212.088 346.164 213.094 345.556C213.87 345.081 214.442 344.335 214.698 343.462C214.843 343.011 214.865 342.529 214.761 342.066C214.74 341.604 214.598 341.156 214.347 340.768C214.116 340.372 213.809 340.025 213.443 339.748C213.078 339.471 212.662 339.269 212.218 339.152C211.775 339.036 211.312 339.009 210.858 339.071C210.404 339.134 209.966 339.285 209.571 339.517C208.895 339.941 208.185 340.309 207.449 340.616L208.283 340.267C207.312 340.671 206.308 340.99 205.281 341.221C204.404 341.468 203.654 342.042 203.187 342.825C202.754 343.651 202.631 344.605 202.838 345.514C203.082 346.393 203.657 347.144 204.442 347.608C205.264 348.054 206.222 348.178 207.131 347.957L207.138 347.964Z" fill="#211715"/>
<path d="M175.493 376.682C177.351 377.463 178.922 378.797 179.995 380.503C180.76 381.669 181.058 383.854 179.287 384.374C177.516 384.894 175.381 382.454 174.104 381.547C172.135 380.217 169.844 379.443 167.473 379.306C162.73 378.819 158.077 379.434 153.383 378.378C149.402 377.483 144.851 376.406 142.855 372.479C140.818 368.466 134.794 372.003 136.827 376.003C139.777 381.802 146.172 383.945 152.12 385.239C155.384 385.9 158.711 386.198 162.04 386.128C165.007 386.128 168.066 385.796 170.575 387.573C173.319 389.518 175.718 391.621 179.344 391.384C181.087 391.261 182.752 390.616 184.122 389.532C185.492 388.449 186.503 386.977 187.023 385.309C189.574 378.491 183.266 372.198 177.348 369.953C176.455 369.715 175.504 369.838 174.701 370.295C173.898 370.752 173.307 371.506 173.055 372.396C172.83 373.288 172.958 374.234 173.413 375.034C173.869 375.835 174.616 376.428 175.498 376.69L175.493 376.682Z" fill="#211715"/>
<path d="M211.202 355.184C211.495 345.729 203.761 337.325 196.154 332.699C189.853 328.917 182.547 327.151 175.214 327.638C168.82 327.987 162.422 328.61 156.074 329.449C148.272 330.482 140.757 333.081 135.878 339.668C133.178 343.788 131.317 348.399 130.4 353.238C128.786 358.74 128.433 364.535 129.369 370.191C130.276 374.589 137.005 372.729 136.1 368.336C135.467 364.172 135.754 359.92 136.943 355.878C137.633 352.263 138.81 348.759 140.443 345.46C143.652 339.656 149.879 337.299 156.119 336.426C161.354 335.695 166.939 335.18 172.327 334.8C177.843 334.411 182.798 334.372 188.084 336.435C195.31 339.258 204.487 346.631 204.224 355.175C204.084 359.669 211.064 359.663 211.204 355.175L211.202 355.184Z" fill="#211715"/>
<path d="M180.077 350.886C182.288 351.235 184.464 351.779 186.579 352.509C187.008 352.661 187.436 352.819 187.86 352.989C188.16 353.109 188.431 353.237 187.977 353.032L188.63 353.327C189.452 353.709 190.256 354.13 191.036 354.589C191.716 354.989 192.374 355.42 193.012 355.882C193.08 355.931 193.607 356.406 193.217 356.03C192.828 355.655 193.301 356.105 193.392 356.184C193.669 356.417 193.94 356.655 194.207 356.899C194.84 357.499 195.435 358.137 195.989 358.81C196.128 358.976 196.263 359.144 196.4 359.311C197.057 360.116 196.209 359.03 196.556 359.508C196.903 359.986 197.219 360.412 197.533 360.876C198 361.676 198.765 362.257 199.661 362.492C200.556 362.727 201.508 362.596 202.308 362.129C203.107 361.662 203.688 360.897 203.923 360.002C204.158 359.106 204.027 358.154 203.56 357.355C201.308 353.855 198.308 350.898 194.778 348.694C190.819 346.386 186.46 344.846 181.93 344.157C181.038 343.935 180.094 344.064 179.295 344.519C178.496 344.974 177.902 345.719 177.637 346.6C177.403 347.493 177.527 348.443 177.984 349.245C178.44 350.048 179.193 350.64 180.081 350.895L180.077 350.886Z" fill="#211715"/>
<path d="M180.472 364.618C180.603 364.618 180.733 364.64 180.864 364.651C181.501 364.698 180.557 364.569 180.5 364.599C180.648 364.524 181.151 364.717 181.322 364.756C181.923 364.893 182.515 365.068 183.095 365.279C183.239 365.33 183.381 365.387 183.524 365.44C184.077 365.642 182.897 365.16 183.288 365.337C183.574 365.464 183.861 365.593 184.142 365.733C184.745 366.031 185.332 366.361 185.902 366.717C186.177 366.89 186.447 367.069 186.712 367.253C186.845 367.345 186.977 367.44 187.108 367.536C187.557 367.865 187.119 367.572 186.942 367.401C187.4 367.846 187.934 368.22 188.394 368.666C188.855 369.113 189.295 369.619 189.724 370.12C189.984 370.422 189.192 369.377 189.57 369.923C189.656 370.047 189.745 370.167 189.83 370.291C190.014 370.561 190.18 370.839 190.354 371.122C190.821 371.921 191.587 372.502 192.482 372.737C193.378 372.972 194.33 372.841 195.129 372.374C195.929 371.906 196.51 371.141 196.744 370.245C196.979 369.35 196.849 368.398 196.381 367.598C194.658 364.768 192.274 362.397 189.433 360.691C186.743 358.955 183.669 357.906 180.479 357.636C179.554 357.64 178.669 358.01 178.016 358.663C177.362 359.317 176.993 360.202 176.989 361.126C177.01 362.045 177.384 362.92 178.034 363.57C178.684 364.22 179.56 364.595 180.479 364.616L180.472 364.618Z" fill="#211715"/>
<path d="M167.549 106.634C168.359 103.646 167.533 96.8615 161.913 96.4741C154.508 96.7708 154.393 105.009 157.018 108.793C159.166 111.892 165.213 113.005 167.549 106.634Z" fill="#211715"/>
<path d="M211.562 106.522C212.302 103.524 211.544 96.72 206.396 96.3291C199.617 96.624 199.514 104.89 201.917 108.684C203.885 111.792 209.422 112.916 211.562 106.522Z" fill="#211715"/>
<path d="M183.157 116.654C184.227 118.384 185.192 120.176 186.047 122.022L185.698 121.188C185.807 121.438 185.884 121.7 185.928 121.969L185.805 121.043C185.812 121.15 185.812 121.258 185.805 121.366L185.928 120.437C185.914 120.539 185.889 120.639 185.852 120.736L186.201 119.902C186.172 119.964 186.136 120.022 186.094 120.076L186.64 119.369C186.486 119.542 186.316 119.7 186.133 119.84L186.839 119.294C186.649 119.435 186.445 119.555 186.23 119.654L187.065 119.305C186.83 119.398 186.585 119.464 186.335 119.5L187.262 119.376C186.689 119.45 186.124 119.5 185.55 119.584C184.672 119.825 183.923 120.401 183.464 121.188C182.997 121.987 182.867 122.939 183.101 123.834C183.336 124.729 183.917 125.495 184.716 125.962L185.55 126.311C186.157 126.477 186.798 126.477 187.405 126.311L187.478 126.301L186.55 126.425C187.219 126.38 187.885 126.292 188.543 126.159C189.569 125.867 190.509 125.332 191.284 124.599C191.767 124.165 192.151 123.631 192.41 123.036C192.669 122.44 192.797 121.795 192.785 121.146C192.715 120.066 192.402 119.016 191.87 118.074C191.057 116.383 190.138 114.74 189.18 113.125C188.708 112.347 187.96 111.774 187.085 111.522C186.416 111.337 185.707 111.355 185.048 111.576C184.39 111.796 183.812 112.208 183.389 112.758C182.965 113.309 182.716 113.973 182.672 114.666C182.629 115.359 182.793 116.049 183.143 116.649L183.157 116.654Z" fill="#211715"/>
<path d="M112.456 92.715C110.145 91.2682 107.449 90.5564 104.725 90.6736C102.001 90.7907 99.377 91.7313 97.1987 93.3712C93.6597 96.1127 92.487 100.517 92.4294 104.84C92.3142 114.317 97.368 124.873 105.793 129.655C108.235 131.054 110.966 131.874 113.774 132.052C116.583 132.229 119.395 131.76 121.994 130.681C122.788 130.208 123.364 129.443 123.599 128.549C123.833 127.655 123.706 126.705 123.246 125.904C122.764 125.122 121.998 124.555 121.109 124.322C120.22 124.089 119.275 124.207 118.471 124.653C116.556 125.32 114.477 125.36 112.538 124.767C110.731 124.445 109.037 123.664 107.62 122.498C104.421 119.89 102.017 116.435 100.684 112.529C99.462 108.955 98.5633 103.742 100.228 100.407C100.386 100.099 100.566 99.8031 100.766 99.5208C100.338 100.137 100.919 99.362 101.005 99.2782C101.523 98.7467 102.157 98.3429 102.858 98.0986C103.848 97.6985 104.921 97.5474 105.982 97.6584C107.044 97.7695 108.063 98.1393 108.948 98.7355C109.344 98.9697 109.782 99.1233 110.237 99.1876C110.693 99.2519 111.156 99.2256 111.602 99.1102C112.047 98.9948 112.465 98.7925 112.831 98.5151C113.198 98.2376 113.506 97.8904 113.738 97.4935C113.971 97.0965 114.122 96.6575 114.184 96.2019C114.246 95.7462 114.217 95.2828 114.099 94.8383C113.982 94.3937 113.777 93.9769 113.498 93.6116C113.219 93.2463 112.87 92.9398 112.472 92.7098L112.456 92.715Z" fill="#211715"/>
<path d="M149.081 156.389C143.05 153.343 137.51 149.409 132.648 144.718C127.795 139.932 123.768 134.375 120.731 128.272C120.257 127.48 119.492 126.904 118.598 126.67C117.705 126.436 116.756 126.562 115.955 127.021C115.17 127.501 114.601 128.267 114.368 129.157C114.135 130.047 114.255 130.992 114.703 131.796C116.156 134.662 117.84 137.405 119.738 139.997C122.111 143.439 124.78 146.668 127.713 149.648C133.006 154.751 139.018 159.051 145.558 162.411C149.537 164.488 153.062 158.466 149.081 156.384V156.389Z" fill="#211715"/>
<path d="M145.563 162.425C160.997 169.482 178.793 173.161 195.055 166.512C202.814 163.481 209.696 158.566 215.082 152.211C219.975 145.904 223.406 138.589 225.126 130.794C227.602 120.498 228.033 109.708 229.22 99.2084C229.215 98.2845 228.845 97.3999 228.192 96.7466C227.538 96.0932 226.654 95.7238 225.73 95.7183C224.811 95.7391 223.935 96.1135 223.285 96.7636C222.635 97.4137 222.261 98.2893 222.24 99.2084C220.507 114.549 220.591 131.548 211.815 144.929C203.843 157.082 188.78 163.518 174.554 163.019C165.711 162.515 157.056 160.266 149.087 156.401C148.281 155.961 147.338 155.845 146.45 156.077C145.562 156.31 144.796 156.873 144.31 157.652C143.851 158.454 143.724 159.404 143.959 160.297C144.193 161.191 144.769 161.956 145.563 162.429V162.425Z" fill="#211715"/>
<path d="M190.199 46.4689C182.413 55.5635 173.139 63.2689 162.772 69.256C149.819 76.3639 136.256 82.2987 122.246 86.9893C118.031 88.4604 119.845 95.2069 124.103 93.7201C138.687 88.8433 152.807 82.6732 166.293 75.2834C177.185 69.0067 186.937 60.933 195.136 51.4039C198.102 48.0499 193.181 43.0939 190.199 46.4689Z" fill="#211715"/>
<path d="M198.715 55.9745C205.84 62.6058 211.122 71.2264 215.42 79.8819C218.854 86.7924 222.866 95.3746 222.4 102.999C222.121 107.485 229.103 107.47 229.381 102.999C229.93 94.1322 225.528 84.653 221.729 76.9136C217.139 67.5617 211.337 58.182 203.657 51.0394C200.371 47.9838 195.423 52.9084 198.722 55.9762L198.715 55.9745Z" fill="#211715"/>
<path d="M115.012 128.648C115.809 128.639 116.599 128.791 117.335 129.094C118.072 129.397 118.74 129.844 119.3 130.41C119.861 130.976 120.302 131.649 120.597 132.388C120.893 133.128 121.037 133.919 121.021 134.715C120.976 135.524 120.764 136.314 120.398 137.036C120.031 137.758 119.519 138.397 118.893 138.91C118.268 139.424 117.542 139.802 116.763 140.021C115.983 140.24 115.167 140.294 114.365 140.181C113.553 140.214 112.743 140.075 111.988 139.774C111.234 139.473 110.551 139.016 109.984 138.433C109.418 137.851 108.981 137.155 108.701 136.392C108.422 135.629 108.306 134.816 108.362 134.005C108.434 133.212 108.666 132.441 109.042 131.739C109.418 131.037 109.932 130.417 110.552 129.918C111.173 129.418 111.887 129.048 112.653 128.83C113.419 128.612 114.222 128.55 115.012 128.648Z" fill="white"/>
<path d="M115.012 132.138C115.314 132.159 115.885 132.327 114.838 132.093C114.956 132.119 115.08 132.133 115.201 132.159C115.492 132.218 115.78 132.297 116.061 132.395C116.366 132.499 116.733 132.796 115.867 132.3C115.963 132.356 116.072 132.398 116.169 132.45C116.318 132.529 116.461 132.613 116.6 132.702C116.857 132.866 117.167 133.244 116.426 132.536C116.618 132.719 116.829 132.885 117.014 133.073C117.105 133.168 117.188 133.276 117.276 133.368C117.576 133.665 116.752 132.588 117.059 133.098C117.195 133.319 117.324 133.538 117.45 133.764C117.74 134.288 117.202 133.018 117.312 133.426C117.359 133.6 117.431 133.766 117.478 133.939C117.504 134.04 117.523 134.141 117.55 134.241C117.712 134.852 117.487 133.293 117.515 133.928C117.533 134.19 117.537 134.453 117.527 134.715C117.527 134.831 117.504 134.944 117.499 135.065C117.546 133.984 117.586 134.482 117.518 134.792C117.45 135.103 117.344 135.351 117.267 135.633C117.152 136.043 117.694 134.777 117.401 135.298C117.338 135.41 117.283 135.525 117.216 135.635C117.15 135.745 117.08 135.848 117.012 135.956C116.696 136.455 117.536 135.384 117.234 135.67C117.07 135.825 116.93 136.007 116.761 136.159C116.506 136.393 116.168 136.469 116.996 135.998C116.866 136.073 116.742 136.173 116.613 136.253C116.389 136.391 116.148 136.488 115.914 136.616C116.932 136.054 116.185 136.49 115.838 136.584C115.565 136.66 115.293 136.703 115.018 136.759C116.269 136.52 115.068 136.717 114.719 136.714C114.412 136.714 114.107 136.66 113.799 136.653C114.923 136.68 114.063 136.68 113.686 136.583C113.416 136.513 113.163 136.398 112.89 136.328C113.737 136.548 113.529 136.619 113.278 136.487C113.093 136.389 112.906 136.298 112.726 136.188C112.637 136.134 112.552 136.075 112.466 136.014C111.943 135.689 113.138 136.609 112.691 136.188C112.517 136.014 112.342 135.839 112.168 135.665C111.993 135.49 111.911 135.185 112.435 136.026C112.37 135.923 112.292 135.827 112.225 135.722C112.079 135.492 111.971 135.246 111.841 135.005C112.396 136.038 111.992 135.354 111.899 134.984C111.861 134.834 111.845 134.677 111.801 134.531C112.06 135.414 111.882 135.286 111.864 134.988C111.848 134.715 111.833 134.445 111.841 134.173C111.841 134.01 111.871 133.848 111.876 133.686C111.852 134.7 111.779 134.332 111.859 133.993C111.889 133.866 111.924 133.74 111.962 133.616C112.074 133.267 112.382 132.944 111.859 133.799C112.019 133.538 112.152 133.257 112.316 132.995C112.461 132.763 112.693 132.691 112.049 133.328C112.177 133.203 112.286 133.052 112.414 132.925C112.506 132.831 112.604 132.751 112.698 132.655C113.136 132.231 112 133.121 112.491 132.808C112.766 132.634 113.042 132.471 113.328 132.314C113.878 132.016 112.611 132.576 113.03 132.436C113.218 132.374 113.403 132.306 113.595 132.251C113.707 132.222 113.819 132.194 113.932 132.168C114.838 131.967 113.264 132.187 113.885 132.155C114.262 132.138 114.632 132.121 115.009 132.138C115.932 132.132 116.816 131.762 117.47 131.109C118.123 130.456 118.493 129.572 118.499 128.648C118.48 127.728 118.106 126.851 117.456 126.201C116.805 125.55 115.929 125.176 115.009 125.158C113.012 125.058 111.029 125.543 109.304 126.554C107.527 127.646 106.161 129.295 105.418 131.245C104.777 132.961 104.669 134.83 105.108 136.609C105.547 138.387 106.513 139.992 107.878 141.212C109.47 142.499 111.388 143.317 113.419 143.572C115.449 143.828 117.511 143.512 119.371 142.659C121.037 141.865 122.419 140.579 123.331 138.975C124.242 137.37 124.639 135.525 124.469 133.688C124.277 131.438 123.257 129.34 121.607 127.8C119.773 126.192 117.445 125.257 115.009 125.151C114.085 125.155 113.199 125.525 112.546 126.178C111.892 126.832 111.523 127.717 111.519 128.641C111.539 129.562 111.913 130.439 112.564 131.09C113.215 131.742 114.092 132.117 115.012 132.138Z" fill="#211715"/>
<path d="M187.768 136.916C184.791 135.505 181.543 134.756 178.248 134.721C175.08 134.694 171.934 135.261 168.975 136.394C168.533 136.517 168.12 136.725 167.758 137.007C167.397 137.29 167.094 137.64 166.869 138.039C166.643 138.439 166.498 138.878 166.442 139.333C166.386 139.789 166.42 140.25 166.542 140.692C166.665 141.134 166.873 141.548 167.156 141.909C167.438 142.271 167.789 142.573 168.188 142.799C168.587 143.025 169.026 143.17 169.482 143.226C169.937 143.282 170.399 143.247 170.84 143.125C172.134 142.635 173.459 142.23 174.805 141.912C175.088 141.853 175.386 141.832 175.666 141.76C175.503 141.802 174.924 141.842 175.409 141.799C175.601 141.781 175.793 141.762 175.985 141.748C176.66 141.697 177.337 141.682 178.014 141.696C178.692 141.71 179.318 141.75 179.965 141.816C180.088 141.828 180.801 141.917 180.227 141.841C179.704 141.771 180.257 141.841 180.363 141.867C180.677 141.917 180.99 141.975 181.302 142.041C181.937 142.17 182.564 142.333 183.182 142.528C183.487 142.626 183.784 142.753 184.087 142.849C184.497 142.978 183.457 142.525 183.817 142.736C183.953 142.816 184.113 142.877 184.255 142.947C184.651 143.178 185.088 143.329 185.542 143.392C185.996 143.454 186.458 143.426 186.902 143.31C187.345 143.194 187.761 142.991 188.127 142.714C188.492 142.437 188.799 142.091 189.03 141.695C189.262 141.299 189.413 140.862 189.475 140.407C189.537 139.953 189.509 139.491 189.393 139.048C189.277 138.604 189.074 138.188 188.797 137.823C188.52 137.458 188.174 137.151 187.778 136.919L187.768 136.916Z" fill="#211715"/>
<path d="M152.168 89.1623L148.523 92.518C148.025 93.002 147.688 93.6279 147.559 94.3103C147.429 94.9927 147.514 95.6983 147.8 96.331C147.94 96.7618 148.189 97.149 148.523 97.4548C149.179 98.1068 150.065 98.4742 150.99 98.4774L151.919 98.3518C152.501 98.1917 153.032 97.8826 153.458 97.4548L157.103 94.0973C157.601 93.6136 157.938 92.988 158.067 92.3059C158.197 91.6238 158.112 90.9185 157.826 90.2861C157.686 89.8553 157.437 89.4681 157.103 89.1623C156.448 88.5093 155.561 88.1418 154.636 88.1396L153.707 88.2653C153.125 88.4261 152.595 88.7352 152.168 89.1623Z" fill="#211715"/>
<path d="M200.29 178.237C208.742 180.754 216.803 184.435 224.24 189.175C232.024 194.42 238.332 201.574 242.563 209.952C247.709 220.074 249.892 231.436 251.334 242.597C253.203 258.16 254.193 273.816 254.3 289.491C254.443 298.425 254.424 307.362 254.37 316.297C254.528 320.131 254.436 323.972 254.096 327.795C253.945 328.934 253.521 330.019 252.861 330.959C252.2 331.898 251.323 332.665 250.302 333.192C246.561 335.644 250.054 341.691 253.826 339.218C256.348 337.778 258.411 335.652 259.774 333.088C260.844 330.395 261.359 327.515 261.291 324.619C261.511 316.134 261.418 307.62 261.378 299.141C261.456 282.406 260.686 265.679 259.071 249.023C257.675 235.877 255.74 222.672 250.472 210.456C246.443 200.969 240.093 192.648 232.005 186.258C223.105 179.295 212.809 174.993 202.142 171.514C197.861 170.117 196.034 176.855 200.287 178.244L200.29 178.237Z" fill="#211715"/>
<path d="M122.37 170.929C122.935 178.312 126.448 185.254 129.947 191.655C133.109 197.445 136.403 203.15 139.457 209.005C147.144 223.771 154.715 238.605 162.333 253.408C165.26 259.092 168.134 264.791 171.233 270.379C173.415 274.307 179.446 270.791 177.261 266.855C163.593 242.238 151.943 216.526 138.124 191.992C134.529 185.609 129.922 178.419 129.346 170.936C129.006 166.484 122.017 166.448 122.366 170.936L122.37 170.929Z" fill="#211715"/>
<path d="M195.474 174.072C194.559 187.425 192.54 200.679 189.438 213.699C186.552 227.585 182.859 241.291 178.378 254.747C176.981 259.47 175.055 264.02 172.636 268.311C170.307 272.166 176.341 275.679 178.664 271.834C180.929 267.794 182.79 263.541 184.22 259.135C186.436 252.97 188.321 246.684 190.071 240.373C194.165 225.724 197.457 210.863 199.933 195.856C201.188 188.649 202.03 181.375 202.454 174.072C202.664 169.582 195.683 169.593 195.474 174.072Z" fill="#211715"/>
<path d="M226.817 253.546C226.817 262.271 227.06 270.996 226.873 279.722C226.767 284.737 226.556 289.759 226.193 294.762C225.7 300.006 224.779 305.2 223.441 310.294C222.394 314.656 229.121 316.522 230.171 312.149C232.528 301.718 233.756 291.064 233.836 280.371C234.047 271.433 233.799 262.493 233.794 253.553C233.794 249.061 226.814 249.054 226.814 253.553L226.817 253.546Z" fill="#211715"/>
<path d="M106.24 202.389C108.157 203.349 110.071 204.316 111.981 205.289C113.018 205.821 114.053 206.356 115.086 206.895C115.694 207.212 116.301 207.532 116.908 207.855C117.213 208.017 118.178 208.879 117.895 208.238L117.419 206.478V206.926L117.897 205.164C115.234 210.922 104.929 217.138 109.983 224.304C113.381 228.646 117.023 232.792 120.893 236.72C131.201 248.237 141.577 259.692 152.022 271.085C155.055 274.411 159.981 269.464 156.959 266.15C147.303 255.553 137.672 244.929 128.065 234.278C124.473 230.276 120.898 226.259 117.342 222.225C117.003 221.838 115.721 220.758 115.63 220.306C115.471 219.515 117.417 217.514 117.93 216.802C120.134 214.256 122.138 211.544 123.923 208.689C126.081 204.403 121.319 202.281 118.3 200.707C115.47 199.232 112.62 197.792 109.765 196.363C105.751 194.36 102.219 200.377 106.242 202.391L106.24 202.389Z" fill="#211715"/>
<path d="M216.387 195.139C214.609 196.817 211.522 198.889 210.848 201.311C210.037 204.236 212.07 206.18 213.968 208.052C214.928 208.996 215.882 209.946 216.83 210.903C217.397 211.478 219.134 212.751 219.273 213.49V211.633C218.77 213.416 218.086 215.143 217.233 216.788C216.288 218.998 215.328 221.197 214.356 223.384C212.271 228.085 210.119 232.757 207.899 237.399C203.827 245.936 199.606 254.396 195.237 262.781C193.167 266.761 199.189 270.295 201.264 266.304C207.183 254.921 212.895 243.425 218.205 231.752C220.7 226.269 223.105 220.747 225.423 215.188C228.004 208.996 220.114 205.155 216.83 200.986L217.727 202.527C218.076 203.389 217.043 203.759 217.919 203.293C218.417 202.919 218.871 202.49 219.273 202.014L221.32 200.082C224.592 196.992 219.65 192.055 216.383 195.145L216.387 195.139Z" fill="#211715"/>
<path d="M129.54 172.531C130.671 170.13 131.723 167.688 132.646 165.202C132.769 164.752 132.801 164.284 132.741 163.822C132.681 163.36 132.53 162.915 132.297 162.512C132.066 162.117 131.759 161.77 131.393 161.493C131.028 161.216 130.612 161.013 130.168 160.897C129.725 160.781 129.263 160.753 128.808 160.816C128.354 160.878 127.917 161.03 127.521 161.261L126.823 161.806C126.395 162.233 126.085 162.764 125.924 163.347C125.541 164.377 125.134 165.399 124.703 166.413L125.052 165.58C124.563 166.734 124.05 167.877 123.514 169.009C123.263 169.397 123.121 169.845 123.101 170.306C122.995 170.768 123.016 171.25 123.162 171.702C123.41 172.577 123.985 173.323 124.767 173.787C125.17 174.02 125.615 174.171 126.077 174.231C126.538 174.291 127.007 174.259 127.456 174.136C127.894 174.021 128.304 173.819 128.664 173.544C129.023 173.269 129.325 172.925 129.55 172.533L129.54 172.531Z" fill="#211715"/>
</svg>
