<svg width="100" height="77" viewBox="0 0 100 77" fill="none" xmlns="http://www.w3.org/2000/svg">
<path d="M13.2079 6.16377L13.0331 6.32031L13.0332 6.32045L13.0338 6.3211L13.0362 6.3239L13.0465 6.33543L13.0876 6.38201C13.124 6.42341 13.178 6.48538 13.2484 6.56712C13.3892 6.73059 13.5952 6.97313 13.855 7.28833C14.3747 7.91876 15.1097 8.83973 15.9697 10.0002C17.6901 12.3215 19.9086 15.5987 21.9029 19.4233C25.4213 26.1709 28.8777 31.6648 34.6079 38.03C37.4986 41.241 40.6357 42.9079 44.3255 43.434C48.0035 43.9584 52.2137 43.3467 57.2498 42.0388L57.2499 42.0389L57.2562 42.037C65.2739 39.7131 70.4939 37.7966 77.3074 35.295C78.3304 34.9194 79.3894 34.5306 80.4991 34.1253C71.3685 38.6501 65.3393 41.2131 55.5207 45.0644L55.3717 45.1229V45.2829V67.7008H51.4256L51.4256 46.4067V46.1035L51.1321 46.1794C45.6015 47.6108 41.3093 48.0228 37.6868 47.424C34.0715 46.8264 31.1037 45.2187 28.2261 42.5734C22.4417 37.2561 19.2493 32.5192 14.2343 24.4001L0.436111 1.23041C5.45796 1.69707 8.59154 2.94886 10.4719 4.08654C11.4404 4.67257 12.0783 5.22941 12.4716 5.6355C12.6683 5.83862 12.8041 6.00424 12.8896 6.11722C12.9323 6.17372 12.9625 6.21707 12.9814 6.24539C12.9909 6.25954 12.9976 6.26994 13.0016 6.27635L13.0057 6.28294L13.006 6.28335L13.0061 6.28364L13.0063 6.28384L13.0063 6.28393L13.0177 6.30315L13.033 6.3203L13.2079 6.16377Z" fill="white" stroke="#88CCF1" stroke-width="0.469393"/>
<path fill-rule="evenodd" clip-rule="evenodd" d="M70.311 44.0145H64.4958L56.4534 67.9354H61.5263L63.1347 62.8652H71.5483L73.2805 67.9354H78.2297H84.2924L89.1179 58.9651L93.6959 67.9354H99.5111L92.5823 55.4549L99.5111 44.2745H93.6959L89.1179 52.7248L85.406 44.2745H79.467L85.7772 55.4549L78.2297 67.9354L70.311 44.0145ZM67.4653 48.4346H67.2178L64.372 58.185H70.1873L67.4653 48.4346Z" fill="white"/>
<path d="M51.4092 6.12685C55.0469 0.658746 60.3382 -6.10352e-05 64.1082 -6.10352e-05L42.9431 40.1872L35.4031 35.9708C41.6203 24.3099 44.5305 17.5242 51.4092 6.12685Z" fill="white"/>
<path d="M39.5018 51.0063C29.8648 50.9798 30.8964 48.2176 22.1357 41.6148L30.5507 63.3393L39.5018 51.0063Z" fill="white"/>
<path d="M54.0745 71.3047C54.0745 71.5361 54.0187 71.753 53.9072 71.9555C53.7998 72.1579 53.6283 72.3212 53.3928 72.4451C53.1614 72.5691 52.868 72.6311 52.5126 72.6311H51.7875V74.2921H50.9198V69.9659H52.5126C52.8473 69.9659 53.1324 70.0238 53.368 70.1395C53.6035 70.2552 53.7791 70.4143 53.8948 70.6167C54.0146 70.8192 54.0745 71.0485 54.0745 71.3047ZM52.4755 71.9307C52.7151 71.9307 52.8928 71.877 53.0085 71.7695C53.1242 71.658 53.182 71.503 53.182 71.3047C53.182 70.8832 52.9465 70.6725 52.4755 70.6725H51.7875V71.9307H52.4755ZM56.9219 74.2921L55.9674 72.6063H55.5583V74.2921H54.6906V69.9659H56.3145C56.6492 69.9659 56.9343 70.0258 57.1698 70.1457C57.4053 70.2614 57.5809 70.4204 57.6966 70.6229C57.8164 70.8213 57.8764 71.0444 57.8764 71.2923C57.8764 71.5774 57.7937 71.8357 57.6284 72.067C57.4632 72.2943 57.2173 72.4513 56.8909 72.5381L57.9259 74.2921H56.9219ZM55.5583 71.9555H56.2835C56.519 71.9555 56.6946 71.8997 56.8103 71.7881C56.926 71.6724 56.9838 71.5134 56.9838 71.3109C56.9838 71.1126 56.926 70.9597 56.8103 70.8522C56.6946 70.7407 56.519 70.6849 56.2835 70.6849H55.5583V71.9555ZM60.6693 74.3355C60.2644 74.3355 59.8925 74.2405 59.5537 74.0504C59.2149 73.8603 58.9463 73.5979 58.7479 73.2633C58.5496 72.9244 58.4504 72.5422 58.4504 72.1166C58.4504 71.6952 58.5496 71.3171 58.7479 70.9824C58.9463 70.6436 59.2149 70.3791 59.5537 70.1891C59.8925 69.999 60.2644 69.904 60.6693 69.904C61.0784 69.904 61.4503 69.999 61.7849 70.1891C62.1238 70.3791 62.3903 70.6436 62.5845 70.9824C62.7828 71.3171 62.882 71.6952 62.882 72.1166C62.882 72.5422 62.7828 72.9244 62.5845 73.2633C62.3903 73.5979 62.1238 73.8603 61.7849 74.0504C61.4461 74.2405 61.0742 74.3355 60.6693 74.3355ZM60.6693 73.5608C60.9296 73.5608 61.159 73.5029 61.3573 73.3872C61.5556 73.2674 61.7106 73.098 61.8221 72.879C61.9337 72.66 61.9895 72.4059 61.9895 72.1166C61.9895 71.8274 61.9337 71.5753 61.8221 71.3605C61.7106 71.1415 61.5556 70.9741 61.3573 70.8584C61.159 70.7427 60.9296 70.6849 60.6693 70.6849C60.409 70.6849 60.1776 70.7427 59.9751 70.8584C59.7768 70.9741 59.6219 71.1415 59.5103 71.3605C59.3987 71.5753 59.343 71.8274 59.343 72.1166C59.343 72.4059 59.3987 72.66 59.5103 72.879C59.6219 73.098 59.7768 73.2674 59.9751 73.3872C60.1776 73.5029 60.409 73.5608 60.6693 73.5608ZM66.1989 69.9659V70.6663H64.3953V71.7757H65.7774V72.4637H64.3953V74.2921H63.5275V69.9659H66.1989ZM67.6819 70.6663V71.7509H69.1384V72.4389H67.6819V73.5855H69.3243V74.2921H66.8142V69.9597H69.3243V70.6663H67.6819ZM71.6066 74.3355C71.305 74.3355 71.0323 74.2839 70.7885 74.1806C70.5488 74.0773 70.3587 73.9285 70.2183 73.7343C70.0778 73.5401 70.0055 73.3108 70.0013 73.0463H70.931C70.9434 73.224 71.0054 73.3645 71.117 73.4678C71.2327 73.5711 71.3897 73.6227 71.588 73.6227C71.7905 73.6227 71.9496 73.5752 72.0652 73.4802C72.1809 73.381 72.2388 73.2529 72.2388 73.0959C72.2388 72.9678 72.1995 72.8624 72.121 72.7798C72.0425 72.6972 71.9434 72.6331 71.8235 72.5877C71.7078 72.5381 71.5467 72.4844 71.3401 72.4265C71.0591 72.3439 70.8298 72.2633 70.6521 72.1848C70.4786 72.1022 70.3278 71.9803 70.1997 71.8191C70.0757 71.6538 70.0137 71.4349 70.0137 71.1621C70.0137 70.906 70.0778 70.6828 70.2059 70.4928C70.3339 70.3027 70.5137 70.1581 70.7451 70.0589C70.9765 69.9556 71.2409 69.904 71.5384 69.904C71.9847 69.904 72.3462 70.0134 72.6231 70.2324C72.904 70.4473 73.059 70.7489 73.0879 71.1373H72.1334C72.1252 70.9886 72.0611 70.8667 71.9413 70.7717C71.8256 70.6725 71.6706 70.6229 71.4764 70.6229C71.307 70.6229 71.1707 70.6663 71.0674 70.7531C70.9682 70.8398 70.9186 70.9659 70.9186 71.1312C70.9186 71.2468 70.9558 71.3439 71.0302 71.4225C71.1087 71.4968 71.2037 71.5588 71.3153 71.6084C71.431 71.6538 71.5921 71.7076 71.7987 71.7695C72.0797 71.8522 72.309 71.9348 72.4867 72.0175C72.6644 72.1001 72.8173 72.2241 72.9454 72.3893C73.0735 72.5546 73.1375 72.7715 73.1375 73.0401C73.1375 73.2715 73.0776 73.4864 72.9578 73.6847C72.8379 73.883 72.6623 74.0421 72.4309 74.162C72.1995 74.2777 71.9248 74.3355 71.6066 74.3355ZM75.3835 74.3355C75.0819 74.3355 74.8091 74.2839 74.5654 74.1806C74.3257 74.0773 74.1356 73.9285 73.9951 73.7343C73.8547 73.5401 73.7823 73.3108 73.7782 73.0463H74.7079C74.7203 73.224 74.7823 73.3645 74.8938 73.4678C75.0095 73.5711 75.1666 73.6227 75.3649 73.6227C75.5674 73.6227 75.7264 73.5752 75.8421 73.4802C75.9578 73.381 76.0157 73.2529 76.0157 73.0959C76.0157 72.9678 75.9764 72.8624 75.8979 72.7798C75.8194 72.6972 75.7202 72.6331 75.6004 72.5877C75.4847 72.5381 75.3236 72.4844 75.117 72.4265C74.836 72.3439 74.6067 72.2633 74.429 72.1848C74.2555 72.1022 74.1046 71.9803 73.9765 71.8191C73.8526 71.6538 73.7906 71.4349 73.7906 71.1621C73.7906 70.906 73.8547 70.6828 73.9827 70.4928C74.1108 70.3027 74.2906 70.1581 74.522 70.0589C74.7534 69.9556 75.0178 69.904 75.3153 69.904C75.7616 69.904 76.1231 70.0134 76.4 70.2324C76.6809 70.4473 76.8359 70.7489 76.8648 71.1373H75.9103C75.902 70.9886 75.838 70.8667 75.7182 70.7717C75.6025 70.6725 75.4475 70.6229 75.2533 70.6229C75.0839 70.6229 74.9476 70.6663 74.8443 70.7531C74.7451 70.8398 74.6955 70.9659 74.6955 71.1312C74.6955 71.2468 74.7327 71.3439 74.8071 71.4225C74.8856 71.4968 74.9806 71.5588 75.0922 71.6084C75.2079 71.6538 75.369 71.7076 75.5756 71.7695C75.8566 71.8522 76.0859 71.9348 76.2636 72.0175C76.4413 72.1001 76.5942 72.2241 76.7222 72.3893C76.8503 72.5546 76.9144 72.7715 76.9144 73.0401C76.9144 73.2715 76.8545 73.4864 76.7346 73.6847C76.6148 73.883 76.4392 74.0421 76.2078 74.162C75.9764 74.2777 75.7016 74.3355 75.3835 74.3355ZM78.5344 69.9659V74.2921H77.6667V69.9659H78.5344ZM81.3998 74.3355C80.9949 74.3355 80.623 74.2405 80.2842 74.0504C79.9454 73.8603 79.6768 73.5979 79.4785 73.2633C79.2801 72.9244 79.181 72.5422 79.181 72.1166C79.181 71.6952 79.2801 71.3171 79.4785 70.9824C79.6768 70.6436 79.9454 70.3791 80.2842 70.1891C80.623 69.999 80.9949 69.904 81.3998 69.904C81.8089 69.904 82.1808 69.999 82.5155 70.1891C82.8543 70.3791 83.1208 70.6436 83.315 70.9824C83.5133 71.3171 83.6125 71.6952 83.6125 72.1166C83.6125 72.5422 83.5133 72.9244 83.315 73.2633C83.1208 73.5979 82.8543 73.8603 82.5155 74.0504C82.1766 74.2405 81.8048 74.3355 81.3998 74.3355ZM81.3998 73.5608C81.6601 73.5608 81.8895 73.5029 82.0878 73.3872C82.2861 73.2674 82.4411 73.098 82.5526 72.879C82.6642 72.66 82.72 72.4059 82.72 72.1166C82.72 71.8274 82.6642 71.5753 82.5526 71.3605C82.4411 71.1415 82.2861 70.9741 82.0878 70.8584C81.8895 70.7427 81.6601 70.6849 81.3998 70.6849C81.1395 70.6849 80.9081 70.7427 80.7057 70.8584C80.5073 70.9741 80.3524 71.1415 80.2408 71.3605C80.1292 71.5753 80.0735 71.8274 80.0735 72.1166C80.0735 72.4059 80.1292 72.66 80.2408 72.879C80.3524 73.098 80.5073 73.2674 80.7057 73.3872C80.9081 73.5029 81.1395 73.5608 81.3998 73.5608ZM87.9582 74.2921H87.0905L85.1258 71.3233V74.2921H84.2581V69.9597H85.1258L87.0905 72.9348V69.9597H87.9582V74.2921ZM91.4685 73.4678H89.7454L89.4603 74.2921H88.5492L90.1049 69.9597H91.1152L92.6709 74.2921H91.7536L91.4685 73.4678ZM91.233 72.7736L90.607 70.9638L89.981 72.7736H91.233ZM94.1201 73.6041H95.5456V74.2921H93.2524V69.9659H94.1201V73.6041ZM97.5909 74.3355C97.2892 74.3355 97.0165 74.2839 96.7727 74.1806C96.5331 74.0773 96.343 73.9285 96.2025 73.7343C96.062 73.5401 95.9897 73.3108 95.9856 73.0463H96.9153C96.9277 73.224 96.9897 73.3645 97.1012 73.4678C97.2169 73.5711 97.3739 73.6227 97.5723 73.6227C97.7747 73.6227 97.9338 73.5752 98.0495 73.4802C98.1652 73.381 98.2231 73.2529 98.2231 73.0959C98.2231 72.9678 98.1838 72.8624 98.1053 72.7798C98.0268 72.6972 97.9276 72.6331 97.8078 72.5877C97.6921 72.5381 97.5309 72.4844 97.3243 72.4265C97.0434 72.3439 96.814 72.2633 96.6364 72.1848C96.4628 72.1022 96.312 71.9803 96.1839 71.8191C96.06 71.6538 95.998 71.4349 95.998 71.1621C95.998 70.906 96.062 70.6828 96.1901 70.4928C96.3182 70.3027 96.4979 70.1581 96.7293 70.0589C96.9607 69.9556 97.2252 69.904 97.5227 69.904C97.9689 69.904 98.3305 70.0134 98.6073 70.2324C98.8883 70.4473 99.0432 70.7489 99.0722 71.1373H98.1177C98.1094 70.9886 98.0454 70.8667 97.9255 70.7717C97.8099 70.6725 97.6549 70.6229 97.4607 70.6229C97.2913 70.6229 97.1549 70.6663 97.0516 70.7531C96.9525 70.8398 96.9029 70.9659 96.9029 71.1312C96.9029 71.2468 96.9401 71.3439 97.0144 71.4225C97.093 71.4968 97.188 71.5588 97.2996 71.6084C97.4152 71.6538 97.5764 71.7076 97.783 71.7695C98.064 71.8522 98.2933 71.9348 98.471 72.0175C98.6486 72.1001 98.8015 72.2241 98.9296 72.3893C99.0577 72.5546 99.1218 72.7715 99.1218 73.0401C99.1218 73.2715 99.0618 73.4864 98.942 73.6847C98.8222 73.883 98.6466 74.0421 98.4152 74.162C98.1838 74.2777 97.909 74.3355 97.5909 74.3355Z" fill="white"/>
</svg>
