<svg width="800" height="788" viewBox="0 0 800 788" fill="none" xmlns="http://www.w3.org/2000/svg">
<path d="M543.468 344.705C540.115 344.067 527.242 341.352 514.8 338.7C505.998 344.716 496.649 349.89 486.877 354.153C474.019 359.114 460.66 362.661 447.035 364.733C442.284 365.299 437.506 365.626 432.722 365.713C420.384 366.083 408.072 364.383 396.297 360.682C397.547 376.902 399.647 393.197 402.288 409.127C429.678 418.05 458.86 420.002 487.194 414.806C508.479 412.29 529.123 405.898 548.107 395.948C553.562 379.943 559.054 363.323 563.427 345.375C557.044 345.727 550.642 345.549 544.288 344.843C544.221 344.84 543.94 344.793 543.468 344.705Z" fill="white"/>
<path d="M462.381 607.026C453.881 589.27 446.305 571.087 439.684 552.549C423.357 505.829 410.852 457.86 402.29 409.116C429.678 418.048 458.862 420.004 487.197 414.806C508.483 412.29 529.129 405.897 548.112 395.943C545.234 404.384 542.37 412.651 539.682 420.855C520.738 478.683 480.629 576.114 467.29 605.782L462.381 607.026Z" fill="#88CCF1"/>
<path d="M543.117 410.571C541.949 414.014 540.804 417.443 539.682 420.855C519.157 483.495 473.769 592.652 464.555 611.717C455.225 592.448 446.923 572.697 439.684 552.549C429.112 521.982 403.665 443.878 396.791 366.322C370.852 371.841 327.495 387.27 309.834 407.188C290.749 428.711 283.271 458.79 276.742 477.278C269.46 497.908 256.973 555.482 251.432 598.742C245.994 641.238 245.952 665.607 251.94 693.853C254.929 707.96 266.61 728.76 285.374 737.254C303.407 745.414 323.905 746.7 341.041 738.959L342.606 744.694C345.47 755.188 351.704 764.45 360.35 771.052C368.995 777.654 379.571 781.231 390.449 781.232H758.028C773.15 769.45 784.115 753.147 789.326 734.699C792.044 726.004 793.689 704.494 793.41 694.885C793.063 682.89 787.69 650.457 784.804 634.513C779.533 603.803 772.063 576.934 764.897 550.413C757.943 524.675 742.399 461.381 717.817 425.9C690.73 386.8 651.192 369.242 603.553 355.331L573.654 341.126L565.317 337.163C559.476 363.963 550.88 387.689 543.117 410.571Z" fill="#34A9E5"/>
<path d="M368.846 367.192C350.583 373.345 331.907 380.945 316.371 392.562C301.564 403.636 291.71 419.357 284.472 436.162C273.065 463.744 264.326 492.354 258.373 521.601C250.243 558.89 243.4 596.984 241.242 635.137C240.228 651.477 240.956 667.879 243.414 684.065C244.306 691.203 246.004 698.216 248.474 704.971C251.603 712.804 255.93 720.102 261.3 726.605C283.291 753.27 327.837 759.101 355.479 737.983C359.186 735.17 362.572 731.956 365.573 728.399C366.773 727.135 367.442 725.459 367.442 723.716C367.442 721.973 366.773 720.297 365.573 719.033C364.324 717.805 362.642 717.116 360.89 717.116C359.138 717.116 357.456 717.805 356.207 719.033C351.324 724.9 345.192 729.603 338.26 732.799C331.328 735.995 323.77 737.603 316.137 737.505C301.098 737.489 285.36 732.444 274.634 721.633C264.397 711.312 259.336 698.583 256.849 684.515C254.423 670.088 253.541 655.444 254.217 640.83C255.597 604.91 261.943 569.034 269.273 533.903C274.784 507.003 282.161 480.519 291.348 454.642C297.433 437.655 305.378 419.597 319.054 407.326C333.795 394.08 353.842 386.204 372.364 379.965C380.399 377.256 376.956 364.46 368.846 367.192Z" fill="#211715"/>
<path d="M596.72 381.127C599.825 385.609 602.523 390.358 604.784 395.319C606.4 398.338 607.579 401.571 608.285 404.922V401.409C610.096 398.894 610.565 398.047 609.693 398.868C610.758 398.067 611.008 397.867 610.443 398.266C610.016 398.491 609.606 398.745 609.215 399.028C608.178 399.646 607.11 400.212 606.042 400.777C602.692 402.557 599.284 404.232 595.876 405.899C589.088 409.21 582.25 412.428 575.456 415.725C574.592 416.246 573.857 416.954 573.305 417.799C572.754 418.643 572.401 419.602 572.272 420.602C572.143 421.602 572.242 422.619 572.562 423.575C572.882 424.532 573.413 425.404 574.117 426.126C579.184 431.601 584.294 437.037 589.295 442.572C591.855 445.406 594.488 448.221 596.894 451.19C597.705 451.881 598.277 452.81 598.529 453.845C598.782 454.88 598.702 455.968 598.302 456.955C596.258 461.03 593.993 464.991 591.519 468.82C588.798 473.489 586.038 478.138 583.24 482.767C569.443 505.709 555.142 528.337 540.339 550.65C531.475 564.068 522.421 577.36 513.174 590.524C512.303 592.044 512.064 593.846 512.508 595.54C512.952 597.235 514.045 598.687 515.55 599.584C517.075 600.436 518.87 600.664 520.56 600.221C522.249 599.778 523.702 598.698 524.613 597.208C541.779 572.861 558.182 547.973 574.093 522.79C581.24 511.476 588.265 500.088 595.17 488.625C598.069 483.792 600.937 478.941 603.774 474.072C606.779 469.687 609.288 464.981 611.255 460.043C614.16 450.473 607.858 443.552 601.991 436.926C595.937 430.088 589.67 423.444 583.467 416.741L582.126 427.141C593.191 421.777 604.635 416.906 615.311 410.78C617.301 409.848 619.02 408.424 620.306 406.641C622.047 403.724 620.968 400.339 619.903 397.391C617.02 389.247 613.067 381.523 608.147 374.421C607.229 372.94 605.776 371.868 604.09 371.426C602.404 370.984 600.613 371.206 599.085 372.046C597.58 372.942 596.487 374.394 596.043 376.089C595.598 377.784 595.838 379.585 596.709 381.105L596.72 381.127Z" fill="#211715"/>
<path d="M390.516 370.257C394.543 408.609 401.649 446.575 411.764 483.788C418.527 509.349 426.176 534.789 435.192 559.657C441.453 576.92 448.989 593.703 456.66 610.368C457.557 611.874 459.009 612.967 460.705 613.411C462.4 613.856 464.202 613.616 465.722 612.744C467.209 611.83 468.286 610.377 468.728 608.689C469.171 607.001 468.945 605.208 468.098 603.682C456.737 579.218 446.892 554.079 438.619 528.406C428.735 497.795 420.476 466.682 413.877 435.199C409.357 413.746 405.98 392.069 403.761 370.257C403.715 368.515 403.003 366.858 401.77 365.625C400.538 364.393 398.88 363.681 397.138 363.635C395.386 363.647 393.708 364.349 392.469 365.588C391.23 366.827 390.528 368.505 390.516 370.257Z" fill="#211715"/>
<path d="M762.719 785.926C778.862 772.969 790.523 755.266 796.054 735.32C798.131 726.516 799.333 717.527 799.641 708.487C800.181 701.329 800.112 694.139 799.434 686.993C794.584 644.732 786.372 602.925 774.875 561.969C765.429 526.877 756.524 491.536 742.285 458.001C735.025 439.912 724.918 423.102 712.348 408.206C699.241 393.547 683.57 381.401 666.105 372.366C647.678 363.001 628.374 355.473 608.473 349.89C608.136 349.79 605.498 349.131 606.817 349.592C606.699 349.55 606.591 349.473 606.472 349.429C605.735 349.153 605.024 348.739 604.312 348.402L596.836 344.851L580.139 336.915L576.987 335.416C575.46 334.577 573.668 334.356 571.982 334.798C570.297 335.24 568.844 336.311 567.925 337.792C567.053 339.312 566.814 341.114 567.258 342.81C567.703 344.505 568.796 345.957 570.301 346.854L597.247 359.658C603.462 362.25 609.839 364.434 616.337 366.196C625.54 369.173 634.696 372.407 643.582 376.243C661.055 383.421 677.229 393.424 691.456 405.852C705.07 418.429 716.183 433.468 724.208 450.175C739.708 481.445 748.721 515.574 757.689 549.16C763.52 570.99 769.582 592.76 774.282 614.866C778.349 634.003 781.575 653.383 784.37 672.746C788.91 704.204 788.176 738.995 766.21 764.267C762.282 768.729 757.975 772.842 753.337 776.56C752.106 777.808 751.416 779.49 751.416 781.243C751.416 782.996 752.106 784.678 753.337 785.926C754.598 787.131 756.275 787.804 758.02 787.804C759.764 787.804 761.442 787.131 762.703 785.926H762.719Z" fill="#211715"/>
<path d="M420.268 420.726C442.995 424.869 466.269 425.023 489.048 421.181C510.793 418.232 531.884 411.633 551.432 401.663C558.985 397.703 552.296 386.268 544.746 390.225C526.954 399.452 507.688 405.499 487.815 408.095C477.221 409.767 466.527 410.728 455.805 410.974C445.062 411.009 434.341 409.997 423.795 407.952C422.102 407.531 420.313 407.776 418.796 408.638C417.28 409.499 416.152 410.91 415.646 412.58C415.196 414.272 415.428 416.074 416.293 417.597C417.157 419.12 418.585 420.244 420.268 420.726Z" fill="#211715"/>
<path d="M358.547 480.786C353.543 469.002 349.325 456.9 345.922 444.559C344.159 438.074 343.922 433.245 338.684 429.716C334.134 426.656 326.435 426.432 322.434 430.693C318.437 435.145 315.95 440.747 315.328 446.698C314.852 449.989 314.802 453.328 315.179 456.632L305.317 422.826C305.499 421.174 305.329 419.502 304.817 417.921C304.306 416.34 303.465 414.885 302.35 413.653C301.177 412.466 299.711 411.61 298.101 411.169C294.289 410.926 290.468 411.476 286.88 412.784C283.292 414.092 280.014 416.13 277.253 418.769C271.755 424.103 267.738 430.775 265.597 438.13L262.837 447.197L255.354 476.599C255.591 490.488 254.802 500.469 255.036 514.36C255.315 521.126 256.886 527.777 259.664 533.952C263.776 542.064 269.769 549.074 277.142 554.397C284.005 559.486 283.555 568.302 281.282 576.537C280.923 577.836 280.498 579.202 279.993 580.604C278.842 583.863 278.683 587.391 279.536 590.74C280.39 594.09 282.218 597.111 284.789 599.421C295.65 609.176 308.388 610.542 324.004 608.56C329.589 608.014 335.108 606.926 340.483 605.313C343.584 603.891 346.327 601.791 348.508 599.169C350.69 596.547 352.255 593.468 353.089 590.16C354.891 584.39 354.524 578.824 354.987 572.077C355.608 563.035 355.004 557.041 358.395 548.622C360.644 543.045 364.044 537.976 366.08 532.319C372.151 515.486 365.305 497.044 358.544 480.488" fill="white"/>
<path d="M558.046 339.376C552.527 363.069 544.47 385.984 536.671 408.992C530.893 426.035 525.167 443.066 518.936 459.952C505.997 495.013 492.169 529.766 477.861 564.279C472.486 577.249 467.428 589.39 461.58 602.44C460.747 603.968 460.528 605.757 460.97 607.441C461.412 609.125 462.48 610.577 463.956 611.499C465.476 612.373 467.279 612.614 468.974 612.169C470.67 611.725 472.123 610.63 473.018 609.123C485.353 581.631 496.623 553.627 507.788 525.638C521.566 491.062 534.974 456.292 546.641 420.935C555.196 395.051 564.652 369.493 570.839 342.897C572.771 334.602 560.003 331.062 558.068 339.376H558.046Z" fill="#211715"/>
<path d="M248.736 476.599C249.073 499.266 244.346 523.828 257.843 543.743C260.774 548.148 264.262 552.154 268.221 555.664C271.532 558.559 275.586 560.468 276.113 565.22C276.665 570.311 274.648 575.06 273.285 579.845C271.671 585.72 272.302 591.985 275.054 597.42C279.745 606.883 291.334 612.973 301.332 614.874C312.411 616.51 323.697 616.088 334.622 613.63C340.088 613.071 345.272 610.935 349.544 607.481C353.816 604.027 356.991 599.405 358.682 594.178C362.893 583.333 360.986 570.965 362.33 559.618C363.454 553.487 365.667 547.606 368.865 542.256C372.266 535.849 374.331 528.818 374.936 521.59C375.995 506.755 370.424 492.226 364.932 478.744C364.419 477.08 363.29 475.676 361.776 474.816C360.263 473.957 358.478 473.707 356.786 474.119C355.099 474.596 353.668 475.718 352.802 477.243C351.937 478.767 351.707 480.571 352.162 482.265C356.541 493.027 361.249 504.376 361.754 516.118C362.084 521.545 361.189 526.978 359.135 532.013C356.905 537.256 353.856 542.101 351.792 547.443C347.956 557.378 348.519 568.769 348.039 579.244C347.675 587.163 345.111 597.034 337.07 599.484C327.798 602.204 318.115 603.246 308.476 602.561C301.026 602.009 290.78 598.698 286.952 591.642C284.61 587.31 286.083 583.64 287.375 579.288C288.911 574.605 289.566 569.678 289.306 564.756C289.019 559.607 286.9 554.73 283.332 551.006C279.883 547.573 275.782 544.999 272.52 541.301C266.01 534.054 262.183 524.793 261.678 515.064C261.082 502.274 262.164 489.414 261.974 476.613C261.849 468.097 248.604 468.073 248.728 476.613L248.736 476.599Z" fill="#211715"/>
<path d="M265.015 491.401C278.581 488.497 292.453 487.266 306.319 487.734C311.89 487.767 316.576 488.308 319.812 492.202C321.606 494.359 323.747 497.445 322.506 500.091C321.737 501.314 320.66 502.312 319.382 502.986C317.409 504.321 315.466 505.643 313.609 507.144C312.379 508.392 311.689 510.074 311.689 511.827C311.689 513.58 312.379 515.262 313.609 516.51C314.87 517.715 316.547 518.388 318.292 518.388C320.036 518.388 321.714 517.715 322.975 516.51C326.114 514.519 329.069 512.253 331.805 509.738C333.47 507.815 334.691 505.55 335.384 503.103C336.076 500.656 336.222 498.086 335.812 495.576C335.053 491.787 333.463 488.213 331.157 485.111C328.851 482.01 325.886 479.458 322.475 477.64C316.867 475.215 310.769 474.136 304.668 474.488C298.228 474.524 291.782 474.839 285.352 475.316C277.314 475.755 269.326 476.863 261.472 478.628C253.193 480.678 256.706 493.454 264.993 491.399L265.015 491.401Z" fill="#211715"/>
<path d="M281.864 519.192C288.089 517.536 294.254 515.511 300.628 514.457C301.045 514.388 301.456 514.319 301.884 514.264C301.754 514.28 300.907 514.352 301.685 514.305C302.414 514.261 303.14 514.161 303.871 514.12C305.424 514.025 306.982 514.033 308.534 514.142C308.951 514.173 309.362 514.217 309.779 514.255C310.563 514.33 309.691 514.255 309.572 514.233C310.149 514.352 310.739 514.509 311.319 514.592C312.649 514.782 310.215 514.04 311.142 514.498C311.236 514.545 311.672 514.857 311.71 514.846C311.553 514.887 310.538 513.742 311.159 514.424C311.418 514.722 311.695 515.006 311.986 515.274C312.442 515.657 311.462 514.686 311.484 514.617C311.603 514.82 311.732 515.017 311.871 515.207C312.069 515.569 312.243 515.98 312.469 516.311C312.817 516.838 312.171 515.607 312.169 515.58C312.243 515.888 312.349 516.188 312.486 516.474C312.622 516.904 312.741 517.339 312.842 517.779C312.919 518.107 313.099 519.576 313.007 518.455C312.916 517.335 313.03 518.858 313.049 519.173C313.079 519.711 313.087 520.252 313.076 520.79C313.076 521.262 313.021 521.731 312.996 522.203C312.908 523.706 313.256 521.099 312.996 522.227C312.776 523.166 312.425 524.104 312.227 525.039C312.091 525.671 312.522 524.349 312.541 524.327C312.415 524.539 312.308 524.762 312.221 524.992C312.028 525.365 311.796 525.713 311.586 526.077C310.907 527.252 312.447 525.299 311.666 525.969C311.07 526.477 310.563 527.139 310.011 527.697C308.998 528.709 307.941 529.678 306.84 530.591C306.581 530.809 306.31 531.014 306.054 531.232C306.426 530.911 306.821 530.66 306.203 531.116C305.664 531.513 305.124 531.908 304.574 532.294C301.931 534.148 299.185 535.856 296.492 537.642C295.741 538.081 295.084 538.664 294.558 539.357C294.032 540.05 293.648 540.839 293.427 541.681C293.207 542.522 293.154 543.399 293.272 544.261C293.39 545.123 293.677 545.953 294.116 546.704C294.555 547.455 295.138 548.112 295.831 548.638C296.524 549.164 297.314 549.548 298.155 549.769C298.997 549.989 299.873 550.042 300.735 549.924C301.597 549.806 302.427 549.519 303.178 549.08C308.714 545.754 313.935 541.929 318.775 537.653C320.905 535.781 322.668 533.53 323.974 531.014C325.274 528.172 326.051 525.119 326.267 522.001C326.802 516.373 325.163 510.754 321.686 506.297C317.439 501.123 310.132 500.502 303.874 500.864C295.2 501.844 286.649 503.703 278.351 506.41C277.513 506.641 276.728 507.035 276.042 507.57C275.355 508.104 274.781 508.769 274.352 509.525C273.922 510.282 273.646 511.115 273.539 511.978C273.431 512.842 273.495 513.718 273.726 514.556C273.957 515.395 274.352 516.179 274.886 516.866C275.421 517.552 276.085 518.126 276.841 518.556C277.598 518.985 278.431 519.261 279.295 519.369C280.158 519.476 281.034 519.412 281.872 519.181L281.864 519.192Z" fill="#211715"/>
<path d="M311.939 422.82C311.882 416.012 309.528 409.525 303.228 406.117C296.798 402.637 288.258 404.859 281.996 407.706C270.282 413.032 262.832 424.724 259.129 436.642C258.218 439.567 257.349 442.503 256.457 445.437C256.008 447.13 256.24 448.932 257.105 450.455C257.97 451.978 259.398 453.101 261.082 453.583C262.775 454.013 264.568 453.772 266.087 452.91C267.606 452.048 268.733 450.632 269.231 448.958C270.095 446.11 270.945 443.262 271.822 440.42C272.423 438.345 273.191 436.322 274.118 434.371C274.816 432.911 275.591 431.489 276.439 430.111C276.803 429.523 277.181 428.941 277.573 428.372C277.832 427.993 278.099 427.619 278.373 427.249C278.035 427.674 278.115 427.577 278.613 426.959C279.642 425.722 280.748 424.55 281.925 423.452C282.123 423.273 283.895 421.829 283.269 422.29C283.82 421.876 284.411 421.487 284.996 421.117C285.781 420.621 286.588 420.161 287.416 419.738C287.83 419.528 288.248 419.328 288.669 419.139C288.257 419.31 288.263 419.31 288.688 419.139C290.3 418.52 291.971 418.064 293.675 417.778C292.54 417.963 294.61 417.712 294.646 417.709C294.872 417.709 297.405 417.751 297.405 417.726C297.38 417.809 294.905 416.975 296.779 417.682C297.022 417.82 297.256 417.958 297.488 418.129C296.883 417.625 296.841 417.594 297.364 418.035C297.617 418.265 297.856 418.51 298.079 418.769C297.659 418.192 297.654 418.217 298.065 418.822C298.906 420.022 297.913 417.834 298.291 419.233C298.379 419.561 298.713 421.793 298.586 420.265C298.655 421.112 298.68 421.959 298.688 422.809C298.688 424.565 299.386 426.25 300.628 427.492C301.87 428.734 303.555 429.432 305.311 429.432C307.068 429.432 308.752 428.734 309.994 427.492C311.236 426.25 311.934 424.565 311.934 422.809L311.939 422.82Z" fill="#211715"/>
<path d="M343.781 323.139C323.066 315.239 308.628 303.379 300.195 285.931C289.491 263.598 291.533 239.199 297.48 215.144C304.428 187.243 313.121 153.663 321.427 126.096C334.209 83.9838 344.468 61.8666 367.234 40.5331C387.497 23.543 428.823 4.04173 477.061 7.14338C501.106 8.32271 524.651 14.4346 546.233 25.0993L549.702 27.3703L565.662 37.8067C590.906 51.3088 606.163 78.0951 613.25 95.2728C622.709 118.243 623.344 151.392 627.171 177.475C631.724 208.436 637.205 229.781 640.251 255.811C642.313 275.504 637.199 295.28 625.849 311.505C608.89 335.885 581.218 348.827 544.285 344.843L343.781 323.139Z" fill="#85807F"/>
<path d="M486.877 354.15C474.019 359.112 460.66 362.66 447.035 364.733C442.284 365.299 437.507 365.626 432.722 365.713C402.092 366.298 377.425 356.565 354.99 335.458C333.591 315.313 325.74 285.368 324.429 252.753C323.632 232.99 323.254 211.455 321.819 189.953C346.084 183.118 369.803 174.474 392.776 164.094C432.159 146.282 449.748 132.578 474.484 105.982C492.145 128.547 518.434 169.635 532.038 203.546L535.998 208.955L577.683 219.068C582.234 216.424 587.625 215.623 592.75 216.828C602.819 219.077 606.152 225.106 607.424 228.52C611.224 238.73 607.811 255.516 602.11 265.248C597.185 274.778 589.529 282.622 580.122 287.777C573.378 290.737 565.938 291.74 558.651 290.671C557.547 292.603 556.854 293.825 556.854 293.825C554.191 298.517 548.093 306.643 548.093 306.643C541.848 314.784 534.887 322.35 527.295 329.252C515.081 339.443 501.47 347.832 486.877 354.161" fill="white"/>
<path d="M450.316 234.384C448.986 227.653 451.859 212.788 464.348 212.799C480.668 214.598 479.647 232.827 473.261 240.783C468.032 247.298 454.486 248.81 450.316 234.384Z" fill="#211715"/>
<path d="M353.042 227.328C351.869 220.586 354.593 205.66 366.036 205.594C380.976 207.294 379.928 225.581 374.039 233.597C369.193 240.162 356.781 241.776 353.042 227.328Z" fill="#211715"/>
<path d="M402.155 246.412C399.787 249.831 397.503 253.311 395.444 256.934C394.287 258.814 393.576 260.934 393.366 263.132C393.322 264.468 393.572 265.797 394.099 267.026C394.626 268.254 395.417 269.352 396.415 270.24C397.932 271.704 399.769 272.794 401.78 273.425C402.561 273.673 403.38 273.731 404.178 273.905C405.902 274.337 407.726 274.099 409.28 273.237C410.405 272.58 411.311 271.605 411.885 270.435C412.459 269.266 412.675 267.953 412.506 266.661C412.337 265.369 411.791 264.155 410.936 263.172C410.081 262.189 408.955 261.48 407.699 261.134C406.687 260.99 405.69 260.757 404.719 260.439L406.303 261.106C405.872 260.907 405.461 260.666 405.077 260.386L406.419 261.421C405.949 261.046 405.514 260.629 405.122 260.174L406.156 261.512C406.046 261.386 405.954 261.246 405.88 261.095L406.548 262.679C406.457 262.458 406.392 262.226 406.355 261.989L406.592 263.75C406.58 263.501 406.588 263.252 406.617 263.005L406.383 264.765C406.468 264.326 406.6 263.897 406.774 263.485L406.107 265.069C407.193 262.874 408.439 260.761 409.832 258.747C411.052 256.843 412.296 254.955 413.585 253.096C414.25 251.958 414.561 250.649 414.478 249.334C414.395 248.019 413.921 246.759 413.118 245.714C412.315 244.67 411.218 243.889 409.969 243.471C408.719 243.053 407.374 243.017 406.104 243.368C404.474 243.894 403.076 244.966 402.147 246.404L402.155 246.412Z" fill="#211715"/>
<path d="M581.025 224.775C583.644 223.46 586.571 222.876 589.495 223.086C592.418 223.296 595.231 224.291 597.637 225.967C597.714 226.022 598.429 226.643 598.702 226.911C599.03 227.219 599.339 227.546 599.629 227.891C599.969 228.377 600.284 228.879 600.573 229.397C600.705 229.618 601.401 231.08 601.028 230.225C600.655 229.37 601.351 231.185 601.442 231.481C601.752 232.466 601.99 233.472 602.154 234.491C602.638 238.255 602.539 242.071 601.859 245.805C599.375 260.563 590.156 275.676 576.325 282.272C577.498 281.72 575.726 282.481 575.315 282.619C574.487 282.895 573.637 283.146 572.785 283.367C571.071 283.826 569.323 284.15 567.558 284.336C563.288 284.991 558.92 284.345 555.022 282.481C547.549 278.372 540.858 289.808 548.336 293.919C557.544 298.983 569.415 298.696 579.17 295.28C589.081 291.335 597.542 284.443 603.409 275.536C609.277 267.468 613.176 258.14 614.798 248.297C616.247 239.006 616.36 228.335 610.493 220.426C606.277 215.163 600.334 211.563 593.717 210.264C587.099 208.965 580.236 210.052 574.344 213.331C566.94 217.551 573.604 228.997 581.03 224.767L581.025 224.775Z" fill="#211715"/>
<path d="M490.218 359.871C519.886 346.921 546.2 325.377 562.572 297.159C566.857 289.769 555.417 283.086 551.137 290.473C547.733 296.166 543.884 301.582 539.627 306.668C534.292 313.304 528.394 319.467 521.999 325.088C521.411 325.59 520.81 326.078 520.206 326.567C519.839 326.862 519.466 327.154 519.102 327.45C517.998 328.335 519.8 326.931 518.658 327.8C515.795 329.978 512.864 332.064 509.866 334.056C501.527 339.608 492.717 344.419 483.538 348.433C482.03 349.328 480.935 350.78 480.491 352.476C480.046 354.172 480.287 355.975 481.162 357.495C482.079 358.978 483.531 360.051 485.218 360.494C486.905 360.936 488.697 360.713 490.224 359.871H490.218Z" fill="#211715"/>
<path d="M315.408 193.069C316.788 215.6 316.567 238.244 318.278 260.745C319.71 279.62 323.469 298.497 332.075 315.498C348.939 348.849 385.565 369.788 422.211 372.104C445.007 373.544 467.425 368.552 488.654 360.53C490.321 360.022 491.73 358.894 492.59 357.378C493.451 355.862 493.697 354.074 493.279 352.382C492.8 350.695 491.678 349.265 490.154 348.399C488.629 347.534 486.826 347.303 485.133 347.757C467.576 354.872 448.866 358.718 429.926 359.106C413.078 359.3 396.463 355.161 381.674 347.086C366.814 339.132 354.381 327.309 345.688 312.869C337.258 298.078 333.378 280.964 331.819 264.136C329.636 240.557 330.111 216.715 328.665 193.071C328.146 184.603 314.895 184.545 315.419 193.071L315.408 193.069Z" fill="#211715"/>
<path d="M469.801 101.288C456.817 115.862 441.984 128.677 425.68 139.408C405.263 151.785 383.647 162.064 361.16 170.088C348.654 174.76 335.925 178.769 323.154 182.635C315.016 185.099 318.485 197.887 326.675 195.409C351.148 188.168 375.101 179.271 398.366 168.78C418.411 160.056 437.185 148.663 454.177 134.91C462.994 127.342 471.339 119.242 479.167 110.654C484.962 104.423 475.629 95.0355 469.801 101.288Z" fill="#211715"/>
<path d="M469.801 110.654C480.391 124.463 490.158 138.883 499.051 153.84C509.27 170.257 518.161 187.463 525.639 205.296C526.153 206.96 527.282 208.365 528.796 209.225C530.31 210.085 532.096 210.335 533.788 209.924C535.475 209.445 536.906 208.322 537.771 206.798C538.637 205.273 538.867 203.468 538.413 201.775C523.391 165.708 503.454 131.892 479.167 101.288C477.92 100.055 476.237 99.3636 474.484 99.3636C472.73 99.3636 471.048 100.055 469.801 101.288C468.599 102.551 467.928 104.228 467.928 105.971C467.928 107.715 468.599 109.391 469.801 110.654Z" fill="#211715"/>
<path d="M345.542 316.751C331.593 311.359 318.471 302.91 310.193 290.188C300.231 274.895 298.024 256.655 299.825 238.81C301.732 219.993 307.701 201.383 312.464 183.135C317.196 164.999 322.092 146.9 327.486 128.949C335.765 101.415 345.235 73.2604 365.159 51.96C374.138 42.688 384.76 35.1625 396.484 29.7656C411.005 22.7033 426.492 17.8323 442.441 15.3114C462.727 12.2402 483.404 12.8948 503.456 17.2431C518.037 20.2785 533.81 24.8592 546.374 33.0797C553.529 37.7708 560.171 26.2941 553.06 21.6417C547.607 18.304 541.843 15.5038 535.849 13.2805C528.322 10.2176 520.583 7.70624 512.692 5.7664C493.387 0.946353 473.436 -0.7529 453.595 0.73311C435.262 2.21004 417.275 6.55577 400.29 13.6116C386.595 18.9435 373.853 26.4531 362.554 35.8502C339.443 56.182 327.464 85.3249 318.281 113.943C312.21 132.832 306.995 151.994 301.917 171.164C296.812 190.422 290.849 209.885 287.783 229.593C284.301 251.972 285.653 275.48 297.731 295.269C307.914 311.939 324.101 322.618 342.021 329.544C343.714 329.997 345.517 329.766 347.041 328.9C348.565 328.035 349.688 326.605 350.167 324.919C350.594 323.227 350.352 321.435 349.49 319.916C348.628 318.398 347.214 317.271 345.542 316.771V316.751Z" fill="#211715"/>
<path d="M570.149 48.3203C587.719 60.7379 601.389 81.3843 608.318 100.795C616.942 124.948 616.967 151.442 620.427 176.606C623.97 202.382 630.184 227.736 633.372 253.562C634.941 265.291 633.793 277.225 630.017 288.44C626.241 299.655 619.938 309.852 611.594 318.244C593.657 335.979 568.659 340.742 544.29 338.22C542.537 338.232 540.86 338.933 539.62 340.172C538.381 341.412 537.679 343.09 537.667 344.843C537.705 346.587 538.415 348.25 539.649 349.484C540.883 350.718 542.546 351.427 544.29 351.465C568.935 354.015 594.104 349.244 613.917 333.772C623.992 325.691 632.197 315.523 637.966 303.969C643.736 292.414 646.934 279.747 647.34 266.838C647.746 253.719 644.92 240.325 642.649 227.457C640.201 213.66 637.458 199.94 635.198 186.12C630.767 158.989 630.706 130.801 623.291 104.225C615.765 77.2222 599.413 53.5181 576.844 36.8933C575.324 36.021 573.522 35.7813 571.828 36.2258C570.133 36.6703 568.68 37.7634 567.784 39.2692C566.934 40.7937 566.706 42.5884 567.149 44.2772C567.591 45.966 568.671 47.4179 570.16 48.3286L570.149 48.3203Z" fill="#211715"/>
<path d="M564.147 291.174C562.526 291.043 560.895 291.239 559.351 291.751C557.808 292.263 556.382 293.08 555.16 294.153C553.938 295.227 552.944 296.534 552.237 297.999C551.531 299.464 551.125 301.056 551.045 302.681C550.949 309.731 556.288 314.657 563.827 314.762C571.659 314.866 576.838 310.037 576.935 303.034C576.9 301.407 576.538 299.805 575.871 298.321C575.204 296.837 574.246 295.502 573.053 294.396C571.86 293.29 570.457 292.434 568.927 291.881C567.397 291.327 565.772 291.087 564.147 291.174Z" fill="white"/>
<path d="M564.147 284.551C560.093 284.444 556.105 285.602 552.739 287.865C549.373 290.128 546.795 293.383 545.364 297.178C544.145 300.756 544.082 304.625 545.182 308.241C546.393 312.128 548.855 315.505 552.185 317.847C555.404 319.959 559.126 321.181 562.971 321.387C566.816 321.593 570.647 320.776 574.073 319.019C577.468 317.154 580.182 314.258 581.823 310.749C583.464 307.24 583.947 303.3 583.202 299.499C581.728 290.373 572.873 284.777 564.147 284.551C562.396 284.566 560.72 285.269 559.481 286.507C558.242 287.746 557.54 289.422 557.525 291.174C557.559 292.919 558.267 294.584 559.502 295.819C560.737 297.054 562.402 297.762 564.147 297.796C564.537 297.796 564.923 297.841 565.312 297.854C566.416 297.901 564.779 297.807 564.674 297.758C565.256 297.931 565.849 298.067 566.449 298.163C566.777 298.296 567.112 298.409 567.453 298.503C566.198 298.301 566.278 297.951 566.824 298.243C567.428 298.558 567.994 298.889 568.571 299.248C569.597 299.885 567.577 298.318 568.146 298.908C568.331 299.102 568.557 299.262 568.75 299.46C569.252 299.94 570.053 301.317 568.988 299.554C569.263 300.007 569.586 300.415 569.843 300.881C569.97 301.11 570.066 301.362 570.199 301.585C570.417 301.966 569.589 299.883 570.042 301.328C570.147 301.662 570.536 302.567 570.406 302.874C570.381 302.932 570.268 300.978 570.282 302.071C570.282 302.396 570.315 302.719 570.312 303.045C570.312 303.274 570.312 303.5 570.287 303.726C570.243 304.43 569.846 305.037 570.376 303.285C570.207 303.837 570.144 304.436 569.967 304.996C569.89 305.241 569.774 305.481 569.708 305.73C570.169 304.016 570.238 304.604 569.934 305.128C569.683 305.559 569.382 305.989 569.156 306.425C568.775 307.129 570.329 305.084 569.548 305.92C569.41 306.066 569.272 306.221 569.142 306.365C568.93 306.585 568.701 306.778 568.485 306.994C567.657 307.822 569.848 306.089 568.866 306.718C568.425 306.994 567.994 307.286 567.531 307.526C566.94 307.833 566.231 307.819 567.944 307.391C567.74 307.441 567.522 307.548 567.326 307.615C566.791 307.795 566.246 307.944 565.693 308.059C565.03 308.197 564.263 308.001 566.06 308.059C565.701 308.059 565.323 308.131 564.956 308.147C564.328 308.182 563.699 308.182 563.071 308.147C562.829 308.111 562.585 308.091 562.34 308.089C563.871 307.924 563.482 308.274 562.688 308.12C562.128 308.01 561.575 307.867 561.032 307.692C560.819 307.623 560.61 307.54 560.397 307.471C559.318 307.112 561.995 308.266 560.486 307.471C560.168 307.306 559.266 306.961 559.128 306.643C559.128 306.61 560.488 307.802 559.724 307.104C559.495 306.892 559.258 306.693 559.034 306.475C558.811 306.257 557.756 304.979 558.537 305.981C559.318 306.983 558.653 306.097 558.537 305.893C558.372 305.617 558.217 305.36 558.074 305.084C557.74 304.441 557.872 303.895 558.226 305.52C558.184 305.327 558.079 305.114 558.016 304.921C557.853 304.408 557.806 303.845 557.63 303.343C558.181 304.927 557.759 304.543 557.71 303.771C557.71 303.539 557.687 303.31 557.685 303.078C557.685 302.744 557.707 302.413 557.712 302.079C557.712 300.868 557.354 303.735 557.641 302.57C557.787 301.966 558.03 301.348 558.151 300.746C557.859 302.178 557.583 301.977 557.853 301.458C558.049 301.086 558.234 300.713 558.457 300.354C558.571 300.175 558.692 300.004 558.808 299.827C559.434 298.85 557.627 301.064 558.664 300.054C559.078 299.648 559.561 299.259 559.95 298.834C558.822 300.073 559.089 299.471 559.674 299.096C559.95 298.914 560.243 298.743 560.535 298.583C560.781 298.448 561.051 298.345 561.294 298.205C561.761 297.993 561.498 298.104 560.505 298.536C560.723 298.453 560.941 298.376 561.164 298.304C561.827 298.089 562.643 298.07 563.264 297.799C563.16 297.846 561.531 297.94 562.621 297.898C563.137 297.879 563.651 297.843 564.169 297.843C565.926 297.843 567.61 297.146 568.852 295.903C570.094 294.661 570.792 292.977 570.792 291.221C570.792 289.464 570.094 287.78 568.852 286.538C567.61 285.296 565.926 284.598 564.169 284.598L564.147 284.551Z" fill="#211715"/>
<path d="M408.85 308.26C409.338 307.631 410.329 306.141 411.143 305.871C410.478 306.373 410.343 306.48 410.74 306.199C410.93 306.061 411.126 305.923 411.325 305.804C411.791 305.509 412.271 305.252 412.765 304.977C414.294 304.198 411.877 305.206 413.149 304.778C413.607 304.623 414.057 304.452 414.529 304.309C415.633 303.975 416.736 303.757 417.84 303.531C419.22 303.255 416.505 303.638 418.019 303.5C418.508 303.459 418.991 303.409 419.479 303.379C420.721 303.295 421.967 303.28 423.21 303.335C423.778 303.359 424.347 303.395 424.913 303.467C423.367 303.268 425.042 303.55 425.382 303.635C425.721 303.721 426.113 303.834 426.486 303.955C427.17 304.211 427.084 304.167 426.229 303.823C426.555 303.801 427.233 304.342 427.487 304.496C427.854 304.72 429.099 305.206 427.702 304.557C428.167 304.867 428.581 305.248 428.928 305.686C429.096 305.857 429.256 306.031 429.413 306.21C429.877 306.762 429.826 306.69 429.262 305.995C429.262 305.995 429.993 307.143 430.023 307.201C430.18 307.477 430.324 307.753 430.462 308.048L430.167 307.339C430.534 307.717 430.589 308.751 430.735 309.237C431.127 310.542 430.754 308.034 430.777 309.513C430.777 310.029 430.777 310.537 430.777 311.053C430.777 312.402 431.077 309.872 430.699 311.585C430.649 312.19 430.479 312.778 430.2 313.316C430.522 312.609 430.58 312.477 430.374 312.918C430.266 313.153 430.15 313.382 430.026 313.608C429.833 314.091 429.552 314.535 429.198 314.916C429.732 314.254 429.764 314.198 429.295 314.748C429.071 314.993 428.837 315.228 428.594 315.454C427.727 316.395 429.571 314.966 428.362 315.625C428.155 315.758 427.941 315.88 427.722 315.99C427.284 316.21 427.438 316.152 428.185 315.816C427.881 315.927 427.569 316.02 427.253 316.092C428.215 316.002 428.318 315.98 427.562 316.028C425.805 316.028 424.121 316.726 422.879 317.968C421.637 319.21 420.939 320.894 420.939 322.651C420.939 324.407 421.637 326.092 422.879 327.334C424.121 328.576 425.805 329.274 427.562 329.274C430.583 329.09 433.5 328.097 436.005 326.397C438.509 324.698 440.511 322.355 441.798 319.616C443.155 316.851 443.884 313.821 443.932 310.742C443.98 307.662 443.345 304.611 442.074 301.806C440.898 299.348 439.243 297.15 437.205 295.341C435.168 293.533 432.788 292.151 430.208 291.276C424.874 289.733 419.233 289.588 413.828 290.856C408.242 291.746 403.156 294.595 399.479 298.892C398.29 300.172 397.604 301.838 397.547 303.583C397.557 305.338 398.249 307.021 399.479 308.274C401.852 310.451 406.573 311.194 408.844 308.274L408.85 308.26Z" fill="#211715"/>
<path d="M633.623 584.674L655.834 665.982C658.077 674.195 670.859 670.707 668.608 662.458L646.394 581.153C644.15 572.941 631.368 576.426 633.623 584.674Z" fill="#211715"/>
<path d="M157.726 150.918C166.386 151.886 174.942 153.624 183.293 156.111C203.514 163.327 214.411 177.191 214.135 198.659C213.895 208.263 210.771 217.572 205.17 225.377C202.574 229.224 199.66 232.847 196.458 236.208C194.946 237.742 194.057 239.783 193.963 241.935C193.869 244.087 194.576 246.197 195.948 247.858C205.493 259.82 207.745 270.155 206.986 284.087C206.616 290.71 204.604 299.573 201.729 303.867C200.467 305.66 199.901 307.85 200.137 310.029C200.597 316.1 207.996 328.167 232.116 328.167C235.171 328.167 238.121 328.018 240.947 327.803C250.171 327.096 258.055 325.838 263.881 327.199C268.715 328.327 270.663 330.433 271.48 333.981C272.639 339.026 270.616 342.977 265.848 346.796C260.386 350.61 254.299 353.437 247.862 355.149C242.361 356.751 236.74 357.906 231.054 358.604C202.237 362.694 155.287 360.654 121.779 359.749C121.591 359.749 121.398 359.733 121.21 359.716C99.5868 357.666 80.3698 346.956 70.7254 321.387C67.3289 311.99 66.5058 301.856 68.3412 292.035C68.7717 289.551 69.2767 287.007 69.8231 284.449C73.2393 268.444 61.7433 254.71 43.8067 250.088C40.9727 249.359 35.7601 247.991 34.6508 247.693C10.6516 241.285 -0.982344 221.044 0.0634979 195.756C0.303661 187.438 2.99124 179.375 7.79003 172.577C12.4959 166.023 18.7637 160.747 26.0247 157.229C57.9877 144.863 114.361 146.778 157.726 150.918Z" fill="#C0E2F7"/>
<path d="M357.744 401.633C356.854 401.825 355.998 402.151 355.205 402.598L343.936 408.945L342.782 409.597C344.167 410.896 345.374 412.375 346.37 413.992L352.887 425.56C353.094 425.436 353.208 425.372 353.208 425.372L367.72 417.193C368.328 416.851 368.864 416.391 369.295 415.841C369.726 415.292 370.045 414.662 370.233 413.989C370.421 413.316 370.474 412.613 370.39 411.919C370.306 411.226 370.086 410.556 369.742 409.947L367.535 406.031C366.586 404.349 365.124 403.015 363.362 402.224C361.6 401.432 359.632 401.225 357.744 401.633Z" fill="white"/>
<path d="M205.507 489.679C204.447 486.614 204.481 483.276 205.601 480.232C206.722 477.189 208.861 474.626 211.655 472.979L235.312 459.027L328.739 406.376C330.728 405.413 332.992 405.178 335.136 405.714C337.535 406.043 339.79 407.051 341.634 408.62C343.504 410.129 345.101 411.948 346.356 413.998L353.326 426.369L353.754 427.125C354.121 430.474 353.797 433.862 352.802 437.081C352.271 439.263 350.915 441.154 349.019 442.357L255.588 495.008L232.453 508.654C225.692 512.638 217.618 509.928 213.101 503.513C210.621 499.859 208.435 496.015 206.563 492.017C206.166 491.259 205.813 490.478 205.507 489.679Z" fill="#7A7473"/>
<path d="M258.541 445.404L278.82 481.384C279.713 482.887 281.164 483.976 282.857 484.414C284.55 484.851 286.347 484.602 287.856 483.72C289.365 482.837 290.465 481.394 290.914 479.705C291.364 478.015 291.127 476.217 290.256 474.701L269.979 438.717C269.54 437.966 268.957 437.309 268.264 436.783C267.571 436.257 266.781 435.873 265.94 435.653C265.098 435.432 264.222 435.379 263.36 435.497C262.498 435.616 261.668 435.902 260.917 436.341C260.166 436.78 259.509 437.363 258.983 438.056C258.457 438.749 258.073 439.539 257.852 440.38C257.631 441.222 257.579 442.099 257.697 442.96C257.815 443.822 258.102 444.653 258.541 445.404Z" fill="#211715"/>
<path d="M347.28 414.655L355.495 410.027C356.511 409.453 357.518 408.863 358.531 408.308C358.475 408.338 359.223 407.938 359.179 407.974L358.257 408.369C358.475 408.286 358.699 408.214 358.925 408.148C359.249 408.018 359.592 407.942 359.941 407.922C359.941 407.922 358.114 408.013 359.207 408.051C359.543 408.051 359.891 408.051 360.228 408.051C361.516 408.051 358.572 407.648 359.811 408.007C360.134 408.101 360.462 408.192 360.788 408.283C361.842 408.559 359.256 407.455 360.752 408.308C361.028 408.471 361.318 408.73 361.613 408.86C360.28 408.256 360.763 408.162 361.323 408.719C361.883 409.276 361.74 409.718 361.205 408.443C361.382 408.758 361.577 409.062 361.79 409.354C362.148 409.964 362.485 410.587 362.833 411.203C363.208 411.87 363.567 412.552 363.964 413.206C364.022 413.334 364.088 413.458 364.16 413.579L363.749 412.632C363.819 412.845 363.876 413.063 363.92 413.283L363.768 412.179C363.781 412.398 363.781 412.617 363.768 412.836C363.967 411.624 363.996 411.361 363.856 412.047C363.806 412.259 363.741 412.467 363.663 412.671L364.061 411.685C363.957 411.876 363.843 412.06 363.718 412.237L364.339 411.41C364.189 411.576 364.027 411.733 363.856 411.879C364.441 410.905 364.96 411.131 364.276 411.479C363.942 411.65 363.619 411.848 363.293 412.03L358.762 414.586L349.836 419.616C349.085 420.055 348.428 420.638 347.902 421.331C347.376 422.024 346.992 422.813 346.772 423.655C346.551 424.496 346.499 425.373 346.617 426.234C346.735 427.096 347.022 427.926 347.461 428.677C347.9 429.428 348.483 430.085 349.176 430.611C349.868 431.136 350.658 431.52 351.5 431.741C352.341 431.961 353.217 432.014 354.079 431.896C354.941 431.777 355.771 431.491 356.522 431.052L365.004 426.272C368.757 424.156 373.498 422.224 375.57 418.209C376.552 416.272 377.016 414.115 376.92 411.946C376.823 409.776 376.168 407.669 375.018 405.827C373.895 403.533 372.481 401.393 370.81 399.461C369.243 397.862 367.349 396.619 365.258 395.818C363.167 395.016 360.928 394.675 358.693 394.817C355.866 395.101 353.138 396.012 350.708 397.483L340.58 403.189C339.829 403.628 339.172 404.211 338.647 404.904C338.121 405.597 337.737 406.386 337.516 407.228C337.296 408.069 337.243 408.946 337.362 409.807C337.48 410.669 337.767 411.499 338.206 412.25C338.645 413.001 339.227 413.658 339.92 414.183C340.613 414.709 341.403 415.093 342.244 415.314C343.086 415.534 343.962 415.587 344.824 415.468C345.686 415.35 346.516 415.063 347.266 414.624L347.28 414.655Z" fill="#211715"/>
<path d="M211.895 487.919C209.734 480.913 215.642 478.316 220.612 475.385C226.241 472.074 231.872 468.753 237.505 465.424C242.773 462.319 248.152 459.391 253.477 456.392L324.653 416.28C326.951 414.622 329.428 413.227 332.037 412.119C335.489 411.189 338.988 414.715 340.635 417.337C343.301 421.573 345.578 426.104 348.034 430.464L347.131 427.122C347.407 429.768 347.755 434.788 345.522 436.722C344.871 437.174 344.179 437.565 343.456 437.889L333.047 443.753L297.764 463.638C281.343 472.893 264.758 481.909 248.521 491.487C242.437 495.074 236.366 498.686 230.27 502.249C229.198 503.06 227.932 503.578 226.598 503.75C225.264 503.922 223.909 503.743 222.665 503.231C220.299 501.979 218.373 500.033 217.146 497.654C215.132 494.557 213.373 491.301 211.887 487.919C211.371 486.256 210.242 484.852 208.728 483.993C207.214 483.134 205.429 482.884 203.738 483.294C202.05 483.77 200.618 484.892 199.752 486.417C198.886 487.942 198.656 489.747 199.113 491.44C204.058 503.306 212.248 518.604 227.436 517.02C234.396 516.292 240.588 511.54 246.477 508.069C252.912 504.274 259.338 500.494 265.845 496.826L339.728 455.191L350.696 449.01C357.786 445.014 360.581 437.666 360.551 429.63C360.531 424.161 357.209 419.774 354.609 415.16C352.08 409.699 348.117 405.026 343.144 401.638C340.176 399.881 336.789 398.959 333.341 398.967C329.892 398.976 326.51 399.916 323.551 401.688L253.831 440.986C246.559 445.083 239.247 449.115 232.014 453.282C227.638 455.804 223.311 458.415 218.959 460.981C213.087 464.444 205.989 467.562 201.911 473.211C200.076 475.831 198.87 478.838 198.386 481.999C197.903 485.161 198.154 488.391 199.121 491.44C201.624 499.561 214.411 496.098 211.895 487.919Z" fill="#0E2C43"/>
<path d="M319.489 468.663C315.677 462.012 314.211 454.272 315.328 446.687C315.95 440.736 318.437 435.134 322.434 430.682C326.435 426.421 334.134 426.645 338.684 429.705C343.927 433.229 344.159 438.063 345.923 444.548C349.208 456.829 353.426 468.84 358.539 480.479" fill="white"/>
<path d="M323.985 462.752C323.311 461.194 322.728 459.598 322.238 457.973C322.023 457.222 321.871 456.466 321.703 455.707C321.578 454.938 321.572 454.938 321.686 455.707C321.645 455.291 321.612 454.88 321.589 454.46C321.308 450.481 321.771 446.484 322.955 442.674C323.567 440.784 324.444 438.99 325.56 437.346C326.041 436.634 326.565 436.074 327.117 435.387C327.704 434.857 327.764 434.765 327.299 435.111C327.666 434.861 328.05 434.636 328.447 434.437C327.578 434.854 329.752 434.106 330.064 434.057C328.999 434.222 331.463 434.09 331.736 434.101C332.709 434.196 333.654 434.477 334.52 434.929C334.968 435.089 335.367 435.359 335.682 435.715C336.004 436.014 336.309 436.331 336.596 436.664C336.215 436.154 336.24 436.217 336.673 436.846C336.888 437.2 337.087 437.558 337.269 437.931C337.032 437.288 337.054 437.338 337.33 438.077C337.606 438.905 337.881 439.733 338.099 440.583C339.286 444.998 340.359 449.413 341.687 453.79C344.692 463.542 348.186 473.137 352.156 482.538C352.672 484.2 353.801 485.603 355.314 486.462C356.827 487.322 358.611 487.572 360.302 487.163C361.99 486.686 363.422 485.564 364.288 484.04C365.154 482.515 365.385 480.71 364.93 479.017C361.301 470.346 357.998 461.546 355.175 452.581C353.848 448.356 352.595 444.104 351.546 439.802C350.898 436.218 349.617 432.777 347.763 429.641C345.368 426.222 341.996 423.608 338.088 422.14C334.18 420.672 329.92 420.421 325.867 421.418C317 423.502 311.619 432.933 309.602 441.184C307.43 449.5 307.993 458.294 311.208 466.265C311.723 467.928 312.852 469.331 314.366 470.191C315.879 471.05 317.663 471.3 319.354 470.89C321.042 470.414 322.474 469.292 323.339 467.767C324.205 466.242 324.435 464.437 323.979 462.744L323.985 462.752Z" fill="#211715"/>
</svg>
