<svg width="130" height="131" viewBox="0 0 130 131" fill="none" xmlns="http://www.w3.org/2000/svg">
<path d="M60.0393 1.09357C59.7426 1.52515 59.6077 2.33436 59.6077 3.81791C59.6077 5.5712 59.5268 5.94883 59.1492 6.05673C58.8795 6.16462 57.8814 6.56923 56.9374 7.02778L55.1841 7.81001L53.5387 6.16462C52.4327 5.0587 51.7045 4.5462 51.2459 4.5462C50.7334 4.5462 49.7624 5.32844 47.5235 7.59422C43.8281 11.3166 43.7742 11.4784 46.04 13.7712L47.5505 15.3087L46.8492 16.8732C46.4716 17.7363 46.067 18.7613 45.986 19.1659C45.7972 19.9212 45.7702 19.9212 43.4235 19.9212C40.1327 19.9212 40.1867 19.8133 40.1867 25.235C40.1867 30.5488 40.1058 30.4409 43.4775 30.4409C45.7702 30.4409 45.7972 30.4409 45.986 31.1692C46.067 31.6008 46.4716 32.6258 46.8492 33.4889L47.5505 35.0534L46.04 36.5909C43.7742 38.8837 43.8281 39.0725 47.5505 42.7949C49.7624 45.0067 50.7604 45.8159 51.2459 45.8159C51.7045 45.8159 52.4327 45.2764 53.5926 44.1435C54.9143 42.8218 55.3459 42.5521 55.6426 42.7949C55.8314 42.9567 56.8025 43.3883 57.7466 43.7659L59.4729 44.4133L59.5538 46.706C59.6617 50.0238 59.6347 49.9968 65.0025 49.9968C70.3702 49.9968 70.3433 50.0238 70.4512 46.706L70.5321 44.4133L72.2584 43.7659C73.2025 43.3883 74.1735 42.9567 74.3624 42.7949C74.6591 42.5521 75.0906 42.8218 76.4124 44.1435C77.5722 45.3034 78.3005 45.8159 78.7591 45.8159C79.2716 45.8159 80.2426 45.0337 82.4814 42.7679C86.1768 39.0455 86.2308 38.8837 83.965 36.5909L82.4545 35.0534L83.1558 33.4889C83.5334 32.6258 83.938 31.6008 84.0189 31.1692C84.2078 30.4409 84.2347 30.4409 86.5814 30.4409C89.8722 30.4409 89.8183 30.5488 89.8183 25.1271C89.8183 19.8133 89.8992 19.9212 86.5275 19.9212C84.2347 19.9212 84.2078 19.9212 84.0189 19.1659C83.938 18.7613 83.5334 17.7363 83.1558 16.8732L82.4545 15.3087L83.965 13.7712C86.2308 11.4784 86.1768 11.2896 82.4545 7.56725C80.2426 5.35541 79.2446 4.5462 78.7591 4.5462C78.3005 4.5462 77.5722 5.0587 76.4663 6.16462L74.8209 7.81001L73.0676 7.02778C72.1235 6.56923 71.1255 6.16462 70.8828 6.05673C70.4781 5.94883 70.3972 5.5712 70.3972 3.65607C70.3972 0.446204 70.5051 0.500152 64.9216 0.500152C60.6058 0.500152 60.4439 0.527125 60.0393 1.09357ZM66.8906 5.78699C66.8906 6.89291 67.0255 8.05278 67.1604 8.32251C67.3222 8.6462 68.1584 9.0508 69.3992 9.42843C70.4512 9.72514 72.0966 10.3995 73.0137 10.912C73.9308 11.4245 74.9018 11.8291 75.2255 11.8291C75.5222 11.8291 76.4663 11.1547 77.3564 10.3455L78.9479 8.88896L80.1887 10.1567L81.4564 11.4515L79.9729 12.908C78.2196 14.6613 78.1387 15.1199 79.3525 17.3587C79.811 18.2218 80.4584 19.7863 80.7821 20.8383C81.4834 23.1311 81.888 23.4278 84.5045 23.4278H86.3117V25.1811V26.9343H84.5045C81.888 26.9343 81.4834 27.231 80.7821 29.5238C80.4584 30.5758 79.811 32.1403 79.3525 33.0034C78.1387 35.2153 78.2196 35.6738 79.9729 37.4541L81.4564 38.9646L80.1078 40.2863L78.786 41.608L77.1676 40.0705C76.2775 39.2343 75.3604 38.533 75.1176 38.533C74.8749 38.533 73.9308 38.9376 73.0137 39.4501C72.0966 39.9626 70.4512 40.637 69.3722 40.9606C68.2124 41.3113 67.3222 41.7429 67.1604 42.0396C66.9985 42.3093 66.8906 43.4692 66.8906 44.5751V46.6251H65.0025H63.1143V44.5751C63.1143 43.4692 63.0064 42.3093 62.8446 42.0396C62.6827 41.7429 61.7926 41.3113 60.6327 40.9606C59.5538 40.637 57.9084 39.9626 56.9913 39.4501C56.0742 38.9376 55.1301 38.533 54.8874 38.533C54.6446 38.533 53.7275 39.2343 52.8374 40.0705L51.2189 41.608L49.9781 40.3402L48.7104 39.0995L50.113 37.6159C51.8124 35.8356 51.8663 35.2422 50.6525 33.0034C50.1939 32.1403 49.5466 30.5758 49.2229 29.5238C48.5216 27.231 48.117 26.9343 45.5275 26.9343H43.6933V25.1811V23.4278H45.5275C48.117 23.4278 48.5216 23.1311 49.2229 20.8383C49.5466 19.7863 50.1939 18.2218 50.6525 17.3587C51.8663 15.1468 51.7854 14.6883 50.0321 12.908L48.5485 11.3975L49.8972 10.0758L51.2459 8.75409L52.8104 10.2916C53.6735 11.1278 54.5906 11.8291 54.8604 11.8291C55.1301 11.8291 56.0742 11.4245 56.9913 10.912C57.9084 10.3995 59.5538 9.72514 60.6058 9.42843C61.8466 9.0508 62.6827 8.6462 62.8446 8.32251C62.9795 8.05278 63.1143 6.89291 63.1143 5.78699V3.73699H65.0025H66.8906V5.78699Z" fill="#106194"/>
<path d="M61.1706 13.151C56.8548 14.5266 53.5371 18.1951 52.62 22.5648C51.4331 28.3102 54.2114 33.9477 59.5522 36.5641C61.6022 37.5891 61.6292 37.5891 65.0009 37.5891C68.3726 37.5891 68.3996 37.5891 70.4496 36.5911C79.4048 32.1404 80.1331 19.8944 71.7443 14.4727C68.966 12.6924 64.4344 12.126 61.1706 13.151ZM69.2627 17.224C72.3917 18.8694 74.0101 21.6207 74.0101 25.1812C74.0101 27.8246 73.2279 29.7937 71.4206 31.574C69.5055 33.5161 68.0219 34.0825 65.0009 34.0825C62.816 34.0825 62.2226 33.9746 61.0897 33.4352C59.2825 32.545 57.5562 30.7378 56.693 28.8766C55.7489 26.8266 55.695 23.6707 56.5581 21.7556C58.2844 17.9253 61.2785 16.0641 65.4055 16.226C67.2397 16.3069 67.8062 16.4418 69.2627 17.224Z" fill="#106194"/>
<path d="M15.3682 27.4741C14.9366 27.9056 14.8287 28.3642 14.8287 29.6859V31.3852L13.3452 31.9517L11.8886 32.5181L10.7557 31.3313C9.00239 29.578 8.51686 29.6859 5.63068 32.5181C3.49975 34.5951 3.23002 34.9727 3.23002 35.8089C3.23002 36.5642 3.47278 36.9958 4.30896 37.8589L5.41489 38.9648L4.82147 40.5023L4.22804 42.0398H2.6366C-0.0337991 42.0398 -0.00682536 41.9859 -0.00682536 46.4365C-0.00682536 49.08 0.101069 50.4017 0.316859 50.6175C0.505675 50.8063 1.39581 50.9411 2.44778 50.9411H4.22804L4.82147 52.4786L5.41489 54.0161L4.30896 55.1221C3.47278 55.9852 3.23002 56.4168 3.23002 57.1721C3.23002 58.0082 3.49975 58.3859 5.63068 60.4628C8.51686 63.2951 8.94844 63.403 10.7827 61.6227L11.9965 60.4359L13.4261 61.0832L14.8287 61.7306V63.349C14.8287 65.9115 15.0984 66.0464 19.5221 66.0464C23.8109 66.0464 23.9998 65.9385 23.9998 63.2951V61.7576L25.4294 61.1102L26.832 60.4628L28.0998 61.6227C30.0419 63.4299 30.4195 63.322 33.3866 60.274C34.978 58.6556 35.8682 57.5497 35.8682 57.1721C35.8682 56.8484 35.3287 56.0122 34.6813 55.3109L33.4675 54.0161L34.0609 52.4786L34.6544 50.9411H36.4616C38.9702 50.9411 39.105 50.6984 39.105 46.4905C39.105 42.2826 38.9702 42.0398 36.4616 42.0398H34.6544L34.0609 40.5023L33.4675 38.9648L34.6813 37.6701C35.3557 36.9418 35.8682 36.1326 35.8682 35.8089C35.8682 35.4043 35.032 34.3523 33.3596 32.68C30.3655 29.6859 29.9879 29.578 28.0998 31.3583L26.832 32.5181L25.4294 31.8708L23.9998 31.2234V29.605C23.9998 27.0964 23.73 26.9346 19.4142 26.9346C16.2583 26.9346 15.8537 26.9885 15.3682 27.4741ZM20.4932 31.8168C20.4932 33.624 20.8169 34.1365 22.1925 34.5142C22.8129 34.676 24.1886 35.2155 25.2405 35.728C27.3984 36.753 27.7221 36.726 29.1517 35.3773L30.0958 34.4872L30.7432 35.1615L31.3636 35.8089L30.3655 36.9148C29.8261 37.5083 29.3945 38.2365 29.3945 38.5333C29.3945 38.83 29.7452 39.801 30.2037 40.6642C30.6353 41.5273 31.1208 42.8221 31.3096 43.4964C31.7142 45.0879 32.3616 45.5464 34.1688 45.5464H35.5984V46.4905V47.4346H34.3307C32.3886 47.4346 31.7952 47.8661 31.2827 49.5925C31.0399 50.4017 30.5004 51.6964 30.1228 52.4786C29.1787 54.3398 29.2057 54.7714 30.3655 56.0661L31.3636 57.1721L30.7432 57.8194L30.0958 58.4938L29.1248 57.5497C27.884 56.3359 26.9669 56.2819 25.3215 57.226C24.6741 57.6036 23.4333 58.1161 22.5702 58.3589C20.7899 58.8714 20.4932 59.276 20.4932 61.1642V62.5398H19.4142H18.3353V60.9484C18.3353 60.0043 18.2004 59.249 18.0116 59.0872C17.8228 58.9253 16.9057 58.5477 15.9886 58.251C15.0984 57.9543 13.7767 57.3878 13.0754 57.0372C11.6188 56.2549 10.9175 56.3898 9.54186 57.7115L8.73265 58.4938L8.08528 57.8194L7.46489 57.1721L8.46291 56.0661C9.59581 54.7984 9.7037 53.9892 8.86752 52.6405C8.54383 52.128 8.00436 50.8872 7.68068 49.9161C6.97936 47.8392 6.46686 47.4346 4.52475 47.4346H3.23002V46.4905V45.5464H4.6866C6.49383 45.5464 7.06028 45.0879 7.68068 43.1188C7.92344 42.3096 8.40897 41.1227 8.7866 40.5023C9.67673 38.9379 9.62278 38.2096 8.46291 36.9148L7.46489 35.8089L8.08528 35.1615L8.73265 34.4872L9.67673 35.4043C11.1063 36.753 11.5649 36.8069 13.6688 35.755C14.6669 35.2425 15.8807 34.7569 16.3123 34.649C18.0116 34.2444 18.3353 33.8129 18.3353 32.0596V30.4412H19.4142H20.4932V31.8168Z" fill="#106194"/>
<path d="M17.0975 37.4271C15.6139 37.8047 13.456 39.1534 12.3771 40.3672C10.2462 42.7948 9.5988 46.7869 10.8396 50.0508C11.5139 51.9119 13.51 54.0159 15.506 54.9869C17.3942 55.904 21.3324 55.958 23.2475 55.0679C25.1626 54.2047 27.0508 52.2896 27.9409 50.3205C29.0199 47.9738 29.0199 45.0337 27.9949 42.7948C26.4034 39.3692 23.5712 37.4271 19.9837 37.2922C18.8508 37.2383 17.556 37.2922 17.0975 37.4271ZM21.71 41.2034C23.2745 41.9047 24.6771 43.5771 25.0817 45.2225C26.1337 49.6192 21.4672 53.6113 17.3133 51.858C12.5929 49.8889 12.5659 43.1725 17.2593 41.1225C18.5271 40.556 20.4153 40.61 21.71 41.2034Z" fill="#106194"/>
<path d="M44.7965 55.8232C42.9623 56.1738 40.4537 57.4686 39.0511 58.7903C38.3498 59.4376 34.1688 65.1291 29.7721 71.4409C25.3754 77.7528 21.734 82.9317 21.707 82.9856C21.68 83.0126 18.2004 83.7139 13.9925 84.5501C9.78461 85.3593 5.81948 86.2225 5.17211 86.4653C3.4458 87.1126 1.66553 88.8389 0.775401 90.7271L-0.00683594 92.3455V105.832C-0.00683594 118.888 0.0201378 119.346 0.532638 120.209C0.856322 120.722 1.55764 121.315 2.23198 121.612C3.25698 122.097 4.06619 122.151 10.6478 122.151H17.9307L18.7399 123.554C20.4932 126.548 23.784 129.084 27.2096 130.082C29.0438 130.621 33.0629 130.648 35.032 130.109C38.4846 129.192 41.6945 126.791 43.6096 123.743L44.5807 122.151H64.9998H85.4188L86.3899 123.743C88.305 126.791 91.5149 129.192 94.9675 130.109C96.8827 130.621 100.632 130.621 102.628 130.109C106.054 129.192 109.318 126.764 111.152 123.662L112.069 122.151H119.352C127.579 122.151 128.307 121.99 129.413 120.209C130.006 119.265 130.006 119.13 130.006 104.376C130.006 88.1106 130.033 88.5422 128.442 87.3824C127.929 87.0317 125.043 86.2495 119.729 85.0896C115.36 84.1185 111.556 83.2014 111.233 83.0666C110.909 82.9317 107.672 78.0764 103.545 71.5488C98.9057 64.185 95.9656 59.8423 95.1024 58.9791C93.5919 57.4686 91.1373 56.1738 89.0333 55.7962C87.2531 55.4725 46.5228 55.4725 44.7965 55.8232ZM90.1392 59.8962C91.0024 60.3008 92.1892 61.137 92.7827 61.7844C93.4031 62.4317 97.0985 68.0422 101.037 74.2732C104.975 80.5041 108.32 85.737 108.508 85.9258C108.697 86.0876 112.77 87.1396 117.598 88.2185L126.365 90.1876L126.446 91.7251L126.527 93.2896H123.748C118.947 93.2896 118.138 94.1527 118.138 99.3587C118.138 104.457 118.839 105.158 123.802 105.158H126.77V107.72V110.283H119.406H112.042L111.475 109.096C111.152 108.449 110.154 107.127 109.264 106.156C107.214 103.971 104.57 102.515 101.36 101.813L100.605 101.651V92.8041V83.9837L94.0774 74.1922C89.7346 67.6916 87.307 64.2929 86.9024 64.1311C86.5517 63.9962 77.5695 63.8883 66.9419 63.8883C49.355 63.8883 47.5208 63.9423 46.9544 64.3469C46.6037 64.5896 44.5537 67.4219 42.4228 70.6857C38.5925 76.485 38.5116 76.5659 37.5945 76.5659C36.4076 76.5659 35.3287 77.1324 34.4386 78.1574C33.6024 79.1554 33.2787 81.556 33.5754 84.3074C33.7373 85.9258 33.8721 86.2495 34.7623 87.1396C35.4905 87.8409 36.1109 88.1916 36.8932 88.3264L38.0261 88.5152V95.906V103.297L37.2169 102.865C35.9491 102.218 33.1978 101.651 31.1478 101.651C27.2096 101.651 23.8109 103.108 20.8978 106.075C19.8728 107.127 18.7669 108.503 18.4971 109.123L17.9846 110.283H10.5938H3.23001V107.72V105.158H6.19711C11.1603 105.158 11.8616 104.457 11.8616 99.3587C11.8616 94.1797 11.0524 93.2896 6.30501 93.2896C3.74251 93.2896 3.55369 93.2626 3.68856 92.7771C3.87738 92.0218 5.33395 90.3495 6.22409 89.9179C6.62869 89.7021 10.7287 88.785 15.2872 87.8679C21.1945 86.735 23.73 86.1146 24.0267 85.7909C24.2695 85.5481 27.884 80.4232 32.0919 74.408C40.7504 62.0001 41.209 61.4067 42.6655 60.4626C44.7695 59.06 44.6616 59.06 67.4274 59.114L88.6017 59.1679L90.1392 59.8962ZM71.7432 76.1613V84.9278H58.8228H45.9024L45.7945 82.0146C45.7136 78.8317 45.309 77.8876 43.7715 77.1054C43.3669 76.8896 42.9623 76.6738 42.9083 76.6468C42.8544 76.5929 44.1761 74.5159 45.8484 71.9804L48.8965 67.3949H60.3063H71.7432V76.1613ZM90.8406 75.8107C93.9425 80.4501 96.559 84.4153 96.6669 84.5771C96.8287 84.8468 94.6169 84.9278 86.0662 84.9278H75.2498V76.1613V67.3949H80.2399H85.23L90.8406 75.8107ZM42.2879 82.5541L42.3688 84.9278H39.9682C38.4846 84.9278 37.4866 84.8199 37.2708 84.6041C36.9201 84.2534 36.8123 81.2593 37.109 80.4771C37.2438 80.1264 37.6754 80.0725 39.7524 80.1264L42.207 80.2074L42.2879 82.5541ZM71.7432 99.3587V110.283H58.1215H44.4998L43.9333 109.123C43.6096 108.503 42.9353 107.478 42.4498 106.857L41.5326 105.751V97.0929V88.4343H56.6379H71.7432V99.3587ZM97.0985 95.0429V101.651L96.3702 101.813C94.1044 102.326 93.2952 102.595 91.8386 103.351C89.8695 104.403 86.9294 107.262 86.0932 109.015L85.4728 110.283H80.3478H75.2498V99.3587V88.4343H86.1741H97.0985V95.0429ZM8.35501 99.2238V101.651H5.79251H3.23001V99.2238V96.7962H5.79251H8.35501V99.2238ZM126.77 99.2238V101.651H124.207H121.645V99.2238V96.7962H124.207H126.77V99.2238ZM35.9491 106.318C41.4248 109.015 43.6636 115.219 41.155 120.695C40.2109 122.745 38.053 124.957 35.8951 126.009C34.2498 126.818 33.953 126.872 31.2826 126.872C28.6662 126.872 28.3155 126.818 26.6432 126.009C19.8728 122.799 18.1734 114.032 23.2715 108.692C25.7261 106.156 28.2886 105.104 31.7412 105.239C33.6294 105.32 34.2228 105.455 35.9491 106.318ZM102.844 105.967C104.921 106.749 107.51 109.177 108.535 111.227C111.287 116.838 108.994 123.338 103.356 126.009C101.684 126.818 101.333 126.872 98.7169 126.872C96.2083 126.872 95.7228 126.791 94.3202 126.144C89.7077 123.986 87.0373 118.861 88.0623 114.032C88.8984 109.986 91.4879 107.1 95.6149 105.617C97.4221 104.969 100.686 105.131 102.844 105.967ZM16.8517 116.217V118.645H10.3241C2.74448 118.645 3.23001 118.834 3.23001 115.705V113.79H10.0544H16.8517V116.217ZM84.3129 116.217L84.3399 118.645H64.9998H45.6596L45.6866 116.217V113.79H64.9998H84.3129V116.217ZM126.77 115.705C126.77 118.834 127.255 118.645 119.675 118.645H113.148V116.217V113.79H119.972H126.77V115.705Z" fill="#106194"/>
<path d="M58.7986 93.8293C58.1512 94.4767 58.0972 95.3668 58.6907 96.203C59.0683 96.7694 59.2841 96.7964 62.8716 96.7964C66.2703 96.7964 66.6749 96.7424 67.1604 96.2569C67.8617 95.5556 67.8348 94.8813 67.1334 93.9911C66.594 93.2898 66.54 93.2898 62.9525 93.2898C59.6887 93.2898 59.2841 93.3438 58.7986 93.8293Z" fill="#106194"/>
<path d="M28.7175 110.741C26.5326 111.874 25.3728 113.816 25.3458 116.244C25.3188 121.531 31.9274 124.066 35.5418 120.155C36.6208 118.968 37.2142 117.566 37.2142 116.109C37.2142 113.951 35.7576 111.659 33.8695 110.795C32.4938 110.175 29.8504 110.148 28.7175 110.741ZM32.9254 114.572C33.7886 115.462 33.8964 116.136 33.303 117.269C32.7635 118.348 31.5228 118.807 30.4708 118.375C28.7445 117.674 28.3129 115.759 29.5537 114.491C30.5517 113.493 31.8734 113.547 32.9254 114.572Z" fill="#106194"/>
<path d="M96.1279 110.795C94.2398 111.659 92.7832 113.951 92.7832 116.109C92.7832 118.645 94.5904 121.072 97.0181 121.774C98.9602 122.34 100.498 122.097 102.143 120.992C105.838 118.483 105.434 112.899 101.361 110.795C100.039 110.121 97.6115 110.121 96.1279 110.795ZM100.444 114.491C101.685 115.759 101.253 117.674 99.5266 118.375C98.4747 118.807 97.2339 118.348 96.6944 117.269C96.101 116.136 96.2089 115.462 97.072 114.572C98.124 113.547 99.4457 113.493 100.444 114.491Z" fill="#106194"/>
</svg>
