<svg width="132" height="131" viewBox="0 0 132 131" fill="none" xmlns="http://www.w3.org/2000/svg">
<path d="M92.4243 0.794348C86.5805 2.01391 81.1687 5.3169 77.5355 9.89026C74.8677 13.2695 72.708 18.0461 72.2253 21.6286C71.895 24.1439 71.8696 24.2455 70.6754 24.9315C69.0239 25.897 68.033 27.7264 68.033 29.8352C68.033 30.6991 68.1855 31.7916 68.3887 32.2743C68.8715 33.4177 70.1673 34.8405 71.0819 35.2216L71.8442 35.5265V44.038C71.8442 48.713 71.7679 52.4988 71.6663 52.4479C71.5393 52.3971 70.7008 51.9652 69.7607 51.4825L68.033 50.6186V47.0107C68.033 43.7586 67.9822 43.352 67.4995 42.7422C66.9913 42.0817 66.9405 42.0817 63.5613 42.0817H60.1567L60.1313 38.4484C60.1313 34.2307 59.6993 32.2489 58.3781 30.0385C57.2856 28.2345 55.0498 26.1003 53.3983 25.3127C50.7813 24.0677 50.4764 24.0423 40.542 24.0423C31.5223 24.0423 31.1666 24.0677 30.6839 24.5504C29.8454 25.3889 30.0995 27.269 31.1158 27.7518C31.3699 27.8788 35.74 28.0313 40.8469 28.1075C49.9428 28.2345 50.1461 28.2345 51.2132 28.8189C52.9155 29.7336 54.4908 31.3088 55.253 32.9095C55.8882 34.2307 55.939 34.6118 56.0406 38.1943L56.1423 42.0817H54.2367H52.3311L52.2295 38.8295C52.1279 35.2978 51.9246 34.6626 50.4764 33.2398C49.9936 32.7825 49.2314 32.2997 48.7233 32.1473C48.1389 31.9948 42.2951 31.9186 31.9289 31.9694L16.0237 32.0457L14.982 32.7825C14.3214 33.2398 13.6862 33.9766 13.2797 34.7897C12.7207 35.9584 12.6445 36.3904 12.6445 39.0836V42.0817H10.7135H8.78256L8.85879 38.1943C8.96042 34.5864 9.01123 34.2307 9.67183 32.9095C10.4595 31.3088 12.0347 29.7082 13.7116 28.8189C14.7025 28.3107 15.2615 28.2345 19.7586 28.0821C22.4772 28.0059 24.7385 27.9042 24.7639 27.8788C25.9327 27.0658 26.1867 25.4651 25.2721 24.6012C24.7131 24.0677 24.459 24.0423 19.8349 24.0423C16.5065 24.0423 14.6771 24.1439 13.8895 24.398C11.679 25.0586 10.2054 25.9478 8.5539 27.5993C5.60662 30.5212 4.76817 32.9349 4.76817 38.7024V42.3357L3.77727 42.8439C1.94793 43.7586 0.957031 45.5625 0.957031 47.9762C0.957031 48.7893 1.10948 49.831 1.31274 50.3137C1.79548 51.457 3.09127 52.8799 4.00594 53.261L4.76817 53.5659V74.4763V95.3867L4.00594 95.6916C2.98964 96.1236 1.59222 97.6988 1.21111 98.8676C1.03325 99.4011 0.957031 100.57 1.00785 101.535C1.08407 102.984 1.23651 103.492 1.8717 104.381C2.27822 104.991 3.11667 105.728 3.70105 106.058L4.76817 106.642V112.562V118.482L3.34534 118.635C0.957031 118.889 0.957031 118.863 0.957031 124.656C0.957031 129.179 1.00785 129.687 1.41437 130.068C1.8463 130.475 6.69914 130.5 66.0512 130.5C128.147 130.5 130.205 130.475 130.637 130.017C131.018 129.585 131.044 127.731 130.993 105.829L130.917 82.0986L130.358 80.879C130.053 80.2184 129.214 79.0751 128.528 78.3383L127.233 76.9662V56.2591V35.5265L127.969 35.247C128.935 34.8405 130.18 33.5193 130.637 32.376C130.866 31.8424 131.044 30.6991 131.044 29.8352C131.044 27.7264 130.053 25.897 128.401 24.9315C127.207 24.2455 127.182 24.1439 126.852 21.6286C126.318 17.665 123.549 11.872 120.805 8.95018C119.737 7.83225 118.645 7.70521 117.705 8.6707C116.689 9.66159 116.866 10.5763 118.467 12.6597C120.805 15.734 122.329 19.1894 122.863 22.594L123.091 24.0423H99.5384H75.9856L76.2143 22.594C77.3576 15.2258 82.5916 8.74692 89.6803 5.92668C92.7546 4.68171 94.4569 4.42763 99.5384 4.42763C104.798 4.42763 106.271 4.6563 109.981 6.12994C112.522 7.14624 113.081 7.19706 113.767 6.51105C114.427 5.85045 114.605 4.9866 114.3 4.12274C113.97 3.3097 112.014 2.3188 108.507 1.25168C106.398 0.616495 105.967 0.56568 100.174 0.514865C95.7781 0.46405 93.6184 0.540273 92.4243 0.794348ZM126.47 28.6156C127.156 29.3016 127.131 30.6737 126.445 31.3088C125.937 31.7662 125.124 31.7916 99.5384 31.7916C73.953 31.7916 73.1399 31.7662 72.6318 31.3088C71.9458 30.6737 71.9204 29.3016 72.6064 28.6156C73.1145 28.1075 73.4448 28.1075 99.5384 28.1075C125.632 28.1075 125.962 28.1075 126.47 28.6156ZM47.5545 36.2633C48.1897 36.7715 48.2151 36.8731 48.2151 39.4393V42.0817H44.7851C40.1609 42.0817 40.3388 41.8784 40.3388 46.8583V50.644L39.0176 51.2538C35.4351 52.8799 30.6331 56.7926 27.8382 60.3243C21.7404 67.9974 19.3013 78.3128 21.2831 88.0694C22.2232 92.6935 24.332 97.4193 27.0252 101.027L28.3972 102.831V110.708V118.558H22.5535H16.7097V112.588V106.642L17.599 106.21C18.6407 105.728 19.6824 104.559 20.216 103.314C20.7749 101.993 20.6987 99.5536 20.0635 98.334C19.5046 97.2161 18.0817 95.8441 17.2433 95.5646C16.7097 95.4121 16.7097 95.4121 16.7097 74.4763C16.7097 53.5405 16.7097 53.5405 17.2433 53.388C18.6661 52.9307 20.2668 50.7964 20.6225 48.9163C21.029 46.6804 19.6316 43.784 17.6752 42.7677L16.7097 42.2849V39.5409C16.7097 35.3232 15.0836 35.7298 32.4624 35.7298C46.6653 35.7298 46.8939 35.7298 47.5545 36.2633ZM123.167 55.6747V75.3656L115.24 75.3402H107.288L106.525 74.146C104.417 70.8684 100.021 70.3603 97.3025 73.0789C96.8706 73.4854 96.3879 74.1714 96.1846 74.6033L95.8543 75.3656L91.5604 75.3148L87.292 75.2385L86.7076 72.901C85.2085 67.0065 81.8801 61.239 77.5863 57.1229L75.9094 55.4968V45.7403V35.9838H99.5384H123.167V55.6747ZM15.5664 46.2993C15.7696 46.4009 16.1508 46.8075 16.354 47.214C16.6589 47.8238 16.6843 48.0524 16.4048 48.6114C15.8205 49.831 15.2107 49.9834 10.4595 49.9072C6.5721 49.831 6.03855 49.7801 5.5558 49.3482C4.8698 48.713 4.84439 47.341 5.53039 46.655C6.01314 46.1723 6.36884 46.1469 10.5865 46.1469C13.1019 46.1469 15.3377 46.2231 15.5664 46.2993ZM63.9678 48.0524V49.958H54.1859H44.404V48.0524V46.1469H54.1859H63.9678V48.0524ZM12.6445 74.4763V94.9294H10.7389H8.83338V74.4763V54.0232H10.7389H12.6445V74.4763ZM67.6265 55.0141C73.3432 57.9614 77.7895 62.5093 80.6606 68.3785L82.0326 71.1733L68.1855 71.2495C60.5886 71.275 48.0627 71.275 40.3642 71.2495L26.39 71.1733L27.2031 69.2423C29.7438 63.4494 34.7237 58.1901 40.7199 54.9887L42.4984 54.0486L54.1097 54.0232H65.7209L67.6265 55.0141ZM83.3538 76.6359C83.6587 78.1096 83.6587 84.309 83.3538 85.7827L83.1251 86.926L77.1797 87.0531C73.9022 87.1293 71.0311 87.2817 70.777 87.3834C69.7861 87.8915 69.6083 89.9241 70.4976 90.6609C70.8024 90.8896 72.4539 91.0166 76.4429 91.1183L81.9818 91.2453L81.1179 93.2017C79.2632 97.4956 75.6807 101.967 71.7425 104.889C69.1001 106.846 64.7554 108.954 61.5541 109.844C59.2166 110.479 58.6322 110.53 54.1859 110.53C49.6888 110.53 49.1806 110.479 46.8177 109.844C43.5655 108.954 39.1954 106.82 36.6039 104.864C32.6403 101.866 29.0578 97.4447 27.2031 93.1763L26.39 91.2453L45.6235 91.1183C56.1931 91.042 64.8825 90.9658 64.9333 90.915C64.9841 90.8896 65.1874 90.4577 65.3652 89.9749C65.7972 88.9586 65.5685 88.0694 64.6792 87.4596C64.1711 87.1039 62.0876 87.0531 44.6072 87.0531H25.1196L24.9418 85.5794C24.6623 83.6484 24.6623 79.2021 24.9164 77.0679L25.145 75.3656L54.1351 75.4164L83.1251 75.4926L83.3538 76.6359ZM102.714 76.0008C103.35 76.6105 103.35 76.6614 103.35 81.2347C103.35 85.6556 103.324 85.9097 102.791 86.4687C102.13 87.1801 101.088 87.2309 100.275 86.5703C99.6909 86.0876 99.6654 85.9605 99.5892 81.7175C99.4876 77.0425 99.6654 76.1532 100.631 75.6705C101.52 75.2385 102.054 75.3148 102.714 76.0008ZM95.4732 81.3363V83.2419H91.6112H87.7239V81.3363V79.4308H91.6112H95.4732V81.3363ZM123.752 79.8373C124.895 80.4217 125.911 81.4126 126.547 82.6067C127.106 83.623 127.106 83.7501 127.182 101.078L127.258 118.558H125.2H123.167V102.323V86.113L122.583 85.2491C122.278 84.7918 121.618 84.1312 121.16 83.8263C120.322 83.2673 120.144 83.2419 113.868 83.2419H107.415V81.3363V79.4308H115.164C121.821 79.4308 123.066 79.4816 123.752 79.8373ZM96.6165 88.5267C97.9885 90.6609 100.733 91.601 103.426 90.8388C104.518 90.5339 106.246 89.1111 106.805 88.0185L107.186 87.3071H113.131H119.102V102.933V118.558H99.5384H79.9746V110.708V102.831L81.2195 101.18C83.7095 97.9021 85.8691 93.2779 86.7584 89.3651L87.2157 87.3071L91.535 87.3325H95.8543L96.6165 88.5267ZM15.6426 99.4011C16.5319 100.011 16.7859 100.9 16.3286 101.764C16.1254 102.171 15.7696 102.552 15.5664 102.653C15.3377 102.73 13.1019 102.806 10.5865 102.806C6.36884 102.806 6.01314 102.78 5.53039 102.298C4.76817 101.535 4.84439 100.189 5.68284 99.5282C6.31803 99.0454 6.69914 98.9946 10.7135 98.9946C14.296 98.9946 15.1853 99.0708 15.6426 99.4011ZM12.6445 112.715V118.558H10.7389H8.83338V112.715V106.871H10.7389H12.6445V112.715ZM33.2246 107.481C33.3771 107.684 34.5712 108.548 35.867 109.386L38.2299 110.911L37.4677 114.747L36.7055 118.558H34.5967H32.4624V112.842C32.4624 109.691 32.5641 107.125 32.6911 107.125C32.8181 107.125 33.0468 107.303 33.2246 107.481ZM75.9094 112.842V118.558H73.7751H71.6155L71.3614 117.212C71.209 116.5 70.8533 114.798 70.5992 113.477C70.3197 112.156 70.1673 110.987 70.2181 110.885C70.2689 110.784 70.9295 110.377 71.6663 109.945C72.3777 109.513 73.5719 108.726 74.2579 108.167C74.9693 107.608 75.6045 107.15 75.7315 107.15C75.8331 107.125 75.9094 109.691 75.9094 112.842ZM45.9284 113.782C48.3676 114.417 49.5109 114.569 52.9409 114.671C57.4635 114.824 60.487 114.468 64.1203 113.35C65.2128 113.02 66.1529 112.791 66.2037 112.842C66.2799 112.893 66.5848 114.214 66.8897 115.764L67.4486 118.558H54.1351C41.5583 118.558 40.8215 118.533 40.9485 118.101C40.9994 117.872 41.2534 116.704 41.4821 115.51C42.0157 112.664 42.0411 112.638 42.5746 112.842C42.8033 112.943 44.3278 113.35 45.9284 113.782ZM127.233 124.656V126.689H66.0004H4.76817V124.656V122.624H66.0004H127.233V124.656Z" fill="#106194"/>
<path d="M98.3188 39.9728C97.5819 40.5826 92.9324 48.7893 92.5004 50.1867C91.4587 53.6675 93.161 57.5549 96.4386 59.1302C98.1155 59.9686 100.961 59.9686 102.613 59.1556C106.043 57.4787 107.796 53.261 106.475 49.831C105.789 48.1033 101.418 40.5318 100.758 39.9728C100.478 39.7442 99.9194 39.5409 99.5383 39.5409C99.1572 39.5409 98.5982 39.7442 98.3188 39.9728ZM101.164 48.5098C102.486 50.7457 102.689 51.2792 102.689 52.4226C102.714 53.8454 102.155 54.7092 100.707 55.4715C98.7507 56.4878 95.9813 54.3281 96.3116 52.016C96.4132 51.203 99.2334 45.8928 99.5383 45.8928C99.6146 45.8928 100.351 47.0616 101.164 48.5098Z" fill="#106194"/>
</svg>
