<svg width="150" height="131" viewBox="0 0 150 131" fill="none" xmlns="http://www.w3.org/2000/svg">
<path d="M6.4873 0.679282C4.8953 0.997683 3.85326 1.57659 2.72438 2.76336C0.756089 4.81849 0.900816 -0.594321 0.900816 67.5435C0.900816 128.821 0.900816 129.197 1.47973 129.776C2.02969 130.326 2.49282 130.355 11.8422 130.413C37.6906 130.529 117.493 130.529 131.85 130.413C147.076 130.268 148.06 130.239 148.581 129.718C149.073 129.226 149.102 127.055 149.102 67.4566C149.102 7.94461 149.073 5.7158 148.552 4.58693C147.886 3.13965 146.439 1.75027 144.905 1.05557C143.805 0.5635 140.563 0.534554 75.725 0.505609C38.3274 0.476663 7.15305 0.5635 6.4873 0.679282ZM8.42666 5.88948C7.70302 6.61312 7.64513 8.37879 8.33982 9.13138C8.774 9.62345 8.74506 9.6524 7.182 9.6524C5.56105 9.6524 5.5321 9.62345 5.5321 8.81298C5.5321 6.78679 6.71887 5.36846 8.51349 5.31057C8.94767 5.31057 8.94767 5.36846 8.42666 5.88948ZM15.3736 5.88948C14.6499 6.61312 14.5921 8.37879 15.2867 9.13138C15.7209 9.62345 15.663 9.6524 13.8395 9.6524H11.958L12.3922 8.78403C12.8843 7.79988 12.7106 6.64206 11.987 5.80264C11.5528 5.33951 11.6396 5.31057 13.7237 5.31057H15.9525L15.3736 5.88948ZM22.3205 5.94737C21.5969 6.7289 21.539 8.37879 22.2337 9.13138C22.6679 9.62345 22.61 9.6524 20.7864 9.6524H18.9049L19.3391 8.78403C19.8312 7.79988 19.6575 6.64206 18.9339 5.80264C18.4997 5.33951 18.5865 5.31057 20.6996 5.31057H22.9284L22.3205 5.94737ZM142.734 5.62897C143.776 6.00526 144.471 7.27886 144.471 8.78403V9.6524H85.1613H25.8519L26.286 8.78403C26.7781 7.79988 26.6044 6.64206 25.8808 5.80264C25.4466 5.33951 28.1965 5.31057 83.5982 5.31057C126.264 5.31057 142.039 5.3974 142.734 5.62897ZM144.471 70.1486V125.724H142.155H139.839V113.567C139.839 101.786 139.81 101.381 139.26 100.831C138.682 100.252 138.305 100.252 119.114 100.252C106.494 100.252 99.3735 100.368 99.0262 100.541C98.0131 101.091 97.8684 102.654 97.8684 114.348V125.724H96.8553H95.8422V113.567C95.8422 101.786 95.8132 101.381 95.2633 100.831C94.6843 100.252 94.3081 100.252 75.0014 100.252C55.6947 100.252 55.3184 100.252 54.7395 100.831C54.1895 101.381 54.1606 101.786 54.1606 113.567V125.724H53.1475H52.1344V114.348C52.1344 102.654 51.9897 101.091 50.9766 100.541C50.6292 100.368 43.5086 100.252 30.8884 100.252C11.6975 100.252 11.3212 100.252 10.7423 100.831C10.1923 101.381 10.1634 101.786 10.1634 113.567V125.724H7.84774H5.5321V70.1486V14.5731H75.0014H144.471V70.1486ZM47.2137 115.448V125.724H45.0428H42.8718V121.295C42.8718 116.577 42.5824 114.898 41.714 114.435C41.4246 114.291 40.4404 114.146 39.572 114.146H37.9511V113.191C37.9222 111.135 36.0407 108.559 33.8408 107.662C32.3357 107.025 29.4122 107.083 27.9649 107.749C25.8229 108.762 24.0572 111.222 24.0572 113.277V114.146H22.3205C19.4838 114.146 19.426 114.262 19.426 120.514V125.724H17.255H15.0841V115.448V105.173H31.1489H47.2137V115.448ZM91.2109 115.448V125.724H89.04H86.8691V121.295C86.8691 116.577 86.5796 114.898 85.7112 114.435C85.4218 114.291 84.4376 114.146 83.5693 114.146H81.9483V113.191C81.9194 111.135 80.0379 108.559 77.838 107.662C76.3329 107.025 73.4094 107.083 71.9621 107.749C69.8201 108.762 68.0545 111.222 68.0545 113.277C68.0545 114.146 68.0545 114.146 66.4335 114.146C65.5651 114.146 64.581 114.291 64.2915 114.435C63.4232 114.898 63.1337 116.577 63.1337 121.295V125.724H60.9628H58.7919V115.448V105.173H75.0014H91.2109V115.448ZM134.919 115.448V125.724H132.748H130.577V120.514C130.577 114.262 130.519 114.146 127.682 114.146H125.946V113.191C125.917 111.135 124.035 108.559 121.835 107.662C120.33 107.025 117.407 107.083 115.959 107.749C113.817 108.762 112.052 111.222 112.052 113.277C112.052 114.146 112.052 114.146 110.431 114.146C109.562 114.146 108.578 114.291 108.289 114.435C107.42 114.898 107.131 116.577 107.131 121.295V125.724H104.96H102.789V115.448V105.173H118.854H134.919V115.448ZM32.4514 112.698C33.5514 113.798 33.233 114.146 31.0042 114.146C29.3832 114.146 28.978 114.059 28.978 113.712C28.978 112.988 30.0779 112.12 31.0042 112.12C31.4962 112.12 32.133 112.38 32.4514 112.698ZM76.4487 112.698C77.5486 113.798 77.2302 114.146 75.0014 114.146C73.3804 114.146 72.9752 114.059 72.9752 113.712C72.9752 112.988 74.0751 112.12 75.0014 112.12C75.4935 112.12 76.1303 112.38 76.4487 112.698ZM120.446 112.698C121.546 113.798 121.227 114.146 118.999 114.146C117.378 114.146 116.972 114.059 116.972 113.712C116.972 112.988 118.072 112.12 118.999 112.12C119.491 112.12 120.127 112.38 120.446 112.698ZM37.9511 122.395V125.724H31.0042H24.0572V122.395V119.067H31.0042H37.9511V122.395ZM81.9483 122.395V125.724H75.0014H68.0545V122.395V119.067H75.0014H81.9483V122.395ZM125.946 122.395V125.724H118.999H112.052V122.395V119.067H118.999H125.946V122.395Z" fill="#106194"/>
<path d="M11.4367 19.3203C10.9446 19.5519 10.4525 19.9282 10.3368 20.2176C10.2499 20.4781 10.1631 37.2955 10.1631 57.5863C10.1631 94.0866 10.1631 94.4629 10.742 95.0418C11.3209 95.6207 11.6972 95.6207 53.0025 95.6207C94.3078 95.6207 94.684 95.6207 95.263 95.0418C95.8419 94.4629 95.8419 94.0866 95.8419 57.5284C95.8419 33.9957 95.7261 20.4202 95.5524 20.0729C95.4077 19.7834 94.8577 19.4071 94.3656 19.2335C93.6999 19.0019 81.7743 18.9151 52.8867 18.9151C19.5125 18.944 12.1893 19.0019 11.4367 19.3203ZM91.2106 57.2679V90.7H53.1472H15.0838V57.2679V23.8358H53.1472H91.2106V57.2679Z" fill="#106194"/>
<path d="M45.0431 28.467C41.8881 28.988 39.3119 30.3195 37.1699 32.6062C34.7964 35.1244 33.3202 38.3084 33.3202 40.9714V42.0714H29.8757C26.2575 42.0714 24.8102 42.3898 24.3471 43.2292C24.1734 43.5765 24.0576 51.5366 24.0576 64.4752C24.0576 84.8239 24.0576 85.2002 24.6365 85.7791C25.2154 86.358 25.5917 86.358 53.0032 86.358C80.4146 86.358 80.7909 86.358 81.3698 85.7791C81.9487 85.2002 81.9487 84.8239 81.9487 64.4752C81.9487 51.5366 81.8329 43.5765 81.6592 43.2292C81.1961 42.3898 79.7488 42.0714 76.1306 42.0714H72.6861V40.9425C72.6861 40.3057 72.4256 39.0031 72.1361 38.0479C70.602 33.0693 66.0576 29.2195 60.9053 28.467C58.7054 28.1775 57.0555 28.2933 54.682 28.959C53.1479 29.3932 52.8584 29.3932 51.3533 28.959C49.2113 28.3512 46.8667 28.1775 45.0431 28.467ZM47.793 33.3009C47.793 33.3877 47.4167 34.0824 46.9535 34.806C45.8825 36.4849 44.8984 39.4084 44.8984 40.9135V42.0714H41.5697H38.2409V41.1162C38.2409 39.9873 39.3119 37.6427 40.4118 36.3402C41.396 35.1823 43.4222 33.9666 45.1589 33.5035C46.6641 33.0983 47.793 33.0114 47.793 33.3009ZM62.4104 34.0824C63.2209 34.4587 64.3498 35.1534 64.9287 35.6744C66.2313 36.8033 67.7654 39.7847 67.7654 41.1162V42.0714H64.4366H61.1079V40.9425C61.1079 39.3505 60.1238 36.3691 59.0817 34.835C58.6186 34.1113 58.2133 33.4167 58.2133 33.2719C58.2133 32.8667 60.8474 33.3877 62.4104 34.0824ZM54.1031 36.4849C55.3188 38.0479 55.8688 39.2636 56.1003 40.7688L56.274 42.0714H53.0032H49.7323L49.906 40.7688C50.0218 40.0452 50.3112 39.0321 50.5717 38.5111C51.1796 37.3532 52.6847 35.4139 53.0032 35.4139C53.1479 35.4139 53.64 35.906 54.1031 36.4849ZM65.4497 64.2147V81.4373H47.0693H28.6889V64.2147V46.9921H47.0693H65.4497V64.2147ZM77.0279 64.2147V81.4373H73.6992H70.3705V64.2147V46.9921H73.6992H77.0279V64.2147Z" fill="#106194"/>
<path d="M98.7371 33.6771C98.3608 34.0534 98.1582 34.6323 98.1582 35.4138C98.1582 36.1954 98.3608 36.7743 98.7371 37.1506C99.316 37.7295 99.6923 37.7295 118.999 37.7295C138.306 37.7295 138.682 37.7295 139.261 37.1506C139.637 36.7743 139.84 36.1954 139.84 35.4138C139.84 34.6323 139.637 34.0534 139.261 33.6771C138.682 33.0982 138.306 33.0982 118.999 33.0982C99.6923 33.0982 99.316 33.0982 98.7371 33.6771Z" fill="#106194"/>
<path d="M98.7371 40.6241C98.3608 41.0004 98.1582 41.5793 98.1582 42.3609C98.1582 43.1424 98.3608 43.7213 98.7371 44.0976C99.316 44.6765 99.6923 44.6765 118.999 44.6765C138.306 44.6765 138.682 44.6765 139.261 44.0976C139.637 43.7213 139.84 43.1424 139.84 42.3609C139.84 41.5793 139.637 41.0004 139.261 40.6241C138.682 40.0452 138.306 40.0452 118.999 40.0452C99.6923 40.0452 99.316 40.0452 98.7371 40.6241Z" fill="#106194"/>
<path d="M98.7371 47.571C98.3608 47.9473 98.1582 48.5262 98.1582 49.3078C98.1582 50.0893 98.3608 50.6682 98.7371 51.0445C99.2871 51.5945 99.6923 51.6234 109.736 51.6234C119.781 51.6234 120.186 51.5945 120.736 51.0445C121.112 50.6682 121.315 50.0893 121.315 49.3078C121.315 48.5262 121.112 47.9473 120.736 47.571C120.186 47.0211 119.781 46.9921 109.736 46.9921C99.6923 46.9921 99.2871 47.0211 98.7371 47.571Z" fill="#106194"/>
<path d="M124.209 56.8338C123.515 57.5285 123.457 59.1205 124.065 60.3362C124.47 61.1177 124.47 61.2335 124.065 61.6387C123.428 62.3045 123.515 64.2438 124.209 64.9385C125.078 65.8069 129.014 65.7779 129.94 64.9385C130.693 64.2149 130.78 62.7097 130.114 61.4361C129.709 60.6256 129.709 60.5098 130.114 60.0467C130.78 59.3231 130.693 57.5285 129.998 56.8338C129.506 56.3417 129.043 56.2549 127.104 56.2549C125.164 56.2549 124.701 56.3417 124.209 56.8338Z" fill="#106194"/>
<path d="M98.7371 59.1494C98.3608 59.5257 98.1582 60.1046 98.1582 60.8861C98.1582 61.6677 98.3608 62.2466 98.7371 62.6229C99.2871 63.1728 99.6923 63.2018 109.736 63.2018C119.781 63.2018 120.186 63.1728 120.736 62.6229C121.112 62.2466 121.315 61.6677 121.315 60.8861C121.315 60.1046 121.112 59.5257 120.736 59.1494C120.186 58.5994 119.781 58.5705 109.736 58.5705C99.6923 58.5705 99.2871 58.5994 98.7371 59.1494Z" fill="#106194"/>
<path d="M99.4318 70.2643C98.9397 70.4958 98.4477 70.8721 98.3319 71.1616C98.245 71.4221 98.1582 73.6509 98.1582 76.1113C98.1582 80.1926 98.2161 80.6268 98.7371 81.1478C99.316 81.7267 99.6923 81.7267 118.999 81.7267C138.306 81.7267 138.682 81.7267 139.261 81.1478C139.782 80.6268 139.84 80.1926 139.84 76.0534C139.84 73.593 139.724 71.3063 139.55 71.0168C138.971 69.9169 138.045 69.859 118.883 69.859C103.976 69.888 100.155 69.9459 99.4318 70.2643ZM135.208 75.7929V76.8059H118.999H102.789V75.7929V74.7798H118.999H135.208V75.7929Z" fill="#106194"/>
</svg>
