<svg width="134" height="131" viewBox="0 0 134 131" fill="none" xmlns="http://www.w3.org/2000/svg">
<path d="M58.0614 1.6241C56.2221 2.27172 52.7768 3.46333 50.4195 4.26638C48.088 5.09533 45.9639 5.95018 45.7048 6.20923C45.0572 6.85685 45.109 8.35932 45.7566 9.00694C46.0675 9.3178 46.6115 9.52503 47.1555 9.52503C47.6218 9.52503 51.2743 8.41113 55.2377 7.03818C60.6518 5.17304 62.8019 4.55133 63.7604 4.55133C64.7966 4.55133 70.8065 6.54599 92.5146 14.0584C107.617 19.2911 120.051 23.6431 120.155 23.7467C120.259 23.8244 116.321 25.301 111.399 27.0107C106.451 28.7204 102.332 30.1452 102.229 30.197C102.125 30.2488 101.944 29.8343 101.84 29.2903C101.322 26.5185 99.8456 25.3269 96.1413 24.7052C85.3131 22.866 76.091 22.1147 63.7604 22.1147C52.2587 22.1147 46.0934 22.5292 35.5243 24.0576C30.0066 24.8606 28.4523 25.2233 27.442 26.0004C26.4317 26.7517 25.5769 28.4096 25.551 29.5753C25.551 30.0416 25.4473 30.2747 25.2142 30.197C25.0588 30.1193 20.914 28.6686 16.018 26.9848C11.1479 25.301 7.15862 23.8503 7.15862 23.7726C7.15862 23.6949 14.4119 21.1562 23.2972 18.0995C32.7266 14.8614 39.6431 12.3486 40.0058 12.0378C41.1456 10.9757 40.3166 8.48884 38.7883 8.48884C38.5033 8.48884 30.7837 11.0793 21.6393 14.2397C10.2672 18.1772 4.74948 20.1978 4.23139 20.6382C2.75482 21.8816 2.34034 24.0317 3.24701 25.8191C3.53196 26.3631 4.02415 26.9848 4.36091 27.192C4.8531 27.5029 25.0329 34.6526 25.4473 34.6526C25.4991 34.6526 25.551 38.9269 25.551 44.1596V53.6926L23.375 54.107C19.3079 54.9101 14.8005 57.6042 12.0805 60.8941C10.5262 62.7851 8.63518 66.4636 8.01347 68.8468C7.39176 71.1782 7.39176 76.6182 8.01347 78.9496C9.04966 82.8353 12.0287 87.4982 14.7746 89.5447C15.4222 90.0369 15.8885 90.529 15.7849 90.6068C15.6554 90.7104 15.0596 90.9176 14.4119 91.0989C11.5624 91.9279 8.47976 93.9485 5.91519 96.6944C3.66148 99.1035 1.69272 102.86 1.07101 105.839C0.501108 108.585 0.578822 112.859 1.20054 115.372C2.98796 122.47 8.7129 128.194 15.8108 129.982C17.8314 130.5 18.7121 130.5 70.0811 130.5C120.051 130.5 122.357 130.474 123.341 130.008C124.636 129.438 126.165 127.78 126.579 126.485C126.787 125.889 126.838 124.853 126.761 123.842C126.553 121.174 124.921 119.206 122.305 118.532C121.58 118.351 120.932 118.092 120.828 117.936C120.725 117.807 120.388 116.615 120.077 115.346C119.326 112.185 119.326 108.403 120.077 105.269C120.699 102.652 120.932 102.264 121.839 102.264C122.175 102.264 122.901 102.031 123.419 101.772C127.253 99.8288 128.056 94.9069 125.025 91.902C123.807 90.6845 122.46 90.0887 120.828 90.0887H119.948V88.1976C119.948 86.7729 119.818 86.0734 119.404 85.2704C118.549 83.6643 116.917 82.395 115.285 82.0323L113.886 81.7214L113.368 80.0376C112.306 76.5923 112.202 72.1626 113.135 68.51C113.446 67.2148 113.627 67.0594 114.145 67.6811C114.948 68.6396 116.995 68.8986 123.289 68.795C128.859 68.7173 129.377 68.6655 130.335 68.1474C132.382 67.0594 133.315 65.4792 133.315 63.1737C133.315 61.8266 133.03 60.8941 131.087 56.1276L128.859 50.6358L129.61 49.1851C130.258 47.8899 130.335 47.4754 130.335 45.2735C130.335 43.1752 130.232 42.6312 129.688 41.5692C128.937 40.0667 127.46 38.6678 125.906 37.9684L124.766 37.4762V30.4301C124.766 26.5444 124.636 22.9696 124.507 22.4515C123.963 20.4568 124.818 20.8195 94.6647 10.354L66.6099 0.613815L64.0194 0.536101C61.5067 0.432482 61.3253 0.484291 58.0614 1.6241ZM73.2156 26.3631C79.355 26.6999 84.8986 27.2439 90.4422 28.0469C96.4003 28.9018 97.3329 29.109 97.5919 29.4976C97.7215 29.7048 97.8251 32.8134 97.8251 36.3882V42.9421H91.7375C86.8674 42.9421 85.4685 43.0198 84.8986 43.3307C83.707 43.9524 83.4739 45.2476 84.3805 46.4133L84.8986 47.0869H91.3748H97.8251V50.3249V53.563H63.7604H29.6957V50.3249V47.0869H53.7612H77.8525L78.3706 46.4133C79.2773 45.2476 79.0442 43.9524 77.8525 43.3307C77.2308 42.9939 73.7078 42.9421 53.3985 42.9421H29.6957V36.2069V29.4717L30.2915 29.2126C30.9909 28.9018 38.1406 27.8138 42.9071 27.2957C52.6214 26.2077 63.9676 25.8709 73.2156 26.3631ZM120.621 32.8393V37.4762L119.404 38.0202C116.528 39.2895 114.819 41.9836 114.793 45.2735C114.793 46.9573 114.896 47.4495 115.648 48.9261L116.476 50.6358L115.829 52.1124L115.181 53.563H108.576H101.97V44.1337V34.7044L107.099 32.9429C110.881 31.6217 119.766 28.5132 120.569 28.2023C120.595 28.1764 120.621 30.2747 120.621 32.8393ZM124.248 41.88C125.543 42.5535 126.32 43.797 126.32 45.1958C126.32 48.8484 122.253 50.4545 119.87 47.7345C118.497 46.1543 118.575 44.0301 120.051 42.6053C121.372 41.336 122.797 41.077 124.248 41.88ZM127.227 57.7596C128.289 60.4278 129.17 62.8887 129.17 63.2514C129.17 64.5466 128.522 64.7021 122.668 64.7021C117.642 64.7021 117.279 64.6761 116.632 64.1581C116.269 63.8731 115.958 63.4845 115.958 63.3291C115.958 63.1478 116.865 60.7904 117.953 58.0445L119.974 53.0708L121.787 53.2004C122.797 53.2781 123.963 53.2263 124.377 53.0967C124.818 52.9672 125.18 52.8895 125.206 52.8895C125.232 52.9154 126.139 55.1173 127.227 57.7596ZM112.746 59.7802L111.943 61.8266L69.0709 61.8525C31.3795 61.8525 25.9913 61.9043 24.6443 62.2411C21.1213 63.1737 18.4013 65.4533 16.7952 68.7691C15.8626 70.7638 15.8367 70.8415 15.8367 73.8982C15.8367 76.955 15.8626 77.0327 16.7952 79.0274C18.4013 82.3432 21.1213 84.6228 24.6443 85.5553C25.8877 85.8662 27.9342 85.9439 35.3429 85.9439H44.4873L45.109 85.2963C45.9639 84.4673 45.9639 83.2757 45.109 82.4468L44.4873 81.7992H35.4206C25.007 81.7992 24.5148 81.7214 22.3388 79.6232C20.4477 77.7839 19.9814 76.6441 19.9814 73.8982C19.9814 71.1523 20.4477 70.0125 22.3388 68.1733C24.2039 66.36 25.5769 65.9973 30.4728 65.9973H34.6176V71.6963V77.4213L35.2652 78.043C36.1201 78.9237 36.8195 78.8719 39.9799 77.6285L42.6999 76.5664L45.4199 77.6285C48.5543 78.8719 49.176 78.9237 50.0309 78.043L50.6785 77.4213V71.6963V65.9973H80.1063C108.032 65.9973 109.534 66.0232 109.353 66.4377C108.057 69.8312 108.057 77.9653 109.353 81.3329C109.534 81.7733 108.057 81.7992 80.7539 81.7992H51.9478L51.3261 82.4468C50.4713 83.2757 50.4713 84.4673 51.3261 85.2963L51.9478 85.9439H83.1889H114.456L115.207 86.6951C116.166 87.6536 116.166 88.379 115.207 89.3374L114.456 90.0887H70.4956C21.7689 90.0887 24.4111 90.1664 20.7586 88.379C17.4687 86.7729 14.8523 84.1824 13.2203 80.8925C9.30871 72.9916 12.6763 63.3809 20.7586 59.4175C24.3075 57.656 21.6393 57.7596 69.8739 57.7337L113.549 57.7078L112.746 59.7802ZM46.5338 69.7535C46.5338 71.8258 46.5079 73.5097 46.4561 73.5097C46.4042 73.5097 45.653 73.2247 44.7722 72.862C43.8915 72.4994 42.9589 72.2144 42.6999 72.2144C42.4408 72.2144 41.5083 72.4994 40.6275 72.862C39.7467 73.2247 38.9696 73.5097 38.8919 73.5097C38.8142 73.5097 38.7624 71.8258 38.7624 69.7535V65.9973H42.6481H46.5338V69.7535ZM122.046 94.881C122.901 95.71 122.901 96.798 122.02 97.6269L121.347 98.2486L69.4853 98.3782L17.6241 98.5077L15.6813 99.4662C12.6763 100.969 10.5003 103.352 9.46413 106.331C7.02909 113.403 11.5106 121.019 18.8157 122.21C19.9814 122.392 32.7784 122.47 59.5638 122.418L98.654 122.34L99.1462 121.718C99.7938 120.941 99.7679 119.853 99.0944 119.024L98.5763 118.325L58.7608 118.273L18.9453 118.195L17.65 117.548C12.495 115.009 11.407 108.636 15.474 104.647C16.1216 104.025 17.1837 103.326 17.9609 103.041C19.3338 102.523 20.0073 102.523 50.6785 102.523H82.0232V108.222V113.947L82.6708 114.569C83.0076 114.931 83.5775 115.216 83.9402 115.216C84.2769 115.216 85.8053 114.75 87.3078 114.154L90.0537 113.092L92.7218 114.154C95.8045 115.398 96.5557 115.449 97.4365 114.569L98.0841 113.947V108.222V102.523H107.254H116.425L116.062 103.87C114.974 108.067 115.078 113.403 116.373 117.859C116.502 118.299 116.14 118.325 111.062 118.325H105.622L105.104 118.998C104.431 119.853 104.405 120.941 105.052 121.718L105.545 122.34L113.627 122.47L121.709 122.599L122.201 123.221C122.901 124.076 122.823 125.112 122.02 125.863L121.347 126.485L71.5836 126.562C37.8557 126.614 21.0176 126.562 19.3856 126.355C15.3963 125.915 12.2359 124.412 9.49004 121.692C6.48509 118.662 5.08624 115.501 4.879 111.227C4.72357 107.807 5.03443 106.253 6.43329 103.3C8.37614 99.2071 12.6763 95.7359 17.1319 94.6479C18.4531 94.337 26.1727 94.2852 70.0552 94.2593L121.424 94.2334L122.046 94.881ZM93.9394 106.305C93.9394 109.232 93.8617 110.061 93.6285 109.958C93.4472 109.906 92.5405 109.569 91.6598 109.258L90.0019 108.662L88.5512 109.18C87.7222 109.491 86.8674 109.802 86.6342 109.906C86.1939 110.087 86.168 109.802 86.168 106.305V102.523H90.0537H93.9394V106.305Z" fill="#106194"/>
</svg>
