<svg width="130" height="131" viewBox="0 0 130 131" fill="none" xmlns="http://www.w3.org/2000/svg">
<path d="M43.9293 0.982324C43.447 1.23618 42.7869 1.89621 42.4823 2.42931C41.9746 3.29242 41.8984 3.80013 41.8984 6.11023V8.82649L39.7914 8.90265C37.9637 9.00419 37.5067 9.10574 36.4151 9.76576C35.6536 10.2481 34.892 11.0097 34.4097 11.7712C33.6481 13.0151 33.6481 13.0659 33.5719 17.1276L33.4958 21.2401L31.2872 21.4178C22.6307 22.1032 15.1927 25.6064 9.27785 31.7498C4.50535 36.7253 1.50984 42.6402 0.392869 49.2912C0.0374701 51.3475 0.0120844 54.9776 0.0628558 77.4186L0.139013 103.185L0.925968 105.267C2.06832 108.338 3.18529 110.039 5.59693 112.451C8.79553 115.675 12.7303 117.528 17.122 117.934L19.0006 118.112L19.1783 119.203C19.2544 119.813 19.7875 121.234 20.346 122.351C22.1992 126.032 25.2201 128.647 28.9771 129.84L31.008 130.475H41.4923H52.0019L53.3474 129.764C54.3374 129.256 54.9467 128.698 55.6067 127.733L56.4698 126.413H60.1761C62.9685 126.413 64.2124 126.311 65.1263 125.981C66.5225 125.524 68.4518 123.773 68.7057 122.757L68.858 122.097H76.4483H84.0386V107.374V92.65H75.6614H67.2841V88.5883V84.5266H95.7922C127.474 84.5266 126.001 84.6027 127.956 82.8511C128.489 82.3688 129.174 81.4549 129.479 80.871C129.987 79.7794 129.987 79.7033 129.936 46.3973L129.86 13.0151L129.098 11.7712C128.616 11.0097 127.854 10.2481 127.093 9.76576C126.001 9.10574 125.544 9.00419 123.742 8.92804L121.66 8.82649L121.559 5.88176C121.483 3.29242 121.406 2.81009 120.924 2.12468C119.934 0.753853 119.045 0.499996 115.187 0.499996C112.064 0.499996 111.709 0.550768 110.947 1.05848C109.272 2.20084 109.044 2.75932 108.967 5.9833L108.866 8.87727H106.886H104.906L104.804 5.88176C104.728 3.29242 104.652 2.81009 104.169 2.12468C103.179 0.753853 102.291 0.499996 98.4323 0.499996C95.3099 0.499996 94.9545 0.550768 94.1929 1.05848C92.5175 2.20084 92.289 2.75932 92.2128 5.9833L92.1113 8.87727H90.1058H88.1004V6.161C88.1004 3.74936 88.0242 3.34319 87.4657 2.40392C86.5264 0.753853 85.7141 0.499996 81.6778 0.499996C78.5553 0.499996 78.1999 0.550768 77.413 1.08387C75.7375 2.20084 75.4075 3.03856 75.4075 6.11023V8.87727H73.3767H71.3458V6.18639C71.3458 3.92706 71.2697 3.34319 70.8127 2.55624C69.7973 0.753853 69.4165 0.626925 64.9994 0.626925C60.5823 0.626925 60.2015 0.753853 59.1861 2.55624C58.7291 3.34319 58.653 3.92706 58.653 6.18639V8.87727H56.6221H54.5913V6.11023C54.5913 3.03856 54.2613 2.20084 52.5858 1.08387C51.7988 0.550768 51.4435 0.499996 48.2702 0.499996C45.3763 0.499996 44.6655 0.576153 43.9293 0.982324ZM50.2757 11.035V17.2545H48.2449H46.214V11.035V4.81556H48.2449H50.2757V11.035ZM67.0303 11.035V17.2545H64.9994H62.9685V11.035V4.81556H64.9994H67.0303V11.035ZM83.7848 11.035V17.2545H81.7539H79.7231V11.035V4.81556H81.7539H83.7848V11.035ZM100.539 11.035V17.2545H98.5085H96.4776V11.035V4.81556H98.5085H100.539V11.035ZM117.294 11.035V17.2545H115.263H113.232V11.035V4.81556H115.263H117.294V11.035ZM41.8984 15.9599C41.8984 18.3969 41.9746 18.8031 42.4823 19.5392C43.6754 21.3162 44.0562 21.4432 48.2195 21.4432C51.9512 21.4432 51.9765 21.4432 52.9158 20.707C54.2866 19.6916 54.5913 18.7523 54.5913 15.7314V13.1928H56.6221H58.653V15.7314C58.653 18.7523 58.9576 19.6916 60.3284 20.707C61.2677 21.4432 61.2931 21.4432 64.9994 21.4432C68.7057 21.4432 68.7311 21.4432 69.6704 20.707C71.0412 19.6916 71.3458 18.7523 71.3458 15.7314V13.1928H73.3767H75.4075V15.7314C75.4075 18.7523 75.7121 19.6916 77.083 20.707C78.0222 21.4432 78.0476 21.4432 81.7793 21.4432C85.9426 21.4432 86.3234 21.3162 87.5419 19.5392C88.0242 18.8031 88.1004 18.3969 88.1004 15.9599V13.1928H90.1058H92.1113L92.2128 16.0614C92.289 18.7269 92.3398 19.0061 92.9744 19.8439C94.1421 21.367 95.0053 21.6209 98.8893 21.5193C102.646 21.4432 103.103 21.2655 104.296 19.5392C104.779 18.8031 104.855 18.3969 104.855 15.9599V13.1928H106.886H108.917V15.7822C108.917 18.8538 109.424 20.047 111.074 21.0116C112.014 21.5447 112.344 21.5701 115.568 21.5193C119.401 21.4432 119.858 21.2655 121.051 19.5392C121.533 18.8031 121.609 18.3969 121.609 15.9599V13.1928H122.752C124.148 13.1928 125.036 13.5736 125.392 14.386C125.57 14.7667 125.671 16.9499 125.671 20.3008V25.6318H87.8465H50.0219L48.2956 24.7687C45.3509 23.2963 43.5739 22.7378 38.4206 21.6716C37.8621 21.5701 37.8367 21.4686 37.8367 18.27C37.8367 13.8021 38.1667 13.2436 40.7053 13.2182L41.8984 13.1928V15.9599ZM40.4768 26.6218C45.884 28.0688 49.8695 30.3282 53.8551 34.2629C57.5868 37.9692 59.7446 41.3455 61.2931 45.9657C62.6893 50.129 62.7147 50.6621 62.7147 72.4937V92.65H60.6838H58.653V101.002V109.354L57.5614 109.608C56.9521 109.76 56.0383 110.191 55.5305 110.521C54.9974 110.877 54.5405 111.055 54.4643 110.902C54.3628 110.775 53.8551 110.445 53.2966 110.166C52.5858 109.785 52.3066 109.481 52.3066 109.074C52.3066 107.983 51.2404 104.708 50.3265 102.931C49.6665 101.687 48.7018 100.443 47.0517 98.7933C45.224 96.9655 44.8178 96.407 45.1478 96.3055C51.8496 94.1477 56.546 89.2483 58.2976 82.6226C58.7545 80.9979 58.7799 79.6271 58.7799 65.7412C58.7799 49.1897 58.8053 49.5451 57.206 46.2196C55.1498 41.9294 51.0373 39.1878 45.1732 38.2231L44.2593 38.0708L43.9547 39.8224C43.4977 42.6402 43.4216 42.4879 45.4524 42.8433C47.7118 43.2241 50.0219 44.3918 51.4181 45.8388C52.4843 46.905 54.0836 49.6974 54.0836 50.4336C54.0836 50.7128 52.0019 50.7636 42.4062 50.7636C34.7397 50.7636 30.2972 50.6621 29.4087 50.4844C27.5302 50.0782 25.7785 49.1389 24.2554 47.692C22.6307 46.1688 21.6153 44.1887 21.2599 41.8786C21.0314 40.5586 20.8791 40.127 20.6252 40.2286C20.4222 40.3047 19.4829 40.3555 18.5182 40.3555H16.7666V41.5486C16.7666 42.234 16.9443 43.4018 17.1474 44.1633C17.5536 45.6865 17.5282 45.7119 16.2589 46.1942C13.4665 47.2604 10.8772 49.7736 9.45555 52.7437L8.51628 54.6984L8.44013 67.6959C8.36397 82.4195 8.36397 82.4957 10.2933 86.4305C11.5626 89.0452 13.4411 91.3807 15.6243 93.0561C17.0966 94.1985 20.346 95.9501 21.006 95.9501C21.4884 95.9501 21.4376 96.1024 20.5237 97.3971C19.0259 99.6056 18.7975 100.875 18.7975 107.526V113.466H17.8328C14.9896 113.466 11.2833 111.791 8.87168 109.405C7.04391 107.602 6.10465 106.155 5.1146 103.591L4.45458 101.916L4.37842 77.9263C4.32765 60.791 4.37842 53.2514 4.5815 51.5252C6.10465 39.0862 15.345 29.0843 27.8094 26.3934C30.9318 25.708 37.4813 25.8349 40.4768 26.6218ZM125.671 54.3176V78.7132L125.036 79.3225L124.427 79.9571H95.843H67.2841V78.0532V76.1493H94.4468H121.609V55.0792V34.0091L90.7151 33.9837L59.7953 33.9329L57.9168 31.9528L56.0129 29.9474H90.842H125.671V54.3176ZM75.4075 42.3863V46.4481H70.7619H66.1164L65.5325 44.5949C65.2025 43.6049 64.4917 41.8025 63.9586 40.6347C63.4255 39.467 62.9685 38.477 62.9685 38.4262C62.9685 38.3754 65.761 38.3246 69.188 38.3246H75.4075V42.3863ZM96.2238 42.3863V46.4481H87.9734H79.7231V42.3863V38.3246H87.9734H96.2238V42.3863ZM117.294 42.3863V46.4481H109.044H100.793V42.3863V38.3246H109.044H117.294V42.3863ZM20.3714 50.2559C20.9045 51.119 23.5192 53.0229 25.1947 53.7845C27.9363 55.0284 28.6217 55.0792 41.8984 55.0792H54.3374V67.3912C54.3374 75.21 54.2359 80.1602 54.0582 81.0233C53.9059 81.7595 53.3474 83.2827 52.7889 84.425C51.1134 87.8775 48.1687 90.4668 44.4116 91.8376C42.5331 92.523 42.4823 92.523 34.4351 92.5992C25.3216 92.7007 24.1031 92.5484 20.8283 90.9745C18.3405 89.7814 15.4466 86.9128 14.2534 84.425C12.7557 81.2772 12.6795 80.4395 12.7557 67.5435C12.8318 56.2977 12.8572 55.9423 13.3903 54.7746C14.1773 53.0483 15.8527 51.3729 17.6297 50.5098C19.4829 49.6213 19.9652 49.5705 20.3714 50.2559ZM75.4075 55.0792V59.1409H71.3458H67.2841V56.6277C67.2841 55.2569 67.208 53.4291 67.1318 52.566L66.9541 51.0175H71.1935H75.4075V55.0792ZM96.2238 55.0792V59.1409H87.9734H79.7231V55.0792V51.0175H87.9734H96.2238V55.0792ZM117.294 55.0792V59.1409H109.044H100.793V55.0792V51.0175H109.044H117.294V55.0792ZM75.4075 67.5182V71.5799H71.3458H67.2841V67.5182V63.4564H71.3458H75.4075V67.5182ZM96.2238 67.5182V71.5799H87.9734H79.7231V67.5182V63.4564H87.9734H96.2238V67.5182ZM117.294 67.5182V71.5799H109.044H100.793V67.5182V63.4564H109.044H117.294V67.5182ZM31.998 97.7271C33.1658 98.311 34.3843 99.5549 34.9682 100.748C35.3489 101.51 35.4505 102.449 35.5013 106.206L35.6028 110.725L33.6735 113.619C32.6073 115.218 31.7442 116.589 31.7442 116.69C31.7442 116.919 34.9428 119.051 35.2728 119.051C35.3743 119.051 36.2628 117.858 37.2275 116.386L38.9791 113.72L45.0209 113.771L51.0881 113.847L51.6973 114.558C52.2812 115.243 52.3066 115.37 52.3066 119.813C52.3066 124.737 52.1542 125.448 51.0627 125.905C50.5803 126.083 47.4325 126.159 40.8576 126.108C31.5919 126.032 31.338 126.007 29.891 125.448C27.0478 124.281 24.6362 121.742 23.6969 118.899C23.0623 116.995 22.91 103.667 23.4938 101.636C24.56 97.9302 28.6979 96.0516 31.998 97.7271ZM79.4692 107.374V117.782H74.3921H69.315V116.309C69.315 115.522 69.2388 114.609 69.1626 114.279C69.0103 113.72 69.0103 113.72 72.3359 113.72H75.6614V111.562V109.405H69.315H62.9685V103.185V96.9655H71.2189H79.4692V107.374ZM44.0562 102.144C45.884 103.997 46.8486 105.597 47.5594 108.059L47.9656 109.405H43.9039H39.8676V105.394C39.8676 102.55 39.766 101.002 39.4868 100.113C39.2837 99.4279 39.106 98.8441 39.106 98.7933C39.106 98.7679 39.8168 99.0979 40.7053 99.5295C41.6954 100.037 42.9393 101.002 44.0562 102.144ZM63.5778 114.075C64.1617 114.304 64.5171 114.685 64.7202 115.243C65.0756 116.309 65.0502 119.432 64.6694 120.574C64.2632 121.793 63.2986 122.072 59.6176 122.072L56.6221 122.097V119.229C56.6221 116.69 56.6983 116.284 57.2314 115.396C57.5614 114.862 58.0945 114.253 58.4245 114.075C59.2369 113.619 62.5116 113.619 63.5778 114.075Z" fill="#106194"/>
<path d="M19.914 59.6487C17.2231 60.7149 15.0145 63.6088 14.583 66.5536L14.4307 67.7721H16.7154H18.9747L19.127 66.8836C19.457 64.8274 21.6402 63.2534 23.671 63.5835C25.0926 63.8373 26.5904 65.2335 26.9966 66.6805L27.2758 67.7721H29.4082H31.5406L31.4391 66.4267C31.2106 63.7865 29.3321 61.1211 26.7935 59.9279C24.9911 59.0648 21.7417 58.9379 19.914 59.6487Z" fill="#106194"/>
<path d="M41.6443 59.3694C38.4711 60.3341 36.0087 63.2534 35.6279 66.5028L35.4756 67.7721H37.6588H39.8419L40.1465 66.6805C40.5273 65.2335 42.0251 63.8119 43.4213 63.5835C45.4014 63.2534 47.9907 65.2081 47.9907 67.0359V67.7721H50.3008H52.6363L52.4586 66.4267C52.0778 63.4819 49.8693 60.7149 47.0768 59.6741C45.6552 59.1156 42.939 58.9887 41.6443 59.3694Z" fill="#106194"/>
<path d="M22.8594 77.2155C22.8594 79.0178 23.4686 81.6833 24.1287 83.0034C25.3472 85.3643 27.9111 87.4459 30.5766 88.2075C32.7344 88.8421 35.9584 88.639 37.9131 87.7505C41.7463 85.9989 44.1833 82.0134 44.1833 77.4185V75.8954H33.5214H22.8594V77.2155ZM38.9793 80.8964C37.0246 83.968 33.7752 85.0089 30.8559 83.4857C29.7135 82.9018 27.9365 81.0487 27.9365 80.4394C27.9365 80.3125 30.3481 80.211 33.6737 80.211H39.4108L38.9793 80.8964Z" fill="#106194"/>
<path d="M67.0303 103.185V105.343H71.3458H75.6614V103.185V101.027H71.3458H67.0303V103.185Z" fill="#106194"/>
<path d="M96.2234 101.154C96.2234 107.78 96.1473 109.658 95.9188 109.658C95.0557 109.658 92.2633 111.308 91.0448 112.502C85.9422 117.629 87.4146 126.311 93.9133 129.535L95.5888 130.348L108.586 130.424L121.609 130.5L121.66 122.072L121.736 113.644L123.056 113.187C125.671 112.298 127.854 110.318 129.174 107.628C129.809 106.358 129.859 105.977 129.859 103.312C129.859 100.545 129.809 100.291 129.047 98.6918C128.006 96.4578 126.179 94.6301 123.945 93.5892L122.244 92.7769L109.246 92.7007L96.2234 92.6246V101.154ZM122.32 97.8286C127.118 100.494 126.559 107.196 121.381 109.024C120.467 109.328 118.588 109.405 110.541 109.405H100.793V103.16V96.9402L110.896 97.0163L120.974 97.0925L122.32 97.8286ZM117.294 119.94V126.184L107.088 126.108C97.1119 126.032 96.8327 126.007 95.8173 125.474C91.5271 123.164 91.2986 117.299 95.4365 114.812C96.1727 114.355 97.0865 113.949 97.4673 113.898C97.8227 113.847 102.443 113.771 107.723 113.745L117.294 113.72V119.94Z" fill="#106194"/>
<path d="M104.601 103.185V105.343H113.105H121.609V103.185V101.027H113.105H104.601V103.185Z" fill="#106194"/>
<path d="M96.2236 119.94V122.097H104.728H113.232V119.94V117.782H104.728H96.2236V119.94Z" fill="#106194"/>
</svg>
