<svg width="138" height="131" viewBox="0 0 138 131" fill="none" xmlns="http://www.w3.org/2000/svg">
<path d="M14.9224 1.08606C13.0577 2.36473 12.9245 2.73768 12.9245 7.29295C12.9245 11.8482 13.0577 12.2212 14.9224 13.4732L15.8015 14.0859H34.1292H52.4835V16.6166C52.4835 21.5981 54.1884 23.3829 58.9568 23.4096H61.2744V27.4054C61.2744 31.7476 61.5141 32.68 62.926 33.9853C63.6985 34.7045 65.2969 35.3972 66.2026 35.3972H66.8686V45.1204V54.8437H64.6042C60.7949 54.8437 59.9424 55.6695 59.9424 59.4256C59.9158 62.3292 59.3563 65.3394 58.5305 66.9911C58.1576 67.7103 57.0121 69.2554 55.9732 70.4275C53.8154 72.8517 52.7499 74.743 52.0306 77.2205C51.6044 78.8188 51.5511 80.0176 51.631 92.3514L51.7109 105.724H49.713H47.6884V92.5912C47.6884 78.2327 47.6085 77.2737 46.1434 74.3967C45.6905 73.5176 44.4385 71.7861 43.3196 70.4808C40.1762 66.8312 39.75 65.739 39.457 60.5178C39.3238 57.5608 39.1906 56.8682 38.7377 56.2555C37.7254 54.8969 37.4058 54.8437 30.2399 54.8437C24.1129 54.8437 23.5002 54.8969 22.7276 55.3764C22.2748 55.6428 21.7686 56.0957 21.6354 56.3621C21.5023 56.6285 21.2891 58.2268 21.2092 59.9051C20.8629 65.3128 20.1703 67.1775 17.2666 70.4541C15.1622 72.825 14.2298 74.2902 13.5105 76.4213C12.9511 78.0996 12.9511 78.6057 12.8446 91.8986L12.7646 105.618L11.0065 105.911C4.93276 106.976 0.803711 111.905 0.803711 118.191C0.803711 122.827 3.01475 126.689 6.95733 128.98C9.78107 130.605 5.46554 130.499 68.8665 130.499C132.161 130.499 128.298 130.605 131.042 128.98C135.011 126.663 137.196 122.827 137.196 118.191C137.196 111.905 133.067 106.976 126.966 105.911L125.208 105.618V92.9109C125.208 78.8721 125.075 77.3803 123.61 74.4234C123.184 73.5443 121.931 71.8127 120.839 70.5607C117.749 67.0443 117.11 65.3927 116.79 59.8518C116.684 58.2002 116.497 56.6285 116.364 56.3621C116.231 56.0957 115.725 55.6428 115.272 55.3764C114.499 54.8969 113.886 54.8437 107.759 54.8437C100.594 54.8437 100.274 54.8969 99.2616 56.2555C98.8088 56.8682 98.7022 57.5342 98.5424 60.3846C98.276 65.6591 97.8498 66.8046 94.7064 70.4541C93.5875 71.7595 92.3088 73.5176 91.856 74.3967C90.3908 77.2737 90.3109 78.2327 90.3109 92.5912V105.724H88.313H86.2884L86.3417 92.458C86.3683 75.1693 86.4216 75.4356 81.4135 69.7615C79.0426 67.071 78.057 64.0874 78.057 59.5588C78.057 55.776 77.1246 54.8437 73.4218 54.8437H71.1308V45.1204V35.3972H71.7968C72.7025 35.3972 74.3008 34.7045 75.0734 33.9853C76.4853 32.68 76.725 31.7476 76.725 27.4054V23.4096H78.9893C83.7844 23.4096 85.4893 21.6248 85.5159 16.6699V14.0859H103.87H122.198L123.077 13.4732C124.942 12.2212 125.075 11.8482 125.075 7.29295C125.075 2.73768 124.942 2.36473 123.077 1.08606L122.198 0.499997H68.9997H15.8015L14.9224 1.08606ZM120.679 7.29295V9.55727H68.9997H17.3199V7.29295V5.02864H68.9997H120.679V7.29295ZM80.934 16.4035L80.8541 18.7477H68.9997H57.1453L57.0654 16.4035L56.9855 14.0859H68.9997H81.0139L80.934 16.4035ZM72.1964 26.9792C72.1964 29.9894 72.1431 30.5755 71.7701 30.7087C71.2374 30.9218 66.762 30.9218 66.2292 30.7087C65.8563 30.5755 65.803 29.9894 65.803 26.9792V23.4096H68.9997H72.1964V26.9792ZM34.9017 61.0506C34.9017 64.9132 36.1005 68.7226 38.0984 71.3599C38.8443 72.3189 40.0164 73.8107 40.7623 74.6631C43.0799 77.4336 43 76.8209 43.1065 92.1916L43.1864 105.724H30.2399H17.3199V93.124C17.3199 79.5381 17.4265 78.286 18.7052 76.1283C19.1047 75.4889 20.2236 74.0504 21.1826 72.9582C24.033 69.7349 25.5514 65.8989 25.578 62.0362C25.6047 59.1858 25.2584 59.3723 30.3997 59.3723H34.9017V61.0506ZM66.8686 71.0668V82.7347L65.6432 82.9212C63.4321 83.2143 60.0223 83.0811 57.9711 82.6548L55.9998 82.202L56.0797 81.3762C56.1597 80.9233 56.2662 79.9909 56.3195 79.2983C56.5326 77.4336 57.3318 75.9951 59.6227 73.3045C60.7682 71.9726 62.0202 70.2677 62.4198 69.5484C63.3788 67.7902 64.1514 64.7268 64.3645 61.7698L64.551 59.3723H65.6964H66.8686V71.0668ZM73.6082 61.6899C73.8213 64.5936 74.6205 67.7902 75.5795 69.5484C76.0057 70.2943 77.0979 71.8127 78.057 72.9316C79.016 74.0504 80.0549 75.3025 80.3746 75.7553C80.9873 76.661 81.7864 79.0852 81.7864 80.1508C81.7864 80.8167 81.7864 80.8167 79.8151 80.7368C78.1369 80.6303 74.6738 81.0565 71.8767 81.6425L71.1308 81.8024V70.5873V59.3723H72.3029H73.4484L73.6082 61.6899ZM112.261 60.5977C112.341 61.2903 112.421 62.3026 112.421 62.862V63.9009H107.6C103.311 63.9009 102.805 63.8477 102.938 63.4747C103.018 63.235 103.098 62.2227 103.098 61.2104V59.3723H107.6H112.075L112.261 60.5977ZM114.499 69.8148C114.925 70.5873 116.044 72.0525 116.95 73.0914C117.829 74.1037 118.895 75.4889 119.294 76.1283C120.573 78.286 120.679 79.5381 120.679 93.124V105.724H107.759H94.8129L94.8928 92.1916C94.9994 76.8209 94.9195 77.4336 97.2371 74.6631C99.5813 71.866 101.233 69.655 101.393 69.0156L101.553 68.4296H107.626H113.7L114.499 69.8148ZM81.8397 85.5052C81.893 85.5585 81.893 90.1404 81.8397 95.6547L81.7331 105.724H68.973H56.2129V98.0522C56.2129 93.8432 56.133 89.6076 56.0531 88.6486L55.8666 86.8904L57.7047 87.2634C60.8481 87.9294 66.0161 87.5831 72.0632 86.3044C76.2189 85.3987 77.5508 85.2388 79.4422 85.2921C80.7209 85.3454 81.8131 85.4253 81.8397 85.5052ZM127.259 110.652C129.017 111.185 131.202 113.13 132.028 114.915C132.907 116.779 132.907 119.443 132.028 121.335C131.282 122.933 129.897 124.398 128.325 125.224L127.206 125.837H68.9997C12.4716 125.837 10.7667 125.81 9.86099 125.331C8.04953 124.345 6.95733 123.279 6.15816 121.654C5.46554 120.296 5.33235 119.71 5.33235 118.138C5.33235 115.687 6.10488 114.009 7.94298 112.357C10.447 110.093 4.77293 110.28 68.8931 110.28C119.001 110.253 126.087 110.306 127.259 110.652Z" fill="#106194"/>
<path d="M13.138 116.113C11.8593 116.646 11.5929 118.644 12.6585 119.71C13.138 120.216 13.5909 120.376 14.39 120.376C17.3736 120.376 17.7466 116.273 14.7896 115.954C14.2036 115.9 13.4577 115.954 13.138 116.113Z" fill="#106194"/>
<path d="M26.7507 116.167C25.4987 116.753 25.2323 118.697 26.2446 119.71C27.0704 120.562 28.6688 120.615 29.681 119.816C30.6667 119.044 30.6667 117.179 29.681 116.406C28.9351 115.82 27.6831 115.714 26.7507 116.167Z" fill="#106194"/>
<path d="M40.1493 116.38C38.9505 117.339 38.9771 119.097 40.2025 120.029C40.762 120.456 42.6267 120.456 43.1861 120.029C44.4115 119.097 44.5181 117.685 43.4525 116.62C42.4935 115.687 41.1616 115.581 40.1493 116.38Z" fill="#106194"/>
<path d="M53.7092 116.407C53.1498 116.833 53.0166 117.179 53.0166 118.111C53.0166 119.577 53.8957 120.376 55.4674 120.376C57.3055 120.376 58.2911 118.804 57.5186 117.099C56.9325 115.82 54.9346 115.448 53.7092 116.407Z" fill="#106194"/>
<path d="M67.7474 116.113C66.4687 116.646 66.2023 118.644 67.2679 119.71C67.7474 120.216 68.2002 120.376 68.9994 120.376C71.983 120.376 72.3559 116.273 69.399 115.954C68.8129 115.9 68.067 115.954 67.7474 116.113Z" fill="#106194"/>
<path d="M81.3601 116.167C80.1081 116.753 79.8417 118.697 80.854 119.71C81.6798 120.562 83.2781 120.615 84.2904 119.816C84.8232 119.39 84.983 119.044 84.983 118.218C84.983 116.3 83.1716 115.288 81.3601 116.167Z" fill="#106194"/>
<path d="M94.5461 116.62C93.7202 117.445 93.5871 118.191 94.0932 119.124C94.5727 120.029 95.1588 120.349 96.3575 120.376C97.2632 120.376 97.5829 120.243 98.169 119.523C100.114 117.232 96.6772 114.489 94.5461 116.62Z" fill="#106194"/>
<path d="M108.292 116.46C107.733 116.913 107.573 117.312 107.573 118.111C107.573 120.749 111.729 121.335 112.288 118.751C112.794 116.46 110.104 114.888 108.292 116.46Z" fill="#106194"/>
<path d="M122.358 116.113C121.079 116.646 120.813 118.644 121.878 119.71C122.358 120.216 122.811 120.376 123.61 120.376C126.593 120.376 126.966 116.273 124.009 115.954C123.423 115.9 122.677 115.954 122.358 116.113Z" fill="#106194"/>
</svg>
