<svg width="140" height="131" viewBox="0 0 140 131" fill="none" xmlns="http://www.w3.org/2000/svg">
<path d="M54.2888 1.50313C54.1804 2.07247 52.6079 10.0975 50.8185 19.3425L47.5109 36.1517L41.0041 36.2331L34.5245 36.2873L40.6246 30.1872L46.7247 24.0871L45.7758 23.2737C42.3597 20.3728 38.049 18.0683 33.9822 17.0109C30.5933 16.1163 23.951 16.0892 20.7789 16.9838C15.7633 18.3665 12.0761 20.4541 8.63291 23.816C5.0813 27.2862 2.85815 30.9463 1.39412 35.6637C0.716333 37.8869 0.662109 38.402 0.662109 43.0652C0.662109 47.403 0.743444 48.379 1.25856 50.1955C2.34303 54.0996 4.64751 58.3832 7.22311 61.2299L8.33469 62.4499L12.1303 58.6543L15.953 54.8587V57.4614C15.953 58.8983 16.9291 74.7044 18.122 92.5709C19.8029 117.947 20.3722 125.349 20.7247 126.271C21.294 127.762 22.514 129.144 23.9238 129.904L25.0354 130.5H69.9051H114.775L117.432 129.768C127.87 126.894 135.569 119.222 138.524 108.811C139.121 106.75 139.148 106.072 139.256 96.1496L139.338 85.6575L137.115 85.5761L134.864 85.4948L134.539 83.597C133.726 78.7711 131.448 74.3519 128.005 70.8003C127.138 69.9056 126.08 68.9025 125.646 68.6043L124.86 68.0078L128.764 58.6272L132.668 49.2195L134.024 48.3519C135.868 47.1861 137.576 45.2341 138.443 43.3905C139.094 42.0078 139.175 41.5469 139.175 38.7273C139.175 35.745 139.121 35.501 138.308 33.8201C136.057 29.2654 131.042 26.6627 126.243 27.5573C119.573 28.8045 115.534 35.1215 117.215 41.6554L117.703 43.5532L113.934 51.7138L110.193 59.8743L108.946 58.6814C107.427 57.2174 106.289 56.621 104.96 56.621C103.279 56.621 102.71 56.3498 102.168 55.2654C101.517 53.9911 100.053 52.7169 98.7518 52.2831C98.1553 52.0662 97.098 52.012 96.122 52.0933C94.1157 52.2831 92.6246 53.232 91.5943 54.9943C90.7268 56.5125 89.8592 56.7565 89.3983 55.6178C87.5547 51.1173 86.4702 50.06 83.488 49.8973C81.075 49.7617 79.6652 50.4937 78.2283 52.6356C77.1981 54.1538 77.171 54.1809 75.8425 54.1809H74.514V45.2341V36.2873L63.4525 36.2331L52.391 36.1517L55.319 21.2404C56.9186 13.0255 58.3013 6.05787 58.3827 5.70542L58.5182 5.10897H66.5161H74.514V2.80448V0.499998H64.4828H54.4786L54.2888 1.50313ZM32.708 21.6741C34.7956 22.1893 39.269 24.1413 39.269 24.548C39.269 24.6564 38.6454 25.3884 37.8863 26.1475L36.5036 27.5573L34.7142 26.744C29.8342 24.5209 24.195 24.6564 19.2064 27.0965C14.8144 29.2654 10.9645 34.0641 9.85293 38.7544C9.33781 41.0047 9.33781 45.3968 9.85293 47.4301C10.0969 48.2977 10.5849 49.7617 10.9916 50.6835L11.6965 52.3373L10.1783 53.8556L8.66002 55.3738L7.41289 52.7982C0.85189 39.1882 9.33781 23.4635 24.4932 21.1319C26.6621 20.7795 30.1595 21.0235 32.708 21.6741ZM29.2106 30.0787C30.1595 30.2143 31.3795 30.5396 31.8946 30.7565L32.8707 31.1632L24.2221 39.8118C19.4504 44.5834 15.465 48.4875 15.3566 48.4875C15.0312 48.4875 14.2992 45.939 14.1366 44.231C13.4317 36.9922 19.3691 30.377 27.0688 29.8076C27.2857 29.8076 28.2617 29.9161 29.2106 30.0787ZM130.771 32.7357C132.18 33.3592 133.671 35.0401 134.295 36.6668C135.488 39.7847 133.671 43.5261 130.31 44.8003L129.09 45.2612L124.942 55.2925C122.637 60.7961 120.685 65.2967 120.549 65.2967C120.441 65.2967 119.411 64.9713 118.272 64.5918C117.106 64.2122 115.669 63.8055 115.073 63.6971C114.449 63.5886 113.988 63.3717 114.016 63.2091C114.043 63.0735 116.103 58.5188 118.597 53.1507L123.125 43.3634L122.366 41.6825C120.739 38.0224 121.932 34.4437 125.348 32.8712C127.029 32.085 129.225 32.0308 130.771 32.7357ZM46.318 42.1705C46.2096 42.7398 46.0198 43.6616 45.9384 44.2039L45.7487 45.2341H35.6632H25.6048L27.611 43.2007L29.6173 41.1674H38.0761H46.5349L46.318 42.1705ZM69.9051 43.2007V45.2341H66.5161H63.1272V47.6741V50.1142H66.5161H69.9051V55.7534C69.9051 60.2268 69.8237 61.501 69.5255 61.9348C69.3086 62.2331 68.1699 63.1277 67.0041 63.8869C65.1334 65.1069 64.6725 65.2967 63.5067 65.2967C61.3378 65.2967 57.3524 64.3478 52.3639 62.6668C48.5954 61.4197 47.6736 61.013 47.6736 60.6335C47.6736 60.3624 48.1074 57.8681 48.6496 55.1298L49.6256 50.1142H54.2075H58.7893V47.6741V45.2341H54.7226C52.3368 45.2341 50.6559 45.1257 50.6559 44.963C50.6559 44.6648 51.1981 41.9807 51.3336 41.4927C51.415 41.2487 53.5297 41.1674 60.6871 41.1674H69.9051V43.2007ZM44.5829 50.9818C44.4744 51.4698 44.0949 53.5845 43.6882 55.6721C43.3086 57.7596 42.9562 59.4948 42.9291 59.5219C42.9019 59.5761 41.8717 59.3863 40.5975 59.1694C36.1783 58.3019 29.4004 59.0339 23.6798 60.9588C22.3514 61.3926 21.1585 61.7722 21.05 61.7722C20.9145 61.7722 20.8331 59.1423 20.8331 55.9432V50.1142H32.7893H44.7726L44.5829 50.9818ZM84.5182 56.621C85.2502 58.6001 86.4431 60.0641 87.9343 60.7148C90.6454 61.9619 93.9802 60.7419 95.39 57.9765C96.2575 56.2685 97.2335 56.2685 98.1011 57.9765C99.1585 60.037 101.192 61.2299 103.659 61.2299C104.581 61.2299 104.933 61.3926 105.801 62.2873L106.858 63.3717L106.072 63.5344C103.551 64.0766 102.656 64.3206 100.839 65.0527C93.3566 68.0349 87.5005 75.1382 85.928 83.1361L85.4942 85.3592L85.1418 83.9494C84.5995 81.5365 83.244 79.1778 81.2648 77.0902C78.2012 73.891 74.514 72.2643 70.122 72.2372L67.7361 72.2101V70.8545C67.7361 70.0954 67.8446 69.3634 67.953 69.2007C68.0615 69.0652 69.2544 68.1705 70.6371 67.2216C73.6194 65.1882 74.514 63.8055 74.514 61.2028C74.514 60.3081 74.6496 59.549 74.8665 59.4135C75.0292 59.2508 75.951 59.061 76.8999 58.9797C79.0146 58.817 80.6413 57.8952 81.563 56.3498C83 53.964 83.5693 54.0182 84.5182 56.621ZM39.4317 63.8055C40.733 64.0495 41.8446 64.2664 41.8988 64.3206C41.953 64.3749 32.2471 114.369 31.8133 116.158C31.7049 116.7 31.8946 116.782 34.0093 117.188C35.2836 117.459 36.3681 117.622 36.3952 117.568C36.4494 117.514 38.6996 105.964 41.465 91.9202C44.2033 77.8493 46.5078 66.2185 46.5891 66.0829C46.6705 65.9473 48.7038 66.5167 51.0625 67.33C55.1293 68.6856 60.0365 69.9056 61.5818 69.9056C62.9645 69.9056 63.1272 70.1225 63.1272 71.939V73.647L61.6903 74.4604C58.6267 76.1955 55.5359 80.3436 54.6413 84.0036L54.2617 85.4948L51.903 85.5761L49.5714 85.6575V94.1163C49.5714 103.036 49.7883 105.883 50.683 109.217C51.3608 111.712 53.1772 115.616 54.7226 117.893C56.2679 120.17 59.5213 123.559 61.4191 124.861L62.9103 125.891L45.098 125.972C28.5328 126.027 27.1772 125.999 26.2825 125.566C25.5505 125.186 25.2523 124.861 25.0896 124.129C24.8999 123.18 21.1042 67.1402 21.2398 66.9776C21.4838 66.7065 25.9843 65.1882 28.3159 64.6189C33.2231 63.3717 35.8258 63.182 39.4317 63.8055ZM114.449 68.4416C116.944 68.9838 120.848 70.8816 122.773 72.4541C125.972 75.1111 128.547 79.1507 129.551 83.0819C129.849 84.2477 130.093 85.2779 130.093 85.4135C130.093 85.5219 129.144 85.6303 127.978 85.6303H125.836L125.511 84.1392C125.023 81.9703 123.505 79.0965 121.932 77.3884C113.663 68.3603 98.7247 71.6408 95.1731 83.2445L94.441 85.6303H92.3806H90.3201L90.537 84.329C91.6486 78.2289 96.2304 72.3728 102.005 69.743C105.665 68.062 110.491 67.574 114.449 68.4416ZM72.9145 77.3884C76.439 78.4458 79.0959 80.9943 80.343 84.573L80.7226 85.6303H69.9051H59.0876L59.4671 84.573C60.3347 82.1058 62.0156 79.9369 64.0761 78.6356C66.5703 77.036 70.0677 76.548 72.9145 77.3884ZM114.992 78.1204C117.838 79.5302 120.089 82.1601 120.739 84.8712L120.929 85.6303H110.193C103.876 85.6303 99.4567 85.5219 99.4567 85.3863C99.4567 84.817 100.622 82.4854 101.49 81.2925C102.602 79.7742 104.852 78.1475 106.831 77.4426C107.916 77.0631 108.837 76.9546 110.627 77.036C112.687 77.1173 113.202 77.2529 114.992 78.1204ZM134.702 92.4082V94.5772H131.313H127.924V96.8816V99.1861H131.313H134.702V101.192C134.702 112.444 127.165 122.123 116.049 125.159L113.419 125.864L94.8477 125.891C78.2554 125.891 76.0594 125.837 74.1887 125.43C62.6121 122.855 54.4515 113.013 54.4515 101.626V99.1861H89.1543H123.857V96.8816V94.5772H89.1543H54.4515V92.4082V90.2393H94.5766H134.702V92.4082Z" fill="#106194"/>
<path d="M125.755 38.7273V41.1674H128.059H130.364V38.7273V36.2873H128.059H125.755V38.7273Z" fill="#106194"/>
<path d="M67.4648 81.2925V83.7325H69.9049H72.3449V81.2925V78.8525H69.9049H67.4648V81.2925Z" fill="#106194"/>
</svg>
