<svg width="156" height="130" viewBox="0 0 156 130" fill="none" xmlns="http://www.w3.org/2000/svg">
<path d="M15.9926 0.602007C15.3906 1.20402 15.3906 1.59532 15.3906 41.5387V81.8734H8.94912C2.89892 81.8734 2.47751 81.9035 1.725 82.5055L0.942383 83.1075V96.3216C0.942383 109.536 0.942383 109.536 1.60459 110.168C2.2367 110.74 2.62801 110.77 8.82871 110.77H15.3906V112.124C15.3906 114.352 15.9625 116.489 17.3773 119.439C19.6047 124.044 23.3673 127.355 28.5445 129.161C31.0429 130.064 36.2202 130.275 39.0195 129.613C42.5714 128.77 45.3406 127.205 48.0497 124.466C51.5112 121.004 53.257 117.422 53.7989 112.636L54.0096 110.77H60.5414C66.9528 110.77 67.0732 110.77 67.7053 110.078C68.518 109.205 68.5481 107.76 67.7956 106.827C67.2237 106.104 67.1334 106.104 60.2103 105.954L53.2269 105.803L52.7152 104.298C50.7587 98.6393 45.8222 94.0641 39.5914 92.2279C37.2135 91.5055 32.1867 91.5356 29.5379 92.2279C23.6382 93.8232 18.491 98.5791 16.4441 104.358L15.8722 105.954H10.8153H5.75846V96.3216V86.6894H51.5112H97.264V96.3216V105.954H86.8492C76.2538 105.954 75.6217 106.014 74.7789 107.128C74.207 107.85 74.3274 109.084 75.0197 109.987L75.6217 110.77H91.2439H106.836L107.047 112.486C107.378 115.345 107.799 116.82 109.063 119.469C110.057 121.516 110.749 122.509 112.736 124.466C116.89 128.619 121.164 130.215 127.214 129.944C132.482 129.703 136.274 128.048 139.916 124.405C143.197 121.124 145.425 116.128 145.425 112.124V110.77H149.579C153.341 110.77 153.793 110.71 154.395 110.168L155.057 109.536V94.6962C155.057 77.9001 155.087 78.171 152.739 75.5522C151.084 73.686 150.361 73.3248 144.913 71.4887L140.639 70.0439L140.548 55.2645L140.458 40.4852L139.736 39.0403C138.803 37.2343 137.087 35.5186 135.251 34.5855L133.836 33.8631L117.973 33.7728L102.08 33.6825V17.5185C102.08 1.62542 102.08 1.29432 101.478 0.662208L100.846 -2.50758e-06H58.7353C16.9859 -2.50758e-06 16.5946 -2.50758e-06 15.9926 0.602007ZM49.1032 12.4315C49.1032 19.6857 49.1333 20.077 49.7052 20.7091C50.0664 21.0703 50.4878 21.3713 50.6985 21.4015C51.7821 21.4918 53.0463 21.2208 55.7253 20.3178L58.7353 19.2944L61.3842 20.1974C62.829 20.7091 64.6049 21.2208 65.3273 21.3713C66.5615 21.5821 66.7421 21.552 67.5247 20.7693L68.3675 19.9265V12.3713V4.81608H82.8157H97.264V43.3447V81.8734H90.0399H82.8157V77.5991V73.3549L84.7422 75.191C86.2773 76.666 86.8793 77.0573 87.6318 77.0573C88.896 77.0573 90.0399 75.8834 90.0399 74.589C90.0399 73.7462 89.498 73.084 85.7355 69.3214C81.8826 65.4686 81.3408 65.0171 80.4077 65.0171C79.4746 65.0171 78.9328 65.4686 75.0799 69.3214C71.3173 73.084 70.7755 73.7462 70.7755 74.589C70.7755 75.8834 71.9194 77.0573 73.1836 77.0573C73.9361 77.0573 74.5381 76.666 76.0732 75.191L77.9997 73.3549V77.5991V81.8734H69.5715H61.1434V77.5991V73.3549L63.0999 75.2512C64.9661 77.0272 65.1467 77.1175 66.2003 76.967C67.7053 76.7262 68.4879 75.7329 68.2471 74.3482C68.1267 73.4753 67.314 72.5422 63.9126 69.1408C58.4042 63.6927 59.0363 63.6626 53.4076 69.3214C49.645 73.084 49.1032 73.7462 49.1032 74.589C49.1032 75.8834 50.247 77.0573 51.4811 77.0573C52.1734 77.0573 52.8657 76.6359 54.3708 75.2211L56.3273 73.385V77.6292V81.8734H47.8992H39.471V77.5991V73.3549L41.3975 75.191C42.4811 76.2446 43.5948 77.0573 43.956 77.0573C45.7921 77.0573 47.0563 75.3716 46.4242 73.7763C46.2135 73.3248 44.257 71.1576 42.0597 68.9602C36.7319 63.7228 37.3339 63.6927 31.7352 69.2913C27.7619 73.2646 27.4308 73.6559 27.4308 74.7094C27.4308 75.5522 27.6114 75.9737 28.2134 76.4252C29.6282 77.5389 30.6215 77.2379 33.0897 74.8599L34.6549 73.3248V77.5991V81.8734H27.4308H20.2067V67.4251V52.9769H38.4175C51.3005 52.9769 56.8089 52.8866 57.3507 52.6458C58.6149 52.0739 58.7955 51.1106 58.6751 45.1507C58.5848 39.823 58.5547 39.6725 57.8624 39.1005C57.2002 38.5587 56.4176 38.5286 38.6884 38.5286H20.2067V36.1206V33.7126H32.2168C39.9225 33.7126 44.5279 33.5922 45.1299 33.3814C46.1834 33.0202 46.8155 31.756 46.5145 30.5821C46.0931 28.8965 46.1533 28.8965 32.6382 28.8965H20.2067V16.8563V4.81608H34.6549H49.1032V12.4315ZM63.5514 10.2342C63.5514 13.2141 63.431 15.6523 63.3106 15.6523C63.1601 15.6523 62.2571 15.3814 61.2939 15.0502C60.3307 14.7191 59.1868 14.4482 58.7353 14.4482C58.2838 14.4482 57.14 14.7191 56.1768 15.0502C55.2136 15.3814 54.3106 15.6523 54.1601 15.6523C54.0397 15.6523 53.9193 13.2141 53.9193 10.2342V4.81608H58.7353H63.5514V10.2342ZM133.385 39.1607C135.702 40.4852 135.612 39.7929 135.793 57.221C135.943 71.8499 135.973 72.8131 136.515 73.4151C136.846 73.7763 139.074 74.6793 142.234 75.7329C145.064 76.666 147.833 77.7496 148.375 78.171C149.488 79.0138 150.241 80.3081 150.241 81.3917C150.241 82.1142 150.181 82.1142 148.585 81.9637C144.371 81.5121 140.849 84.763 140.849 89.0674C140.849 91.3249 141.602 93.0707 143.197 94.4855C144.763 95.84 146.659 96.442 148.736 96.2614L150.241 96.1109V101.017V105.954H147.592H144.973L144.401 104.389C143.438 101.649 142.084 99.5423 139.736 97.2246C137.207 94.6962 134.498 93.1008 131.278 92.2279C128.629 91.5356 123.602 91.5055 121.224 92.2279C114.903 94.0942 110.177 98.5189 108.07 104.449L107.588 105.803L104.849 105.894L102.08 105.984V72.2412V38.5286H117.16C131.91 38.5286 132.271 38.5286 133.385 39.1607ZM53.9193 45.7528V48.1608H37.063H20.2067V45.7528V43.3447H37.063H53.9193V45.7528ZM149.729 87.6526C150.482 88.5256 150.391 89.8801 149.488 90.753C148.585 91.656 147.562 91.7162 146.508 90.8734C145.666 90.2112 145.455 88.947 146.057 87.8634C146.719 86.5991 148.736 86.4787 149.729 87.6526ZM37.6048 96.7731C41.6985 97.7363 45.5513 100.656 47.2972 104.118C50.3072 110.138 49.2838 116.369 44.5279 121.064C38.8389 126.663 30.1098 126.633 24.4509 120.974C19.8756 116.369 18.9124 109.957 21.9224 103.997C22.9458 102.011 25.986 99.0306 28.0328 98.0373C31.4944 96.3818 34.2937 95.9905 37.6048 96.7731ZM129.321 96.7731C132.181 97.5256 134.288 98.6995 136.274 100.686C139.164 103.546 140.609 106.917 140.609 110.77C140.609 123.532 125.348 130.004 116.287 121.064C111.502 116.338 110.478 109.987 113.609 104.057C116.558 98.4587 123.421 95.2681 129.321 96.7731Z" fill="#106194"/>
<path d="M49.7656 29.5888C48.6518 30.7627 48.9227 32.5386 50.3375 33.261C51.3308 33.8029 55.7857 33.8631 57.1703 33.3814C58.7355 32.8396 59.1268 30.8229 57.8927 29.4082C57.5014 28.9868 56.8994 28.8965 53.9194 28.8965C50.6385 28.8965 50.3676 28.9567 49.7656 29.5888Z" fill="#106194"/>
<path d="M107.769 43.9166L107.047 44.4885L106.957 58.3046C106.926 65.8899 106.957 72.3916 107.047 72.7528C107.137 73.114 107.498 73.7161 107.86 74.0472C108.492 74.6191 108.883 74.6492 118.485 74.6492C128.779 74.6492 130.104 74.5288 130.676 73.4452C130.856 73.0839 130.977 67.395 130.977 58.7561V44.639L130.284 44.0069C129.592 43.3447 129.442 43.3447 119.027 43.3447C109.094 43.3447 108.432 43.3748 107.769 43.9166ZM126.161 58.9969V69.8331H118.937H111.712V58.9969V48.1607H118.937H126.161V58.9969Z" fill="#106194"/>
<path d="M107.859 77.6592C107.498 77.9903 107.137 78.5923 107.017 78.9836C106.806 79.8265 107.558 81.4218 108.251 81.6927C108.522 81.783 110.689 81.8733 113.037 81.8733C116.95 81.8733 117.431 81.8131 118.154 81.2412C118.756 80.7596 118.936 80.3683 118.936 79.4653C118.936 78.5622 118.756 78.1709 118.154 77.6893C117.431 77.1174 116.95 77.0572 112.946 77.0572C108.913 77.0572 108.461 77.1174 107.859 77.6592Z" fill="#106194"/>
<path d="M32.216 101.529C27.5504 102.853 24.8414 106.556 25.0822 111.372C25.2327 114.924 27.0688 117.783 30.2896 119.409C32.3063 120.462 35.4669 120.673 37.6341 119.95C44.2863 117.753 46.3331 109.054 41.3666 104.027C39.1391 101.77 35.196 100.686 32.216 101.529ZM36.0689 106.285C36.5204 106.435 37.3632 107.007 37.905 107.549C40.9753 110.499 38.7779 115.586 34.4133 115.586C32.9986 115.586 31.5237 114.653 30.5003 113.178C29.8983 112.305 29.808 111.853 29.8983 110.529C30.0789 108.603 30.7712 107.549 32.5471 106.616C34.022 105.893 34.8047 105.803 36.0689 106.285Z" fill="#106194"/>
<path d="M124.144 101.439C121.615 101.95 118.876 104.057 117.642 106.465C116.378 108.904 116.408 112.696 117.732 115.315C120.652 121.004 128.689 122.148 133.144 117.482C134.859 115.676 135.612 113.96 135.732 111.462C136.003 106.616 133.264 102.793 128.689 101.589C126.792 101.107 126.07 101.077 124.144 101.439ZM128.267 106.616C130.043 107.549 130.736 108.603 130.916 110.529C131.007 111.853 130.916 112.305 130.314 113.178C129.291 114.653 127.816 115.586 126.401 115.586C122.007 115.586 119.839 110.499 122.94 107.519C124.625 105.863 126.251 105.592 128.267 106.616Z" fill="#106194"/>
<path d="M52.8057 94.2147C51.391 94.7866 51.0599 96.9839 52.2037 98.0675L52.896 98.7297H71.9497H90.9732L91.6956 97.9772C92.5986 97.1043 92.6588 95.7498 91.8762 94.7866L91.3043 94.0642L72.3711 94.004C61.8359 93.9739 53.1669 94.0642 52.8057 94.2147Z" fill="#106194"/>
</svg>
