<svg width="138" height="131" viewBox="0 0 138 131" fill="none" xmlns="http://www.w3.org/2000/svg">
<path d="M4.3993 0.718194C3.14682 1.03798 2.48061 1.46435 1.68116 2.53029L0.935 3.48964L0.855055 9.53884C0.775109 15.3749 0.801758 15.588 1.33473 16.0677C2.05424 16.7073 3.54655 16.7339 4.26606 16.0677C4.77238 15.6147 4.79903 15.2949 4.79903 10.5781C4.79903 6.39432 4.87897 5.51492 5.2254 5.16849C5.78502 4.58222 11.2213 4.55557 11.701 5.11519C11.9142 5.35503 11.9675 10.3383 11.9408 23.2894L11.8609 41.1173L8.66306 41.1972C5.89162 41.2505 5.43859 41.1972 5.14546 40.7975C4.87897 40.4511 4.79903 38.2126 4.79903 31.6038C4.79903 23.2095 4.77238 22.8364 4.26606 22.3301C3.94628 22.0103 3.38666 21.7971 2.80039 21.7971C2.21413 21.7971 1.65451 22.0103 1.33473 22.3301C0.828406 22.8364 0.801758 23.2095 0.801758 32.4565C0.801758 42.8761 0.801758 42.7961 2.32072 44.2351C3.49325 45.3544 4.29271 45.5143 8.47652 45.5143C13.14 45.5143 14.1793 45.1678 15.3785 43.3557L16.1246 42.2365L16.2046 33.7356L16.2845 25.2614H17.2972C18.1499 25.2614 18.3631 25.368 18.4963 25.8743C18.5763 26.2208 18.9494 26.9403 19.2958 27.4733L19.962 28.4326L20.042 42.1033C20.1219 55.7739 20.1219 55.7739 20.7348 57.0264C22.0939 59.7446 24.812 61.1569 28.1964 60.8904C29.5821 60.7838 30.4882 60.4907 32.62 59.4248C35.9511 57.7459 40.5879 54.8945 43.6525 52.6028L45.9709 50.844L46.344 51.5901C46.5305 51.9898 47.2234 53.1624 47.863 54.175C49.302 56.5467 50.3413 59.2382 50.5544 61.2635L50.7143 62.8624L49.9415 62.6492C49.5152 62.5426 48.316 62.436 47.2767 62.4627C43.8657 62.4893 40.961 64.3814 39.522 67.5259C38.6959 69.338 37.3102 79.7309 37.3102 84.2078C37.3102 86.9793 37.4168 87.7521 38.2962 91.0032L39.2821 94.6807L39.3887 103.208L39.4687 111.762L36.8038 116.239C35.3115 118.718 34.0057 121.169 33.8459 121.702C32.9398 124.98 34.6187 128.551 37.7099 129.91C38.5893 130.283 39.7885 130.39 44.5319 130.47C48.2893 130.55 50.8209 130.47 51.8069 130.256C55.138 129.564 57.2965 127.005 57.2965 123.754C57.2965 122.848 56.8701 119.704 56.3372 116.799L55.4045 111.469L55.5111 103.475C55.6177 94.4942 55.9108 92.2823 56.8701 92.4955C60.8674 93.4282 61.2671 93.4815 69.0218 93.4815C76.7765 93.4815 77.1763 93.4282 81.1735 92.4955C82.1329 92.2823 82.3994 94.4942 82.5326 103.368L82.6658 111.256L81.6799 116.826C80.4807 123.568 80.4807 125.273 81.7065 127.218C82.7724 128.977 84.7444 130.15 87.0095 130.39C87.9422 130.496 91.0601 130.523 93.9914 130.47C99.8275 130.336 100.627 130.176 102.279 128.578C104.065 126.872 104.864 124.154 104.224 121.835C104.065 121.249 102.732 118.744 101.266 116.293L98.6016 111.816V109.551C98.6016 107.392 98.575 107.259 97.8022 106.486C97.1093 105.82 96.8428 105.713 96.1233 105.846C94.8176 106.086 94.3379 106.859 94.3379 108.698V110.27H90.6337H86.9296L86.7964 102.462C86.6365 94.4675 86.5832 93.9345 85.304 89.4842C84.3181 86.1265 84.3181 83.515 85.2774 76.3199C86.1302 69.8443 86.3433 69.0182 87.4626 67.9789C89.0348 66.4866 91.1134 66.2734 92.9255 67.3927C94.5777 68.4053 94.8442 69.2581 95.697 75.5737C96.603 82.4757 96.6829 86.0999 95.9101 88.818C94.2579 94.8139 93.8582 98.9977 94.8708 100.09C95.2706 100.49 95.7502 100.677 96.4698 100.677C98.042 100.677 98.495 99.9304 98.6816 96.8925C98.7882 95.3469 99.1613 93.295 99.6676 91.4829C100.973 86.9793 101.027 83.1952 99.9607 75.0941C99.2412 69.6045 99.028 68.6185 98.3351 67.1795C96.8695 64.2215 94.0714 62.4893 90.7403 62.4627C89.7277 62.436 88.5285 62.5426 88.1021 62.6492L87.3293 62.8624L87.4892 61.3168C87.7291 59.105 88.5552 56.9198 90.1807 54.175C90.9802 52.8426 91.7263 51.5635 91.8596 51.3236C92.0461 50.9239 92.3925 51.0838 94.4178 52.6028C97.4557 54.8945 102.093 57.7459 105.424 59.4248C107.556 60.4907 108.462 60.7838 109.847 60.8904C113.232 61.1569 115.95 59.7446 117.309 57.0264C117.922 55.7739 117.922 55.7739 118.002 42.1033L118.082 28.4326L118.748 27.4733C119.094 26.9403 119.467 26.2208 119.547 25.8743C119.681 25.368 119.894 25.2614 120.747 25.2614H121.786V33.4425C121.786 40.8241 121.839 41.7568 122.292 42.7162C123.358 45.0612 124.584 45.5143 129.647 45.5143C132.312 45.5143 133.804 45.4077 134.391 45.1412C135.377 44.7415 136.895 43.1159 137.109 42.2365C137.189 41.9167 137.215 33.0694 137.189 22.5699L137.109 3.48964L136.363 2.53029C135.137 0.904733 134.364 0.664897 130.313 0.531655C126.289 0.398413 124.904 0.664897 123.625 1.73084C121.866 3.22315 121.786 3.67617 121.786 12.79V20.9977H120.853C120.08 20.9977 119.92 20.8911 119.92 20.4647C119.92 19.612 119.174 18.0131 118.375 17.1603C116.909 15.588 116.056 15.4015 110.327 15.4015C104.464 15.4015 103.691 15.588 102.146 17.3468C101.4 18.2262 100.734 19.7452 100.734 20.6512C100.734 20.9177 98.8415 20.9977 92.206 20.9977H83.6785V19.3188C83.6518 13.2963 79.2815 7.91328 73.2323 6.47426C71.0738 5.96794 66.9699 5.96794 64.8114 6.47426C58.7888 7.91328 54.3918 13.3229 54.3652 19.3188V20.9977H45.8377C39.2022 20.9977 37.3102 20.9177 37.3102 20.6512C37.3102 19.7452 36.6439 18.2262 35.8978 17.3468C34.3522 15.588 33.5794 15.4015 27.77 15.4015C22.1738 15.4015 21.3744 15.5614 19.8821 16.9471C19.0293 17.7466 18.1499 19.5054 18.1233 20.3848C18.1233 20.9177 17.99 20.9977 17.1906 20.9977H16.2579V12.79C16.2579 5.43497 16.2046 4.50228 15.7515 3.54293C15.1653 2.21051 13.9128 1.11792 12.5804 0.744843C11.4878 0.45171 5.62513 0.425061 4.3993 0.718194ZM132.818 5.16849C133.191 5.54157 133.245 7.51355 133.245 22.9697C133.245 36.5337 133.165 40.4511 132.898 40.7975C132.605 41.1972 132.152 41.2505 129.381 41.1972L126.183 41.1173L126.103 23.2894C126.076 10.3383 126.13 5.35503 126.343 5.11519C126.822 4.55557 132.259 4.58222 132.818 5.16849ZM73.8186 11.191C75.9771 12.2037 77.3895 13.5628 78.4021 15.6147L79.2815 17.3735L79.3614 22.4633C79.468 29.0988 79.2815 29.7384 76.0037 32.9362C73.1257 35.7876 72.2996 36.1873 69.0218 36.1873C65.7441 36.1873 64.9446 35.8142 62.0399 32.9628C58.8421 29.8183 58.6289 29.1788 58.6289 22.8631C58.6289 18.6793 58.7089 17.9065 59.1885 16.6007C59.9081 14.682 61.1072 13.1364 62.7328 12.0171C64.7048 10.6581 66.0639 10.3383 69.4216 10.4182C71.9265 10.4715 72.5661 10.5781 73.8186 11.191ZM32.6467 20.1982C33.0198 20.598 33.0997 21.0776 32.9931 22.7032C32.8599 25.7944 32.6733 25.901 27.85 26.0076L23.9859 26.0875L23.1865 25.3147C22.4403 24.5686 22.387 24.3554 22.387 22.5699C22.387 19.6386 22.3337 19.6653 27.7167 19.6653C31.7939 19.6653 32.1937 19.7186 32.6467 20.1982ZM115.177 20.1183C115.55 20.4647 115.657 20.9444 115.657 22.5166C115.657 24.3554 115.603 24.5686 114.857 25.3147L114.058 26.0875L110.194 26.0076C105.37 25.901 105.184 25.7944 105.051 22.7032C104.891 19.6653 104.864 19.6653 110.274 19.6653C114.004 19.6653 114.751 19.7452 115.177 20.1183ZM54.3652 26.5939V27.9263H50.3146C47.863 27.9263 45.5445 28.0862 44.4786 28.2994C41.2275 28.9922 37.5766 31.0175 34.7253 33.709L33.3129 35.0148V32.4032C33.3129 29.8183 33.3129 29.7917 34.0857 29.4186C35.0983 28.8856 36.3775 27.3667 36.8038 26.2208L37.1503 25.2614H45.7577H54.3652V26.5939ZM101.24 26.2208C101.666 27.3667 102.945 28.8856 103.958 29.4186C104.731 29.7917 104.731 29.8183 104.731 32.4032V35.0148L103.345 33.709C100.387 30.9642 96.8695 29.0189 93.645 28.326C92.4991 28.0862 90.2873 27.9263 87.7557 27.9263H83.6785V26.5939V25.2614H92.2859H100.893L101.24 26.2208ZM29.0491 35.8142C29.0491 39.2252 29.1557 41.4904 29.3423 41.8368C29.7153 42.5563 31.2876 43.1692 32.1937 42.956C33.2063 42.7162 33.5261 42.3964 34.592 40.7175C36.7505 37.3598 40.8811 33.9488 44.1055 32.8562C44.8517 32.6164 46.4239 32.3499 47.5965 32.27L49.7816 32.1101L49.9682 35.4145C50.1281 38.3991 49.8083 44.7148 49.4086 46.7934L49.2487 47.5662L48.5825 46.9533C46.9836 45.4876 45.2514 45.7808 42.3734 48.0725C39.442 50.3643 35.7379 52.7893 31.9805 54.8945C29.209 56.4135 28.756 56.5734 27.3969 56.5734C26.0645 56.5734 25.7714 56.4668 25.1318 55.8272L24.3857 55.1077L24.3057 42.7162L24.2258 30.3246H26.6508H29.0491V35.8142ZM113.738 42.7162L113.658 55.1077L112.939 55.8006C112.432 56.3069 111.873 56.5467 110.94 56.6267C109.767 56.7599 109.368 56.6267 107.049 55.4009C103.345 53.4555 99.2145 50.8173 96.1233 48.419C94.6577 47.2731 93.112 46.2604 92.6857 46.1805C91.6197 45.9406 90.2607 46.2071 89.4612 46.8467L88.795 47.3797L88.6351 46.7667C88.262 45.1945 87.9156 38.4258 88.0755 35.4145L88.262 32.1367L90.4472 32.2433C91.6197 32.3233 93.2186 32.5898 93.9382 32.8562C97.2159 33.9755 101.32 37.3865 103.452 40.7175C104.518 42.3964 104.837 42.7162 105.85 42.956C106.756 43.1692 108.328 42.5563 108.701 41.8368C108.888 41.4904 108.995 39.2252 108.995 35.8142V30.3246H111.393H113.818L113.738 42.7162ZM55.9641 32.4032C55.9641 32.5365 56.3638 33.176 56.8168 33.8156L57.6962 34.9881L57.7229 38.5857C57.7495 44.3151 59.0553 48.1791 61.9866 51.3503C64.1185 53.6687 66.2504 54.6813 69.0218 54.6813C71.7933 54.6813 73.9252 53.6687 76.057 51.3503C79.015 48.1791 80.2941 44.3151 80.3208 38.5857L80.3474 34.9615L81.2268 33.7889C81.6799 33.1494 82.0796 32.5098 82.0796 32.4032C82.0796 32.2966 82.4793 32.19 82.959 32.19H83.8384V37.8395C83.8384 43.9687 84.1315 47.0332 85.0909 50.7907C85.6771 53.1357 85.6771 53.2423 85.2241 54.0951C84.3714 55.7206 83.412 59.1583 83.0922 61.7432L82.7991 64.3281L81.7065 64.7811C79.9211 65.5273 78.1356 67.0196 76.8831 68.7784C74.8578 71.6298 75.6573 71.3633 69.0218 71.3633C62.3864 71.3633 63.1858 71.6298 61.1605 68.7784C59.8814 66.9929 58.1226 65.5273 56.3105 64.7811L55.2179 64.3281L55.0314 62.3028C54.7916 59.7446 54.0187 56.7333 53.0861 54.708L52.3399 53.1091L52.8196 51.3769C53.8056 47.7794 54.1786 44.2618 54.1786 38.106L54.2053 32.19H55.0847C55.5644 32.19 55.9641 32.2966 55.9641 32.4032ZM75.9771 40.9307C75.1776 46.9799 71.66 51.1104 68.0625 50.311C66.1172 49.858 64.0119 47.5129 62.8927 44.5549C62.3864 43.1426 61.6669 39.1986 61.9067 38.9587C61.96 38.9055 62.7328 39.1719 63.5855 39.5717C65.0779 40.2912 65.371 40.3178 69.0218 40.3178C72.7793 40.3178 72.9392 40.2912 74.4848 39.5184C75.3642 39.0653 76.137 38.7456 76.1903 38.7722C76.2436 38.7989 76.137 39.7582 75.9771 40.9307ZM48.9822 66.9663C50.1281 67.4726 51.0608 68.2987 51.5671 69.2581C51.7803 69.6311 52.3132 72.829 52.7663 76.3199C53.7256 83.515 53.7256 86.1265 52.7396 89.4842C51.4605 93.9345 51.4072 94.4675 51.2473 102.462L51.1141 110.27H47.4099H43.7058V102.862C43.7058 95.0804 43.5992 94.0678 42.1335 88.818C41.3607 86.0999 41.4407 82.4757 42.3467 75.5471C43.2261 68.9383 43.5193 68.1655 45.6245 67.1262C46.9836 66.46 47.6498 66.4333 48.9822 66.9663ZM58.2825 72.2427C58.9754 73.282 59.9347 74.3479 60.5476 74.7743L61.6669 75.4938H69.0218H76.3768L77.496 74.7743C78.109 74.3479 79.0683 73.282 79.7612 72.2427C80.4007 71.2567 81.1202 70.2707 81.3867 70.0575C81.8131 69.6844 81.8397 69.7377 81.7065 70.5905C80.8538 75.5471 80.1609 82.7155 80.2941 85.2738L80.454 88.1518L78.9351 88.6048C77.6293 89.0312 76.2702 89.0845 69.0218 89.0845C61.8534 89.0845 60.4144 89.0046 59.1619 88.6315L57.6962 88.1785L57.6696 84.1013C57.6696 81.1699 57.4564 78.6383 56.9501 74.9875C56.5504 72.2427 56.2306 69.8976 56.2306 69.8443C56.2306 69.4446 57.2699 70.6438 58.2825 72.2427ZM52.3132 118.611C53.2193 123.728 53.2193 124.5 52.3932 125.326C51.5138 126.206 50.6344 126.312 44.6651 126.206L39.3887 126.126L38.6159 125.246C38.1629 124.74 37.8431 124.074 37.8431 123.674C37.8431 123.061 39.5753 119.864 42.2934 115.52L42.9063 114.534H47.25H51.6204L52.3132 118.611ZM97.7222 118.798C99.2412 121.329 100.201 123.221 100.201 123.648C100.201 124.074 99.8808 124.74 99.4277 125.246L98.6549 126.126L93.3785 126.206C87.4093 126.312 86.5299 126.206 85.6505 125.326C84.8244 124.5 84.8244 123.728 85.7304 118.611L86.4499 114.534L90.8469 114.587L95.2439 114.667L97.7222 118.798Z" fill="#106194"/>
</svg>
