<svg width="160" height="131" viewBox="0 0 160 131" fill="none" xmlns="http://www.w3.org/2000/svg">
<path d="M37.6466 0.785927C34.9324 1.48024 32.7548 3.08979 31.4924 5.33053L30.5141 7.03475L24.6124 7.16099C19.4997 7.25567 18.5214 7.38191 17.2905 7.91843C15.2076 8.89678 13.9452 10.0645 12.9984 12.0212C12.241 13.5992 12.1463 14.1988 11.9885 18.3016L11.8307 22.8146L10.7261 23.0355C7.34922 23.6667 3.5305 26.7911 1.76315 30.3574L0.72168 32.5035V58.2246V83.9458L1.73159 86.0288C4.19325 91.0783 9.05345 93.8871 15.2707 93.8871H17.8271L18.0164 95.4336C18.2689 97.4534 19.1526 99.2207 20.6359 100.515C22.3717 102.03 23.7287 102.471 27.1687 102.661L30.23 102.819V112.665C30.23 124.532 30.2931 124.942 33.0388 127.688C36.1001 130.717 32.2183 130.496 79.7788 130.496C127.339 130.496 123.457 130.717 126.519 127.688C129.264 124.942 129.328 124.532 129.328 112.665V102.819L132.42 102.661C135.829 102.471 137.186 102.03 138.922 100.515C140.405 99.2207 141.289 97.4534 141.541 95.4336L141.731 93.8871H144.287C152.208 93.8871 158.047 89.1216 158.994 81.8944C159.372 78.8016 159.372 37.6477 158.994 34.5548C158.583 31.5251 157.226 28.7163 155.175 26.6649C153.502 24.9922 150.694 23.3827 148.831 23.0355L147.695 22.8146L147.569 18.3647C147.411 13.252 146.969 11.8318 144.95 9.78045C142.772 7.60283 141.636 7.31879 134.945 7.16099L129.044 7.03475L128.065 5.33053C127.118 3.6263 125.383 2.11144 123.331 1.1962C122.542 0.817487 120.901 0.659688 117.65 0.565009C112.443 0.40721 111.465 0.691248 110.171 2.64795L109.445 3.72098V24.582C109.445 44.8433 109.477 45.4745 110.076 46.4844C111.339 48.5358 112.191 48.7883 117.493 48.6936C121.532 48.5989 122.448 48.5042 123.71 47.9046C125.477 47.0841 127.718 44.938 128.475 43.2969L129.044 42.1292H134.346C140.342 42.1292 142.046 41.782 144.224 40.1409C145.044 39.5097 145.928 38.4051 146.496 37.3005C147.348 35.6279 147.443 35.1545 147.569 31.2411C147.664 28.9056 147.758 26.9805 147.853 26.9805C147.916 26.9805 148.484 27.2014 149.116 27.4539C151.104 28.2745 152.903 30.0102 153.913 32.0932L154.891 34.0183V58.2246V82.4309L153.913 84.3561C152.145 87.9223 149.463 89.5003 144.792 89.7212L141.731 89.879L141.541 88.2695C141.32 86.3128 140.437 84.577 139.048 83.2831C137.218 81.5473 136.113 81.137 132.578 81.0108L129.359 80.8845L129.264 70.4067C129.17 60.5285 129.138 59.8657 128.507 58.5087C127.686 56.7729 126.014 55.0055 124.183 54.0588L122.858 53.3329H79.7788H36.6998L34.9955 54.2797C34.0803 54.7846 32.8179 55.8261 32.2498 56.6151C30.3563 59.0452 30.23 60.0551 30.23 71.0379V80.8845L27.0109 81.0108C23.4447 81.137 22.3401 81.5473 20.5096 83.2831C19.121 84.577 18.2373 86.3128 18.0164 88.2695L17.8271 89.879L14.7658 89.7212C10.0002 89.5003 7.38078 87.9223 5.55032 84.1667L4.50885 82.0522V58.2246V34.397L5.55032 32.2825C6.65491 30.0102 8.39069 28.306 10.4421 27.4539C11.0733 27.2014 11.6413 26.9805 11.7045 26.9805C11.7991 26.9805 11.8938 28.8741 11.9885 31.1464C12.1147 34.4602 12.2725 35.6594 12.7775 36.764C13.6927 38.847 14.892 40.1094 16.9118 41.0877C18.6476 41.9398 18.9001 41.9714 24.6124 42.0661L30.5456 42.1923L31.0821 43.3284C31.8396 44.9696 34.0803 47.1156 35.8477 47.9046C37.11 48.5042 38.0253 48.5989 42.0649 48.6936C47.367 48.7883 48.2191 48.5358 49.4815 46.4844C50.0811 45.4745 50.1127 44.8433 50.1127 24.582V3.72098L49.3868 2.64795C48.1875 0.817487 47.0514 0.47033 42.5383 0.50189C40.3607 0.533449 38.1831 0.659688 37.6466 0.785927ZM45.8521 24.6135V44.4962L42.5383 44.5908C38.6565 44.6855 37.0785 44.2437 35.6267 42.571C35.0902 42.0029 34.5221 40.9299 34.3328 40.2356C34.1119 39.3835 34.0172 33.9552 34.0803 23.8561L34.175 8.73898L35.1218 7.38191C35.6583 6.65604 36.6998 5.70925 37.4888 5.29897C38.7512 4.63621 39.2245 4.57309 42.3805 4.63621L45.8521 4.73089V24.6135ZM122.1 5.29897C122.858 5.70925 123.931 6.65604 124.436 7.38191L125.383 8.73898L125.477 23.8561C125.54 33.9552 125.446 39.3835 125.225 40.2356C125.035 40.9299 124.467 42.0029 123.931 42.571C122.479 44.2437 120.901 44.6855 117.019 44.5908L113.706 44.4962L113.611 24.9291C113.579 14.1673 113.611 5.17273 113.706 4.95181C113.8 4.69933 114.81 4.57309 117.272 4.57309C120.27 4.57309 120.901 4.66777 122.1 5.29897ZM29.9144 13.252V15.3034H25.5907C22.0245 15.3034 21.1724 15.3981 20.699 15.8399C20.1625 16.3133 20.1309 17.0076 20.1309 24.5504C20.1309 31.746 20.194 32.8506 20.6674 33.3556C21.1093 33.8605 21.7089 33.9236 25.5592 33.9236H29.9144V35.975V38.0264H25.0858C20.699 38.0264 20.1309 37.9633 18.8685 37.3005C16.2806 36.0066 16.1859 35.7226 16.0913 25.3394C15.9966 15.7768 16.1228 14.3566 17.3852 12.9364C18.5529 11.5794 20.1309 11.2322 25.2751 11.2006H29.9144V13.252ZM141.005 11.9896C141.604 12.3683 142.362 13.1258 142.74 13.7254C143.34 14.7669 143.372 15.335 143.372 24.6135C143.372 35.8172 143.34 35.975 140.689 37.3005C139.427 37.9633 138.859 38.0264 134.472 38.0264H129.643V35.975V33.9236H133.967C137.533 33.9236 138.385 33.829 138.859 33.3871C139.395 32.9137 139.427 32.2194 139.427 24.6766C139.427 17.481 139.364 16.3764 138.89 15.8715C138.448 15.3665 137.849 15.3034 133.998 15.3034H129.643V13.2205V11.1375L134.787 11.2638C139.237 11.3584 140.026 11.4531 141.005 11.9896ZM29.9144 24.6135V29.8209H27.0741H24.2337V24.6135V19.4062H27.0741H29.9144V24.6135ZM135.324 24.6135V29.8209H132.484H129.643V24.6135V19.4062H132.484H135.324V24.6135ZM122.984 58.1931C123.552 58.6034 124.31 59.5186 124.625 60.2445C125.193 61.4753 125.225 62.9586 125.225 91.7726C125.225 116.452 125.162 122.196 124.783 123.017C124.246 124.374 122.321 126.015 121.059 126.236C120.491 126.331 101.555 126.362 78.9582 126.331L37.9306 126.236L36.7629 125.447C36.1001 125.005 35.3111 124.09 34.964 123.364C34.3328 122.133 34.3328 121.376 34.3328 91.8042C34.3328 62.9586 34.3643 61.4753 34.9324 60.2445C35.4689 59.0452 36.6367 57.9406 37.8044 57.4988C38.0568 57.4041 57.0874 57.341 80.0944 57.3725L121.911 57.4356L122.984 58.1931ZM30.23 91.8357V98.6211H27.9577C25.2436 98.6211 23.7918 98.0215 22.7504 96.4435C22.0876 95.4967 22.0245 94.9917 22.0245 91.8673C22.0245 86.3444 23.1291 85.0504 27.7684 85.0504H30.23V91.8357ZM135.292 85.6185C137.091 86.5968 137.533 87.8277 137.533 91.8673C137.533 94.9917 137.47 95.4967 136.807 96.4435C135.766 98.0215 134.314 98.6211 131.631 98.6211H129.328V91.8357V85.0504H131.789C133.557 85.0504 134.535 85.2082 135.292 85.6185Z" fill="#106194"/>
<path d="M43.1693 63.9053C42.5381 64.5365 42.5381 64.9468 42.5381 83.8826C42.5381 100.104 42.6012 103.323 42.9799 103.86C43.4218 104.428 44.0845 104.46 67.0284 104.554C87.8263 104.617 90.6982 104.586 91.3294 104.144L92.0869 103.671V83.9458V64.2525L91.3925 63.7791C90.7614 63.3372 87.9525 63.2741 67.2494 63.2741C44.2108 63.2741 43.8005 63.2741 43.1693 63.9053ZM87.9841 83.9458V100.515H67.3125H46.6409V83.9458V67.3769H67.3125H87.9841V83.9458Z" fill="#106194"/>
<path d="M61.9164 70.7853C61.3167 71.1641 60.9696 72.1108 59.1076 78.4859L57.2771 84.7347H55.4466C53.2059 84.7347 52.2275 85.3975 52.2275 86.9439C52.2275 88.5535 52.8903 88.8375 56.6459 88.8375C60.4646 88.8375 60.3384 88.9637 61.6323 84.6401C62.1057 83.0936 62.516 81.8944 62.5791 81.9575C62.6107 82.0206 63.2103 85.2397 63.8731 89.1531C64.7568 94.3289 65.2301 96.3803 65.6404 96.7906C66.3663 97.5164 67.8496 97.5164 68.4808 96.7906C68.7648 96.5065 69.5223 94.2658 70.1535 91.8357C70.7847 89.4056 71.3843 87.3226 71.479 87.1648C71.5421 87.0386 71.9839 87.3542 72.4258 87.8907L73.2148 88.8375H77.4122C81.4203 88.8375 81.6728 88.8059 82.1146 88.1432C82.8089 87.1333 82.7458 86.4074 81.8306 85.5237C81.1363 84.7979 80.8207 84.7347 78.1381 84.7347H75.203L73.7828 82.9674C72.1417 80.916 71.3843 80.3164 70.4059 80.3164C69.3014 80.3164 68.5755 81.2632 68.1336 83.283C67.9127 84.2929 67.6287 84.9872 67.4709 84.861C67.3447 84.7032 66.7766 81.8628 66.2085 78.5806C65.0408 71.6374 65.0408 71.6374 64.4412 71.0063C63.9362 70.5013 62.516 70.3751 61.9164 70.7853Z" fill="#106194"/>
<path d="M105.469 64.0947C104.838 64.6944 104.711 65.0731 104.869 65.7358C105.216 67.1876 105.784 67.377 109.982 67.377C113.454 67.377 113.927 67.3138 114.495 66.7458C115.347 65.8936 115.284 64.9784 114.337 64.0632C113.611 63.3057 113.39 63.2742 109.919 63.2742C106.416 63.2742 106.226 63.3057 105.469 64.0947Z" fill="#106194"/>
<path d="M101.934 73.1524C101.239 73.973 101.176 75.1407 101.808 75.9297C102.439 76.6871 102.439 76.6871 109.508 76.7818C117.146 76.8764 117.871 76.7502 118.408 75.2038C118.629 74.5726 118.566 74.1623 118.156 73.5627L117.651 72.7421H109.95C104.175 72.7421 102.186 72.8368 101.934 73.1524Z" fill="#106194"/>
<path d="M99.0296 82.5256C98.6825 82.8728 98.3984 83.504 98.3984 83.9458C98.3984 84.3876 98.6825 85.0188 99.0296 85.366C99.6293 85.9656 100.071 85.9972 109.855 85.9972C121.248 85.9972 121.437 85.9656 121.437 83.9774C121.437 81.8944 121.437 81.8944 109.981 81.8944C100.071 81.8944 99.6293 81.926 99.0296 82.5256Z" fill="#106194"/>
<path d="M101.997 91.8673C101.366 92.467 101.24 92.8457 101.398 93.5084C101.776 95.0864 102.06 95.1495 110.108 95.1495C117.493 95.1495 117.619 95.1495 118.093 94.4552C118.787 93.4453 118.724 92.7194 117.809 91.8358L117.051 91.0468H109.919H102.786L101.997 91.8673Z" fill="#106194"/>
<path d="M105.406 100.925C105.216 101.114 104.996 101.682 104.869 102.156C104.711 102.819 104.838 103.197 105.469 103.797C106.226 104.586 106.416 104.618 109.919 104.618C113.39 104.618 113.611 104.586 114.337 103.829C115.252 102.945 115.316 102.219 114.621 101.209C114.179 100.546 113.927 100.515 109.95 100.515C106.952 100.515 105.627 100.641 105.406 100.925Z" fill="#106194"/>
<path d="M56.7402 107.742C53.237 108.878 51.375 111.371 51.375 114.938C51.4066 117.273 52.164 119.009 53.8998 120.46C57.466 123.522 62.8943 122.417 65.0404 118.22C66.9655 114.401 65.5138 110.14 61.6004 108.121C60.6536 107.647 57.7185 107.426 56.7402 107.742ZM59.8961 112.034C62.4525 113.36 62.4209 116.389 59.833 117.746C57.8763 118.756 55.4778 117.178 55.4778 114.874C55.4778 113.864 55.6671 113.391 56.3614 112.76C57.7185 111.466 58.5075 111.308 59.8961 112.034Z" fill="#106194"/>
<path d="M73.8771 107.9C72.015 108.499 70.7526 109.478 69.7743 111.182C69.0484 112.413 68.8906 113.044 68.8906 114.874C68.8906 116.736 69.0484 117.336 69.7743 118.598C72.2044 122.701 77.9483 123.427 81.3252 120.05C82.5875 118.788 83.5659 116.515 83.5659 114.874C83.5659 111.908 81.2305 108.752 78.4217 107.931C76.5281 107.363 75.6444 107.363 73.8771 107.9ZM78.0745 112.35C79.9997 113.58 79.5578 116.831 77.3802 117.746C75.9916 118.314 74.9501 118.125 73.9402 117.083C72.3938 115.569 72.6778 113.296 74.5398 112.129C75.6128 111.466 76.8752 111.561 78.0745 112.35Z" fill="#106194"/>
<path d="M63.21 3.62642C59.4228 4.85725 56.2668 7.82386 54.7835 11.5164C54.1839 12.9365 54.0577 13.8833 54.0577 16.7237C54.0577 22.4991 53.9314 22.2782 66.3344 34.8074C72.0783 40.6144 77.1594 45.5377 77.6328 45.7902C78.1062 46.0427 79.053 46.2321 79.7788 46.2321C80.5047 46.2321 81.4515 46.0427 81.9249 45.7902C82.3983 45.5377 87.4794 40.6144 93.2233 34.8074C102.723 25.2448 103.733 24.1087 104.553 22.2467C107.046 16.5975 105.248 9.40185 100.45 5.77248C96.253 2.58495 90.2567 2.11155 85.3965 4.60477C84.7337 4.95193 83.1873 6.1512 81.988 7.28735L79.7788 9.37029L77.5065 7.25579C74.3506 4.25761 72.0783 3.2477 68.1017 3.0899C65.7348 3.02678 64.6933 3.12146 63.21 3.62642ZM71.5733 8.04478C72.3623 8.4235 74.2875 10.0015 75.8654 11.5479C79.7157 15.3035 79.842 15.3035 83.6923 11.5479C87.511 7.82386 88.6156 7.25579 92.0871 7.25579C94.2648 7.25579 95.0222 7.38203 96.0952 7.98166C99.3774 9.71745 101.239 12.4631 101.492 15.9347C101.681 18.6804 100.987 20.7634 99.3143 22.6885L98.0204 24.1402H92.1818H86.3433L84.0079 22.0889C80.631 19.1538 79.7157 19.3116 78.3587 23.0357C77.9168 24.2349 77.475 25.4658 77.3803 25.7182C77.2541 25.9707 76.4335 23.0041 75.5183 19.1222C73.8456 11.8635 73.53 11.2008 72.1098 11.2008C70.7528 11.2008 70.3425 11.8951 67.9439 17.9861L65.5138 24.1402H63.5256C61.5373 24.1402 61.5058 24.1402 60.2434 22.6885C58.5707 20.7634 57.8764 18.6489 58.0658 15.9663C58.3498 11.9897 60.6852 8.99157 64.5986 7.50826C66.2713 6.87707 69.806 7.16111 71.5733 8.04478ZM73.3407 28.0221C74.1612 31.6515 75.0133 34.8074 75.1711 35.0284C75.3605 35.2808 75.897 35.5649 76.3388 35.6595C77.759 36.0067 78.5796 34.839 80.2838 30.0735L81.8302 25.7498L82.777 26.6335C84.355 28.1168 84.8284 28.243 89.4677 28.243H93.8229L86.8167 35.2493L79.7788 42.2871L72.8357 35.3439L65.8926 28.4008L66.934 28.2114C67.5021 28.1168 68.1017 27.959 68.2911 27.8327C68.4805 27.7381 69.2379 26.0654 69.9953 24.1402C70.8159 22.0257 71.4471 20.7949 71.6049 21.0474C71.7311 21.2683 72.4886 24.4243 73.3407 28.0221Z" fill="#106194"/>
</svg>
