<svg width="152" height="131" viewBox="0 0 152 131" fill="none" xmlns="http://www.w3.org/2000/svg">
<path d="M17.4505 1.09469C16.6993 1.68938 16.6993 1.78328 16.4802 9.95244C16.3863 14.4596 16.1673 18.8728 16.0108 19.7492C15.3848 23.5051 16.7306 27.6366 19.485 30.4223C23.3035 34.2095 29.313 35.1798 34.227 32.7698C36.7936 31.4865 39.3915 28.7321 40.3304 26.2595C41.2068 24.0372 41.4572 20.563 40.9251 18.6537C40.6747 17.7773 40.4556 14.1779 40.3617 9.26385L40.1739 1.31379L39.3915 0.906894C38.7968 0.625198 35.9798 0.5 28.4053 0.5C18.7964 0.5 18.1391 0.5313 17.4505 1.09469ZM36.2615 9.10736V13.6458H28.4366H20.6118V9.10736V4.56893H28.4366H36.2615V9.10736ZM36.8875 19.1232C38.3899 24.4441 34.1331 29.9841 28.5618 29.9841C23.8356 30.0154 19.9858 26.2595 19.9858 21.6271C19.9858 20.563 20.1423 19.2484 20.3301 18.685L20.6744 17.7147H28.5931H36.4806L36.8875 19.1232Z" fill="#106194"/>
<path d="M104.401 14.6161C100.081 15.0856 94.6664 16.807 90.7226 19.0293C85.9964 21.6585 80.519 26.9168 77.6395 31.5491C75.0103 35.7745 73.7583 39.2801 72.3811 46.1033C72.2559 46.8232 72.162 46.8232 67.7488 46.8232C64.4624 46.8232 62.96 46.698 62.1462 46.3537C60.3934 45.6339 59.1415 45.759 52.9442 47.4492C49.7829 48.2943 46.966 49.0142 46.7469 49.0142C46.5278 49.0142 43.6795 46.6667 40.4557 43.8185C37.2005 40.9702 33.9767 38.3098 33.2881 37.8716C29.9391 35.931 25.4945 35.305 22.3959 36.3692C20.4866 37.0265 17.9827 39.2801 16.9498 41.3145L16.1047 42.9108L15.823 54.4916C15.6978 60.8454 15.6039 67.7939 15.6665 69.8909C15.7917 73.6782 15.7917 73.7408 17.1376 76.3699L18.4834 78.9991L16.4803 88.5141L14.4771 97.9979L7.81033 108.295C4.14829 113.961 1.01834 118.937 0.861843 119.344C0.329752 120.721 0.517549 123.82 1.23744 125.291C2.67721 128.233 6.46445 130.049 9.87609 129.423C12.7556 128.859 13.0999 128.484 21.3317 115.745L29.0314 103.882L30.0643 99.7819L31.0658 95.6817L35.4791 102.317C37.8891 105.979 42.6466 113.178 46.027 118.343C49.4073 123.507 52.5686 128.108 53.0694 128.577C56.7627 132.114 63.586 130.549 65.6205 125.698C66.2777 124.102 66.2151 121.41 65.464 119.751C65.1197 118.969 58.6094 108.076 51.0036 95.5252L37.2005 72.6766V65.9785V59.2491L38.5464 60.4072C42.897 64.1631 43.21 64.1631 54.0397 61.2523C62.3027 59.03 63.6486 58.5605 64.3998 57.6528C64.7441 57.246 65.5579 57.1521 68.5313 57.1521H72.2559V80.6267V104.101H69.5016C65.5579 104.101 65.6831 103.851 65.6831 111.206C65.6831 116.558 65.7457 117.216 66.2464 117.654C66.7159 118.092 67.5297 118.186 70.7849 118.186H74.7286L74.2591 119.282C73.6957 120.659 73.6957 124.164 74.2591 125.51C74.9164 127.106 76.9509 129.172 78.5158 129.861C79.4548 130.268 80.5816 130.487 81.9588 130.487C88.0622 130.487 91.7242 124.634 89.3142 118.749C89.0951 118.217 90.1279 118.186 108.563 118.186C126.967 118.186 128.032 118.217 127.813 118.718C127.124 120.471 126.936 122.568 127.312 124.164C129.033 131.77 139.612 132.803 142.774 125.698C143.587 123.914 143.619 120.659 142.868 119.188L142.335 118.186H146.404C149.66 118.186 150.567 118.092 150.943 117.685C151.35 117.278 151.444 116.245 151.444 111.144C151.444 106.042 151.35 105.009 150.943 104.602C150.567 104.226 149.816 104.101 147.813 104.101H145.184V77.5593C145.184 62.0974 145.059 49.6715 144.871 47.6996C143.181 30.0154 129.816 16.4314 112.319 14.5848C108.97 14.2405 107.875 14.2405 104.401 14.6161ZM112.163 18.685C123.431 20.0622 132.852 26.8229 137.703 36.9639C139.487 40.7198 140.364 43.7559 140.802 47.7622C140.958 49.4837 141.115 61.9409 141.115 77.4028V104.101H108.72H76.2936L76.3875 74.5859L76.4814 45.1018L77.3578 42.2848C80.2999 32.8011 86.3094 25.6648 94.8229 21.6272C100.645 18.8728 106.153 17.9651 112.163 18.685ZM30.565 41.1893C31.5666 41.7214 35.0722 44.601 38.4525 47.637C41.8016 50.6418 44.9002 53.177 45.3384 53.3022C45.8392 53.4274 47.5607 53.1144 50.0333 52.4884C52.193 51.8937 55.3229 51.08 57.0131 50.6418L60.0492 49.828L60.8942 50.454C62.4592 51.6121 62.6157 53.8656 61.2072 54.8046C60.4247 55.3054 45.6201 59.343 44.4933 59.343C44.0551 59.343 41.6451 57.5277 37.6074 54.116C34.1958 51.2365 31.0345 48.7012 30.5963 48.4821C28.9375 47.637 27.4038 49.0768 27.9359 50.9548C28.0611 51.3617 29.2505 52.5823 30.6276 53.7091L33.1316 55.7436V64.8517V73.9599L39.3602 84.2574C42.7718 89.9226 49.2508 100.658 53.758 108.108C62.7409 123.037 62.7722 123.069 61.1133 125.041C59.9866 126.386 58.359 126.793 56.9505 126.073C55.6359 125.448 54.9473 124.477 47.0599 112.396C37.3257 97.4658 31.3162 88.5767 27.3412 83.3497C20.5179 74.3668 20.3614 74.1477 19.9858 72.3949C19.7041 71.1742 19.6728 67.3557 19.8606 57.2773L20.1423 43.7872L20.8935 42.6917C23.0532 39.5618 26.5587 39.0297 30.565 41.1893ZM72.2559 51.9876V53.0831H69.2825C67.1228 53.0831 66.309 52.9892 66.309 52.6762C66.309 52.4884 66.2151 51.9876 66.1212 51.5808C65.9335 50.8922 65.9648 50.8922 69.0947 50.8922H72.2559V51.9876ZM23.4601 85.0086C24.0548 85.7911 25.3067 87.4499 26.2144 88.7332L27.9046 91.0807L26.59 96.5268L25.3067 101.973L17.9201 113.366C13.8511 119.626 10.283 124.915 9.96999 125.072C8.56151 125.823 6.12015 125.166 5.14987 123.757C3.99179 122.098 4.30479 121.41 10.5334 111.77C13.7572 106.762 16.8246 101.973 17.388 101.128C18.2331 99.7819 18.6086 98.4048 19.9858 91.738C21.8012 82.9115 21.8012 82.9115 22.1142 83.3184C22.2707 83.4749 22.8654 84.2261 23.4601 85.0086ZM147.688 111.144V114.117H108.72H69.752V111.144V108.17H108.72H147.688V111.144ZM83.7742 118.812C85.8712 120.095 86.5598 122.443 85.4017 124.352C84.181 126.355 81.8023 127.012 79.8617 125.854C77.1387 124.258 77.2952 120.127 80.1121 118.718C81.5206 118.03 82.5222 118.061 83.7742 118.812ZM136.858 118.624C139.894 119.876 140.145 124.415 137.296 125.886C133.321 127.951 129.377 123.35 132.101 119.876C132.789 119.031 134.292 118.217 135.262 118.186C135.575 118.186 136.295 118.374 136.858 118.624Z" fill="#106194"/>
<path d="M84.4625 35.9309C83.68 36.3378 82.741 37.1203 82.3654 37.715C81.6768 38.7479 81.6455 39.0296 81.6455 46.0407C81.6455 53.0831 81.6768 53.3334 82.3654 54.3663C82.741 54.9297 83.5548 55.7435 84.1182 56.1191L85.1823 56.839H108.5H131.787L133.039 56.1504C133.697 55.7748 134.573 54.961 134.949 54.335C135.606 53.3021 135.637 52.8953 135.637 46.1972C135.637 38.3097 135.543 37.9341 133.384 36.2752L132.257 35.3988L109.064 35.305L85.8709 35.2424L84.4625 35.9309ZM131.224 39.9999C131.506 40.3755 131.725 41.0328 131.725 41.4083V42.1282H108.72H85.7144V41.0954C85.7144 40.532 85.8709 39.906 86.09 39.6869C86.3717 39.4052 91.8178 39.3113 108.594 39.3113H130.754L131.224 39.9999ZM91.0353 49.3271V52.7701H88.7505C87.4046 52.7701 86.3091 52.6136 86.09 52.3945C85.8396 52.1441 85.7144 50.9234 85.7144 48.9515V45.8842H88.3749H91.0353V49.3271ZM122.022 49.3271V52.7701H108.563H95.1043V49.3271V45.8842H108.563H122.022V49.3271ZM131.725 48.7324C131.725 52.6762 131.631 52.7701 128.595 52.7701H126.091V49.3271V45.8842H128.908H131.725V48.7324Z" fill="#106194"/>
<path d="M84.7755 58.7483C84.3373 58.9361 83.6487 59.3743 83.2731 59.7499C81.7394 61.1896 81.6455 61.6591 81.6455 69.2962C81.6455 76.2134 81.6768 76.4951 82.3654 77.528C82.741 78.1226 83.68 78.9051 84.4625 79.2807L85.8396 80.0006H108.626C133.571 80.0006 132.695 80.0632 134.323 78.1539C135.575 76.6516 135.794 75.337 135.794 69.2649C135.794 61.8469 135.449 60.5636 132.945 59.0613C131.881 58.404 131.631 58.404 108.72 58.4353C94.1027 58.4353 85.2762 58.5605 84.7755 58.7483ZM131.412 63.0676C131.568 63.4119 131.725 63.9753 131.725 64.3196V64.9769H108.72H85.7144V64.1005C85.7144 63.631 85.8709 63.0676 86.09 62.8485C86.3717 62.5668 91.8491 62.4729 108.782 62.4729C130.504 62.4729 131.099 62.4729 131.412 63.0676ZM91.0354 72.4887V75.9317H88.7505C87.4046 75.9317 86.3091 75.7752 86.09 75.5561C85.8396 75.3057 85.7144 74.085 85.7144 72.1132V69.0458H88.3749H91.0354V72.4887ZM122.022 72.4887V75.9317H108.563H95.1043V72.4887V69.0458H108.563H122.022V72.4887ZM131.725 71.9254C131.725 75.6813 131.506 75.9317 128.376 75.9317H126.091V72.4887V69.0458H128.908H131.725V71.9254Z" fill="#106194"/>
<path d="M84.212 82.0977C83.6486 82.3481 82.8661 83.0367 82.4905 83.5688C81.8332 84.5078 81.8019 84.8834 81.708 91.8006C81.6141 100.126 81.7393 100.721 83.9303 102.161L85.2136 103.006L107.123 103.1C119.205 103.162 129.784 103.1 130.692 103.006C132.632 102.787 134.103 101.848 134.98 100.345C135.606 99.3124 135.637 98.7491 135.637 92.2075C135.637 84.3826 135.543 83.8818 133.54 82.442L132.507 81.7221L108.876 81.6595C87.5923 81.5656 85.151 81.6282 84.212 82.0977ZM131.412 86.2293C131.568 86.5736 131.725 87.1369 131.725 87.4812V88.1385H108.719H85.7144V87.1056C85.7144 86.511 85.8083 85.9476 85.9335 85.8537C86.0274 85.7285 96.231 85.6346 108.594 85.6346C130.504 85.6346 131.099 85.6346 131.412 86.2293ZM91.0353 95.6504V99.0933H88.9695C85.777 99.0933 85.7144 98.9994 85.7144 95.3374V92.2075H88.3748H91.0353V95.6504ZM122.022 95.6504V99.0933H108.563H95.1042V95.6504V92.2075H108.563H122.022V95.6504ZM131.725 95.0244C131.725 98.7178 131.412 99.0933 128.282 99.0933H126.091V95.6504V92.2075H128.908H131.725V95.0244Z" fill="#106194"/>
</svg>
