<svg width="130" height="131" viewBox="0 0 130 131" fill="none" xmlns="http://www.w3.org/2000/svg">
<path d="M91.4641 1.02108C86.4308 2.33184 81.7645 6.10682 79.5886 10.6158L78.4352 12.9752L76.9933 13.2636C74.9748 13.6306 72.7989 14.7316 71.2784 16.0948L69.9677 17.2745H50.883C29.5438 17.2745 30.6973 17.1958 28.836 19.1358C27.2631 20.8135 27.1845 21.233 27.1845 29.0451V36.1232L17.3013 36.2019L7.39201 36.2805L5.8191 37.0407C3.80053 38.0369 1.80818 40.0293 0.811998 42.0478L0.0517578 43.6208V75.9965V108.372L0.811998 109.945C1.25766 110.81 2.2014 112.121 2.90921 112.855C3.64324 113.563 4.954 114.507 5.8191 114.952L7.39201 115.713L28.102 115.791L48.8382 115.844L49.5722 120.903C49.9917 123.656 50.4636 126.303 50.6471 126.749C50.8306 127.221 51.4335 128.06 51.9578 128.637C53.7142 130.603 53.2948 130.55 69.5744 130.472L84.019 130.393L85.1725 129.607C85.7754 129.161 86.6667 128.243 87.0862 127.588L87.8726 126.356H96.5499C106.145 126.33 106.564 126.277 109.815 124.573C113.065 122.869 115.818 119.409 116.945 115.608C117.286 114.454 117.365 112.776 117.365 106.799C117.365 98.594 117.234 97.8338 115.687 96.0249L114.822 95.0287L116.84 93.115C119.331 90.7819 120.668 88.3963 121.402 85.0932C121.533 84.4902 121.69 84.3854 122.477 84.3854C125.151 84.3854 128.375 82.026 129.397 79.2734C130.105 77.3859 130.132 74.6595 129.45 72.8507C128.952 71.5924 128.952 71.5137 129.45 69.6524C130.079 67.3193 130.105 62.9676 129.555 60.5295C129.319 59.5858 128.663 57.8294 128.061 56.5973C127.169 54.7884 126.514 53.9233 124.574 52.0096C122.66 50.0697 121.795 49.4143 119.986 48.523C116.867 47.0025 115.084 46.6355 110.627 46.6355H106.879V42.4411V38.2466H113.249C120.17 38.2466 121.323 38.0893 123.656 36.7262C127.693 34.393 129.948 30.4345 129.948 25.6634C129.948 21.8359 128.716 18.926 126.068 16.4356C123.42 13.9452 120.93 13.0276 117.05 13.1063L114.481 13.1587L113.249 10.6945C110.916 6.00196 106.328 2.33184 101.216 1.02108C98.516 0.313269 94.1381 0.339484 91.4641 1.02108ZM99.8005 5.24172C105.515 6.55248 109.998 11.7169 110.942 18.1134C111.047 18.8212 111.23 19.3717 111.335 19.3717C111.44 19.3717 112.358 18.9785 113.328 18.5066C114.953 17.7464 115.372 17.6677 117.496 17.6677C120.196 17.6677 121.376 18.1396 123.132 19.896C124.915 21.6786 125.36 22.8059 125.36 25.6634C125.36 28.5208 124.915 29.6481 123.132 31.4307C121.795 32.7677 120.432 33.4493 118.387 33.7901C116.133 34.1309 80.847 34.1309 78.5925 33.7901C76.5477 33.4493 75.1845 32.7677 73.8475 31.4307C72.0649 29.6481 71.6192 28.5208 71.6192 25.6634C71.6192 23.3826 71.6979 23.0418 72.4057 21.7573C73.8999 19.0571 76.102 17.7464 79.51 17.5891L81.8693 17.4842L82.5509 15.2035C84.0452 10.3799 87.8202 6.68356 92.7224 5.32037C94.1643 4.92714 98.2014 4.87471 99.8005 5.24172ZM67.4248 21.9146C67.2937 22.1767 67.1626 23.5924 67.084 25.0342C67.0053 27.0265 67.084 28.0751 67.4248 29.2286C68.552 33.2133 71.8027 36.5427 75.7088 37.7486C77.1768 38.2204 78.2779 38.2466 89.9961 38.2466H102.684V42.4411V46.6355H98.9616C94.4789 46.6355 92.6962 47.0025 89.5766 48.523C86.4046 50.0959 83.0752 53.4252 81.5023 56.5973C80.8994 57.8294 80.244 59.5858 80.0081 60.5295C79.4576 62.9676 79.4838 67.3193 80.1129 69.6524C80.611 71.5137 80.611 71.5924 80.1129 72.8507C79.4313 74.6333 79.4576 77.3859 80.1654 79.2472C81.1353 81.8949 83.9403 84.0708 86.7454 84.3329C87.8464 84.4378 88.0299 84.5427 88.161 85.1456C89.131 89.5235 92.0933 93.482 95.842 95.3695C96.7596 95.8414 97.415 96.3133 97.2839 96.4443C97.1528 96.5492 96.4974 97.1259 95.7896 97.7289C92.8011 100.298 90.3893 103.732 89.0523 107.429L88.3183 109.421L82.7344 109.552C77.6749 109.657 76.9933 109.735 75.8923 110.26C73.3756 111.413 71.226 114.559 71.226 117.023V117.941H66.9529H62.706L60.7399 104.361L58.7738 90.8081L58.6427 67.2144L58.5116 43.6208L57.7514 42.0478C56.7552 40.0293 54.7628 38.0369 52.7443 37.0407L51.1714 36.2805L41.2882 36.2019L31.3789 36.1232V30.0151C31.3789 26.1352 31.4838 23.5924 31.6673 23.0418C32.244 21.4689 31.877 21.4951 50.6208 21.4689C66.717 21.4689 67.6083 21.4951 67.4248 21.9146ZM50.516 41.0255C51.9316 41.707 53.2162 42.9916 53.8453 44.4072C54.291 45.3772 54.3172 46.8977 54.3958 67.0047L54.4745 88.5798H53.2686C52.6132 88.5798 51.6695 88.7633 51.1714 88.9468L50.2538 89.34V68.3155C50.2538 47.789 50.2276 47.2647 49.7295 46.4258C49.4412 45.9539 48.8382 45.351 48.3663 45.0626C47.5275 44.5645 47.0032 44.5383 29.2817 44.5383C11.5602 44.5383 11.0359 44.5645 10.197 45.0626C9.72516 45.351 9.12221 45.9539 8.83384 46.4258C8.30954 47.2647 8.30954 47.8152 8.30954 79.221V111.151L7.57552 110.758C6.50069 110.207 5.03264 108.477 4.6132 107.297C4.29862 106.459 4.24619 100.98 4.24619 75.9965C4.24619 42.677 4.14133 44.5907 5.89774 42.6508C6.99878 41.4449 8.04739 40.8419 9.48922 40.5798C10.066 40.4749 19.2675 40.4225 29.9371 40.4487C49.1266 40.4749 49.3363 40.4749 50.516 41.0255ZM46.0594 55.0244V61.316H29.2817H12.504V55.0244V48.7327H29.2817H46.0594V55.0244ZM115.267 51.4853C120.091 52.9796 123.683 56.5973 125.072 61.2898C125.491 62.7054 125.622 66.4017 125.308 67.5552C125.203 68.0533 125.046 68.132 124.6 68.0009C124.312 67.896 123.447 67.7649 122.713 67.6863C121.638 67.5814 121.297 67.4241 121.087 66.9523C120.589 65.8774 119.095 64.3832 118.02 63.9113C117.129 63.4919 116.237 63.4132 111.991 63.4132C109.264 63.4132 106.145 63.2821 105.096 63.1511C102.658 62.8365 100.272 61.7092 98.3849 60.0052L96.9693 58.6945L95.5275 59.2188C93.6662 59.9266 91.8835 61.1063 90.7301 62.4433C89.7339 63.5967 88.2659 66.3755 88.2659 67.1096C88.2659 67.4504 87.9251 67.5814 86.9027 67.6863C86.1424 67.7649 85.2511 67.896 84.9627 68.0009C84.2549 68.2368 84.0714 67.6339 84.0714 64.8288C84.0714 57.8818 89.3407 51.9834 96.3926 51.0921C97.3363 50.961 101.636 50.9086 105.961 50.9348C112.515 51.0134 114.062 51.0921 115.267 51.4853ZM99.1452 65.9823C101.924 67.3717 103.34 67.6076 109.474 67.6076C115.792 67.6076 116.578 67.7649 117.076 69.1806C117.443 70.2554 117.47 80.8987 117.103 83.4678C116.945 84.464 116.552 85.9058 116.185 86.6661C115.372 88.4749 113.039 90.7819 111.204 91.6208C108.032 93.0888 101.531 93.0888 98.3587 91.6208C96.5236 90.7819 94.1905 88.4749 93.3778 86.6661C92.3816 84.5427 92.1195 81.6852 92.2506 74.712C92.3816 67.6339 92.5389 67.0047 94.7148 64.9861L95.8683 63.9113L96.7334 64.5667C97.179 64.9075 98.2801 65.5629 99.1452 65.9823ZM46.0594 71.8021V78.0937H29.2817H12.504V71.8021V65.5104H29.2817H46.0594V71.8021ZM88.0037 75.9965C88.0037 79.9026 88.0037 79.9288 87.427 79.9288C85.7492 79.9288 84.0714 77.9364 84.0714 75.9965C84.0714 74.0566 85.7492 72.0642 87.427 72.0642C88.0037 72.0642 88.0037 72.0904 88.0037 75.9965ZM123.604 72.5885C126.121 74.1352 126.121 77.8578 123.604 79.4045C123.132 79.6928 122.477 79.9288 122.162 79.9288C121.559 79.9288 121.559 79.9026 121.559 75.9965C121.559 72.0904 121.559 72.0642 122.162 72.0642C122.477 72.0642 123.132 72.3002 123.604 72.5885ZM46.0594 88.5798V94.8714H29.2817H12.504V88.5798V82.2881H29.2817H46.0594V88.5798ZM56.2571 104.492C57.1746 110.968 57.9873 116.63 58.0397 117.102L58.197 117.941H56.5979C55.7328 117.941 54.7104 118.046 54.3434 118.203C53.9764 118.334 53.6618 118.36 53.6618 118.229C53.6618 118.124 52.954 113.432 52.0889 107.848C51.2238 102.264 50.516 97.2046 50.516 96.6541C50.516 94.5044 51.8792 93.1412 54.3172 92.8004C54.4745 92.8004 55.2872 97.624 56.2571 104.492ZM111.021 97.7551C111.493 98.0435 112.095 98.6464 112.384 99.1183C112.908 99.931 112.908 100.35 112.856 107.193L112.777 114.402L112.069 115.922C111.178 117.81 108.897 120.117 107.062 120.956C105.017 121.899 102.763 122.135 95.0294 122.135H88.0037V117.941V113.746H94.741H101.505L103.392 115.634L105.306 117.548L106.931 115.896L108.583 114.271L106.643 112.331L104.729 110.417L104.834 105.331C104.912 100.77 104.965 100.141 105.463 99.328C106.616 97.3357 109.133 96.6279 111.021 97.7551ZM46.0594 105.358V111.649H29.2817H12.504V105.358V99.0659H29.2817H46.0594V105.358ZM100.456 104.702V109.552H96.7334H92.9846L93.2467 108.897C94.2429 106.301 96.3401 103.287 98.5422 101.32C99.4597 100.508 100.246 99.8523 100.325 99.8523C100.403 99.8523 100.456 102.028 100.456 104.702ZM83.8093 115.844V117.941H79.7459C75.7088 117.941 75.6826 117.941 75.6826 117.338C75.6826 116.551 76.5477 115.188 77.3866 114.638C78.3303 114.035 79.4313 113.799 81.7907 113.773L83.8093 113.746V115.844ZM83.8093 123.027C83.8093 124.547 83.285 125.569 82.3412 125.963C81.0305 126.513 57.2009 126.513 55.8901 125.963C54.9201 125.543 54.5269 124.704 54.8153 123.551C55.1561 122.188 55.4969 122.161 70.256 122.135H83.8093V123.027Z" fill="#106194"/>
<path d="M16.6982 55.0244V57.1216H18.7955H20.8927V55.0244V52.9272H18.7955H16.6982V55.0244Z" fill="#106194"/>
<path d="M25.0879 55.0244V57.1216H27.1851H29.2823V55.0244V52.9272H27.1851H25.0879V55.0244Z" fill="#106194"/>
<path d="M96.9179 72.3265C96.5771 72.6673 96.3936 73.1916 96.3936 73.8994C96.3936 75.2888 97.1014 75.9966 98.4908 75.9966C99.8802 75.9966 100.588 75.2888 100.588 73.8994C100.588 73.1916 100.404 72.6673 100.064 72.3265C99.7229 71.9857 99.1986 71.8022 98.4908 71.8022C97.783 71.8022 97.2587 71.9857 96.9179 72.3265Z" fill="#106194"/>
<path d="M109.5 72.3265C109.159 72.6673 108.976 73.1916 108.976 73.8994C108.976 75.2888 109.683 75.9966 111.073 75.9966C112.462 75.9966 113.17 75.2888 113.17 73.8994C113.17 73.1916 112.987 72.6673 112.646 72.3265C112.305 71.9857 111.781 71.8022 111.073 71.8022C110.365 71.8022 109.841 71.9857 109.5 72.3265Z" fill="#106194"/>
<path d="M98.3056 82.2357L96.4443 83.2057L96.8376 83.9921C97.4667 85.2243 99.2756 86.9807 100.717 87.7409C101.897 88.3701 102.29 88.4487 104.781 88.4487C107.166 88.4487 107.691 88.3701 108.713 87.8196C110.181 87.0593 112.016 85.3291 112.645 84.097L113.143 83.1795L111.151 82.1833C110.076 81.659 109.159 81.2396 109.132 81.292C109.106 81.3444 108.765 81.7901 108.398 82.3144C106.59 84.7524 102.841 84.7262 101.137 82.2619C100.77 81.7114 100.403 81.2658 100.324 81.2658C100.246 81.2658 99.3542 81.7114 98.3056 82.2357Z" fill="#106194"/>
<path d="M29.2812 71.8022V73.8994H31.3785H33.4757V71.8022V69.705H31.3785H29.2812V71.8022Z" fill="#106194"/>
<path d="M37.6709 71.8022V73.8994H39.7681H41.8653V71.8022V69.705H39.7681H37.6709V71.8022Z" fill="#106194"/>
<path d="M16.6982 88.5798V90.677H18.7955H20.8927V88.5798V86.4826H18.7955H16.6982V88.5798Z" fill="#106194"/>
<path d="M25.0879 88.5798V90.677H27.1851H29.2823V88.5798V86.4826H27.1851H25.0879V88.5798Z" fill="#106194"/>
<path d="M29.2812 105.358V107.455H31.3785H33.4757V105.358V103.26H31.3785H29.2812V105.358Z" fill="#106194"/>
<path d="M37.6709 105.358V107.455H39.7681H41.8653V105.358V103.26H39.7681H37.6709V105.358Z" fill="#106194"/>
</svg>
