<svg width="132" height="131" viewBox="0 0 132 131" fill="none" xmlns="http://www.w3.org/2000/svg">
<path d="M60.0963 1.01456C59.7984 1.31247 59.4193 2.2062 59.2297 3.04576C59.0401 3.88532 58.8505 4.56238 58.7964 4.56238C58.7151 4.56238 57.9839 4.18323 57.1173 3.69574C55.9256 3.01867 55.411 2.88326 54.7881 3.04576C53.6778 3.31658 47.1779 9.81642 46.9071 10.9268C46.7446 11.5497 46.88 12.0643 47.5571 13.2559C48.0446 14.1226 48.4237 14.8538 48.4237 14.935C48.4237 14.9892 47.7467 15.1788 46.9071 15.3684C44.3343 15.9642 44.3613 15.91 44.3613 22.1661C44.3613 28.4222 44.3343 28.368 46.9071 28.9638C47.7467 29.1534 48.4237 29.343 48.4237 29.3972C48.4237 29.4784 48.0446 30.2096 47.5571 31.0763C46.88 32.2679 46.7446 32.7825 46.9071 33.4054C47.1779 34.5158 53.6778 41.0156 54.7881 41.2864C55.411 41.4489 55.9256 41.3135 57.1173 40.6365C57.9839 40.149 58.7151 39.7698 58.7964 39.7698C58.8505 39.7698 59.0401 40.4469 59.2297 41.2864C59.7172 43.3989 60.2318 43.8322 62.2359 43.8322H63.8608V46.0801C63.8608 48.1925 63.8067 48.355 63.2108 48.6529C62.0734 49.1675 60.5297 50.7112 60.0422 51.8216C59.663 52.6341 59.5276 53.582 59.5276 55.4777V58.0506L57.361 61.3005C55.7631 63.7109 55.1944 64.7942 55.1944 65.4442C55.1944 66.5275 59.8255 75.8981 60.4755 76.1689C61.3963 76.521 62.7775 76.3314 63.3192 75.7897C64.2671 74.8418 64.0233 73.6502 61.938 69.5336L60.0422 65.715L61.5317 63.44L63.0483 61.1651H66.0274H69.0065L70.4961 63.413L72.0127 65.6879L69.9544 69.8586C68.0315 73.7856 67.9232 74.0835 68.2211 74.9231C68.3836 75.4106 68.7357 75.9251 69.0065 76.0606C69.5753 76.3585 70.9023 76.4126 71.5794 76.1689C72.2294 75.8981 76.8605 66.5275 76.8605 65.4442C76.8605 64.7671 76.3188 63.738 74.7751 61.4359L72.6627 58.3214L72.5273 55.2882C72.3918 52.4716 72.3377 52.2007 71.5794 51.0904C71.119 50.4675 70.1711 49.5466 69.494 49.1133L68.2211 48.3008V46.053L68.194 43.8322H69.819C71.8231 43.8322 72.3377 43.3989 72.8252 41.2864C73.0148 40.4469 73.2043 39.7698 73.2585 39.7698C73.3397 39.7698 74.071 40.149 74.9376 40.6365C76.1293 41.3135 76.6438 41.4489 77.2667 41.2864C78.3771 41.0156 84.8769 34.5158 85.1478 33.4054C85.3103 32.7825 85.1748 32.2679 84.4978 31.0763C84.0103 30.2096 83.6311 29.4784 83.6311 29.3972C83.6311 29.343 84.3082 29.1534 85.1478 28.9638C87.7206 28.368 87.6935 28.4222 87.6935 22.1661C87.6935 15.91 87.7206 15.9642 85.1478 15.3684C84.3082 15.1788 83.6311 14.9892 83.6311 14.935C83.6311 14.8538 84.0103 14.1226 84.4978 13.2559C85.1748 12.0643 85.3103 11.5497 85.1478 10.9268C84.8769 9.81642 78.3771 3.31658 77.2667 3.04576C76.6438 2.88326 76.1293 3.01867 74.9376 3.69574C74.071 4.18323 73.3397 4.56238 73.2585 4.56238C73.2043 4.56238 73.0148 3.88532 72.8252 3.04576C72.2294 0.472906 72.2835 0.499989 66.0274 0.499989C61.0713 0.499989 60.5567 0.554154 60.0963 1.01456ZM69.1149 7.1894C69.4398 8.38104 69.9273 9.65392 70.1982 9.95183C71.0106 10.8456 72.3377 10.6831 74.5043 9.41018L76.373 8.29979L78.1604 10.0602L79.9208 11.8205L78.8104 13.7163C77.5105 15.91 77.348 17.1829 78.2417 17.9954C78.5396 18.2662 79.8125 18.7537 81.0041 19.0787L83.2249 19.6203V22.1661V24.7119L81.0041 25.2535C79.8125 25.5785 78.5396 26.066 78.2417 26.3368C77.348 27.1493 77.5105 28.4764 78.7833 30.643L79.8937 32.5117L78.1334 34.272L76.373 36.0324L74.5043 34.922C72.3377 33.6491 71.0106 33.4866 70.1982 34.3804C69.9273 34.6783 69.4398 35.9512 69.1149 37.1428L68.5732 39.3636H66.0274H63.4817L62.94 37.1428C62.615 35.9512 62.1275 34.6783 61.8567 34.3804C61.0172 33.4596 59.7172 33.6491 57.5506 34.9491L55.6819 36.0595L53.9215 34.2991L52.1611 32.5117L53.2715 30.643C54.5444 28.4764 54.7069 27.1493 53.8132 26.3368C53.5153 26.066 52.2424 25.5785 51.0507 25.2535L48.83 24.7119V22.1661V19.6203L51.0507 19.0787C52.2424 18.7537 53.5153 18.2662 53.8132 17.9954C54.7069 17.1829 54.5444 15.8558 53.2715 13.6892L52.1611 11.8205L53.9215 10.0331L55.6819 8.27271L57.5506 9.38309C60.8276 11.3601 62.0734 10.8726 62.9129 7.27065C63.1838 6.16026 63.4546 5.13112 63.5088 5.02279C63.59 4.91446 64.7546 4.86029 66.1087 4.88738L68.5732 4.96862L69.1149 7.1894ZM67.1107 53.0403C67.7066 53.3653 68.194 54.6653 68.194 55.9111V56.8319H66.0274H63.8608V55.9111C63.8608 53.4465 65.3775 52.1195 67.1107 53.0403Z" fill="#106194"/>
<path d="M62.5609 14.0684C60.6109 14.8267 58.661 16.8037 57.9027 18.8349C57.1173 20.9474 57.2256 24.4139 58.1464 26.2014C59.6631 29.0992 62.588 30.8325 66.0275 30.8325C71.119 30.8325 74.6939 27.2576 74.6939 22.1661C74.6939 17.0204 71.119 13.4725 65.9462 13.5267C64.6733 13.5267 63.5088 13.7163 62.5609 14.0684ZM68.1399 18.6453C71.6607 20.7849 70.144 26.2285 66.0275 26.2285C63.7254 26.2285 61.9651 24.4681 61.9651 22.1661C61.9651 20.7036 62.6963 19.4036 63.915 18.6453C64.4567 18.3203 65.2962 18.1037 66.0275 18.1037C66.7587 18.1037 67.5983 18.3203 68.1399 18.6453Z" fill="#106194"/>
<path d="M4.68545 16.1809C2.32926 17.2642 1.0293 19.4308 1.0293 22.2203C1.0293 24.2245 1.6522 25.714 2.95216 26.9598C4.63129 28.5577 5.2271 28.666 12.1332 28.666H18.3622V35.2471V41.8553L17.7122 42.1532C16.5747 42.6677 15.031 44.2114 14.5435 45.3218C14.1644 46.1343 14.029 47.0822 14.029 48.978V51.5508L11.8623 54.8008C10.2645 57.2111 9.69573 58.2944 9.69573 58.9444C9.69573 60.0277 14.3269 69.3983 14.9768 69.6691C15.8977 70.0212 17.2789 69.8316 17.8205 69.29C18.7684 68.3421 18.5247 67.1504 16.4393 63.0339L14.5435 59.2152L16.0331 56.9403L17.5497 54.6653H20.5288H23.5079L25.0245 56.9403L26.514 59.2152L24.6183 63.0339C22.5329 67.1504 22.2892 68.3421 23.237 69.29C23.7787 69.8316 25.1599 70.0212 26.0807 69.6691C26.7307 69.3983 31.3618 60.0277 31.3618 58.9444C31.3618 58.2673 30.8202 57.2382 29.2765 54.9362L27.164 51.8217L27.0286 48.7884C26.8932 45.9718 26.839 45.701 26.0807 44.5906C25.6203 43.9677 24.6724 43.0469 23.9954 42.6136L22.7225 41.8011V35.22L22.6954 28.666H31.2264H39.7574V26.4994V24.3328H23.7787C10.5082 24.3328 7.63746 24.2786 6.85206 23.9536C5.85 23.5203 5.44376 22.6537 5.74167 21.462C6.12083 20.0266 6.33749 19.9996 23.9141 19.9996H40.0283V17.833V15.6663H22.9121C6.79789 15.6663 5.71459 15.7205 4.68545 16.1809ZM21.6121 46.5406C22.2079 46.8655 22.6954 48.1655 22.6954 49.4113V50.3321H20.5288H18.3622V49.4113C18.3622 46.9468 19.8788 45.6197 21.6121 46.5406Z" fill="#106194"/>
<path d="M91.7559 17.833V19.9996H108.005C125.745 19.9996 125.934 20.0266 126.313 21.462C126.611 22.6537 126.205 23.5203 125.203 23.9536C124.417 24.2786 121.547 24.3328 108.141 24.3328H92.0267V26.4994V28.666H100.693H109.36V35.2471V41.8553L108.71 42.1532C107.572 42.6677 106.028 44.2114 105.541 45.3218C105.162 46.1343 105.026 47.0822 105.026 48.978V51.5508L102.86 54.8008C101.262 57.2111 100.693 58.2944 100.693 58.9444C100.693 60.0277 105.324 69.3983 105.974 69.6691C106.895 70.0212 108.276 69.8316 108.818 69.29C109.766 68.3421 109.522 67.1504 107.437 63.0339L105.541 59.2152L107.03 56.9403L108.547 54.6653H111.526H114.505L116.022 56.9403L117.511 59.2152L115.616 63.0339C113.53 67.1504 113.287 68.3421 114.234 69.29C114.776 69.8316 116.157 70.0212 117.078 69.6691C117.728 69.3983 122.359 60.0277 122.359 58.9444C122.359 58.2673 121.818 57.2382 120.274 54.9362L118.161 51.8217L118.026 48.7884C117.891 45.9718 117.836 45.701 117.078 44.5906C116.618 43.9677 115.67 43.0469 114.993 42.6136L113.72 41.8011V35.22L113.693 28.666H120.003C127.017 28.666 127.613 28.5306 129.319 26.7431C130.511 25.4703 131.026 24.1161 131.026 22.1662C131.026 19.4308 129.699 17.2642 127.37 16.1809C126.34 15.7205 125.257 15.6663 109.035 15.6663H91.7559V17.833ZM112.609 46.5406C113.205 46.8655 113.693 48.1655 113.693 49.4113V50.3321H111.526H109.36V49.4113C109.36 46.9468 110.876 45.6197 112.609 46.5406Z" fill="#106194"/>
<path d="M23.2365 83.3729C22.722 83.8875 22.6949 84.2666 22.6949 92.0393V100.164H18.0367C13.6222 100.164 13.243 100.218 11.1577 100.922C6.58071 102.52 3.38496 105.716 1.78709 110.293C0.703783 113.435 0.703783 117.226 1.78709 120.368C3.05997 124.024 5.57865 126.976 8.85565 128.709C12.5931 130.659 7.82651 130.497 66.1083 130.497H118.594L120.653 129.82C125.311 128.249 128.642 124.972 130.267 120.368C130.917 118.499 131.025 117.741 131.025 115.33C131.025 112.92 130.917 112.162 130.267 110.293C128.669 105.743 125.446 102.52 120.896 100.922C118.757 100.191 118.54 100.164 112.961 100.164H107.193V92.0393C107.193 84.2666 107.166 83.8875 106.651 83.3729C106.136 82.8583 105.757 82.8312 96.3596 82.8312C86.9619 82.8312 86.5828 82.8583 86.0682 83.3729C85.5536 83.8875 85.5265 84.2666 85.5265 92.0393V100.164H81.1933H76.8601V92.0393C76.8601 84.2666 76.833 83.8875 76.3185 83.3729C75.8039 82.8583 75.4247 82.8312 66.0271 82.8312C56.6294 82.8312 56.2502 82.8583 55.7357 83.3729C55.2211 83.8875 55.194 84.2666 55.194 92.0393V100.164H49.7775H44.361V92.0393C44.361 84.2666 44.3339 83.8875 43.8193 83.3729C43.3047 82.8583 42.9256 82.8312 33.5279 82.8312C24.1302 82.8312 23.7511 82.8583 23.2365 83.3729ZM31.3613 89.3311V91.4977H33.5279H35.6945V89.3311V87.1645H37.8611H40.0277V93.6643V100.164H33.5279H27.0281V93.6643V87.1645H29.1947H31.3613V89.3311ZM63.8604 89.3311V91.4977H66.0271H68.1937V89.3311V87.1645H70.3603H72.5269V93.6643V100.164H66.0271H59.5272V93.6643V87.1645H61.6938H63.8604V89.3311ZM94.193 89.3311V91.4977H96.3596H98.5262V89.3311V87.1645H100.693H102.859V93.6643V100.164H96.3596H89.8598V93.6643V87.1645H92.0264H94.193V89.3311ZM117.078 104.768C120.815 105.31 123.794 107.449 125.392 110.672C126.232 112.351 126.286 112.649 126.286 115.33C126.286 117.849 126.205 118.337 125.555 119.745C124.634 121.695 122.278 124.078 120.382 124.945C119.596 125.324 118.107 125.73 117.078 125.893C114.478 126.245 17.5763 126.245 14.9763 125.893C13.9472 125.73 12.4576 125.324 11.6722 124.945C9.77646 124.078 7.42027 121.695 6.49946 119.745C5.84948 118.337 5.76823 117.849 5.76823 115.33C5.76823 112.812 5.84948 112.297 6.49946 110.943C8.01609 107.72 11.2389 105.31 14.7055 104.795C17.0617 104.47 114.722 104.443 117.078 104.768Z" fill="#106194"/>
<path d="M19.8515 109.345C17.4953 110.429 16.1953 112.595 16.1953 115.385C16.2224 119.23 18.8223 121.83 22.6951 121.83C26.595 121.83 29.195 119.23 29.195 115.33C29.195 112.514 27.7596 110.266 25.3492 109.264C23.9409 108.668 21.2056 108.722 19.8515 109.345ZM24.0493 113.976C24.3472 114.274 24.5909 114.87 24.5909 115.33C24.5909 115.791 24.3472 116.387 24.0493 116.685C23.7514 116.983 23.1555 117.226 22.6951 117.226C22.2347 117.226 21.6389 116.983 21.341 116.685C21.0431 116.387 20.7994 115.791 20.7994 115.33C20.7994 114.87 21.0431 114.274 21.341 113.976C21.6389 113.678 22.2347 113.435 22.6951 113.435C23.1555 113.435 23.7514 113.678 24.0493 113.976Z" fill="#106194"/>
<path d="M41.5175 109.345C39.1613 110.429 37.8613 112.595 37.8613 115.385C37.8884 119.23 40.4883 121.83 44.3612 121.83C48.2611 121.83 50.861 119.23 50.861 115.33C50.861 112.514 49.4256 110.266 47.0153 109.264C45.607 108.668 42.8716 108.722 41.5175 109.345ZM45.7153 113.976C46.0132 114.274 46.2569 114.87 46.2569 115.33C46.2569 115.791 46.0132 116.387 45.7153 116.685C44.5507 117.849 42.4654 116.983 42.4654 115.33C42.4654 114.301 43.332 113.435 44.3612 113.435C44.8216 113.435 45.4174 113.678 45.7153 113.976Z" fill="#106194"/>
<path d="M63.1835 109.345C60.8273 110.429 59.5273 112.595 59.5273 115.385C59.5544 119.23 62.1544 121.83 66.0272 121.83C69.9271 121.83 72.527 119.23 72.527 115.33C72.527 112.514 71.0916 110.266 68.6813 109.264C67.273 108.668 64.5376 108.722 63.1835 109.345ZM67.3813 113.976C67.6792 114.274 67.923 114.87 67.923 115.33C67.923 115.791 67.6792 116.387 67.3813 116.685C66.2168 117.849 64.1314 116.983 64.1314 115.33C64.1314 114.301 64.998 113.435 66.0272 113.435C66.4876 113.435 67.0834 113.678 67.3813 113.976Z" fill="#106194"/>
<path d="M84.8495 109.345C82.4933 110.429 81.1934 112.595 81.1934 115.385C81.2204 119.23 83.8204 121.83 87.6932 121.83C91.5931 121.83 94.193 119.23 94.193 115.33C94.193 112.514 92.7576 110.266 90.3473 109.264C88.939 108.668 86.2036 108.722 84.8495 109.345ZM89.0473 113.976C89.3452 114.274 89.589 114.87 89.589 115.33C89.589 115.791 89.3452 116.387 89.0473 116.685C87.8828 117.849 85.7974 116.983 85.7974 115.33C85.7974 114.301 86.664 113.435 87.6932 113.435C88.1536 113.435 88.7494 113.678 89.0473 113.976Z" fill="#106194"/>
<path d="M106.516 109.345C104.159 110.429 102.859 112.595 102.859 115.385C102.886 119.23 105.486 121.83 109.359 121.83C113.259 121.83 115.859 119.23 115.859 115.33C115.859 112.514 114.424 110.266 112.013 109.264C110.605 108.668 107.87 108.722 106.516 109.345ZM110.713 113.976C111.011 114.274 111.255 114.87 111.255 115.33C111.255 115.791 111.011 116.387 110.713 116.685C109.549 117.849 107.463 116.983 107.463 115.33C107.463 114.301 108.33 113.435 109.359 113.435C109.82 113.435 110.415 113.678 110.713 113.976Z" fill="#106194"/>
</svg>
