<svg width="108" height="131" viewBox="0 0 108 131" fill="none" xmlns="http://www.w3.org/2000/svg">
<path d="M51.7183 1.69336C50.1694 3.44531 47.4272 7.66016 46.0054 10.5039C45.1421 12.2051 44.5835 12.9922 44.228 13.0684C39.2007 14.1094 34.9604 15.5059 30.771 17.5117C27.3179 19.1621 26.8354 19.5684 26.8354 20.8379C26.8354 22.0566 27.5464 22.8438 28.6128 22.8438C29.0444 22.8438 30.6187 22.2344 32.1167 21.498C35.2144 19.9492 37.3979 19.0859 40.6479 18.1465C41.8667 17.791 42.9331 17.5117 42.9585 17.5117C43.0093 17.5117 42.7554 18.375 42.4253 19.416C41.2827 22.9961 40.5718 27.3379 40.2671 32.3652L39.9624 37.1895L36.2046 40.998C33.2085 44.0449 32.4214 44.9844 32.2944 45.6953C32.1929 46.2031 32.1675 49.0469 32.2183 52.043C32.3198 59.7617 32.2437 59.6602 39.5054 59.6602H44.1011V63.5957C44.1011 67.125 44.0503 67.5566 43.6694 67.6836C42.0698 68.166 40.4956 69.1055 39.3276 70.1719C38.0581 71.3652 37.9312 71.4414 36.6616 71.3652C32.2437 71.1875 27.5972 73.9043 25.7183 77.7637L25.0073 79.2109H22.4683C18.8374 79.2109 17.6694 79.8711 17.2886 82.1816C17.1616 83.0703 17.4663 83.8066 20.7163 90.332L24.2964 97.5176V101.072C24.2964 105.236 24.5249 105.16 21.2241 102.139C16.5269 97.873 13.1499 93.5312 10.4839 88.3262C7.81787 83.1719 6.34521 78.7539 5.32959 72.9902C4.69482 69.1816 4.74561 61.2598 5.45654 57.375C7.00537 48.9453 10.5093 41.0996 15.5874 34.8027C16.8823 33.1523 22.0112 27.9219 22.3159 27.9219C22.5952 27.9219 23.2808 26.5 23.2808 25.8906C23.2808 25.0527 22.1636 24.1133 21.1733 24.1133C20.4624 24.1133 19.9546 24.4434 18.1772 26.0176C9.49365 33.7617 3.55225 44.6543 1.41943 56.791C0.581543 61.4629 0.581543 69.5371 1.41943 74.209C3.85693 88.0469 11.0933 100.031 21.7827 107.953L24.2964 109.807V118.77C24.2964 128.494 24.3472 128.9 25.6929 129.941L26.4038 130.5H54.0034H81.603L82.314 129.941C83.6597 128.9 83.7104 128.494 83.7104 118.77V109.807L86.2241 107.953C97.1421 99.8789 104.531 87.3867 106.74 73.3457C107.425 68.9785 107.349 61.1074 106.587 56.7402C106.283 54.9121 105.826 53.0332 105.597 52.5508C104.861 51.0527 102.957 50.8496 102.093 52.1953C101.687 52.8047 101.687 53.0078 102.22 55.6738C103.439 61.9707 103.515 67.7598 102.525 73.6504C101.585 79.0332 100.265 82.9434 97.6245 88.0977C94.8823 93.4805 91.5815 97.7715 86.7827 102.139C83.4819 105.16 83.7104 105.236 83.7104 101.072V97.5176L87.2905 90.332C90.5405 83.8066 90.8452 83.0703 90.7183 82.1816C90.3374 79.8711 89.1694 79.2109 85.5386 79.2109H82.9995L82.2886 77.7637C80.4097 73.9043 75.7632 71.1875 71.3452 71.3652C70.0757 71.4414 69.9487 71.3652 68.6792 70.1719C67.5112 69.1055 65.937 68.166 64.3628 67.6836C63.9565 67.5566 63.9058 67.125 63.9058 63.5957V59.6602H68.5015C75.7378 59.6602 75.687 59.7109 75.7886 52.2969C75.9155 44.6543 76.2202 45.4922 71.7769 40.998L68.0444 37.1895L67.7397 32.3652C67.4351 27.3379 66.7241 22.9961 65.5815 19.416C65.0483 17.7402 65.0229 17.5117 65.3784 17.6133C65.6323 17.6895 66.6733 17.9688 67.7144 18.248C80.4351 21.7266 91.7847 31.1973 97.9292 43.3848C99.5796 46.7109 100.57 47.3711 102.093 46.1777C103.134 45.3652 102.982 44.1973 101.509 41.3027C94.3745 27.3125 81.2476 17.0547 65.9624 13.5762C64.5151 13.2461 63.3218 12.9414 63.271 12.8906C63.2456 12.8398 62.6362 11.6719 61.8999 10.2754C60.3003 7.25391 57.7866 3.39453 56.2886 1.69336C55.2983 0.576172 55.146 0.5 54.0034 0.5C52.8608 0.5 52.7085 0.576172 51.7183 1.69336ZM55.7046 7.91406C56.5679 9.20898 57.9136 11.5957 58.7007 13.1953L60.1226 16.1152L57.0757 16.1914C55.3745 16.2168 52.6323 16.2168 50.9312 16.1914L47.8843 16.1152L49.3062 13.1953C50.6519 10.4531 53.6479 5.57812 54.0034 5.57812C54.0796 5.57812 54.8667 6.64453 55.7046 7.91406ZM62.0015 21.752C63.5249 26.957 63.9058 31.7305 63.9058 45.2383V55.5977H62.0269H60.1479L60.0464 50.3164L59.9702 45.0605L58.2437 41.6836C56.3647 38.0527 55.8062 37.4941 54.0034 37.4941C52.2007 37.4941 51.6421 38.0527 49.7632 41.6836L48.0366 45.0605L47.9604 50.3164L47.8589 55.5977H45.98H44.1011V45.2383C44.1011 31.7305 44.4819 26.957 46.0054 21.752L46.4116 20.3047H54.0034H61.5952L62.0015 21.752ZM55.0952 44.5527L56.0347 46.457V51.0273V55.5977H54.0034H51.9722V51.0273V46.457L52.9116 44.5527C53.4448 43.5117 53.9272 42.6484 54.0034 42.6484C54.0796 42.6484 54.562 43.5117 55.0952 44.5527ZM40.0386 49.377V55.5977H38.1343H36.23V51.2305V46.8379L38.0581 45.0098C39.0737 43.9941 39.937 43.1562 39.9624 43.1562C40.0132 43.1562 40.0386 45.9492 40.0386 49.377ZM71.7769 51.2051V55.5977H69.8726H67.9683V49.3262V43.0547L69.8726 44.9336L71.7769 46.8125V51.2051ZM59.894 64.5859C59.9956 70.6035 59.9956 70.6035 63.0425 71.6445C64.7944 72.2285 65.2261 72.5078 66.4956 73.8535C67.2827 74.7168 68.146 75.4277 68.3999 75.4531C68.6538 75.4785 69.9487 75.5039 71.269 75.5039C74.1382 75.5293 75.5347 76.0879 77.3628 77.916L78.5054 79.084L70.5073 79.2109L62.5093 79.3379L61.2905 80.0488C59.7925 80.9375 59.3862 81.5723 56.4155 87.5645C55.1714 90.0781 54.0796 92.1602 54.0034 92.1602C53.9272 92.1602 52.8354 90.0781 51.5913 87.5645C48.6206 81.5723 48.2144 80.9375 46.7163 80.0488L45.4976 79.3379L37.4995 79.2109L29.5015 79.084L30.644 77.916C32.4722 76.0879 33.8687 75.5293 36.7378 75.5039C38.0581 75.5039 39.353 75.4785 39.5815 75.4531C39.8101 75.4277 40.6733 74.7168 41.5112 73.8535C42.8062 72.5078 43.2632 72.2285 44.9897 71.6445C48.0112 70.6035 48.0112 70.6035 48.1128 64.5859L48.189 59.6602H54.0034H59.8179L59.894 64.5859ZM44.8628 83.7812C45.1421 84.0605 46.564 86.6758 48.0366 89.6211L50.7026 94.9531H47.6558C44.7358 94.9531 44.5581 94.9785 43.9741 95.5879C43.1362 96.4004 43.1108 97.7715 43.8979 98.5078C44.4058 98.9648 44.7866 99.0156 48.2144 99.0156H51.9722V112.854V126.691H40.1655H28.3589V112.854V99.0156H32.7769C37.7026 99.0156 38.1089 98.8887 38.4136 97.3145C38.5405 96.6289 38.439 96.375 37.8042 95.7148L37.0425 94.9531H32.3706H27.6987L24.7534 89.1133L21.8335 83.2734H33.0815C43.9995 83.2734 44.3804 83.2988 44.8628 83.7812ZM83.3296 89.1133L80.4097 94.9531H68.8569H57.3042L59.9702 89.6211C61.4429 86.6758 62.8647 84.0605 63.144 83.7812C63.6265 83.2988 64.0073 83.2734 74.9507 83.2734H86.2495L83.3296 89.1133ZM79.6479 112.854V126.691H67.8413H56.0347V112.854V99.0156H67.8413H79.6479V112.854Z" fill="#106194"/>
</svg>
