<svg width="122" height="131" viewBox="0 0 122 131" fill="none" xmlns="http://www.w3.org/2000/svg">
<path d="M7.38027 0.957238C4.56234 1.98686 2.50309 3.85644 1.12122 6.67435L0.389648 8.1646V58.9684V109.772L1.17542 111.398C2.20504 113.484 4.26429 115.543 6.35064 116.573L7.97637 117.359L23.8543 117.44C39.1903 117.521 39.7593 117.494 40.3825 116.979C40.8702 116.6 41.0328 116.194 41.0328 115.354C41.0328 113.186 41.9811 113.322 24.9652 113.159C10.3879 113.024 9.81886 112.996 8.65375 112.455C7.1906 111.777 5.59197 110.097 5.10425 108.661C4.53525 107.09 4.53525 10.847 5.10425 9.27551C5.59197 7.83945 7.1906 6.15954 8.65375 5.48216C9.87305 4.91316 10.1169 4.91316 38.3232 4.83187C53.9844 4.77768 67.4237 4.83187 68.2095 4.91316L69.6185 5.07573V11.1722C69.6185 17.8918 69.7268 18.515 71.3255 20.1949C73.0325 21.9832 73.6557 22.1187 80.4837 22.1187H86.6073L86.7969 23.3651C86.8782 24.0696 86.9595 32.2794 86.9595 41.6273V58.6161L87.5827 59.1851C88.4498 59.998 89.94 59.9709 90.7258 59.158L91.3219 58.5077L91.2406 39.4326L91.1593 20.3575L90.3735 18.7318C89.7233 17.377 88.3685 15.8868 82.1094 9.62775C75.8504 3.36872 74.3602 2.01396 73.0054 1.36367L71.3797 0.577904L40.0844 0.523713C10.1169 0.469522 8.73504 0.469522 7.38027 0.957238ZM80.1315 17.7293C74.2518 17.8647 73.9537 17.5938 73.9537 11.7683V8.1646L78.6954 12.9063L83.4371 17.648L80.1315 17.7293Z" fill="#106194"/>
<path d="M43.1463 18.1899C42.198 18.5963 16.7012 38.0507 15.9155 38.972C15.6445 39.2971 15.4277 39.9474 15.4277 40.5164C15.4277 41.3835 15.8071 42.0337 18.0289 44.9059C21.6597 49.6204 21.5784 49.5392 22.9603 49.4308L24.0983 49.3495V61.1902C24.0983 72.7057 24.1254 73.085 24.6402 73.5998C25.1821 74.1417 25.5343 74.1417 45.7475 74.1417H66.34L66.8819 73.4372C67.4509 72.7328 67.4509 72.4347 67.4509 61.0276V49.3495L68.616 49.4308C69.9708 49.5392 69.8895 49.6204 73.5203 44.9059C75.7421 42.0337 76.1215 41.3835 76.1215 40.5164C76.1215 39.9474 75.9047 39.2971 75.6609 38.972C74.7667 37.9694 49.3512 18.5963 48.3758 18.1899C47.1836 17.675 44.2844 17.675 43.1463 18.1899ZM48.9448 24.205C50.2724 25.2346 55.6915 29.3802 61.0022 33.4716L70.6482 40.8957L69.5644 42.3589C68.9683 43.1447 68.3722 43.7949 68.2367 43.7949C68.1012 43.7949 63.197 40.11 57.3443 35.6122C48.0777 28.459 46.6146 27.4294 45.7746 27.4294C44.9346 27.4294 43.4715 28.459 34.2049 35.6122C28.3522 40.11 23.448 43.7949 23.3125 43.7949C23.177 43.7949 22.5809 43.1447 21.9848 42.3589L20.901 40.9228L32.9585 31.6562C42.2793 24.476 45.1785 22.3896 45.7746 22.3896C46.2894 22.3896 47.2919 22.9586 48.9448 24.205ZM54.4722 39.2971L62.8447 45.7458V57.7761V69.8065H58.6449H54.4451V60.5941C54.4451 51.7339 54.418 51.3545 53.9032 50.8397C53.3884 50.3249 53.0091 50.2978 45.6662 50.2978H37.944L37.4021 51.0023C36.8602 51.7068 36.8331 52.0319 36.8331 60.7566V69.8065H32.6333H28.4335L28.4877 57.8303L28.569 45.8542L37.1041 39.27C41.7916 35.6663 45.7475 32.74 45.8559 32.7671C45.9643 32.7942 49.8389 35.7476 54.4722 39.2971ZM50.1099 62.2198V69.8065H45.7746H41.4393V62.2198V54.6331H45.7746H50.1099V62.2198Z" fill="#106194"/>
<path d="M110.586 50.6771C108.96 51.219 108.256 51.7068 105.763 54.1453L103.541 56.2859L101.943 56.3672C100.967 56.3942 99.8833 56.6652 99.1517 57.0174C98.2576 57.451 91.2128 64.3332 72.9775 82.5954L47.9956 107.604L44.717 117.494C42.8745 123.076 41.4385 127.818 41.4385 128.414C41.4385 129.741 42.1971 130.5 43.5248 130.5C44.1209 130.5 48.8626 129.064 54.4443 127.221L64.3341 123.943L86.4982 101.806L108.662 79.6962L109.583 80.6988C110.342 81.5387 110.532 81.9452 110.532 82.8664C110.532 84.0044 110.478 84.0315 101.997 92.5665C93.5159 101.074 93.4617 101.129 93.4617 102.267C93.4617 103.784 94.1662 104.488 95.7106 104.488L96.8486 104.516L105.438 95.818C110.152 91.0221 114.244 86.6597 114.488 86.1178C114.786 85.5217 115.03 84.2754 115.084 83.0561C115.219 80.6175 114.704 79.2085 113.106 77.4202L112.103 76.3093L113.458 74.8191C114.975 73.1663 115.761 71.2425 115.653 69.5355C115.572 68.533 115.68 68.3433 117.929 66.0673C121.099 62.8158 121.749 61.434 121.587 58.2096C121.397 54.7414 119.988 52.4654 117.062 51.0836C115.49 50.3249 112.266 50.1352 110.586 50.6771ZM115.165 55.3104C116.818 56.1775 117.522 58.589 116.655 60.2689C116.439 60.6753 115.517 61.732 114.623 62.6262L112.97 64.2519L110.342 61.5966L107.687 58.9683L109.177 57.451C109.99 56.611 111.047 55.6898 111.48 55.4188C112.456 54.7956 114.054 54.7685 115.165 55.3104ZM106.928 65.0106C110.017 68.0994 111.074 69.3187 111.074 69.8064C111.074 70.3213 107.876 73.6811 96.8486 84.7089L82.6235 98.9339L77.8276 94.111L73.0046 89.3151L87.2297 75.09C98.2576 64.0622 101.617 60.865 102.132 60.865C102.62 60.865 103.839 61.9217 106.928 65.0106ZM74.4949 97.5792L79.2366 102.321L71.1622 110.395L63.1148 118.443L58.3189 113.62L53.4959 108.824L61.4891 100.831C65.8785 96.4412 69.5364 92.8375 69.6177 92.8375C69.699 92.8375 71.8937 94.978 74.4949 97.5792ZM54.9862 117.088C56.9912 119.093 58.5628 120.773 58.5086 120.827C58.2918 121.017 47.5891 124.539 47.4808 124.458C47.3724 124.322 51.0303 113.43 51.1928 113.43C51.2741 113.43 52.9811 115.083 54.9862 117.088Z" fill="#106194"/>
<path d="M13.8017 83.3541C13.4494 83.7064 13.2598 84.2483 13.2598 84.9798C13.2598 85.7114 13.4494 86.2533 13.8017 86.6056C14.3165 87.1204 14.6958 87.1475 21.9303 87.1475C29.1648 87.1475 29.5441 87.1204 30.0589 86.6056C30.4112 86.2533 30.6008 85.7114 30.6008 84.9798C30.6008 84.2483 30.4112 83.7064 30.0589 83.3541C29.5441 82.8393 29.1648 82.8122 21.9303 82.8122C14.6958 82.8122 14.3165 82.8393 13.8017 83.3541Z" fill="#106194"/>
<path d="M35.4784 83.3541C35.1262 83.7064 34.9365 84.2483 34.9365 84.9798C34.9365 85.7114 35.1262 86.2533 35.4784 86.6056C35.9932 87.1204 36.3726 87.1475 49.0261 87.1475C61.6797 87.1475 62.059 87.1204 62.5739 86.6056C62.9261 86.2533 63.1158 85.7114 63.1158 84.9798C63.1158 84.2483 62.9261 83.7064 62.5739 83.3541C62.059 82.8393 61.6797 82.8122 49.0261 82.8122C36.3726 82.8122 35.9932 82.8393 35.4784 83.3541Z" fill="#106194"/>
<path d="M13.8017 96.3599C13.4494 96.7121 13.2598 97.254 13.2598 97.9856C13.2598 98.7171 13.4494 99.2591 13.8017 99.6113C14.3436 100.153 14.6958 100.153 31.6847 100.153C48.6735 100.153 49.0257 100.153 49.5676 99.6113C49.9199 99.2591 50.1095 98.7171 50.1095 97.9856C50.1095 97.254 49.9199 96.7121 49.5676 96.3599C49.0257 95.8179 48.6735 95.8179 31.6847 95.8179C14.6958 95.8179 14.3436 95.8179 13.8017 96.3599Z" fill="#106194"/>
</svg>
