<svg width="130" height="131" viewBox="0 0 130 131" fill="none" xmlns="http://www.w3.org/2000/svg">
<path d="M3.65643 1.01481C3.06059 1.28565 2.19393 1.93564 1.70643 2.42314C-0.0539846 4.26481 0.000182034 3.85856 0.000182034 20.0544C0.000182034 36.4669 -0.0539846 35.9252 1.9231 37.7939C3.76476 39.5544 3.35851 39.5002 19.5543 39.5002C35.9668 39.5002 35.4251 39.5544 37.2939 37.5773C39.0272 35.7356 39.0001 36.1419 39.0001 20.0002C39.0001 3.85856 39.0272 4.26481 37.2939 2.42314C35.4251 0.446063 35.9668 0.50023 19.5002 0.50023C5.68767 0.50023 4.65851 0.554396 3.65643 1.01481ZM33.1501 5.21272C33.7731 5.45647 34.1522 5.86272 34.3689 6.45856C34.8022 7.70439 34.8022 32.296 34.3689 33.5419C33.8001 35.1398 33.6376 35.1669 19.5543 35.1669C10.7793 35.1669 6.58142 35.0585 5.95851 34.8689C4.36059 34.3002 4.33351 34.1377 4.33351 20.0544C4.33351 11.2794 4.44184 7.08147 4.63143 6.45856C5.20018 4.86064 5.28143 4.86064 19.446 4.83356C29.7918 4.83356 32.4189 4.91481 33.1501 5.21272Z" fill="#106194"/>
<path d="M8.66797 11.3336V13.5002H10.8346H13.0013V11.3336V9.16692H10.8346H8.66797V11.3336Z" fill="#106194"/>
<path d="M17.333 11.3336V13.5002H23.833H30.333V11.3336V9.16692H23.833H17.333V11.3336Z" fill="#106194"/>
<path d="M8.66797 20.0001V22.1667H19.5013H30.3346V20.0001V17.8334H19.5013H8.66797V20.0001Z" fill="#106194"/>
<path d="M8.66797 28.6668V30.8335H19.5013H30.3346V28.6668V26.5002H19.5013H8.66797V28.6668Z" fill="#106194"/>
<path d="M105.408 1.04183C98.7729 2.80225 93.2479 8.35432 91.5417 15.0168C91.1625 16.4522 91 18.0231 91 20.0001C91 25.6335 92.7604 29.8855 96.6875 33.8126C100.615 37.7397 104.867 39.5001 110.5 39.5001C116.133 39.5001 120.385 37.7397 124.312 33.8126C128.24 29.8855 130 25.6335 130 20.0001C130 18.0231 129.837 16.4522 129.458 15.0168C127.752 8.30016 122.2 2.74808 115.483 1.04183C112.694 0.310584 108.171 0.337667 105.408 1.04183ZM114.265 5.51058C118.923 6.72933 122.985 10.4668 124.637 14.9897C125.342 17.021 125.612 21.0564 125.125 23.2231C124.069 28.0439 120.196 32.4314 115.51 34.1376C113.479 34.8418 109.444 35.1126 107.277 34.6251C102.456 33.5689 98.0687 29.696 96.3625 25.0106C95.6312 22.9793 95.3875 18.9168 95.875 16.7772C97.0667 11.4147 101.319 6.97308 106.708 5.48349C108.387 5.02308 112.504 5.02308 114.265 5.51058Z" fill="#106194"/>
<path d="M112.884 16.3982L108.334 20.9482L105.896 18.5107L103.459 16.0732L101.752 17.7794L100.073 19.4586L103.621 22.9794C107.061 26.419 107.196 26.5002 108.334 26.5002C109.525 26.5002 109.552 26.4732 115.213 20.8128L120.927 15.1523L119.302 13.5003C118.409 12.6065 117.623 11.8753 117.542 11.8753C117.461 11.8753 115.375 13.9065 112.884 16.3982Z" fill="#106194"/>
<path d="M54.1666 9.68138C50.2666 10.9272 46.8812 13.6626 45.1479 16.9668C43.7124 19.7293 43.3333 21.3272 43.3333 24.6855V27.6105L44.8229 29.2084L46.3395 30.7793L45.3645 31.3209C43.7395 32.2959 43.3333 33.298 43.3333 36.2501C43.3333 38.3355 43.4416 38.9855 43.8749 39.7168C44.7416 41.1251 45.8791 41.6668 47.9916 41.6668C49.7791 41.6668 49.8333 41.6938 49.9958 42.398C50.8624 46.4063 53.4895 50.3334 56.577 52.3105C57.4437 52.8522 57.4708 52.9063 57.3083 54.2334C56.9833 56.6167 56.8749 56.8334 56.0895 56.8334C55.7104 56.8334 53.9229 57.3209 52.1354 57.8897C50.3479 58.4584 47.9916 59.2167 46.9083 59.5417C45.8249 59.8938 44.2541 60.5709 43.4145 61.0584C42.602 61.573 41.8166 61.9792 41.7083 61.9792C41.6 61.9792 40.002 60.1105 38.1333 57.8355C35.425 54.5313 34.6937 53.4751 34.5583 52.5813C34.0166 49.4938 31.525 46.2168 28.5729 44.7543L26.9479 43.9688L14.0292 43.8876L1.11042 43.8063L0.514583 44.4022C0 44.9168 -0.0541666 45.2147 0.0541666 47.0834C0.270833 50.8209 2.57291 54.1792 6.09374 55.9126C7.69166 56.698 7.79999 56.698 12.9187 56.7792L18.1458 56.8876L25.3229 68.1542L32.5 79.448V81.1271V82.8334H18.9583C5.76874 82.8334 5.38958 82.8605 4.87499 83.3751C4.33333 83.9167 4.33333 84.2688 4.33333 100.708V117.5H2.70833C0 117.5 0 117.527 0 124C0 129.065 0.0270833 129.444 0.541666 129.958C1.08333 130.5 1.43542 130.5 64.9999 130.5C128.564 130.5 128.917 130.5 129.458 129.958C129.973 129.444 130 129.065 130 124C130 117.527 130 117.5 127.292 117.5H125.667V100.708C125.667 84.2688 125.667 83.9167 125.125 83.3751C124.61 82.8605 124.231 82.8334 111.042 82.8334H97.4999V81.0459V79.2584L101.671 72.7042C103.973 69.1022 107.196 64.0917 108.821 61.573L111.8 56.9688L117.054 56.8334C122.173 56.698 122.308 56.6709 123.906 55.9126C127.427 54.1792 129.729 50.8209 129.946 47.0834C130.054 45.2147 130 44.9168 129.485 44.4022L128.889 43.8063L115.971 43.8876L103.052 43.9688L101.427 44.7543C98.4749 46.2168 95.9832 49.4938 95.4416 52.5813C95.3061 53.4751 94.5749 54.5313 91.8666 57.8355C89.9978 60.1105 88.3999 61.9792 88.2916 61.9792C88.1832 61.9792 87.3978 61.573 86.5853 61.0584C85.7457 60.5709 84.1749 59.8938 83.0916 59.5417C82.0082 59.2167 79.652 58.4584 77.8645 57.8897C76.077 57.3209 74.2895 56.8334 73.9103 56.8334C73.1249 56.8334 73.0166 56.6167 72.6916 54.2334C72.5291 52.9063 72.5562 52.8522 73.4228 52.3105C76.5103 50.3334 79.1374 46.4063 80.0041 42.398C80.1666 41.6938 80.2207 41.6668 82.0082 41.6668C84.1207 41.6668 85.2582 41.1251 86.1249 39.7168C86.5582 38.9855 86.6666 38.3355 86.6666 36.2501C86.6666 33.298 86.2603 32.2959 84.6353 31.3209L83.6603 30.7793L85.177 29.2084L86.6666 27.6105V24.6855C86.6666 21.3272 86.2874 19.7293 84.8791 16.9939C83.1457 13.6897 80.0312 11.1168 76.2937 9.84388C74.2624 9.1668 74.1812 9.1668 64.9458 9.19388C56.8208 9.19388 55.4666 9.24805 54.1666 9.68138ZM72.7187 13.771C77.8103 14.5293 81.3582 18.1043 82.0624 23.2501L82.3603 25.2543L81.2499 26.3376L80.1666 27.448V26.4189C80.1666 25.7959 79.977 25.2272 79.6791 24.9293C79.1374 24.3876 62.1833 20.0001 60.6666 20.0001C59.6374 20.0001 50.2395 24.6584 49.9958 25.2814C49.9145 25.5251 49.8333 26.1209 49.8333 26.5814V27.448L48.7499 26.3376L47.6395 25.2543L47.9374 23.2501C48.0999 22.1397 48.5062 20.596 48.8854 19.8105C50.2937 16.723 53.5708 14.2855 57.0104 13.798C59.3124 13.473 70.4437 13.446 72.7187 13.771ZM68.3853 26.4459L75.6978 28.2876L75.7791 33.298C75.8603 39.0668 75.5624 41.9918 74.6145 44.023C73.7478 45.9188 71.3916 48.2751 69.4145 49.1959C68.0062 49.8459 67.5187 49.9272 64.9999 49.9272C62.4812 49.9272 61.9937 49.8459 60.5853 49.1959C58.6353 48.2751 56.252 45.9188 55.3854 44.023C54.4374 41.9918 54.1666 39.6084 54.1666 33.4064V27.9897L57.4978 26.3105C59.3124 25.3897 60.8562 24.6314 60.9374 24.6314C61.0187 24.6314 64.377 25.4439 68.3853 26.4459ZM49.8333 36.2501V37.3334H48.7499H47.6666V36.2501V35.1668H48.7499H49.8333V36.2501ZM82.3332 36.2501V37.3334H81.2499H80.1666V36.2501V35.1668H81.2499H82.3332V36.2501ZM26.1354 48.7897C27.3812 49.3584 28.8437 50.6855 29.4125 51.7688L29.8187 52.5272L19.7166 52.4459C10.6979 52.3647 9.50624 52.3105 8.53124 51.8772C7.28541 51.3084 5.82291 49.9813 5.25416 48.898L4.84791 48.1397L14.95 48.2209C23.9687 48.3022 25.1604 48.3563 26.1354 48.7897ZM124.746 48.898C124.177 49.9813 122.714 51.3084 121.469 51.8772C120.494 52.3105 119.302 52.3647 110.283 52.4459L100.181 52.5272L100.587 51.7688C101.048 50.9022 102.483 49.4668 103.404 49.0063C104.677 48.3563 106.519 48.2209 115.727 48.1938L125.152 48.1668L124.746 48.898ZM68.5478 57.5105L69.0083 60.2188L67.0041 62.2501L64.9999 64.2813L62.9958 62.2501L60.9916 60.2188L61.3708 57.7813C61.6145 56.4272 61.8312 55.1813 61.8853 54.9917C61.9937 54.748 62.752 54.6667 65.0541 54.7209L68.0874 54.8022L68.5478 57.5105ZM40.5979 68.2355C45.7166 74.4917 50.077 79.6917 50.2666 79.773C50.4562 79.8542 51.3499 79.3126 52.1895 78.6084C53.0562 77.8771 53.8145 77.2813 53.8416 77.2542C53.8958 77.2001 51.8645 74.6542 49.3458 71.5667C46.7999 68.4522 44.7958 65.8251 44.8499 65.7167C45.0937 65.3376 48.2354 63.848 48.6145 63.9292C48.8312 63.9834 51.0791 66.9355 53.6249 70.5105C57.4166 75.8188 58.2291 77.1188 58.0937 77.6876C57.4708 80.8292 54.1666 101.467 54.1666 102.388C54.1666 103.525 54.2479 103.606 58.9874 108.346C65.4603 114.819 64.5395 114.819 71.0124 108.346C75.752 103.606 75.8332 103.525 75.8332 102.388C75.8332 101.467 72.5291 80.8292 71.9062 77.6876C71.7708 77.1188 72.5832 75.8188 76.3749 70.5105C78.9207 66.9355 81.1687 63.9834 81.3853 63.9292C81.7645 63.848 84.9062 65.3376 85.1499 65.7167C85.2041 65.8251 83.1999 68.4522 80.6541 71.5667C78.1353 74.6542 76.1041 77.2001 76.1582 77.2542C76.1853 77.2813 76.9437 77.8771 77.8103 78.6084C78.6499 79.3126 79.5437 79.8542 79.7332 79.773C79.9228 79.6917 84.2832 74.4917 89.402 68.2355L98.7186 56.8334H102.456C104.487 56.8334 106.167 56.8876 106.167 56.9417C106.167 57.023 104.135 60.2188 101.644 64.0647C99.152 67.9105 96.227 72.5146 95.1436 74.2751L93.1666 77.5251V80.1792V82.8334H90.4582C86.2332 82.8334 86.6666 80.8292 86.6666 100.708V117.5H64.9999H43.3333V100.708C43.3333 80.8292 43.7666 82.8334 39.5416 82.8334H36.8333V80.1792V77.5521L30.3333 67.3417C26.7583 61.7084 23.8333 57.0501 23.8333 56.9688C23.8333 56.8876 25.5125 56.8334 27.5708 56.8334H31.2812L40.5979 68.2355ZM59.7187 65.7709C63.7541 69.7521 63.8353 69.8334 64.9999 69.8334C66.1645 69.8334 66.2458 69.7521 70.2812 65.7709L74.3707 61.7084L75.3999 62.0605L76.402 62.4126L72.2582 68.2084L68.0874 74.0313H64.9999H61.9124L57.7416 68.2084L53.5979 62.3855L54.4916 62.0605C54.9791 61.898 55.4395 61.7355 55.5208 61.7355C55.5749 61.7084 57.4708 63.523 59.7187 65.7709ZM67.6812 80.3688C67.8437 81.4251 67.9791 82.4001 67.9791 82.5355C67.9791 82.7251 66.9228 82.8334 64.9999 82.8334C63.077 82.8334 62.0208 82.7251 62.0208 82.5355C62.0208 82.4001 62.1562 81.4251 62.3187 80.3688L62.6437 78.5001H64.9999H67.3562L67.6812 80.3688ZM17.3333 90.9584C17.3333 96.1584 16.9 95.8334 23.8333 95.8334C30.7666 95.8334 30.3333 96.1584 30.3333 90.9584V87.1667H34.6666H39V102.333V117.5H23.8333H8.66666V102.333V87.1667H13H17.3333V90.9584ZM26 89.3334V91.5H23.8333H21.6666V89.3334V87.1667H23.8333H26V89.3334ZM68.927 88.0334C69.0083 88.5209 69.5499 91.7167 70.1458 95.1563L71.1749 101.385L68.0874 104.5L64.9999 107.615L61.9124 104.5L58.8249 101.385L59.8541 95.1563C60.4499 91.7167 60.9916 88.5209 61.0728 88.0334L61.2353 87.1667H64.9999H68.7645L68.927 88.0334ZM99.6666 90.9584C99.6666 96.1584 99.2332 95.8334 106.167 95.8334C113.1 95.8334 112.667 96.1584 112.667 90.9584V87.1667H117H121.333V102.333V117.5H106.167H90.9999V102.333V87.1667H95.3332H99.6666V90.9584ZM108.333 89.3334V91.5H106.167H104V89.3334V87.1667H106.167H108.333V89.3334ZM125.667 124V126.167H64.9999H4.33333V124V121.833H64.9999H125.667V124Z" fill="#106194"/>
</svg>
