<svg width="132" height="131" viewBox="0 0 132 131" fill="none" xmlns="http://www.w3.org/2000/svg">
<path d="M51.7812 0.652363C51.4258 0.703144 50.1309 0.880878 48.8613 1.03322C42.2852 1.84572 34.998 4.53713 29.1836 8.29494C25.2988 10.8086 22.8105 12.9668 16.4883 19.1621C13.0605 22.5391 9.4043 25.8906 8.36328 26.627C6.53516 27.9219 3.23438 29.6992 2.625 29.6992C2.47266 29.6992 2.04102 30.0039 1.66016 30.3848L0.974609 31.0703L1.07617 56.0801C1.15234 78.5254 1.20312 81.3691 1.58398 83.5274C3.23438 92.5664 6.30664 99.4473 11.8672 106.633C12.8066 107.826 16.3105 111.584 19.6621 115.012C23.0391 118.439 26.3906 122.096 27.127 123.137C28.4727 125.066 29.7168 127.301 30.0723 128.469C30.1738 128.824 30.5547 129.408 30.9102 129.789L31.5703 130.5H55.0566C79.1016 130.5 80.8281 130.449 85.9316 129.459C91.5684 128.367 99.6934 125.168 101.014 123.492C102.334 121.816 101.039 119.328 98.8809 119.328C98.5254 119.328 97.3574 119.76 96.2656 120.318C91.9238 122.477 86.6426 124.076 81.3105 124.813C79.6348 125.041 75.2168 125.244 70.0117 125.346C62.4961 125.473 61.4297 125.447 61.4297 125.117C61.4297 124.279 63.1309 121.41 64.4004 120.141C66.9141 117.602 69.4531 116.814 79.9648 115.266C81.9961 114.961 84.7383 114.453 86.0586 114.098C89.1562 113.285 93.498 111.178 96.0879 109.197C98.6523 107.217 103.426 102.773 104.365 101.453C105.939 99.3203 104.949 96.9844 102.512 96.9844C101.344 96.9844 101.293 97.0098 98.1699 100.107C93.0664 105.16 89.6641 107.496 87.3281 107.496C84.9922 107.496 82.834 105.566 82.5801 103.205C82.3262 100.996 83.1895 99.5742 85.9062 97.7969C86.9727 97.1113 89.791 94.5977 92.7871 91.6523C95.5801 88.9102 98.8047 85.9649 99.9473 85.1016C107.387 79.4649 115.486 76.3418 123.967 75.8086L125.922 75.707V86.2949V96.8828L124.348 97.6191C122.037 98.7109 118.762 101.123 116.096 103.713C113.76 105.973 113.734 106.023 113.734 107.217C113.734 108.156 113.861 108.563 114.344 109.045C115.74 110.416 117.035 110.188 119.168 108.182C122.723 104.855 126.557 102.164 128.74 101.504C129.273 101.352 130.01 100.92 130.365 100.539L131.025 99.8535L130.924 74.8691C130.848 52.4746 130.797 49.6309 130.416 47.4727C128.766 38.4336 125.693 31.5527 120.133 24.3672C119.193 23.1738 115.689 19.416 112.338 15.9883C108.961 12.5606 105.609 8.90431 104.873 7.8633C103.527 5.93361 102.283 3.69924 101.928 2.53127C101.826 2.1758 101.445 1.59182 101.09 1.18557L100.43 0.500019L76.4355 0.52541C63.2324 0.5508 52.1367 0.601582 51.7812 0.652363ZM70.5703 5.90822C70.5703 6.72072 68.8438 9.61525 67.625 10.8594C65.0605 13.3985 63.1309 14.0332 52.1621 15.7344C46.4238 16.6231 43.5547 17.4102 40.457 18.9336C37.3086 20.5078 34.2617 22.8692 30.2754 26.8047L26.8984 30.1309V31.3496C26.8984 33.1016 27.7871 34.0156 29.4629 34.0156C30.6816 34.0156 30.6816 34.0156 33.8301 30.8672C36.9785 27.7442 39.6191 25.586 41.9551 24.2402C45.1289 22.4121 49.0391 24.2656 49.4199 27.7949C49.6738 30.0039 48.8105 31.4258 46.0938 33.2031C45.0273 33.9141 42.2344 36.4024 39.2129 39.3731C36.4199 42.0899 33.043 45.1367 31.7227 46.127C24.1309 51.7383 16.4121 54.6836 8.18555 55.166L6.07812 55.293V44.7305V34.1426L7.80469 33.3047C10.9277 31.7305 13.4922 29.6231 20.043 23.2246C28.7266 14.7188 32.7891 11.7227 39.2129 9.15822C45.9922 6.44142 51.2988 5.67971 64.1719 5.60353C69.377 5.57814 70.5703 5.65432 70.5703 5.90822ZM98.0938 7.15236C99.5664 10.1992 101.852 12.9668 108.148 19.416C111.576 22.8945 115.131 26.7285 116.07 27.9219C120.717 33.9141 123.561 40.2871 124.932 47.8535C125.846 52.9317 126.354 70.0703 125.592 70.0703C124.779 70.0703 121.885 68.3438 120.641 67.125C118.102 64.5606 117.467 62.6309 115.766 51.6621C114.648 44.375 113.506 40.9727 110.789 36.9356C109.24 34.625 105.863 30.7402 103.273 28.3027C101.344 26.4746 101.191 26.3985 100.049 26.3985C98.2207 26.3985 97.3574 27.4902 97.459 29.6231C97.4844 29.9785 98.6777 31.375 100.658 33.3809C103.857 36.5801 105.939 39.1445 107.26 41.4551C107.768 42.3438 107.971 43.0547 107.996 44.0449C108.047 47.5742 104.162 50.0879 101.09 48.5137C99.9727 47.9297 99.4141 47.3457 98.0938 45.3145C97.5605 44.4766 94.8691 41.5059 92.127 38.7129C87.1758 33.6348 84.7129 30.6133 82.377 26.7793C78.8223 20.9141 76.6641 14.0078 76.334 7.53322L76.2324 5.57814H86.7949H97.3574L98.0938 7.15236ZM73.1348 19.3145C74.3281 23.0723 76.7148 28.0996 78.9492 31.4766C81.4375 35.2598 83.8496 38.1289 88.5215 42.7754C91.2129 45.4668 93.2695 47.752 93.9805 48.8692C95.4023 51.0781 97.0781 52.6524 98.957 53.5156C100.227 54.0996 100.76 54.1758 103.07 54.1758C105.457 54.2012 105.889 54.125 107.184 53.5156C107.996 53.1348 109.037 52.5508 109.494 52.1953L110.332 51.5606L111.043 56.0293C112.338 64.0527 113.201 66.6172 115.715 69.7149L116.984 71.2637L114.826 71.8223C108.301 73.4727 101.293 77.0781 95.3262 81.877C94.082 82.8672 91.1113 85.6348 88.7246 87.9961C86.1602 90.5606 83.6973 92.7695 82.6309 93.4805C80.2949 95.0039 79.1016 96.2481 78.1113 98.2539C77.3496 99.7773 77.2988 100.082 77.2988 102.57C77.2988 104.932 77.375 105.389 77.9844 106.684C78.3652 107.496 78.9492 108.537 79.3047 108.994L79.9395 109.832L75.4707 110.543C73.0078 110.949 70.0625 111.482 68.9453 111.762C66.3555 112.371 63.207 113.895 61.5312 115.367L60.2363 116.51L59.6777 114.352C58.0273 107.801 54.4219 100.818 49.623 94.8262C48.6328 93.5566 45.8652 90.5859 43.5039 88.2246C40.9395 85.6602 38.7305 83.1973 38.0195 82.1309C36.5723 79.8965 34.8965 78.3477 33.043 77.4844C31.7734 76.9004 31.2402 76.8242 28.9297 76.8242C26.543 76.7988 26.1113 76.875 24.8164 77.4844C24.0039 77.8652 22.9629 78.4492 22.5059 78.8047L21.668 79.4395L20.957 74.9707C19.6621 66.9473 18.7988 64.3828 16.2852 61.2852L15.0156 59.7109L17.1992 59.1524C23.6992 57.5274 30.6816 53.9473 36.6738 49.1231C37.9434 48.1328 40.9141 45.3652 43.2754 42.9785C45.9668 40.2871 48.252 38.2305 49.3691 37.5195C51.5781 36.0977 53.1523 34.4219 54.0156 32.543C54.5996 31.2735 54.6758 30.7402 54.6758 28.4297C54.7012 26.043 54.625 25.6113 54.0156 24.3164C53.6348 23.5039 53.0508 22.4629 52.6953 22.0059L52.0605 21.168L56.4277 20.457C64.5781 19.1621 67.1426 18.2735 70.1895 15.7852L71.7129 14.541L71.916 15.3281C72.043 15.7598 72.5762 17.5625 73.1348 19.3145ZM8.38867 61.7422C10.5723 62.834 12.4766 64.7891 13.543 66.9981C14.4824 68.9531 14.9648 71.1875 16.2344 79.3379C17.8086 89.5703 19.6113 93.2266 26.8984 100.895C29.7422 103.891 30.7578 104.602 32.1035 104.602C33.7793 104.602 34.6426 103.434 34.541 101.377C34.5156 101.021 33.3223 99.625 31.3164 97.5938C26.2637 92.5156 24.0547 89.2402 24.0293 86.8281C23.9785 83.4004 27.8887 80.9375 30.9102 82.4863C32.0273 83.0703 32.5859 83.6543 33.9062 85.6856C34.4395 86.5234 37.1309 89.4941 39.873 92.2871C44.8242 97.3652 47.2871 100.387 49.623 104.221C53.1777 110.086 55.3359 116.992 55.666 123.467L55.7676 125.422H45.2051H34.6426L33.9062 123.848C32.4336 120.801 30.1484 118.033 23.8516 111.584C20.4238 108.105 16.8691 104.271 15.9297 103.078C10.7754 96.4004 7.85547 89.418 6.6875 80.7598C6.48438 79.1856 6.25586 74.5137 6.1543 69.4863C6.02734 61.9707 6.05273 60.9297 6.38281 60.9297C6.58594 60.9297 7.5 61.2852 8.38867 61.7422Z" fill="#106194"/>
<path d="M54.9045 52.0176C52.9748 52.7286 51.6545 53.7442 50.1564 55.6993C48.2268 58.2383 47.6428 62.8848 48.8361 66.2871C50.0803 69.7911 52.5178 72.5586 60.135 79.0332C66.4826 84.4414 65.4924 84.5176 72.6779 78.3223C81.7932 70.502 83.7736 67.6582 83.7736 62.3262C83.7736 57.7813 81.717 54.2774 77.9338 52.3985C76.7658 51.8145 76.1311 51.6622 74.1252 51.586C71.1799 51.459 69.4787 51.9922 67.3713 53.7188L66.0002 54.836L64.6291 53.7188C62.6994 52.1446 60.8967 51.5352 58.3068 51.5352C56.9357 51.5606 55.7678 51.7129 54.9045 52.0176ZM60.3381 57.2989C61.3537 57.7813 62.7502 59.5586 63.2326 60.9805C63.7404 62.5293 64.5783 63.2149 66.0002 63.2149C67.4221 63.2149 68.2854 62.5293 68.7424 61.0059C69.174 59.6348 70.6213 57.7813 71.6623 57.2989C72.7541 56.7657 74.6838 56.7403 75.6232 57.2227C76.6135 57.7559 77.8322 59.1778 78.1877 60.295C78.7209 61.92 78.4162 64.2051 77.426 65.8301C76.0803 68.0645 74.8615 69.334 70.2912 73.2696L66.0002 76.9512L62.5217 73.9551C55.4885 67.9629 53.5588 65.4746 53.5588 62.4024C53.5588 58.2891 56.9865 55.6993 60.3381 57.2989Z" fill="#106194"/>
<path d="M106.27 113.387C105.736 113.92 105.609 114.301 105.609 115.266C105.609 116.941 106.473 117.805 108.148 117.805C109.824 117.805 110.688 116.941 110.688 115.266C110.688 114.301 110.561 113.92 110.027 113.387C109.062 112.447 107.234 112.447 106.27 113.387Z" fill="#106194"/>
</svg>
