<svg width="92" height="130" viewBox="0 0 92 130" fill="none" xmlns="http://www.w3.org/2000/svg">
<path d="M44.8531 0.49393C42.8905 1.69188 42.4572 2.91532 42.4317 7.22285C42.4317 9.9501 42.3552 10.6383 41.9219 11.4794C41.2847 12.7283 40.0868 13.6459 38.5575 14.0537C36.5949 14.589 35.6773 14.1557 32.6187 11.199C31.1658 9.82266 29.6875 8.57373 29.3052 8.4208C27.9543 7.91103 26.0427 8.11494 24.8193 8.90508C23.1625 9.97558 16.5356 16.8065 16.0513 17.9279C15.5415 19.1259 15.567 20.7317 16.0768 21.7512C16.3062 22.21 17.5041 23.6118 18.753 24.8863C20.002 26.1607 21.1999 27.6135 21.4038 28.1233C22.4998 30.7486 20.9705 33.9091 18.2688 34.6738C17.759 34.8012 15.9238 34.9286 14.1906 34.9286C10.7497 34.9286 9.85762 35.158 8.73613 36.356C7.58916 37.5794 7.5127 38.1657 7.5127 44.6397C7.5127 50.1452 7.56367 50.8589 7.99697 51.7C9.06748 53.8155 10.2909 54.2998 14.522 54.2998C17.9374 54.2998 19.0334 54.5547 20.2314 55.6507C21.047 56.4153 21.7861 58.0466 21.7861 59.219C21.7861 60.8248 21.1235 61.8953 18.6256 64.4696C17.3002 65.8205 16.1023 67.2478 15.9493 67.6302C15.567 68.6242 15.5925 70.23 16.0258 71.1985C16.4846 72.2436 24.7428 80.4508 25.6859 80.8076C26.8073 81.2154 28.5915 81.1135 29.6365 80.5782C30.1463 80.2979 31.4972 79.1509 32.6187 78.0039C34.7852 75.7864 36.1361 74.9708 37.5889 74.9453C38.8378 74.9453 40.5965 75.8884 41.5141 77.0608C42.3042 78.0549 42.3042 78.0549 42.4317 82.0311C42.6101 86.517 42.7885 87.1542 44.3943 88.3777C45.3119 89.0658 45.3883 89.0913 49.2116 89.1678C54.5641 89.2952 54.1563 89.8305 54.1563 82.3369V76.4746H55.813H57.4698L59.3049 78.4372C60.3245 79.5332 61.9048 81.19 62.8478 82.1585L64.53 83.8662H67.4612H70.4178L70.6727 84.6054C71.0805 85.7269 72.8902 87.5875 74.2411 88.2502C75.6939 88.9384 78.4722 88.9894 79.976 88.3522C81.2759 87.7914 82.8816 86.2876 83.5188 85.0387C84.1815 83.7643 84.4109 81.19 84.0031 79.7371C82.6013 74.7414 75.9488 73.0082 72.253 76.704C71.5903 77.3667 70.9021 78.3353 70.6982 78.845L70.3669 79.7881H68.3023H66.2378L62.9753 76.2452C61.1656 74.2826 59.5343 72.6259 59.3304 72.5494C59.1265 72.4729 57.8776 72.3965 56.5522 72.3965H54.1563V69.6183C54.1563 65.8715 54.0798 65.7695 50.7154 65.4891C39.2966 64.5206 30.7071 54.835 31.2933 43.5947C31.6501 36.7638 35.0656 30.825 40.8259 27.0273C43.8335 25.0392 47.0451 24.0196 51.6839 23.5609C53.9779 23.3315 54.1563 23.0511 54.1563 19.6357V16.8319H56.7561H59.3304L60.248 15.8634C60.7578 15.3281 62.3126 13.6714 63.6889 12.1676L66.2123 9.44033H68.3023H70.3669L70.6727 10.256C71.1315 11.5559 72.3295 12.8303 73.8078 13.6459C75.0057 14.3086 75.439 14.4106 77.0958 14.4106C81.3014 14.3851 84.2325 11.5304 84.2325 7.40126C84.2325 1.0037 76.5096 -2.0549 72.0236 2.55848C71.4629 3.14472 70.8511 4.01132 70.6727 4.4956L70.3669 5.3622H67.4102H64.4791L60.9107 9.05801L57.3423 12.7538H55.7621H54.1563V6.8915C54.1563 -0.551091 54.5386 0.00965226 49.39 0.00965226C46.153 0.00965226 45.5158 0.0861172 44.8531 0.49393ZM50.0782 11.7088V19.5847L48.6508 19.7631C46.4843 20.018 43.8081 20.8336 41.4631 21.9296C34.7597 25.0902 29.8914 30.9525 27.8524 38.3951C27.3936 40.0773 27.3171 41.0968 27.3171 44.6142C27.3171 49.2531 27.623 50.9353 29.1778 54.5801C31.0129 58.9386 35.142 63.6285 39.3221 66.1264C41.6925 67.5282 45.4903 68.9301 48.2175 69.3634L50.0782 69.6692V77.4177V85.1661L48.3705 85.0897L46.6373 85.0132L46.5098 81.19C46.3824 78.0039 46.2804 77.1628 45.8216 76.1688C45.006 74.3846 43.1963 72.5749 41.3357 71.7338C39.9593 71.0966 39.475 70.9946 37.4615 71.0201C34.3009 71.0456 33.3069 71.5299 30.1973 74.563C28.8464 75.8884 27.6485 76.9844 27.4955 76.9844C27.3681 76.9844 25.5584 75.2767 23.4429 73.1611L19.6451 69.3634L22.0155 66.9165C25.1506 63.6795 25.7368 62.456 25.7368 59.1426C25.7368 56.976 25.6604 56.5682 24.9977 55.2428C24.1056 53.4841 22.2449 51.6745 20.5882 50.9353C19.5942 50.502 18.6766 50.3746 15.5415 50.2471L11.7183 50.0942V44.6142V39.1342L15.4141 39.0068C18.6766 38.8793 19.2628 38.7774 20.5372 38.1912C22.5508 37.2736 23.9272 35.9227 24.8957 33.9601C25.6604 32.4053 25.7368 32.0485 25.7368 29.831C25.7368 27.6645 25.6604 27.2567 24.9977 26.0077C24.5899 25.2176 23.29 23.6118 22.0155 22.2864C20.7666 21.0375 19.7471 19.8905 19.7471 19.7631C19.7471 19.3808 26.9858 12.244 27.3681 12.244C27.572 12.244 28.7954 13.2636 30.0699 14.538C33.1284 17.5201 34.5303 18.2338 37.5889 18.2338C39.3986 18.2338 39.9848 18.1064 41.2082 17.5456C43.1199 16.6535 44.8021 15.0478 45.6687 13.2891C46.3314 11.9637 46.3824 11.6068 46.4588 8.16591C46.5608 3.90937 46.5863 3.8329 48.7273 3.8329H50.0782V11.7088ZM78.3702 4.72499C80.2818 5.71904 80.7406 7.7581 79.3642 9.2874C78.3957 10.4089 77.2487 10.6638 75.9743 10.0775C73.7568 9.03252 73.7568 5.82099 75.9233 4.75048C76.9174 4.24071 77.4526 4.24071 78.3702 4.72499ZM78.6251 79.1764C80.8426 80.5018 80.5877 83.5349 78.1663 84.5544C76.4076 85.2936 74.2921 83.7898 74.2921 81.8017C74.2921 79.4822 76.6625 78.0294 78.6251 79.1764Z" fill="#106194"/>
<path d="M74.5722 18.7946C73.1959 19.2788 71.1823 21.2159 70.698 22.5159L70.3667 23.4589H67.3591C63.8672 23.4589 64.5808 23.0256 60.1459 27.8429L57.3931 30.8505H55.7619H54.1561V29.0918C54.1561 27.4606 54.1051 27.2822 53.4679 26.7724C52.8307 26.2626 52.5503 26.2117 50.8936 26.3646C42.9667 27.0273 36.4417 32.4308 34.5301 39.9244C33.8929 42.3458 33.8419 46.5513 34.4282 48.9472C36.2378 56.6447 43.4765 62.609 51.2759 62.7874C53.7228 62.8639 54.1561 62.456 54.1561 60.0092V58.3779H55.7874H57.4186L60.5537 61.7424C62.2869 63.603 63.8672 65.2598 64.0966 65.4382C64.3514 65.6421 65.4984 65.744 67.41 65.7695H70.3667L70.6725 66.5852C71.743 69.5673 75.7957 71.5044 79.0582 70.6378C83.1873 69.5163 85.4303 64.6735 83.6206 60.7993C82.9579 59.372 81.3266 57.7662 79.9248 57.1545C78.5739 56.5682 75.7192 56.6192 74.2664 57.2819C72.8136 57.9191 71.4372 59.2955 70.8255 60.6464L70.3667 61.6914H68.2766H66.1866L63.0515 58.3014C61.3183 56.4663 59.6871 54.8096 59.3812 54.6311C59.1008 54.4527 57.9029 54.3253 56.5265 54.2998H54.1561V50.4765V46.6533H59.9674H65.8043L66.2631 47.6728C66.7983 48.8708 68.608 50.604 69.8059 51.1137C72.1763 52.1078 75.0565 51.7255 77.1466 50.1452C79.6444 48.2336 80.4855 44.4103 79.0327 41.4537C76.9427 37.1971 71.3862 36.1776 67.9198 39.4146C67.2571 40.0263 66.5179 40.9949 66.2631 41.5556L65.8043 42.5752H59.9674H54.1561V38.7774V34.9796L56.7304 34.8777L59.3047 34.8012L62.7966 31.1564L66.2631 27.5116L68.3276 27.5371H70.3922L70.851 28.5566C71.4117 29.8055 73.1449 31.4368 74.4703 31.9975C75.9231 32.6347 78.4974 32.5582 80.0267 31.8956C82.5756 30.7741 83.9774 28.7605 84.1813 25.9568C84.4107 22.8472 83.0853 20.5023 80.3581 19.1514C78.5484 18.2338 76.4839 18.1064 74.5722 18.7946ZM78.6249 22.8217C80.8679 23.9942 80.46 27.6135 78.0132 28.2762C76.178 28.7605 74.2919 27.3331 74.2919 25.4725C74.2919 24.1726 74.6232 23.5609 75.6428 22.9492C76.6113 22.3374 77.6308 22.3119 78.6249 22.8217ZM50.078 44.6397V58.6838L49.2624 58.5054C47.4782 58.123 45.6685 57.2819 43.9098 56.0075C36.977 51.0373 36.0594 40.9694 41.9982 34.8522C43.7314 33.068 45.2607 32.074 47.6311 31.2074C50.3584 30.1878 50.078 28.633 50.078 44.6397ZM74.3174 42.1419C75.9231 43.2124 76.127 45.3024 74.7507 46.6533C73.4253 47.9787 71.6921 47.8767 70.3412 46.3984C69.5765 45.5573 69.6275 43.5947 70.4686 42.7026C71.6411 41.4282 72.9665 41.2243 74.3174 42.1419ZM78.37 61.0542C80.7149 62.2521 80.7404 65.3362 78.421 66.4322C75.6173 67.7576 72.9665 64.3167 74.9801 61.9463C76.0506 60.6719 77.0956 60.3915 78.37 61.0542Z" fill="#106194"/>
<path d="M24.0801 88.3266C23.3155 88.5305 21.1235 89.2442 19.2373 89.9324C15.3376 91.3852 12.7123 92.1244 12.2026 91.9205C11.9986 91.844 11.8457 91.6146 11.8457 91.4107C11.8457 90.9009 10.4693 89.8049 9.57726 89.601C9.09298 89.4991 7.7421 89.7285 5.67754 90.2637C3.07774 90.9519 2.38955 91.2323 1.72686 91.9205C1.01318 92.6086 0.885742 92.9145 0.885742 93.934C0.885742 94.9791 9.042 126.279 9.85763 128.318C10.24 129.286 11.4634 130 12.7378 130C14.3691 130 19.1863 128.598 19.9255 127.935C20.2569 127.604 20.6647 126.839 20.8431 126.253C21.0215 125.565 21.3019 125.132 21.6332 125.03C21.9391 124.953 23.6723 124.8 25.482 124.724C29.3817 124.571 31.2423 124.851 37.5634 126.61C39.8574 127.247 42.4062 127.859 43.2473 127.961C45.1335 128.241 47.7842 127.859 49.441 127.094C50.7154 126.508 83.7228 107.519 87.1892 105.378C89.9674 103.671 91.1144 101.682 91.1144 98.5984C91.1144 94.7242 88.8459 92.0224 84.9207 91.2323C82.3974 90.7225 81.5562 91.0539 72.6099 96.228L64.4791 100.918L64.0713 99.465C63.536 97.5024 63.0517 96.6613 61.7518 95.4378C60.1206 93.8576 58.6932 93.2204 56.4503 93.0929C54.768 93.0165 54.0034 93.1439 50.1037 94.1889C43.3493 96.0241 43.4512 96.0496 35.295 91.3087C32.9755 89.9579 30.5286 88.658 29.815 88.4031C28.3112 87.8933 26.0427 87.8423 24.0801 88.3266ZM33.7402 95.2084C39.8064 98.7003 41.0043 99.1846 43.961 99.363C45.9236 99.465 46.5608 99.363 50.6389 98.2925C55.5072 97.0181 56.2718 96.9417 57.5463 97.4769C60.1206 98.5474 61.0636 101.937 59.3814 104.155C58.4383 105.378 57.8776 105.608 51.9388 107.239C46.8667 108.641 46.5098 108.692 43.8845 108.666C40.7495 108.59 40.1377 108.896 40.1377 110.45C40.1377 112.184 41.4631 112.821 45.108 112.77C46.7392 112.77 48.243 112.464 52.627 111.292C59.5598 109.456 60.0441 109.278 61.6754 107.774C63.1792 106.398 81.7856 95.5143 83.111 95.2339C84.1815 95.0045 85.456 95.5398 86.3481 96.5848C86.9088 97.2475 87.0362 97.6808 87.0362 98.7003C87.0362 99.8473 86.9343 100.077 86.0932 100.918C84.5894 102.371 48.2175 123.271 46.3314 123.755C44.5472 124.214 43.9355 124.112 38.6594 122.634C32.3383 120.85 29.9169 120.493 25.482 120.671C23.3919 120.748 21.2509 120.901 20.7666 120.977L19.8745 121.105L16.5356 108.666L13.1966 96.228L14.3691 95.8966C15.0063 95.7182 17.4277 94.9026 19.7471 94.1125C27.8014 91.3342 26.9348 91.2578 33.7402 95.2084ZM12.4829 109.354C14.7004 117.689 16.5101 124.622 16.5356 124.749C16.5611 124.851 15.8474 125.157 14.9553 125.412L13.375 125.845L13.1966 125.208C13.1201 124.851 11.234 117.842 9.042 109.635L5.04034 94.6987L6.59512 94.2909C7.43624 94.0615 8.22638 93.9595 8.30284 94.036C8.37931 94.1125 10.2654 101.02 12.4829 109.354Z" fill="#106194"/>
</svg>
