<svg width="130" height="131" viewBox="0 0 130 131" fill="none" xmlns="http://www.w3.org/2000/svg">
<path d="M11.5527 1.69342C9.03906 4.76568 7.26172 8.19342 6.2207 12.129C5.61133 14.3126 5.53516 15.0743 5.53516 18.7813C5.53516 22.4883 5.61133 23.2501 6.19531 25.4083C7.26172 29.3692 9.54688 33.7618 11.7813 36.0977C13.2539 37.6719 15.1582 37.3673 15.4375 35.5391C15.5645 34.752 15.4121 34.4473 14.168 32.8731C12.416 30.7149 10.6641 27.211 9.92774 24.4942C9.11523 21.5743 9.11523 15.9883 9.92774 13.0684C10.6641 10.3516 12.416 6.87311 14.1426 4.7149C15.666 2.78522 15.8945 1.87115 15.0313 1.00787C14.7012 0.677793 14.1934 0.500059 13.5332 0.500059C12.6445 0.500059 12.416 0.652402 11.5527 1.69342Z" fill="#106194"/>
<path d="M48.9536 0.880765C47.938 1.89639 48.1919 2.81045 50.0708 5.19717C51.4926 6.97452 52.9653 9.91983 53.7778 12.5605C54.4126 14.6425 54.4887 15.2011 54.4887 18.7812C54.4887 22.3358 54.4126 22.9452 53.8032 24.9511C52.9145 27.8202 51.7212 30.1815 49.9438 32.5175C48.2426 34.7773 48.0649 35.3612 48.7251 36.2499C49.4106 37.1894 50.9087 37.3163 51.7465 36.5292C52.6352 35.7167 54.6919 32.619 55.6567 30.7148C60.227 21.6249 59.059 10.0722 52.7876 2.27725C51.5688 0.779202 51.3403 0.626859 50.4008 0.550687C49.7153 0.499906 49.2329 0.601468 48.9536 0.880765Z" fill="#106194"/>
<path d="M18.0791 5.40039C17.7236 5.57812 16.8603 6.54296 16.1494 7.5332C11.1982 14.4395 11.4267 24.1641 16.6826 30.7656C17.749 32.1113 17.9267 32.2383 18.8408 32.2383C20.9482 32.2383 21.5068 30.5117 20.0087 28.709C16.7334 24.7988 15.5654 19.1875 17.038 14.4648C17.7744 12.0781 18.2314 11.1641 19.7041 9.20898C20.3642 8.3457 20.872 7.38086 20.872 7.02539C20.872 5.67968 19.2978 4.76562 18.0791 5.40039Z" fill="#106194"/>
<path d="M44.0525 5.375C43.4432 5.67968 42.8338 6.89843 43.0369 7.43164C43.1131 7.60937 43.7986 8.67578 44.5604 9.81836C46.2107 12.2305 46.9471 14.1094 47.3533 16.8008C47.8611 20.3809 46.9979 24.0879 44.9158 27.1855C42.9607 30.0801 42.91 30.1816 43.0623 30.8164C43.2908 31.7812 43.9256 32.2383 44.992 32.2383C45.8299 32.2383 46.1092 32.0859 47.0232 31.0195C48.2928 29.5469 50.1717 25.8398 50.7557 23.6055C51.365 21.3457 51.365 16.2168 50.7557 13.957C50.1463 11.6211 48.2674 7.96484 46.9725 6.54296C45.8045 5.27343 44.9666 4.91796 44.0525 5.375Z" fill="#106194"/>
<path d="M30.0371 9.6406C27.2695 10.2246 24.8828 12.0781 23.6133 14.6679C22.8516 16.2168 22.7754 16.5468 22.7754 18.7812C22.7754 21.0156 22.8516 21.3457 23.6133 22.8945C24.4512 24.5957 26 26.2461 27.4219 26.9316L28.1328 27.2871L20.0586 66.8965C15.6406 88.6816 11.0703 111.102 9.92773 116.713L7.8457 126.945H4.5957C1.52344 126.945 1.32031 126.971 0.964844 127.504C0.457031 128.24 0.457031 129.205 0.964844 129.941L1.3457 130.5H51.9746H102.604L102.984 129.941C103.492 129.205 103.492 128.24 102.984 127.504C102.604 126.945 102.502 126.945 96.6621 126.945H90.7461L90.4668 126.107C89.6289 123.365 83.5352 100.996 83.6367 100.92C83.6875 100.869 84.2461 100.971 84.8809 101.148C88.7148 102.316 95.3164 102.646 99.7852 101.936C106.158 100.895 112.684 97.6953 117.203 93.4043C119.158 91.5762 119.641 90.6113 119.641 88.6816C119.641 84.3652 114.918 75.9609 107.986 67.9375L106.971 66.7695L108.139 63.3926L109.332 59.9902L110.932 59.7363C116.771 58.7207 119.082 51.7383 114.943 47.5996C113.521 46.2031 111.998 45.5937 109.865 45.5937C106.082 45.5937 103.238 48.1328 102.73 51.916L102.578 53.2109L99.1758 54.4043L95.7734 55.5722L94.6055 54.5566C86.582 47.625 78.1777 42.9023 73.8613 42.9023C71.8809 42.9023 70.9668 43.3847 69.0371 45.4414C64.6953 50.0371 61.6484 56.334 60.582 62.9101C59.9473 66.8203 60.2012 72.8633 61.1914 76.7226C61.623 78.3476 62.4355 80.7851 63.0195 82.1308C64.0605 84.4922 66.7012 88.6816 68.4277 90.7637L69.291 91.7793L64.416 109.299L59.5664 126.818L57.7891 126.895L56.0371 126.971L45.9062 77.6367C40.3203 50.4941 35.7246 28.125 35.6484 27.8711C35.5723 27.5918 35.9277 27.2363 36.6895 26.7793C38.2129 25.8906 39.5586 24.3672 40.3965 22.6152C40.9551 21.3965 41.0566 20.8633 41.0566 18.7812C41.0566 16.6484 40.9805 16.1914 40.3203 14.7695C38.5938 11.0117 34.125 8.77732 30.0371 9.6406ZM33.5156 13.5508C35.0898 14.1093 36.0293 14.9472 36.7402 16.3437C37.9082 18.7051 37.4004 21.1679 35.3438 22.8945C33.0078 24.9004 29.7578 24.5703 27.752 22.1582C25.873 19.873 26.0508 17.0547 28.2344 14.9472C29.8848 13.3222 31.5859 12.8906 33.5156 13.5508ZM34.9121 43.3594L36.5625 51.3066L35.1152 52.4492C34.3281 53.0586 33.2871 53.8711 32.7539 54.2265L31.8398 54.8867L29.5293 53.1347C28.2598 52.1953 27.2188 51.332 27.2188 51.2305C27.2188 51.0019 31.4844 30.0039 31.6875 29.1914C31.8145 28.7344 32.043 29.4961 32.5762 31.9844C32.957 33.8633 34.0234 38.9922 34.9121 43.3594ZM75.7402 47.1172C77.8223 47.7265 81.1484 49.5039 84.5 51.7637C88.207 54.2519 91.5332 56.8926 91.2793 57.1211C91.1777 57.2226 89.6543 57.7812 87.9023 58.3652C86.1504 58.9746 84.5254 59.6855 84.2969 59.9648C83.2559 61.1582 84.0938 62.9609 85.6934 62.9609C86.4297 62.9609 88.9434 62.1738 93.6406 60.4219L94.9355 59.9648L98.7441 63.7988L102.578 67.6582L101.08 71.8476C100.268 74.1582 99.582 76.418 99.582 76.8496C99.582 78.4492 101.385 79.2871 102.578 78.2461C102.857 78.0176 103.568 76.4687 104.127 74.793C104.711 73.1426 105.27 71.6191 105.371 71.416C105.523 71.1621 106.133 71.7461 107.631 73.6758C112.785 80.2773 116.289 87.0058 115.73 89.2402C115.553 89.9258 115.527 89.9512 114.08 89.7988C110.576 89.4941 103.898 85.5586 96.6621 79.5156C93.0312 76.4687 84.7031 67.9629 81.707 64.2305C76.0195 57.1211 72.668 51.0781 72.668 47.9551C72.668 46.6094 73.3789 46.4316 75.7402 47.1172ZM111.693 49.9101C112.607 50.4941 113.115 51.4844 113.115 52.6777C113.115 53.8965 112.607 54.8613 111.617 55.5215C110.779 56.0547 108.951 56.0547 108.113 55.5215C105.904 54.0742 106.184 50.6719 108.57 49.6055C109.459 49.1992 110.83 49.3515 111.693 49.9101ZM70.4844 54.2265C70.8906 55.166 72.1094 57.3242 73.2012 59.0762L75.1816 62.2246L73.252 65.1953C72.1855 66.8203 71.2461 68.2676 71.1445 68.3691C70.916 68.623 69.7734 65.1699 69.2402 62.5801C69.0117 61.4629 68.834 59.457 68.8086 58.1367C68.8086 55.8008 69.2656 52.5508 69.5957 52.5508C69.6973 52.5508 70.1035 53.3125 70.4844 54.2265ZM27.8535 56.7402C28.7168 57.4512 28.8438 57.1972 26.4824 58.9238C25.5938 59.584 25.416 59.6348 25.5176 59.2539C25.5938 59 25.7969 58.0605 25.9746 57.1972C26.3047 55.4453 26.3047 55.4453 27.8535 56.7402ZM37.8574 57.4765C38.2891 59.7871 38.2637 59.7871 36.6133 58.5176L35.0645 57.3242L36.1562 56.4863C36.7656 56.0293 37.3242 55.7246 37.4004 55.8008C37.4766 55.9023 37.6797 56.664 37.8574 57.4765ZM104.812 57.7558L105.727 58.6699L104.863 61.0566L104.025 63.4687L101.562 61.0058L99.0742 58.543L101.309 57.7305C102.527 57.2734 103.619 56.8926 103.721 56.8926C103.822 56.8672 104.33 57.2734 104.812 57.7558ZM35.5723 62.5801C37.502 64.0273 39.2031 65.373 39.3301 65.5508C39.4824 65.7285 39.7871 66.9473 40.041 68.2422C40.4219 70.2734 40.4473 70.6543 40.1426 70.9336C38.6445 72.3047 31.9414 77.2051 31.7129 77.1035C31.5352 77.0527 29.5801 75.5801 27.3457 73.8789C25.1113 72.1523 23.2578 70.7305 23.2324 70.7305C23.207 70.7051 23.4355 69.5117 23.7402 68.0898L24.2988 65.4492L27.9805 62.6816C30.0117 61.1836 31.7637 59.914 31.8652 59.914C31.9922 59.914 33.6426 61.1074 35.5723 62.5801ZM65.9141 65.0937C66.2949 66.6172 67.1074 69.1055 67.7422 70.6035L68.9102 73.3457L68.4023 74.6914C67.9961 75.834 67.4629 77.8652 66.9297 80.4805C66.8027 81.0391 66.7012 80.9121 66.1426 79.5918C65.7871 78.7539 65.2031 76.9766 64.8477 75.6562C64.2891 73.5234 64.2129 72.7109 64.1875 68.8008C64.1621 65.8555 64.2891 63.748 64.5176 62.5801C64.8477 60.9805 64.8984 60.8789 65.0762 61.5644C65.1777 61.9707 65.5586 63.5703 65.9141 65.0937ZM80.0566 68.3437C83.1035 72.0254 90.5176 79.4394 94.1992 82.4863L97.0684 84.873L95.4434 85.9394C94.5801 86.5488 92.8789 87.5391 91.6855 88.1992L89.5273 89.3672L87.2422 87.8183C81.8594 84.1367 78.3809 80.6836 74.7246 75.3008L73.1758 73.0156L74.2168 71.1113C75.0547 69.5371 77.5176 65.5254 77.6445 65.5C77.6699 65.5 78.7617 66.7949 80.0566 68.3437ZM42.5801 80.6074C43.2148 83.6543 43.6973 86.168 43.6465 86.2187C43.5703 86.2949 39.0762 82.918 35.7754 80.3027L35.0645 79.7695L38.1875 77.3574C39.9141 76.0371 41.3359 74.9707 41.3613 74.9961C41.4121 75.0215 41.9453 77.5605 42.5801 80.6074ZM25.6445 77.4336C27.1934 78.6269 28.4375 79.6933 28.4121 79.7949C28.3359 80.0742 20.2617 86.2949 20.1348 86.1933C20.0586 86.0918 22.0391 76.1894 22.293 75.4531C22.4453 74.9707 22.4707 74.9961 25.6445 77.4336ZM73.252 79.9473C75.4609 82.8926 79.6504 87.082 82.5449 89.2656C84.0684 90.3828 84.7539 91.043 84.5508 91.1699C83.7637 91.5762 80.4375 91.957 78.4824 91.8555C73.5059 91.5762 70.9414 88.9609 70.6875 83.959C70.5859 81.8008 71.1191 77.6875 71.5 77.6875C71.5254 77.6875 72.3379 78.7031 73.252 79.9473ZM38.3906 87.2344C41.9453 89.9766 44.8906 92.2363 44.916 92.2617C45.043 92.3887 46.0586 97.543 45.957 97.6191C45.7539 97.7969 32.1445 104.145 31.916 104.17C31.7891 104.17 28.5391 102.697 24.7305 100.895L17.7734 97.6445L17.9512 96.5527C18.0273 95.9687 18.3066 94.7246 18.5352 93.8105L18.9668 92.1348L25.3145 87.209C28.8184 84.5176 31.7129 82.2832 31.7891 82.2832C31.8652 82.2578 34.8359 84.4922 38.3906 87.2344ZM103.441 89.3164C105.193 90.4082 107.377 91.6269 108.316 92.0332C109.23 92.4141 109.992 92.8203 109.992 92.9219C109.992 93.2773 106.793 93.7344 104.406 93.7344C101.74 93.709 98.9727 93.2266 95.9258 92.2109C94.0977 91.6269 93.9707 91.5254 94.4023 91.2207C94.6562 91.043 96.0781 90.0781 97.5508 89.1387C99.0234 88.1738 100.242 87.3613 100.242 87.3613C100.268 87.3359 101.715 88.2246 103.441 89.3164ZM91.6855 94.6992C94.2754 95.8164 97.5254 96.8066 100.217 97.2637L101.994 97.5937L100.598 97.9492C98.3633 98.5332 90.3652 98.5078 87.7754 97.8984C85.5664 97.3906 81.4531 95.9687 81.6309 95.791C81.707 95.7402 82.7734 95.4863 83.9922 95.207C85.2363 94.9531 86.8359 94.5215 87.5215 94.2422C88.2324 93.9629 88.918 93.7344 89.0703 93.709C89.2227 93.6836 90.3906 94.1406 91.6855 94.6992ZM78.0254 98.3809L78.9141 98.8125L82.6973 112.447C84.7539 119.937 86.5059 126.26 86.582 126.488C86.6836 126.92 86.0234 126.945 75.0801 126.945C64.1621 126.945 63.502 126.92 63.6289 126.488C63.7812 126.057 71.627 97.7207 72.1348 95.791L72.4395 94.6992L74.7754 96.3242C76.0703 97.2129 77.5176 98.1523 78.0254 98.3809ZM21.9375 103.865C24.6289 105.135 26.9141 106.252 27.0156 106.328C27.0918 106.43 24.4258 107.801 21.0742 109.375C17.7227 110.949 14.9297 112.193 14.8789 112.143C14.7773 112.066 16.8848 101.555 16.9863 101.555C17.0117 101.555 19.2207 102.596 21.9375 103.865ZM47.9883 106.811C48.5723 109.68 49.0039 112.092 48.9531 112.168C48.877 112.219 46.084 110.975 42.7324 109.4C39.3809 107.826 36.7148 106.43 36.8164 106.328C36.9941 106.15 46.541 101.58 46.7695 101.555C46.8457 101.555 47.3789 103.916 47.9883 106.811ZM41.0059 112.879C45.9062 115.189 49.9688 117.119 50.0195 117.17C50.0957 117.246 52.1016 126.59 52.1016 126.869C52.1016 126.92 43.0117 126.945 31.916 126.945H11.7305L11.8574 126.361C11.9336 126.057 12.3906 123.873 12.873 121.512C13.3809 119.125 13.8125 117.145 13.8887 117.094C14.1172 116.865 31.4336 108.715 31.7383 108.689C31.9414 108.664 36.1055 110.543 41.0059 112.879Z" fill="#106194"/>
<path d="M105.803 33.3556C100.37 34.6251 94.7328 38.5352 95.4437 40.5665C96.0531 42.2931 97.5765 42.3692 99.4047 40.7188C100.979 39.3477 104.178 37.7227 106.438 37.1642C108.799 36.5802 112.557 36.7833 115.02 37.6466C122.459 40.2618 126.801 47.7013 125.481 55.5724C125.1 57.8575 123.45 61.2853 121.799 63.1388C120.911 64.129 120.657 64.6368 120.657 65.3224C120.657 66.6935 121.952 67.5314 123.221 66.9474C124.922 66.1856 127.664 61.8438 128.832 58.1368C129.315 56.5118 129.416 55.6993 129.416 52.6778C129.416 49.6563 129.315 48.8438 128.832 47.2188C126.75 40.5665 122.053 35.8438 115.452 33.7618C113.166 33.0509 108.088 32.8224 105.803 33.3556Z" fill="#106194"/>
<path d="M106.26 39.7284C104.33 40.2617 102.654 41.1757 101.156 42.5214C100.064 43.5117 99.8359 43.8671 99.8359 44.5527C99.8359 45.162 100.014 45.5429 100.496 45.9238C101.461 46.6855 102.096 46.5839 103.645 45.416C106.031 43.6132 106.971 43.2831 109.865 43.2831C112.1 43.2831 112.582 43.3593 113.852 43.9687C115.73 44.832 117.711 46.8124 118.574 48.6913C119.158 49.9355 119.26 50.4687 119.26 52.5507C119.26 55.4452 118.854 56.7148 117.203 58.7968C115.959 60.4218 115.832 61.0566 116.619 62.0468C117.457 63.0878 118.574 62.9609 119.869 61.6406C122.027 59.4062 123.195 56.2577 123.195 52.6777C123.195 51.3066 123.043 49.8085 122.789 48.9706C121.469 44.4765 117.813 40.871 113.42 39.7284C111.566 39.246 108.037 39.2714 106.26 39.7284Z" fill="#106194"/>
</svg>
