<svg width="132" height="131" viewBox="0 0 132 131" fill="none" xmlns="http://www.w3.org/2000/svg">
<path d="M10.6251 1.09885C6.1823 2.62211 2.85651 5.97329 1.51096 10.3908C0.774714 12.701 0.825489 16.56 1.58712 18.8195C3.16116 23.4146 6.7916 26.8928 11.2852 28.0606C12.9862 28.4922 16.5659 28.543 18.2415 28.1621L19.3839 27.9083L24.4361 32.9604L29.4882 38.0126L27.8126 40.5767C17.9368 55.6316 17.9368 75.3833 27.8126 90.4382L29.4882 93.0024L26.8479 95.6427L24.1822 98.283L22.6081 97.369C18.013 94.6779 13.6717 94.7033 10.8282 97.4452C9.35576 98.8669 8.79723 100.111 8.67029 102.37C8.51797 104.757 8.89878 106.382 10.1682 109.149L11.1583 111.282L7.02009 115.496C3.36426 119.228 2.78034 119.939 2.01871 121.614C1.2063 123.366 1.13014 123.747 1.05398 126.514C0.92704 130.475 0.952428 130.5 4.27822 130.5C9.07649 130.5 10.9806 129.535 15.7281 124.788L19.13 121.386L21.0849 123.265C22.7859 124.915 23.1413 125.169 23.9537 125.169C25.1723 125.169 25.8832 124.458 25.8832 123.214C25.8832 122.376 25.6547 122.046 23.9791 120.345L22.075 118.441L26.6194 113.896L31.1892 109.352L33.2964 111.129C42.309 118.695 47.2088 121.259 53.3019 121.538C57.8971 121.767 61.1975 120.7 63.9647 118.162C65.6911 116.562 66.5797 115.14 67.3667 112.779L67.9506 111.078L70.2355 110.901C77.1663 110.368 84.8334 107.702 90.9265 103.691L93.4906 102.015L106.718 115.217C120.681 129.154 120.859 129.307 124.007 130.145C124.718 130.348 126.368 130.5 127.713 130.5C131.039 130.5 131.064 130.475 130.963 126.489C130.861 123.544 130.836 123.442 129.795 121.335C128.78 119.329 128.373 118.822 122.052 112.526C114.867 105.392 114.766 105.315 113.369 106.407C112.861 106.813 112.709 107.143 112.709 107.956C112.709 108.997 112.836 109.124 119.285 115.623C125.225 121.64 125.885 122.376 126.393 123.721C126.672 124.534 126.926 125.473 126.926 125.854C126.926 126.463 126.875 126.489 125.885 126.362C123.22 126.006 125.098 127.784 72.7743 75.4594L23.319 26.0042L24.9184 24.4302L26.4925 22.8307L66.8843 63.2226L107.251 103.589H108.317C109.155 103.589 109.485 103.462 109.891 102.929C110.932 101.609 110.729 101.253 106.464 96.9882L102.529 93.0024L104.204 90.4382C114.055 75.3833 114.055 55.6316 104.179 40.5767L102.503 38.0126L107.555 32.9604L112.608 27.9083L113.75 28.1621C115.426 28.543 119.005 28.4922 120.706 28.0606C125.2 26.8928 128.83 23.4146 130.404 18.8195C131.217 16.4584 131.217 12.4979 130.404 10.1369C128.856 5.56709 125.428 2.29207 120.859 0.921138C118.751 0.286445 114.791 0.387996 112.684 1.09885C108.089 2.67289 104.61 6.30333 103.443 10.797C103.011 12.4979 102.96 16.0776 103.341 17.7532L103.595 18.8956L98.5428 23.9478L93.4906 28.9999L90.9265 27.3244C79.2989 19.6827 64.2186 17.8294 51.0424 22.3738C48.0466 23.4146 43.1976 25.8265 40.6334 27.5528L38.5008 28.9999L33.4487 23.9478L28.3965 18.8956L28.6504 17.7532C29.0312 16.0776 28.9805 12.4979 28.5489 10.797C27.381 6.30333 23.9029 2.67289 19.3077 1.09885C17.9876 0.641873 17.0482 0.540322 14.9664 0.540322C12.8847 0.540322 11.9453 0.641873 10.6251 1.09885ZM19.1046 5.41476C20.9833 6.27794 23.1667 8.4359 24.0552 10.34C24.6645 11.6601 24.7407 12.1171 24.7407 14.4782C24.7407 16.9154 24.6645 17.2708 24.0045 18.6671C23.0397 20.622 21.1103 22.5515 19.1554 23.5162C17.7591 24.1763 17.4037 24.2524 14.9664 24.2524C12.5292 24.2524 12.1738 24.1763 10.7775 23.5162C8.82262 22.5515 6.89315 20.622 5.92842 18.6671C5.26834 17.2708 5.19218 16.9154 5.19218 14.4782C5.19218 12.1171 5.26834 11.6601 5.85226 10.4161C7.07087 7.85198 9.15266 5.9479 11.7422 5.03395C13.7224 4.32309 17.1498 4.5008 19.1046 5.41476ZM121.163 5.41476C123.042 6.27794 125.225 8.4359 126.114 10.34C126.723 11.6601 126.799 12.1171 126.799 14.4782C126.799 16.9154 126.723 17.2708 126.063 18.6671C125.098 20.622 123.169 22.5515 121.214 23.5162C119.818 24.1763 119.462 24.2524 117.025 24.2524C114.588 24.2524 114.232 24.1763 112.836 23.5162C110.881 22.5515 108.952 20.622 107.987 18.6671C107.327 17.2708 107.251 16.9154 107.251 14.4782C107.251 12.1171 107.327 11.6601 107.911 10.4161C109.129 7.85198 111.211 5.9479 113.801 5.03395C115.781 4.32309 119.208 4.5008 121.163 5.41476ZM107.098 24.4302L108.672 26.0042L104.28 30.3963L99.8883 34.7883L98.3143 33.2143L96.7149 31.6149L101.082 27.2482C103.493 24.8364 105.474 22.8561 105.499 22.8561C105.499 22.8561 106.235 23.567 107.098 24.4302ZM71.9111 24.4048C73.0281 24.5571 74.069 24.7348 74.2721 24.811C74.7291 24.9887 74.7545 27.3244 74.3229 30.904C74.0436 33.4936 74.0436 33.519 74.6276 34.1536C75.4146 34.9914 76.7094 35.0168 77.5218 34.2044C77.9787 33.7474 78.1565 33.1381 78.3849 31.3356C78.5627 30.0662 78.6896 28.3399 78.6896 27.4767V25.9026L80.1621 26.4358C80.9491 26.715 82.8024 27.5275 84.2495 28.2383L86.8644 29.5331L86.6867 31.2087C85.9251 38.9265 82.6755 47.9138 78.258 54.5908C76.4047 57.3834 73.9167 60.5823 72.6727 61.7501L71.9365 62.4609L69.1184 59.5921L66.275 56.7487L67.7983 54.9716C71.2256 50.9857 75.6431 43.344 75.6431 41.3638C75.6431 39.6882 73.6374 38.7234 72.3934 39.7897C72.1142 40.0436 71.5303 41.0845 71.0987 42.1254C69.9308 44.8673 67.976 48.0915 67.7221 47.6345C67.3159 46.8983 66.275 41.9477 65.9704 39.3581C65.488 34.9661 65.9704 28.0606 67.0366 24.7094C67.3159 23.7955 67.2651 23.7955 71.9111 24.4048ZM62.8477 24.5571C62.3907 26.0804 61.8829 30.0916 61.756 33.2651C61.5275 38.9519 62.2891 44.2833 64.0409 49.5132L64.8787 52.0266L64.0917 52.9406L63.33 53.8545L58.8364 49.3355L54.3174 44.8165L53.9112 42.1508C53.4288 38.9265 53.4034 31.3864 53.8604 28.0606L54.1905 25.7757L55.4598 25.3441C56.9577 24.8617 60.6389 24.1763 62.0099 24.1509C62.8223 24.1255 62.9492 24.2017 62.8477 24.5571ZM49.5953 29.5077C49.4937 30.6755 49.4176 33.4936 49.4429 35.7785L49.4683 39.9674L45.5586 36.0577C43.4007 33.8998 41.6235 32.0719 41.6235 31.9957C41.6235 31.5641 48.8083 27.4259 49.5191 27.4259C49.7222 27.4259 49.7476 28.086 49.5953 29.5077ZM93.0844 34.0775C94.2523 35.0676 95.7247 36.4893 96.3594 37.2256L97.5019 38.5457L97.0957 40.2975C94.76 50.5795 89.5048 60.5823 82.0408 69.011L80.3906 70.8897L77.6487 68.1478L74.8814 65.4059L75.9731 64.2381C80.3144 59.6937 84.7319 52.5851 87.2199 46.1874C88.4639 42.9378 89.5301 39.1296 90.1648 35.4992C90.4949 33.6967 90.7995 32.2496 90.8503 32.2496C90.9011 32.2496 91.8912 33.062 93.0844 34.0775ZM35.5813 44.1056L38.5516 47.1014L39.2117 50.0717C40.278 54.9462 41.7759 59.4906 43.553 63.4003L44.3908 65.2536L43.3245 65.5075C42.7406 65.6598 42.0805 65.8375 41.8774 65.9137C41.6489 65.9644 40.3795 66.1675 39.034 66.3453L36.5714 66.7007L35.8098 64.8728C34.5911 61.9532 33.0171 57.2311 32.2047 54.0068C31.4431 51.0111 30.4529 45.6289 30.4529 44.5626C30.4529 44.0295 32.1539 41.1353 32.484 41.1353C32.5601 41.1353 33.9564 42.4808 35.5813 44.1056ZM102.173 45.1211C102.884 46.3397 103.925 48.5739 104.534 50.0464L105.601 52.7375L104.458 55.5047C101.335 62.9179 96.7656 70.128 91.028 76.6781L88.7685 79.2422L86.0266 76.5257L83.2848 73.8092L84.9604 72.0067C91.2819 65.1013 96.5625 55.9363 99.6345 46.4667C100.117 44.9434 100.523 43.5217 100.523 43.2932C100.523 42.5062 100.929 42.9632 102.173 45.1211ZM29.1582 58.3989C29.5898 59.8714 30.3768 62.2578 30.9607 63.7303C31.5192 65.2028 31.9762 66.4976 31.9762 66.6245C31.9762 66.8784 28.4981 66.6245 26.137 66.1675L24.4868 65.8629L24.563 63.7303C24.6645 60.0237 25.7054 54.5654 26.8225 51.7473L27.2287 50.7064L27.8126 53.2198C28.1173 54.5908 28.7266 56.9264 29.1582 58.3989ZM48.7067 57.2311L53.1242 61.6485L51.6263 62.4102C50.8139 62.8164 49.6968 63.3495 49.1891 63.5526L48.2497 63.9334L47.0565 61.1154C45.5332 57.485 43.9338 52.8136 44.2385 52.8136C44.2639 52.8136 46.2695 54.7939 48.7067 57.2311ZM107.479 65.2536C107.454 69.4933 107.124 72.5145 106.337 75.4594C106.083 76.4242 106.083 76.4242 104.763 76.4242C103.443 76.4242 101.335 76.1449 98.7967 75.6372L97.4765 75.3833L98.5682 73.9362C101.158 70.585 103.9 66.1675 105.753 62.4102C106.743 60.3792 107.022 59.9983 107.225 60.3792C107.352 60.6076 107.479 62.8164 107.479 65.2536ZM59.0649 67.5893C60.6389 69.1633 61.9337 70.5342 61.9337 70.6358C61.9337 70.915 57.1862 73.53 54.6982 74.5963C47.0565 77.9221 37.6884 79.5976 29.996 78.9883C28.2696 78.8614 26.7463 78.6583 26.6448 78.5567C26.3401 78.2521 25.1723 73.5808 24.9184 71.6513C24.6899 70.1026 24.7153 70.0519 25.2231 70.1788C27.0764 70.6104 31.5446 70.8897 34.8958 70.7627C41.522 70.5088 47.9451 68.9094 53.3019 66.1675C54.7744 65.4059 56.0184 64.7966 56.0945 64.7712C56.1707 64.7458 57.4909 66.0406 59.0649 67.5893ZM69.9054 79.623C67.6713 81.4256 59.2426 85.7669 55.6629 86.9347C54.1397 87.4424 53.5558 88.1025 53.5558 89.2957C53.5558 90.3366 54.3936 91.1491 55.4852 91.1491C57.7193 91.1491 67.8744 86.1477 73.1551 82.4411C73.5613 82.1872 73.9421 82.4918 76.2778 84.8021C77.7502 86.2746 78.9435 87.544 78.9435 87.6202C78.9435 87.874 73.5105 91.4029 70.6925 93.0024C67.189 94.9826 62.6192 97.0136 58.5825 98.3845C54.9521 99.6539 48.9098 101.228 46.7772 101.456C45.5332 101.609 45.3555 101.558 43.6038 100.466C42.5883 99.8316 40.6334 98.3845 39.2625 97.2167C36.546 94.9826 36.4952 94.7033 38.6024 94.7033C39.9479 94.7033 44.7208 94.094 46.6503 93.6878C48.859 93.2055 49.6207 91.7584 48.4274 90.2605C47.9197 89.6004 47.7927 89.575 46.3456 89.702C45.4825 89.8035 43.6546 90.032 42.2582 90.2605C40.8619 90.4636 38.2216 90.7175 36.4191 90.7936L33.0933 90.9713L31.6969 88.8388C30.1991 86.5793 28.4219 83.482 28.4219 83.1519C28.4219 83.0504 29.539 83.025 30.9099 83.0758C41.7505 83.6597 54.0127 80.4862 63.457 74.6724L65.1072 73.6569L67.849 76.3734L70.5909 79.0899L69.9054 79.623ZM97.8065 79.5723C99.5075 79.9277 101.742 80.2831 102.757 80.3847C103.747 80.4862 104.585 80.6639 104.585 80.7909C104.585 81.654 100.041 89.8797 99.5583 89.8797C99.4567 89.8797 97.6542 88.1533 95.5216 86.0207L91.6881 82.1872L93.1098 80.5624C93.8714 79.6992 94.5569 78.963 94.6077 78.963C94.6585 78.963 96.1056 79.2422 97.8065 79.5723ZM85.9251 94.4495L89.7332 98.2576L88.3623 97.8514C85.6966 97.0644 82.6247 95.8966 80.1621 94.7795L77.6995 93.6117L79.7813 92.1392C80.9237 91.3268 81.9138 90.6667 81.99 90.6667C82.0662 90.6413 83.8433 92.3677 85.9251 94.4495ZM33.144 101.533L30.9861 103.691L29.5136 102.447C28.7012 101.761 27.9396 101.126 27.7872 100.999C27.6603 100.873 28.4727 99.8824 29.8183 98.5115L32.1031 96.2266L33.6772 97.8006L35.2766 99.4001L33.144 101.533ZM74.9576 96.8359C76.6078 97.8006 80.9237 99.6539 83.5386 100.568C84.8588 101.025 86.0266 101.482 86.1536 101.583C86.4836 101.863 81.8884 103.995 78.715 105.011L75.9731 105.925L73.3328 104.605C71.8857 103.868 69.5246 102.599 68.1029 101.761L65.488 100.238L69.3723 98.283C71.4795 97.1913 73.3836 96.2774 73.5613 96.252C73.739 96.252 74.3737 96.5059 74.9576 96.8359ZM19.0793 100.212C19.8917 100.568 20.6533 100.999 20.7802 101.152C20.9579 101.38 20.044 102.447 17.6575 104.833C14.4079 108.083 14.2556 108.21 13.9509 107.651C13.2655 106.382 12.6815 104.198 12.6815 102.929C12.6815 101.787 12.8085 101.431 13.4686 100.669C14.8141 99.1462 16.3628 99.0192 19.0793 100.212ZM41.0904 103.716C47.1073 107.676 54.5205 110.266 61.6037 110.901L63.7108 111.078L63.0508 112.475C61.4006 116.054 57.8717 117.832 53.0988 117.476C48.3767 117.121 43.0706 114.125 35.0227 107.194L34.1342 106.407L36.2921 104.249C37.46 103.056 38.4755 102.066 38.5008 102.066C38.5262 102.066 39.6941 102.802 41.0904 103.716ZM61.4006 102.472C61.7306 102.7 63.457 103.792 65.2849 104.884C68.2552 106.686 68.5091 106.889 67.8744 107.042C67.0112 107.27 62.2637 106.966 59.3188 106.483C56.78 106.077 52.1848 104.858 52.4133 104.655C52.4641 104.579 54.1905 104.046 56.2215 103.462C58.2525 102.878 60.0042 102.32 60.0804 102.218C60.3343 101.964 60.7659 102.04 61.4006 102.472ZM26.2894 105.163C27.1779 105.874 27.9142 106.534 27.9142 106.636C27.9142 106.712 23.7252 110.951 18.5969 116.08C9.91429 124.686 9.15266 125.397 7.78172 125.905C5.77609 126.641 5.06524 126.616 5.06524 125.803C5.06524 125.473 5.31911 124.534 5.59838 123.721C6.10613 122.351 6.81699 121.589 15.2965 113.033C20.3486 107.981 24.5122 103.843 24.563 103.843C24.6392 103.843 25.4008 104.427 26.2894 105.163Z" fill="#106194"/>
</svg>
