<svg width="132" height="130" viewBox="0 0 132 130" fill="none" xmlns="http://www.w3.org/2000/svg">
<path d="M57.6516 0.404954C38.1723 3.03877 21.3268 13.821 10.7641 30.4195C7.3895 35.7146 3.96005 44.055 2.53339 50.5024C0.530591 59.5013 0.448284 70.0091 2.34134 78.7062C5.57875 93.4666 13.5351 106.389 25.2227 115.799C34.7428 123.454 46.595 128.365 58.749 129.737C62.5351 130.148 70.7109 130.066 74.5794 129.572C78.9416 129.023 85.4164 127.35 89.4769 125.786C104.868 119.75 117.05 108.666 124.293 94.0702C127.612 87.3485 129.725 80.4895 130.63 73.2465C131.289 68.171 131.097 58.5959 130.246 53.877C128.765 45.4817 125.774 37.69 121.33 30.4744C120.452 29.0752 119.793 27.868 119.821 27.8131C119.876 27.7857 121.11 27.1547 122.537 26.4414C123.963 25.728 125.445 24.8775 125.774 24.5483C128.106 22.4358 128.106 18.1009 125.774 15.9884C124.457 14.7538 123.525 14.5069 120.507 14.5069C118.257 14.5069 117.297 14.3971 116.227 13.9582C113.757 12.9979 109.313 12.7784 106.926 13.5466C106.514 13.6838 105.801 13.2997 104.1 12.12C94.964 5.61772 85.3067 1.85904 74.113 0.377519C70.1897 -0.143758 61.4926 -0.116323 57.6516 0.404954ZM74.936 4.63004C83.6605 5.94695 92.3302 9.26666 99.6007 14.1228C101.494 15.3848 101.905 15.7689 101.631 16.0158C100.726 16.8663 94.141 20.5701 93.7569 20.4604C93.5099 20.4055 89.3946 18.8417 84.5934 17.0035C79.8196 15.1928 75.7042 13.6838 75.4573 13.6838C75.2378 13.6838 74.7714 13.821 74.4422 14.013C73.7837 14.3423 69.202 18.3204 68.4338 19.2258C67.9399 19.7745 67.7753 21.256 68.1594 21.8047C68.2692 21.9694 70.4914 23.9722 73.0978 26.2493L77.8168 30.3921L76.8016 31.0505C76.2255 31.4072 71.2048 34.4526 65.6353 37.7997L55.5116 43.9179L53.015 42.7381C50.7104 41.6407 50.3537 41.531 48.3235 41.531C45.8268 41.531 44.2356 42.1071 42.2328 43.7532C41.2176 44.6037 41.053 44.8781 41.053 45.7835C41.053 46.7712 41.2176 46.9906 43.4674 49.0209C53.0973 57.8003 53.7557 58.2393 57.2949 58.2667H59.4349L72.7412 51.5998C81.6852 47.1553 86.1023 45.0702 86.1846 45.2896C86.2669 45.4817 87.1997 48.7191 88.2423 52.5052C90.2177 59.6659 90.5469 60.3244 91.9461 60.3244C92.9064 60.3244 100.122 57.1418 100.506 56.5657C100.698 56.2913 101.192 51.9291 101.658 46.3596C102.125 41.0097 102.536 36.62 102.564 36.5925C102.619 36.5377 105.636 35.0287 109.313 33.1905L115.952 29.8708L117.352 31.9834C119.245 34.9464 121.988 40.461 123.195 43.6984C124.21 46.3322 125.884 52.5326 126.213 54.7275L126.378 55.8249L123.744 56.1541C117.653 56.9223 113.703 58.1021 107.173 61.0651C101.302 63.7538 99.2714 64.4397 96.7473 64.6318C94.0861 64.7964 91.7815 64.3025 87.2821 62.5741C80.2311 59.858 76.0334 59.6385 71.973 61.7784C69.4489 63.0954 67.8851 65.3725 67.1443 68.8294C66.9248 69.7622 66.7053 75.1945 66.5682 83.2331C66.2938 96.7863 66.1292 98.6519 64.922 101.396C64.291 102.85 63.2484 104.084 62.1785 104.633C61.7944 104.825 60.258 105.456 58.749 106.005C49.3111 109.516 44.2356 113.934 42.9461 119.722C42.6443 121.067 42.5345 121.231 42.0407 121.067C40.8884 120.71 36.4438 118.378 33.8649 116.759C31.3682 115.196 31.1762 115.004 30.3531 113.357C29.3929 111.382 28.5698 110.833 27.2529 111.3C26.5396 111.574 26.3475 111.437 23.4119 108.529C13.6997 98.9263 7.60898 87.0192 5.66105 73.7953C4.97516 69.1038 4.92029 61.4492 5.55131 56.9772C6.04515 53.438 7.25232 47.9783 7.55411 47.9783C7.66386 47.9783 8.98077 48.8563 10.4623 49.8988C13.9466 52.368 15.7574 53.2185 17.8699 53.4106C20.4763 53.6026 22.3145 52.9442 24.3173 51.106C26.5396 49.0483 27.6096 46.7712 28.8167 41.6681C29.338 39.4733 30.0239 37.1138 30.2983 36.4554C31.8072 32.971 34.0569 31.1877 40.8061 28.1149C45.333 26.0847 47.034 23.8624 47.1437 20.0763C47.1712 19.0612 47.0889 16.9761 46.9791 15.4671C46.7871 12.8059 47.034 9.89768 47.6376 7.62052L47.9119 6.63284L51.3963 5.78234C53.3442 5.31593 55.8957 4.79466 57.1029 4.60261C62.0961 3.86184 69.9702 3.86184 74.936 4.63004ZM43.0284 9.89768C42.8363 11.4066 42.8089 13.8758 42.9461 18.3753C43.0558 22.4083 42.7815 22.765 37.5413 25.0421C31.039 27.8954 27.6644 31.1329 25.9909 36.0713C25.6891 37.0041 25.1678 38.9794 24.8386 40.461C23.796 45.3445 22.3968 47.9509 20.3117 48.9386C18.4186 49.844 16.745 49.2404 12.5474 46.2499C11.2579 45.3171 9.88614 44.3568 9.50204 44.1099L8.84359 43.6709L9.50204 42.0522C10.6543 39.1166 13.0687 34.5897 15.2361 31.3249C21.2719 22.2437 29.3929 15.1105 39.2697 10.2269C41.2451 9.26666 42.9186 8.47103 43.0284 8.47103C43.1381 8.47103 43.1381 9.12948 43.0284 9.89768ZM114.992 17.9638C116.336 18.5399 117.077 18.6496 119.107 18.6222C120.479 18.5948 121.796 18.5948 122.043 18.5948C123.25 18.6496 123.826 20.5976 122.894 21.4206C122.619 21.6401 118.01 24.0545 112.66 26.7706L102.92 31.7364L103.085 29.6239C103.167 28.4716 103.195 27.3467 103.112 27.1273C102.838 26.2767 102.125 25.7555 101.302 25.7555C100.067 25.7555 84.7031 34.4251 84.127 35.4128C83.7703 36.0713 83.7977 36.3456 84.2367 38.1564C84.5385 39.2538 84.8128 40.2964 84.8677 40.461C85.0049 40.8176 58.3923 54.2885 57.5967 54.2885C56.0329 54.2885 54.9354 53.5752 50.9024 50.036C48.5704 48.0058 46.6499 46.2224 46.595 46.0853C46.5127 45.8109 47.473 45.5091 48.4881 45.5091C48.8722 45.5091 50.4634 46.1401 51.9998 46.8809C53.5362 47.6217 55.1824 48.2527 55.6213 48.2527C56.1975 48.2527 63.1936 44.1648 80.9719 33.4649C94.4428 25.3165 105.911 18.4302 106.405 18.1832C108.846 16.8663 112.111 16.8115 114.992 17.9638ZM89.1477 23.2863C89.4769 23.5606 81.987 28.0326 81.5206 27.8406C81.3011 27.7583 79.2983 26.1121 77.1034 24.1916L73.0978 20.6799L74.497 19.4178L75.8688 18.1284L82.3985 20.5976C85.9926 21.9694 89.0379 23.1765 89.1477 23.2863ZM97.7625 43.5886L96.8845 53.877L95.6499 54.4531C93.1807 55.6054 93.4276 55.8249 92.3028 51.5998C91.7266 49.5422 90.6018 45.4817 89.8061 42.6009L88.352 37.3607L93.4276 34.5074L98.5307 31.6541L98.5855 32.4772C98.6404 32.9162 98.2563 37.9369 97.7625 43.5886ZM126.981 62.5741C127.804 86.3608 114.855 108.501 93.8666 119.229C84.9775 123.756 76.0334 125.923 66.0469 125.923C59.819 125.923 53.9752 125.1 48.5155 123.426L46.5127 122.823L46.6773 121.67C47.473 116.677 51.8352 113.056 61.1633 109.571C65.4707 107.953 66.8699 106.828 68.3515 103.865C70.2171 100.106 70.4091 98.2953 70.6835 83.7818C70.8207 75.9901 71.0402 70.3109 71.2322 69.4604C71.6437 67.6497 72.8235 66.0035 74.305 65.2079C75.2927 64.6866 75.8963 64.5769 78.0911 64.5769C80.8072 64.6043 81.1639 64.6866 88.0228 67.293C92.6869 69.0489 97.3509 69.2684 101.631 67.8692C102.893 67.4851 106.048 66.1681 108.627 64.9884C113.565 62.7387 117.352 61.4492 121.028 60.7633C124.073 60.1872 124.43 60.1323 125.747 60.0774L126.899 60.05L126.981 62.5741Z" fill="#106194"/>
<path d="M116.419 41.0646C115.788 41.7505 115.843 43.0125 116.529 44.741C116.858 45.5366 117.407 47.0455 117.764 48.0881C118.477 50.1183 118.971 50.6945 120.096 50.7219C121.276 50.7219 122.126 49.844 122.099 48.6368C122.071 47.4296 120.041 41.8602 119.355 41.0646C118.724 40.4061 117.023 40.4061 116.419 41.0646Z" fill="#106194"/>
<path d="M40.2026 58.0473C38.5016 59.666 38.3096 59.9678 38.3096 60.9006C38.3096 62.1626 39.1326 63.068 40.3124 63.068C40.916 63.068 41.547 62.629 43.0011 61.2298C44.7021 59.6111 44.8941 59.3093 44.8941 58.3491C44.8941 57.0596 44.1259 56.2091 42.9462 56.2091C42.2603 56.2091 41.7116 56.5932 40.2026 58.0473Z" fill="#106194"/>
<path d="M34.1384 65.5645C33.7269 65.784 30.7913 70.4206 29.6939 72.588C29.0903 73.7677 29.1177 75.2218 29.7487 75.7705C30.4346 76.3741 32.0808 76.3741 32.602 75.7431C32.8215 75.4962 34.0013 73.5208 35.2633 71.3808C37.6228 67.2929 37.7325 66.8814 36.7174 65.7291C36.2784 65.2078 34.8792 65.1255 34.1384 65.5645Z" fill="#106194"/>
<path d="M26.7319 80.078C26.2106 80.3798 24.9485 84.1659 24.1804 87.5953C23.7963 89.3512 23.7688 89.7627 24.098 90.3938C24.6193 91.4912 26.0185 91.8753 26.9788 91.162C27.5549 90.723 27.8567 89.9822 28.5701 87.3484C29.0639 85.5377 29.6126 83.4526 29.8321 82.7392C30.1613 81.5869 30.1339 81.3126 29.7772 80.6816C29.4754 80.1054 29.1462 79.9134 28.2957 79.8859C27.6921 79.8311 26.9788 79.9408 26.7319 80.078Z" fill="#106194"/>
<path d="M23.495 95.9906C23.0286 96.457 22.9463 96.896 22.9463 99.0908C22.9463 102.932 23.4401 106.142 24.126 106.91C24.9217 107.788 26.4032 107.651 27.1439 106.663C27.6378 105.977 27.6378 105.758 27.3634 103.673C27.1988 102.411 27.0616 100.38 27.0616 99.1457C27.0616 97.2801 26.9519 96.7588 26.4855 96.1552C25.7722 95.2498 24.3181 95.1675 23.495 95.9906Z" fill="#106194"/>
</svg>
