<svg width="316" height="356" viewBox="0 0 316 356" fill="none" xmlns="http://www.w3.org/2000/svg">
<path d="M79.4017 190.103C76.6607 183.589 73.5951 177.216 70.2165 171.008C69.9781 170.549 68.308 168.22 66.7229 167.762C66.0145 167.552 65.2621 167.538 64.5464 167.722C63.8307 167.906 63.1786 168.282 62.6599 168.808C62.1445 169.293 61.7321 169.878 61.4474 170.526C61.1627 171.174 61.0116 171.873 61.0029 172.58C61.0156 177.515 61.7638 182.421 63.2228 187.135C54.7865 186.003 37.8912 177.984 28.8812 173.221C26.7169 172.078 24.5635 170.768 22.1314 170.424C19.6274 170.057 15.1856 171.791 14.3081 174.2C10.8863 172.546 9.02034 172.578 6.88869 173.388C4.35858 174.354 3.6161 175.363 3.11639 176.795C2.81157 177.588 2.67432 178.435 2.7133 179.283C2.75227 180.132 2.96662 180.963 3.34284 181.724C3.46307 181.936 3.53727 182.17 3.56057 182.412C3.54014 182.659 3.45613 182.897 3.31671 183.102C2.62885 184.583 2.43215 186.246 2.75526 187.848C3.07838 189.449 3.90442 190.906 5.11304 192.005C4.65162 192.774 4.44652 193.671 4.52733 194.564C4.60814 195.458 4.97068 196.303 5.56267 196.977C12.0861 204.38 35.3927 217.982 48.7095 223.116C49.4554 223.342 50.1497 223.712 50.753 224.205C51.3716 224.879 51.8238 225.689 52.0735 226.57C52.9956 229.095 53.6608 230.793 54.4371 233.202C60.0133 231.685 74.5233 227.669 82.5067 224.721C81.8531 222.556 81.3622 220.345 81.038 218.106C81.038 218.106 80.9292 216.875 80.853 215.922C82.4392 207.672 83.1773 199.465 80.0332 191.651C79.8183 191.116 79.6079 190.6 79.4017 190.103Z" fill="white"/>
<path d="M7.23392 193.604C7.30142 193.12 7.27965 193.539 7.11526 193.604C7.37724 193.488 7.66161 193.431 7.9481 193.438C8.94602 193.691 9.89262 194.115 10.746 194.691C13.1738 195.905 15.5852 197.149 18.0152 198.357C22.7454 200.852 27.687 202.924 32.7821 204.549C36.0166 205.495 37.3971 200.454 34.1713 199.51C28.2282 197.768 22.69 194.891 17.1878 192.101C15.7823 191.389 14.379 190.674 12.9691 189.972C11.6911 189.208 10.302 188.647 8.85171 188.309C6.22253 187.911 2.61245 189.203 2.19331 192.211C2.03172 192.879 2.13117 193.584 2.47141 194.182C2.81164 194.78 3.36705 195.226 4.02448 195.429C4.69261 195.608 5.40459 195.518 6.00629 195.176C6.60798 194.835 7.05097 194.27 7.23937 193.604H7.23392Z" fill="#211715"/>
<path d="M5.89602 183.951C6.17254 183.631 6.04081 183.778 5.89602 183.859C5.95481 183.827 6.51004 183.688 6.47084 183.694C6.88727 183.611 7.3184 183.646 7.7163 183.794C9.00827 184.301 10.2697 184.882 11.494 185.536C14.3889 186.924 17.288 188.285 20.2286 189.575C25.4434 191.861 30.595 194.303 35.8676 196.456C36.5357 196.637 37.248 196.546 37.8498 196.205C38.4516 195.863 38.8945 195.298 39.0824 194.632C39.2494 193.964 39.153 193.258 38.8133 192.66C38.4736 192.061 37.9166 191.617 37.2578 191.418C32.0963 189.309 26.4156 186.621 21.0527 184.275C17.7094 182.812 14.4727 181.118 11.1457 179.623C9.80956 178.897 8.32172 178.495 6.8018 178.448C5.95339 178.422 5.10849 178.569 4.3185 178.879C3.52851 179.19 2.80993 179.658 2.20646 180.255C1.7324 180.753 1.46802 181.414 1.46802 182.102C1.46802 182.79 1.7324 183.451 2.20646 183.95C2.69937 184.434 3.36284 184.706 4.05396 184.706C4.74508 184.706 5.40855 184.434 5.90146 183.95L5.89602 183.951Z" fill="#211715"/>
<path d="M2.19445 192.215C0.925042 196.955 4.65379 200.075 7.94816 202.733C11.3859 205.466 14.9745 208.005 18.6968 210.336C26.7581 215.538 35.2156 220.098 43.9913 223.975C45.0985 224.455 46.2122 224.926 47.3347 225.37C48.3145 225.76 48.9612 225.886 49.4162 226.894C50.6304 229.783 51.6594 232.747 52.4972 235.767C53.4672 238.977 58.5133 237.609 57.5357 234.378C56.7551 231.794 55.8395 229.261 54.9076 226.734C54.5322 225.474 53.9826 224.273 53.2745 223.165C52.3207 221.983 51.0373 221.112 49.5872 220.661C45.8127 219.177 42.0513 217.414 38.3334 215.518C29.9063 211.314 21.8268 206.446 14.1711 200.961C12.6444 199.866 11.1742 198.693 9.76626 197.448C8.67758 196.48 6.79415 195.243 7.23507 193.599C8.10602 190.347 3.06649 188.959 2.19554 192.209L2.19445 192.215Z" fill="#211715"/>
<path d="M61.2794 184.111C54.5143 182.478 48.0279 179.587 41.7331 176.67C38.5288 175.183 35.3556 173.631 32.2136 172.014C28.8877 170.301 25.429 167.886 21.5685 167.768C17.6721 167.645 13.3238 169.862 11.791 173.51L15.6297 171.948C11.6778 170.091 7.61805 169.532 3.76301 172.009C2.25902 172.959 1.13836 174.409 0.598196 176.105C0.221965 177.2 0.0582743 178.357 0.115908 179.514C0.331082 180.736 0.642323 181.939 1.04673 183.112V181.722C0.857303 182.608 0.326024 183.439 0.164899 184.377C-0.00888471 185.34 -0.0455379 186.322 0.0560299 187.295C0.30187 189.564 1.25823 191.698 2.78863 193.392C5.01717 195.92 8.70129 192.212 6.48363 189.697C5.9164 189.053 5.5202 188.277 5.33148 187.44C5.14276 186.603 5.16758 185.732 5.40366 184.907C5.77708 183.778 6.3911 182.849 6.05687 181.55C5.76619 180.433 5.17612 179.633 5.38406 178.422C5.44701 178.107 5.53474 177.798 5.64643 177.497C5.69434 177.357 5.79123 177.139 5.67801 177.401C5.87506 176.945 5.79558 177.085 6.00461 176.87C6.55839 176.391 7.20305 176.029 7.90002 175.805C9.64191 175.188 11.1846 175.609 13.0027 176.464C13.3508 176.654 13.7369 176.765 14.133 176.787C14.529 176.81 14.9252 176.744 15.2927 176.595C15.6602 176.445 15.9898 176.216 16.2577 175.923C16.5255 175.63 16.7249 175.282 16.8414 174.903C16.7325 175.15 17.1114 174.667 17.168 174.614C17.4185 174.387 17.6939 174.189 17.9889 174.024C18.7201 173.598 19.5153 173.292 20.3437 173.118C22.0856 172.737 23.9179 173.56 25.5389 174.399C29.1229 176.249 32.6807 178.135 36.3169 179.878C43.8735 183.493 51.7218 187.172 59.8957 189.157C63.1617 189.948 64.5574 184.911 61.2848 184.118L61.2794 184.111Z" fill="#211715"/>
<path d="M12.9918 176.456C17.3171 178.483 21.4726 180.876 25.7817 182.947C30.7417 185.329 35.5548 188.01 40.4365 190.546C43.4173 192.095 46.0628 187.587 43.0744 186.034C38.1927 183.498 33.3796 180.816 28.4185 178.434C24.1094 176.366 19.955 173.971 15.6297 171.944C15.0268 171.613 14.3204 171.526 13.6555 171.701C12.9905 171.875 12.4176 172.297 12.0544 172.881C11.7102 173.481 11.6156 174.192 11.791 174.86C11.9663 175.529 12.3976 176.102 12.9918 176.456Z" fill="#211715"/>
<path d="M43.2444 187.644C38.5485 191.55 34.0519 195.677 29.7545 200.025C29.271 200.517 29.0014 201.179 29.0042 201.868C29.007 202.558 29.282 203.218 29.7694 203.705C30.2568 204.193 30.9171 204.468 31.6064 204.47C32.2956 204.473 32.9581 204.204 33.4495 203.72C37.7418 199.378 42.2384 195.251 46.9394 191.339C47.4269 190.847 47.7006 190.183 47.7006 189.491C47.7006 188.799 47.4269 188.135 46.9394 187.644C46.4407 187.17 45.7794 186.906 45.0919 186.906C44.4043 186.906 43.743 187.17 43.2444 187.644Z" fill="#211715"/>
<path d="M34.8964 205.039C37.4439 205.092 39.9882 205.214 42.5292 205.404C44.7514 205.488 46.9607 205.781 49.1277 206.281C50.7969 206.756 52.3448 207.583 53.6673 208.707C54.9898 209.831 56.056 211.225 56.7942 212.795C57.1489 213.389 57.722 213.819 58.3905 213.994C59.0589 214.169 59.7694 214.076 60.3695 213.733C60.957 213.373 61.3827 212.8 61.5574 212.134C61.7321 211.467 61.6423 210.759 61.3068 210.158C60.2847 208.115 58.8688 206.295 57.1408 204.802C55.4127 203.309 53.4065 202.173 51.2376 201.458C48.7074 200.758 46.1041 200.356 43.4807 200.26C40.6251 200.02 37.7618 199.877 34.8964 199.817C31.5324 199.748 31.5334 204.973 34.8964 205.043V205.039Z" fill="#211715"/>
<path d="M78.4231 218.105C78.7584 221.814 80.0061 225.42 80.9837 228.992C81.1679 229.66 81.61 230.228 82.2127 230.57C82.8154 230.912 83.5294 231.001 84.1975 230.816C84.8656 230.632 85.4332 230.19 85.7754 229.588C86.1176 228.985 86.2063 228.271 86.0221 227.603C85.5551 225.893 85.0586 224.193 84.6068 222.479C84.3717 221.584 84.1474 220.688 83.9536 219.785C83.8665 219.385 83.786 218.986 83.7163 218.587C83.7017 218.396 83.6715 218.206 83.6259 218.02C83.6259 218.02 83.7054 218.741 83.6782 218.4C83.6706 218.302 83.6575 218.204 83.6488 218.106C83.631 217.416 83.3596 216.758 82.8867 216.255C82.5213 215.889 82.0551 215.639 81.5475 215.537C81.0398 215.436 80.5134 215.488 80.0352 215.686C79.5569 215.884 79.1484 216.22 78.8614 216.651C78.5744 217.082 78.4218 217.588 78.4231 218.106V218.105Z" fill="#211715"/>
<path d="M52.7977 233.648C56.6081 232.618 76.2045 227.31 84.3914 223.994C85.1295 225.866 86.6199 230.441 87.5595 232.907L87.7772 233.435C77.9551 237.203 64.6971 241.568 55.0448 243.223L54.9871 243.035C54.0584 240.022 52.7226 234.652 52.4102 233.753L52.7977 233.648Z" fill="white"/>
<path d="M257.688 88.4228C258.546 87.6783 259.554 87.1276 260.643 86.8082C261.733 86.4888 262.879 86.4082 264.003 86.5721C265.105 86.7281 266.159 87.1291 267.087 87.7458C268.014 88.3624 268.792 89.1789 269.362 90.1353C270.023 91.4556 270.399 92.8999 270.465 94.3747C270.947 100.145 269.833 105.937 267.245 111.117C266.025 113.734 264.255 116.058 262.055 117.928C260.268 119.378 258.135 120.339 255.866 120.718L254.807 120.882C254.298 122.783 253.728 124.384 253.448 125.237C251.597 130.274 240.949 148.081 227.72 153.76C227.697 157.327 227.619 161.438 228.873 164.523C229.82 166.864 234.262 170.337 238.932 173.494C238.932 173.494 236.363 208.238 203.461 208.238C170.559 208.238 170.726 173.265 170.726 173.265C175.712 170.173 180.339 166.809 181.265 164.523C182.484 161.494 182.429 157.505 182.408 153.988C175.934 151.028 170.249 146.584 165.814 141.016C160.992 135.098 157.484 128.221 155.524 120.843C152.55 120.859 149.664 119.83 147.372 117.936C145.172 116.065 143.401 113.742 142.181 111.124C139.594 105.944 138.48 100.153 138.961 94.3823C139.028 92.9075 139.404 91.4633 140.064 90.1429C140.635 89.1865 141.413 88.37 142.34 87.7534C143.268 87.1368 144.321 86.7357 145.424 86.5797C146.548 86.4159 147.694 86.4965 148.783 86.8159C149.873 87.1353 150.881 87.686 151.738 88.4304C151.738 88.4304 154.025 38.5686 206.282 38.5686C259.995 38.5588 257.688 88.4228 257.688 88.4228Z" fill="white"/>
<path d="M270.468 94.3768C270.402 92.9021 270.026 91.4577 269.365 90.1375C268.795 89.1806 268.016 88.3639 267.088 87.7473C266.16 87.1306 265.106 86.7298 264.003 86.5742C262.879 86.4104 261.733 86.4909 260.643 86.8103C259.554 87.1297 258.546 87.6805 257.688 88.425C250.075 84.6494 244.632 77.9965 240.881 72.6739C233.169 61.726 230.963 54.0998 229.53 46.4071C222.754 54.6899 207.676 63.9775 194.257 68.3268C192.539 68.8742 190.795 69.3346 189.031 69.7061C186.719 70.2877 184.371 70.7169 182.003 70.9908C177.746 74.2606 173.288 77.2597 168.655 79.9703C165.819 81.6468 155.17 86.5481 151.345 88.1082C150.511 87.4717 149.557 87.0084 148.541 86.7453C147.525 86.4823 146.467 86.4249 145.428 86.5764C144.326 86.7324 143.272 87.1335 142.344 87.7501C141.417 88.3667 140.639 89.1832 140.069 90.1397C139.408 91.46 139.032 92.9043 138.965 94.379L135.647 90.5468C134.558 57.8449 143.164 34.13 156.725 21.1474C164.9 13.322 183.321 2.65936 204.018 2.65936C216.647 2.65936 223.33 3.99191 230.524 6.76371L234.586 8.32924L242.207 12.4663C247.078 15.1096 248.378 17.1247 252.852 21.4414C263.195 31.4246 270.392 49.388 271.537 65.4733C271.864 70.1133 272.626 82.1868 271.897 90.5447L270.468 94.3768Z" fill="#957F6E"/>
<path d="M130.15 146.248C128.356 151.905 127.389 157.792 127.278 163.725C127.183 168.891 128.075 174.695 132.206 177.797C134.03 180.154 136.325 182.106 138.944 183.527C141.563 184.949 144.45 185.81 147.42 186.056L170.729 173.26C175.716 170.168 180.343 166.804 181.268 164.518C182.487 161.491 182.433 157.507 182.411 153.99C175.938 151.025 170.254 146.579 165.817 141.011C161.037 135.146 157.549 128.338 155.584 121.031L153.566 120.72C151.297 120.341 149.164 119.38 147.377 117.931C145.177 116.06 143.407 113.736 142.186 111.119C139.599 105.939 138.485 100.147 138.966 94.3768L135.647 90.5414C135.657 114.373 133.839 131.563 131.292 141.329C130.889 142.885 130.497 144.693 130.127 146.631" fill="#957F6E"/>
<path d="M271.901 90.5414C272.26 120.241 277.355 136.854 279.979 145.03C282.052 151.016 283.133 157.301 283.18 163.636C283.245 171.834 276.735 181.196 267.394 183.232L260.923 184.642L238.931 173.488C234.261 170.331 229.819 166.858 228.872 164.518C227.618 161.433 227.696 157.323 227.719 153.754C240.949 148.081 251.591 130.274 253.447 125.237C253.727 124.386 254.297 122.785 254.805 120.882L255.865 120.717C258.134 120.338 260.267 119.377 262.054 117.927C264.254 116.057 266.024 113.733 267.244 111.115C269.832 105.936 270.946 100.144 270.464 94.3736L271.901 90.5414Z" fill="#957F6E"/>
<path d="M133.034 90.5414C133.034 104.484 132.654 118.797 130.445 132.456C130.081 134.7 129.662 136.936 129.138 139.149C128.792 140.619 128.404 142.078 128.087 143.555C127.638 145.647 126.973 147.671 126.469 149.752C125.445 153.995 124.851 158.331 124.698 162.694C124.463 166.162 124.863 169.643 125.877 172.967C128.506 180.588 137.539 185.946 145.437 185.846C148.798 185.804 148.807 180.578 145.437 180.62C142.001 180.544 138.671 179.409 135.905 177.368C133.536 175.974 131.729 173.796 130.794 171.211C129.946 168.104 129.666 164.869 129.968 161.663C130.185 157.599 130.829 153.57 131.892 149.642C133.371 144.392 134.577 139.07 135.506 133.696C136.435 127.912 137.03 122.074 137.441 116.232C138.044 107.684 138.257 99.1104 138.258 90.5392C138.258 87.1763 133.033 87.1708 133.033 90.5392L133.034 90.5414Z" fill="#211715"/>
<path d="M269.288 90.5414C269.313 104.874 270.874 119.162 273.946 133.161C274.844 137.035 275.916 140.863 277.117 144.652C278.221 147.947 279.113 151.31 279.789 154.718C280.596 158.367 280.81 162.122 280.422 165.839C279.831 169.384 278.218 172.68 275.782 175.322C273.345 177.964 270.191 179.837 266.705 180.713C263.428 181.465 264.815 186.505 268.094 185.751C271.666 184.843 274.975 183.108 277.753 180.685C280.531 178.262 282.7 175.22 284.086 171.804C287.18 164.432 285.683 155.611 283.642 148.139C282.444 143.761 280.932 139.483 279.8 135.084C278.391 129.556 277.287 123.954 276.493 118.305C275.24 109.103 274.581 99.8302 274.519 90.5436C274.475 87.1839 269.249 87.1741 269.294 90.5436L269.288 90.5414Z" fill="#211715"/>
<path d="M259.539 90.2703C260.076 89.8323 260.696 89.5066 261.361 89.3125C262.026 89.1184 262.723 89.0599 263.411 89.1404C264.1 89.2209 264.765 89.4389 265.367 89.7813C265.97 90.1236 266.497 90.5835 266.918 91.1337C267.683 92.5675 268.038 94.184 267.946 95.8063C268.036 97.7224 267.926 99.6426 267.619 101.536C266.451 108.444 262.861 116.86 255.171 118.199C254.506 118.389 253.942 118.832 253.601 119.433C253.26 120.034 253.168 120.745 253.347 121.413C253.544 122.073 253.988 122.631 254.587 122.971C255.186 123.311 255.893 123.407 256.561 123.239C267.133 121.397 272.184 109.404 273.061 99.8606C273.485 95.2424 273.368 89.4658 269.468 86.2803C267.527 84.7139 265.094 83.8843 262.601 83.9381C260.107 83.9919 257.713 84.9256 255.841 86.5742C255.356 87.067 255.085 87.7305 255.085 88.4217C255.085 89.1129 255.356 89.7765 255.841 90.2692C256.338 90.7463 257 91.0127 257.688 91.0127C258.377 91.0127 259.039 90.7463 259.536 90.2692L259.539 90.2703Z" fill="#211715"/>
<path d="M253.175 114.843C253.046 117.072 252.634 119.276 251.948 121.401C251.699 122.241 251.425 123.072 251.146 123.905C251.061 124.159 250.974 124.41 250.887 124.667C250.712 125.178 250.778 124.923 250.851 124.776C249.821 127.002 248.644 129.156 247.327 131.226C243.625 137.356 238.898 142.806 233.353 147.338C230.342 149.811 226.823 151.589 223.047 152.549C219.771 153.304 221.157 158.344 224.437 157.587C232.39 155.753 239.052 150.029 244.296 144.023C248.691 139.163 252.363 133.695 255.198 127.788C257.085 123.722 258.172 119.332 258.4 114.856C258.516 111.493 253.29 111.498 253.175 114.856V114.843Z" fill="#211715"/>
<path d="M153.591 86.5753C151.719 84.9266 149.325 83.9928 146.831 83.939C144.337 83.8853 141.904 84.7149 139.963 86.2814C136.062 89.4669 135.945 95.2435 136.37 99.8617C137.241 109.405 142.299 121.398 152.872 123.24C153.539 123.404 154.244 123.306 154.842 122.967C155.44 122.627 155.885 122.072 156.085 121.414C156.264 120.746 156.173 120.035 155.831 119.434C155.49 118.833 154.926 118.39 154.261 118.201C146.57 116.862 142.981 108.445 141.812 101.537C141.506 99.6436 141.397 97.7235 141.485 95.8074C141.401 94.1851 141.757 92.5703 142.515 91.1337C142.936 90.5828 143.463 90.1222 144.065 89.7793C144.668 89.4364 145.333 89.2181 146.022 89.1376C146.71 89.057 147.408 89.1158 148.073 89.3104C148.738 89.505 149.358 89.8315 149.894 90.2703C150.393 90.7439 151.054 91.008 151.742 91.008C152.429 91.008 153.091 90.7439 153.589 90.2703C154.074 89.7774 154.345 89.114 154.345 88.4228C154.345 87.7317 154.074 87.0683 153.589 86.5753H153.591Z" fill="#211715"/>
<path d="M151.898 116.974C155.242 132.777 164.57 148.18 179.462 155.491C183.444 157.448 187.743 158.68 192.157 159.129C192.848 159.124 193.51 158.847 193.999 158.358C194.488 157.869 194.765 157.207 194.77 156.516C194.755 155.828 194.475 155.172 193.988 154.685C193.501 154.198 192.845 153.918 192.157 153.903C177.502 152.379 165.515 139.706 160.243 126.629C158.822 123.051 157.716 119.355 156.938 115.584C156.242 112.297 151.204 113.688 151.898 116.974Z" fill="#211715"/>
<path d="M231.215 4.24776C221.689 0.597396 211.282 -0.358471 201.141 0.110753C189.373 0.787499 177.923 4.18867 167.694 10.0461C160.175 14.1334 153.631 19.8012 148.512 26.6595C143.242 34.1469 139.373 42.5273 137.091 51.3944C133.607 64.0929 132.612 77.4216 133.029 90.5436C133.138 93.8978 138.364 93.912 138.255 90.5436C137.626 70.7295 140.058 49.3216 150.993 32.2705C155.127 25.8795 160.631 20.4875 167.105 16.4846C176.112 10.7174 186.289 7.02848 196.899 5.68592C203.395 5.00559 209.947 5.07097 216.427 5.88079C221.017 6.45305 225.518 7.59518 229.826 9.28076C230.494 9.45971 231.205 9.36863 231.806 9.0272C232.408 8.68577 232.851 8.12142 233.039 7.45612C233.207 6.78929 233.11 6.08362 232.77 5.486C232.431 4.88838 231.873 4.44486 231.215 4.24776Z" fill="#211715"/>
<path d="M274.51 90.5468C274.921 84.5781 274.942 78.5888 274.574 72.6173C274.419 67.2798 273.896 61.9594 273.007 56.6941C270.746 44.5825 265.786 32.4687 257.833 22.9656C255.741 20.4616 253.338 18.2341 251.033 15.9337C248.815 13.6788 246.288 11.751 243.527 10.2083C240.579 8.58509 237.939 13.0966 240.889 14.7198C243.063 15.9048 245.062 17.3866 246.828 19.1225C248.859 21.1137 250.942 23.094 252.859 25.1963C256.626 29.4747 259.73 34.2948 262.066 39.4951C264.564 44.8871 266.43 50.5495 267.629 56.3697C268.57 61.3023 269.123 66.3008 269.285 71.3196C269.718 77.7206 269.718 84.1436 269.285 90.5447C269.29 91.236 269.567 91.8974 270.056 92.3863C270.545 92.8751 271.207 93.1521 271.898 93.1575C272.587 93.1439 273.243 92.8642 273.73 92.3771C274.217 91.89 274.497 91.2334 274.511 90.5447L274.51 90.5468Z" fill="#211715"/>
<path d="M225.109 153.761C225.04 156.064 225.116 158.368 225.337 160.66C225.449 162.834 226.079 164.95 227.177 166.83C229.759 170.559 233.926 173.24 237.616 175.744C237.912 175.917 238.24 176.031 238.58 176.077C238.92 176.124 239.265 176.103 239.597 176.016C239.929 175.929 240.241 175.778 240.514 175.57C240.788 175.363 241.017 175.104 241.191 174.807C241.364 174.511 241.477 174.184 241.524 173.844C241.57 173.504 241.55 173.158 241.463 172.826C241.376 172.494 241.224 172.182 241.017 171.909C240.809 171.636 240.55 171.406 240.254 171.233C238.497 170.041 236.749 168.822 235.107 167.477C234.387 166.888 233.683 166.279 233.014 165.626C232.722 165.343 232.437 165.053 232.165 164.755C232.027 164.603 231.893 164.447 231.761 164.289C231.494 163.969 232.048 164.759 231.689 164.19C231.531 163.94 231.373 163.7 231.24 163.435C231.096 163.152 231.382 163.858 231.233 163.394C231.155 163.148 231.068 162.906 230.996 162.658C230.763 161.841 230.599 161.005 230.507 160.161C230.333 158.032 230.275 155.895 230.335 153.759C230.356 150.396 225.13 150.392 225.109 153.759V153.761Z" fill="#211715"/>
<path d="M179.798 153.99C179.855 156.081 179.795 158.173 179.618 160.258C179.517 161.128 179.341 161.988 179.094 162.829C179.021 163.071 178.939 163.307 178.855 163.545C178.914 163.38 179.002 163.293 178.873 163.496C178.781 163.641 178.276 164.388 178.642 163.924C176.259 166.941 172.643 168.992 169.41 171.001C168.812 171.351 168.377 171.924 168.201 172.594C168.025 173.264 168.123 173.977 168.473 174.575C168.823 175.174 169.396 175.609 170.066 175.784C170.737 175.96 171.449 175.862 172.048 175.512C174.159 174.199 176.241 172.835 178.218 171.325C179.973 170.087 181.541 168.604 182.875 166.921C183.952 165.213 184.588 163.264 184.725 161.248C184.995 158.838 185.096 156.411 185.028 153.987C185.006 150.625 179.781 150.618 179.802 153.987L179.798 153.99Z" fill="#211715"/>
<path d="M196.43 52.1151C191.781 58.9748 185.967 64.9677 179.252 69.8226C173.42 74.2053 167.159 77.9867 160.566 81.109C158.769 81.9582 156.965 82.7929 155.151 83.613C154.358 83.9708 153.562 84.3257 152.763 84.6777C152.411 84.8338 152.059 84.9877 151.706 85.1394L151.338 85.2972C150.576 85.6238 151.773 85.1176 151.077 85.4061C150.421 85.6101 149.868 86.056 149.53 86.6532C149.191 87.2503 149.093 87.954 149.255 88.621C149.443 89.2869 149.886 89.852 150.487 90.1936C151.089 90.5352 151.801 90.6257 152.469 90.4456C158.362 88.1034 164.11 85.4133 169.683 82.3893C177.616 77.9482 184.947 72.5083 191.496 66.2027C195.053 62.7424 198.22 58.9029 200.942 54.753C202.783 51.9224 198.26 49.3096 196.43 52.1151Z" fill="#211715"/>
<path d="M193.558 65.8054C191.543 66.4401 189.501 66.9224 187.441 67.3861C186.519 67.5941 185.59 67.8009 184.667 67.9751C184.195 68.0637 183.723 68.1435 183.252 68.2146C183.114 68.2353 182.252 68.3801 182.967 68.2582C182.68 68.3072 182.385 68.3311 182.097 68.367C181.409 68.3839 180.754 68.6646 180.268 69.151C179.781 69.6374 179.5 70.2922 179.484 70.9799C179.541 72.2602 180.643 73.7626 182.097 73.5927C186.458 73.0823 190.761 72.1631 194.951 70.8471C195.282 70.7559 195.591 70.6004 195.862 70.3895C196.133 70.1786 196.359 69.9164 196.529 69.6179C196.698 69.3194 196.807 68.9905 196.85 68.6499C196.892 68.3093 196.867 67.9636 196.776 67.6327C196.685 67.3018 196.529 66.9921 196.318 66.7213C196.107 66.4505 195.845 66.2239 195.547 66.0544C195.248 65.8849 194.919 65.7759 194.579 65.7335C194.238 65.6912 193.892 65.7163 193.561 65.8075L193.558 65.8054Z" fill="#211715"/>
<path d="M227.503 44.7763C223.294 49.4916 218.366 53.5113 212.901 56.6865C206.835 60.4772 200.342 63.538 193.558 65.8054C190.377 66.8472 191.739 71.8944 194.947 70.8449C202.166 68.4502 209.077 65.2122 215.538 61.198C221.223 57.6903 226.868 53.6077 231.198 48.4713C231.672 47.9726 231.936 47.3113 231.936 46.6238C231.936 45.9363 231.672 45.275 231.198 44.7763C230.706 44.2913 230.042 44.0195 229.351 44.0195C228.66 44.0195 227.996 44.2913 227.503 44.7763Z" fill="#211715"/>
<path d="M259.008 86.166C251.169 82.2064 245.508 75.2171 240.848 67.9523C236.687 61.538 233.777 54.3938 232.273 46.8971C232.089 46.2289 231.647 45.6613 231.044 45.3192C230.441 44.977 229.727 44.8882 229.059 45.0724C228.391 45.2566 227.823 45.6987 227.481 46.3014C227.139 46.9041 227.05 47.6181 227.234 48.2862C228.397 54.2178 230.417 59.9485 233.231 65.298C236.604 71.7779 240.902 77.7326 245.989 82.975C249.016 86.0811 252.521 88.6819 256.371 90.6786C259.365 92.1919 262.014 87.6847 259.008 86.166Z" fill="#211715"/>
<path d="M312.854 352.585C309.628 288.393 306.616 232.59 300.518 212.265C298.764 206.42 296.555 201.252 293.633 198.915C290.711 196.577 285.852 195.024 282.473 193.392C271.494 188.089 256.641 181.46 248.737 176.137L247.422 175.249C246.631 174.601 245.815 173.959 244.98 173.314L240.081 169.996C235.219 189.949 226.889 212.372 219.908 231.833C214.624 246.562 210.679 257.174 205.313 272.159C200.422 258.629 195.004 244.398 190.18 230.966C183.22 211.564 175.769 189.344 169.3 170.099L169.213 170.16L164.214 173.547C163.111 174.396 162.053 175.258 161.04 176.131L160.902 176.205C150.668 181.692 137.865 185.208 127.349 190.292C124.115 191.849 120.316 192.589 117.866 195.213C115.36 197.903 113.42 201.068 112.161 204.521C105.052 223.073 103.67 233.905 96.8327 252.087C94.8981 245.585 93.0354 239.124 91.0082 232.164C79.9494 236.598 62.4487 242.512 51.7317 243.695C55.2155 260.968 58.5904 279.512 64.2113 297.028C68.1175 309.2 73.9942 320.777 85.9535 325.292C90.4253 327.062 95.2425 327.787 100.037 327.412C104.832 327.037 109.478 325.572 113.62 323.127C120.766 318.963 129.105 309.891 134.311 304.556C134.311 304.556 135.073 303.876 136.161 302.923C136.183 303.388 136.194 303.817 136.194 304.206C136.194 311.761 133.429 337.128 132.297 352.587L312.854 352.585Z" fill="#C0E2F7"/>
<path d="M212.306 252.822C214.737 246.142 217.138 239.554 219.908 231.836C224.302 219.588 229.229 206.168 233.492 192.928C232.666 193.244 231.819 193.507 230.959 193.714C223.097 196.841 211.647 198.112 203.599 198.093C195.076 197.861 186.607 196.644 178.363 194.466L177.905 194.357C181.994 207.151 186.636 220.079 190.86 231.838C195.681 245.275 200.501 258.712 205.321 272.15C207.869 265.022 210.1 258.884 212.306 252.822Z" fill="#2198D6"/>
<path d="M57.5051 242.343C56.5699 239.277 55.9418 236.102 54.9282 233.061L53.1036 236.275C57.6989 235.031 62.2877 233.759 66.8591 232.43C72.9775 230.652 79.1678 228.897 85.0848 226.517L81.8656 224.688C83.0065 227.628 83.9188 230.652 85.0336 233.601C85.234 234.259 85.6789 234.815 86.2768 235.154C86.8747 235.494 87.58 235.591 88.2474 235.426C88.9128 235.237 89.4772 234.794 89.8188 234.193C90.1604 233.592 90.2518 232.88 90.0732 232.212C88.9584 229.263 88.046 226.239 86.9051 223.299C86.4402 222.102 85.1066 220.904 83.6902 221.474C77.7743 223.855 71.584 225.611 65.4656 227.388C60.8931 228.717 56.3054 229.988 51.71 231.233C51.0456 231.424 50.4823 231.867 50.1409 232.468C49.7996 233.068 49.7075 233.779 49.8843 234.447C50.8979 237.488 51.5261 240.663 52.4612 243.729C53.4411 246.937 58.4849 245.569 57.5008 242.34L57.5051 242.343Z" fill="#211715"/>
<path d="M177.67 196.986C186.602 199.463 195.83 200.711 205.099 200.695C213.968 200.55 223.349 199.484 231.655 196.231C232.312 196.03 232.867 195.584 233.206 194.987C233.545 194.389 233.643 193.685 233.479 193.017C233.291 192.352 232.848 191.788 232.246 191.446C231.645 191.105 230.933 191.014 230.265 191.193C222.356 194.289 213.544 195.33 205.099 195.467C196.299 195.486 187.538 194.301 179.059 191.945C175.805 191.083 174.416 196.122 177.67 196.983V196.986Z" fill="#211715"/>
<path d="M192.625 283.95C192.917 284.211 193.186 284.498 193.429 284.806L193.02 284.276C193.279 284.618 193.498 284.988 193.674 285.379L193.41 284.755C193.589 285.181 193.713 285.627 193.779 286.084L193.686 285.389C193.748 285.881 193.748 286.38 193.686 286.872L193.779 286.177C193.703 286.715 193.559 287.24 193.351 287.742L193.615 287.118C193.451 287.511 193.24 287.882 192.988 288.225L193.396 287.696C193.156 288.001 192.879 288.275 192.571 288.511L193.1 288.103C192.737 288.372 192.344 288.597 191.928 288.773L192.552 288.509C192.062 288.706 191.551 288.843 191.028 288.917L191.723 288.825C191.132 288.901 190.534 288.901 189.943 288.825L190.637 288.919C190.136 288.849 189.646 288.719 189.177 288.53L189.801 288.793C189.449 288.643 189.115 288.452 188.807 288.224L189.335 288.632C188.976 288.348 188.652 288.024 188.367 287.666L188.776 288.195C188.514 287.854 188.296 287.482 188.128 287.087L188.391 287.711C188.259 287.374 188.164 287.022 188.11 286.664L188.204 287.358C188.152 286.937 188.152 286.51 188.204 286.088L188.11 286.783C188.189 286.25 188.335 285.731 188.546 285.236L188.282 285.859C188.548 285.258 188.886 284.692 189.289 284.173L188.881 284.702C189.109 284.406 189.37 284.138 189.66 283.902L189.13 284.31C189.462 284.06 189.821 283.85 190.202 283.684L189.578 283.948C190.08 283.738 190.608 283.596 191.147 283.524L190.452 283.618C190.965 283.554 191.485 283.554 191.998 283.618L191.304 283.524C191.74 283.587 192.167 283.702 192.576 283.865L191.951 283.601C192.322 283.759 192.671 283.962 192.991 284.208L192.462 283.8C192.521 283.845 192.577 283.892 192.633 283.941C193.134 284.416 193.793 284.688 194.484 284.703C195.001 284.704 195.508 284.552 195.939 284.265C196.369 283.978 196.705 283.569 196.904 283.091C197.102 282.613 197.154 282.087 197.052 281.579C196.951 281.071 196.701 280.605 196.334 280.24C194.948 279.034 193.18 278.359 191.343 278.334C189.735 278.295 188.152 278.728 186.789 279.581C185.394 280.533 184.306 281.869 183.657 283.428C183.009 284.986 182.827 286.7 183.134 288.36C183.592 290.168 184.702 291.743 186.251 292.782C187.194 293.38 188.246 293.785 189.347 293.974C190.447 294.163 191.574 294.132 192.662 293.884C193.751 293.635 194.78 293.174 195.689 292.527C196.599 291.879 197.371 291.058 197.962 290.111C198.705 288.72 199.044 287.15 198.942 285.577C198.782 283.531 197.848 281.623 196.329 280.243C195.838 279.759 195.175 279.49 194.486 279.493C193.796 279.495 193.136 279.77 192.649 280.258C192.161 280.745 191.886 281.405 191.884 282.095C191.881 282.784 192.15 283.446 192.634 283.938L192.625 283.95Z" fill="#211715"/>
<path d="M206.276 352.585C208.454 332.59 210.879 312.656 211.776 292.55C211.96 289.509 211.861 286.458 211.479 283.435C210.922 280.194 210.005 277.026 208.745 273.988C208.545 273.331 208.1 272.775 207.502 272.436C206.904 272.096 206.199 271.999 205.532 272.164C204.866 272.352 204.301 272.795 203.96 273.396C203.618 273.998 203.527 274.709 203.706 275.377C204.812 278.055 205.667 280.829 206.259 283.665C206.648 286.243 206.761 288.855 206.596 291.457C206.391 296.866 206.006 302.27 205.633 307.669C204.962 317.37 203.891 327.029 202.822 336.693C202.233 341.991 201.624 347.286 201.051 352.588C201.055 353.28 201.332 353.942 201.821 354.431C202.31 354.92 202.972 355.196 203.663 355.201C204.352 355.186 205.007 354.906 205.494 354.419C205.981 353.932 206.261 353.276 206.276 352.588V352.585Z" fill="#211715"/>
<path d="M247.419 178.393C253.108 182.005 259.039 185.223 265.17 188.022C271.767 191.224 278.365 194.538 285.125 197.385C287.909 198.557 291.176 199.715 293.152 202.118C295.019 204.69 296.411 207.575 297.262 210.637C298.501 214.458 299.473 218.361 300.17 222.317C302.062 232.485 303.08 242.5 304.043 252.931C305.35 267.045 306.298 281.191 307.158 295.337C308.318 314.415 309.282 333.501 310.241 352.589C310.41 355.936 315.637 355.956 315.467 352.589C314.596 335.256 313.717 317.923 312.698 300.598C311.828 285.844 310.876 271.095 309.579 256.37C308.606 245.321 307.511 234.245 305.633 223.307C305.034 219.588 304.235 215.905 303.238 212.273C301.398 205.833 298.949 198.725 292.806 195.243C289.752 193.512 286.393 192.395 283.235 190.874C279.882 189.259 276.514 187.678 273.153 186.083C266.591 182.964 259.992 179.849 253.719 176.176C252.474 175.449 251.25 174.691 250.052 173.89C247.249 172.015 244.629 176.54 247.414 178.403L247.419 178.393Z" fill="#211715"/>
<path d="M237.468 169.716C234.139 183.188 229.738 196.374 225.146 209.453C220.574 222.476 215.854 235.449 211.135 248.418C208.505 255.646 205.885 262.878 203.276 270.114C203.098 270.782 203.19 271.493 203.531 272.094C203.872 272.695 204.436 273.138 205.1 273.327C205.768 273.498 206.476 273.402 207.075 273.062C207.674 272.722 208.118 272.163 208.314 271.503C217.671 245.426 227.693 219.534 236.162 193.149C238.499 185.866 240.672 178.528 242.507 171.101C243.314 167.835 238.276 166.444 237.468 169.712V169.716Z" fill="#211715"/>
<path d="M224.494 266.258C231.066 256.869 237.412 247.327 243.532 237.633C246.627 232.725 249.662 227.78 252.637 222.797C255.54 217.932 258.568 213.075 261.194 208.053C261.622 207.349 261.865 206.548 261.9 205.725C261.935 204.902 261.76 204.083 261.393 203.346C260.548 202.049 259.511 200.887 258.318 199.901C256.005 197.624 253.602 195.437 251.189 193.273L250.661 197.377C252.815 196.098 254.939 194.765 257.139 193.557C259.277 192.388 262.327 191.408 261.541 188.28C260.836 186.302 259.787 184.463 258.443 182.849C257.218 181.157 255.871 179.556 254.415 178.059C250.408 174.158 246.012 170.678 241.297 167.672C238.506 165.781 235.887 170.305 238.66 172.183L241.817 174.32C243.111 175.167 244.355 176.085 245.545 177.071C247.816 178.89 249.944 180.879 251.912 183.022C252.818 184.018 253.657 185.073 254.424 186.179C254.787 186.708 255.133 187.246 255.461 187.795C255.645 188.102 255.823 188.411 255.995 188.724C256.059 188.832 256.418 189.634 256.416 189.4L256.773 188.081L256.594 188.362L257.532 187.425C256.056 188.341 254.529 189.171 252.959 189.912C251.301 190.873 249.671 191.883 248.023 192.861C247.682 193.065 247.391 193.345 247.173 193.678C246.955 194.011 246.815 194.389 246.764 194.784C246.713 195.179 246.753 195.58 246.879 195.958C247.005 196.335 247.215 196.679 247.494 196.964C249.463 198.733 251.424 200.512 253.335 202.343C254.258 203.226 255.167 204.124 256.063 205.035C256.123 205.095 256.619 205.719 256.768 205.763C256.679 205.736 256.781 205.229 256.768 205.247C256.478 205.819 256.138 206.371 255.821 206.93C253.131 211.666 250.386 216.372 247.587 221.047C242.066 230.264 236.336 239.356 230.397 248.321C226.991 253.464 223.518 258.563 219.977 263.616C219.633 264.216 219.539 264.927 219.714 265.595C219.89 266.264 220.321 266.837 220.915 267.191C221.516 267.526 222.224 267.616 222.891 267.442C223.557 267.267 224.13 266.841 224.49 266.253L224.494 266.258Z" fill="#211715"/>
<path d="M279.799 352.585C278.986 341.554 277.853 330.549 276.902 319.53C276.266 312.16 275.569 304.912 276.391 297.539C278.448 279.087 282.671 260.434 285.617 241.907C286.636 235.502 287.599 229.089 288.665 222.693C289.253 218.376 290.121 214.101 291.265 209.897C292.244 206.674 287.207 205.295 286.226 208.508C285.225 212.142 284.454 215.836 283.919 219.567C282.967 225.129 282.119 230.709 281.243 236.283C279.692 246.176 277.886 256.008 276.098 265.859C274.382 275.318 272.772 284.808 271.547 294.345C271.034 297.69 270.743 301.065 270.677 304.449C270.698 308.237 271.055 312.034 271.363 315.806C272.363 328.071 273.669 340.31 274.573 352.583C274.589 353.271 274.87 353.926 275.356 354.412C275.843 354.899 276.498 355.179 277.186 355.196C277.877 355.19 278.538 354.913 279.027 354.424C279.516 353.935 279.793 353.274 279.799 352.583V352.585Z" fill="#211715"/>
<path d="M119.572 209.257C119.477 208.556 119.622 209.64 119.648 209.841L119.805 211.038C119.936 212.049 120.066 213.059 120.195 214.07C120.498 216.435 120.801 218.799 121.104 221.163C121.86 227.009 122.648 232.852 123.466 238.691C124.919 248.925 126.624 259.104 128.469 269.269C130.071 278.073 131.768 287.333 132.87 295.928C133.35 299.082 133.583 302.269 133.568 305.459C133.459 309.318 133.121 313.174 132.8 317.021C131.811 328.88 130.565 340.718 129.69 352.587C129.696 353.278 129.974 353.939 130.462 354.428C130.951 354.917 131.612 355.194 132.303 355.2C132.992 355.187 133.649 354.907 134.136 354.42C134.623 353.933 134.903 353.276 134.916 352.587C135.701 341.927 136.785 331.289 137.716 320.642C138.352 313.356 139.225 306.037 138.431 298.737C136.363 279.742 131.986 261.031 129.204 242.134C127.525 230.732 126.149 219.292 124.611 207.87C124.423 207.204 123.981 206.639 123.379 206.297C122.777 205.955 122.065 205.864 121.397 206.044C120.739 206.245 120.183 206.69 119.843 207.288C119.504 207.886 119.407 208.592 119.572 209.259V209.257Z" fill="#211715"/>
<path d="M166.858 171.018C175.976 198.145 185.192 225.223 195.141 252.058C198.022 259.83 200.911 267.599 203.71 275.4C203.91 276.059 204.354 276.615 204.953 276.955C205.551 277.295 206.257 277.391 206.924 277.225C207.589 277.036 208.153 276.593 208.494 275.991C208.835 275.39 208.927 274.679 208.749 274.011C203.758 260.111 198.492 246.313 193.477 232.423C188.63 218.999 184.005 205.495 179.433 191.978C176.911 184.532 174.401 177.083 171.903 169.63C170.836 166.459 165.788 167.819 166.864 171.019L166.858 171.018Z" fill="#211715"/>
<path d="M189.396 264.196C177.018 246.509 165.455 228.29 154.707 209.536C154.322 208.861 153.937 208.185 153.552 207.509C153.381 207.208 153.21 206.909 153.042 206.607C152.974 206.488 152.586 205.602 152.627 205.961C152.634 206.029 152.676 206.287 152.609 206.343C152.983 206.016 153.325 205.604 153.672 205.254C154.149 204.77 154.633 204.29 155.121 203.815C157.321 201.668 159.597 199.601 161.884 197.546C162.162 197.261 162.372 196.917 162.498 196.54C162.625 196.162 162.664 195.761 162.613 195.366C162.562 194.972 162.422 194.594 162.204 194.26C161.987 193.927 161.696 193.648 161.355 193.443C159.707 192.463 158.077 191.456 156.419 190.494C154.848 189.753 153.322 188.922 151.846 188.007L152.784 188.944L152.606 188.663L152.963 189.982C152.963 190.178 153.235 189.573 153.279 189.492C153.449 189.176 153.623 188.861 153.803 188.549C154.161 187.929 154.538 187.319 154.934 186.721C155.685 185.583 156.505 184.493 157.391 183.455C159.306 181.24 161.403 179.19 163.661 177.325C164.841 176.325 166.083 175.4 167.38 174.556L170.537 172.419C173.306 170.544 170.695 166.015 167.9 167.908C163.162 170.905 158.788 174.443 154.865 178.448C153.434 179.996 152.112 181.64 150.908 183.37C149.59 185.018 148.553 186.872 147.839 188.856C147.043 191.876 149.94 192.884 152.021 194.013C154.3 195.246 156.493 196.632 158.719 197.953L158.19 193.85C156.031 195.79 153.881 197.742 151.795 199.762C149.908 201.59 147.273 203.557 147.466 206.457C147.711 207.789 148.249 209.05 149.042 210.148C149.81 211.501 150.583 212.851 151.36 214.199C152.739 216.594 154.135 218.983 155.549 221.366C161.423 231.281 167.537 241.05 173.891 250.671C177.482 256.109 181.147 261.497 184.887 266.835C185.249 267.419 185.822 267.842 186.487 268.017C187.153 268.191 187.859 268.104 188.462 267.772C189.056 267.418 189.487 266.845 189.662 266.176C189.838 265.507 189.743 264.796 189.399 264.197L189.396 264.196Z" fill="#211715"/>
<path d="M107.47 277.263C102.438 262.116 97.9986 246.794 93.535 231.473C93.3469 230.807 92.9041 230.243 92.3026 229.901C91.701 229.56 90.9892 229.469 90.3212 229.648C83.8972 232.217 77.3771 234.525 70.7608 236.573C64.5692 238.653 58.2014 240.165 51.736 241.09C51.337 241.1 50.9454 241.2 50.5901 241.382C50.2347 241.563 49.9246 241.822 49.6827 242.14C49.4409 242.457 49.2733 242.825 49.1925 243.216C49.1116 243.606 49.1196 244.01 49.2157 244.398C51.4453 255.457 53.5487 266.544 56.1506 277.523C58.5686 287.725 61.1466 298.157 65.5275 307.723C69.0984 315.521 74.5516 322.822 82.4457 326.618C87.1557 328.885 92.3158 330.062 97.543 330.062C102.77 330.062 107.93 328.885 112.64 326.618C117.419 324.311 121.555 320.79 125.417 317.2C129.137 313.744 132.62 310.05 136.163 306.416C138.512 304.006 134.82 300.306 132.468 302.714C126.547 308.789 120.749 315.452 113.578 320.092C109.596 322.66 105.057 324.237 100.341 324.692C95.6248 325.146 90.8684 324.465 86.4694 322.705C79.0283 319.829 74.0192 313.296 70.6345 306.334C66.3821 297.583 64.0316 287.804 61.7388 278.396C58.8821 266.679 56.6427 254.825 54.2596 243.005L51.7403 246.313C58.5314 245.403 65.2247 243.873 71.7362 241.74C78.4861 239.673 85.1445 237.323 91.7115 234.691L88.4966 232.866C92.9602 248.189 97.4053 263.51 102.432 278.657C103.487 281.832 108.535 280.471 107.47 277.267V277.263Z" fill="#211715"/>
<path d="M99.3562 252.783C104.146 239.993 107.25 226.699 111.605 213.771C112.688 210.231 113.981 206.759 115.476 203.373C116.736 200.732 118.535 197.529 121.077 195.923C123.66 194.29 126.738 193.456 129.494 192.157C132.699 190.648 135.991 189.336 139.293 188.064C147.022 185.088 154.894 182.36 162.222 178.463C165.192 176.883 162.556 172.366 159.585 173.95C153.077 177.412 146.123 179.887 139.251 182.508C135.645 183.884 132.051 185.297 128.529 186.876C127.134 187.502 125.773 188.197 124.35 188.755C122.697 189.348 121.077 190.031 119.498 190.8C112.904 194.251 110.173 202.159 107.838 208.709C105.509 215.241 103.555 221.882 101.649 228.547C99.4466 236.244 97.1255 243.897 94.3145 251.394C94.1359 252.062 94.2271 252.773 94.5685 253.374C94.9099 253.976 95.474 254.419 96.1392 254.608C96.8069 254.777 97.5142 254.681 98.1133 254.341C98.7124 254.001 99.157 253.443 99.3541 252.783H99.3562Z" fill="#211715"/>
<path d="M83.0707 218.132C84.2889 212.087 85.2862 205.84 84.6145 199.664C83.9689 193.727 81.613 188.375 79.146 182.996C78.1009 180.717 76.9926 178.469 75.856 176.235C74.7096 173.984 73.6677 171.573 72.3199 169.437C71.1365 167.559 69.2618 165.627 67.0246 165.149C65.5911 164.866 64.1049 165.036 62.7728 165.637C61.4407 166.237 60.3289 167.238 59.5921 168.5C57.8752 171.149 58.3695 174.566 58.6634 177.546C58.9943 181.127 59.7037 184.663 60.7799 188.094C61.801 191.285 66.8471 189.921 65.8183 186.705C65.0165 184.227 64.4307 181.683 64.0677 179.104C63.912 177.972 63.8118 176.831 63.7411 175.691C63.5718 174.516 63.5353 173.326 63.6322 172.143C63.8499 170.907 65.1912 169.722 66.2984 170.449C67.6647 171.347 68.2254 172.832 68.9951 174.316C71.0004 178.18 73.0036 182.046 74.8087 186.011C76.7683 190.304 78.7769 194.693 79.3637 199.418C80.0844 205.211 79.1776 211.067 78.0334 216.743C77.8664 217.411 77.9628 218.117 78.3025 218.715C78.6422 219.313 79.1992 219.758 79.858 219.957C80.5261 220.135 81.2373 220.043 81.8385 219.702C82.4398 219.361 82.883 218.797 83.0729 218.132H83.0707Z" fill="#211715"/>
<path d="M196.16 131.013C199.302 132.638 202.802 133.448 206.338 133.368C210 133.524 213.61 132.461 216.601 130.344C217.088 129.852 217.361 129.188 217.361 128.496C217.361 127.804 217.088 127.14 216.601 126.649C216.103 126.175 215.442 125.91 214.754 125.91C214.066 125.91 213.405 126.175 212.906 126.649C213.697 126.034 213.075 126.509 212.873 126.64C212.67 126.771 212.457 126.893 212.242 127.005C212.064 127.098 211.291 127.405 212.002 127.142C211.712 127.251 211.427 127.36 211.131 127.459C210.336 127.71 209.522 127.896 208.697 128.014C209.08 127.957 208.605 128.021 208.457 128.036C208.217 128.059 207.979 128.079 207.739 128.095C207.163 128.132 206.586 128.146 206.009 128.142C205.492 128.142 204.976 128.122 204.46 128.087C204.224 128.071 203.987 128.052 203.751 128.028C203.731 128.028 202.881 127.908 203.399 127.99C202.631 127.873 201.871 127.704 201.126 127.485C200.807 127.39 200.496 127.276 200.183 127.168C199.512 126.938 200.556 127.363 199.952 127.078C199.562 126.894 199.177 126.702 198.797 126.501C198.195 126.166 197.487 126.076 196.821 126.251C196.155 126.426 195.582 126.851 195.222 127.438C194.879 128.038 194.786 128.749 194.961 129.417C195.136 130.085 195.566 130.658 196.159 131.013H196.16Z" fill="#211715"/>
<path d="M205.026 107.02C205.496 108.715 205.872 110.435 206.152 112.171L206.059 111.477C206.092 111.712 206.099 111.951 206.078 112.188L206.172 111.493C206.156 111.602 206.129 111.709 206.093 111.813L206.357 111.188C206.327 111.26 206.291 111.329 206.248 111.394L206.657 110.865C206.607 110.927 206.551 110.983 206.489 111.032L207.018 110.623C206.886 110.705 206.75 110.777 206.609 110.841L207.233 110.578C207.013 110.672 206.782 110.739 206.546 110.778L207.241 110.685C207.026 110.71 206.81 110.71 206.595 110.685L207.29 110.778C207.046 110.744 206.808 110.685 206.564 110.653C206.227 110.544 205.867 110.528 205.522 110.606C205.176 110.62 204.841 110.728 204.551 110.916C203.952 111.266 203.518 111.839 203.342 112.509C203.166 113.179 203.264 113.892 203.613 114.49C203.779 114.785 204.003 115.043 204.271 115.249C204.54 115.455 204.847 115.604 205.175 115.688C205.725 115.762 206.263 115.906 206.822 115.927C207.665 115.932 208.496 115.734 209.247 115.352C209.722 115.136 210.142 114.818 210.477 114.419C210.812 114.021 211.054 113.552 211.185 113.048C211.357 112.227 211.349 111.379 211.16 110.562C210.88 108.903 210.497 107.258 210.071 105.631C209.887 104.962 209.445 104.395 208.842 104.053C208.24 103.711 207.526 103.622 206.858 103.806C206.189 103.99 205.622 104.432 205.28 105.035C204.938 105.638 204.849 106.352 205.033 107.02H205.026Z" fill="#211715"/>
<path d="M177.758 92.4314C176.898 95.2271 177.459 101.659 182.755 102.207C189.755 102.164 190.129 94.3888 187.772 90.733C185.843 87.7402 180.174 86.4959 177.758 92.4314Z" fill="#211715"/>
<path d="M233.819 92.4314C234.679 95.2271 234.118 101.658 228.822 102.206C221.822 102.163 221.448 94.3877 223.805 90.7319C225.734 87.7402 231.408 86.4959 233.819 92.4314Z" fill="#211715"/>
</svg>
