<svg width="70" height="70" viewBox="0 0 70 70" fill="none" xmlns="http://www.w3.org/2000/svg">
<path d="M6.17016 0.231528C6.02034 0.367734 4.57654 3.40514 2.94206 6.98738L0 13.4844V18.061V22.6239L0.340517 22.9508C0.776378 23.4003 1.48465 23.4003 2.00224 22.9644L2.38362 22.6375L2.42448 18.8782L2.46534 15.1189H7.02827H11.5776V32.4853V49.8516H7.01464H2.45172L2.42448 38.601L2.38362 27.3503L2.00224 27.0234C1.52551 26.6148 0.844481 26.6011 0.354137 26.9825L0 27.2549V45.6292C0 63.5676 0 64.0035 0.272413 64.848C0.980688 67.1363 2.72413 68.8388 5.02603 69.5199C5.87051 69.765 7.79102 69.8059 8.71723 69.588C11.2098 69.0159 13.4164 66.6732 13.8795 64.0988C13.9884 63.5404 14.0293 55.5995 14.0293 38.492V13.6887L11.0327 7.08272C9.38464 3.44601 7.89999 0.367734 7.75016 0.231528C7.58671 0.108942 7.23258 -2.36814e-05 6.94654 -2.36814e-05C6.64689 -2.36814e-05 6.31999 0.095321 6.17016 0.231528ZM7.99533 6.40169L8.71723 7.96807L7.05551 8.00893C6.15654 8.02255 5.38016 8.00893 5.3393 7.98169C5.29844 7.94083 5.50275 7.396 5.78878 6.78307C6.07482 6.15652 6.4562 5.31204 6.64689 4.90342C6.97378 4.1679 6.9874 4.1679 7.12361 4.4948C7.21895 4.68549 7.60033 5.54359 7.99533 6.40169ZM10.2427 11.346C10.4471 11.8091 10.6514 12.2994 10.7058 12.422C10.7876 12.6536 10.5424 12.6672 6.96016 12.6672H3.13275L3.32344 12.2177C3.43241 11.9862 3.65034 11.4958 3.80017 11.1281L4.09982 10.4879H6.9874L9.87499 10.5015L10.2427 11.346ZM11.5776 54.0059V55.7085H7.01464H2.45172V54.0059V52.3033H7.01464H11.5776V54.0059ZM11.5503 60.9797C11.5095 63.7175 11.4958 63.8401 11.1417 64.5892C10.7058 65.529 9.8205 66.4416 8.92154 66.8911C8.33585 67.1635 8.04982 67.218 6.94654 67.218C5.81603 67.218 5.57085 67.1635 4.97154 66.8502C4.09982 66.4007 3.33706 65.638 2.88758 64.7663C2.53344 64.0988 2.51982 64.0307 2.47896 61.1159L2.4381 58.1602H7.01464H11.6048L11.5503 60.9797Z" fill="#106194"/>
<path d="M20.7034 0.122786C19.5593 0.476923 18.4151 1.45761 17.8295 2.58813L17.5026 3.20106V34.8691V66.5372L17.8295 67.1501C18.2653 67.981 19.137 68.8663 19.9543 69.3022L20.6353 69.6699H43.5861H66.537L67.1499 69.343C67.9808 68.9072 68.8661 68.0354 69.302 67.2182L69.6697 66.5372V34.8691V3.20106L69.302 2.52002C68.8661 1.70278 67.9808 0.831061 67.1499 0.395199L66.537 0.0683032L43.7905 0.0410618C31.2867 0.0274412 20.8941 0.0683032 20.7034 0.122786ZM66.2101 2.7652C66.4552 2.92864 66.8094 3.28278 66.9728 3.52795L67.2861 3.99106V34.8691V65.7472L66.9728 66.2103C66.8094 66.4554 66.4552 66.8096 66.2101 66.973L65.747 67.2863H43.5861H21.4253L20.9622 66.973C20.717 66.8096 20.3629 66.4554 20.1995 66.2103L19.8862 65.7472V34.8691V3.99106L20.1995 3.52795C20.3629 3.28278 20.717 2.92864 20.9622 2.7652L21.4253 2.45192H43.5861H65.747L66.2101 2.7652Z" fill="#106194"/>
<path d="M23.1415 4.94414C22.8963 5.10759 22.5422 5.46173 22.3651 5.72052L22.0518 6.18362L22.0927 11.7L22.1336 17.23L22.4605 17.6931C22.6375 17.9383 23.0325 18.2652 23.3458 18.4014C23.877 18.6465 24.6806 18.6602 43.5861 18.6602C62.4916 18.6602 63.2952 18.6465 63.8264 18.4014C64.1397 18.2652 64.5347 17.9383 64.7118 17.6931L65.0387 17.23L65.0795 11.7L65.1204 6.18362L64.8071 5.72052C64.6301 5.46173 64.2759 5.10759 64.0308 4.94414L63.5677 4.63087H43.5861H23.6046L23.1415 4.94414ZM49.7563 7.25966C49.7018 7.36862 48.2716 9.41172 46.5827 11.8226L43.518 16.2084H34.0244H24.5172V11.6455V7.08259H37.1844C47.7268 7.08259 49.8516 7.10983 49.7563 7.25966ZM56.7165 7.24604C56.662 7.34138 55.2318 9.3981 53.5428 11.809L50.4782 16.2084H48.5168H46.5691L47.4953 14.8736C47.9992 14.1381 49.4294 12.095 50.6689 10.3107L52.9163 7.09621L54.864 7.08259C56.3896 7.08259 56.7982 7.12345 56.7165 7.24604ZM62.6551 11.6455V16.2084H58.0785H53.502L53.9787 15.5546C54.2375 15.2005 55.5315 13.3481 56.8663 11.4412C58.2011 9.53431 59.4406 7.76362 59.6177 7.51845L59.9446 7.08259H61.3066H62.6551V11.6455Z" fill="#106194"/>
<path d="M24.0405 22.3921C23.2232 22.7735 22.7193 23.2911 22.3515 24.1083C22.0927 24.6804 22.0655 24.9937 22.0655 28.3852C22.0655 32.485 22.12 32.8119 22.91 33.7109C23.9043 34.8414 24.0677 34.8687 28.44 34.8687C32.7169 34.8687 32.7986 34.855 33.7793 33.9561C34.8417 33.0162 34.8689 32.88 34.8689 28.4806C34.8689 24.8302 34.8553 24.5714 34.5829 24.013C34.2287 23.2775 33.2753 22.433 32.5806 22.2287C32.2265 22.1197 30.7963 22.0652 28.3855 22.0652C24.8169 22.0652 24.7079 22.0788 24.0405 22.3921ZM32.1039 24.8166C32.4172 25.1026 32.4172 25.1299 32.4172 28.4533C32.4172 31.6814 32.4036 31.7904 32.1175 32.1037C31.8315 32.4169 31.8043 32.4169 28.4808 32.4169C25.2527 32.4169 25.1438 32.4033 24.8305 32.1173C24.5172 31.8312 24.5172 31.804 24.5172 28.5078V25.1844L24.8577 24.8575L25.1846 24.5169H28.4808C31.6817 24.5169 31.7906 24.5306 32.1039 24.8166Z" fill="#106194"/>
<path d="M39.1458 22.3921C38.3422 22.7599 37.5658 23.618 37.3479 24.3671C37.2389 24.7076 37.1844 26.1787 37.1844 28.6168C37.1844 32.8256 37.2253 33.0162 38.3013 33.9833C39.2548 34.855 39.3501 34.8687 43.5861 34.8687C47.8222 34.8687 47.9175 34.855 48.871 33.9833C49.947 33.0162 49.9878 32.8256 49.9878 28.6168C49.9878 26.1787 49.9334 24.7076 49.8244 24.3671C49.6065 23.618 48.8301 22.7599 48.0265 22.3921C47.3454 22.0788 47.2365 22.0652 43.5861 22.0652C39.9358 22.0652 39.8268 22.0788 39.1458 22.3921ZM47.182 24.803L47.5361 25.0754V28.4397C47.5361 31.695 47.5225 31.7904 47.2365 32.1037C46.9504 32.4169 46.9232 32.4169 43.5998 32.4169C40.3717 32.4169 40.2627 32.4033 39.9494 32.1173C39.6361 31.8312 39.6361 31.804 39.6361 28.4533V25.0754L39.9903 24.803C40.3308 24.5306 40.5215 24.5169 43.5861 24.5169C46.6508 24.5169 46.8415 24.5306 47.182 24.803Z" fill="#106194"/>
<path d="M54.5099 22.2423C53.8834 22.433 52.9163 23.3319 52.5894 24.013C52.317 24.5714 52.3034 24.8302 52.3034 28.4806C52.3034 32.8392 52.3306 32.9754 53.3385 33.9424C54.2784 34.8414 54.4282 34.8687 58.7323 34.8687C63.1046 34.8687 63.268 34.8414 64.2623 33.7109C65.0523 32.8119 65.1068 32.485 65.1068 28.3852C65.1068 24.9937 65.0796 24.6804 64.8208 24.1083C64.453 23.2911 63.949 22.7735 63.1318 22.3921C62.4644 22.0788 62.369 22.0652 58.7051 22.0788C56.4985 22.0925 54.7823 22.1469 54.5099 22.2423ZM62.3146 24.8575L62.6551 25.1844V28.4806C62.6551 31.6814 62.6415 31.7904 62.3554 32.1037C62.0694 32.4169 62.0422 32.4169 58.7187 32.4169C55.4906 32.4169 55.3816 32.4033 55.0684 32.1173C54.7551 31.8312 54.7551 31.804 54.7551 28.4806C54.7551 25.2525 54.7687 25.1435 55.0548 24.8302C55.3408 24.5169 55.368 24.5169 58.6642 24.5169H61.9877L62.3146 24.8575Z" fill="#106194"/>
<path d="M24.2448 37.3613C23.5774 37.5792 22.4332 38.7506 22.2289 39.4452C22.12 39.8266 22.0655 41.1887 22.0655 43.6676C22.0655 47.2226 22.0791 47.3452 22.3924 48.0263C22.7601 48.8299 23.6182 49.6063 24.3674 49.8242C25.0212 50.0285 31.8588 50.0421 32.567 49.8514C33.2344 49.6607 34.2287 48.7618 34.5829 48.0399C34.8553 47.4814 34.8689 47.2226 34.8689 43.5859C34.8689 39.9628 34.8553 39.6904 34.5829 39.1456C34.2696 38.4782 33.4115 37.6473 32.7441 37.3749C32.172 37.1297 25.0076 37.1297 24.2448 37.3613ZM32.1039 39.9356C32.4172 40.2216 32.4172 40.2489 32.4172 43.5723C32.4172 46.8004 32.4036 46.9094 32.1175 47.2226C31.8315 47.5359 31.8043 47.5359 28.4536 47.5359H25.0757L24.8032 47.1818C24.5308 46.8413 24.5172 46.6506 24.5172 43.5859C24.5172 40.5213 24.5308 40.3306 24.8032 39.9901L25.0757 39.6359H28.44C31.6953 39.6359 31.7906 39.6495 32.1039 39.9356Z" fill="#106194"/>
<path d="M39.391 37.3615C38.7508 37.5658 37.811 38.4375 37.4705 39.1594C37.198 39.7315 37.1844 39.9903 37.1844 43.4635C37.1844 45.9697 37.2389 47.3454 37.3479 47.7268C37.5658 48.4759 38.6963 49.6065 39.4454 49.8244C40.2218 50.0559 46.9504 50.0559 47.7268 49.8244C48.476 49.6065 49.6065 48.4759 49.8244 47.7268C50.0559 46.9504 50.0559 40.2218 49.8244 39.4454C49.6065 38.6963 48.476 37.5658 47.7268 37.3478C47.0185 37.1435 40.0448 37.1435 39.391 37.3615ZM47.2229 39.9358C47.5361 40.2218 47.5361 40.2491 47.5361 43.5725C47.5361 46.8006 47.5225 46.9096 47.2365 47.2228C46.9504 47.5361 46.9232 47.5361 43.5998 47.5361C40.3717 47.5361 40.2627 47.5225 39.9494 47.2365C39.6361 46.9504 39.6361 46.9232 39.6361 43.5997C39.6361 40.3716 39.6498 40.2627 39.9358 39.9494C40.2218 39.6361 40.2491 39.6361 43.5725 39.6361C46.8006 39.6361 46.9096 39.6497 47.2229 39.9358Z" fill="#106194"/>
<path d="M54.2511 37.4702C53.5837 37.7971 52.7665 38.6552 52.4941 39.309C52.3442 39.6632 52.3034 40.6166 52.3034 43.6132C52.3034 47.2226 52.317 47.4814 52.5894 48.0399C52.9435 48.7618 53.9379 49.6607 54.6053 49.8514C55.3135 50.0421 62.1511 50.0285 62.8049 49.8242C63.554 49.6063 64.4122 48.8299 64.7799 48.0263C65.0932 47.3452 65.1068 47.2363 65.1068 43.5859C65.1068 39.9356 65.0932 39.8266 64.7799 39.1456C64.4122 38.342 63.554 37.5656 62.8049 37.3477C62.4644 37.2387 60.9934 37.1842 58.5553 37.1842C55.0411 37.1842 54.7823 37.1978 54.2511 37.4702ZM62.369 39.9901C62.6415 40.3306 62.6551 40.5213 62.6551 43.5859C62.6551 46.6506 62.6415 46.8413 62.369 47.1818L62.0966 47.5359H58.7323C55.477 47.5359 55.3816 47.5223 55.0684 47.2363C54.7551 46.9502 54.7551 46.923 54.7551 43.5995C54.7551 40.3714 54.7687 40.2625 55.0548 39.9492C55.3408 39.6359 55.368 39.6359 58.7187 39.6359H62.0966L62.369 39.9901Z" fill="#106194"/>
<path d="M23.9996 52.5895C23.2777 52.9573 22.4332 53.8971 22.2289 54.5918C22.12 54.9459 22.0655 56.3625 22.0655 58.7869C22.0655 62.1785 22.0927 62.4918 22.3515 63.0638C22.7193 63.8811 23.2232 64.3987 24.0405 64.78C24.7079 65.0933 24.8169 65.1069 28.3855 65.1069C30.7963 65.1069 32.2265 65.0525 32.5806 64.9435C33.2753 64.7392 34.2287 63.8947 34.5829 63.1592C34.8553 62.6007 34.8689 62.3419 34.8689 58.6916C34.8689 54.333 34.8417 54.1968 33.8337 53.2297C32.8939 52.3307 32.7441 52.3035 28.44 52.3035C24.7896 52.3035 24.5581 52.3171 23.9996 52.5895ZM32.1039 55.0549C32.4172 55.3409 32.4172 55.3682 32.4172 58.6916C32.4172 61.9197 32.4036 62.0287 32.1175 62.3419C31.8315 62.6552 31.8043 62.6552 28.5081 62.6552H25.1846L24.8577 62.3147L24.5172 61.9878V58.6916C24.5172 55.4907 24.5308 55.3818 24.8169 55.0685C25.1029 54.7552 25.1301 54.7552 28.4536 54.7552C31.6817 54.7552 31.7906 54.7688 32.1039 55.0549Z" fill="#106194"/>
<path d="M39.1322 52.5895C38.4648 52.9164 37.6475 53.7745 37.3751 54.4283C37.1299 55.0276 37.1027 62.0014 37.3479 62.805C37.5658 63.5542 38.3422 64.4123 39.1458 64.78C39.7179 65.0525 40.0584 65.1069 41.1072 65.1069C42.2649 65.1069 42.4011 65.0797 42.7008 64.7664C43.1775 64.3033 43.1639 63.4997 42.7008 63.0638C42.4284 62.805 42.156 62.7233 41.2842 62.6688C39.5544 62.5326 39.6361 62.7233 39.6361 58.7052C39.6361 55.3682 39.6361 55.3409 39.9494 55.0549L40.2627 54.7552H51.1592H62.0694L62.3554 55.0685C62.6414 55.3818 62.6551 55.4907 62.6551 58.6644C62.6551 61.6881 62.6414 61.9742 62.3963 62.2602L62.1375 62.5871L54.6189 62.6552L47.1003 62.7233L46.7734 63.1047C46.3375 63.6223 46.3375 64.3306 46.787 64.7664L47.1139 65.1069H54.7823H62.4508L63.1318 64.78C63.949 64.3987 64.453 63.8811 64.8207 63.0638C65.0795 62.4918 65.1068 62.1785 65.1068 58.7869C65.1068 56.3625 65.0523 54.9459 64.9433 54.5918C64.739 53.8971 63.8945 52.9437 63.159 52.5895C62.5733 52.3035 62.4508 52.3035 51.132 52.3035C39.8268 52.3035 39.7042 52.3035 39.1322 52.5895Z" fill="#106194"/>
</svg>
