<svg width="483" height="681" viewBox="0 0 483 681" fill="none" xmlns="http://www.w3.org/2000/svg">
<path d="M350.234 156.543C351.627 155.255 353.262 154.256 355.044 153.604C356.825 152.952 358.718 152.659 360.614 152.744C363.023 152.665 365.409 153.242 367.516 154.413C369.624 155.584 371.374 157.305 372.58 159.392C376.647 166.443 376.475 179.438 373.747 187.477C371.812 193.171 368.651 201.882 361.012 208.129C359.332 209.527 357.38 210.561 355.28 211.167C353.18 211.773 350.978 211.938 348.811 211.65L347.641 211.462C346.492 215.347 345.089 219.154 343.442 222.856C340.155 231.783 321.085 264.433 297.546 274.188C297.546 276.058 297.546 277.438 297.546 277.438C297.546 278.8 297.546 283.143 297.546 287.202C286.37 296.023 264.246 313.434 262.099 314.944H255.558C253.45 313.449 232.123 296.676 220.76 287.711C220.76 284.226 220.76 279.181 220.76 274.62C209.327 270.072 199.257 261.929 189.725 250.519C180.225 239.04 173.174 225.739 169.007 211.433C166.699 211.923 164.31 211.88 162.021 211.307C159.731 210.735 157.603 209.648 155.797 208.129C148.164 201.882 144.997 193.171 143.064 187.477C140.335 179.438 140.164 166.443 144.229 159.392C145.435 157.305 147.185 155.584 149.293 154.413C151.4 153.242 153.786 152.665 156.195 152.744C158.091 152.66 159.984 152.952 161.765 153.604C163.547 154.256 165.182 155.255 166.575 156.543C166.575 156.543 149.968 63.8156 258.407 63.8156C366.847 63.8156 350.234 156.543 350.234 156.543Z" fill="white"/>
<path d="M244.618 472.407C240.002 459.763 236.403 448.596 230.437 430.275C216.827 388.482 204.181 342.521 194.501 299.533C190.161 302.317 184.688 306.153 179.153 310.518L174.909 312.187L160.706 317.763C126.282 332.215 93.8879 347.217 78.0469 371.337L23.0977 434.408C24.3319 458.98 25.6982 477.583 27.4533 499.211C28.5648 512.885 29.7406 526.575 31.5787 540.163C32.6967 550.93 34.9538 561.549 38.3122 571.841C43.785 588.569 56.0045 604.85 73.7215 609.773C91.4025 614.68 115.911 612.21 128.639 595.297C128.716 602.632 128.774 608.705 128.81 613.068H308.899C311.673 620.638 314.521 628.323 317.223 635.447C320.003 642.722 322.43 649.346 324.197 654.447C324.464 655.193 325.001 655.812 325.702 656.182C326.403 656.551 327.217 656.645 327.984 656.444C352.32 649.68 376.229 641.464 399.582 631.84C415.01 625.503 435.114 615.693 448.941 604.684C460.642 595.363 470.567 580.697 473.594 571.103C477.461 558.851 478.791 548.9 477.917 529.207C474.309 499.879 470.597 475.772 466.045 454.72C459.347 423.738 450.902 388.508 439.604 371.329C423.751 347.209 391.363 332.208 356.945 317.756L342.742 312.179L338.498 310.511C332.961 306.146 327.493 302.309 323.149 299.525C318.733 319.137 313.698 339.368 308.24 359.538C301.731 383.579 294.615 407.539 287.215 430.264C277.132 461.231 273.816 471.739 260.912 503.57H256.76C251.472 490.582 247.803 481.141 244.618 472.407Z" fill="#0E2C43"/>
<path d="M141.83 96.4356C141.556 98.7135 141.349 100.776 141.213 102.46C139.537 122.949 144.212 139.28 150.526 153.872C152.333 153.167 154.249 152.783 156.188 152.74C158.083 152.656 159.976 152.948 161.758 153.601C163.539 154.253 165.174 155.251 166.567 156.539L171.078 160.879L171.253 158.975C171.79 151.895 172.822 144.861 174.342 137.925C175.964 130.246 178.011 122.29 184.96 115.915L200.012 105.347C204.007 105.119 208.693 104.513 211.862 104.618C240.547 105.562 269.74 100.133 291.944 89.7097L309.607 99.9967C320.855 109.702 330.192 121.423 337.137 134.557C339.402 138.807 344.576 153.24 348.288 158.968C349.617 156.941 351.454 155.298 353.617 154.205C355.78 153.112 358.192 152.607 360.612 152.74C362.636 152.78 364.634 153.194 366.507 153.963C373.72 116.204 375.234 93.3671 360.638 63.9439C357.634 58.2605 354.016 52.9237 349.849 48.0293C342.391 39.7825 333.106 33.3974 322.736 29.3857L302.854 20.7349C282.95 1.32138 246.969 1.32138 222.194 10.4893C198.959 19.0836 186.404 31.2144 171.334 42.5489C165.997 46.8384 159.816 49.9569 153.195 51.7017L147.533 71.838C144.785 76.6862 142.845 87.9923 141.83 96.4356Z" fill="#85807F"/>
<path d="M241.428 233.974C246.968 236.838 253.139 238.265 259.374 238.126C265.822 238.402 272.18 236.532 277.451 232.807C278.295 231.955 278.768 230.804 278.768 229.605C278.768 228.406 278.295 227.255 277.451 226.402C276.587 225.58 275.441 225.122 274.248 225.122C273.056 225.122 271.909 225.58 271.046 226.402C272.41 225.338 271.318 226.176 270.967 226.402C270.616 226.629 270.232 226.848 269.853 227.048C269.549 227.206 268.192 227.752 269.408 227.299C268.896 227.487 268.391 227.689 267.87 227.865C266.466 228.31 265.027 228.639 263.569 228.846C264.22 228.752 263.357 228.863 263.12 228.888C262.697 228.929 262.274 228.965 261.851 228.992C260.834 229.058 259.813 229.084 258.794 229.078C257.881 229.078 256.968 229.045 256.056 228.978C255.637 228.949 255.219 228.915 254.803 228.875C254.782 228.875 253.293 228.669 254.156 228.805C252.798 228.597 251.456 228.299 250.138 227.912C249.572 227.744 249.026 227.535 248.471 227.346C248.284 227.297 248.104 227.227 247.933 227.136C248.845 227.755 248.409 227.35 248.041 227.176C247.352 226.852 246.673 226.514 245.999 226.157C244.956 225.576 243.729 225.421 242.575 225.724C241.42 226.026 240.427 226.764 239.803 227.782C239.21 228.822 239.047 230.054 239.351 231.212C239.655 232.371 240.401 233.364 241.428 233.979V233.974Z" fill="#211715"/>
<path d="M257.139 191.608C257.97 194.604 258.635 197.644 259.13 200.714L258.968 199.51C259.028 199.926 259.04 200.348 259.004 200.767L259.164 199.563C259.137 199.756 259.091 199.945 259.026 200.129L259.483 199.047C259.428 199.174 259.361 199.296 259.283 199.41L259.991 198.495C259.903 198.603 259.804 198.701 259.694 198.787L260.612 198.079C260.379 198.221 260.138 198.348 259.889 198.457L260.972 198C260.583 198.167 260.175 198.286 259.757 198.355L260.961 198.193C260.585 198.237 260.204 198.237 259.828 198.193L261.032 198.355C260.602 198.294 260.179 198.191 259.749 198.132C258.569 197.858 257.329 198.02 256.26 198.589C255.746 198.889 255.296 199.287 254.937 199.761C254.577 200.235 254.314 200.775 254.163 201.351C254.012 201.927 253.976 202.526 254.057 203.116C254.138 203.705 254.334 204.273 254.635 204.786C254.922 205.298 255.309 205.746 255.775 206.102C256.24 206.459 256.773 206.718 257.341 206.862C258.307 206.993 259.247 207.24 260.23 207.283C261.704 207.292 263.158 206.947 264.471 206.277C265.3 205.903 266.034 205.347 266.62 204.651C267.205 203.956 267.628 203.138 267.856 202.258C268.155 200.825 268.14 199.344 267.813 197.917C267.317 194.984 266.639 192.076 265.884 189.198C265.565 188.04 264.799 187.056 263.754 186.462C262.709 185.869 261.471 185.715 260.312 186.034C259.154 186.354 258.17 187.12 257.576 188.165C256.983 189.21 256.829 190.448 257.149 191.606L257.139 191.608Z" fill="#211715"/>
<path d="M208.665 165.858C207.155 170.8 208.136 182.167 217.499 183.135C229.873 183.061 230.53 169.317 226.368 162.855C222.955 157.564 212.926 155.363 208.665 165.858Z" fill="#211715"/>
<path d="M308.137 165.858C309.658 170.8 308.667 182.169 299.305 183.135C286.93 183.061 286.272 169.317 290.435 162.853C293.847 157.563 303.875 155.363 308.137 165.858Z" fill="#211715"/>
<path d="M169.772 153.34C166.79 150.677 163.082 148.963 159.121 148.416C155.161 147.87 151.127 148.516 147.535 150.271C145.002 151.659 142.808 153.59 141.111 155.927C139.414 158.265 138.256 160.949 137.722 163.787C136.282 170.525 136.216 177.484 137.526 184.249C138.837 191.013 141.498 197.443 145.35 203.156C150.872 211.39 158.875 217.427 169.198 216.017C170.352 215.692 171.332 214.925 171.925 213.882C172.517 212.839 172.675 211.604 172.363 210.446C172.017 209.305 171.245 208.34 170.208 207.751C169.171 207.162 167.948 206.994 166.79 207.281C159.56 208.27 153.974 200.525 151.04 195.015C148.087 189.644 146.28 183.719 145.733 177.615C145.431 174.229 145.581 170.818 146.178 167.471C146.621 165.071 147.492 162.77 148.748 160.677C148.458 161.066 149.373 159.99 149.483 159.873C149.745 159.541 150.064 159.257 150.426 159.037C151.606 158.229 152.948 157.687 154.359 157.45C155.935 157.113 157.568 157.144 159.13 157.541C160.692 157.938 162.141 158.69 163.365 159.739C167.679 163.642 174.103 157.254 169.77 153.334L169.772 153.34Z" fill="#211715"/>
<path d="M353.437 159.745C355.548 157.965 358.272 157.081 361.027 157.285C363.781 157.488 366.346 158.761 368.174 160.832C367.557 160.051 368.411 161.247 368.51 161.407C368.865 161.98 369.176 162.579 369.442 163.198C369.972 164.581 370.369 166.011 370.627 167.469C371.223 170.816 371.373 174.227 371.072 177.613C370.534 183.605 368.78 189.424 365.918 194.716C362.991 200.318 357.358 208.285 350.013 207.281C348.856 207.003 347.637 207.175 346.602 207.763C345.568 208.35 344.796 209.31 344.442 210.446C344.131 211.604 344.288 212.838 344.88 213.881C345.472 214.923 346.451 215.691 347.605 216.017C364.282 218.295 373.969 201.863 378.293 188.126C380.386 181.07 380.831 173.628 379.595 166.373C379.282 163.473 378.393 160.665 376.98 158.114C375.567 155.563 373.659 153.32 371.367 151.517C367.681 149.079 363.29 147.935 358.883 148.265C354.476 148.595 350.304 150.38 347.022 153.34C342.682 157.258 349.111 163.649 353.427 159.745H353.437Z" fill="#211715"/>
<path d="M345.005 203.507C344.14 207.536 342.996 211.499 341.583 215.37C341.149 216.589 340.392 218.612 340.073 219.373C339.754 220.133 339.39 220.882 339.079 221.637C339.005 221.826 338.575 222.922 338.875 222.185C339.194 221.409 338.686 222.626 338.611 222.773C338.441 223.151 338.267 223.524 338.088 223.894C337.624 224.864 337.135 225.821 336.633 226.772C335.501 228.916 334.284 231.02 333.017 233.091C326.501 244.149 318.168 254.03 308.369 262.319C303.074 266.844 296.811 270.094 290.063 271.818C284.384 273.127 286.787 281.865 292.471 280.553C306.346 277.345 317.901 267.226 326.971 256.705C334.778 247.92 341.312 238.082 346.38 227.478C346.865 226.412 347.292 225.323 347.747 224.245C347.147 225.67 348.521 222.481 348.556 222.394C348.934 221.492 349.294 220.584 349.638 219.669C351.37 215.197 352.745 210.596 353.752 205.908C354.042 204.75 353.876 203.525 353.287 202.488C352.698 201.45 351.731 200.679 350.589 200.335C349.431 200.028 348.198 200.187 347.157 200.779C346.115 201.371 345.347 202.348 345.018 203.5L345.005 203.507Z" fill="#211715"/>
<path d="M162.801 205.589C165.86 219.217 171.377 232.174 179.079 243.825C187.368 256.26 198.255 267.887 211.424 275.198C218.154 278.948 225.506 281.452 233.127 282.59C234.284 282.87 235.504 282.699 236.539 282.112C237.574 281.524 238.347 280.564 238.699 279.427C239.01 278.269 238.852 277.035 238.26 275.992C237.668 274.949 236.689 274.182 235.535 273.856C208.269 269.83 187.877 246.193 177.538 221.958C174.977 215.892 172.97 209.608 171.54 203.181C170.253 197.496 161.517 199.903 162.806 205.589H162.801Z" fill="#211715"/>
<path d="M321.532 33.7508C336.312 39.7426 348.512 50.7429 355.998 64.8252C363.315 78.4775 367.194 93.7076 367.3 109.197C367.256 118.694 366.431 128.171 364.833 137.533C364.552 138.691 364.723 139.912 365.313 140.948C365.902 141.983 366.865 142.755 368.004 143.104C369.162 143.414 370.395 143.255 371.437 142.664C372.48 142.072 373.247 141.094 373.575 139.941C376.336 122.39 377.812 104.603 373.879 87.0997C370.133 70.4434 362.231 53.6021 349.953 41.5204C342.444 34.3716 333.609 28.7612 323.946 25.0056C322.788 24.6938 321.554 24.851 320.511 25.4431C319.468 26.0352 318.7 27.0144 318.375 28.1685C318.085 29.3259 318.252 30.5505 318.84 31.5881C319.429 32.6258 320.395 33.3969 321.538 33.7414L321.532 33.7508Z" fill="#211715"/>
<path d="M306.057 17.5285C290.063 2.14412 266.128 -1.76991 244.77 0.670228C233.18 2.02311 221.879 5.21541 211.294 10.1269C200.776 15.1696 190.875 21.409 181.787 28.7214C177.149 32.307 172.61 36.038 167.877 39.5048C163.07 43.0093 157.693 45.6575 151.985 47.3328C146.429 49.0313 148.799 57.7841 154.393 56.0686C159.608 54.6067 164.593 52.4242 169.204 49.5842C173.642 46.7025 177.762 43.3056 181.918 40.037C190.152 33.243 198.936 27.1441 208.18 21.803C226.782 11.6216 248.683 6.55259 269.815 10.1024C280.81 11.9537 291.518 16.1018 299.644 23.9242C303.849 27.9665 310.262 21.5689 306.061 17.519L306.057 17.5285Z" fill="#211715"/>
<path d="M143.627 69.5508C140.696 74.9123 139.588 81.3098 138.597 87.2639C137.461 93.7427 136.732 100.287 136.416 106.857C135.993 122.559 138.965 138.167 145.127 152.615C145.479 153.753 146.251 154.713 147.287 155.301C148.322 155.888 149.543 156.059 150.7 155.778C151.854 155.453 152.833 154.685 153.425 153.642C154.017 152.599 154.175 151.365 153.863 150.207C148.08 136.802 145.214 122.32 145.455 107.723C145.678 101.671 146.308 95.6409 147.343 89.6738C148.199 84.5218 149.256 78.1507 151.459 74.1234C154.255 69.0054 146.437 64.4289 143.636 69.5508H143.627Z" fill="#211715"/>
<path d="M289.661 85.7861C275.922 91.9601 261.368 96.1317 246.444 98.1736C238.59 99.3261 230.671 99.9822 222.734 100.138C218.793 100.225 214.864 100.051 210.926 100.07C207.281 100.089 203.643 100.583 200.008 100.81C194.218 101.169 194.177 110.231 200.008 109.868C203.749 109.636 207.495 109.114 211.248 109.127C215.225 109.144 219.19 109.283 223.168 109.187C231.768 108.959 240.346 108.198 248.852 106.909C264.539 104.675 279.822 100.194 294.232 93.6047C295.262 92.9915 296.009 91.9981 296.313 90.8387C296.617 89.6792 296.453 88.4467 295.857 87.4072C295.232 86.3906 294.239 85.6543 293.085 85.3516C291.931 85.049 290.704 85.2032 289.661 85.7823V85.7861Z" fill="#211715"/>
<path d="M181.759 112.711C175.256 118.831 172.114 126.916 170.247 135.472C168.591 143.226 167.416 151.074 166.728 158.973C166.736 160.172 167.216 161.319 168.064 162.167C168.911 163.014 170.058 163.494 171.257 163.502C172.45 163.477 173.588 162.992 174.432 162.148C175.276 161.304 175.761 160.167 175.786 158.973C176.39 152.095 177.412 145.259 178.847 138.505C180.414 131.198 182.584 124.37 188.166 119.116C192.422 115.113 186.005 108.715 181.759 112.711Z" fill="#211715"/>
<path d="M306.406 103.186C315.391 110.986 323.153 120.093 329.43 130.201C334.689 138.782 337.764 148.248 342.165 157.256C342.778 158.285 343.771 159.031 344.93 159.335C346.089 159.639 347.321 159.476 348.36 158.881C349.379 158.258 350.117 157.264 350.42 156.109C350.723 154.954 350.567 153.726 349.985 152.683C345.471 143.436 342.302 133.76 336.85 124.977C330.258 114.452 322.156 104.951 312.804 96.7791C308.442 92.9406 302.013 99.3249 306.399 103.196L306.406 103.186Z" fill="#211715"/>
<path d="M260.9 503.581C273.801 471.75 277.121 461.242 287.204 430.275C299.699 391.903 311.383 350.017 320.703 310.148C321.055 308.158 320.96 306.115 320.428 304.166C319.895 302.217 318.938 300.409 317.623 298.874C313.43 294.017 308.146 286.985 303.86 282.195C302.039 283.669 264.907 312.947 262.091 314.944H255.55C252.734 312.947 215.602 283.669 213.781 282.195C209.495 286.991 204.211 294.017 200.018 298.874C198.703 300.409 197.745 302.216 197.213 304.166C196.68 306.115 196.586 308.158 196.938 310.148C206.259 350.017 217.942 391.903 230.437 430.275C240.521 461.242 243.836 471.75 256.741 503.581H260.9Z" fill="white"/>
<path d="M272.114 474.888C269.136 482.945 265.675 491.803 260.9 503.574H256.748C244.872 474.269 241.117 463.037 232.726 437.279C236.795 402.4 242.176 360.923 242.176 359.7C242.091 357.497 241.756 355.311 241.177 353.184C240.926 352.21 240.701 351.237 240.504 350.264C239.43 345.42 239.232 342.94 237.984 337.809L237.907 337.558C243.897 329.481 251.142 319.901 255.558 314.936H262.099C266.477 319.86 273.635 329.316 279.597 337.35C279.259 338.294 279.031 338.918 279.031 338.918C277.74 342.149 276.716 345.48 275.968 348.877C274.617 352.589 273.802 356.474 273.548 360.415C273.514 362.467 279.176 401.798 284.424 438.798C279.683 453.373 276.396 463.305 272.114 474.888Z" fill="#3D8DCC"/>
<path d="M228.794 502.668C205.626 462.508 182.725 422.164 161.357 381.012C159.923 378.247 158.309 375.498 157.048 372.652C156.514 371.45 156.512 371.68 157.426 370.647C158.524 369.41 159.69 368.23 160.847 367.043C165.565 362.17 170.495 357.496 175.445 352.853C175.927 352.36 176.291 351.763 176.51 351.109C176.729 350.455 176.796 349.759 176.708 349.075C176.62 348.39 176.378 347.735 176 347.157C175.623 346.58 175.119 346.096 174.527 345.74L165.346 340.5L160.966 337.995C160.168 337.541 159.368 337.09 158.571 336.629L157.773 336.174C157.1 335.755 157.151 335.8 157.926 336.308L158.543 338.594C158.292 339.124 158.256 339.201 158.439 338.83C158.551 338.603 158.664 338.38 158.783 338.161C158.985 337.784 159.198 337.407 159.415 337.029C159.923 336.165 160.47 335.331 161.042 334.5C162.161 332.922 163.37 331.41 164.663 329.971C167.918 326.344 171.401 322.928 175.09 319.744C181.911 313.781 189.165 308.332 196.793 303.441L190.14 300.733C196.827 330.381 204.443 359.798 212.986 388.985C220.535 414.868 228.65 440.643 237.567 466.09C242.134 479.127 247.192 491.98 252.378 504.777C252.729 505.916 253.501 506.877 254.536 507.465C255.572 508.053 256.793 508.224 257.951 507.942C259.105 507.616 260.083 506.848 260.675 505.805C261.267 504.762 261.425 503.528 261.114 502.369C252.146 480.225 244.18 457.832 236.784 435.125C227.414 406.349 218.757 377.377 211.052 348.099C206.704 331.581 202.645 314.989 198.874 298.321C198.684 297.656 198.345 297.043 197.883 296.528C197.42 296.013 196.847 295.61 196.206 295.349C195.566 295.089 194.874 294.977 194.183 295.023C193.493 295.069 192.822 295.271 192.222 295.615C180.666 302.849 170.007 311.425 160.466 321.164C158.11 323.628 155.915 326.242 153.895 328.988C151.979 331.274 150.53 333.914 149.628 336.757C148.45 341.998 153.514 344.161 157.197 346.265L169.97 353.555L169.053 346.441C164.435 350.781 159.839 355.133 155.406 359.651C151.066 364.09 145.593 368.766 148.473 375.571C150.753 380.963 153.825 386.128 156.543 391.314C159.382 396.738 162.249 402.148 165.142 407.544C176.654 429.039 188.521 450.343 200.554 471.554C207.314 483.469 214.121 495.359 220.977 507.221C223.889 512.27 231.721 507.714 228.799 502.651L228.794 502.668Z" fill="#211715"/>
<path d="M393.756 530.092C394.076 500.187 394.453 470.28 394.889 440.374C394.987 434.259 395.097 428.145 395.219 422.032C395.34 416.201 386.281 416.201 386.16 422.032C385.594 448.968 385.317 475.909 385.007 502.849C384.903 511.93 384.803 521.011 384.707 530.092C384.645 535.922 393.704 535.928 393.766 530.092H393.756Z" fill="#211715"/>
<path d="M243.595 360.466C253.272 360.466 262.95 360.262 272.627 360.259C273.828 360.259 274.98 359.782 275.83 358.932C276.679 358.083 277.156 356.931 277.156 355.729C277.156 354.528 276.679 353.376 275.83 352.527C274.98 351.677 273.828 351.2 272.627 351.2C262.95 351.2 253.272 351.404 243.595 351.408C242.393 351.408 241.241 351.885 240.392 352.734C239.543 353.584 239.065 354.736 239.065 355.937C239.065 357.138 239.543 358.29 240.392 359.14C241.241 359.989 242.393 360.466 243.595 360.466Z" fill="#211715"/>
<path d="M233.61 339.02C234.527 342.868 235.133 346.773 235.946 350.644C236.886 353.645 237.45 356.751 237.627 359.891C237.507 362.622 236.99 365.382 236.654 368.091C234.98 381.643 233.272 395.191 231.613 408.744C230.443 418.297 229.297 427.852 228.176 437.407C228.183 438.606 228.662 439.755 229.51 440.603C230.358 441.451 231.506 441.93 232.706 441.936C233.898 441.909 235.034 441.423 235.878 440.579C236.722 439.736 237.208 438.6 237.235 437.407C239.16 420.914 241.162 404.433 243.24 387.963C244.387 378.734 246.071 369.406 246.665 360.121C246.613 356.747 246.086 353.398 245.099 350.172C244.089 345.671 243.414 341.113 242.344 336.622C240.99 330.96 232.255 333.353 233.61 339.03V339.02Z" fill="#211715"/>
<path d="M288.536 435.782C286.272 419.789 284.001 403.794 281.725 387.798C280.881 381.802 280.048 375.805 279.225 369.806C279.183 369.498 279.025 368.317 279.051 368.511C279.085 368.766 278.927 367.587 278.898 367.379C278.784 366.507 278.67 365.634 278.557 364.76C278.406 363.576 278.223 362.386 278.134 361.197C278.073 358.668 278.447 356.148 279.242 353.746C280.157 349.483 281.395 345.295 282.943 341.219C283.514 340.174 283.665 338.949 283.362 337.797C283.06 336.645 282.329 335.652 281.318 335.021C280.278 334.425 279.046 334.261 277.887 334.565C276.728 334.869 275.735 335.616 275.122 336.646C273.603 340.507 272.342 344.465 271.348 348.494C269.943 352.344 269.157 356.391 269.017 360.487C269.187 363.01 269.489 365.522 269.921 368.013C271.714 381.482 273.648 394.934 275.56 408.388C276.972 418.327 278.384 428.266 279.797 438.205C280.123 439.36 280.891 440.339 281.934 440.931C282.977 441.524 284.211 441.681 285.37 441.37C286.511 441.024 287.475 440.253 288.064 439.215C288.653 438.178 288.821 436.954 288.533 435.797L288.536 435.782Z" fill="#211715"/>
<path d="M296.668 507.239C320.905 465.228 344.867 423.016 367.049 379.874C368.721 376.621 370.706 373.373 369.816 369.567C369.061 366.311 366.354 363.933 364.131 361.616C359.121 356.388 353.871 351.401 348.59 346.449L347.675 353.563L360.455 346.273C364.137 344.169 369.202 342.006 368.025 336.765C367.12 333.923 365.671 331.284 363.758 328.996C361.737 326.25 359.542 323.636 357.186 321.172C347.646 311.433 336.986 302.857 325.431 295.623C324.83 295.279 324.159 295.077 323.469 295.031C322.779 294.985 322.087 295.097 321.446 295.357C320.805 295.618 320.232 296.021 319.77 296.536C319.308 297.051 318.969 297.664 318.778 298.329C312.091 327.977 304.476 357.394 295.932 386.582C288.383 412.464 280.268 438.24 271.35 463.686C266.784 476.723 261.725 489.577 256.539 502.374C256.228 503.532 256.385 504.766 256.977 505.809C257.569 506.852 258.548 507.62 259.702 507.947C260.86 508.236 262.084 508.069 263.122 507.48C264.16 506.891 264.931 505.924 265.275 504.782C274.243 482.637 282.208 460.244 289.604 437.537C298.972 408.762 307.629 379.78 315.334 350.512C319.685 333.993 323.744 317.4 327.512 300.733L320.86 303.441C328.486 308.333 335.74 313.783 342.563 319.745C346.171 322.86 349.582 326.195 352.778 329.732C354.149 331.243 355.429 332.835 356.611 334.499C357.134 335.254 357.636 336.009 358.104 336.801C358.37 337.247 358.626 337.698 358.87 338.156L359.102 338.602C359.395 339.198 359.395 339.194 359.102 338.588L359.719 336.303C360.42 335.846 360.546 335.755 360.096 336.028C359.758 336.235 359.415 336.434 359.066 336.624C358.27 337.083 357.47 337.535 356.671 337.99L352.28 340.496L343.1 345.737C342.509 346.092 342.005 346.577 341.628 347.154C341.25 347.732 341.008 348.387 340.92 349.071C340.831 349.756 340.899 350.451 341.118 351.106C341.337 351.76 341.701 352.356 342.183 352.85C346.582 356.975 350.961 361.125 355.205 365.419C356.265 366.494 357.317 367.578 358.358 368.67C359.064 369.414 360.451 370.369 360.821 371.312C361.304 372.543 359.009 375.743 358.256 377.206C352.994 387.408 347.635 397.56 342.18 407.661C331.108 428.225 319.775 448.649 308.182 468.933C301.78 480.203 295.338 491.449 288.853 502.672C285.936 507.73 293.76 512.297 296.676 507.243L296.668 507.239Z" fill="#211715"/>
<path d="M300.658 285.398C303.139 288.198 305.485 291.114 307.829 294.032C310.003 296.736 312.424 299.338 314.468 302.137C315.311 303.299 315.913 304.619 316.238 306.017C316.366 306.517 316.441 307.03 316.461 307.546C316.47 307.846 316.197 309.473 316.544 308.578C316.095 309.528 315.566 310.437 314.963 311.297C309.977 319.595 304.393 327.518 298.255 335.004C296.294 337.369 294.26 339.677 292.08 341.843C291.137 342.776 290.176 343.683 289.17 344.544C288.444 345.215 287.65 345.809 286.802 346.318L292.999 347.943C283.909 335.806 275.349 323.115 265.294 311.741L264.376 318.854C269.661 315.079 274.677 310.895 279.782 306.893C286.996 301.231 294.2 295.561 301.396 289.884C303.283 288.391 305.189 286.911 307.057 285.398C307.9 284.545 308.372 283.394 308.372 282.195C308.372 280.996 307.9 279.846 307.057 278.993C306.194 278.169 305.047 277.709 303.855 277.709C302.662 277.709 301.515 278.169 300.652 278.993C288.951 288.429 277.062 297.634 265.209 306.872L263.035 308.57L262.091 309.306C261.5 309.765 262.831 308.74 261.963 309.405C261.248 309.954 260.54 310.514 259.808 311.037C259.222 311.398 258.725 311.885 258.352 312.463C257.98 313.04 257.741 313.694 257.653 314.376C257.565 315.058 257.63 315.75 257.844 316.404C258.059 317.057 258.416 317.654 258.89 318.152C268.436 328.95 276.549 341 285.179 352.521C285.801 353.541 286.795 354.28 287.95 354.582C289.106 354.885 290.334 354.729 291.376 354.146C301.126 347.771 308.361 337.246 314.925 327.85C317.657 323.936 320.305 319.954 322.787 315.876C323.488 314.804 324.109 313.682 324.646 312.518C325.318 310.569 325.595 308.506 325.462 306.448C325.33 304.39 324.789 302.38 323.872 300.533C322.113 296.475 318.76 293.252 316.014 289.842C313.073 286.194 310.175 282.507 307.065 278.998C303.186 274.622 296.8 281.048 300.658 285.398Z" fill="#211715"/>
<path d="M210.578 278.993C207.825 282.097 205.24 285.343 202.652 288.578C200.199 291.635 197.344 294.562 195.183 297.834C193.445 300.282 192.433 303.169 192.261 306.166C192.088 309.162 192.764 312.147 194.209 314.778C199.664 323.963 205.818 332.715 212.615 340.957C216.478 346.014 221.084 350.459 226.276 354.14C227.32 354.718 228.546 354.872 229.7 354.569C230.854 354.267 231.847 353.531 232.474 352.516C241.104 340.994 249.217 328.945 258.762 318.146C259.236 317.648 259.593 317.051 259.807 316.398C260.021 315.745 260.087 315.052 259.999 314.37C259.911 313.689 259.672 313.035 259.299 312.457C258.927 311.88 258.43 311.393 257.845 311.031C257.267 310.62 256.713 310.182 256.146 309.75C255.928 309.584 255.71 309.417 255.493 309.248C254.927 308.818 256.265 309.848 255.446 309.212C254.82 308.725 254.193 308.24 253.559 307.752C250.265 305.19 246.979 302.621 243.7 300.044C236.63 294.496 229.567 288.938 222.513 283.369C220.669 281.912 218.814 280.468 216.985 278.993C216.119 278.176 214.974 277.72 213.783 277.72C212.592 277.72 211.445 278.176 210.578 278.993C209.737 279.846 209.267 280.997 209.267 282.195C209.267 283.394 209.739 284.544 210.58 285.398C222.417 294.949 234.457 304.27 246.456 313.615C248.72 315.372 250.938 317.189 253.267 318.854L252.349 311.741C242.294 323.115 233.734 335.806 224.644 347.943L230.841 346.318C230.439 346.056 230.047 345.784 229.656 345.507C229.265 345.229 229.637 345.507 229.709 345.561C229.469 345.373 229.235 345.184 229.005 344.995C228.073 344.221 227.172 343.406 226.299 342.566C224.396 340.736 222.609 338.792 220.888 336.784C217.367 332.694 214.13 328.377 211.028 323.966C208.372 320.192 205.809 316.353 203.377 312.436C202.692 311.332 202.014 310.222 201.375 309.09C201.282 308.944 201.2 308.792 201.127 308.635C201.331 309.137 201.186 308.725 201.186 308.22C201.165 306.935 201.396 305.659 201.867 304.464C203.25 301.037 206.512 298.144 208.795 295.3C211.479 291.961 214.143 288.606 216.985 285.4C220.839 281.05 214.455 274.62 210.578 278.993Z" fill="#211715"/>
<path d="M216.221 277.874V285.104C216.234 286.303 216.707 287.451 217.542 288.312C218.392 289.161 219.544 289.638 220.745 289.638C221.946 289.638 223.098 289.161 223.947 288.312C224.779 287.449 225.251 286.302 225.268 285.104V277.874C225.256 276.675 224.783 275.526 223.947 274.666C223.098 273.816 221.946 273.339 220.745 273.339C219.544 273.339 218.392 273.816 217.542 274.666C216.71 275.528 216.238 276.675 216.221 277.874Z" fill="#211715"/>
<path d="M293.007 277.434V284.902C293.019 286.101 293.492 287.25 294.328 288.11C295.177 288.959 296.329 289.436 297.531 289.436C298.732 289.436 299.884 288.959 300.733 288.11C301.566 287.248 302.038 286.1 302.054 284.902V284.487C302.042 283.287 301.569 282.138 300.733 281.278C299.884 280.429 298.732 279.952 297.531 279.952C296.329 279.952 295.177 280.429 294.328 281.278C293.495 282.14 293.022 283.288 293.007 284.487V284.902C293.019 286.101 293.492 287.25 294.328 288.11C295.177 288.959 296.329 289.436 297.531 289.436C298.732 289.436 299.884 288.959 300.733 288.11C301.566 287.248 302.038 286.1 302.054 284.902V277.434C302.041 276.235 301.568 275.087 300.733 274.226C299.884 273.377 298.732 272.899 297.531 272.899C296.329 272.899 295.177 273.377 294.328 274.226C293.496 275.089 293.024 276.236 293.007 277.434Z" fill="#211715"/>
<path d="M482.088 522.587C480.443 502.556 477.416 482.662 473.03 463.048C468.725 443.044 464.401 422.989 458.249 403.452C452.982 386.721 446.535 370.259 434.186 357.431C421.019 343.757 403.928 334.249 386.963 326.129C372.884 319.391 358.453 313.52 343.935 307.823C342.776 307.512 341.543 307.67 340.5 308.263C339.457 308.855 338.69 309.834 338.364 310.988C338.072 312.145 338.239 313.37 338.828 314.408C339.417 315.445 340.384 316.216 341.527 316.559C352.821 320.996 364.037 325.525 375.09 330.552C391.907 338.205 409.06 346.741 422.921 359.162C428.922 364.39 434.022 370.57 438.019 377.453C441.964 384.769 445.216 392.439 447.732 400.361C454.216 419.546 458.634 439.362 462.933 459.126C467.782 480.019 471.159 501.227 473.037 522.592C473.066 523.785 473.552 524.92 474.396 525.763C475.239 526.607 476.374 527.093 477.566 527.122C478.765 527.112 479.911 526.632 480.759 525.785C481.606 524.937 482.086 523.791 482.096 522.592L482.088 522.587Z" fill="#211715"/>
<path d="M336.074 366.681C334.744 366.654 333.422 366.895 332.187 367.39C330.952 367.885 329.829 368.623 328.885 369.561C327.941 370.499 327.196 371.617 326.693 372.849C326.191 374.081 325.941 375.402 325.959 376.732C325.891 378.084 326.104 379.436 326.587 380.701C327.069 381.967 327.81 383.117 328.761 384.081C329.713 385.044 330.854 385.799 332.113 386.297C333.372 386.795 334.721 387.026 336.074 386.974C337.432 387.041 338.788 386.822 340.054 386.329C341.321 385.837 342.469 385.083 343.424 384.116C344.378 383.149 345.118 381.992 345.595 380.719C346.072 379.447 346.274 378.088 346.19 376.732C346.209 375.401 345.96 374.08 345.458 372.848C344.956 371.616 344.21 370.497 343.266 369.559C342.322 368.621 341.199 367.883 339.963 367.388C338.728 366.894 337.405 366.653 336.074 366.681Z" fill="#3D8DCC"/>
<path d="M336.074 362.151C332.954 362.151 329.915 363.144 327.397 364.987C324.879 366.83 323.013 369.426 322.07 372.401C321.191 375.245 321.178 378.286 322.034 381.137C322.89 383.988 324.575 386.52 326.874 388.41C329.277 390.204 332.146 391.266 335.138 391.467C338.13 391.668 341.116 390.999 343.736 389.542C346.294 387.943 348.305 385.606 349.504 382.839C350.704 380.071 351.034 377.005 350.453 374.046C349.832 370.691 348.052 367.661 345.424 365.486C342.796 363.31 339.486 362.128 336.074 362.146C334.873 362.146 333.721 362.623 332.872 363.472C332.022 364.322 331.545 365.474 331.545 366.675C331.545 367.876 332.022 369.028 332.872 369.878C333.721 370.727 334.873 371.204 336.074 371.204C336.369 371.204 336.661 371.231 336.954 371.238C337.969 371.263 335.908 370.993 336.878 371.223C337.326 371.331 337.771 371.412 338.211 371.563C338.372 371.644 338.542 371.707 338.717 371.751L338.126 371.502C338.286 371.574 338.445 371.651 338.601 371.733C339.047 371.963 339.471 372.363 339.922 372.559C339.022 372.169 339.411 372.15 339.798 372.506C339.922 372.623 340.045 372.742 340.164 372.865C340.315 373.071 340.487 373.261 340.677 373.431C340.051 373.054 340.196 372.725 340.507 373.227C340.757 373.629 340.989 374.029 341.221 374.441C341.41 374.782 341.257 374.973 341.079 374.063C341.143 374.39 341.325 374.722 341.417 375.045C341.536 375.458 341.553 375.933 341.7 376.33C341.342 375.362 341.636 375.575 341.638 376.056C341.638 376.281 341.661 376.507 341.661 376.732C341.597 377.189 341.573 377.65 341.589 378.111L341.681 377.438C341.655 377.611 341.625 377.785 341.591 377.957C341.532 378.253 341.461 378.543 341.378 378.834C341.321 379.036 341.259 379.238 341.189 379.436L341.102 379.67C340.926 380.114 340.982 379.982 341.272 379.272C341.057 379.614 340.864 379.969 340.692 380.334C340.587 380.502 340.457 380.659 340.357 380.829C340.066 381.325 341.138 379.955 340.545 380.563C340.236 380.882 339.802 381.206 339.528 381.552C340.147 380.77 340.126 381.116 339.679 381.412C339.545 381.501 339.409 381.586 339.27 381.667C339.06 381.789 338.841 381.895 338.628 382.012C337.873 382.429 339.485 381.752 338.917 381.899C338.466 382.014 338.033 382.201 337.577 382.307C337.405 382.346 337.233 382.374 337.062 382.414C336.576 382.493 336.712 382.478 337.469 382.369C337.28 382.39 337.103 382.405 336.92 382.418C336.453 382.448 335.985 382.453 335.518 382.433C335.249 382.388 334.977 382.366 334.704 382.367C334.793 382.354 335.837 382.584 335.12 382.408C334.657 382.297 334.199 382.205 333.746 382.054C333.557 381.988 333.353 381.884 333.153 381.837C334.346 382.122 333.632 382.037 333.227 381.814C332.821 381.591 332.485 381.306 332.094 381.089C333.012 381.599 332.698 381.587 332.447 381.34C332.274 381.17 332.091 381.014 331.921 380.838C331.783 380.697 331.662 380.521 331.515 380.389C331.089 380.012 332.166 381.357 331.704 380.633C331.436 380.212 331.192 379.791 330.949 379.355C330.502 378.551 331.292 380.395 331.006 379.508C330.955 379.346 330.89 379.185 330.839 379.021C330.766 378.496 330.644 377.979 330.475 377.477C330.521 377.555 330.573 378.64 330.536 377.864C330.521 377.583 330.494 377.298 330.488 377.021C330.488 376.788 330.488 376.558 330.488 376.328C330.488 376.194 330.5 376.06 330.511 375.926C330.56 375.433 330.536 375.571 330.441 376.337C330.613 375.862 330.641 375.299 330.796 374.811C330.902 374.573 330.99 374.329 331.058 374.078C330.994 374.545 330.664 374.928 331.034 374.227C331.266 373.788 331.643 373.378 331.851 372.931C331.421 373.863 331.453 373.431 331.792 373.061C331.966 372.872 332.147 372.684 332.334 372.518C332.712 372.165 333.113 372.169 332.208 372.569C332.431 372.436 332.645 372.289 332.849 372.129C333.07 371.989 333.298 371.859 333.531 371.738C333.687 371.655 333.844 371.58 334.004 371.506L333.415 371.755C333.953 371.656 334.478 371.498 334.982 371.285L335.255 371.231C335.746 371.15 335.626 371.163 334.895 371.27C335.287 371.302 335.681 371.281 336.067 371.21C337.268 371.21 338.42 370.733 339.27 369.883C340.119 369.034 340.596 367.882 340.596 366.681C340.596 365.479 340.119 364.327 339.27 363.478C338.42 362.629 337.268 362.151 336.067 362.151H336.074Z" fill="#211715"/>
<path d="M81.9515 373.622C90.7986 360.3 104.247 350.751 117.951 342.936C132.496 334.765 147.608 327.646 163.17 321.636L176.113 316.553C177.253 316.206 178.218 315.436 178.808 314.4C179.398 313.363 179.569 312.141 179.285 310.982C178.959 309.829 178.191 308.849 177.149 308.257C176.106 307.665 174.872 307.507 173.714 307.818C162.829 312.094 152.011 316.451 141.328 321.217C124.406 328.765 107.642 337.15 93.0765 348.739C85.742 354.477 79.3519 361.329 74.1385 369.045C70.9058 373.916 78.747 378.459 81.9609 373.618L81.9515 373.622Z" fill="#211715"/>
<path d="M121.507 422.025C122.092 446.936 122.451 471.869 122.817 496.793C123.237 525.137 123.614 553.482 123.949 581.828C124.075 592.241 124.184 602.655 124.277 613.068C124.325 618.894 133.383 618.909 133.336 613.068C133.158 591.126 132.864 569.184 132.581 547.243C132.204 518.071 131.775 488.899 131.296 459.727C131.084 447.158 130.864 434.591 130.569 422.025C130.431 416.205 121.373 416.184 121.511 422.025H121.507Z" fill="#211715"/>
<path d="M18.5684 434.408C19.4957 452.801 20.6909 471.176 22.1541 489.533C23.6978 509.173 25.3227 528.804 28.1723 548.304C30.4936 564.186 34.7548 580.662 44.4644 593.736C49.0919 600.188 55.0077 605.611 61.8378 609.66C68.5928 613.331 76.039 615.552 83.7009 616.182C100.387 617.945 118.803 613.429 130.228 600.496C134.074 596.142 127.691 589.711 123.823 594.091C114.73 604.387 100.88 608.028 87.5281 607.412C81.0751 607.264 74.7192 605.808 68.845 603.132C62.5168 599.944 56.9971 595.357 52.7039 589.72C43.4566 577.818 39.4766 562.545 37.2063 547.896C34.3944 529.751 32.9526 511.419 31.4956 493.126C29.9368 473.569 28.6479 453.996 27.6288 434.408C27.3363 428.607 18.274 428.571 18.5684 434.408Z" fill="#211715"/>
<path d="M113.162 368.453C111.677 378.729 103.945 390.928 100.174 396.032C98.7063 398.076 97.0646 399.988 95.2675 401.749C91.3912 405.446 91.9215 410.43 91.1855 416.091C90.7854 419.177 91.1081 421.983 90.9307 424.206C80.0567 428.041 49.8089 430.743 35.7531 432.172C33.664 425.835 25.3038 407.576 24.3111 406.597C15.5904 397.995 5.61475 376.917 4.62775 356.586L4.99575 349.072C5.12785 346.373 7.27358 338.86 12.7181 337.443C14.8117 336.923 17.0145 337.061 19.027 337.838C21.0394 338.615 22.7638 339.992 23.9658 341.783C24.6433 338.575 25.3793 335.103 25.3793 335.103C26.0357 332.917 27.3019 330.963 29.0293 329.471C30.7568 327.979 32.8739 327.011 35.1322 326.68C39.6917 325.959 41.4751 328.843 43.7756 331.938C43.7756 328.058 45.3948 323.515 48.9351 321.649C54.3759 318.78 65.0442 318.68 64.8781 330.951C61.9775 310.056 58.7693 284.554 58.6938 278.864C58.8215 275.741 60.0271 272.759 62.1055 270.424C64.1839 268.089 67.0069 266.547 70.0943 266.058C76.4182 265.303 83.0196 274.594 83.7462 278.683C87.2299 298.278 89.2813 312.464 92.0121 336.224C95.6543 337.107 99.1249 338.096 103.009 339.168C106.142 340.29 108.8 342.446 110.544 345.28C114.13 353.129 115.387 360.078 113.16 368.451L113.162 368.453Z" fill="white"/>
<path d="M96.3281 334.368C94.4843 318.497 92.4009 302.664 89.7475 286.9C89.3606 283.356 88.7185 279.844 87.8263 276.392C86.7895 273.496 85.2244 270.817 83.2103 268.492C78.4923 262.725 71.7531 259.779 64.6422 263.001C61.531 264.439 58.8941 266.734 57.0404 269.617C55.1867 272.5 54.1931 275.852 54.1759 279.28C54.2495 282.422 54.6552 285.575 54.9893 288.695C56.1574 299.629 57.5841 310.535 59.0429 321.432C60.5753 332.879 62.1096 344.335 63.9496 355.737C64.2762 356.891 65.0438 357.869 66.0864 358.461C67.129 359.053 68.3627 359.211 69.5206 358.9C70.6634 358.557 71.6299 357.786 72.2193 356.749C72.8088 355.711 72.9757 354.486 72.6854 353.329C69.581 334.144 67.1088 315.051 64.8404 295.77C64.3818 291.861 63.9345 287.949 63.5741 284.03C63.3231 281.318 62.7569 278.332 63.9081 275.813C64.4322 274.657 65.1857 273.62 66.123 272.765C67.0602 271.909 68.1616 271.253 69.3602 270.836C69.7643 270.64 70.2063 270.534 70.6555 270.526C71.1046 270.519 71.5501 270.609 71.9607 270.791C72.8044 271.186 73.5934 271.688 74.3084 272.286C76.2739 273.974 77.8528 276.066 78.9377 278.419C79.1679 278.917 78.9811 278.504 78.9377 278.404C79.0113 278.593 79.0849 278.795 79.1415 278.995C79.3 279.561 79.4057 280.102 79.5189 280.674C79.8624 282.571 80.187 284.471 80.5135 286.37C83.2499 302.305 85.4051 318.312 87.2696 334.372C87.3047 335.562 87.7931 336.694 88.6351 337.536C89.477 338.378 90.6087 338.866 91.7988 338.901C92.9979 338.895 94.1459 338.415 94.9938 337.567C95.8417 336.719 96.3212 335.571 96.3281 334.372V334.368Z" fill="#211715"/>
<path d="M27.8496 339.464C25.8448 336.514 22.82 334.41 19.3572 333.557C15.9538 332.834 12.4062 333.268 9.27777 334.791C7.02099 336.083 5.08089 337.861 3.59898 339.998C2.11707 342.134 1.13071 344.575 0.711831 347.141C-0.0516023 352.969 0.409905 358.893 2.06683 364.533C2.7714 368.01 4.24335 371.286 6.37528 374.122C8.35512 376.378 11.0155 377.927 13.9542 378.536C20.9198 379.887 27.5118 375.445 30.5709 369.346C31.1486 368.302 31.302 367.076 30.9995 365.922C30.6969 364.769 29.9615 363.776 28.946 363.15C27.9061 362.555 26.6741 362.392 25.5151 362.695C24.3561 362.999 23.3627 363.746 22.7485 364.775C22.3651 365.562 21.9282 366.322 21.4407 367.049C21.8766 366.411 21.1689 367.341 20.9783 367.534C20.8274 367.685 19.9045 368.449 20.4122 368.077C19.561 368.698 18.6515 369.234 17.6965 369.678C18.3816 369.361 17.538 369.678 17.2587 369.765C17.1813 369.789 16.5397 369.857 17.053 369.81C17.5663 369.763 16.7152 369.789 16.6246 369.787C16.4151 369.787 16.2075 369.776 15.998 369.755C16.819 369.832 16.1151 369.768 15.9452 369.714C15.5338 369.58 15.1092 369.497 14.7072 369.336C15.3526 369.602 14.4053 369.113 14.2184 369.023C14.2184 369.023 13.5938 368.628 13.9486 368.878C14.2505 369.089 13.6126 368.591 13.5485 368.528C13.3749 368.36 12.7502 367.662 12.8653 367.821C12.9804 367.979 12.4879 367.155 12.3822 366.938C11.8843 365.763 11.4694 364.554 11.1404 363.322C9.89011 359.271 9.32562 355.04 9.47027 350.804C9.47027 350.372 9.50235 349.938 9.51179 349.506C9.52688 348.734 9.64011 348.864 9.44762 349.553C9.64766 348.832 9.75523 348.1 9.99679 347.386C10.1006 347.081 10.4082 346.356 10.0949 347.056C10.2585 346.689 10.4359 346.326 10.6271 345.969C10.8158 345.603 11.0366 345.242 11.265 344.893C11.3801 344.716 11.5009 344.54 11.6235 344.369C12.0368 343.802 11.2216 344.797 11.7122 344.282C11.901 344.076 12.1048 343.865 12.3048 343.659C12.3577 343.604 12.9785 343.051 12.6596 343.306C12.5068 343.429 13.3881 342.851 13.6504 342.712C13.5749 342.751 13.0842 342.917 13.5843 342.732C13.8839 342.628 14.1888 342.54 14.4977 342.468C14.8712 342.343 15.2626 342.279 15.6565 342.28C16.5446 342.159 17.4488 342.29 18.2664 342.657C18.9462 342.987 19.5477 343.458 20.031 344.038C20.6631 345.047 21.6562 345.777 22.8078 346.079C23.9593 346.381 25.1827 346.232 26.2285 345.663C27.2599 345.051 28.0088 344.058 28.313 342.898C28.6171 341.738 28.452 340.505 27.8534 339.466L27.8496 339.464Z" fill="#211715"/>
<path d="M47.684 329.652C46.0577 326.923 43.7606 324.655 41.0109 323.064C39.203 322.346 37.2606 322.029 35.3182 322.136C33.3759 322.242 31.4798 322.77 29.7613 323.681C26.8357 325.074 24.373 327.279 22.6674 330.034C21.1272 332.954 20.2654 336.185 20.1461 339.485C19.3357 346.884 19.8721 354.37 21.7295 361.578C22.2818 364.184 23.2369 366.688 24.5602 369C26.7343 372.237 30.0764 374.507 33.8867 375.336C41.2015 376.896 50.945 371.831 51.9565 363.969C51.9506 362.77 51.4715 361.621 50.6234 360.773C49.7753 359.925 48.6267 359.446 47.4273 359.44C46.2351 359.469 45.0997 359.955 44.2564 360.798C43.4132 361.641 42.9268 362.777 42.898 363.969C43.1075 362.342 43.2207 362.995 42.7282 363.571C42.3495 364 41.9291 364.39 41.4732 364.735C40.702 365.289 39.8865 365.778 39.035 366.198C37.9253 366.632 36.7087 366.714 35.5509 366.432C34.3932 366.149 33.3507 365.517 32.5657 364.62C32.1558 364.117 31.8365 363.547 31.6221 362.935C31.2013 361.791 30.8427 360.629 30.5351 359.453C29.8176 356.727 29.3334 353.944 29.0876 351.136C28.774 347.658 28.7709 344.16 29.0782 340.681C29.2218 339.097 29.474 337.526 29.833 335.976C29.901 335.733 29.9784 335.495 30.0689 335.259C29.9048 335.648 29.8972 335.693 30.0444 335.391C30.2894 334.91 30.5715 334.449 30.888 334.012C30.569 334.429 31.4164 333.457 31.5013 333.374C32.6788 332.192 34.1965 331.408 35.8418 331.132C36.1661 331.034 36.5107 331.027 36.8391 331.109C37.1674 331.192 37.4671 331.362 37.7064 331.602C38.5252 332.392 39.2519 333.272 39.8729 334.225C40.5038 335.235 41.4969 335.966 42.649 336.268C43.801 336.57 45.025 336.421 46.0704 335.85C47.1007 335.237 47.8486 334.244 48.1527 333.084C48.4567 331.925 48.2924 330.692 47.6953 329.652H47.684Z" fill="#211715"/>
<path d="M65.8311 319.901C61.1868 314.668 53.2474 314.604 47.2933 317.433C41.2449 320.307 38.6821 327.674 39.3784 333.995C40.1578 341.072 41.3826 348.12 42.7754 355.097C43.4038 358.222 43.7492 361.34 46.0553 363.729C48.444 366.114 51.4987 367.72 54.8175 368.336C56.9523 368.75 59.1517 368.695 61.2628 368.173C63.374 367.652 65.3463 366.677 67.0427 365.316C68.9999 363.416 70.5919 361.173 71.7399 358.698C74.6575 353.64 66.8332 349.073 63.9194 354.127C63.3986 355.029 62.9513 355.973 62.4097 356.869C62.3191 357.02 61.3887 358.302 61.9209 357.669C61.8001 357.815 60.7093 358.815 61.166 358.483C60.2331 359.107 59.1522 359.475 58.0321 359.548C56.9121 359.622 55.7923 359.4 54.7854 358.904C54.0919 358.597 53.4395 358.204 52.8435 357.735C53.0926 357.896 53.0153 357.813 52.6152 357.484C52.2377 357.065 52.2057 357.056 52.5189 357.456C52.2509 356.986 52.2692 357.061 52.5737 357.683C52.4906 357.318 52.4088 356.953 52.3283 356.588C52.156 355.808 51.9893 355.027 51.8282 354.244C51.1432 350.951 50.5279 347.639 49.9618 344.329C49.439 341.273 48.9427 338.211 48.5653 335.134C48.0266 332.687 48.2438 330.134 49.188 327.812C49.6864 326.952 50.3724 326.216 51.195 325.657C52.0176 325.099 52.9556 324.734 53.939 324.589C54.9224 324.444 55.9259 324.523 56.8746 324.819C57.8234 325.116 58.6929 325.623 59.4185 326.302C63.2967 330.671 69.6848 324.245 65.8236 319.897L65.8311 319.901Z" fill="#211715"/>
<path d="M92.4046 358.296C87.9301 356.543 82.5648 354.878 78.7225 351.91C77.0966 350.539 75.9361 348.697 75.4011 346.639C75.0327 345.404 75.0564 344.085 75.469 342.864C76.7202 340.022 80.0964 338.965 83.5273 339.164C89.036 339.484 94.8202 341.479 100.091 343.029C102.028 343.504 103.813 344.461 105.281 345.81C106.749 347.159 107.852 348.858 108.489 350.747C110.141 354.957 110.52 359.56 109.58 363.984C107.349 373.991 103.251 383.487 97.5019 391.977C94.3786 396.668 89.4738 400.058 87.9697 405.691C86.3769 411.667 86.7563 418.105 86.4052 424.208L89.7305 419.841C81.6156 422.645 72.6911 423.551 64.2081 424.606C54.742 425.782 45.2476 426.682 35.7569 427.644L40.1257 430.97C37.1472 422.344 33.4871 413.97 29.1801 405.925C28.4988 404.673 27.6478 403.521 26.6512 402.501C24.9536 400.647 23.4305 398.64 22.1012 396.506C14.2443 383.923 9.75374 369.532 9.06076 354.714C8.89657 348.898 -0.163817 348.873 0.00225532 354.714C0.564698 369.567 4.63913 384.075 11.8915 397.049C13.3277 399.679 14.9431 402.206 16.7265 404.613C17.6267 405.815 18.5495 407.004 19.5422 408.131C19.8819 408.508 20.2254 408.907 20.5896 409.263C21.2048 409.875 20.7557 409.89 20.8123 409.405C20.7708 409.761 20.4594 408.635 20.6236 409.19C21.1883 410.492 21.8435 411.753 22.5843 412.964C23.6204 415.095 24.6131 417.246 25.5906 419.403C27.7638 423.954 29.697 428.615 31.3824 433.368C31.6575 434.318 32.2305 435.153 33.0168 435.752C33.8032 436.351 34.7611 436.681 35.7494 436.693C45.4608 435.708 55.178 434.789 64.8611 433.572C73.9045 432.44 83.465 431.558 92.131 428.565C93.0715 428.275 93.8977 427.698 94.494 426.915C95.0903 426.132 95.4267 425.182 95.4562 424.198C95.6449 420.969 95.5543 417.782 95.8846 414.561C95.8799 411.903 96.3063 409.263 97.1471 406.742C98.2096 404.447 100.708 402.666 102.273 400.677C103.987 398.513 105.562 396.244 106.991 393.883C110.063 388.724 112.696 383.316 114.864 377.717C117.45 371.75 118.924 365.362 119.216 358.866C119.247 352.858 117.445 346.984 114.051 342.026C110.235 336.861 105.139 334.987 99.1683 333.345C92.7745 331.585 85.7542 329.337 79.0773 330.409C76.6046 330.753 74.2525 331.693 72.223 333.147C70.1935 334.601 68.5473 336.526 67.4258 338.756C64.6139 344.901 66.6351 351.912 70.8926 356.873C73.3287 359.365 76.2595 361.319 79.4963 362.61C82.9253 364.237 86.4562 365.654 89.9871 367.037C91.1455 367.348 92.3797 367.19 93.4226 366.598C94.4656 366.006 95.2334 365.027 95.56 363.873C95.8507 362.715 95.684 361.49 95.0946 360.453C94.5051 359.415 93.5382 358.645 92.3952 358.302L92.4046 358.296Z" fill="#211715"/>
<path d="M184.118 538.58C173.348 515.934 164.327 496.545 160 486.316C170.461 480.168 272.012 426.755 291.937 418C310.179 451.484 335.854 502.954 355.607 543.36L355.881 543.926C353.401 544.947 350.621 546.083 347.456 547.372C339.383 550.609 303.473 564.904 295.979 567.896C295.598 568.039 295.248 568.257 294.953 568.538C294.657 568.819 294.42 569.156 294.257 569.53C294.094 569.904 294.008 570.306 294.003 570.714C293.998 571.122 294.075 571.527 294.23 571.904C294.892 573.731 295.679 575.91 296.564 578.375L293.067 579.583C287.734 574.082 282.792 572.347 273.692 568.449C269.288 567.169 264.814 566.144 260.293 565.378C254.442 564.412 250.136 563.449 244.231 562.906C236.418 562.187 231.892 561.387 228.65 564.578C227.734 565.521 227.035 566.653 226.603 567.895C226.171 569.137 226.017 570.458 226.152 571.766C226.601 582.565 245.59 589.128 254.395 595.558C246.084 599.263 237.319 601.848 228.328 603.246C223.046 601.818 217.848 600.098 212.756 598.094C203.126 578.26 193.024 557.307 184.118 538.58Z" fill="#F0F0F0"/>
<path d="M315.738 633.655C315.597 633.727 315.459 633.805 315.323 633.882C314.543 634.322 313.918 634.991 313.531 635.798C313.144 636.606 313.015 637.513 313.16 638.396C313.186 638.995 313.372 639.576 313.698 640.079L314.406 640.997C314.96 641.551 315.649 641.952 316.404 642.161L317.608 642.323C318.412 642.323 319.2 642.11 319.894 641.704C320.032 641.625 320.169 641.548 320.309 641.478C321.089 641.038 321.715 640.37 322.101 639.563C322.488 638.755 322.618 637.849 322.472 636.966C322.446 636.366 322.261 635.784 321.934 635.28L321.226 634.365C320.673 633.809 319.984 633.407 319.228 633.199L318.024 633.038C317.22 633.036 316.431 633.249 315.738 633.655Z" fill="#211715"/>
<path d="M216.572 596.197C201.207 564.551 185.811 532.897 171.163 500.913C168.653 495.44 166.158 489.948 163.803 484.4L162.178 490.597C176.401 482.294 191.24 474.92 205.815 467.262C227.493 455.869 249.22 444.544 271.082 433.517C278.702 429.673 286.313 425.737 294.13 422.3L287.934 420.675C305.334 452.654 321.598 485.262 337.747 517.886C342.383 527.252 346.997 536.63 351.589 546.022C352.203 547.051 353.196 547.797 354.355 548.101C355.513 548.405 356.745 548.242 357.785 547.647C358.804 547.024 359.542 546.031 359.845 544.875C360.147 543.72 359.992 542.492 359.41 541.449C342.893 507.68 326.195 473.992 308.807 440.659C304.521 432.44 300.171 424.255 295.755 416.102C295.127 415.089 294.134 414.356 292.981 414.053C291.828 413.751 290.603 413.903 289.559 414.478C272.399 422.026 255.816 431.085 239.171 439.673C217.981 450.619 196.857 461.691 175.799 472.888C169.717 476.132 163.561 479.289 157.607 482.767C156.597 483.399 155.867 484.392 155.565 485.544C155.263 486.696 155.412 487.919 155.982 488.965C167.785 516.825 181.352 544.005 194.481 571.256C199.221 581.099 203.979 590.935 208.753 600.762C209.367 601.791 210.36 602.537 211.519 602.841C212.678 603.145 213.909 602.982 214.949 602.387C215.968 601.763 216.705 600.77 217.008 599.615C217.311 598.46 217.156 597.232 216.574 596.189L216.572 596.197Z" fill="#211715"/>
<path d="M236.489 602.058C242.568 600.459 248.52 598.415 254.299 595.942C245.489 589.526 226.504 582.949 226.055 572.15C225.921 570.842 226.075 569.521 226.507 568.279C226.938 567.037 227.637 565.905 228.554 564.962C231.796 561.771 236.322 562.571 244.134 563.29C250.039 563.833 254.344 564.8 260.196 565.762C264.718 566.528 269.192 567.553 273.595 568.833C282.695 572.724 287.638 574.458 292.971 579.967L296.468 578.757C301.541 592.84 309.918 616.193 317.227 635.454C317.533 636.254 317.834 637.047 318.131 637.832L317.754 638.126C297.197 654.52 272.414 671.152 246.688 676.58C243.693 677.214 233.964 674.491 231.288 671.401C223.985 662.969 221.071 656.555 218.455 645.987C214.451 643.939 211.456 639.07 209.331 635.107C206.999 630.221 206.652 624.621 208.365 619.485C206.237 618.359 204.211 617.049 202.313 615.569C200.509 614.039 199.293 611.93 198.874 609.602C198.455 607.275 198.859 604.874 200.016 602.811C201.788 599.762 207.753 596.476 212.139 598.269L212.675 598.488C217.765 600.491 222.962 602.211 228.242 603.638C231.021 603.282 233.776 602.754 236.489 602.058Z" fill="white"/>
<path d="M203.986 618.279C202.012 624.485 202.468 631.21 205.262 637.094C207.729 642.044 211.216 647.168 216.159 649.889L214.083 647.183C215.866 655.211 219.237 662.801 223.998 669.506C226.068 672.808 228.892 675.571 232.24 677.567C235.409 679.172 238.807 680.28 242.313 680.852C246.047 681.252 249.822 680.838 253.38 679.639C257.947 678.431 262.438 676.951 266.828 675.206C275.226 671.851 283.305 667.746 290.965 662.939C299.876 657.246 308.454 651.048 316.657 644.377C317.5 643.524 317.973 642.373 317.973 641.174C317.973 639.975 317.5 638.824 316.657 637.971C315.794 637.148 314.647 636.688 313.455 636.688C312.262 636.688 311.115 637.148 310.252 637.971C294.353 650.627 277.264 662.454 257.809 668.882C255.293 669.712 252.756 670.456 250.198 671.112C249.027 671.411 247.851 671.691 246.671 671.954C246.265 672.045 244.608 672.175 246.071 672.13C245.678 672.141 245.301 672.13 244.908 672.118C244.319 672.072 243.735 671.978 243.161 671.837C242.313 671.648 241.474 671.439 240.641 671.192C238.895 670.719 237.217 670.021 235.65 669.116C234.424 668.174 233.353 667.048 232.474 665.777C228.4 660.679 225.443 654.782 223.793 648.468C223.502 646.826 223.02 645.223 222.356 643.693C221.671 642.521 220.503 642.087 219.469 641.327C217.606 639.774 216.056 637.881 214.9 635.748C213.425 633.565 212.464 631.076 212.087 628.468C211.71 625.86 211.928 623.2 212.724 620.689C214.423 615.097 205.674 612.708 203.988 618.281L203.986 618.279Z" fill="#211715"/>
<path d="M296.172 576.757C293.328 573.869 290.042 571.453 286.438 569.599C282.256 567.322 277.863 565.457 273.32 564.032C263.909 561.461 254.294 559.709 244.582 558.797C240.256 558.368 235.661 557.576 231.347 558.525C229.237 559.004 227.287 560.023 225.688 561.482C224.09 562.941 222.898 564.789 222.228 566.847C219.507 575.119 224.681 582.134 230.924 586.897C237.516 591.932 245.305 595.025 252.023 599.845L253.104 591.568C245.889 594.724 238.362 597.115 230.647 598.699C230.245 598.773 229.831 598.82 229.435 598.911C229.473 598.911 228.158 599.099 228.814 599.099C229.141 599.099 228.035 598.901 227.746 598.82C226.35 598.443 224.964 598.003 223.594 597.559C220.881 596.679 218.187 595.739 215.513 594.74C212.785 593.499 209.758 593.07 206.793 593.504C203.543 594.114 200.542 595.657 198.157 597.946C195.884 600.342 194.499 603.444 194.232 606.736C193.966 610.028 194.833 613.312 196.691 616.043C199.24 619.227 202.501 621.768 206.211 623.461C209.909 625.39 213.799 626.925 217.818 628.041C223.438 629.632 225.834 620.895 220.226 619.307C216.429 618.278 212.776 616.78 209.35 614.848C206.921 613.446 203.973 611.979 203.366 608.998C203.096 607.969 203.171 606.881 203.577 605.898C203.984 604.916 204.7 604.093 205.617 603.555C208.14 601.921 209.929 602.266 212.566 603.28C215.508 604.412 218.491 605.442 221.492 606.403C222.855 606.837 224.221 607.26 225.599 607.635C227.377 608.092 229.235 608.144 231.036 607.786C239.464 606.285 247.681 603.777 255.51 600.315C256.346 600.05 257.09 599.553 257.652 598.881C258.215 598.209 258.575 597.39 258.688 596.521C258.802 595.651 258.665 594.768 258.294 593.973C257.922 593.179 257.332 592.508 256.592 592.038C251.481 588.369 245.691 585.744 240.362 582.428C237.733 580.9 235.312 579.04 233.159 576.893C232.373 576.124 231.719 575.232 231.222 574.251C230.907 573.685 231.107 574.173 230.803 573.203C230.735 572.986 230.688 572.762 230.639 572.541C230.539 572.082 230.624 572.964 230.596 572.164C230.446 570.935 230.709 569.692 231.341 568.629C231.572 568.214 231.941 567.891 232.383 567.717C232.885 567.449 233.435 567.284 234.002 567.232C237.542 567.095 241.087 567.31 244.584 567.876C252.803 568.725 260.948 570.189 268.949 572.254C276.32 574.141 284.367 577.695 289.776 583.175C293.879 587.327 300.284 580.924 296.193 576.77L296.172 576.757Z" fill="#211715"/>
<path d="M473.03 522.587C473.826 535.797 474.371 549.264 471.444 561.875C470.289 567.381 468.364 572.697 465.724 577.667C462.06 584.226 457.522 590.258 452.233 595.595C441.034 606.95 426.127 614.697 411.862 621.474C396.187 628.711 380.125 635.081 363.75 640.553C356.405 643.095 349.017 645.503 341.585 647.779C338.411 648.749 335.227 649.693 332.034 650.61C330.64 651.009 329.243 651.4 327.843 651.784C327.692 651.825 327.142 651.891 327.042 652.005L326.776 652.076C326.968 651.987 327.186 651.968 327.39 652.022C327.595 652.076 327.774 652.2 327.897 652.373C328.765 652.461 328.22 653.029 328.233 652.307C328.113 651.743 327.923 651.196 327.667 650.68C322.117 634.992 316.031 619.49 310.341 603.851C307.806 596.886 305.286 589.916 302.781 582.941C301.792 580.193 300.802 577.446 299.812 574.698C299.583 573.569 299.189 572.48 298.644 571.465C298.572 571.388 298.595 571.033 298.435 571.065C298.138 571.126 298.193 573.128 297.276 572.575C297.374 572.633 298.031 572.269 298.14 572.23C307.361 568.863 316.418 564.947 325.538 561.314C345.897 553.202 366.153 544.861 386.306 536.292C389.517 534.923 392.73 533.564 395.947 532.214C397.084 531.861 398.043 531.089 398.631 530.054C399.218 529.019 399.39 527.799 399.11 526.643C398.785 525.488 398.018 524.509 396.975 523.917C395.932 523.324 394.697 523.167 393.539 523.48C371.476 532.751 350.134 541.81 327.841 550.699C317.62 554.771 307.399 558.843 297.18 562.914C294.687 563.909 292.069 564.707 290.539 567.104C288.451 570.371 289.814 573.634 290.986 576.883C293.318 583.349 295.65 589.816 297.98 596.286C303.915 612.704 310.088 629.038 316.14 645.417C316.874 647.403 317.598 649.393 318.314 651.386C318.886 653.413 319.628 655.389 320.534 657.291C322.908 661.461 327.327 661.339 331.336 660.227C338.309 658.291 345.239 656.194 352.129 653.984C369.636 648.37 386.957 642.065 403.896 634.924C419.579 628.307 435.224 620.662 448.892 610.411C461.242 601.141 472.463 588.054 477.629 573.301C481.525 561.199 483.228 548.497 482.656 535.795C482.567 531.395 482.35 526.997 482.09 522.604C481.743 516.812 472.68 516.771 473.032 522.604L473.03 522.587Z" fill="#211715"/>
<path d="M216.299 526.579L206.308 507.603L209.056 506.156L217.962 523.071L227.411 518.096L228.496 520.157L216.299 526.579ZM233.624 517.855C232.855 518.26 232.091 518.496 231.332 518.564C230.574 518.633 229.879 518.508 229.247 518.189C228.612 517.861 228.093 517.318 227.693 516.557C227.256 515.728 227.064 514.974 227.115 514.296C227.175 513.613 227.417 512.972 227.841 512.374C228.274 511.77 228.841 511.18 229.54 510.602C230.244 510.01 231.029 509.393 231.893 508.75L233.293 507.699L233.006 507.154C232.583 506.351 232.18 505.741 231.795 505.325C231.415 504.897 230.98 504.668 230.49 504.639C230.004 504.596 229.394 504.769 228.66 505.155C227.752 505.633 227.062 506.156 226.589 506.725C226.112 507.286 225.69 507.911 225.325 508.6C225.325 508.6 225.232 508.549 225.046 508.448C224.856 508.339 224.637 508.217 224.39 508.082C224.142 507.947 223.922 507.832 223.727 507.736C223.542 507.635 223.449 507.584 223.449 507.584C223.901 506.662 224.448 505.855 225.089 505.165C225.738 504.47 226.633 503.822 227.774 503.221C229.346 502.393 230.795 502.116 232.12 502.39C233.445 502.663 234.542 503.625 235.411 505.276L240.045 514.077L237.764 515.278L236.717 513.826C236.591 514.676 236.262 515.445 235.731 516.133C235.199 516.821 234.497 517.395 233.624 517.855ZM233.004 515.797C233.791 515.383 234.376 514.86 234.76 514.227C235.144 513.594 235.429 512.887 235.613 512.106L234.173 509.371L232.613 510.59C231.69 511.33 230.995 511.938 230.529 512.416C230.062 512.893 229.801 513.328 229.744 513.723C229.682 514.109 229.785 514.545 230.053 515.033C230.353 515.582 230.727 515.947 231.177 516.13C231.626 516.313 232.235 516.202 233.004 515.797ZM245.787 511.054L234.386 500.121L237.159 498.661L245.269 506.989L243.511 495.317L244.924 494.573L253.448 502.683L251.249 491.243L253.867 489.864L256.221 505.56L253.979 506.741L246.509 499.565L248.029 509.873L245.787 511.054ZM265.183 506.106C264.958 506.224 264.709 506.328 264.436 506.417C264.176 506.509 263.905 506.592 263.622 506.663L262.794 504.335C262.958 504.27 263.114 504.21 263.262 504.154C263.409 504.099 263.543 504.039 263.664 503.976C264.165 503.712 264.559 503.411 264.844 503.073C265.138 502.73 265.317 502.272 265.379 501.699C265.45 501.121 265.401 500.357 265.233 499.408L265.121 498.756L254.178 489.7L256.913 488.26L265.042 495.304L263.796 484.637L266.427 483.251L267.985 498.191C268.137 499.59 268.164 500.784 268.067 501.773C267.983 502.767 267.71 503.611 267.249 504.307C266.8 505.006 266.112 505.606 265.183 506.106ZM280.779 493.028C279.388 493.76 278.087 494.048 276.878 493.89C275.665 493.723 274.569 493.224 273.591 492.392C272.621 491.557 271.801 490.504 271.133 489.233C270.382 487.808 269.963 486.456 269.875 485.178C269.795 483.895 270.047 482.747 270.628 481.735C271.214 480.709 272.129 479.869 273.373 479.214C274.609 478.563 275.767 478.301 276.849 478.426C277.926 478.544 278.903 478.973 279.779 479.715C280.659 480.443 281.411 481.399 282.034 482.583C282.052 482.618 282.105 482.728 282.192 482.914C282.283 483.087 282.372 483.266 282.458 483.452C282.554 483.634 282.618 483.766 282.65 483.848L274.07 488.366C274.474 489.091 274.964 489.749 275.539 490.34C276.119 490.918 276.765 491.306 277.477 491.505C278.193 491.691 278.949 491.575 279.744 491.156C280.642 490.683 281.202 490.09 281.423 489.378C281.648 488.652 281.707 487.915 281.599 487.166L283.834 486.569C284.04 487.442 284.052 488.292 283.868 489.117C283.689 489.929 283.342 490.674 282.827 491.353C282.308 492.024 281.626 492.582 280.779 493.028ZM273.148 486.616L279.279 483.388C278.624 482.144 277.901 481.316 277.111 480.904C276.316 480.484 275.382 480.556 274.311 481.12C273.723 481.43 273.292 481.817 273.018 482.281C272.748 482.732 272.597 483.22 272.564 483.745C272.535 484.257 272.577 484.765 272.688 485.269C272.803 485.76 272.956 486.209 273.148 486.616ZM288.431 488.602L281.45 475.342L284.107 473.943L285.206 476.03C285.258 474.998 285.518 474.138 285.984 473.452C286.445 472.756 287.099 472.185 287.946 471.74L289.181 474.086C288.24 474.582 287.588 475.189 287.228 475.909C286.876 476.624 286.75 477.391 286.85 478.21C286.946 479.021 287.205 479.828 287.628 480.631L291.088 487.203L288.431 488.602Z" fill="#3F3F46"/>
</svg>
