<svg width="79" height="77" viewBox="0 0 79 77" fill="none" xmlns="http://www.w3.org/2000/svg">
<path d="M74.7397 0.314119C74.6473 0.375721 74.3547 0.883941 74.0929 1.42296L73.6155 2.424L72.4296 2.65501C71.367 2.85522 71.2284 2.93222 71.1822 3.25563C71.136 3.53284 71.3362 3.82546 71.9368 4.44148L72.753 5.25771L72.5682 6.44356C72.291 8.21463 72.5836 8.41484 74.1391 7.5216L75.0477 6.99798L75.9409 7.5216C76.8958 8.09142 77.4194 8.18383 77.5734 7.79881C77.6196 7.67561 77.5888 7.05958 77.5118 6.45896L77.3578 5.35012L78.1124 4.48768C79.2675 3.16323 79.1135 2.82442 77.3116 2.57801L76.4646 2.4702L75.9255 1.37676C75.4019 0.314119 75.1247 0.0523085 74.7397 0.314119ZM76.3414 3.65605L76.9882 3.81006L76.5416 4.34908C76.1412 4.8265 76.0949 4.9651 76.1874 5.56572C76.2644 6.19715 76.249 6.24335 75.9871 6.12015C74.8937 5.67353 74.9091 5.67353 74.3393 6.02774L73.7849 6.36656L73.8773 5.58112C73.9697 4.8419 73.9389 4.76489 73.4614 4.27207L72.9686 3.76385L73.6771 3.65605C74.3239 3.54825 74.4317 3.47124 74.7089 2.91682L75.0323 2.3008L75.3711 2.90142C75.6329 3.36344 75.8331 3.51744 76.3414 3.65605Z" fill="#106194"/>
<path d="M9.00993 5.181C6.80765 6.15124 6.66904 8.67694 8.65572 11.4644C9.62596 12.8043 11.6588 14.8218 12.0593 14.8218C12.5059 14.8218 15.0624 12.2037 15.9864 10.7714C16.8642 9.43157 17.1569 8.49213 17.0644 7.42949C16.8796 5.48901 14.4771 4.31857 12.7061 5.31961L12.0901 5.67382L11.5664 5.31961C10.9658 4.90379 9.76456 4.84219 9.00993 5.181ZM10.704 6.19744C10.9196 6.27444 11.243 6.59786 11.4124 6.89047C11.8436 7.59889 12.2287 7.58349 12.9371 6.81346C13.4453 6.27444 13.5839 6.19744 14.1999 6.19744C15.0008 6.19744 15.5706 6.55165 15.8478 7.24468C16.2328 8.15332 15.509 9.64717 13.6763 11.7417C11.9668 13.6821 12.2441 13.6513 10.8118 12.1267C8.2861 9.43157 7.74708 7.13688 9.42575 6.30524C10.0264 6.01263 10.165 5.99723 10.704 6.19744Z" fill="#106194"/>
<path d="M48.3124 5.67358C47.8041 5.82759 47.2959 6.1664 46.7261 6.72082L45.8945 7.52165L45.4016 7.01343C44.5854 6.1664 43.6922 5.82759 42.2753 5.82759C41.2589 5.82759 40.8893 5.88919 40.1808 6.228C38.9026 6.81323 38.0401 7.73726 37.5935 9.00011L37.4395 9.41593L36.7157 9.09252C36.1613 8.86151 35.7917 8.7999 35.191 8.86151C33.6356 9.01551 31.7567 10.3246 31.0945 11.6798C30.8481 12.2034 30.7095 12.3574 30.5093 12.265C30.3706 12.2188 29.9394 12.1264 29.5236 12.0802C28.5072 11.9724 27.5831 12.3574 26.7977 13.2199C25.5657 14.5597 25.3501 15.53 25.6427 18.5947L25.7505 19.8267L19.6056 21.6286C13.5994 23.3997 13.4608 23.4459 12.7062 23.2611C11.6897 23.0301 10.9351 23.1995 10.1343 23.8001C9.24102 24.4777 8.93301 25.1399 8.93301 26.3566C8.93301 27.5424 9.39502 28.4665 10.2575 28.9901C10.6117 29.2211 10.7811 29.4213 10.7349 29.5907C10.7041 29.7293 9.08701 35.0425 7.16194 41.4184L3.6352 52.9996L2.78817 53.0458L1.92573 53.092L1.81793 53.7851C1.75632 54.1701 1.78713 55.2019 1.86413 56.0952C2.34155 61.0696 5.23686 64.9197 9.39502 66.0439C10.7503 66.4136 13.43 66.4136 14.7852 66.0439C18.6046 65.0121 21.2843 61.7164 22.1005 57.0962C22.3315 55.7255 22.4085 53.7081 22.2391 53.2614C22.1775 53.0766 21.9311 53.015 21.3921 53.015H20.6529L20.4065 52.1988C20.2833 51.7676 18.6662 46.4082 16.8181 40.3095L13.4608 29.2211L13.8458 28.9593C14.0614 28.8053 14.4002 28.5127 14.5696 28.2817C14.8468 27.9429 15.6785 27.6502 20.2679 26.2796C23.2248 25.4018 25.7505 24.6317 25.8891 24.6009C26.0893 24.5239 26.2125 24.7857 26.4897 26.0178C27.3521 29.7755 29.4928 34.1493 32.0031 37.3372L33.0042 38.6001L32.2187 44.1443C31.7721 47.209 31.0791 52.784 30.6479 56.5572C30.232 60.3303 29.847 63.6569 29.8008 63.9495C29.7084 64.4577 29.6622 64.5039 28.923 64.6887C27.4291 65.0429 26.8131 66.0439 26.7977 68.0614V69.3397H25.3347C23.7022 69.3397 23.1016 69.5245 22.4547 70.2021C21.9619 70.7411 21.7309 71.6652 21.7155 73.0666V74.1139H15.2627C9.53363 74.1139 8.7944 74.1447 8.7174 74.3603C8.6712 74.4835 8.702 74.7299 8.779 74.8993C8.94841 75.1919 9.48743 75.1919 39.9498 75.1919C73.4153 75.1919 71.4903 75.2381 71.2285 74.4219C71.136 74.1139 71.0436 74.1139 64.6832 74.1139H58.2457L58.1841 72.6046C58.1225 70.8489 57.8299 70.2329 56.8597 69.6785C56.3361 69.3859 56.0127 69.3397 54.6882 69.3397H53.1327V68.046C53.1327 67.3222 53.0557 66.5522 52.9633 66.3058C52.7323 65.6589 51.9161 64.8889 51.2847 64.7195C50.9613 64.6271 46.8647 64.5655 40.8585 64.5655C33.4816 64.5655 30.9559 64.5193 30.9559 64.3807C30.9559 63.5799 32.9425 47.1628 33.497 43.4667C33.882 40.8794 34.19 38.6001 34.19 38.3999C34.19 38.1843 33.882 37.6914 33.4354 37.1678C31.1099 34.4573 28.8152 30.1143 27.8758 26.6492C27.2135 24.1389 27.1981 24.1697 28.4148 23.8309L29.4004 23.5691L29.9856 24.0311C31.8491 25.4788 33.8666 25.4942 35.1602 24.0773C35.4528 23.7539 35.7763 23.2303 35.8841 22.9223C35.9765 22.6142 36.0689 22.3678 36.0843 22.3678C36.0997 22.3678 36.4539 22.5372 36.8697 22.7529C37.7475 23.1995 39.1798 23.2765 39.8574 22.9223C40.3502 22.6605 40.9663 22.0136 41.3359 21.3668C41.6131 20.9048 41.6131 20.9048 43.0915 20.874C43.954 20.8586 45.0474 20.72 45.6788 20.5506L46.7877 20.258L46.8647 20.7662C46.9109 21.0434 47.1265 21.6286 47.3267 22.0444L47.7117 22.7991L46.8801 23.3689C45.8483 24.0773 44.0464 25.9562 43.338 27.0804C42.0443 29.1133 41.0433 31.8392 41.4283 32.3012C41.7671 32.717 42.5063 32.486 42.5063 31.9778C42.5063 31.87 42.7219 31.177 42.9991 30.4378C43.877 27.9737 45.8945 25.448 48.1737 23.9387C49.2056 23.2611 49.298 22.9531 48.7744 22.106C48.3124 21.3668 47.8965 20.1964 47.8965 19.6111C47.8965 18.7949 47.5731 18.7333 46.0793 19.1953C42.7835 20.2426 38.2866 19.6265 36.8081 17.9479C36.2383 17.301 36.1151 16.839 36.3461 16.1306C36.5925 15.3914 37.3779 14.8985 38.7332 14.6059C40.5042 14.2209 44.9704 13.1275 46.0639 12.8041C47.0187 12.5115 47.1265 12.5115 47.6655 12.7271C48.759 13.1891 55.1194 19.9037 55.8278 21.3514C56.3207 22.3524 56.4593 23.5075 56.2283 24.4623C55.7816 26.218 53.8566 29.8987 51.5003 33.5025L49.8986 35.9358V47.517C49.8986 53.8929 49.9448 59.2523 49.991 59.4525C50.068 59.7451 50.1758 59.8067 50.5762 59.7605L51.0537 59.7143L51.0999 47.9482L51.1307 36.1976L51.9623 35.0117C53.718 32.5168 55.6738 29.0363 56.7673 26.4952C58.1687 23.2303 57.7375 21.2898 54.95 18.2251C54.2108 17.4088 53.5948 16.6542 53.5948 16.5464C53.5948 16.4386 53.7488 16.2846 53.949 16.2076C54.5804 15.9304 66.2849 12.6501 66.4543 12.6963C66.6083 12.7425 64.868 18.6101 59.9398 34.7961L59.5856 35.9204H58.7694C57.7683 35.9204 57.7529 35.9512 57.7529 37.6606C57.7529 41.8804 59.6318 45.7152 62.6657 47.7326C65.0374 49.3189 68.5641 49.7039 71.4133 48.7029C75.1248 47.3938 77.7583 43.6515 78.2511 38.9697C78.3589 37.984 78.3743 37.1062 78.2819 36.6904L78.1433 35.9974L77.3887 35.9512L76.6187 35.905L73.0611 24.1697L69.519 12.4345L70.0272 12.0032C70.7972 11.341 71.059 10.7404 71.059 9.58533C71.059 8.43029 70.8126 7.86047 70.0118 7.15204C68.7182 6.0124 66.9163 6.1048 65.6688 7.36765C64.9912 8.04527 64.9604 8.04527 59.8474 9.58533C57.0291 10.4324 54.7036 11.1254 54.6574 11.1254C54.6266 11.1254 54.5958 10.5556 54.5958 9.84715C54.5958 8.84611 54.5188 8.44569 54.257 7.95287C53.2251 6.0124 50.5454 4.98055 48.3124 5.67358ZM51.4387 6.82863C52.7477 7.41385 53.4408 8.41489 53.4408 9.69314C53.4408 10.0936 53.2559 11.5874 53.0249 12.9889L52.6091 15.5608L51.9161 14.7599C50.0988 12.6963 48.682 11.6644 47.4037 11.495C46.6953 11.4026 46.6953 11.3872 46.5875 10.7096C46.4643 9.83174 46.6183 8.89231 47.0033 8.16848C47.8041 6.73622 49.8678 6.1048 51.4387 6.82863ZM43.1377 7.12124C43.8462 7.32145 44.6162 7.84507 45.032 8.39949C45.4632 8.98471 45.648 11.5412 45.2784 11.6644C45.1552 11.6952 43.7384 12.0802 42.1367 12.5115C39.8266 13.1429 39.1952 13.2661 39.1028 13.0967C38.8102 12.6347 38.4868 10.7096 38.5792 10.0474C38.918 7.78346 40.9201 6.50521 43.1377 7.12124ZM65.1452 11.0176C65.253 11.2486 65.3146 11.4642 65.2838 11.495C65.2068 11.572 53.9952 14.9447 53.949 14.9139C53.8104 14.8061 54.334 12.5885 54.5188 12.4807C54.642 12.4036 56.9983 11.6644 59.755 10.8482L64.7602 9.33893L64.8526 9.97035C64.8988 10.3092 65.0374 10.7712 65.1452 11.0176ZM36.2537 10.263C36.7157 10.4478 36.8389 10.648 37.3471 11.957C37.6705 12.7887 37.9015 13.4663 37.8707 13.4971C37.8399 13.5279 37.4241 13.7127 36.9467 13.9283C35.7301 14.4827 35.2218 15.1912 35.1448 16.454C35.0986 17.0392 35.1602 17.6399 35.268 17.9017C35.6993 18.9335 37.3779 20.0269 39.303 20.5044L40.381 20.7816L39.8882 21.336C39.1952 22.1368 38.5176 22.2292 37.5011 21.6902C36.7927 21.3206 36.4693 20.951 34.4826 18.2097C33.266 16.5156 32.1879 14.9139 32.0801 14.6367C31.4795 12.9581 32.5267 10.7866 34.1592 10.3708C35.6069 10.0012 35.6223 10.0012 36.2537 10.263ZM68.5025 13.1583C68.5795 13.4355 70.1504 18.6409 71.9985 24.7241C73.8312 30.8074 75.3096 35.8126 75.2634 35.8588C75.2326 35.8896 71.9831 35.905 68.0405 35.8896L60.8638 35.8434L64.3136 24.4469C66.2233 18.1789 67.8095 12.9581 67.8403 12.8503C67.9635 12.4807 68.3639 12.6655 68.5025 13.1583ZM30.1704 13.5125C30.4939 13.6665 30.6479 13.9129 30.7865 14.4519C31.0329 15.4068 31.3101 15.9304 32.1725 17.0546C33.4046 18.6563 34.806 21.1204 34.806 21.6902C34.806 22.7221 34.1284 23.6153 33.112 23.9233C32.3419 24.1543 31.5103 23.7847 30.2012 22.5988C28.0298 20.6584 27.0133 19.0721 26.7977 17.3164C26.6437 16.0998 26.8439 15.3606 27.5677 14.4519C28.4764 13.2969 29.2464 13.0197 30.1704 13.5125ZM28.2916 22.6142C28.2762 22.6296 25.4271 23.4921 21.9465 24.5239C18.4814 25.5712 15.5553 26.449 15.4475 26.4798C15.3397 26.526 15.2319 26.3258 15.1549 25.9562C15.0932 25.6328 14.9546 25.1707 14.8314 24.9397C14.7082 24.6933 14.6466 24.4623 14.6774 24.4161C14.7236 24.3853 17.4803 23.5383 20.8069 22.5372L26.8593 20.72L27.5831 21.6594C27.9836 22.1676 28.307 22.5988 28.2916 22.6142ZM12.3827 29.7139C12.9526 31.6698 19.313 52.6762 19.3592 52.8148C19.4208 52.9688 17.927 53.015 12.1825 53.015C8.19378 53.015 4.92885 52.9842 4.92885 52.9226C4.92885 52.861 11.4125 31.3926 11.8745 29.9449C12.0593 29.4059 12.2595 29.3135 12.3827 29.7139ZM56.5363 71.0029C56.9521 71.465 56.9829 71.5882 56.9829 72.8048V74.1139H39.9652H22.9476V72.8202C22.9476 71.6498 22.9938 71.465 23.3326 71.0491C23.5482 70.8027 23.887 70.5563 24.0718 70.5255C24.2566 70.4947 31.5411 70.4639 40.2424 70.4793L56.0897 70.4947L56.5363 71.0029Z" fill="#106194"/>
<path d="M70.3506 61.7782C68.5641 62.9179 68.5795 64.9969 70.3814 67.6921C71.2284 68.9549 73.4461 71.188 73.8619 71.188C74.2316 71.188 76.7727 68.5853 77.6197 67.3532C78.4821 66.075 78.8517 65.0739 78.8517 64.0575C78.8517 62.5329 77.7275 61.4702 76.018 61.3624C75.2018 61.3162 75.0016 61.3624 74.478 61.7166C74.1546 61.9322 73.8311 62.0554 73.7849 61.9938C73.4923 61.5626 72.8763 61.3316 71.9985 61.3316C71.2284 61.3316 70.9358 61.4086 70.3506 61.7782ZM73.0919 63.1027C73.4461 63.4877 73.8311 63.7957 73.9697 63.7957C74.093 63.7957 74.3856 63.5493 74.6012 63.2567C75.2788 62.3788 76.4492 62.2864 77.2501 63.0411C78.3127 64.0421 77.5427 65.8594 74.7706 68.8471L73.8773 69.8173L73.1227 69.0781C70.2274 66.2598 69.4112 63.5339 71.1822 62.6715C72.0139 62.2556 72.3681 62.3326 73.0919 63.1027Z" fill="#106194"/>
<path d="M49.7292 61.9627C49.4674 62.471 49.7754 63.0254 50.3298 63.0254C50.838 63.0254 51.1307 62.779 51.1307 62.3324C51.1307 61.8857 50.838 61.6393 50.3298 61.6393C50.0526 61.6393 49.8524 61.7471 49.7292 61.9627Z" fill="#106194"/>
<path d="M3.41952 68.6005C3.34251 68.7083 3.0653 69.2319 2.80349 69.7402L2.32608 70.695L1.43284 70.8028C-0.261226 71.0184 -0.415232 71.4496 0.770614 72.6509L1.54064 73.4363L1.38664 74.2525C1.00162 76.3162 1.27883 76.6088 2.81889 75.7618L3.77373 75.2228L4.77477 75.7464C5.32919 76.039 5.85281 76.27 5.96062 76.27C6.36103 76.27 6.48424 75.7002 6.29943 74.576L6.11462 73.4979L6.91545 72.6663C8.1167 71.388 7.9781 71.003 6.22243 70.8028L5.29839 70.695L4.72857 69.5554C4.15875 68.4157 3.80453 68.1385 3.41952 68.6005ZM4.15875 71.1878C4.28195 71.4958 4.49756 71.6806 4.75937 71.7422C4.97498 71.7884 5.32919 71.85 5.5294 71.8962L5.89901 71.9733L5.39079 72.4969C4.92878 72.9743 4.89798 73.0821 4.95958 73.7289C5.03658 74.3449 5.00578 74.4219 4.79017 74.3295C3.74293 73.8983 3.69673 73.8829 3.25011 74.1601C2.61869 74.5298 2.57248 74.499 2.68029 73.7443C2.77269 73.1283 2.74189 73.0051 2.31067 72.5123L1.83326 71.9733L2.18747 71.8962C2.38768 71.85 2.68029 71.7884 2.8497 71.773C3.0191 71.7422 3.29631 71.465 3.46572 71.157C3.80453 70.5256 3.88154 70.5256 4.15875 71.1878Z" fill="#106194"/>
</svg>
