<svg width="512" height="512" viewBox="0 0 512 512" fill="none" xmlns="http://www.w3.org/2000/svg">
<path d="M176.5 1.51259C151.6 5.91259 132.8 15.9126 122.7 30.1126C108.9 49.7126 106.4 80.6126 116.5 107.513C117.9 111.313 119.9 115.813 121 117.613C122 119.313 123.6 124.513 124.5 129.113C128.5 148.513 138.4 172.213 149.9 189.613L156 198.813V211.113L155.9 223.413L151.2 228.513C146.9 233.313 141.7 236.213 91.1 262.513C44.5 286.813 34.7 292.313 29.8 296.713C23.3 302.813 18.6 311.213 17 319.913C15.7 326.913 0 495.613 0 502.613C0 509.313 2.2 511.913 8 511.913C12.8 511.913 15.7 509.513 16.4 504.713C16.7 502.913 20.6 462.013 25 413.913C29.4 365.813 33.3 325.013 33.6 323.413C34.6 318.513 39.1 310.913 42.9 308.013C44.9 306.413 61.2 297.513 79.3 288.213C109.3 272.513 112.1 271.313 112.4 273.313C112.7 274.413 113.1 279.513 113.4 284.513C113.6 289.613 114.4 294.613 115.1 295.613C115.7 296.713 118.5 298.813 121.2 300.313C123.9 301.813 126 303.513 125.8 303.913C125.6 304.413 123.9 305.813 122 307.113C120 308.513 118.2 310.713 117.6 312.613C116.8 315.513 118.6 319.713 138.5 361.613C150.7 387.213 161.3 408.413 162.7 409.613C167.7 414.313 176.4 410.613 176.4 403.813C176.3 401.513 170.6 388.513 159 364.413C149.5 344.613 140.7 326.113 139.4 323.213L137.1 318.013L142.3 314.913C150.4 309.913 152 308.113 152 303.713C152 298.913 150.9 297.813 139.2 290.913L130 285.513V281.313C130 279.113 129.7 273.813 129.4 269.713L128.7 262.213L143.1 254.913C153.5 249.513 158.6 246.313 161.6 243.013L165.8 238.513L180.9 252.313C189.3 259.913 195.8 266.413 195.5 266.813C195.1 267.113 189.6 270.413 183.2 274.013C175.5 278.413 171.3 280.313 170.9 279.513C170.5 278.913 169.4 274.813 168.5 270.413C165.9 258.413 164.1 256.013 158.2 255.913C154 255.913 150 259.713 150 263.713C150 265.913 175.8 379.913 201.5 491.713C203.1 498.613 213.6 500.313 216.9 494.013C218.6 491.013 272 267.313 272 263.613C272 256.713 262.8 253.213 258.1 258.313C256.7 259.813 255.1 263.913 253.8 269.513C252.7 274.413 251.4 278.813 250.9 279.313C250.3 280.013 234.4 271.913 227.8 267.413C226.3 266.413 227.7 264.813 239.2 254.313C258.6 236.813 256.3 238.113 260.6 242.813C263 245.513 268.5 249.113 277.1 253.613L290 260.413L289.4 271.913C289.1 278.213 288.7 283.913 288.5 284.613C288.3 285.213 283.8 288.313 278.6 291.413C273.4 294.513 268.6 297.713 267.9 298.513C266.1 300.713 266.4 306.613 268.5 308.913C269.6 310.113 273.3 312.613 276.7 314.613C280.2 316.513 283 318.513 283 319.113C283 319.713 274 338.513 263 360.913C252 383.313 243 402.313 243 403.213C243 409.813 251.2 414.313 256.6 410.513C257.7 409.713 268.8 388.213 281.4 362.613C303.7 317.113 304.2 316.013 303.1 312.613C302.2 310.013 300.6 308.313 297.4 306.413C295 305.013 293 303.713 293 303.513C293 303.313 295 301.913 297.5 300.413C304.2 296.513 305 294.713 305.7 281.913C306 275.813 306.7 270.613 307.2 270.313C308.7 269.413 377.2 305.813 381.2 309.613C388.6 316.813 388.1 313.713 397.5 414.613C407.1 518.113 405.9 511.413 414.5 511.413C418.5 511.413 419.6 511.013 421.2 508.813C423.2 506.213 423.1 505.913 414.6 413.813C408.2 344.913 405.5 319.713 404 314.913C401.6 306.913 395.6 298.313 389.3 293.613C386.6 291.713 360.1 277.513 330.2 261.913C279.6 235.513 275.6 233.313 271 228.213L266 222.713V211.313V199.813L272.1 190.613C284 172.613 293.4 150.713 298 130.113C299.1 125.013 301.3 118.513 303 115.613C304.6 112.713 307.3 106.313 309 101.213C318.1 74.0126 316.5 42.1126 305 18.6126C296.4 0.91259 291.1 -1.88741 281.2 6.31259C278.3 8.61259 274.3 11.1126 272.4 11.7126C268.6 12.9126 268.3 12.8126 248.6 6.81259C241.5 4.61259 231.9 2.21259 227.2 1.41259C216.4 -0.48741 187.5 -0.48741 176.5 1.51259ZM223.5 18.1126C227.4 18.7126 236.8 21.2126 244.5 23.7126C257 27.7126 259.5 28.3126 268.1 28.3126C276.2 28.4126 278.4 28.0126 282.9 25.9126C288.9 23.1126 288.7 23.0126 292.1 31.9126C296 42.2126 297.2 48.4126 297.7 61.0126C298.2 73.3126 296.8 84.9126 294 92.5126L293 95.1126L289.7 90.2126C288 87.6126 284.3 83.9126 281.6 82.1126C274.9 77.7126 269.9 77.7126 260.9 82.4126C251.6 87.2126 241.1 90.5126 230.3 91.9126C214.9 93.9126 186.1 89.4126 168.8 82.4126C158 78.0126 157.3 78.4126 146.9 91.8126C143.3 96.6126 142 99.1126 142 101.613C142 106.313 145.7 109.913 150.5 109.913C154.2 109.913 156.1 108.513 161.1 102.113L163.6 98.9126L169 100.713C185.2 106.313 213.8 110.513 228 109.313C239.6 108.413 253.2 104.813 263.5 100.013L272.1 96.0126L274.9 100.013C276.5 102.213 279 107.213 280.5 111.213L283.1 118.413L280.1 130.013C266.9 181.313 234.2 217.313 205.6 212.013C178.7 207.013 152.3 171.613 141.5 125.913C140 119.613 137.7 112.213 136.3 109.413C122.3 81.8126 125.1 49.7126 142.9 33.6126C158 19.9126 192.2 13.4126 223.5 18.1126ZM193.5 226.413C210.6 232.213 231.6 228.813 245.8 218.213L249.1 215.713L248.8 219.213C248.5 222.313 246.5 224.413 230.1 239.313C220 248.513 211.3 255.813 210.9 255.713C210.5 255.513 201.8 247.813 191.6 238.613C175.6 224.113 173 221.413 173 218.913V216.013L179.3 219.913C182.7 222.013 189.1 225.013 193.5 226.413ZM213.9 279.613L216 281.413L213.6 284.413L211.3 287.313L208.7 284.413L206.1 281.413L208.3 279.713C211.1 277.513 211.3 277.513 213.9 279.613ZM194.3 293.913L197.2 298.013L192 320.713C189.1 333.213 186.5 343.813 186.2 344.313C185.9 344.913 183.2 334.713 180.3 321.913C177.3 309.013 175.2 298.313 175.7 298.113C176.1 297.913 179.4 296.013 183 293.913C186.6 291.813 190 290.013 190.5 290.013C191.1 290.013 192.8 291.713 194.3 293.913ZM239.6 294.113C243.7 296.413 246.9 298.813 246.7 299.413C246.5 299.913 243.9 310.613 240.9 323.113C238 335.613 235.4 345.713 235.3 345.513C235.2 345.413 232.8 334.613 230 321.513L225 297.813L228.2 293.813C229.9 291.713 231.5 289.913 231.8 289.913C232 289.913 235.6 291.813 239.6 294.113ZM218.7 351.113L225.9 385.413L218.2 417.613C214 435.313 210.2 449.513 209.9 449.113C209.5 448.713 206 434.113 202 416.713L194.7 385.013L202.6 350.913C206.9 332.213 210.6 316.913 211 316.913C211.3 316.913 214.8 332.313 218.7 351.113Z" fill="#106194"/>
<path d="M357.3 28.9126C352.6 30.0126 345.4 34.5126 343 37.8126C341.9 39.4126 340.1 42.7126 339 45.1126C337.1 49.2126 337 51.8126 337.1 104.413C337.1 143.913 337.5 160.313 338.3 162.613C341.9 172.213 350.9 179.313 361.3 180.713L366.7 181.413L356.3 200.413C347.7 216.213 346 219.913 346.5 222.413C347.2 226.213 349.7 228.713 353.6 229.513C356.4 230.013 360.2 227.713 393.1 205.713L429.5 181.413L461 180.913C491 180.413 492.7 180.313 496.6 178.213C503.1 174.713 506.7 171.213 509.5 165.513L512 160.313L511.8 103.313L511.5 46.2126L508.5 41.3126C505.2 36.0126 498.1 30.6126 492.2 28.9126C487.9 27.7126 362.3 27.7126 357.3 28.9126ZM488.9 46.2126C490.2 46.8126 492.3 48.7126 493.4 50.2126C495.5 53.0126 495.5 54.1126 495.8 100.713C496 126.913 495.8 150.313 495.5 152.713C495.1 155.413 493.8 158.213 492 160.213L489.2 163.413L456.3 163.913L423.5 164.413L401.8 179.113C389.8 187.213 380 193.713 380 193.513C380 193.313 382.3 189.113 385 184.113C390.4 174.313 391.1 170.513 388.1 166.813C386.3 164.513 385.3 164.413 373 163.913L359.8 163.413L356.9 160.113L354 156.913V104.813C354 69.9126 354.4 52.1126 355.1 50.8126C355.6 49.7126 357.6 47.9126 359.3 46.9126C362.4 45.0126 364.9 44.9126 424.5 44.9126C471.7 44.9126 487.1 45.2126 488.9 46.2126Z" fill="#106194"/>
<path d="M374.6 64.0126C371 66.8126 370.9 72.9126 374.5 76.4126L376.9 78.9126H424.4H471.9L474.6 76.5126C476.7 74.7126 477.4 73.3126 477.4 70.4126C477.4 67.5126 476.7 66.1126 474.6 64.3126L471.9 61.9126H424.6C378.2 61.9126 377.2 61.9126 374.6 64.0126Z" fill="#106194"/>
<path d="M374.2 97.2126C371.4 100.113 371.3 105.813 373.9 109.013L375.8 111.413H424.3C469.7 111.413 472.9 111.313 474.8 109.613C478.5 106.213 478.2 99.3126 474.2 96.3126C472.9 95.2126 462.3 95.0126 424.4 94.9126H376.3L374.2 97.2126Z" fill="#106194"/>
<path d="M374.2 130.213C371.9 132.713 371.3 137.713 373 140.913C375 144.613 378.9 144.913 424.7 144.913C473.8 144.913 474.8 144.813 476.8 139.013C478.1 135.313 476.7 130.413 474 128.913C472.8 128.313 453.6 127.913 424.2 127.913H376.3L374.2 130.213Z" fill="#106194"/>
<path d="M82.3 374.912C81.1 375.412 79.7 376.712 79.1 377.812C78.3 379.112 78 400.412 78 443.712V507.612L80.3 509.712C83.2 512.512 88.9 512.612 92.1 510.012L94.5 508.112V443.412V378.712L91.7 376.312C88.8 373.812 86.1 373.412 82.3 374.912Z" fill="#106194"/>
<path d="M332.3 374.912C331.1 375.412 329.7 376.712 329.1 377.812C328.3 379.112 328 400.412 328 443.712V507.612L330.3 509.712C333.2 512.512 338.9 512.612 342.1 510.012L344.5 508.112V443.412V378.712L341.7 376.312C338.8 373.812 336.1 373.412 332.3 374.912Z" fill="#106194"/>
</svg>
