<svg width="54" height="60" viewBox="0 0 54 60" fill="none" xmlns="http://www.w3.org/2000/svg">
<path d="M1.91959 0.269531C1.19303 0.609375 0.560216 1.30078 0.267247 2.0625C0.0563093 2.61328 0.0445906 3.24609 0.0445906 19.8984V37.1719L0.372716 37.4531C0.771153 37.793 1.14615 37.8164 1.55631 37.4883L1.861 37.2539L1.88443 20.0508C1.91959 3.85547 1.93131 2.84766 2.13053 2.54297C2.236 2.36719 2.47037 2.13281 2.64615 2.02734C2.95084 1.82812 3.99381 1.81641 20.8219 1.78125C32.4587 1.76953 38.8337 1.79297 39.1149 1.875C39.3493 1.93359 39.7008 2.15625 39.8883 2.34375L40.2399 2.70703L40.2751 16.8633L40.2985 31.0195L39.3962 31.1719C38.2008 31.3594 36.8063 31.8047 35.7868 32.3203C29.2594 35.5898 27.0797 43.8047 31.111 49.8984C31.861 51.0117 33.2438 52.4648 34.1344 53.0625L34.7087 53.4375H18.8649C1.56803 53.4375 2.62272 53.4844 2.14225 52.7695C1.93131 52.4648 1.91959 52.0898 1.861 46.3711C1.8024 40.5234 1.79068 40.2891 1.57975 40.125C1.25162 39.8906 0.618809 39.9141 0.349278 40.1836C0.220372 40.3125 0.0797468 40.5938 0.0445906 40.8047C0.00943432 41.0156 -0.0140032 43.8047 0.00943431 46.9922L0.0445906 52.793L0.372716 53.4609C0.724278 54.1758 1.13443 54.5859 1.90787 54.9844C2.28287 55.1836 2.65787 55.2539 3.59537 55.2891L4.79068 55.3359V56.4141C4.79068 57.2812 4.83756 57.5859 5.07193 58.0664C5.44693 58.8984 5.86881 59.3438 6.57193 59.6953L7.18131 60H25.8258H44.4704L45.0798 59.6953C45.4196 59.5312 45.8649 59.1797 46.0876 58.9219C46.7321 58.1719 46.861 57.6211 46.861 55.6758V53.9648L47.7165 53.4375C48.6891 52.8398 50.2712 51.3633 51.0446 50.3438C51.7477 49.3945 52.6618 47.4961 52.9548 46.3477C53.4587 44.4258 53.4587 41.9766 52.9548 40.0195C52.6501 38.8594 51.7712 36.9844 51.4548 36.8086C51.0563 36.5977 50.6227 36.6562 50.318 36.9727C49.9196 37.3594 49.943 37.6523 50.4821 38.8008C52.2985 42.6797 51.5719 47.1094 48.6423 50.1797C47.5993 51.2695 46.7438 51.8789 45.4079 52.5C43.8844 53.2148 43.0641 53.3789 41.1774 53.3672C39.2673 53.3555 38.2946 53.1445 36.7477 52.3828C34.0993 51.0938 32.0251 48.5508 31.2633 45.6445C30.9118 44.3203 30.9118 42.0469 31.2633 40.7227C31.6266 39.3398 32.529 37.5938 33.4196 36.5508C36.8415 32.543 42.5133 31.7578 46.9548 34.6875C48.1149 35.4492 48.5719 35.5547 48.9704 35.1562C49.1227 35.0039 49.2048 34.7695 49.2048 34.4531C49.2048 34.0312 49.1462 33.9492 48.6071 33.5156C48.2907 33.2578 47.7633 32.9062 47.4352 32.7305L46.861 32.4023V24.5859V16.7695L46.5563 16.5352C46.029 16.125 45.443 16.2305 45.1618 16.7695C45.0094 17.0508 44.986 18.2109 44.986 24.3516V31.5938L44.1423 31.3945C43.6735 31.2773 43.0407 31.1602 42.736 31.1133L42.1735 31.043V18.7852V6.53906L43.1813 6.57422C44.1657 6.62109 44.1891 6.63281 44.5876 7.05469L44.986 7.5V10.3711C44.986 12.668 45.0212 13.3242 45.1618 13.582C45.443 14.1211 46.029 14.2266 46.5563 13.8164L46.861 13.582V10.3945C46.861 7.30078 46.8493 7.19531 46.5798 6.62109C46.2633 5.91797 45.7243 5.35547 45.0563 5.01562C44.6813 4.81641 44.3063 4.74609 43.3923 4.71094L42.1969 4.66406L42.1501 3.52734C42.0798 1.86328 41.529 0.867188 40.3219 0.269531C39.9118 0.0703125 39.0446 0.0585938 21.1969 0.0351562L2.50553 0L1.91959 0.269531ZM44.8571 57.3281C44.7868 57.5156 44.5524 57.7852 44.3532 57.9258L43.9899 58.1836H25.8844C8.7985 58.1836 7.75553 58.1719 7.40397 57.9727C6.85318 57.6797 6.66568 57.2344 6.66568 56.2031V55.3125L24.9235 55.2773C42.7243 55.2422 43.193 55.2422 44.0485 55.0078L44.9274 54.7734L44.9626 55.8867C44.986 56.5547 44.9391 57.1289 44.8571 57.3281Z" fill="#137AB6"/>
<path d="M6.02124 4.85156C5.58765 5.05078 5.08374 5.57812 4.91968 6.01172C4.82593 6.23438 4.79077 8.98828 4.79077 14.4023V22.4648L5.0603 22.9805C5.23608 23.2969 5.50562 23.5898 5.79858 23.7539L6.25562 24.0234H12.8064H19.3572L19.8611 23.7305C20.1892 23.543 20.4353 23.2734 20.5994 22.9336C20.8455 22.4297 20.8455 22.3125 20.8455 14.3789C20.8455 7.79297 20.8103 6.24609 20.6814 5.94141C20.4939 5.48438 19.9666 4.98047 19.5212 4.81641C18.9939 4.61719 6.47827 4.65234 6.02124 4.85156ZM18.947 12.293L18.9705 17.9648L18.7244 17.6602C18.3845 17.2148 17.2712 16.3828 16.5447 16.0078L15.9236 15.7031L16.322 15.1758C16.8962 14.4375 17.1541 13.5938 17.1423 12.5391C17.1306 11.2734 16.7791 10.4414 15.8767 9.53906C14.4939 8.15625 12.5134 7.83984 10.7673 8.73047C10.0291 9.10547 9.19702 10.0078 8.8103 10.8398C8.52905 11.4492 8.48218 11.6953 8.48218 12.5977C8.48218 13.5117 8.52905 13.7461 8.8103 14.3555C8.9978 14.7422 9.27905 15.1992 9.4314 15.3633L9.73608 15.6797L8.92749 16.1016C8.4939 16.3359 7.80249 16.8164 7.40405 17.1797L6.66577 17.8359V12.2695C6.66577 9.22266 6.70093 6.67969 6.7478 6.64453C6.78296 6.59766 9.54858 6.57422 12.865 6.58594L18.9119 6.62109L18.947 12.293ZM13.615 10.2656C14.3181 10.5 15.0212 11.2852 15.2087 12.0352C15.4314 12.8789 15.2087 13.6172 14.5291 14.2969C13.4158 15.3984 12.0212 15.3633 10.9666 14.1914C10.2869 13.4414 10.1345 12.3633 10.5798 11.4961C10.9783 10.7578 11.9861 10.1016 12.7712 10.0781C12.9353 10.0781 13.3103 10.1602 13.615 10.2656ZM14.283 17.168C16.3337 17.707 17.9509 19.1953 18.6306 21.1758C18.7478 21.5391 18.8533 21.9023 18.8533 21.9961C18.8533 22.125 17.7869 22.1484 12.8064 22.1484H6.75952L6.84155 21.7031C7.08765 20.3086 8.47046 18.4922 9.82983 17.7539C11.1775 17.0391 12.9119 16.8047 14.283 17.168Z" fill="#137AB6"/>
<path d="M23.822 4.85156C22.9783 5.22656 22.6736 6.04688 22.7439 7.85156C22.7908 9.24609 22.9665 9.70312 23.6579 10.1602L24.0447 10.4297H30.0915C35.9158 10.4297 36.1501 10.418 36.5251 10.1953C37.2517 9.75 37.3689 9.39844 37.3689 7.54688C37.3689 6.02344 37.3455 5.85938 37.1111 5.50781C36.9587 5.29688 36.654 5.02734 36.4314 4.91016C36.0564 4.69922 35.6462 4.6875 30.1033 4.6875C25.4158 4.69922 24.115 4.73438 23.822 4.85156ZM35.4939 7.55859V8.55469H30.0447H24.5954V7.55859V6.5625H30.0447H35.4939V7.55859Z" fill="#137AB6"/>
<path d="M23.1189 13.0547C22.6853 13.418 22.6619 14.1094 23.0603 14.4258C23.3181 14.6367 23.658 14.6484 30.115 14.6484C36.7478 14.6484 36.9002 14.6484 37.1345 14.4141C37.4978 14.0508 37.451 13.3242 37.0642 13.0195C36.7595 12.7734 36.6541 12.7734 30.0916 12.7734H23.4353L23.1189 13.0547Z" fill="#137AB6"/>
<path d="M23.1189 17.7305C22.6853 18.1055 22.6619 18.7852 23.0603 19.1133C23.3181 19.3242 23.658 19.3359 30.115 19.3359C36.7478 19.3359 36.9002 19.3359 37.1345 19.1016C37.4627 18.7734 37.451 18.0469 37.1228 17.7422C36.8885 17.5312 36.572 17.5195 30.1619 17.4844L23.447 17.4609L23.1189 17.7305Z" fill="#137AB6"/>
<path d="M23.3064 22.3008C22.7322 22.5938 22.6033 23.332 23.0369 23.8125C23.2127 24.0117 23.7048 24.0234 30.0681 24.0234C36.7478 24.0234 36.9002 24.0234 37.1345 23.7891C37.4627 23.4609 37.4509 22.7344 37.1228 22.4297C36.8884 22.2188 36.5837 22.207 30.2322 22.1836C25.0642 22.1602 23.5408 22.1836 23.3064 22.3008Z" fill="#137AB6"/>
<path d="M5.02515 27.1875C4.88452 27.3281 4.79077 27.5742 4.79077 27.832C4.79077 28.0898 4.88452 28.3359 5.02515 28.4766C5.2478 28.6992 5.41187 28.7109 7.77905 28.7109C10.1462 28.7109 10.3103 28.6992 10.533 28.4766C10.6736 28.3359 10.7673 28.0898 10.7673 27.832C10.7673 27.5742 10.6736 27.3281 10.533 27.1875C10.3103 26.9648 10.1462 26.9531 7.77905 26.9531C5.41187 26.9531 5.2478 26.9648 5.02515 27.1875Z" fill="#137AB6"/>
<path d="M13.7087 27.2578C13.5681 27.4336 13.4626 27.6914 13.4626 27.832C13.4626 27.9727 13.5681 28.2305 13.7087 28.4062L13.9431 28.7109H19.0408C23.9744 28.7109 24.1384 28.6992 24.3611 28.4766C24.5017 28.3359 24.5955 28.0898 24.5955 27.832C24.5955 27.5742 24.5017 27.3281 24.3611 27.1875C24.1384 26.9648 23.9744 26.9531 19.0408 26.9531H13.9431L13.7087 27.2578Z" fill="#137AB6"/>
<path d="M5.02517 31.8983C4.72048 32.2264 4.72048 32.8592 5.01345 33.1522C5.35329 33.492 5.81032 33.5389 8.17751 33.492C10.2634 33.4569 10.322 33.4452 10.5447 33.1756C10.8377 32.8123 10.8377 32.1795 10.533 31.8748C10.3103 31.6522 10.1463 31.6405 7.77907 31.6405C5.34157 31.6405 5.25954 31.6522 5.02517 31.8983Z" fill="#137AB6"/>
<path d="M13.7087 31.9453C13.3806 32.3555 13.404 32.7305 13.7439 33.1289L14.0251 33.457H19.0876H24.1501L24.3728 33.1758C24.6658 32.8125 24.6658 32.1797 24.3611 31.875C24.1384 31.6523 23.9744 31.6406 19.0408 31.6406H13.9431L13.7087 31.9453Z" fill="#137AB6"/>
<path d="M5.04843 36.5977C4.73203 36.9375 4.72031 37.5 5.01328 37.8633C5.23593 38.1445 5.24765 38.1445 7.7789 38.1445C10.3102 38.1445 10.3219 38.1445 10.5445 37.8633C10.8492 37.4883 10.8375 36.9023 10.4977 36.5859C10.2398 36.3398 10.1344 36.3281 7.76718 36.3281C5.3414 36.3281 5.29453 36.3281 5.04843 36.5977Z" fill="#137AB6"/>
<path d="M13.7554 36.6213C13.2984 37.0783 13.439 37.84 14.0367 38.0861C14.2476 38.1682 15.8765 38.2033 19.2281 38.1799C23.8336 38.1447 24.1148 38.133 24.3492 37.9221C24.6773 37.6174 24.689 36.8908 24.3609 36.5627C24.1382 36.34 23.9742 36.3283 19.0875 36.3283H14.0367L13.7554 36.6213Z" fill="#137AB6"/>
<path d="M44.4001 37.4883C43.7439 37.6875 43.3337 38.0274 41.7166 39.6563L40.0173 41.3555L39.4548 40.8281C38.6814 40.1016 38.072 39.8438 37.1345 39.8438C35.8923 39.8438 34.8611 40.4649 34.2869 41.543C33.9236 42.2109 33.9236 43.6875 34.2869 44.3555C34.6033 44.9297 38.0955 48.4102 38.658 48.7031C39.2673 49.0313 40.7791 49.0078 41.4119 48.668C41.6697 48.5274 43.2869 47.0039 45.0095 45.2695C48.033 42.2344 48.1384 42.1055 48.3259 41.4375C48.572 40.5703 48.49 39.7617 48.0564 38.9649C47.6931 38.3086 46.9431 37.6875 46.2986 37.5C45.8064 37.3711 44.8337 37.3594 44.4001 37.4883ZM45.9939 39.4805C46.4744 39.7734 46.7087 40.418 46.5212 40.8867C46.4392 41.0625 45.0681 42.5156 43.4626 44.1211L40.533 47.0508H40.0056C39.4783 47.0508 39.4666 47.0391 37.697 45.2578C35.9041 43.4766 35.9041 43.4766 35.9041 42.9375C35.9041 42.4805 35.9626 42.3516 36.2908 42.0586C36.5837 41.8008 36.783 41.7188 37.1462 41.7188C37.5916 41.7188 37.7087 41.7891 38.5876 42.6563C39.4548 43.5 39.5955 43.5938 40.0056 43.5938C40.4275 43.5938 40.5681 43.4883 42.6423 41.4258C44.6228 39.457 44.8689 39.2578 45.2322 39.2578C45.4548 39.2578 45.7947 39.3633 45.9939 39.4805Z" fill="#137AB6"/>
<path d="M5.04838 41.4023C4.69682 41.7773 4.70854 42.3516 5.08354 42.7148C5.36479 43.0078 5.3765 43.0078 7.77885 43.0078C10.1812 43.0078 10.1929 43.0078 10.4742 42.7148C10.8609 42.3398 10.8726 41.7422 10.4976 41.3906C10.2398 41.1445 10.1343 41.1328 7.76713 41.1328C5.34135 41.1328 5.29447 41.1328 5.04838 41.4023Z" fill="#137AB6"/>
<path d="M13.8024 41.3553C13.5915 41.5193 13.5211 41.6951 13.5211 42.0584C13.5211 42.9842 13.2868 42.949 18.9586 42.9842C23.904 43.0193 23.9743 43.0076 24.279 42.7732C24.7008 42.4451 24.7243 41.7537 24.3258 41.3904C24.0563 41.1326 24.0211 41.1326 19.0641 41.1326C14.3415 41.1326 14.0602 41.1443 13.8024 41.3553Z" fill="#137AB6"/>
<path d="M5.08374 46.2305C4.89624 46.4062 4.79077 46.6523 4.79077 46.875C4.79077 47.0977 4.89624 47.3438 5.08374 47.5195C5.36499 47.8125 5.37671 47.8125 7.75562 47.8125C10.0056 47.8125 10.1697 47.8008 10.4626 47.5664C10.697 47.3789 10.7673 47.2266 10.7673 46.875C10.7673 46.5234 10.697 46.3711 10.4626 46.1836C10.1697 45.9492 10.0056 45.9375 7.75562 45.9375C5.37671 45.9375 5.36499 45.9375 5.08374 46.2305Z" fill="#137AB6"/>
<path d="M13.8025 46.1602C13.5916 46.3242 13.5212 46.5 13.5212 46.875C13.5212 47.25 13.5916 47.4258 13.8025 47.5898C14.0603 47.8008 14.3416 47.8125 19.0759 47.8125H24.0916L24.3376 47.543C24.7126 47.1445 24.6892 46.5 24.2908 46.1836C23.9861 45.9492 23.8572 45.9375 19.0291 45.9375C14.3416 45.9375 14.0603 45.9492 13.8025 46.1602Z" fill="#137AB6"/>
</svg>
