<svg width="56" height="77" viewBox="0 0 56 77" fill="none" xmlns="http://www.w3.org/2000/svg">
<path d="M24.2131 0.16712C21.0281 0.73757 17.7321 2.08447 15.0067 3.93843C13.121 5.2061 10.4747 7.85235 9.20708 9.73801C6.57667 13.5886 5.21393 17.8828 5.21393 22.3038C5.21393 24.0785 5.19808 24.1419 4.83362 24.3162C4.1681 24.6173 3.26489 25.5205 2.97966 26.1701C2.71028 26.7406 2.67859 27.311 2.67859 31.6053C2.67859 36.8978 2.71028 37.1038 3.67688 38.1021C4.32656 38.7834 4.91285 39.0845 5.81607 39.2271C6.48159 39.3222 6.52913 39.3539 6.71928 39.9877C7.17881 41.5406 8.47817 42.9984 10.1261 43.8066C10.855 44.1552 11.2512 44.2344 12.6298 44.2978L14.2777 44.3453L15.4979 45.5655C16.7497 46.8014 18.3501 47.9582 19.6653 48.6079L20.4259 48.9723V50.652V52.3316L18.0966 53.4567C16.3694 54.2965 14.4521 55.0254 10.8392 56.2139C8.14541 57.1012 5.4833 58.052 4.9287 58.3055C2.91628 59.2721 1.18908 61.3321 0.42848 63.6456C0.127409 64.5805 0.0798713 65.1192 0.0164879 69.4768C-0.0152038 72.1073 0.000642046 74.5158 0.0481796 74.8327C0.111563 75.1338 0.301713 75.53 0.476017 75.7043C0.840472 76.0687 1.83876 76.1163 2.29829 75.7835C2.58351 75.5616 2.59936 75.2606 2.67859 70.3484C2.78951 64.5329 2.85289 64.1368 4.00964 62.5522C5.03962 61.1578 5.76853 60.7933 11.2353 58.971L16.2268 57.3072L19.6812 60.7458C22.2799 63.3287 23.2623 64.422 23.5951 65.0717L24.0388 65.9591L22.787 70.3484C21.5985 74.5158 21.551 74.7852 21.757 75.2764C22.0264 75.9103 22.6444 76.1796 23.405 75.9736C24.0705 75.7993 24.0863 75.7518 25.4174 71.0456L26.4949 67.2901H28.0161H29.5531L30.6465 71.1407C31.2328 73.2482 31.8191 75.1655 31.93 75.3873C32.342 76.1955 33.8157 76.2906 34.2118 75.53C34.497 74.9753 34.3703 74.2781 33.1977 70.1107L32.0251 65.9591L32.4688 65.0875C32.8015 64.422 33.784 63.3445 36.3827 60.7458L39.8371 57.3072L44.8127 58.971C47.554 59.8743 50.0418 60.7933 50.3587 60.9993C51.9433 62.0451 52.9891 63.7248 53.2268 65.5946C53.3061 66.2284 53.3853 68.6845 53.3853 71.0456C53.3853 75.1497 53.4011 75.3873 53.7022 75.6884C54.13 76.1163 55.1759 76.1163 55.6037 75.6884C55.9048 75.3873 55.9206 75.1655 55.9206 70.0948C55.9206 64.2636 55.8572 63.7565 54.9223 61.9976C54.1934 60.619 52.6088 59.0661 51.2461 58.3848C50.644 58.0837 47.9343 57.1012 45.2247 56.2139C41.6118 55.0254 39.6945 54.2965 37.9831 53.4567L35.6379 52.3316V50.6361V48.9406L36.1609 48.7346C37.2542 48.2909 39.4251 46.6588 40.7245 45.3119C42.2932 43.6957 43.1647 42.4755 44.0679 40.5899L44.7018 39.243H47.6649C50.1844 39.243 50.7073 39.1954 51.2619 38.9419C52.0225 38.5933 53.0208 37.4841 53.2427 36.7076C53.3378 36.359 53.3853 34.3466 53.3536 31.2884L53.3061 26.4395L52.8307 25.7423C52.5613 25.3779 52.0225 24.8391 51.6264 24.5856L50.8975 24.1102L50.8024 21.6541C50.6915 18.9761 50.4063 17.4232 49.5823 15.0781C46.936 7.61466 40.6452 2.11616 32.7698 0.341424C31.1853 -0.0230301 25.8928 -0.118105 24.2131 0.16712ZM31.518 2.89261C34.3386 3.39967 37.3176 4.63565 39.5836 6.23608C41.0414 7.26606 43.3549 9.56371 44.4165 11.0215C46.7617 14.2699 47.9502 17.8511 48.2354 22.3988L48.3305 24.031H47.047H45.7793V22.3196C45.7634 15.3633 41.3266 8.91403 34.7189 6.25192C29.6958 4.22366 23.5159 4.68319 18.984 7.39283C13.5805 10.6571 10.2846 16.2982 10.2846 22.3513V24.031H9.01693H7.73341L7.82849 22.3988C8.09787 17.962 9.28631 14.3491 11.5047 11.2117C13.1052 8.94571 15.8623 6.45792 18.2551 5.12687C22.1848 2.9243 27.0653 2.10031 31.518 2.89261ZM31.9776 8.16927C37.175 9.69047 41.1523 13.6678 42.6101 18.8177C42.9429 20.022 43.4024 24.7123 43.1964 24.9183C43.0063 25.1243 41.7861 24.4588 41.0731 23.7616C40.2966 23.001 39.5994 21.6699 39.5994 20.941C39.5994 20.1646 39.2983 19.2931 38.9656 19.1187C38.1574 18.6909 37.6821 18.8969 34.9407 20.8459C31.4388 23.3496 29.6482 24.2211 26.6058 24.9025C25.6392 25.1243 24.2765 25.1877 19.1266 25.2511L12.8199 25.3303V24.4113C12.8199 22.6841 13.1368 20.0061 13.4538 18.8177C14.975 13.3509 19.3801 9.19925 25.0212 7.94743C26.5741 7.59882 30.4405 7.72559 31.9776 8.16927ZM38.7754 25.3145C39.7262 26.3761 41.0572 27.2318 42.2774 27.5804L43.244 27.8498V30.0207C43.244 34.6794 42.7527 37.3415 41.4217 39.8293C39.33 43.7749 35.9073 46.4687 31.5973 47.562C27.2872 48.6554 22.3274 47.6096 18.8572 44.8524L18.16 44.3136H21.2975H24.4191L24.736 44.7098C25.3223 45.4545 25.7818 45.5813 28.0636 45.5813C30.4247 45.5813 30.9159 45.4229 31.518 44.4404C31.9459 43.7273 31.9459 42.3646 31.518 41.6515C30.9159 40.6691 30.4247 40.5106 28.0636 40.5106C25.7818 40.5106 25.3223 40.6374 24.736 41.3822L24.4191 41.7783H20.1407H15.8465L15.3394 41.0494C13.5488 38.4348 12.8199 35.2974 12.8199 30.0048V27.834H19.1583C24.736 27.834 25.6709 27.8023 27.0495 27.5329C30.1394 26.9307 32.6906 25.8057 35.527 23.7933L37.1433 22.6524L37.587 23.5714C37.8247 24.0626 38.3634 24.8549 38.7754 25.3145ZM10.2846 31.637V36.7076H8.46232C6.2756 36.7076 5.65761 36.5175 5.38823 35.7569C5.15054 35.0438 5.15054 28.2301 5.38823 27.517C5.65761 26.7564 6.22806 26.5821 8.43063 26.5663H10.2846V31.637ZM49.9626 26.7881C50.7707 27.1209 50.85 27.5646 50.85 31.637C50.85 33.9188 50.7866 35.4241 50.6757 35.7569C50.4063 36.5175 49.7883 36.7076 47.6016 36.7076H45.7793V31.637V26.5663H47.6016C48.8058 26.5663 49.614 26.6455 49.9626 26.7881ZM11.885 40.4314C12.4872 41.7149 12.4396 41.7941 11.4255 41.3663C10.7441 41.0969 9.88845 40.3046 9.55569 39.6708L9.318 39.243H10.3321H11.3304L11.885 40.4314ZM24.8311 50.4143C26.9069 50.8263 30.9951 50.6678 32.8174 50.0974C33.0709 50.0023 33.1026 50.0974 33.1026 51.2383V52.4743L30.5673 54.5025L28.0319 56.5149L25.4966 54.5025L22.9613 52.4743V51.2224C22.9613 50.0023 22.9771 49.9865 23.3257 50.0815C23.5159 50.1449 24.1972 50.2875 24.8311 50.4143ZM34.5921 58.5907C33.2135 59.9693 32.0251 61.1102 31.9776 61.1102C31.8666 61.1102 30.1236 58.8443 30.0602 58.6066C30.0285 58.5274 31.0268 57.6242 32.2786 56.61L34.5446 54.7719L35.8281 55.4216L37.1116 56.0713L34.5921 58.5907ZM23.8486 56.6892C25.0688 57.6558 26.0354 58.5274 26.0037 58.6066C25.9403 58.8443 24.1972 61.1102 24.0863 61.1102C24.0388 61.1102 22.8503 59.9693 21.4718 58.5907L18.9364 56.0554L20.109 55.5008C20.7587 55.1839 21.3767 54.9304 21.4718 54.9304C21.5668 54.9304 22.6444 55.7226 23.8486 56.6892ZM29.1887 62.061L30.2504 63.4871L29.981 64.0417L29.7116 64.5963H28.0319H26.3523L26.0829 64.0417L25.8135 63.4871L26.8752 62.061C27.4615 61.2687 27.9844 60.6349 28.0319 60.6349C28.0795 60.6349 28.6024 61.2687 29.1887 62.061Z" fill="#106194"/>
</svg>
