<svg width="718" height="539" viewBox="0 0 718 539" fill="none" xmlns="http://www.w3.org/2000/svg">
<path d="M120.138 4.3469C66.8024 8.36864 23.3671 45.9614 9.58089 97.8121C-10.6292 173.813 23.9851 234.453 99.1076 254.427C123.109 260.81 145.289 261.693 165.084 257.604C176.162 265.999 184.021 271.627 198.718 281.408C199.025 264.797 199.148 257.599 198.992 244.316C225.289 228.305 244.607 200.542 254.599 162.962C272.173 96.8735 236.628 27.8228 164.452 8.62945C150.026 4.7239 135.045 3.27613 120.138 4.3469Z" fill="white"/>
<path d="M187.588 115.168C188.466 114.406 189.498 113.843 190.614 113.517C191.73 113.191 192.903 113.109 194.053 113.277C195.182 113.438 196.26 113.85 197.209 114.482C198.158 115.115 198.953 115.952 199.535 116.932C200.212 118.282 200.597 119.759 200.666 121.268C201.159 127.173 200.019 133.101 197.37 138.403C196.121 141.084 194.308 143.463 192.055 145.38C190.225 146.863 188.043 147.847 185.721 148.235C185.721 148.235 185.325 148.295 184.636 148.401C184.116 150.345 183.533 151.983 183.245 152.853C181.408 157.837 171.152 175.064 158.221 181.426C158.39 184.326 158.734 187.214 159.251 190.072C159.882 193.694 159.683 196.95 164.716 198.76C165.065 198.877 179.368 205.688 179.866 205.904C179.866 205.904 175.812 233.38 133.353 233.38C90.8946 233.38 86.2549 206.678 86.2549 206.678C87.225 206.345 103.177 198.885 103.511 198.765C108.555 196.938 108.357 193.7 108.993 190.074C109.483 187.416 109.816 184.731 109.99 182.034C103.591 178.989 97.9673 174.53 93.5442 168.994C88.6138 162.935 85.0288 155.896 83.0272 148.345C79.9831 148.36 77.0302 147.307 74.683 145.368C72.43 143.452 70.6168 141.072 69.3672 138.391C66.7226 133.092 65.5837 127.169 66.0747 121.268C66.1428 119.758 66.5277 118.28 67.2043 116.929C67.7867 115.948 68.5816 115.111 69.5303 114.479C70.479 113.846 71.5574 113.435 72.6862 113.274C73.8365 113.105 75.0095 113.187 76.1253 113.513C77.2411 113.84 78.2734 114.403 79.1516 115.164C79.1516 115.164 77.7529 66.0629 131.893 67.0131C187.998 67.9966 187.588 115.168 187.588 115.168Z" fill="white"/>
<path d="M534.714 454.835C491.387 454.976 442.186 455.118 410.309 455.222C414.17 477.51 418.283 501.159 422.791 526.959L423.879 532.109C438.729 523.889 488.649 494.867 513.798 479.431C513.798 479.431 526.232 471.303 536.106 464.754C535.895 462.573 535.442 459.066 534.714 454.835Z" fill="white"/>
<path d="M569.667 241.935C587.08 235.48 587.367 224.522 587.505 218.145C587.719 210.301 586.559 202.48 584.076 195.036C580.993 184.817 575.34 164.068 576.061 127.379C577.372 116.791 576.882 101.408 576.644 95.496C575.814 74.9969 567.147 51.8316 554.006 38.6634C553.883 38.5404 553.738 38.4075 553.59 38.2763L542.851 29.9172C542.6 29.7328 542.352 29.56 542.078 29.3823C536.877 25.9031 531.273 23.0693 525.388 20.9435C513.32 16.221 500.455 13.8652 487.496 14.0047C466.05 13.7388 445.226 21.2118 428.843 35.0536C407.183 54.1573 395.817 80.429 399.154 123.864C403.824 156.475 391.782 191.963 394.217 218.853C394.923 226.918 398.945 236.627 410.113 244.296L569.667 241.935Z" fill="#957F6E"/>
<path d="M545.863 127.004C550.395 122.577 558.187 122.566 563.355 126.23C565.864 128.179 567.859 130.711 569.167 133.606C570.475 136.501 571.056 139.671 570.86 142.842C570.389 149.204 568.04 155.282 564.111 160.308C559.067 166.95 552.33 172.114 544.605 175.259C539.87 183.635 533.826 191.2 526.703 197.668C518.732 205.431 509.092 211.267 498.519 214.73C486.362 218.514 473.382 218.774 461.084 215.479C454.46 213.751 448.143 211.01 442.357 207.353C435.694 202.901 429.924 197.24 425.345 190.665C419.6 182.848 415.2 174.128 412.328 164.863C409.597 156.469 407.795 147.8 406.954 139.013C406.336 133.667 406.145 130.509 406.05 127.141C418.037 118.934 432.915 112.846 444.658 109.07C467.333 101.779 486.777 89.3218 495.238 79.3181C501.235 96.9517 522.44 118.732 534.761 121.029L545.863 127.004Z" fill="white"/>
<path d="M556.602 224.156C549.957 220.286 538.213 211.199 536.668 208.076C534.179 203.521 532.212 198.701 530.802 193.707C529.339 195.215 527.955 196.531 526.701 197.67C518.731 205.433 509.091 211.269 498.518 214.732C486.362 218.516 473.382 218.776 461.083 215.481C460.823 215.412 460.565 215.34 460.314 215.277C459.457 216.101 458.467 216.772 457.384 217.262C448.513 221.183 442.716 223.11 436.137 225.95C436.137 225.95 437.466 235.956 444.749 240.329C453.243 245.53 462.805 248.738 472.717 249.714C488.031 251.132 503.471 250.249 518.523 247.092C518.523 247.092 534.085 243.283 545.529 235.162C549.594 231.89 553.306 228.202 556.602 224.156Z" fill="white"/>
<path d="M527.036 195.059C528.311 199.401 529.979 203.618 532.02 207.656C532.7 209.211 533.571 210.675 534.613 212.015C535.437 212.981 536.325 213.891 537.271 214.738C542.574 219.62 548.376 223.93 554.582 227.597C559.016 230.2 563.034 223.311 558.605 220.711C553.066 217.477 547.887 213.66 543.156 209.327C542.244 208.497 541.372 207.64 540.543 206.729C540.465 206.641 540.389 206.553 540.314 206.463C540.048 206.131 540.126 206.235 540.547 206.774C540.462 206.754 540.279 206.394 540.246 206.329C539.88 205.581 539.493 204.842 539.126 204.096C537.293 200.531 535.815 196.794 534.714 192.94C533.329 188.008 525.632 190.102 527.024 195.059H527.036Z" fill="#211715"/>
<path d="M438.146 229.394L438.79 229.118C439.819 228.678 438.362 229.284 438.956 229.048C439.38 228.882 439.802 228.698 440.224 228.523C441.171 228.138 442.12 227.758 443.071 227.382C444.985 226.626 446.904 225.887 448.817 225.123C451.106 224.216 453.386 223.282 455.655 222.32C458.281 221.381 460.736 220.019 462.924 218.289C463.667 217.538 464.083 216.525 464.083 215.47C464.083 214.414 463.667 213.401 462.924 212.651C462.164 211.926 461.155 211.522 460.105 211.522C459.055 211.522 458.046 211.926 457.286 212.651C457.166 212.754 456.806 213.048 457.14 212.797C456.924 212.963 456.691 213.107 456.46 213.249C455.9 213.573 455.318 213.859 454.72 214.106C454.166 214.349 453.606 214.593 453.042 214.835L452.028 215.267C452.399 215.109 451.902 215.318 451.799 215.362C449.766 216.209 447.724 217.035 445.674 217.839C441.809 219.362 437.938 220.865 434.121 222.508C433.21 223.044 432.548 223.918 432.28 224.941C432.012 225.963 432.159 227.05 432.69 227.963C433.246 228.852 434.12 229.495 435.134 229.761C436.148 230.027 437.225 229.895 438.146 229.394Z" fill="#211715"/>
<path d="M544.866 26.4705C535.065 19.4786 522.954 15.0216 511.244 12.4816C498.097 9.62068 484.533 9.22639 471.242 11.3188C450.664 14.5661 431.83 24.7959 417.905 40.29C404.362 55.5364 397.389 74.5304 395.312 94.6508C394.713 100.673 394.48 106.727 394.616 112.778C394.746 119.539 395.666 126.182 396.047 132.916C396.811 146.488 395.276 160.062 393.528 173.501C391.887 186.108 389.837 198.791 389.892 211.542C389.727 216.741 390.371 221.934 391.801 226.935C393.582 232.288 396.52 237.182 400.407 241.271C402.739 243.685 405.314 245.853 408.09 247.739C409.005 248.264 410.09 248.408 411.11 248.14C412.131 247.873 413.005 247.215 413.546 246.309C414.058 245.391 414.196 244.31 413.929 243.293C413.662 242.276 413.012 241.402 412.115 240.854C407.538 237.753 403.776 233.593 401.151 228.727C399.282 225 398.223 220.92 398.043 216.755C397.302 204.932 398.935 193.048 400.474 181.352C402.173 168.431 404.014 155.484 404.21 142.432C404.309 135.787 403.558 129.345 403.058 122.753C402.583 116.537 402.449 110.299 402.656 104.068C403.313 84.9644 408.06 66.2112 419.601 50.7322C430.614 36.1758 446.188 25.73 463.835 21.0633C486.914 14.973 511.428 17.608 532.685 28.4639C535.51 29.913 538.236 31.5467 540.846 33.3545C541.761 33.8801 542.846 34.0247 543.867 33.7571C544.888 33.4895 545.762 32.8311 546.302 31.9242C546.812 31.0056 546.948 29.9252 546.68 28.9088C546.413 27.8925 545.763 27.0188 544.866 26.4705Z" fill="#211715"/>
<path d="M570.727 245.776C579.171 242.575 586.818 237.47 589.964 228.644C592.506 221.524 591.78 212.697 590.657 205.454C589.57 198.436 587.099 191.741 585.414 184.855C583.747 178.016 582.497 171.081 581.67 164.09C580.294 151.901 579.752 139.632 580.048 127.368L577.121 131.214H577.13C577.954 130.952 578.677 130.442 579.2 129.754C579.724 129.066 580.022 128.234 580.055 127.37C581.327 115.72 581.458 103.973 580.449 92.2971C579.377 78.5908 575.544 65.2426 569.183 53.0548C565.935 46.5166 561.621 40.5654 556.416 35.4462C552.662 31.9577 547.011 37.5809 550.778 41.0843C559.596 49.2873 565.161 61.286 568.624 72.6253C572 83.6756 572.829 94.7956 572.944 106.274C573.11 113.318 572.824 120.365 572.085 127.372L575.012 123.528C574.182 123.78 573.452 124.287 572.927 124.977C572.402 125.667 572.107 126.505 572.085 127.372C571.494 146.016 573.077 164.665 576.802 182.943C577.939 188.153 579.46 193.229 580.911 198.353C582.452 203.546 583.333 208.913 583.532 214.327C583.578 216.134 583.555 217.945 583.484 219.752C583.464 220.239 583.441 220.724 583.404 221.211C583.382 221.516 583.351 221.822 583.324 222.127C583.228 223.275 583.384 221.961 583.261 222.657C582.921 225.498 581.824 228.195 580.083 230.465C577.009 233.979 573.052 236.607 568.621 238.08C567.617 238.386 566.769 239.064 566.251 239.977C565.733 240.889 565.584 241.965 565.835 242.984C566.123 243.999 566.8 244.86 567.717 245.381C568.635 245.902 569.721 246.041 570.741 245.768L570.727 245.776Z" fill="#211715"/>
<path d="M548.687 129.823C552.155 126.605 557.903 126.977 561.509 129.793C565.828 133.169 567.393 139.157 566.767 144.412C565.232 157.324 553.869 166.893 542.68 171.776C541.772 172.315 541.113 173.19 540.845 174.211C540.578 175.232 540.723 176.317 541.249 177.232C541.802 178.125 542.676 178.771 543.691 179.037C544.707 179.303 545.786 179.169 546.705 178.662C558.471 173.527 568.559 164.349 573.031 152.111C577.252 140.558 573.814 125.482 561.38 120.753C558.304 119.576 554.962 119.274 551.725 119.88C548.487 120.485 545.481 121.975 543.038 124.185C539.269 127.682 544.917 133.31 548.677 129.823H548.687Z" fill="#211715"/>
<path d="M542.514 173.311C536.521 176.462 530.296 179.151 523.894 181.354C517.144 183.595 510.174 185.009 503.247 186.574C498.243 187.7 500.361 195.39 505.366 194.262C512.542 192.835 519.636 191.025 526.618 188.84C533.458 186.444 540.116 183.558 546.539 180.201C551.107 177.861 547.077 170.978 542.514 173.316V173.311Z" fill="#211715"/>
<path d="M494.635 185.842C493.879 186.486 493.264 187.28 492.829 188.173C492.394 189.067 492.149 190.04 492.108 191.033C492.068 192.026 492.233 193.016 492.593 193.942C492.954 194.868 493.502 195.709 494.203 196.413C495.447 197.478 496.912 198.253 498.492 198.684C500.071 199.115 501.727 199.19 503.339 198.905C506.851 198.407 511.192 194.461 511.313 190.46C511.438 186.579 506.506 183.798 502.187 183.345C500.821 183.156 499.43 183.282 498.12 183.715C496.811 184.148 495.619 184.875 494.635 185.842Z" fill="#211715"/>
<path d="M544.967 162.656C543.739 168.508 542.134 174.275 540.162 179.921C540.078 180.688 540.229 181.462 540.595 182.142C540.96 182.821 541.522 183.374 542.208 183.728C544.33 184.873 546.689 185.505 549.099 185.574C549.854 185.708 550.633 185.633 551.349 185.357C552.065 185.08 552.691 184.613 553.16 184.006C555.858 177.754 557.642 171.146 558.456 164.385L544.967 162.656Z" fill="#211715"/>
<path d="M537.96 183.727C542.633 180.037 546.348 175.275 548.79 169.845C549.297 168.905 549.44 167.811 549.192 166.772C548.908 165.774 548.255 164.922 547.364 164.39C546.904 164.123 546.396 163.95 545.869 163.881C545.342 163.812 544.806 163.848 544.293 163.988C543.794 164.118 543.326 164.347 542.917 164.661C542.508 164.975 542.165 165.367 541.909 165.815C541.355 167.06 540.727 168.27 540.03 169.441C539.662 170.056 539.275 170.659 538.867 171.25C538.687 171.516 538.501 171.78 538.311 172.041C538.205 172.185 538.097 172.328 537.992 172.473C537.593 173.018 538.46 171.883 538.158 172.262C536.442 174.423 534.482 176.378 532.317 178.088C531.947 178.459 531.654 178.899 531.455 179.384C531.255 179.869 531.153 180.388 531.154 180.912C531.159 181.969 531.577 182.982 532.317 183.736C533.069 184.481 534.083 184.898 535.141 184.899C536.187 184.84 537.182 184.43 537.965 183.736L537.96 183.727Z" fill="#211715"/>
<path d="M563.088 143.217C565.192 146.832 566.113 151.014 565.722 155.178C565.667 159.032 564.414 162.774 562.136 165.884C560.833 167.459 559.085 168.603 557.121 169.166C555.157 169.729 553.068 169.686 551.129 169.04C549.195 168.207 547.521 166.869 546.28 165.168C544.47 162.819 543.23 160.081 542.658 157.171C542.086 154.261 542.199 151.258 542.986 148.398C543.399 146.484 544.222 144.682 545.397 143.115C546.573 141.549 548.074 140.255 549.796 139.323C553.571 137.463 560.579 138.219 563.096 143.212" fill="white"/>
<path d="M559.651 145.234C560.917 147.569 561.661 150.15 561.833 152.8C562.005 155.45 561.601 158.106 560.648 160.585C560.028 162.491 558.699 164.085 556.937 165.039C556.232 165.417 556.657 165.151 556.825 165.092C556.588 165.176 556.348 165.258 556.106 165.323C555.81 165.406 555.508 165.46 555.209 165.532C554.596 165.68 555.822 165.497 555.209 165.532C554.702 165.572 554.194 165.583 553.686 165.563C553.475 165.552 553.262 165.534 553.051 165.51C553.534 165.563 553.576 165.618 553.088 165.472C552.872 165.407 552.652 165.353 552.435 165.286C552.631 165.346 553.146 165.675 552.302 165.216C552.034 165.072 551.77 164.924 551.513 164.759C550.848 164.334 551.083 164.462 551.232 164.58C550.303 163.836 549.5 162.946 548.855 161.945C547.453 159.865 546.596 157.466 546.363 154.968C546.13 152.488 546.488 149.987 547.406 147.671C547.65 147.021 547.204 148.084 547.498 147.452C547.647 147.127 547.808 146.81 547.979 146.5C548.252 145.996 548.559 145.512 548.898 145.051C548.785 145.202 548.566 145.433 549.087 144.847C549.28 144.632 549.479 144.42 549.689 144.219C550.064 143.815 550.506 143.478 550.994 143.222C551.272 143.09 551.543 142.942 551.805 142.78C551.215 143.23 551.539 142.875 551.956 142.742C552.464 142.581 552.983 142.461 553.51 142.383C553.327 142.411 552.71 142.413 553.446 142.42C553.789 142.42 554.131 142.392 554.475 142.4C554.707 142.4 554.938 142.426 555.171 142.435C556.206 142.468 554.496 142.224 555.503 142.483C556.081 142.632 556.646 142.765 557.212 142.96C556.491 142.712 557.817 143.292 558.02 143.405C558.186 143.496 558.804 143.966 558.227 143.501C558.46 143.689 558.666 143.903 558.883 144.108C559.023 144.239 559.477 144.855 559.07 144.274C559.281 144.583 559.473 144.905 559.646 145.237C559.911 145.689 560.262 146.085 560.68 146.401C561.098 146.717 561.574 146.948 562.081 147.08C562.588 147.212 563.116 147.243 563.635 147.172C564.154 147.1 564.653 146.927 565.105 146.662C565.557 146.397 565.953 146.045 566.269 145.628C566.585 145.21 566.816 144.734 566.948 144.227C567.081 143.72 567.112 143.192 567.04 142.673C566.968 142.154 566.795 141.654 566.53 141.202C563.465 135.468 555.878 133.102 549.832 135.039C542.456 137.403 538.798 145.108 538.369 152.365C537.936 159.689 541.446 168.59 548.27 172.102C551.419 173.601 555.011 173.886 558.357 172.902C561.704 171.918 564.569 169.734 566.405 166.768C568.588 163.026 569.742 158.774 569.751 154.442C569.971 149.811 568.852 145.215 566.53 141.202C563.937 136.777 557.043 140.785 559.646 145.227L559.651 145.234Z" fill="#211715"/>
<path d="M491.389 80.3772C495.102 91.0703 502.037 100.622 509.805 108.742C513.514 112.661 517.602 116.204 522.008 119.319C525.486 121.946 529.464 123.835 533.698 124.872C534.716 125.127 535.794 124.98 536.707 124.462C537.62 123.943 538.299 123.093 538.602 122.088C538.873 121.069 538.733 119.984 538.213 119.067C537.692 118.15 536.832 117.474 535.818 117.184C532.249 116.332 528.909 114.71 526.031 112.433C522.204 109.68 518.657 106.555 515.443 103.104C508.664 96.0123 502.32 87.6134 499.079 78.2575C498.776 77.2519 498.098 76.4015 497.185 75.883C496.271 75.3645 495.193 75.2178 494.175 75.4734C493.16 75.7628 492.3 76.4387 491.779 77.3558C491.258 78.2729 491.118 79.3578 491.389 80.3772Z" fill="#211715"/>
<path d="M492.415 76.4983C485.001 85.1664 474.734 91.3991 464.682 96.5256C452.057 102.968 438.337 106.479 425.378 112.141C417.929 115.325 410.789 119.191 404.051 123.689C399.83 126.555 403.816 133.467 408.077 130.575C419.731 122.951 432.401 117.007 445.714 112.918C459.368 108.613 472.31 102.313 484.121 94.2232C489.253 90.796 493.934 86.7369 498.054 82.1413C498.777 81.381 499.18 80.3717 499.18 79.3223C499.18 78.2728 498.777 77.2636 498.054 76.5032C497.301 75.7641 496.289 75.3499 495.234 75.3499C494.18 75.3499 493.168 75.7641 492.415 76.5032V76.4983Z" fill="#211715"/>
<path d="M647.861 409.24C645.723 371.085 633.172 308.331 625.979 280.554C624.182 273.613 622.393 266.613 618.183 260.809C612.552 252.501 604.898 245.762 595.943 241.229C584.346 235.024 565.984 226.799 551.774 219.799C551.196 218.985 550.586 218.168 549.947 217.356C546.599 213.084 542.676 209.296 538.29 206.101C533.172 215.862 527.392 230.125 521.088 242.325C511.573 260.741 492.961 316.364 488.142 330.202C485.53 337.702 483.549 345.216 480.705 353.684L478.97 350.334C474.414 338.521 470.586 326.441 467.508 314.16C463.912 299.366 461.51 284.308 460.325 269.13C459.21 251.174 459.139 233.169 460.113 215.204C457.908 214.583 455.866 213.889 454.014 213.183C434.927 228.997 403.167 232.768 389.362 255.724C386.328 261.324 384.049 267.301 382.585 273.499C381.322 277.984 371.372 317.105 370.109 321.59L360.514 356.907L359.871 359.278C370.72 359.622 379.707 359.902 385.854 360.088C388.152 360.158 390.354 361.022 392.088 362.531C393.822 364.041 394.979 366.105 395.364 368.371C398.022 383.926 400.723 399.688 403.536 416.016C413.513 400.887 419.878 385.687 427.311 371.13C430.301 377.197 433.764 383.049 436.595 389.192C438.316 393.013 439.734 396.963 440.838 401.005C441.054 401.769 441.309 402.517 441.597 403.259C443.072 407.08 443.207 413.044 445.052 419.688H524.336C532.522 435.701 536.072 461.971 536.233 466.468C544.601 466.345 583.577 465.73 596.192 464.446C606.146 463.433 616.353 463.208 625.682 459.594C635.011 455.979 643.528 448.854 646.199 439.207C648.233 430.156 648.817 420.838 647.93 411.603" fill="#3D8DCC"/>
<path d="M497.449 250.009C489.209 250.585 480.937 250.487 472.713 249.715C468.215 249.276 463.775 248.372 459.464 247.017C459.543 254.401 459.811 261.782 460.328 269.144C461.513 284.322 463.915 299.381 467.511 314.174C470.589 326.455 474.417 338.536 478.973 350.348L480.659 353.837C483.531 345.315 485.518 337.761 488.144 330.221C492.606 317.403 508.893 268.77 518.838 247.034C511.784 248.507 504.637 249.501 497.449 250.009Z" fill="#C0E2F7"/>
<path d="M119.422 201.025C114.089 198.1 109.351 194.202 105.453 189.533C101.094 193.54 100.048 196.538 96.8234 202.542C102.779 220.301 109.439 240.084 115.811 258.037C127.265 259.993 138.914 260.543 150.502 259.675C157.293 240.794 164.954 219.688 169.771 200.55C167.31 195.822 166.044 193.074 162.193 189.533C158.228 194.865 149.169 201.525 138.315 205.89C137.542 206.146 136.827 206.552 136.212 207.085C135.953 207.568 136.458 207.994 136.695 208.374C137.219 209.01 137.788 209.608 138.398 210.163C134.988 210.163 132.453 210.176 129.247 210.181C129.861 209.62 130.435 209.016 130.964 208.374C131.202 207.994 131.709 207.568 131.448 207.085C130.831 206.551 130.114 206.145 129.338 205.89C125.917 204.515 122.603 202.889 119.422 201.025Z" fill="white"/>
<path d="M523.543 419.411C517.986 419.557 514.291 421.055 507.693 419.431C498.324 417.138 493.751 412.97 484.315 410.927C476.923 409.332 469.348 412.389 462.587 415.828C454.253 420.069 446.27 424.968 438.715 430.479C436.822 431.858 429.546 437.423 427.868 439.084C426.416 440.399 425.168 441.921 424.163 443.603C423.549 444.849 422.668 448.32 424.064 450.38C424.899 451.545 426.063 452.434 427.406 452.935C428.75 453.435 430.212 453.523 431.606 453.188L433.519 452.784L432.049 454.651C430.778 456.071 430.055 457.896 430.007 459.801C430.007 459.987 430.007 460.176 430.007 460.371C430.05 461.783 430.553 463.142 431.439 464.241C432.162 464.878 433.015 465.349 433.939 465.621C434.862 465.894 435.834 465.961 436.787 465.818C438.644 465.508 440.443 464.912 442.118 464.05L444.863 462.776C443.885 464.15 443.275 465.751 443.091 467.428C443.006 468.997 443.506 470.542 444.493 471.765C445.481 472.988 446.886 473.802 448.438 474.049C451.897 474.655 454.369 473.024 457.334 471.147C466.457 465.371 475.263 458.711 484.412 453.023C478.89 460.078 476.77 465.753 471.777 473.404C470.74 474.994 470.248 479.071 472.35 480.853C475.546 483.566 479.468 480.687 480.656 479.734C487.018 474.728 492.938 469.186 498.352 463.168C501.42 464.462 504.713 465.135 508.042 465.15C511.371 465.164 514.67 464.519 517.748 463.251C524.647 460.391 530.641 456.676 533.011 455.68L534.163 455.336C534.368 455.272 534.571 455.199 534.769 455.115C533.005 444.732 529.594 429.81 524.181 419.384C523.963 419.397 523.759 419.389 523.543 419.411Z" fill="white"/>
<path d="M160.569 81.3689C168.748 83.4221 173.906 88.512 178.161 94.9907C181.306 99.8021 183.452 105.196 184.473 110.853L187.586 115.172C188.465 114.411 189.497 113.848 190.613 113.522C191.728 113.195 192.901 113.114 194.052 113.282C194.711 113.381 195.355 113.563 195.969 113.824C200.305 101.043 200.312 87.1898 195.987 74.4052C192.498 64.6457 185.57 52.6918 175.95 48.1019L165.516 40.2013C160.604 35.9519 154.815 32.8394 148.561 31.0863C142.175 29.2365 135.514 28.5152 128.88 28.955C113.098 30.1062 99.5994 35.8273 88.9361 47.3411L80.6817 57.7816C69.8955 69.8834 64.0963 87.5568 70.3607 114C71.0955 113.644 71.8794 113.401 72.6863 113.277C73.8366 113.109 75.0096 113.19 76.1254 113.516C77.2412 113.843 78.2735 114.406 79.1517 115.167L84.4094 111.146C91.1057 109.202 95.0859 103.753 98.3069 97.3911C100.633 92.7946 102.02 87.4239 106.002 84.1497C109.184 81.8863 112.958 80.6017 116.861 80.4536C122.976 79.8509 129.139 79.9373 135.235 80.7111L160.569 81.3689Z" fill="#7A7473"/>
<path d="M564.732 337.793C570.631 359.461 576.013 381.259 580.879 403.188C581.99 408.196 589.684 406.076 588.569 401.068C583.704 379.14 578.322 357.342 572.422 335.673C571.076 330.728 563.382 332.828 564.732 337.793Z" fill="#211715"/>
<path d="M535.221 407.217C556.723 409.142 578.578 406.803 600.069 405.617C605.172 405.337 605.205 397.36 600.069 397.644C578.586 398.83 556.723 401.169 535.221 399.243C534.166 399.252 533.157 399.674 532.411 400.42C531.665 401.166 531.242 402.175 531.234 403.23C531.255 404.281 531.682 405.283 532.425 406.026C533.168 406.769 534.17 407.196 535.221 407.217Z" fill="#211715"/>
<path d="M412.643 311.758C413.327 315.151 413.708 318.597 413.781 322.057C414.092 325.896 414.309 329.744 414.572 333.586C414.933 341.216 415.925 348.804 417.537 356.271C419.49 363.678 422.366 370.809 426.096 377.5C429.549 384.066 433.259 390.505 435.614 397.572C436.947 401.174 438.031 404.863 438.859 408.614C439.614 412.679 440.134 416.762 441.209 420.764C442.538 425.714 450.234 423.614 448.899 418.644C447.934 415.052 447.387 411.398 446.766 407.735C446.117 404.589 445.275 401.486 444.244 398.444C441.912 391.162 438.851 384.133 435.108 377.466C431.356 371.022 428.303 364.196 426.001 357.103C424.135 349.911 423.015 342.546 422.659 335.124C422.346 330.769 422.11 326.41 421.76 322.057C421.655 317.885 421.179 313.731 420.338 309.643C419.021 304.688 411.328 306.789 412.648 311.763L412.643 311.758Z" fill="#211715"/>
<path d="M423.525 369.812C416.865 382.962 410.9 396.457 403.241 409.076C400.57 413.473 407.464 417.485 410.125 413.101C417.789 400.476 423.747 386.987 430.409 373.837C432.721 369.27 425.845 365.229 423.525 369.812Z" fill="#211715"/>
<path d="M430.546 449.35C429.692 449.473 428.822 449.313 428.067 448.895C426.959 448.138 427.263 446.887 427.601 445.739C427.847 444.908 427.699 445.423 427.601 445.619C427.774 445.259 427.977 444.915 428.209 444.589C428.725 443.91 429.294 443.273 429.91 442.682C430.728 441.85 431.591 441.063 432.495 440.325C437.509 436.173 442.756 432.311 448.209 428.756C455.736 423.843 463.906 418.66 472.503 415.867C476.645 414.379 481.141 414.181 485.399 415.298C489.112 416.428 492.733 417.844 496.23 419.532C500.619 421.649 505.291 423.122 510.101 423.906C514.596 424.496 518.921 423.584 523.403 423.407C528.518 423.203 528.543 415.229 523.403 415.434C519.156 415.6 514.878 416.656 510.629 415.985C506.064 415.047 501.643 413.506 497.485 411.4C493.198 409.27 488.64 407.735 483.937 406.837C478.627 406.17 473.234 406.889 468.285 408.925C458.178 413.062 448.609 418.406 439.786 424.841C434.245 428.417 429.051 432.503 424.272 437.046C420.821 440.592 418.144 445.378 419.748 450.488C421.466 455.957 427.498 457.963 432.661 457.038C433.675 456.75 434.536 456.074 435.057 455.156C435.578 454.239 435.717 453.154 435.445 452.134C435.144 451.127 434.466 450.275 433.553 449.757C432.639 449.238 431.56 449.092 430.541 449.35H430.546Z" fill="#211715"/>
<path d="M458.903 428.937C451.538 433.466 444.473 438.466 437.752 443.906C431.938 448.52 423.926 454.675 426.478 463.22C426.936 464.837 427.839 466.292 429.084 467.419C430.329 468.547 431.866 469.302 433.52 469.598C437.311 470.307 440.726 469.049 444.131 467.49C445.038 466.95 445.696 466.075 445.964 465.055C446.231 464.034 446.087 462.949 445.562 462.034C445.011 461.14 444.137 460.492 443.121 460.225C442.105 459.959 441.025 460.095 440.106 460.604C439.146 461.061 438.145 461.427 437.116 461.699C436.493 461.9 435.828 461.941 435.184 461.817C435.008 461.777 434.174 461.438 434.447 461.576C434.671 461.689 434.302 461.41 434.231 461.27C433.967 460.651 433.896 459.968 434.026 459.308C433.978 459.672 434.181 458.747 434.227 458.614C434.133 458.881 434.581 457.949 434.726 457.738C434.948 457.394 435.41 456.399 435.811 456.185C435.573 456.311 435.154 456.948 435.644 456.429C435.811 456.247 435.977 456.056 436.143 455.873C436.525 455.467 436.925 455.077 437.329 454.695C442.385 450.085 447.783 445.864 453.477 442.07C456.566 439.899 459.694 437.773 462.93 435.829C467.323 433.189 463.32 426.292 458.906 428.943L458.903 428.937Z" fill="#211715"/>
<path d="M471.94 437.179C465.916 440.968 460.12 445.086 454.323 449.208C449.038 452.964 443.299 456.47 440.43 462.567C437.707 468.358 439.774 475.259 446.078 477.529C452.852 479.968 459.117 474.825 464.403 471.29C471.333 466.654 478.088 461.76 485.124 457.284C489.443 454.538 485.448 447.636 481.101 450.4C474.489 454.603 468.127 459.177 461.635 463.559C458.587 465.903 455.33 467.96 451.904 469.705C450.382 470.355 448.153 470.448 447.364 468.969C446.475 467.308 447.716 465.456 449.015 463.723C451.344 461.06 454.075 458.778 457.11 456.961C463.321 452.553 469.509 448.115 475.958 444.056C480.292 441.33 476.29 434.421 471.935 437.172L471.94 437.179Z" fill="#211715"/>
<path d="M479.797 452.578C477.019 456.584 474.474 460.747 472.174 465.045C469.905 469.042 466.552 472.839 466.941 477.721C466.99 479.078 467.356 480.404 468.009 481.593C468.662 482.783 469.584 483.804 470.702 484.574C471.85 485.299 473.147 485.755 474.496 485.907C475.845 486.059 477.211 485.904 478.491 485.453C480.468 484.712 482.295 483.619 483.882 482.227C485.943 480.565 487.969 478.86 489.959 477.11C494.19 473.376 498.185 469.381 501.919 465.149C502.645 464.39 503.049 463.381 503.049 462.33C503.049 461.28 502.645 460.271 501.919 459.511C501.167 458.772 500.155 458.358 499.1 458.358C498.046 458.358 497.033 458.772 496.281 459.511C493.437 462.736 490.447 465.821 487.311 468.766C485.679 470.289 484.014 471.774 482.316 473.221C481.495 473.921 480.669 474.613 479.837 475.298C479.376 475.676 478.914 476.053 478.452 476.427C478.266 476.609 478.064 476.772 477.847 476.914C478.099 476.786 478.638 476.354 478.061 476.748C477.522 477.116 476.963 477.455 476.388 477.765C475.797 478.082 476.721 477.755 476.04 477.881C475.804 477.926 475.578 478.014 475.338 478.047C475.897 477.954 475.483 478.118 475.307 477.999C475.347 478.025 476.184 478.319 475.254 477.987C475.232 477.987 474.689 477.738 474.99 477.897C475.445 478.137 474.737 477.432 475.181 478.14C474.935 477.748 474.963 477.389 475.036 477.947C474.985 477.793 474.943 477.635 474.912 477.475C474.85 477.181 474.855 477.265 474.923 477.721L474.898 477.389C474.898 477.057 474.898 476.725 474.912 476.392C474.925 475.638 474.933 476.339 474.895 476.495C474.931 476.346 474.95 476.193 474.995 476.047C475.039 475.901 475.084 475.76 475.114 475.62C475.255 474.956 475.091 475.685 475.006 475.823C475.275 475.389 475.536 474.95 475.812 474.519C476.99 472.668 478.099 470.776 479.181 468.871C481.444 464.639 483.951 460.543 486.689 456.603C487.216 455.688 487.361 454.603 487.093 453.582C486.826 452.561 486.167 451.686 485.259 451.147C484.341 450.637 483.261 450.501 482.245 450.768C481.229 451.034 480.355 451.683 479.805 452.578H479.797Z" fill="#211715"/>
<path d="M499.642 467.88C506.585 469.878 514.013 469.332 520.589 466.34C525.541 464.21 530.09 461.258 535.018 459.12C535.926 458.583 536.586 457.708 536.854 456.687C537.121 455.666 536.976 454.581 536.449 453.667C535.897 452.774 535.023 452.127 534.008 451.86C532.993 451.594 531.914 451.728 530.995 452.235C526.616 454.135 522.556 456.755 518.204 458.732C513.095 461.249 507.23 461.769 501.758 460.19C496.829 458.722 494.724 466.416 499.638 467.88H499.642Z" fill="#211715"/>
<path d="M644.093 412.661C644.018 412.129 644.146 413.205 644.159 413.355C644.214 413.926 644.254 414.499 644.285 415.071C644.358 416.342 644.387 417.614 644.39 418.892C644.39 421.596 644.28 424.302 644.073 426.998C643.944 431.616 643.096 436.186 641.559 440.542C637.192 451.029 625.8 456.368 615.289 458.358C608.95 459.559 602.471 459.865 596.059 460.488C592.79 460.805 589.509 460.986 586.228 461.152C577.296 461.596 568.354 461.84 559.413 462.054C551.689 462.238 543.963 462.386 536.236 462.498L540.223 466.485C539.826 460.699 538.993 454.951 537.731 449.29C536.16 440.558 533.738 432.001 530.502 423.741C528.834 419.317 526.579 415.138 523.797 411.315C523.24 410.428 522.366 409.786 521.353 409.521C520.34 409.255 519.264 409.385 518.344 409.885C517.436 410.423 516.776 411.298 516.509 412.319C516.241 413.34 516.386 414.425 516.913 415.34C523.274 423.583 526.158 434.316 528.515 444.306C529.641 449.081 530.583 453.895 531.339 458.749C531.49 459.715 531.632 460.684 531.766 461.656C531.625 460.631 531.809 462.003 531.832 462.189C531.881 462.569 531.927 462.948 531.97 463.329C532.09 464.377 532.206 465.43 532.249 466.485C532.266 467.537 532.691 468.542 533.435 469.286C534.179 470.03 535.184 470.455 536.236 470.472C552.754 470.229 569.284 469.953 585.785 469.143C596.259 468.825 606.701 467.812 617.042 466.111C629.11 463.887 641.352 457.647 647.468 446.536C650.47 441.082 651.314 434.919 651.892 428.807C652.569 422.736 652.531 416.606 651.781 410.543C651.494 409.526 650.819 408.664 649.901 408.142C648.983 407.621 647.896 407.482 646.877 407.757C645.872 408.062 645.024 408.741 644.506 409.654C643.987 410.567 643.84 411.642 644.093 412.661Z" fill="#211715"/>
<path d="M175.83 361.582C183.833 408.446 192.284 457.295 203.06 519.151C203.317 520.642 204.059 522.006 205.17 523.032C206.281 524.058 207.7 524.689 209.206 524.827C246.382 528.136 372.108 533.582 415.824 534.994C416.844 535.027 417.858 534.832 418.793 534.424C419.728 534.016 420.559 533.404 421.228 532.633C421.896 531.863 422.384 530.953 422.657 529.97C422.929 528.986 422.978 527.955 422.801 526.95C412.042 465.35 403.491 415.898 395.377 368.383C394.992 366.117 393.834 364.053 392.1 362.543C390.367 361.034 388.164 360.17 385.866 360.1C350.011 359.016 217.504 354.707 182.795 353.589C181.78 353.555 180.771 353.747 179.84 354.152C178.909 354.557 178.079 355.164 177.412 355.93C176.745 356.695 176.257 357.6 175.984 358.577C175.71 359.555 175.657 360.582 175.83 361.582Z" fill="white"/>
<path d="M171.984 362.639C177.443 394.585 182.942 426.525 188.483 458.46C191.676 476.882 194.876 495.3 198.085 513.716C198.847 518.09 199.042 522.853 202.57 526.029C205.07 528.282 208.052 528.719 211.253 528.988C214.943 529.298 218.634 529.569 222.327 529.818C244.753 531.378 267.227 532.509 289.686 533.619C315.704 534.903 341.725 536.078 367.751 537.146C378.576 537.589 389.403 538.016 400.232 538.427C404.535 538.584 408.837 538.736 413.14 538.883C415.98 539.241 418.864 538.774 421.445 537.536C423.102 536.568 424.476 535.182 425.43 533.517C426.384 531.852 426.885 529.966 426.883 528.048C426.701 525.673 426.334 523.317 425.783 521.001L424.454 513.376C423.61 508.541 422.767 503.705 421.926 498.869C420.356 489.858 418.789 480.847 417.223 471.834C414.278 454.877 411.343 437.917 408.418 420.954C405.682 405.078 402.956 389.2 400.24 373.318C399.614 369.655 399.36 365.742 397.298 362.54C396.265 360.925 394.91 359.541 393.317 358.475C391.724 357.409 389.927 356.684 388.041 356.345C384.37 355.932 380.677 355.761 376.984 355.832C356.343 355.191 335.704 354.535 315.066 353.865C290.005 353.059 264.946 352.25 239.887 351.44C221.421 350.842 202.955 350.244 184.49 349.647C181.735 349.346 178.958 349.962 176.589 351.4C174.945 352.501 173.634 354.031 172.798 355.825C171.962 357.618 171.633 359.606 171.846 361.573C171.879 362.62 172.309 363.615 173.05 364.356C173.791 365.097 174.786 365.527 175.833 365.56C176.888 365.553 177.899 365.131 178.645 364.385C179.391 363.639 179.813 362.628 179.82 361.573C179.499 359.081 180.667 357.526 183.227 357.586C184.652 357.616 186.076 357.679 187.5 357.724L198.317 358.074L226.941 359.001C250.731 359.771 274.521 360.539 298.313 361.305C320.393 362.016 342.474 362.722 364.555 363.423L376.527 363.799C379.696 363.897 382.989 363.747 386.142 364.101C387.319 364.225 388.434 364.694 389.347 365.448C390.26 366.202 390.93 367.209 391.273 368.342C392.172 372.037 392.834 375.786 393.255 379.565C394.535 387.051 395.819 394.536 397.106 402.021C402.819 435.278 408.575 468.528 414.372 501.769C415.169 506.345 415.968 510.923 416.768 515.502C417.163 517.774 417.559 520.044 417.957 522.313C418.289 524.204 419.229 526.682 418.897 528.592C418.515 530.793 416.542 531.024 414.655 530.961C412.802 530.901 410.95 530.839 409.098 530.774C399.539 530.441 389.983 530.08 380.429 529.69C355.783 528.705 331.142 527.628 306.506 526.459C282.963 525.345 259.421 524.177 235.895 522.73C227.765 522.232 219.634 521.71 211.517 521.031C209.856 520.891 208.052 520.944 207.198 519.195C206.526 517.127 206.117 514.982 205.982 512.811L204.726 505.6C203.138 496.481 201.552 487.363 199.969 478.245C194.402 446.191 188.865 414.13 183.357 382.062C182.124 374.881 180.895 367.7 179.669 360.518C179.381 359.503 178.705 358.642 177.787 358.121C176.87 357.6 175.784 357.46 174.765 357.732C173.759 358.035 172.909 358.714 172.391 359.628C171.873 360.542 171.727 361.621 171.984 362.639Z" fill="#211715"/>
<path d="M511.787 475.979C485.59 492.051 459.001 507.521 432.312 522.759C428.076 525.178 423.84 527.615 419.549 529.924C415.027 532.353 419.051 539.24 423.572 536.808C433.207 531.629 442.645 526.047 452.112 520.565C466.45 512.259 480.742 503.875 494.987 495.413C501.951 491.269 508.892 487.086 515.81 482.864C520.178 480.185 516.177 473.286 511.787 475.979Z" fill="#211715"/>
<path d="M91.9099 458.868C101.151 458.868 110.392 458.853 119.635 458.823L163.466 458.752C167.177 458.752 170.887 458.746 174.596 458.735C179.727 458.735 179.736 450.761 174.596 450.761C165.044 450.761 155.491 450.776 145.937 450.806L102.365 450.878C98.878 450.878 95.3895 450.883 91.8999 450.894C86.7685 450.894 86.7602 458.868 91.8999 458.868H91.9099Z" fill="#211715"/>
<path d="M657.932 458.868C673.879 458.868 689.827 458.79 705.764 458.752C708.364 458.752 710.964 458.737 713.572 458.735C718.702 458.735 718.712 450.761 713.572 450.761C697.403 450.761 681.233 450.838 665.065 450.878C662.689 450.878 660.314 450.892 657.938 450.894C652.809 450.894 652.799 458.868 657.938 458.868H657.932Z" fill="#211715"/>
<path d="M123.77 218.881C123.603 218.083 123.437 217.236 123.253 216.274C124.103 215.39 124.942 214.502 125.745 213.616C127.255 211.955 128.464 210.744 129.351 209.864C132.559 209.864 135.094 209.854 138.504 209.844C139.393 210.724 140.609 211.945 142.132 213.616C143.171 214.758 144.264 215.9 145.362 217.035C144.902 219.067 144.41 221.11 143.639 223.47C142.935 225.325 142.504 227.273 142.36 229.251C142.343 230.115 144.453 244.152 146.779 259.601C138.493 260.002 130.189 259.668 121.962 258.605C123.854 243.739 125.815 229.404 125.815 228.906C125.771 227.797 125.593 226.698 125.283 225.633C125.15 225.135 125.034 224.67 124.917 224.172C124.469 222.208 124.133 220.675 123.77 218.881Z" fill="#3D8DCC"/>
<path d="M106.005 182.201C105.863 184.406 105.594 186.601 105.199 188.776C105.023 190.186 104.773 191.585 104.448 192.969C104.403 193.135 104.344 193.289 104.299 193.452C104.141 194.018 104.226 193.199 104.42 193.198C104.394 193.198 104 193.945 103.988 193.972C103.807 194.4 104.533 193.527 104.134 193.789C104.033 193.881 103.94 193.981 103.855 194.088C103.719 194.223 103.576 194.346 103.432 194.47C103.849 194.113 103.731 194.253 103.345 194.47C103.179 194.558 102.252 195.052 102.847 194.778C102.425 194.974 101.87 195.166 101.481 195.337L101.046 195.533C97.0494 197.351 93.0725 199.23 89.0856 201.065C88.0557 201.538 87.0241 202.009 85.9908 202.479C85.622 202.645 85.2533 202.811 84.8845 202.977C84.0655 203.348 85.9476 202.575 85.2067 202.839C84.7018 202.978 84.2293 203.216 83.8161 203.538C83.4028 203.859 83.0571 204.259 82.7985 204.715C82.5398 205.17 82.3735 205.672 82.3088 206.192C82.2442 206.712 82.2826 207.239 82.4218 207.744C82.5609 208.249 82.7982 208.721 83.12 209.135C83.4418 209.548 83.8419 209.894 84.2973 210.152C84.7527 210.411 85.2547 210.577 85.7744 210.642C86.2941 210.707 86.8215 210.668 87.3264 210.529C89.0192 209.923 90.6588 209.079 92.2917 208.331C94.7437 207.205 97.1934 206.073 99.6408 204.934L105.066 202.424C105.202 202.34 105.349 202.274 105.502 202.228C105.575 202.218 104.058 202.811 104.772 202.544C105.118 202.414 105.455 202.266 105.796 202.123C106.39 201.887 106.964 201.604 107.513 201.276C109.482 200.054 110.993 198.215 111.811 196.047C112.306 194.543 112.64 192.991 112.807 191.417C113.306 188.36 113.776 185.302 113.987 182.207C113.981 181.152 113.559 180.141 112.813 179.394C112.066 178.648 111.056 178.226 110 178.22C108.95 178.245 107.951 178.673 107.208 179.416C106.466 180.158 106.038 181.158 106.013 182.207L106.005 182.201Z" fill="#211715"/>
<path d="M154.239 181.417C154.502 185.697 155.057 189.955 155.901 194.16C156.29 196.146 157.221 197.987 158.591 199.477C159.961 200.968 161.716 202.05 163.663 202.605C161.818 202.068 163.359 202.495 163.942 202.771C164.813 203.178 165.682 203.587 166.55 203.999C168.804 205.064 171.057 206.131 173.31 207.2C174.825 207.918 176.328 208.67 177.862 209.35C178.781 209.856 179.859 209.991 180.874 209.724C181.889 209.458 182.763 208.812 183.315 207.919C183.837 207.003 183.98 205.92 183.713 204.9C183.445 203.88 182.789 203.006 181.885 202.464C178.563 200.994 175.313 199.356 172.032 197.803C170.439 197.05 168.85 196.288 167.248 195.552C167.102 195.484 166.954 195.415 166.806 195.351C166.474 195.201 166.125 195.057 165.783 194.919C165.77 194.919 165.153 194.648 165.517 194.819C165.881 194.99 165.08 194.577 165.007 194.533C164.866 194.452 164.728 194.342 164.584 194.269C164.112 194.033 164.934 194.731 164.655 194.332C164.434 194.015 163.971 193.55 164.431 194.216C164.291 193.944 164.131 193.683 163.951 193.435C163.64 193.123 164.202 193.748 164.085 193.801C164.075 193.801 163.893 193.256 163.873 193.191C163.49 191.668 163.206 190.121 163.022 188.561C162.618 186.198 162.348 183.813 162.215 181.418C162.215 180.361 161.795 179.347 161.047 178.599C160.299 177.851 159.285 177.431 158.228 177.431C157.171 177.431 156.156 177.851 155.409 178.599C154.661 179.347 154.241 180.361 154.241 181.418L154.239 181.417Z" fill="#211715"/>
<path d="M190.407 117.989C190.819 117.671 191.291 117.437 191.794 117.302C192.297 117.166 192.822 117.132 193.338 117.2C193.855 117.268 194.353 117.437 194.804 117.698C195.254 117.96 195.649 118.307 195.965 118.721C196.625 120.098 196.911 121.623 196.796 123.145C196.862 124.99 196.738 126.836 196.425 128.655C195.231 135.197 191.953 143.076 184.674 144.38C183.659 144.669 182.799 145.345 182.278 146.263C181.757 147.181 181.618 148.266 181.89 149.286C182.191 150.292 182.869 151.144 183.783 151.663C184.696 152.181 185.775 152.327 186.794 152.07C198.304 150.005 203.803 137.033 204.67 126.599C205.122 121.158 204.613 115.049 199.919 111.542C197.679 109.936 194.959 109.14 192.206 109.287C189.454 109.434 186.833 110.514 184.777 112.349C184.037 113.101 183.622 114.114 183.622 115.169C183.622 116.224 184.037 117.237 184.777 117.989C185.536 118.716 186.546 119.121 187.596 119.121C188.647 119.121 189.657 118.716 190.415 117.989H190.407Z" fill="#211715"/>
<path d="M181.656 142.21C181.446 144.984 180.854 147.716 179.895 150.328C179.729 150.815 179.548 151.295 179.407 151.787C179.33 152.054 179.009 152.705 179.496 151.612C179.239 152.189 178.975 152.759 178.692 153.32C176.967 156.677 174.969 159.888 172.72 162.92C167.571 169.992 160.512 177.472 151.789 179.52C146.796 180.691 148.909 188.383 153.909 187.21C164.66 184.687 172.993 175.914 179.317 167.344C184.771 159.96 189.254 151.591 189.634 142.21C189.842 137.079 181.868 137.087 181.661 142.21H181.656Z" fill="#211715"/>
<path d="M81.9741 112.349C79.9171 110.516 77.2973 109.437 74.5456 109.29C71.794 109.143 69.0743 109.938 66.834 111.542C62.1328 115.03 61.6311 121.177 62.0829 126.599C62.9534 137.033 68.447 150.007 79.9574 152.07C80.976 152.321 82.0522 152.173 82.9647 151.655C83.8772 151.137 84.5565 150.289 84.8629 149.286C85.1346 148.266 84.9948 147.181 84.4737 146.263C83.9526 145.346 83.0919 144.669 82.0771 144.38C74.7977 143.076 71.5218 135.197 70.3274 128.656C70.0317 126.941 69.9054 125.201 69.9503 123.461C69.8344 121.92 70.0725 120.373 70.6464 118.938C70.943 118.484 71.3304 118.097 71.7843 117.8C72.2381 117.504 72.7485 117.305 73.2832 117.216C73.8179 117.127 74.3652 117.149 74.8906 117.282C75.4161 117.415 75.9082 117.656 76.336 117.989C77.0974 118.71 78.1063 119.112 79.155 119.112C80.2038 119.112 81.2126 118.71 81.9741 117.989C82.7138 117.237 83.1283 116.224 83.1283 115.169C83.1283 114.114 82.7138 113.102 81.9741 112.349Z" fill="#211715"/>
<path d="M78.047 144.738C82.5206 165.76 97.8601 186.414 120.517 188.847C121.572 188.84 122.582 188.418 123.328 187.671C124.074 186.925 124.497 185.916 124.504 184.861C124.481 183.81 124.053 182.81 123.31 182.067C122.568 181.324 121.567 180.897 120.517 180.874C111.442 179.907 103.719 174.425 97.772 167.78C91.6191 160.594 87.468 151.914 85.7367 142.613C84.6685 137.598 76.9805 139.719 78.047 144.733V144.738Z" fill="#211715"/>
<path d="M129.889 132.294C129.456 133.956 129.059 135.617 128.781 137.311C128.531 138.373 128.522 139.478 128.755 140.544C128.928 141.213 129.243 141.838 129.679 142.375C130.115 142.912 130.662 143.348 131.281 143.655C132.263 144.182 133.36 144.455 134.474 144.449C135.165 144.419 135.825 144.25 136.504 144.159C137.485 143.842 138.327 143.197 138.886 142.331C139.151 141.879 139.324 141.38 139.395 140.861C139.466 140.342 139.434 139.814 139.301 139.307C139.169 138.801 138.937 138.325 138.621 137.908C138.304 137.491 137.908 137.14 137.456 136.876L136.504 136.474C135.81 136.285 135.078 136.285 134.385 136.474C134.137 136.507 133.886 136.569 133.645 136.602L134.705 136.461C134.484 136.487 134.261 136.487 134.041 136.461L135.101 136.604C134.86 136.565 134.625 136.496 134.401 136.399L135.355 136.801C135.211 136.738 135.072 136.665 134.939 136.582L135.747 137.205C135.686 137.155 135.63 137.1 135.581 137.039L136.205 137.846C136.161 137.78 136.123 137.71 136.091 137.637L136.493 138.589C136.455 138.481 136.428 138.37 136.413 138.256L136.554 139.316C136.534 139.075 136.541 138.833 136.574 138.594L136.433 139.653C136.718 137.887 137.1 136.138 137.577 134.414C137.845 133.377 137.7 132.276 137.175 131.343C136.643 130.43 135.77 129.766 134.748 129.497C133.727 129.227 132.64 129.374 131.727 129.906C130.84 130.442 130.188 131.292 129.899 132.288L129.889 132.294Z" fill="#211715"/>
<path d="M104.491 119.231C103.618 122.073 104.187 128.613 109.573 129.169C116.691 129.126 117.07 121.219 114.674 117.503C112.713 114.453 106.943 113.192 104.491 119.231Z" fill="#211715"/>
<path d="M161.497 119.23C162.372 122.073 161.803 128.613 156.417 129.169C149.297 129.126 148.918 121.219 151.316 117.501C153.277 114.453 159.045 113.192 161.497 119.23Z" fill="#211715"/>
<path d="M137.897 169.39C139.241 168.482 140.501 167.455 141.663 166.322C142.775 165.122 143.811 163.853 144.766 162.523C146.694 159.854 149.159 155.701 147.091 152.509C146.516 151.668 145.731 150.991 144.813 150.546C143.895 150.102 142.877 149.905 141.86 149.976C140.837 149.976 139.814 149.973 138.792 149.966C136.416 149.959 134.042 149.951 131.669 149.941C129.274 149.933 126.88 149.926 124.486 149.918C123.428 149.918 122.414 150.338 121.667 151.086C120.919 151.833 120.499 152.847 120.499 153.905C120.499 154.962 120.919 155.976 121.667 156.724C122.414 157.472 123.428 157.892 124.486 157.892C129.34 157.904 134.194 157.92 139.049 157.942L142.169 157.951H142.561C141.987 157.949 141.43 157.759 140.974 157.411C140.518 157.063 140.187 156.575 140.033 156.023L140.016 154.664C139.948 154.87 139.877 155.074 139.8 155.277C139.634 155.699 139.643 155.682 139.825 155.227C139.759 155.377 139.687 155.523 139.614 155.669C139.448 156.015 139.264 156.352 139.071 156.684C138.681 157.36 138.24 157.995 137.79 158.636C137.264 159.39 138.132 158.252 137.588 158.897C137.297 159.242 137.011 159.593 136.714 159.932C136.215 160.5 135.687 161.033 135.142 161.56C134.554 162.128 135.732 161.154 134.986 161.691C134.614 161.957 134.247 162.231 133.88 162.505C132.987 163.057 132.34 163.931 132.074 164.947C131.808 165.962 131.942 167.041 132.45 167.96C132.991 168.865 133.865 169.521 134.885 169.789C135.905 170.056 136.989 169.913 137.905 169.39H137.897Z" fill="#211715"/>
<path d="M126.449 233.044C131.556 233.044 136.661 232.931 141.767 232.927C142.825 232.927 143.839 232.507 144.586 231.76C145.334 231.012 145.754 229.998 145.754 228.94C145.754 227.883 145.334 226.869 144.586 226.121C143.839 225.374 142.825 224.954 141.767 224.954C136.661 224.954 131.556 225.067 126.449 225.07C125.392 225.07 124.378 225.49 123.63 226.238C122.883 226.985 122.463 227.999 122.463 229.057C122.463 230.114 122.883 231.128 123.63 231.876C124.378 232.624 125.392 233.044 126.449 233.044Z" fill="#211715"/>
<path d="M119.532 218.88C119.927 220.874 120.341 222.852 120.796 224.829C121.283 226.273 121.59 227.772 121.71 229.291C121.583 230.995 121.368 232.692 121.065 234.374C119.991 242.555 118.906 250.733 117.861 258.918C117.867 259.974 118.288 260.985 119.035 261.731C119.781 262.477 120.792 262.899 121.848 262.905C122.897 262.88 123.897 262.452 124.639 261.71C125.382 260.967 125.81 259.968 125.835 258.918C126.898 250.581 128.008 242.248 129.101 233.912C129.377 232.367 129.573 230.809 129.689 229.244C129.574 227.148 129.198 225.075 128.567 223.073C128.081 220.978 127.64 218.875 127.222 216.76C126.941 215.741 126.266 214.874 125.346 214.352C124.426 213.83 123.337 213.694 122.317 213.975C121.297 214.257 120.431 214.931 119.909 215.851C119.387 216.771 119.251 217.86 119.532 218.88Z" fill="#211715"/>
<path d="M138.099 206.174C135.071 206.174 132.043 206.181 129.014 206.194C127.958 206.205 126.947 206.621 126.19 207.357C125.63 207.914 125.249 208.626 125.094 209.4C124.94 210.175 125.019 210.978 125.321 211.708C125.624 212.438 126.136 213.061 126.794 213.499C127.451 213.937 128.224 214.17 129.014 214.168C132.042 214.161 135.07 214.154 138.099 214.148C139.155 214.137 140.166 213.72 140.923 212.985C141.483 212.427 141.864 211.716 142.019 210.941C142.173 210.167 142.094 209.364 141.792 208.634C141.489 207.904 140.977 207.281 140.319 206.843C139.662 206.405 138.889 206.172 138.099 206.174Z" fill="#211715"/>
<path d="M150.512 258.856C149.317 250.929 148.113 243.002 146.963 235.068C146.794 233.887 146.628 232.707 146.465 231.526C146.448 231.4 146.32 230.455 146.407 231.109C146.482 231.676 146.407 231.076 146.389 230.961C146.354 230.662 146.301 230.363 146.281 230.063C146.061 226.936 147.834 223.576 148.59 220.576C149.842 215.592 142.154 213.476 140.9 218.456C139.975 222.13 138.086 226.004 138.285 229.86C138.395 231.99 138.842 234.143 139.146 236.252C140.33 244.5 141.586 252.736 142.827 260.976C143.114 261.991 143.79 262.853 144.707 263.375C145.625 263.896 146.711 264.035 147.731 263.762C148.736 263.458 149.586 262.779 150.104 261.866C150.623 260.953 150.771 259.875 150.517 258.856H150.512Z" fill="#211715"/>
<path d="M152.636 225.232C159.352 217.399 164.892 208.631 169.082 199.203C167.464 195.549 165.124 192.26 162.203 189.533C158.238 194.865 149.179 201.525 138.325 205.89C137.549 206.145 136.83 206.551 136.212 207.085C135.953 207.568 136.458 207.994 136.696 208.374C137.069 208.972 138.903 210.505 142.025 213.931C145.56 217.816 149.706 221.732 152.636 225.232Z" fill="white"/>
<path d="M115.015 225.232C108.299 217.4 102.759 208.631 98.5694 199.203C100.189 195.55 102.529 192.261 105.448 189.533C109.415 194.865 118.472 201.525 129.328 205.89C130.104 206.145 130.821 206.551 131.438 207.085C131.699 207.568 131.192 207.994 130.954 208.374C130.581 208.972 128.748 210.505 125.627 213.931C122.092 217.816 117.939 221.732 115.015 225.232Z" fill="white"/>
<path d="M155.455 228.053C160.729 221.871 165.332 215.147 169.187 207.994C170.12 206.229 171.011 204.441 171.86 202.63C172.629 201.456 173.024 200.076 172.992 198.673C172.72 197.541 172.258 196.464 171.625 195.487C169.922 192.217 167.688 189.253 165.015 186.714C164.578 186.296 164.052 185.982 163.477 185.793C162.903 185.604 162.293 185.547 161.693 185.624C161.093 185.701 160.517 185.911 160.009 186.239C159.501 186.567 159.072 187.005 158.754 187.52C159.196 186.937 158.239 188.121 158.148 188.226C157.869 188.543 157.582 188.854 157.291 189.159C156.548 189.935 155.768 190.674 154.965 191.387C153.22 192.915 151.368 194.318 149.425 195.585C147.078 197.133 144.642 198.544 142.131 199.809C139.551 200.852 137.025 202.024 134.564 203.323C131.376 205.376 131.818 208.846 134.027 211.403C135.097 212.64 136.353 213.728 137.483 214.914C141.636 219.233 145.955 223.484 149.817 228.053C150.569 228.792 151.582 229.206 152.636 229.206C153.691 229.206 154.703 228.792 155.455 228.053C156.185 227.294 156.593 226.282 156.593 225.229C156.593 224.176 156.185 223.164 155.455 222.405C152.326 218.71 148.8 215.38 145.51 211.831C144.119 210.336 142.732 208.841 141.284 207.402C140.875 206.997 140.473 206.587 140.061 206.185C139.916 206.054 139.784 205.91 139.666 205.755L140.134 206.354C139.925 206.1 139.748 205.821 139.607 205.524L140.151 207.537L140.194 207.072L139.031 209.896C138.496 210.456 139.705 209.607 139.985 209.482C140.888 209.08 141.812 208.72 142.717 208.319C144.067 207.72 145.401 207.081 146.717 206.402C149.37 205.039 151.935 203.511 154.397 201.828C158.676 199.025 162.474 195.55 165.645 191.536L159.382 192.344C161.975 194.905 164.093 197.905 165.638 201.206V197.185C161.513 206.258 156.194 214.741 149.822 222.406C149.098 223.168 148.694 224.179 148.694 225.23C148.694 226.282 149.098 227.293 149.822 228.054C150.574 228.792 151.586 229.205 152.639 229.204C153.692 229.204 154.704 228.791 155.455 228.053Z" fill="#211715"/>
<path d="M117.834 222.413C111.462 214.745 106.143 206.261 102.018 197.184V201.208C103.562 197.907 105.68 194.906 108.272 192.345L102.011 191.538C105.182 195.552 108.98 199.027 113.259 201.829C115.722 203.512 118.286 205.04 120.939 206.404C122.252 207.082 123.586 207.721 124.939 208.321C125.845 208.721 126.766 209.082 127.672 209.484C127.951 209.609 129.167 210.457 128.624 209.898L127.461 207.074L127.504 207.539L128.049 205.525C127.948 205.75 127.82 205.961 127.667 206.153C127.371 206.554 127.482 206.42 127.999 205.751C127.88 205.907 127.748 206.051 127.602 206.181C127.235 206.535 126.881 206.902 126.521 207.261C125.026 208.746 123.589 210.283 122.155 211.828C118.864 215.376 115.344 218.707 112.209 222.401C111.484 223.163 111.079 224.174 111.079 225.225C111.079 226.277 111.484 227.288 112.209 228.049C112.962 228.789 113.974 229.203 115.028 229.203C116.083 229.203 117.095 228.789 117.848 228.049C121.716 223.481 126.036 219.228 130.18 214.911C133.062 211.909 138.818 207.007 133.101 203.319C130.639 202.021 128.114 200.848 125.534 199.806C123.022 198.542 120.586 197.131 118.24 195.581C116.296 194.315 114.445 192.912 112.699 191.384C111.895 190.671 111.116 189.932 110.374 189.156C110.081 188.85 109.796 188.539 109.517 188.222C109.424 188.118 108.467 186.933 108.91 187.516C108.592 187.001 108.164 186.564 107.655 186.236C107.147 185.908 106.571 185.698 105.971 185.62C105.371 185.543 104.761 185.601 104.186 185.79C103.611 185.978 103.085 186.293 102.648 186.711C100.037 189.185 97.8483 192.07 96.1689 195.251C95.5915 196.159 95.1153 197.128 94.7486 198.14C94.5234 199.609 94.8545 201.109 95.6772 202.347C96.5698 204.25 97.5045 206.133 98.4813 207.995C102.337 215.149 106.94 221.873 112.214 228.054C112.966 228.794 113.979 229.208 115.033 229.208C116.088 229.208 117.101 228.794 117.853 228.054C118.578 227.293 118.981 226.281 118.977 225.23C118.974 224.179 118.564 223.169 117.834 222.413Z" fill="#211715"/>
<path d="M540.381 218.477C554.818 226.176 569.872 232.675 584.552 239.889C591.175 243.144 598.134 246.341 603.878 251.042C610.164 256.192 616.042 262.978 618.907 270.644C621.209 277.402 623.088 284.297 624.532 291.288C626.064 297.767 627.511 304.265 628.874 310.784C632.197 326.539 635.158 342.365 637.757 358.264C640.682 375.137 642.727 392.15 643.883 409.236C644.174 414.337 652.149 414.372 651.857 409.236C650.962 393.538 648.842 377.904 646.435 362.374C643.908 346.071 640.931 329.836 637.607 313.678C634.826 300.16 632.047 286.512 628.152 273.263C626.911 268.577 624.988 264.1 622.446 259.973C619.918 256.153 617.025 252.587 613.807 249.326C608.202 243.918 601.762 239.449 594.734 236.092C578.143 227.557 560.875 220.374 544.409 211.591C539.883 209.177 535.851 216.058 540.384 218.477H540.381Z" fill="#211715"/>
<path d="M459.333 251.146C469.248 253.73 479.496 254.806 489.733 254.339C499.766 254.113 509.759 252.975 519.586 250.938C520.605 250.657 521.471 249.982 521.994 249.063C522.516 248.143 522.651 247.054 522.37 246.034C522.089 245.015 521.414 244.149 520.495 243.627C519.575 243.104 518.486 242.969 517.466 243.25C508.335 245.128 499.052 246.171 489.733 246.365C480.215 246.826 470.683 245.846 461.459 243.458C456.522 242.023 454.414 249.714 459.339 251.146H459.333Z" fill="#211715"/>
<path d="M173.94 51.535C183.189 56.0966 188.992 66.4176 192.271 75.8149C196.208 87.4395 196.285 100.025 192.49 111.697C190.91 116.59 198.608 118.687 200.18 113.816C204.456 100.549 204.301 86.2516 199.738 73.0806C195.74 62.0304 188.9 50.0499 177.963 44.6576C177.044 44.15 175.965 44.0153 174.95 44.2816C173.935 44.5479 173.061 45.1947 172.509 46.0879C171.985 47.0029 171.841 48.0873 172.108 49.1075C172.376 50.1277 173.034 51.0019 173.94 51.5416V51.535Z" fill="#211715"/>
<path d="M77.861 54.9608C71.7656 61.7826 67.4815 70.0263 65.4021 78.9351C62.789 90.3724 63.691 102.212 66.1812 113.583C67.2792 118.593 74.9672 116.473 73.8708 111.463C71.6914 101.531 70.8026 91.0552 73.0868 81.0548C74.7973 73.4742 78.3773 66.442 83.5008 60.5989C86.8863 56.7649 81.2665 51.1052 77.861 54.9608Z" fill="#211715"/>
<path d="M168.335 37.3819C159.384 28.988 146.31 25.1988 134.28 24.8466C122.721 24.5311 111.282 27.2573 101.108 32.7522C95.5251 35.8616 90.4683 39.8325 86.1237 44.5184C82.6202 48.2627 88.2467 53.9125 91.7618 50.1565C100.38 40.9871 111.898 35.0716 124.371 33.4084C137.209 31.5595 152.872 33.8071 162.696 43.0217C166.437 46.5301 172.087 40.902 168.335 37.3836V37.3819Z" fill="#211715"/>
<path d="M459.989 218.12C459.143 235.12 459.254 252.153 460.321 269.14C461.506 284.318 463.908 299.377 467.504 314.17C470.582 326.451 474.41 338.532 478.966 350.344C478.966 350.344 479.679 351.896 480.627 353.934C479.807 356.368 478.915 358.881 477.916 361.496C477.38 365.601 477.82 368.401 478.423 373.978L462.087 341.974C450.347 317.823 440.131 291.123 429.841 262.142C429.721 261.807 429.691 261.446 429.755 261.096C429.818 260.746 429.974 260.419 430.205 260.148C433.079 256.939 436.139 253.904 439.372 251.057C439.277 248.553 439.381 246.046 439.681 243.558C439.807 239.712 440.536 235.91 441.84 232.29C441.84 232.29 446.962 221.326 453.053 218.552C459.145 215.778 459.989 218.12 459.989 218.12Z" fill="#397EB5"/>
<path d="M159.509 85.2191C162.343 85.8892 165.013 87.1231 167.36 88.8472C167.497 88.9452 168.102 89.4054 167.692 89.0881C168.012 89.3406 168.326 89.6064 168.634 89.8738C169.146 90.3223 169.645 90.7886 170.129 91.2725C170.661 91.8052 171.176 92.3589 171.672 92.9337C171.898 93.1945 172.122 93.457 172.336 93.7228C172.322 93.7045 173.087 94.6663 172.75 94.2211C176.771 99.3909 179.472 105.463 180.619 111.911C180.909 112.925 181.585 113.785 182.502 114.306C183.419 114.827 184.504 114.967 185.523 114.695C186.53 114.395 187.382 113.716 187.901 112.802C188.42 111.888 188.565 110.809 188.307 109.79C185.689 95.6597 176.112 81.2888 161.617 77.5278C160.597 77.2483 159.508 77.3854 158.589 77.9089C157.67 78.4324 156.997 79.2995 156.717 80.3195C156.438 81.3394 156.575 82.4286 157.098 83.3475C157.622 84.2663 158.489 84.9396 159.509 85.2191Z" fill="#211715"/>
<path d="M153.821 80.1711C152.96 77.4386 151.544 74.9137 149.66 72.7553C147.776 70.5968 145.466 68.8515 142.875 67.6291C137.017 64.7083 130.348 63.8412 123.938 65.1672C122.921 65.4539 122.059 66.1298 121.538 67.0481C121.017 67.9664 120.879 69.0532 121.154 70.0727C121.457 71.0777 122.136 71.9273 123.049 72.4456C123.962 72.9639 125.039 73.1112 126.057 72.8569C127.132 72.6254 128.227 72.5024 129.327 72.4898C129.991 72.4698 130.656 72.4748 131.308 72.5097C131.597 72.5247 131.885 72.5496 132.174 72.5712C132.34 72.5828 132.838 72.6343 132.397 72.5712C133.591 72.7342 134.769 72.9982 135.918 73.3602C136.526 73.5463 137.124 73.7556 137.716 73.9832C137.837 74.0314 138.312 74.239 137.935 74.0729C138.244 74.2091 138.548 74.3553 138.85 74.5048C139.838 75.0083 140.788 75.5817 141.694 76.2208C141.884 76.352 142.141 76.5613 141.811 76.2972C142.01 76.4633 142.208 76.6295 142.4 76.7956C142.829 77.171 143.24 77.5647 143.635 77.9767C143.801 78.1594 143.967 78.3438 144.133 78.5332C144.178 78.5847 144.648 79.1528 144.41 78.8488C144.133 78.4933 144.699 79.2658 144.743 79.3472C144.877 79.5482 145.008 79.7542 145.133 79.9635C145.379 80.3771 145.6 80.8057 145.797 81.2409C145.478 80.5648 145.797 81.2991 145.859 81.4519C145.955 81.7326 146.037 82.0167 146.115 82.3041C146.398 83.326 147.075 84.1937 147.997 84.7163C148.92 85.2389 150.012 85.3736 151.034 85.0907C152.056 84.8079 152.924 84.1307 153.447 83.2081C153.969 82.2855 154.104 81.193 153.821 80.1711Z" fill="#211715"/>
<path d="M136.298 76.867C130.269 76.0256 124.166 75.8529 118.098 76.352C111.891 76.8737 105.425 78.2259 101.269 83.2859C94.9978 90.9273 94.1357 103.966 83.3529 107.302C78.4656 108.813 80.5504 116.513 85.4725 114.99C90.5453 113.341 94.9368 110.073 97.973 105.687C101.144 101.378 102.849 96.4491 105.257 91.733C106.181 89.5686 107.723 87.7255 109.691 86.4355C112.015 85.2483 114.561 84.5597 117.166 84.4138C122.823 83.8015 128.531 83.85 134.175 84.5583C135.194 84.8034 136.268 84.652 137.179 84.1346C138.09 83.6173 138.77 82.7728 139.081 81.7725C139.355 80.753 139.216 79.6667 138.695 78.7488C138.173 77.8309 137.311 77.1554 136.295 76.8687L136.298 76.867Z" fill="#211715"/>
<path d="M69.2376 145.785C69.221 155.586 68.2077 165.849 70.5666 175.462C72.5783 183.633 79.7546 188.363 87.0124 191.617C87.9326 192.12 89.01 192.251 90.0241 191.985C91.0383 191.72 91.9124 191.076 92.4678 190.187C92.9933 189.272 93.1379 188.187 92.8702 187.167C92.6026 186.146 91.9443 185.272 91.0375 184.733C88.1287 183.547 85.3784 182.004 82.8494 180.14C80.2743 178.184 78.5382 175.322 77.9921 172.135C76.2296 163.58 77.1964 154.455 77.2114 145.785C77.2197 140.653 69.2459 140.647 69.2376 145.785Z" fill="#211715"/>
<path d="M94.35 180.737C95.108 181.252 95.7512 181.919 96.239 182.695C96.7268 183.472 97.0487 184.34 97.1845 185.247C97.3202 186.154 97.2668 187.079 97.0278 187.964C96.7887 188.849 96.369 189.675 95.7952 190.39C94.7583 191.49 93.4906 192.347 92.0832 192.898C90.6758 193.45 89.1636 193.683 87.6554 193.581C84.3845 193.475 80.0139 190.284 79.4989 186.626C79.0006 183.079 83.2466 180.041 87.1637 179.195C88.3996 178.885 89.6903 178.862 90.9363 179.129C92.1822 179.397 93.3502 179.947 94.35 180.737Z" fill="#211715"/>
<path d="M72.3275 105.925C65.0183 107.22 61.9799 117.115 62.573 125.543C63.1361 133.517 65.2542 142.052 72.2079 146.082C74.9555 147.327 79.1085 147.95 81.5272 145.337C83.9459 142.723 84.4841 138.818 84.6951 135.177C85.0649 128.771 84.7967 122.345 83.8944 115.993C83.3961 112.432 82.6635 109.819 79.9939 107.566C78.905 106.765 77.6585 106.205 76.337 105.922C75.0154 105.639 73.6488 105.64 72.3275 105.925Z" fill="white"/>
<path d="M71.2678 102.078C63.2724 103.719 59.7142 112.088 58.7922 119.381C57.7141 127.362 59.2461 135.478 63.1595 142.518C65.2013 146.118 68.4312 148.896 72.296 150.377C74.2702 151.147 76.417 151.365 78.5055 151.006C80.5941 150.648 82.5456 149.728 84.1503 148.344C87.4245 145.187 88.2917 140.416 88.6223 136.087C88.9928 130.92 88.9261 125.731 88.4229 120.575C87.9644 115.676 87.6122 110.375 84.3978 106.4C81.107 102.329 76.2381 101.294 71.2744 102.081C70.2591 102.367 69.3973 103.042 68.8751 103.959C68.3529 104.875 68.2123 105.96 68.4836 106.98C68.7865 107.985 69.4649 108.835 70.378 109.354C71.2912 109.872 72.3689 110.019 73.3874 109.764C74.3665 109.608 75.3697 109.724 76.2871 110.1C77.2045 110.476 78.0007 111.097 78.5886 111.895C80.1684 114.236 80.1934 117.846 80.4492 120.575C80.8093 124.406 80.9396 128.254 80.8396 132.1C81.0176 135.168 80.5857 138.241 79.5688 141.141C77.2215 146.194 71.507 141.044 69.7677 138.018C67.265 133.135 66.1416 127.662 66.5184 122.188C66.5756 119.401 67.2049 116.656 68.3673 114.123C68.772 113.034 69.4437 112.064 70.3209 111.302C71.198 110.54 72.2524 110.012 73.3874 109.764C73.8924 109.625 74.3649 109.386 74.7781 109.064C75.1913 108.742 75.5371 108.342 75.7957 107.887C76.0543 107.431 76.2207 106.929 76.2854 106.41C76.35 105.89 76.3116 105.363 76.1724 104.858C76.0333 104.353 75.796 103.88 75.4742 103.467C75.1524 103.054 74.7523 102.708 74.2969 102.449C73.8415 102.191 73.3395 102.024 72.8198 101.96C72.3001 101.895 71.7727 101.934 71.2678 102.073V102.078Z" fill="#211715"/>
<path d="M158.44 258.773C155.832 259.155 153.185 259.454 150.5 259.67C157.513 240.176 165.451 218.306 170.25 198.681C171.255 199.433 180.167 206.065 180.167 206.065C183.068 207.467 193.56 211.857 200.493 214.703C208.15 218.15 214.668 221.213 222.101 225.3C215.322 232.683 207.544 239.082 198.992 244.31C199.148 257.6 199.025 264.791 198.718 281.403C184.013 271.622 176.162 265.994 165.083 257.598C162.897 258.051 160.683 258.443 158.44 258.773Z" fill="#12537A"/>
<path d="M51.7203 221.069C48.6604 222.574 45.5889 224.156 42.4857 225.86C57.3966 238.634 76.4024 248.386 99.1076 254.422C104.779 255.931 110.347 257.135 115.813 258.034C108.987 238.807 101.832 217.483 95.5642 198.792C95.5227 198.827 95.4779 198.861 95.4779 198.861L85.3795 206.472C82.0737 207.954 72.6348 211.717 65.3687 214.703C60.7938 216.76 56.272 218.83 51.7203 221.069Z" fill="#12537A"/>
<path d="M120.138 0.356617C91.2531 2.54625 63.9747 14.5052 42.7927 34.2648C21.4081 54.3204 8.21657 80.9708 2.81769 109.588C-2.12437 135.76 -0.973161 163.078 9.53888 187.79C19.3981 210.959 37.2609 229.754 58.9229 242.342C71.2021 249.363 84.3606 254.719 98.0523 258.27C116.111 263.335 134.943 265.063 153.623 263.369C157.831 262.926 162.007 262.285 166.15 261.446L163.076 261.044C174.04 269.35 185.267 277.229 196.712 284.849C197.32 285.192 198.006 285.372 198.704 285.369C199.402 285.367 200.087 285.183 200.693 284.836C201.298 284.488 201.802 283.989 202.156 283.388C202.51 282.786 202.701 282.103 202.711 281.405C202.94 269.041 203.128 256.68 202.985 244.312L200.998 247.754C220.6 235.752 235.752 217.796 245.973 197.337C256.512 176.24 263.084 152.588 263.019 128.913C262.971 107.764 257.736 86.9494 247.772 68.2943C237.602 49.5162 222.856 33.6087 204.902 22.0451C182.838 7.95802 157.274 0.324548 131.098 0.00776737C127.444 -0.0337624 123.789 0.0924881 120.135 0.356617C119.085 0.381107 118.085 0.809011 117.343 1.55145C116.6 2.29389 116.172 3.29379 116.148 4.34347C116.156 5.39817 116.579 6.4072 117.325 7.15301C118.071 7.89882 119.08 8.32165 120.135 8.33033C148.277 6.34948 176.316 13.4068 200.168 28.4739C219.002 40.5009 234.07 57.5874 243.648 77.778C252.983 97.835 256.704 120.049 254.412 142.053C253.005 154.537 250.008 166.79 245.495 178.514C241.057 190.661 234.972 202.14 227.411 212.632C220.644 221.978 212.41 230.168 203.028 236.885C201.891 237.689 200.738 238.471 199.57 239.231C197.937 240.292 195.707 241.206 195.146 243.244C194.901 244.839 194.866 246.458 195.043 248.062C195.056 249.691 195.065 251.321 195.069 252.952C195.084 258.736 195.021 264.521 194.928 270.305C194.868 274.003 194.802 277.7 194.73 281.397L200.729 277.955C193.476 273.127 186.267 268.235 179.202 263.134C175.99 260.808 172.802 258.453 169.637 256.07C168.881 255.5 168.141 254.858 167.354 254.346C166.759 253.993 166.097 253.769 165.41 253.689C164.723 253.609 164.027 253.675 163.367 253.882C161.136 254.289 158.913 254.713 156.664 255.024C137.594 257.632 118.086 255.401 99.5889 250.416C73.0796 243.272 48.057 229.669 30.7191 207.982C14.6122 187.843 7.42086 162.087 7.91257 136.406C8.47571 107 17.4512 76.9125 35.8057 53.6559C54.0947 30.4053 80.3265 14.7285 109.466 9.63436C113.001 9.02637 116.555 8.60941 120.131 8.33199C121.181 8.30629 122.18 7.87799 122.922 7.13581C123.664 6.39363 124.092 5.39442 124.118 4.34513C124.11 3.29116 123.689 2.28244 122.944 1.53637C122.2 0.790297 121.192 0.36661 120.138 0.356617Z" fill="#211715"/>
<path d="M154.344 260.733C161.575 240.633 168.989 220.506 174.094 199.739L168.238 202.121C170.822 204.055 173.41 205.982 176.003 207.904C178.459 209.604 181.114 210.999 183.908 212.057C195.631 217.077 207.361 221.884 218.609 227.941C223.127 230.373 227.157 223.491 222.634 221.055C211.388 215 199.655 210.191 187.933 205.171C185.191 204.142 182.584 202.785 180.169 201.129C177.533 199.168 174.897 197.205 172.262 195.241C171.733 194.937 171.142 194.757 170.534 194.716C169.926 194.675 169.316 194.773 168.752 195.003C168.187 195.232 167.682 195.588 167.276 196.042C166.869 196.497 166.572 197.038 166.406 197.624C161.299 218.389 153.885 238.521 146.654 258.618C146.383 259.637 146.523 260.722 147.043 261.64C147.564 262.557 148.424 263.233 149.438 263.522C150.457 263.782 151.537 263.637 152.452 263.118C153.366 262.599 154.044 261.746 154.344 260.738V260.733Z" fill="#211715"/>
<path d="M119.662 256.985C112.685 237.311 106.04 217.52 99.4099 197.73C99.2084 197.07 98.8415 196.472 98.3441 195.993C97.8467 195.514 97.2352 195.17 96.5676 194.994C95.9 194.818 95.1985 194.815 94.5295 194.986C93.8606 195.157 93.2464 195.496 92.7452 195.971C94.1921 194.84 93.1838 195.629 92.8349 195.891C92.2983 196.293 91.7634 196.699 91.2285 197.102L86.7931 200.443C85.7366 201.239 84.6984 202.161 83.5787 202.865C82.3456 203.56 81.0476 204.134 79.7032 204.578C66.8461 209.612 54.252 215.294 41.9691 221.601C37.444 224.027 41.4708 230.912 45.9925 228.487C58.0711 222.008 70.6596 216.924 83.283 211.661C84.8207 211.137 86.3057 210.469 87.7184 209.667C88.8979 208.883 90.0026 207.946 91.1338 207.094C93.5525 205.267 95.9978 203.479 98.3833 201.612L91.7202 199.853C98.365 219.643 104.993 239.434 111.972 259.108C112.275 260.113 112.954 260.962 113.867 261.481C114.78 261.999 115.857 262.146 116.876 261.892C117.89 261.603 118.751 260.927 119.272 260.01C119.793 259.093 119.933 258.008 119.662 256.988V256.985Z" fill="#211715"/>
<path d="M440.187 245.158C437.75 247.123 435.41 249.208 433.147 251.372C430.923 253.499 427.979 255.867 426.469 258.58C424.546 262.032 427.134 266.399 428.316 269.71C429.625 273.352 430.947 276.988 432.282 280.619C437.431 294.601 442.835 308.492 448.708 322.189C451.855 329.529 455.167 336.797 458.643 343.992C459.184 344.898 460.058 345.555 461.078 345.822C462.098 346.09 463.182 345.946 464.097 345.422C464.994 344.874 465.644 343.999 465.91 342.983C466.177 341.966 466.04 340.885 465.527 339.967C453.615 315.411 443.945 289.842 434.777 264.158C434.501 263.106 434.135 262.079 433.684 261.089C434.285 261.157 432.538 262.75 433.637 262.28C433.948 262.147 434.509 261.326 434.717 261.105C435.88 259.871 437.069 258.67 438.287 257.492C440.704 255.156 443.209 252.909 445.825 250.799C446.567 250.048 446.983 249.035 446.983 247.98C446.983 246.925 446.567 245.912 445.825 245.161C445.066 244.435 444.057 244.031 443.006 244.031C441.956 244.031 440.946 244.435 440.187 245.161V245.158Z" fill="#211715"/>
<path d="M443.666 243.555C443.709 242.346 443.808 241.141 443.963 239.942L443.82 241.002C444.173 238.392 444.797 235.827 445.683 233.347C445.822 232.842 445.861 232.315 445.796 231.795C445.732 231.275 445.566 230.773 445.307 230.317C445.048 229.862 444.703 229.462 444.289 229.14C443.876 228.818 443.403 228.581 442.898 228.442C441.879 228.188 440.802 228.335 439.889 228.854C438.976 229.373 438.297 230.222 437.993 231.228C436.601 235.195 435.825 239.353 435.692 243.555C435.7 244.61 436.123 245.619 436.869 246.365C437.615 247.111 438.624 247.534 439.679 247.542C440.73 247.521 441.732 247.094 442.475 246.351C443.218 245.608 443.645 244.606 443.666 243.555Z" fill="#211715"/>
<path d="M478.418 373.981C477.815 368.405 477.375 365.604 477.912 361.499C482.428 349.68 484.754 339.937 488.14 330.216C492.957 316.373 511.571 260.75 521.086 242.339C527.399 230.139 533.17 215.876 538.288 206.115C542.674 209.31 546.597 213.098 549.944 217.369C556.441 225.62 559.686 234.111 559.606 238.232C559.593 238.897 544.745 244.814 540.142 246.902C545.823 251.298 551.216 256.053 556.289 261.14C557.148 261.974 557.676 263.091 557.778 264.285C557.879 265.478 557.546 266.668 556.84 267.635C547.115 280.179 517.951 323.993 500.921 345.18L478.418 373.981Z" fill="#3D8DCC"/>
<path d="M536.279 209.553C541.768 213.616 546.452 218.666 550.091 224.444C551.714 226.93 553.087 229.57 554.188 232.326C554.627 233.457 554.995 234.615 555.289 235.792C555.436 236.353 555.55 236.922 555.632 237.496C555.57 237.081 555.563 237.102 555.608 237.559C555.608 238.134 555.653 238.018 555.751 237.205L556.776 235.446C557.457 234.616 557.333 235.053 556.61 235.446C555.995 235.778 555.356 236.059 554.723 236.35C552.876 237.194 551.005 237.988 549.136 238.782C545.621 240.277 541.756 241.829 538.129 243.463C535.119 244.82 535.99 248.779 538.129 250.347C541.574 252.961 544.871 255.763 548.007 258.741C549.61 260.213 551.195 261.706 552.741 263.236C554.161 264.643 553.954 264.897 552.924 266.24C549.454 270.785 546.174 275.478 542.882 280.152C533.081 294.08 523.416 308.11 513.447 321.923C508.422 328.887 503.372 335.795 498.101 342.364C497.382 343.126 496.982 344.135 496.982 345.183C496.982 346.231 497.382 347.239 498.101 348.002C498.852 348.743 499.865 349.159 500.92 349.159C501.975 349.159 502.988 348.743 503.739 348.002C514.869 334.136 525.029 319.494 535.229 304.944C540.169 297.894 545.083 290.824 550.042 283.789C552.006 280.998 553.985 278.217 555.977 275.448C556.721 274.42 557.471 273.394 558.226 272.371C558.585 271.888 558.946 271.405 559.308 270.923L559.806 270.258C560.07 269.913 560.019 269.977 559.655 270.451C560.003 270.035 560.324 269.597 560.617 269.14C561.391 267.75 561.785 266.18 561.76 264.589C561.735 262.998 561.291 261.442 560.474 260.077C558.795 257.776 556.808 255.716 554.57 253.954C550.639 250.215 546.492 246.71 542.151 243.456V250.342C546.385 248.433 550.407 246.854 554.912 244.913C558.363 243.433 563.663 242.152 563.575 237.563C563.456 231.35 559.851 224.845 556.565 219.788C552.228 213.141 546.717 207.339 540.302 202.666C539.388 202.14 538.302 201.994 537.282 202.262C536.261 202.53 535.387 203.189 534.848 204.096C534.338 205.015 534.202 206.095 534.468 207.111C534.735 208.127 535.383 209.002 536.279 209.552V209.553Z" fill="#211715"/>
<path d="M534.849 204.096C531.405 210.699 528.415 217.532 525.321 224.301C522.463 230.552 519.352 236.663 516.388 242.86C512.048 251.931 508.468 261.39 504.926 270.796C497.819 289.69 491.334 308.804 484.736 327.879C482.309 334.901 480.276 342.044 478.011 349.118C477.282 351.394 476.521 353.659 475.731 355.914C474.802 358.064 474.153 360.324 473.797 362.638C473.63 366.43 473.843 370.229 474.432 373.979C474.461 375.027 474.891 376.024 475.632 376.765C476.373 377.507 477.37 377.936 478.418 377.966C479.474 377.959 480.484 377.537 481.23 376.791C481.977 376.045 482.399 375.034 482.405 373.979C481.914 370.674 481.672 367.337 481.681 363.995C481.831 362.446 482.239 360.933 482.887 359.518C483.671 357.354 484.42 355.177 485.135 352.987C487.425 345.986 489.371 338.867 491.764 331.908C494.357 324.356 496.96 316.807 499.572 309.261C503.3 298.52 507.089 287.8 511.034 277.14C514.556 267.643 518.151 258.07 522.149 249.282C524.948 243.135 528.13 237.163 530.962 231.024C534.492 223.366 537.826 215.601 541.726 208.121C544.097 203.576 537.218 199.539 534.843 204.096H534.849Z" fill="#211715"/>
<path d="M456.002 218.124C454.93 237.574 455.254 257.076 456.97 276.48C458.679 293.68 462.005 310.681 466.904 327.256C469.341 335.396 472.054 343.479 475.127 351.412C475.434 352.414 476.113 353.262 477.025 353.78C477.937 354.297 479.013 354.446 480.031 354.196C481.047 353.909 481.908 353.233 482.43 352.315C482.951 351.398 483.09 350.311 482.817 349.292C477.287 335.106 472.899 320.502 469.693 305.618C465.906 287.667 463.835 269.397 463.51 251.054C463.288 240.077 463.51 229.096 463.972 218.128C464.186 212.996 456.213 213.006 455.998 218.128L456.002 218.124Z" fill="#211715"/>
<path d="M451.199 210.375C438.74 220.59 422.59 225.131 408.722 232.984C401.468 236.847 395.017 242.06 389.718 248.343C383.927 255.607 380.999 264.168 378.588 273.033C373.751 290.782 369.493 308.687 364.669 326.441L356.677 355.86C355.33 360.819 363.02 362.934 364.365 357.98C368.506 342.737 372.744 327.519 376.695 312.226C379.668 300.712 382.587 289.183 385.605 277.673C387.394 270.862 389.163 263.829 392.811 257.739C396.889 251.341 402.415 245.992 408.942 242.124C424.376 232.394 442.594 227.685 456.842 215.996C457.583 215.245 457.998 214.232 457.998 213.177C457.998 212.121 457.583 211.108 456.842 210.357C456.083 209.631 455.073 209.226 454.023 209.226C452.973 209.226 451.963 209.631 451.204 210.357L451.199 210.375Z" fill="#211715"/>
<path d="M402.089 128.107C402.49 142.7 405.233 157.134 410.214 170.856C415.392 184.667 423.868 198.178 435.594 207.368C458.628 225.416 492.455 226.305 516.863 210.489C529.747 202.014 540.444 190.611 548.08 177.212C550.632 172.75 543.746 168.728 541.194 173.187C535.022 183.983 526.707 193.402 516.762 200.867C506.465 208.686 494.027 213.175 481.11 213.734C468.193 214.293 455.413 210.895 444.48 203.995C433.017 196.585 424.466 184.458 419.198 172.024C413.52 158.062 410.424 143.184 410.061 128.115C409.875 123.001 401.9 122.976 402.088 128.115L402.089 128.107Z" fill="#211715"/>
<path d="M463.531 154.57C462.977 155.936 462.501 157.332 462.104 158.751C461.406 161.116 460.569 164.09 462.549 166.092C462.985 166.51 463.477 166.866 464.011 167.15C464.553 167.446 465.131 167.67 465.732 167.814C466.543 167.954 467.366 168.01 468.189 167.98C469.246 167.98 470.26 167.56 471.008 166.813C471.756 166.065 472.176 165.051 472.176 163.994C472.173 162.936 471.755 161.922 471.013 161.17C470.251 160.44 469.243 160.025 468.189 160.007C467.757 160.031 467.323 160.029 466.891 159.998L467.951 160.141C467.733 160.103 467.519 160.043 467.313 159.962L468.267 160.364C467.962 160.227 467.674 160.056 467.41 159.852L468.217 160.475C468.206 160.466 468.197 160.456 468.189 160.445L468.812 161.253C468.798 161.233 468.786 161.212 468.777 161.19L469.179 162.141C469.161 162.093 469.148 162.042 469.142 161.99L469.285 163.05C469.269 162.841 469.277 162.631 469.31 162.424L469.167 163.484C469.382 162.212 469.706 160.961 470.136 159.744C470.468 158.716 470.8 157.678 471.22 156.681C471.362 156.168 471.399 155.632 471.33 155.105C471.261 154.577 471.087 154.069 470.818 153.61C470.554 153.157 470.203 152.762 469.786 152.445C469.369 152.128 468.894 151.897 468.387 151.764C467.88 151.631 467.353 151.6 466.834 151.671C466.315 151.742 465.815 151.915 465.363 152.179L464.556 152.802C464.068 153.29 463.715 153.896 463.531 154.561V154.57Z" fill="#211715"/>
<path d="M433.684 137.066C432.556 140.606 433.059 148.809 439.51 149.629C448.058 149.742 448.729 139.85 445.955 135.139C443.684 131.281 436.794 129.562 433.684 137.066Z" fill="#211715"/>
<path d="M507.035 137.368C508.104 141.109 507.182 149.647 500.122 150.231C490.811 149.981 490.53 139.629 493.764 134.831C496.412 130.903 504 129.408 507.035 137.368Z" fill="#211715"/>
<path d="M479.441 197.818C482.124 195.37 484.377 192.49 486.106 189.297C488.058 185.643 490.613 179.717 485.94 176.948C483.636 175.581 480.458 176.264 477.918 176.488C475.204 176.727 472.491 177.011 469.778 177.319C466.74 177.667 463.705 178.043 460.682 178.498C459.663 178.781 458.799 179.456 458.277 180.375C457.755 181.294 457.618 182.382 457.896 183.402C458.204 184.404 458.884 185.25 459.796 185.768C460.708 186.285 461.783 186.435 462.801 186.186C463.355 186.103 463.909 186.023 464.462 185.947C465.625 185.781 463.982 186.007 464.743 185.909L465.599 185.797C467.044 185.612 468.491 185.438 469.941 185.274C472.885 184.942 475.833 184.633 478.785 184.385C479.958 184.287 481.131 184.196 482.305 184.136C482.508 184.15 482.713 184.14 482.913 184.106C482.363 184.085 481.839 183.862 481.443 183.478C481.171 183.202 480.964 182.869 480.837 182.503C480.71 182.137 480.666 181.747 480.709 181.362C480.559 181.75 480.448 182.152 480.377 182.561C480.293 182.827 480.203 183.09 480.108 183.35C479.927 183.799 479.905 183.87 480.039 183.566C479.243 185.377 478.253 187.096 477.086 188.693C476.842 189.04 476.599 189.39 476.338 189.726C476.732 189.228 475.985 190.11 475.891 190.206C475.227 190.899 474.493 191.523 473.79 192.178C473.051 192.93 472.637 193.942 472.637 194.997C472.637 196.052 473.051 197.064 473.79 197.816C474.548 198.544 475.559 198.95 476.61 198.95C477.661 198.95 478.671 198.544 479.43 197.816L479.441 197.818Z" fill="#211715"/>
</svg>
