<svg width="512" height="512" viewBox="0 0 512 512" fill="none" xmlns="http://www.w3.org/2000/svg">
<g clip-path="url(#clip0_363_3252)">
<path d="M153.5 38.0001C152.3 38.4001 150.9 39.4001 150.3 40.2001C148.8 42.0001 119 118.3 119 120.4C119 123.3 121.2 126.8 123.9 128C133.7 132.6 200.8 158 202.9 158C204.4 158 206.6 157.1 207.8 156C211.8 152.2 211.6 149.6 206.5 137.7C200.8 124.7 200.4 125.5 214.3 121.7C233.8 116.3 240.1 115.5 262.5 115.6C280.3 115.6 285.1 116 293.9 117.9C306.3 120.5 321.2 125.2 329.9 129.1C333.4 130.7 337.1 132 338.1 132C343.1 132 347 127.8 347 122.6C347 119.4 336.4 106.4 325.9 96.6001C306 78.1001 280.9 65.1001 252.9 58.8001C243.7 56.8001 239.9 56.5001 221 56.5001C199.3 56.6001 193.9 57.3001 175.5 62.5001C173.8 63.0001 172.9 61.6001 168.6 51.5001C164.7 42.4001 163 39.5001 160.9 38.4001C157.8 36.8001 156.4 36.7001 153.5 38.0001ZM163.2 79.7001C166 82.7001 169.2 82.6001 180.8 79.0001C194.8 74.7001 206.4 73.0001 221.5 73.0001C243.4 73.0001 262.9 77.5001 281.7 86.9001C290.8 91.5001 306.6 101.7 305.8 102.5C305.6 102.7 303.7 102.5 301.5 102C292.4 99.8001 274.1 98.0001 262 98.0001C240.4 98.0001 217.2 102 198 108.9C180.6 115.2 179 117.7 184.4 130.2L186 133.9L179.7 131.5C167.7 127 139.5 115.8 139.2 115.6C139 115.3 151.3 83.0001 156.2 71.0001C157.2 68.5001 157.3 68.6001 159.2 73.0001C160.2 75.5001 162.1 78.5001 163.2 79.7001Z" fill="#137AB6"/>
<path d="M238.496 155.599C184.396 165.299 147.696 215.399 155.096 269.699C160.496 310.399 190.396 343.999 230.496 354.699C239.296 356.999 242.396 357.299 255.996 357.299C269.596 357.299 272.696 356.999 281.496 354.699C317.296 345.199 345.196 317.299 354.696 281.499C356.996 272.699 357.296 269.599 357.296 255.999C357.296 242.399 356.996 239.299 354.696 230.499C340.996 178.999 290.296 146.399 238.496 155.599ZM247.996 193.299V212.599L237.296 211.699C231.396 211.299 225.996 210.599 225.296 210.199C223.496 209.099 229.696 194.399 235.496 185.799C239.796 179.599 245.296 173.999 247.296 173.999C247.696 173.999 247.996 182.699 247.996 193.299ZM268.496 176.399C275.696 181.999 289.896 208.299 286.696 210.199C285.996 210.599 280.596 211.299 274.696 211.699L263.996 212.599V193.299C263.996 182.699 264.296 173.999 264.696 173.999C264.996 173.999 266.696 175.099 268.496 176.399ZM214.096 189.099C211.896 193.699 209.596 199.399 208.896 201.699C208.196 204.099 207.096 205.999 206.396 205.999C204.796 205.999 193.796 201.999 192.696 200.999C191.496 199.999 204.996 187.699 211.696 183.699C214.896 181.799 217.596 180.399 217.796 180.499C217.896 180.599 216.296 184.499 214.096 189.099ZM305.996 187.599C308.496 189.399 312.696 193.099 315.396 195.899L320.296 200.899L317.396 202.099C310.996 204.599 306.696 205.999 305.496 205.999C304.896 205.999 303.796 204.099 303.096 201.699C302.396 199.399 300.096 193.699 297.896 189.099C295.796 184.499 293.996 180.499 293.996 180.299C293.996 179.699 300.596 183.699 305.996 187.599ZM198.296 221.499L203.696 223.099L202.896 227.299C202.496 229.599 201.796 235.199 201.496 239.699L200.696 247.999H186.396H171.996V245.199C171.996 238.999 177.996 220.199 181.196 216.299C181.896 215.499 183.496 215.799 187.496 217.499C190.396 218.799 195.296 220.599 198.296 221.499ZM333.896 222.499C337.196 230.499 339.996 240.699 339.996 245.199V247.999H325.596H311.296L310.496 239.699C310.196 235.199 309.496 229.599 309.096 227.299L308.296 223.099L314.896 221.099C318.496 219.899 323.296 218.099 325.496 217.099C327.696 215.999 329.796 215.099 330.096 215.099C330.396 214.999 332.096 218.399 333.896 222.499ZM238.996 228.899L247.496 229.499L247.796 238.699L248.096 247.999H232.896H217.696L218.396 241.199C218.796 237.499 219.396 232.799 219.696 230.699L220.296 226.899L225.396 227.599C228.196 227.999 234.296 228.599 238.996 228.899ZM292.296 230.699C292.696 232.799 293.196 237.499 293.596 241.199L294.296 247.999H279.096H263.896L264.196 238.699L264.496 229.499L274.996 228.799C280.796 228.299 285.896 227.799 286.496 227.599C286.996 227.299 288.496 227.099 289.596 227.099C291.296 226.999 291.896 227.699 292.296 230.699ZM201.496 272.199C201.796 276.799 202.496 282.399 202.896 284.599L203.696 288.699L198.096 290.499C194.996 291.499 190.196 293.299 187.296 294.499C183.396 296.299 181.896 296.499 181.196 295.699C177.996 291.799 171.996 272.999 171.996 266.699V263.999H186.396H200.696L201.496 272.199ZM247.796 273.199L247.496 282.499L238.996 283.099C234.296 283.399 228.196 283.999 225.396 284.399L220.296 285.199L219.696 280.799C219.296 278.399 218.796 273.699 218.396 270.199L217.696 263.999H232.896H248.096L247.796 273.199ZM293.596 270.699C293.196 274.499 292.596 279.199 292.296 281.299L291.696 285.099L286.596 284.399C283.796 283.999 277.696 283.399 272.996 283.099L264.496 282.499L264.196 273.199L263.896 263.999H279.096H294.296L293.596 270.699ZM339.996 266.699C339.996 272.999 333.996 291.799 330.796 295.699C330.096 296.499 328.596 296.299 324.696 294.499C321.796 293.299 316.996 291.499 313.896 290.499L308.296 288.699L309.096 284.599C309.496 282.399 310.196 276.799 310.496 272.199L311.296 263.999H325.596H339.996V266.699ZM247.496 337.799C246.396 338.899 239.996 332.699 235.596 326.199C229.596 317.499 223.496 302.899 225.396 301.799C226.096 301.399 231.396 300.699 237.096 300.299L247.496 299.499L247.796 318.399C247.896 328.799 247.796 337.499 247.496 337.799ZM286.696 301.799C288.496 302.899 282.296 317.599 276.396 326.199C272.296 332.299 266.596 337.999 264.696 337.999C264.296 337.999 263.996 329.299 263.996 318.699V299.399L274.696 300.299C280.596 300.699 285.996 301.399 286.696 301.799ZM208.896 310.199C209.596 312.599 211.896 318.299 214.096 322.899C216.296 327.499 217.896 331.399 217.696 331.599C216.996 332.299 200.896 320.499 196.596 316.099L191.696 311.099L194.596 309.899C207.396 304.899 207.396 304.899 208.896 310.199ZM312.696 308.099C315.896 309.299 318.796 310.499 319.196 310.899C320.396 311.999 310.196 321.399 301.996 326.899C297.896 329.599 294.396 331.699 294.296 331.599C294.096 331.399 295.696 327.499 297.896 322.899C300.096 318.299 302.396 312.599 303.096 310.199C303.796 307.899 304.896 305.999 305.596 305.999C306.296 305.999 309.496 306.999 312.696 308.099Z" fill="#137AB6"/>
<path d="M9 185.2C6.5 186.5 3.5 189 2.3 190.9L0 194.3V256V317.7L2.3 321.1C5.5 325.9 12.1 329 19.2 329C23.9 329 25.2 329.3 25.6 330.7C29.6 342.9 40 354.8 51.4 360.1C76 371.6 105.3 361.2 116.8 336.8L120.5 329.1L126 329C132.5 329 139.3 326 142.3 321.9C143.4 320.4 144.6 317.3 145.1 314.9C146.2 309.2 146.2 202.8 145.1 197.1C144 191.4 141.4 188 136 185.2L131.6 183H72.5H13.4L9 185.2ZM44 224.9C44 248.5 44.1 249.9 46.1 252.4C49.3 256.5 54.3 256 64 250.5C68.4 248 72.2 246 72.5 246C72.8 246 76.6 248 81 250.5C90.7 256 95.7 256.5 98.9 252.4C100.9 249.9 101 248.5 101 224.8V199.9L114.8 200.2L128.5 200.5V256V311.5H125.1C121.7 311.5 121.7 311.4 120.4 305.4C117.4 290.7 107.3 277.9 93.4 271.3C85.5 267.5 85.5 267.5 72.5 267.5C59.5 267.5 59.5 267.5 51.6 271.3C37.7 277.9 27.6 290.7 24.6 305.4C23.3 311.4 23.3 311.5 19.9 311.5H16.5L16.2 257C16.1 227 16.2 201.9 16.5 201.2C16.8 200.3 20.6 200 30.5 200H44V224.9ZM84 216C84 224.8 83.8 232 83.6 232C83.3 232 81.5 231.1 79.6 229.9C77.6 228.7 74.4 227.8 72.5 227.8C70.6 227.8 67.5 228.7 65.7 229.9C63.8 231.1 62 232 61.6 232C61.3 232 61 224.8 61 216V200H72.5H84V216ZM86.8 287.1C93 290.2 98.7 296.1 101.8 302.9C108.8 318 101.7 337.1 86.2 344.7C81.4 347.1 79.2 347.5 72.5 347.5C65.8 347.5 63.6 347.1 58.8 344.7C43.4 337.1 36.2 318 43.1 303C50.9 286.2 70.3 279.1 86.8 287.1Z" fill="#137AB6"/>
<path d="M66.9 289.9C64 292.8 64 293 64 304C64 314.6 63.9 315 62.1 314C58.8 312.3 56 312.9 52.9 315.9C50.9 318 50 319.8 50 322.1C50 324.9 51.4 326.7 59.3 334.7C67.9 343.2 68.9 344 72.5 344C76.1 344 77.1 343.2 85.7 334.7C93.6 326.7 95 324.9 95 322.1C95 319.8 94.1 318 92.1 315.9C89 312.9 86.2 312.3 82.9 314C81.1 315 81 314.6 81 303.8C80.9 292.1 80.4 290.4 76.3 288.2C72.8 286.3 70 286.8 66.9 289.9Z" fill="#137AB6"/>
<path d="M375.602 185.3C370.802 188 368.102 191.5 367.002 196.6C365.802 201.7 365.802 310.3 367.002 315.4C368.902 323.8 376.102 329 386.002 329L391.502 329.1L395.202 336.9C406.802 361.4 435.902 371.6 460.802 360C472.002 354.8 482.502 342.8 486.402 330.7C486.802 329.4 488.102 329 492.702 329C499.902 329 505.902 326.4 509.102 321.9L511.502 318.5L511.802 256.4L512.002 194.4L509.802 190.9C508.502 189 505.502 186.5 503.002 185.2L498.602 183H439.002H379.502L375.602 185.3ZM411.002 224.9C411.002 248.5 411.102 249.9 413.102 252.4C416.302 256.5 421.302 256 431.002 250.5C435.402 248 439.202 246 439.502 246C439.802 246 443.602 248 448.002 250.5C457.702 256 462.702 256.5 465.902 252.4C467.902 249.9 468.002 248.5 468.002 224.8V199.9L481.802 200.2L495.502 200.5V256V311.5H492.102C488.702 311.5 488.702 311.4 487.402 305.4C484.502 290.8 474.202 277.9 460.302 271.2C452.502 267.5 452.402 267.5 439.502 267.5C426.502 267.5 426.502 267.5 418.702 271.2C404.602 277.9 394.602 290.6 391.602 305.4C390.302 311.4 390.302 311.5 386.902 311.5H383.502L383.202 257C383.102 227 383.202 201.9 383.502 201.2C383.802 200.3 387.602 200 397.502 200H411.002V224.9ZM451.002 216C451.002 224.8 450.802 232 450.602 232C450.302 232 448.502 231.1 446.602 229.9C444.602 228.7 441.402 227.8 439.502 227.8C437.602 227.8 434.402 228.7 432.402 229.9C430.502 231.1 428.702 232 428.402 232C428.202 232 428.002 224.8 428.002 216V200H439.502H451.002V216ZM453.502 287C468.702 294.4 475.702 313.2 468.802 328.1C455.702 356.6 416.202 353.3 408.402 323C401.802 297.3 429.402 275.3 453.502 287Z" fill="#137AB6"/>
<path d="M434.5 288.9C432.9 289.9 428.2 294.1 424.3 298.4C418.1 304.9 417 306.5 417 309.5C417 312 417.8 313.9 419.6 315.7C421.8 317.9 422.8 318.2 426.6 317.7L431 317.2V328.2C431 338.4 431.1 339.2 433.5 341.5C435.1 343.2 437 344 439.5 344C442 344 443.9 343.2 445.5 341.5C447.9 339.2 448 338.4 448 328.2V317.2L452.4 317.7C456.2 318.2 457.2 317.9 459.4 315.7C464.4 310.7 462.6 305.9 452.3 295.9C442.6 286.4 440.1 285.4 434.5 288.9Z" fill="#137AB6"/>
<path d="M304.202 355.999C300.202 359.799 300.402 362.399 305.502 374.299C309.902 384.399 310.202 385.399 308.602 386.499C306.702 387.899 286.902 393.299 276.502 395.199C266.002 397.099 232.802 396.899 221.502 394.799C209.402 392.499 196.302 388.599 186.002 384.299C174.502 379.499 170.802 379.099 167.602 382.399C162.502 387.399 164.802 392.999 178.002 407.299C200.402 431.599 231.502 448.399 264.502 453.999C285.402 457.599 310.802 456.399 330.902 450.899C334.902 449.799 338.402 449.099 338.502 449.199C338.602 449.399 340.902 454.599 343.602 460.799C347.402 469.799 349.102 472.499 351.302 473.699C354.602 475.399 359.102 474.699 361.402 472.199C363.102 470.299 393.002 394.099 393.002 391.599C393.002 387.999 390.502 384.999 386.002 383.099C369.702 376.099 311.302 353.999 309.102 353.999C307.602 353.999 305.402 354.899 304.202 355.999ZM355.502 389.499C364.802 393.199 372.602 396.299 372.802 396.499C373.202 396.899 356.002 441.199 355.002 442.299C354.602 442.699 353.502 440.999 352.502 438.399C349.202 429.599 345.402 428.199 334.902 431.899C318.902 437.399 311.502 438.399 290.002 438.399C270.302 438.399 269.102 438.299 257.802 435.299C244.002 431.599 230.302 425.799 219.402 418.999C210.202 413.299 204.402 408.599 207.502 409.399C223.702 413.599 254.702 415.099 273.702 412.599C294.502 409.899 321.602 401.799 327.702 396.599C330.802 393.899 331.002 389.399 328.202 382.799L326.102 378.099L332.302 380.499C335.702 381.799 346.102 385.799 355.502 389.499Z" fill="#137AB6"/>
</g>
<defs>
<clipPath id="clip0_363_3252">
<rect width="512" height="512" fill="white"/>
</clipPath>
</defs>
</svg>
