<svg width="512" height="512" viewBox="0 0 512 512" fill="none" xmlns="http://www.w3.org/2000/svg">
<path d="M37.6016 1.60098C36.7016 2.40098 35.8016 4.10098 35.5016 5.30098C35.2016 6.50098 35.1016 93.1009 35.2016 197.801L35.5016 388.001L85.0016 437.501L134.502 487.001H274.202C364.902 487.001 414.102 486.701 414.502 486.001C414.802 485.501 419.202 489.901 424.302 495.901C436.202 509.901 438.302 511.401 447.502 511.801C453.202 512.101 455.502 511.801 458.602 510.201C464.302 507.301 471.802 500.301 474.202 495.601C477.102 490.301 477.202 481.001 474.602 476.001C473.502 474.101 462.102 459.901 449.102 444.501C436.102 429.101 424.902 415.701 424.202 414.801C423.002 413.301 423.302 412.401 426.502 408.301C432.102 401.001 440.702 382.601 443.702 371.501C446.102 362.401 446.402 359.801 446.402 343.001C446.502 327.001 446.202 323.401 444.302 316.301C439.802 299.301 431.402 282.501 422.302 272.101L418.002 267.201L417.802 135.701C417.502 8.00096 417.402 4.10098 415.602 2.10098L413.702 0.000976562H226.402C57.6016 0.000976562 39.0016 0.200976 37.6016 1.60098ZM403.002 133.401V252.901L394.402 247.501C385.402 241.801 374.602 237.201 362.002 233.701C355.602 231.901 351.702 231.601 335.002 231.601C316.702 231.501 314.902 231.701 305.602 234.301C287.002 239.401 271.102 248.501 256.902 261.701L249.202 269.001H199.102C150.302 269.001 148.902 269.101 147.002 271.001C144.302 273.701 144.302 279.301 147.002 282.001C148.902 283.901 150.302 284.001 193.902 284.001H238.802L236.102 289.001L233.502 294.001H164.302H95.1016L93.1016 296.601C90.3016 300.101 90.5016 303.501 93.5016 306.501L95.9016 309.001H161.502C197.502 309.001 227.002 309.301 227.002 309.601C227.002 309.901 226.502 312.101 225.902 314.601L224.802 319.001H160.002H95.1016L93.1016 321.601C90.3016 325.101 90.5016 328.501 93.5016 331.501L95.9016 334.001H159.602H223.302L222.602 337.101C222.302 338.801 222.002 341.101 222.002 342.101C222.002 343.901 219.902 344.001 158.602 344.001H95.1016L93.1016 346.601C90.3016 350.101 90.5016 353.501 93.5016 356.501L95.9016 359.001H159.702H223.502L225.102 367.301C233.202 407.901 266.102 441.501 308.102 452.101C320.002 455.101 342.402 455.801 354.502 453.601C363.702 451.901 374.502 448.701 379.102 446.401C381.602 445.201 381.902 445.401 392.102 457.601C397.802 464.501 402.702 470.501 402.802 471.101C403.002 471.601 354.802 472.001 274.602 472.001H146.002V427.101C146.002 383.301 146.002 382.201 143.902 379.601L141.902 377.001H95.9016H50.0016V195.501V14.001H226.502H403.002V133.401ZM361.502 249.501C394.602 259.001 420.002 284.901 429.202 318.501C432.302 330.001 432.402 355.901 429.202 367.301C419.902 400.901 394.902 426.401 361.302 436.701C353.202 439.101 351.102 439.401 335.002 439.401C318.702 439.401 316.902 439.201 308.502 436.601C290.602 431.101 276.002 422.101 264.002 409.301C227.502 370.301 229.002 310.301 267.302 273.301C292.802 248.701 327.902 239.801 361.502 249.501ZM131.002 426.501C131.002 445.501 130.902 461.001 130.702 461.001C130.602 461.001 115.002 445.501 96.0016 426.501L61.5016 392.001H96.3016H131.002V426.501ZM435.502 452.201C448.202 467.101 459.302 480.601 460.302 482.101C462.702 485.801 462.002 487.901 456.502 492.901C451.802 497.201 447.902 498.201 444.702 495.701C442.802 494.201 396.002 438.801 396.002 437.901C396.002 437.601 398.402 435.701 401.302 433.701C404.302 431.601 407.702 428.901 409.002 427.501C410.302 426.101 411.602 425.001 412.002 425.001C412.302 425.001 422.902 437.201 435.502 452.201Z" fill="#137AB6"/>
<path d="M289.203 32.1002C284.503 34.5002 280.603 38.9002 278.903 43.9002C277.903 46.9002 275.403 48.3002 247.903 62.1002L218.003 77.0002H195.103C170.103 77.0002 165.103 77.8002 155.703 83.3002C150.003 86.7002 140.903 96.5002 138.003 102.4C133.303 112.3 131.603 126.4 134.103 136.9C137.003 149.5 147.603 162.6 159.403 168.1L166.003 171.2V202.1V233.1L168.503 235.5C170.903 238 171.203 238 188.303 238C204.403 238 205.903 237.8 208.403 235.9L211.003 233.9V203.4V173H214.503C217.003 173 226.403 177.2 247.803 187.9C276.703 202.4 277.703 202.9 279.403 206.8C287.103 223.8 309.603 224.3 318.103 207.8C319.903 204.2 320.003 200.8 320.003 124.7V45.3002L317.703 40.9002C314.103 34.1002 308.403 30.6002 300.203 30.2002C294.803 30.0002 292.603 30.3002 289.203 32.1002ZM303.203 46.7002C304.903 48.2002 305.003 52.0002 305.003 124.7C305.003 199.7 305.003 201 303.003 203C301.903 204.1 300.103 205 299.003 205C297.903 205 296.103 204.1 295.003 203C293.003 201 293.003 199.7 293.003 124.8C293.003 55.4002 293.103 48.5002 294.703 46.8002C296.703 44.6002 300.803 44.5002 303.203 46.7002ZM277.603 184.7C277.403 184.9 266.103 179.6 252.603 172.9L228.003 160.7V124.8V89.0002L252.803 76.6002L277.503 64.2002L277.803 124.3C277.903 157.3 277.803 184.5 277.603 184.7ZM213.003 125.1V158.1L192.803 157.8C173.303 157.5 172.303 157.4 167.003 154.9C160.403 151.7 154.703 146.3 151.203 139.5C148.803 135.1 148.503 133.3 148.503 125C148.503 116.9 148.903 114.8 150.903 111C154.503 104.3 157.603 100.5 162.203 97.5002C169.603 92.6002 172.103 92.1002 193.303 92.1002L213.003 92.0002V125.1ZM196.003 198V223H188.503H181.003V198V173H188.503H196.003V198Z" fill="#137AB6"/>
<path d="M322.496 256.901C287.196 262.801 259.896 287.201 250.896 321.001C247.896 332.301 247.596 351.901 250.396 363.001C252.496 371.501 258.196 384.501 262.996 391.701C273.296 407.001 291.296 420.301 309.096 425.801C356.896 440.501 407.396 411.801 419.196 363.201C421.796 352.201 421.996 333.801 419.596 323.701C411.996 291.901 387.696 267.001 356.496 259.001C347.596 256.701 330.196 255.701 322.496 256.901ZM352.496 273.501C377.896 280.101 398.496 301.101 404.596 326.501C406.796 335.601 406.796 350.401 404.596 359.501C398.496 384.701 377.596 405.801 351.996 412.601C342.296 415.201 326.596 414.901 316.496 412.101C265.896 397.901 246.596 337.601 279.796 297.401C290.296 284.701 306.896 275.001 323.796 272.001C330.196 270.801 345.196 271.601 352.496 273.501Z" fill="#137AB6"/>
<path d="M361.4 314.2C359.2 316.6 350.3 327.1 341.6 337.6L325.7 356.8L317.3 346.6C306.6 333.9 304.5 332 301.2 332C296.6 332 294 334.6 294 339C294 342.5 295.1 344.3 305.1 356.2C321 375.2 321.9 376 325.5 376C327.2 376 329.3 375.4 330.2 374.7C331.1 374.1 341.8 361.6 353.9 347C377.3 318.9 378.1 317.5 374.4 312.2C373.3 310.6 371.9 310 369.1 310C365.9 310 364.6 310.7 361.4 314.2Z" fill="#137AB6"/>
</svg>
