<svg width="512" height="512" viewBox="0 0 512 512" fill="none" xmlns="http://www.w3.org/2000/svg">
<path d="M101.8 17C97.5 18.3 93.4 21.7 91.6 25.4C90.2 28.4 90 34.2 90 72.2C90 96 90.4 116 90.8 116.6C93.4 120.5 101 120.6 103.3 116.7C104.2 115.1 104.6 103.4 105 73L105.5 31.5L227.3 31.2L349 31V58.7C349 84.5 349.2 86.7 350.9 89.4C354.5 94.8 355.3 94.9 384.7 95H411.9L412.2 140.9C412.5 184.4 412.6 186.9 414.4 188.9C416.9 191.6 423 191.8 425.3 189.2C426.8 187.5 427 182.3 427 135.4V83.5L393.2 49.7L359.4 16L232 16.1C161.9 16.1 103.3 16.5 101.8 17ZM383 61.5L401.5 80H382.7H364V61.5C364 51.3 364.1 43 364.3 43C364.4 43 372.8 51.3 383 61.5Z" fill="#137AB6"/>
<path d="M135.299 64.9999C130.899 66.7999 129.599 73.5999 132.999 76.9999C134.999 78.9999 136.299 78.9999 197.999 78.9999C259.699 78.9999 260.999 78.9999 262.999 76.9999C265.499 74.4999 265.599 69.8999 263.099 66.8999L261.199 64.4999L199.299 64.2999C164.899 64.1999 136.499 64.4999 135.299 64.9999Z" fill="#137AB6"/>
<path d="M472.398 92.7998C470.498 94.0998 468.498 96.6998 467.098 100.1C465.798 103.1 463.698 106.4 462.398 107.5C460.598 109 450.498 135.7 419.698 220.5L379.398 331.5L380.398 353.1C381.598 377.7 382.098 379 388.998 379C392.598 379 393.598 378.1 407.398 363.6L421.998 348.2L462.098 238.4C495.298 147.2 502.098 127.8 501.798 124.5C501.498 122.3 501.998 119.1 502.698 117.3C504.498 112.8 504.298 105.4 502.298 101.8C501.098 99.7998 498.098 97.6998 492.998 95.1998C483.798 90.7998 476.898 89.9998 472.398 92.7998ZM485.298 108.5C488.098 109.6 488.698 110.4 488.298 112C487.698 114.4 487.998 114.4 482.998 112.4C479.598 111 479.198 110.5 480.098 108.9C481.298 106.6 480.898 106.7 485.298 108.5ZM478.398 127C481.998 128.6 484.998 130.1 484.998 130.4C484.998 131.1 410.898 334.5 410.398 334.9C409.598 335.8 396.998 329.7 396.998 328.5C396.998 327.8 413.398 282.2 433.398 227.3C473.198 118.3 471.098 124 471.498 124C471.698 124 474.798 125.3 478.398 127ZM398.498 347.2L400.998 348.3L398.898 350.6C396.298 353.4 394.998 352.9 394.998 348.9C394.998 345.6 394.998 345.6 398.498 347.2Z" fill="#137AB6"/>
<path d="M133.001 111.2C130.301 114.2 130.401 118.5 133.501 121.5L135.901 124H224.301C312.201 124 312.701 124 315.401 121.9C318.701 119.3 319.001 114 316.001 111C314.001 109 312.701 109 224.501 109H135.101L133.001 111.2Z" fill="#137AB6"/>
<path d="M86.9 130C63.2 142.9 46.6 150.1 32 153.9C27.4 155.1 27 157.4 27 188C27.1 218.9 27.9 227 32.3 237.7C40.4 257.6 60.1 277.1 83 287.9C89.1 290.8 91.7 291.4 97 291.5C102.8 291.5 104.6 290.9 113.2 286.8C137.1 275.1 155.4 255.5 163.4 233.2L166.5 224.5V190.8C166.5 152.6 166.9 154.5 158.4 152.9C150.8 151.5 133.2 143.9 116.1 134.7C107.5 130.1 99.6 126 98.4 125.6C96.9 125.2 93.5 126.5 86.9 130ZM115.1 151.3C125.2 156.5 137.7 162.2 142.8 164L152.2 167.3L151.8 194.4C151.4 224.7 150.8 228 143.2 240.5C135.3 253.6 116.1 269.8 102.6 274.9L96.9 277L90.9 274.5C74 267.7 56.2 251.4 48.5 235.7C42.7 223.9 42 218.9 42 190.4V167.3L51.3 164C57.8 161.6 95.1 143.6 96.6 142.1C96.6 142 105 146.2 115.1 151.3Z" fill="#137AB6"/>
<path d="M122.496 181.9C121.396 182.4 113.996 189.6 106.096 197.9L91.6959 213.1L83.0959 204.7C78.3959 200.1 73.6959 196 72.6959 195.6C69.4959 194.5 64.2959 197.5 63.4959 200.8C62.5959 205.2 63.8959 207.2 75.3959 218.8C86.4959 230.1 89.6959 232.4 93.4959 231.4C95.9959 230.8 129.596 196.4 131.896 192.1C133.696 188.8 132.296 184.2 128.996 182.5C125.796 180.8 125.296 180.8 122.496 181.9Z" fill="#137AB6"/>
<path d="M175.596 155.1C172.296 157.7 171.996 163 174.996 166C176.996 168 178.296 168 279.496 168H381.896L383.996 165.8C386.696 162.8 386.596 158.5 383.496 155.5L381.096 153H279.696C178.596 153 178.296 153 175.596 155.1Z" fill="#137AB6"/>
<path d="M175.002 200C172.202 202.8 172.402 207.5 175.502 210.6L177.902 213L280.102 212.8L382.202 212.5L384.102 210.1C386.602 207.1 386.502 202.5 384.002 200C382.002 198 380.702 198 279.502 198C178.302 198 177.002 198 175.002 200Z" fill="#137AB6"/>
<path d="M166.495 244.5C163.295 247.6 163.195 251.9 166.295 254.8L168.595 257H275.095H381.695L383.795 254.7C386.695 251.6 386.595 247.5 383.495 244.5L381.095 242H274.995H168.895L166.495 244.5Z" fill="#137AB6"/>
<path d="M133.004 289C130.504 291.5 130.404 296.1 132.904 299.1L134.804 301.5H258.504H382.204L384.104 299.1C386.604 296.1 386.504 291.5 384.004 289C382.004 287 380.704 287 258.504 287C136.304 287 135.004 287 133.004 289Z" fill="#137AB6"/>
<path d="M95 297.7C90.2 299.4 90 300.4 90 318.6C90 335.3 90.1 335.9 92.2 337.4C95.2 339.5 99.3 339.4 102.1 337.1C104.4 335.2 104.5 334.8 104.5 318.6C104.5 303.4 104.3 301.9 102.5 300.1C100.2 297.9 97.2 296.9 95 297.7Z" fill="#137AB6"/>
<path d="M37 327.1C33.8 328.4 30.2 331.8 28.5 335.1C26.4 339.1 8 420.5 8 425.7C8 431.7 10.5 436.6 14.9 439.5C19.7 442.6 36.7 446.4 42.6 445.7C45.6 445.4 48.4 444.2 50.9 442.2L54.7 439.1L82.7 466.5C114.7 497.7 114.9 497.8 126.7 494.8C129.7 494.1 132.6 492.4 135.1 489.9C138.8 486.2 138.8 486.2 140.7 488.2C148.5 496.8 165.4 496.2 171.9 487.1C173.9 484.3 174.1 484.3 177.7 485.6C182.7 487.4 185.7 487.3 191.3 485.4C197.2 483.4 202.6 477.4 203.7 471.6C204.4 468.1 205.2 467.2 208.5 465.7C216.2 462.1 220.9 455.3 221 447.8C221 444.4 221.4 443.9 224.6 442.5C228 441.1 228.4 441.1 231.2 443.1C232.8 444.3 236.2 445.5 238.6 445.8C244.3 446.4 261.4 442.5 266.1 439.5C270.5 436.6 273 431.7 273 425.6C273 420.3 254.6 339.1 252.6 335.1C249.7 329.5 243.9 326 237.7 326C232.3 326 216.1 330.1 212.8 332.4C208 335.7 205.8 339.4 205.2 345C204.8 349.9 204.5 350.3 201.2 351.7C195.9 353.9 192.2 352.9 179.7 345.6C173.5 342 165.4 337.6 161.5 335.8C149.1 330 136.9 331 127.1 338.6L122.7 342H98.9H75.2L74.6 339.7C74.3 338.5 72.6 336 70.8 334.3C68.1 331.7 65.5 330.6 57.3 328.5C46.5 325.9 41.1 325.5 37 327.1ZM52.3 342.9C56.6 343.9 60.3 345 60.7 345.3C61.4 346.1 42.5 428.9 41.2 430.2C39.9 431.5 23.9 428 23.3 426.3C23 425.5 26.7 407.7 31.4 386.7C42.1 339.9 41.8 341 43.3 341C44 341 48 341.9 52.3 342.9ZM239.9 344.7C243.8 360.1 258.1 424.4 257.8 425.7C257.4 427.8 241.4 431.8 239.8 430.2C238.6 429 219.6 346.1 220.4 345.3C221 344.6 234.7 341.2 237.2 341.1C238.4 341 239.2 342.2 239.9 344.7ZM158.2 351.3C162.7 353.6 171.1 358.2 176.7 361.4C185.5 366.4 187.9 367.3 193.4 367.7C197.7 368.1 201.2 367.8 204.2 366.8L208.6 365.2L215.6 395.9L222.7 426.5L218.1 428.6L213.5 430.7L188 405.5C164.2 381.9 162.1 380.1 157.1 378.6C146.8 375.6 139.9 376.7 130.1 383C122.1 388.2 115.3 391.6 111.3 392.5C107.9 393.2 101 391.5 101 390C101 389.5 103.4 386.5 106.3 383.3C109.2 380.1 115.9 372.5 121.2 366.5C140.2 344.8 143.1 343.6 158.2 351.3ZM100.2 367.2C95.2 372.9 88.9 379.6 86.1 382.1C79 388.6 79 391.5 86.3 398.6C92.3 404.4 100.4 408 107.4 408C115.2 408 127 403.5 136.8 396.8C142.6 392.8 146.4 391.7 150.8 392.5C154 393.1 158.2 396.9 179.8 418.3C193.7 432.2 205.3 444.5 205.7 445.8C206.4 448.6 203.6 452 200.7 452C199.4 452 191.3 444.7 178.5 432C156.6 410.3 155.4 409.5 150.5 414.5C145.5 419.4 146.2 420.6 168.5 443C190.3 465 191.7 467 186.8 470.4C185.6 471.3 184.1 472 183.6 472C183.1 472 172.9 462.3 161 450.5C142.9 432.5 138.9 429 136.5 429C132.4 429 129 432.6 129 436.9C129 440 130.4 441.8 145 456.5C155.7 467.3 161 473.3 161 474.7C161 476.8 157.7 480 155.6 480C155.1 480 146.7 472.1 137.1 462.5C117.9 443.4 115.7 442.1 110.7 446C108.7 447.6 108 449 108 451.7C108 454.8 109.1 456.4 117 464.4C126.7 474.3 127.7 476.8 123.5 479.6C121.3 481.1 120.8 481.1 118.8 479.7C114.1 476.7 60 422.7 60 421.2C60 420.2 63.2 405.4 67.2 388.2L74.3 357H91.7H109.1L100.2 367.2Z" fill="#137AB6"/>
<path d="M316.004 331.2C312.604 333 310.304 335.3 306.504 341.1L301.404 348.7L298.104 346.4C293.404 343.2 289.804 342.6 285.604 344.4C279.004 347.2 279.404 354.9 286.304 358C288.804 359.1 291.304 361.2 292.404 363.1C299.204 374.6 305.904 372.1 316.404 354.2C319.004 349.7 321.504 346 321.904 346C322.204 346 324.904 349.6 327.804 353.9C330.704 358.3 334.404 362.9 336.104 364.1C340.204 367 347.604 367.7 353.204 365.7C357.004 364.5 357.904 364.5 359.504 365.6C362.704 367.9 367.604 367.3 369.904 364.4C373.004 360.5 372.604 357.3 368.504 353.4C364.204 349.3 359.204 348.2 353.004 350C345.004 352.2 345.004 352.2 338.504 342.6C335.204 337.7 331.404 332.9 330.004 331.9C325.704 328.9 321.104 328.6 316.004 331.2Z" fill="#137AB6"/>
<path d="M414.904 361.901L412.504 363.801L412.204 393.101C412.004 414.601 411.604 422.601 410.704 423.201C410.004 423.601 380.404 424.001 344.804 424.001C288.604 424.001 279.904 424.201 278.604 425.501C274.404 429.701 276.104 436.401 281.904 438.101C284.304 438.801 306.504 439.001 350.004 438.801L414.504 438.501L418.604 436.101C420.904 434.801 423.704 432.101 424.904 430.001C426.904 426.401 427.004 425.001 427.004 395.101C427.004 365.301 426.904 363.901 425.004 362.001C422.504 359.501 417.904 359.401 414.904 361.901Z" fill="#137AB6"/>
<path d="M282.902 387.9C281.202 389.2 280.602 390.8 280.602 393.5C280.602 396.2 281.202 397.8 282.902 399.1C285.102 400.9 287.702 401 326.602 401C366.702 401 368.102 400.9 370.002 399C371.202 397.8 372.002 395.7 372.002 393.5C372.002 391.3 371.202 389.2 370.002 388C368.102 386.1 366.702 386 326.602 386C287.702 386 285.102 386.1 282.902 387.9Z" fill="#137AB6"/>
</svg>
