<svg width="512" height="512" viewBox="0 0 512 512" fill="none" xmlns="http://www.w3.org/2000/svg">
<path d="M250 10C248.3 11.7 248 13.3 248 21V30H234.1C221.6 30 220 30.2 217.6 32.1C215 34.1 215 34.3 215 47.6V61H206.8C194.5 61.1 193 62.9 193 77.9V88H141.2H89.3L87.2 90.3L85 92.6V195.2V297.7L87.1 299.6C89.1 301.4 92.2 301.5 159.3 302C204.6 302.3 229.5 302.9 229.7 303.5C229.8 304 227.9 305.8 225.2 307.5C211.1 316.4 201 332.2 199.3 348C198.8 353.3 198.9 354 201.3 356.4L203.9 359H256H308.1L310.7 356.4C313.1 354 313.2 353.3 312.7 348C311 332.2 300.9 316.4 286.8 307.5C284.1 305.8 282.2 304 282.3 303.5C282.5 302.9 307.4 302.3 352.8 302L422.9 301.5L425.2 299.2L427.5 296.9V195.1V93.2L425.1 90.6L422.7 88H370.8H319V77.9C319 62.9 317.5 61.1 305.3 61H297V47.6C297 34.3 297 34.1 294.4 32.1C292 30.2 290.4 30 277.9 30H264V21C264 10.3 262.6 8 256 8C253.3 8 251.3 8.7 250 10ZM280 54V61H256H232V54V47H256H280V54ZM302 181.5V285H295.5H289V280.5C289 273.1 285.4 265.2 279.1 258.9C272.4 252.2 265.8 249.6 256 249.6C246.2 249.6 239.6 252.2 232.9 258.9C226.6 265.2 223 273.1 223 280.5V285H216.5H210V181.5V78H256H302V181.5ZM193 195V285H147H101V195V105H147H193V195ZM411 195V285H365H319V195V105H365H411V195ZM264.5 269C271.4 273.3 273.9 282.8 269.9 289.9C263.6 301.3 248.4 301.3 242.1 289.9C237.7 282.2 240.8 272.4 249 268.2C254.3 265.4 259.2 265.7 264.5 269ZM272.3 319.2C279.3 322.5 287.8 330.3 291.4 337L294.1 342H256H218L220.1 337.9C224.6 329.1 234.7 320.5 244.3 317.4C251.3 315.1 265.3 316 272.3 319.2Z" fill="#137AB6"/>
<path d="M223 129.5V142H235.5H248V129.5V117H235.5H223V129.5Z" fill="#137AB6"/>
<path d="M264 129.5V142H276.5H289V129.5V117H276.5H264V129.5Z" fill="#137AB6"/>
<path d="M223 170.5V183H235.5H248V170.5V158H235.5H223V170.5Z" fill="#137AB6"/>
<path d="M264 170.5V183H276.5H289V170.5V158H276.5H264V170.5Z" fill="#137AB6"/>
<path d="M114 154V166H126.5H139V154V142H126.5H114V154Z" fill="#137AB6"/>
<path d="M155 154V166H167.5H180V154V142H167.5H155V154Z" fill="#137AB6"/>
<path d="M114 194.5V207H126.5H139V194.5V182H126.5H114V194.5Z" fill="#137AB6"/>
<path d="M155 194.5V207H167.5H180V194.5V182H167.5H155V194.5Z" fill="#137AB6"/>
<path d="M114 235.5V248H126.5H139V235.5V223H126.5H114V235.5Z" fill="#137AB6"/>
<path d="M155 235.5V248H167.5H180V235.5V223H167.5H155V235.5Z" fill="#137AB6"/>
<path d="M332 154V166H344.5H357V154V142H344.5H332V154Z" fill="#137AB6"/>
<path d="M373 154V166H385.5H398V154V142H385.5H373V154Z" fill="#137AB6"/>
<path d="M332 194.5V207H344.5H357V194.5V182H344.5H332V194.5Z" fill="#137AB6"/>
<path d="M373 194.5V207H385.5H398V194.5V182H385.5H373V194.5Z" fill="#137AB6"/>
<path d="M332 235.5V248H344.5H357V235.5V223H344.5H332V235.5Z" fill="#137AB6"/>
<path d="M373 235.5V248H385.5H398V235.5V223H385.5H373V235.5Z" fill="#137AB6"/>
<path d="M250.2 362.3C248.7 363.9 248 365.9 248 368.8C248 371.4 247.5 373.2 246.8 373.4C246.1 373.6 242.5 374.6 238.7 375.5C222 379.8 205.5 395.5 200.1 412.3C199.1 415.7 197.9 419.7 197.6 421.2C197 423.7 196.5 424 192.7 424C187.1 424 184 427 184 432.3C184 436.9 186.6 439.7 191.7 440.5C197.6 441.5 197.7 441.6 198.4 446.2C198.8 448.5 200.9 454.2 203.1 458.7C210.3 473.8 224.7 485.4 241.3 489.6L248 491.2V495.6C248 501.4 250.5 504 256 504C261.5 504 264 501.4 264 495.6V491.2L270.7 489.6C287.3 485.4 301.7 473.8 308.9 458.7C311.1 454.2 313.2 448.5 313.6 446.2C314.3 441.6 314.4 441.5 320.3 440.5C325.5 439.7 328 436.9 328 432.2C328 427 324.8 424 319.2 424C315.5 424 315 423.7 314.4 421.2C309.1 397.2 292.5 379.7 270 374.6L264.5 373.4L264.2 368.9C263.8 363.1 260.9 360 256 360C253.5 360 251.7 360.7 250.2 362.3ZM273 393.6C282.5 398.1 289.2 404.6 293.7 413.7C296.9 420.2 297.4 422.3 297.8 429.8C298.1 436.8 297.8 439.7 296 444.9C286.1 474.2 250.8 483.8 228.2 463.5C217.9 454.2 213.5 443.8 214.2 430C214.6 422.3 215.1 420.2 218.3 413.7C223.7 402.9 232.5 395.3 244.5 391.3C247 390.5 252 390.1 257.5 390.3C265.1 390.5 267.5 391 273 393.6Z" fill="#137AB6"/>
<path d="M252.198 392.5C249.898 393.5 248.798 394.8 248.398 396.9C247.998 398.9 246.898 400.2 244.998 401C241.198 402.6 235.998 407.8 234.398 411.7C233.598 413.5 232.998 416.9 232.998 419.4C232.998 430.6 239.698 437.1 254.798 440.5C264.998 442.9 266.698 445.8 259.098 448.1C254.098 449.6 250.298 447.8 247.698 442.8C244.198 436.2 236.998 435.5 232.698 441.2C228.598 446.6 234.198 458.1 242.898 462.1C246.598 463.9 247.898 465.1 247.998 466.7C247.998 469.5 252.498 473 255.998 473C259.398 473 263.998 469.5 263.998 467C263.998 465.7 265.398 464.5 268.298 463.2C282.498 456.9 285.198 440.4 273.598 430.3C270.298 427.4 266.298 425.7 255.698 422.9C252.998 422.3 250.598 421 250.198 420.2C249.498 418.2 252.698 416 256.598 416C259.098 416 260.498 416.9 263.398 420.5C266.598 424.4 267.698 425 270.898 425C275.998 425 278.998 421.8 278.998 416.4C278.998 411.2 274.598 405.1 268.598 401.9C265.398 400.2 263.998 398.8 263.598 396.8C263.198 394.7 262.098 393.5 259.498 392.5C255.498 390.7 256.298 390.7 252.198 392.5Z" fill="#137AB6"/>
<path d="M132.9 378.3C113.3 383.9 103.5 403.9 110.9 423.4C111.6 425 113 427.6 114.2 429.3C115.6 431.2 116 432.5 115.3 432.7C112.1 433.8 104.5 439.8 99.3 445.3C90.5 454.8 85 467.3 85 478.2C85 482 85.5 483.2 87.6 484.9C90.2 487 91.2 487 142 487H193.7L196.1 484.4C199.1 481.2 199.1 475.6 195.9 465.7C192 453.5 182.3 441.2 172 435.2C169.5 433.8 167.4 432.6 167.2 432.4C167 432.3 168.3 430.1 169.9 427.5C173.6 421.6 175.4 413.5 174.5 406.4C173.7 399.5 168.9 390 164.2 385.9C156.1 378.8 142.8 375.5 132.9 378.3ZM147.3 395.4C149.1 396.1 151.9 398.3 153.7 400.3C162.6 410.5 155.2 426.2 141.5 426.2C127.6 426.2 120.7 410.7 129.7 399.9C134.4 394.4 140.9 392.7 147.3 395.4ZM158.2 447.3C165.6 450.9 172.4 457.1 176 463.4C177.7 466.2 179 468.8 179 469.2C179 469.7 162.1 470 141.5 470C120.9 470 104 469.8 104 469.5C104 468.1 107.6 462.1 110.7 458.3C114.9 453 121.5 448.4 128.3 445.9C136.3 442.9 150.6 443.6 158.2 447.3Z" fill="#137AB6"/>
<path d="M361.897 378.3C359.397 379 355.297 380.8 352.797 382.3C337.697 391.1 332.597 412.6 342.097 427.5C343.697 430.1 344.997 432.3 344.797 432.4C344.597 432.6 342.497 433.8 339.997 435.2C329.697 441.2 319.997 453.5 316.097 465.7C312.897 475.6 312.897 481.2 315.897 484.4L318.297 487H369.997C420.797 487 421.797 487 424.397 484.9C426.497 483.2 426.997 482 426.997 478.2C426.997 467.3 421.497 454.8 412.697 445.3C407.497 439.8 399.897 433.8 396.697 432.7C395.997 432.5 396.397 431.2 397.797 429.3C406.797 416.6 405.097 398.1 393.897 386.9C385.997 379 372.397 375.3 361.897 378.3ZM376.297 395.4C383.297 398.3 387.897 407.2 385.997 414.2C383.897 421.6 377.997 426.2 370.497 426.2C356.797 426.2 349.397 410.5 358.297 400.3C363.497 394.3 369.797 392.6 376.297 395.4ZM387.497 447.5C394.397 450.8 402.797 458.7 405.897 464.8C407.097 467.1 407.997 469.2 407.997 469.5C407.997 469.8 391.097 470 370.497 470C349.897 470 332.997 469.8 332.997 469.5C332.997 469.2 333.897 467.1 334.997 464.9C339.297 456.6 348.997 448.4 358.297 445.4C360.997 444.5 365.897 444.1 371.997 444.3C379.997 444.6 382.397 445.1 387.497 447.5Z" fill="#137AB6"/>
</svg>
