<svg width="512" height="512" viewBox="0 0 512 512" fill="none" xmlns="http://www.w3.org/2000/svg">
<path d="M102.494 10.6C94.3942 13.5 86.7942 21.9 83.5942 31.5C82.0942 36.2 81.9942 52.7 82.1942 236.5L82.4942 436.5L85.3942 442.3C88.8942 449.1 95.2942 455.3 101.794 458.3C105.594 459.9 109.194 460.4 120.294 460.8L133.994 461.3V480.5C133.994 497.8 134.194 499.9 135.794 501.3C137.494 502.9 147.894 503 265.194 503H392.694L394.594 500.9C396.294 499 396.494 496.8 396.794 480L397.094 461.2L403.194 460.1C413.594 458.3 421.394 452.3 426.694 442L429.494 436.5L429.794 290.4L429.994 144.3L368.394 76.7L306.694 9L206.594 9.1C122.394 9.1 105.894 9.4 102.494 10.6ZM356.894 86.7L414.994 150.5V290.6V430.6L412.494 435.6C409.894 440.8 405.494 444.4 400.294 445.5L397.094 446.1L396.794 413.6C396.494 381.3 396.494 381 394.194 378.8C391.994 376.5 391.794 376.5 358.994 376.2L325.994 375.9V336.6C325.994 299.3 325.894 297.1 324.094 294.9L322.194 292.5H256.494H190.794L188.894 294.9C187.294 296.9 186.994 298.9 186.994 308.7C186.994 315 186.594 320 186.194 319.8C185.694 319.6 175.994 314.1 164.594 307.6C142.994 295.2 139.794 294 135.994 297.5C133.994 299.3 133.994 300.4 133.994 372.8V446.2L121.694 445.9C110.494 445.5 108.994 445.3 105.694 443C103.494 441.5 100.894 438.4 99.4942 435.6L96.9942 430.6V234.6C96.9942 45.9 97.0942 38.3 98.8942 34.5C101.394 29.1 105.694 25.3 110.494 24.1C112.794 23.6 153.594 23.2 206.594 23.1L298.794 23L356.894 86.7ZM310.994 398V489H256.494H201.994V398V307H256.494H310.994V398ZM168.494 327.4L186.494 337.7L186.794 413.4L186.994 489H167.994H148.994V403C148.994 355.7 149.294 317 149.794 317C150.194 317 158.594 321.7 168.494 327.4ZM381.994 440V489H353.994H325.994V440V391H353.994H381.994V440Z" fill="#137AB6"/>
<path d="M209.699 36.4999C186.099 41.3999 166.899 60.7999 162.499 84.2999C159.699 98.8999 161.299 110.1 168.099 123.9C175.799 139.5 190.599 151.3 207.899 155.6C217.499 158 233.299 157.2 242.899 153.7C259.999 147.6 272.899 134.9 279.699 117.2C283.099 108.3 283.999 91.6999 281.599 81.9999C274.899 55.2999 252.599 36.9999 225.299 35.4999C219.799 35.1999 213.999 35.5999 209.699 36.4999ZM214.999 75.3999V99.8999L217.599 101.9C220.099 103.9 221.499 104 244.099 104H267.799L266.799 107.7C258.799 137.2 224.999 151.1 198.799 135.7C188.099 129.5 178.999 115.7 176.799 102.5C174.099 86.0999 181.899 68.4999 196.399 58.4999C201.399 55.0999 210.599 51.0999 213.799 50.9999C214.699 50.9999 214.999 56.4999 214.999 75.3999ZM241.799 54.9999C253.299 60.3999 262.699 71.3999 266.399 83.6999L267.899 88.9999H248.899H229.999V69.8999V50.7999L232.799 51.3999C234.299 51.7999 238.299 53.3999 241.799 54.9999Z" fill="#137AB6"/>
<path d="M128 167C123.7 171.3 126.6 178.3 133.2 179.5C135 179.8 187.7 179.9 250.3 179.8L364.2 179.5L366.1 177.1C368.4 174.3 368.5 170.2 366.4 167.2L364.9 165H247.4C131.3 165 130 165 128 167Z" fill="#137AB6"/>
<path d="M128.004 227.2C125.504 229.9 125.404 234.1 127.904 237.1L129.804 239.5H246.804C360.404 239.5 363.904 239.4 365.904 237.6C368.604 235.1 368.704 229.7 366.004 227C364.004 225 362.704 225 247.004 225H130.104L128.004 227.2Z" fill="#137AB6"/>
<path d="M208.999 323C206.299 325.7 206.399 331.1 209.099 333.6C210.899 335.2 212.799 335.5 220.699 335.5C229.499 335.5 230.299 335.3 232.099 333.1C234.599 330.1 234.499 325.5 231.999 323C230.299 321.3 228.699 321 220.499 321C212.299 321 210.699 321.3 208.999 323Z" fill="#137AB6"/>
<path d="M245.004 323C242.504 325.5 242.404 330.1 244.904 333.1C246.704 335.3 247.504 335.5 256.504 335.5C265.504 335.5 266.304 335.3 268.104 333.1C270.604 330.1 270.504 325.5 268.004 323C266.304 321.3 264.704 321 256.504 321C248.304 321 246.704 321.3 245.004 323Z" fill="#137AB6"/>
<path d="M281.596 322.6C277.596 326.5 278.796 333.2 283.696 335.1C288.196 336.8 301.396 335.8 303.896 333.6C306.596 331.1 306.796 325 304.196 322.7C301.596 320.3 283.896 320.3 281.596 322.6Z" fill="#137AB6"/>
<path d="M209.596 353.1C206.296 355.7 205.996 361 208.996 364C210.696 365.7 212.296 366 220.396 366C229.396 366 229.996 365.9 231.896 363.4C234.696 359.9 234.496 356.5 231.496 353.5C229.296 351.2 228.296 351 220.696 351C213.696 351 211.796 351.3 209.596 353.1Z" fill="#137AB6"/>
<path d="M245.495 353.5C242.295 356.6 242.195 360.9 245.295 363.8C247.295 365.7 248.795 366 256.795 366C267.495 366 269.995 364.6 269.995 358.6C269.995 352.9 266.495 351 256.295 351C248.695 351 247.695 351.2 245.495 353.5Z" fill="#137AB6"/>
<path d="M281.498 353.5C278.498 356.5 278.298 359.9 281.098 363.4C282.998 365.9 283.598 366 292.598 366C303.498 366 305.998 364.6 305.998 358.6C305.998 352.9 302.498 351 292.298 351C284.698 351 283.698 351.2 281.498 353.5Z" fill="#137AB6"/>
<path d="M208.994 384C205.994 387 206.294 392.3 209.694 395C212.194 396.9 213.494 397.1 221.294 396.8C229.194 396.5 230.394 396.2 232.094 394.1C234.594 391.1 234.494 386.9 231.994 384.2C230.094 382.2 228.894 382 220.494 382C212.294 382 210.694 382.3 208.994 384Z" fill="#137AB6"/>
<path d="M245.004 384C242.504 386.5 242.404 391.1 244.904 394.1C246.704 396.3 247.504 396.5 256.504 396.5C265.504 396.5 266.304 396.3 268.104 394.1C270.604 391.1 270.504 386.5 268.004 384C266.304 382.3 264.704 382 256.504 382C248.304 382 246.704 382.3 245.004 384Z" fill="#137AB6"/>
<path d="M281.092 384.6C278.492 387.9 278.392 391.1 280.892 394.1C282.592 396.2 283.792 396.5 291.692 396.8C299.492 397.1 300.792 396.9 303.292 395C306.692 392.3 306.992 387 303.992 384C302.292 382.3 300.692 382 292.592 382C283.592 382 282.992 382.1 281.092 384.6Z" fill="#137AB6"/>
<path d="M209.596 414.1C206.296 416.7 205.996 422 208.996 425C210.696 426.7 212.296 427 220.296 427C228.796 427 229.896 426.8 231.796 424.7C234.696 421.6 234.596 417.5 231.496 414.5C229.296 412.2 228.296 412 220.696 412C213.696 412 211.796 412.3 209.596 414.1Z" fill="#137AB6"/>
<path d="M245.493 414.5C242.393 417.5 242.293 421.8 244.993 424.8C246.893 426.8 248.093 427 256.493 427C267.493 427 269.993 425.6 269.993 419.6C269.993 413.9 266.493 412 256.293 412C248.693 412 247.693 412.2 245.493 414.5Z" fill="#137AB6"/>
<path d="M281.498 414.5C278.498 417.5 278.298 420.9 281.098 424.4C282.998 426.9 283.598 427 292.598 427C303.498 427 305.998 425.6 305.998 419.6C305.998 413.9 302.498 412 292.298 412C284.698 412 283.698 412.2 281.498 414.5Z" fill="#137AB6"/>
<path d="M208.994 445C205.994 448 206.294 453.3 209.694 456C212.194 457.9 213.494 458.1 221.294 457.8C229.194 457.5 230.394 457.2 232.094 455.1C234.594 452.1 234.494 447.9 231.994 445.2C230.094 443.2 228.894 443 220.494 443C212.294 443 210.694 443.3 208.994 445Z" fill="#137AB6"/>
<path d="M245.002 445C242.202 447.8 242.402 452.5 245.502 455.5C247.702 457.8 248.702 458 256.302 458C266.502 458 270.002 456.1 270.002 450.4C270.002 444.4 267.502 443 256.502 443C248.302 443 246.702 443.3 245.002 445Z" fill="#137AB6"/>
<path d="M281.092 445.6C278.492 448.9 278.392 452.1 280.892 455.1C282.592 457.2 283.792 457.5 291.692 457.8C299.492 458.1 300.792 457.9 303.292 456C306.692 453.3 306.992 448 303.992 445C302.292 443.3 300.692 443 292.592 443C283.592 443 282.992 443.1 281.092 445.6Z" fill="#137AB6"/>
<path d="M155.002 356C152.202 358.8 152.402 363.5 155.502 366.5C157.702 368.8 158.702 369 166.302 369C176.502 369 180.002 367.1 180.002 361.4C180.002 355.4 177.502 354 166.502 354C158.302 354 156.702 354.3 155.002 356Z" fill="#137AB6"/>
<path d="M157.295 386C152.795 387.9 151.595 394.6 154.995 398C156.695 399.7 158.295 400 166.495 400C174.695 400 176.295 399.7 177.995 398C180.495 395.5 180.595 390.9 178.095 387.9C176.395 385.8 175.195 385.5 167.795 385.3C163.295 385.1 158.495 385.4 157.295 386Z" fill="#137AB6"/>
<path d="M155.197 419.3C152.097 422.6 152.297 427.3 155.597 429.9C157.797 431.6 159.697 432 166.497 432C173.297 432 175.197 431.6 177.397 429.9C180.797 427.2 180.997 422.2 177.697 419.2C175.697 417.3 174.197 417 166.397 417C158.197 417 157.097 417.2 155.197 419.3Z" fill="#137AB6"/>
<path d="M155.004 451C152.504 453.5 152.404 458.1 154.904 461.1C156.704 463.3 157.504 463.5 166.504 463.5C175.504 463.5 176.304 463.3 178.104 461.1C180.604 458.1 180.504 453.5 178.004 451C176.304 449.3 174.704 449 166.504 449C158.304 449 156.704 449.3 155.004 451Z" fill="#137AB6"/>
<path d="M342.497 404C340.197 406.6 340.097 411.4 342.497 414C344.097 415.7 345.597 416 354.097 416C364.597 416 366.397 415.3 367.597 410.3C368.097 408.6 367.597 407 366.297 405.2C364.397 402.6 363.797 402.5 354.297 402.2C345.397 402 344.197 402.1 342.497 404Z" fill="#137AB6"/>
<path d="M342.497 433C340.197 435.6 340.097 440.4 342.497 443C344.097 444.7 345.597 445 354.097 445C364.597 445 366.397 444.3 367.597 439.3C368.097 437.6 367.597 436 366.297 434.2C364.397 431.6 363.797 431.5 354.297 431.2C345.397 431 344.197 431.1 342.497 433Z" fill="#137AB6"/>
<path d="M342.495 462C341.495 463.1 340.695 465.4 340.695 467C340.695 472.7 343.095 474 354.095 474C363.395 474 363.895 473.9 365.895 471.4C367.095 469.9 367.995 468 367.995 467C367.995 466 367.095 464.1 365.895 462.6C363.895 460.1 363.395 460 354.095 460C345.595 460 344.095 460.3 342.495 462Z" fill="#137AB6"/>
</svg>
