<svg width="512" height="512" viewBox="0 0 512 512" fill="none" xmlns="http://www.w3.org/2000/svg">
<g clip-path="url(#clip0_363_3330)">
<mask id="mask0_363_3330" style="mask-type:luminance" maskUnits="userSpaceOnUse" x="0" y="0" width="512" height="512">
<path d="M512 0H0V512H512V0Z" fill="white"/>
</mask>
<g mask="url(#mask0_363_3330)">
<path d="M111 56V112H63.5H16V109.7C16 107.9 24.4 100.9 56 76.1L96 44.7V30.4V16H48H0V48V80H8H16V56V32H48C77.8 32 80 32.1 80 33.7C79.9 34.8 65 47.1 40.2 66.5L0.5 97.6L0.2 304.8L0 512H8H16V320V128H72H128V72V16H244H360V162C360 306.7 360 308 362 310C364.7 312.7 371.3 312.7 374 310C376 308 376 306.7 376 154V0H243.5H111V56Z" fill="#137AB6"/>
<path d="M284 64V72H312H340V64V56H312H284V64Z" fill="#137AB6"/>
<path d="M63 88V96H79.5H96V88V80H79.5H63V88Z" fill="#137AB6"/>
<path d="M284 96V104H312H340V96V88H312H284V96Z" fill="#137AB6"/>
<path d="M40 264V384H48H56V331.5V279H84H112V287.5V296H120H128V287.5V279H156H184V331.5V384H192H200V331.5V279H264H328V331.5V384H336H344V264V144H192H40V264ZM112 171V182H84H56V171V160H84H112V171ZM184 171V182H156H128V171V160H156H184V171ZM328 171V182H264H200V171V160H264H328V171ZM112 210.5V222H84H56V210.5V199H84H112V210.5ZM184 210.5V222H156H128V210.5V199H156H184V210.5ZM328 210.5V222H264H200V210.5V199H264H328V210.5ZM112 250.5V262H84H56V250.5V239H84H112V250.5ZM184 250.5V262H156H128V250.5V239H156H184V250.5ZM328 250.5V262H264H200V250.5V239H264H328V250.5Z" fill="#137AB6"/>
<path d="M104.8 305.9C89.5002 310.9 76.9002 324.4 73.0002 340.1C72.3002 343 72.0002 352.7 72.2002 367.6L72.5002 390.5L76.1002 398C78.1002 402.1 81.6002 407.6 83.9002 410.2C88.0002 414.9 88.1002 415 87.8002 421.6L87.5002 428.3L57.1002 443C40.4002 451.1 26.1002 458.5 25.4002 459.5C23.1002 462.6 23.7002 467.8 26.6002 470.6C28.6002 472.7 29.8002 473.1 32.8002 472.8C34.8002 472.5 46.3002 467.6 58.3002 461.7L80.0002 451.1V462.5V474H93.7002H107.4L113.7 467.8L120 461.6L126.3 467.8L132.6 474H146.3H160V462C160 455.4 160.2 450 160.5 450C160.7 450 163.9 451.2 167.5 452.7L173.9 455.3L169.9 459.7C167.6 462.2 164.6 466.7 163.2 469.8C160.6 475.2 160.5 476.4 160.2 493.8L159.9 512H167.8H175.7L176.2 496.7C176.7 479.8 178 475.2 183.9 469.6C186.3 467.3 220.5 451 223.1 451C223.6 451 224 456 224 462.5V474H237.7H251.4L257.7 467.8L264 461.6L270.3 467.8L276.6 474H290.3H304V462.1V450.1L322.7 458.5C349.8 470.8 351.1 472.4 351.8 496.7L352.3 512H360.2H368.1L367.8 493.8C367.5 476.5 367.4 475.2 364.9 470C363.5 466.9 360.9 462.8 359.1 460.8L355.9 457.1L361.9 454L368 451V462.5V474H381.7H395.4L401.7 467.8L408 461.6L414.3 467.8L420.6 474H434.3H448V462.1V450.1L466.7 458.5C493.8 470.8 495.1 472.4 495.8 496.7L496.3 512H504.2H512.1L511.8 493.7L511.5 475.4L508.2 468.8C506.1 464.4 503 460.4 499.2 456.8C494.1 452.1 490.4 450.2 466.9 439.8L440.5 428L440.2 421.5C439.9 415.1 440 414.8 443.7 410.6C445.8 408.2 448.8 403.9 450.4 401C455.2 392.1 456 387.4 456 364.9C456 346.9 455.7 343.4 454 337.6C449.9 324.3 438.4 312.1 425.3 306.9C417.4 303.8 402.6 303.1 394.3 305.5C378.9 309.9 365.6 323.2 361.5 338.2C360.1 343.5 359.9 348.3 360.2 367.5L360.5 390.5L364.1 398C366.1 402.1 369.6 407.6 371.9 410.2C375.8 414.6 376 415.1 376 421.5V428.1L357.4 437.1C347.2 442 338.4 446 337.9 446C337.5 446 328 442 316.8 437L296.5 428.1L296.2 421.5C295.9 415.1 296 414.8 299.7 410.6C301.8 408.2 304.8 403.9 306.4 401C311.2 392.1 312 387.4 312 364.9C312 346.9 311.7 343.4 310 337.6C305.9 324.3 294.4 312.1 281.3 306.9C273.4 303.8 258.6 303.1 250.3 305.5C235.2 309.8 223.1 321.5 218 336.9C216 342.9 215.9 345 216.2 366.9L216.5 390.5L220.1 398C222.1 402.1 225.6 407.6 227.9 410.2C232 414.8 232.1 415 231.8 421.5L231.5 428.1L212.7 436.5L193.8 444.9L172.9 436.3L152 427.7V421.3C152 415.2 152.2 414.5 155.8 410.5C157.9 408.1 160.8 403.9 162.4 401C167.2 392.1 168 387.4 168 364.9C168 346.9 167.7 343.4 166 337.6C161.9 324.3 150.4 312.1 137.3 306.9C129.2 303.7 113 303.2 104.8 305.9ZM132.5 323.9C140 327.5 145.1 332.7 148.7 340.5C151.4 346.3 151.5 347 151.5 364.5C151.5 387 150.5 390.7 141.8 399.3L136 405.2V422.5V439.8L140 441.4L144 443V450C144 456.6 143.9 457 141.8 457C140.3 457 136.3 453.8 129.8 447.3L120 437.5L110.2 447.3C103.7 453.8 99.7002 457 98.2002 457C96.1002 457 96.0002 456.6 96.0002 450.2V443.3L100 441.5L104 439.7V431.7C104 424 104.1 423.8 106.3 424.4C107.5 424.7 111.1 425.3 114.3 425.7L120 426.3V417.8V409.3L115.5 408.7C108.6 407.7 102.5 404.3 97.1002 398.4C89.6002 390.2 88.5002 386 88.5002 365C88.5002 353.9 89.0002 346 89.8002 343.3C91.7002 337 96.9002 329.9 102.4 326.2C108.4 322.2 111.8 321.2 120 321.1C125.2 321 127.7 321.6 132.5 323.9ZM276.5 323.9C284 327.5 289.1 332.7 292.7 340.5C295.4 346.3 295.5 347 295.5 364.5C295.5 387 294.5 390.7 285.8 399.3L280 405.2V422.5V439.8L284 441.4L288 443V450C288 456.6 287.9 457 285.8 457C284.3 457 280.3 453.8 273.8 447.3L264 437.5L254.2 447.3C247.7 453.8 243.7 457 242.2 457C240.1 457 240 456.6 240 450.2V443.3L244 441.5L248 439.7V431.7C248 424 248.1 423.8 250.3 424.4C251.5 424.7 255.1 425.3 258.3 425.7L264 426.3V417.8V409.3L259.5 408.7C252.6 407.7 246.5 404.3 241.1 398.4C233.6 390.2 232.5 386 232.5 365C232.5 353.9 233 346 233.8 343.3C235.7 337 240.9 329.9 246.4 326.2C252.4 322.2 255.8 321.2 264 321.1C269.2 321 271.7 321.6 276.5 323.9ZM420.5 323.9C428 327.5 433.1 332.7 436.7 340.5C439.4 346.3 439.5 347 439.5 364.5C439.5 387 438.5 390.7 429.8 399.3L424 405.2V422.5V439.8L428 441.4L432 443V450C432 456.6 431.9 457 429.8 457C428.3 457 424.3 453.8 417.8 447.3L408 437.5L398.2 447.3C391.7 453.8 387.7 457 386.2 457C384.1 457 384 456.6 384 450.2V443.3L388 441.5L392 439.7V431.7C392 424 392.1 423.8 394.3 424.4C395.5 424.7 399.1 425.3 402.3 425.7L408 426.3V417.8V409.3L403.5 408.7C396.6 407.7 390.5 404.3 385.1 398.4C378.5 391.2 377 386.4 376.3 370C375.7 354.9 376.9 344 380 337.9C387.7 322.9 405.5 316.7 420.5 323.9Z" fill="#137AB6"/>
<path d="M40 408V416H48H56V408V400H48H40V408Z" fill="#137AB6"/>
<path d="M184 408V416H192H200V408V400H192H184V408Z" fill="#137AB6"/>
<path d="M328 408V416H336H344V408V400H336H328V408Z" fill="#137AB6"/>
<path d="M48 500V512H56H64V500V488H56H48V500Z" fill="#137AB6"/>
<path d="M192 500V512H200H208V500V488H200H192V500Z" fill="#137AB6"/>
<path d="M320 500V512H328.5H337V500V488H328.5H320V500Z" fill="#137AB6"/>
<path d="M464 500V512H472.5H481V500V488H472.5H464V500Z" fill="#137AB6"/>
</g>
</g>
<defs>
<clipPath id="clip0_363_3330">
<rect width="512" height="512" fill="white"/>
</clipPath>
</defs>
</svg>
