<svg width="512" height="512" viewBox="0 0 512 512" fill="none" xmlns="http://www.w3.org/2000/svg">
<path d="M84.7013 1.49982C79.4013 3.49982 73.4013 8.09982 69.9013 12.7998C63.5013 21.4998 64.0013 2.09979 64.0013 263.4C64.0013 499.2 64.0013 501.5 66.0013 504.8C67.1013 506.6 69.4013 508.9 71.2013 510C74.4013 512 76.5013 512 181.301 512H288.001V496V480H192.001H96.0013V304V128H256.001H416.001V232V336H432.001H448.001L447.801 179.2L447.501 22.4998L445.201 17.7998C442.201 11.7998 436.201 5.79982 430.201 2.79982L425.501 0.499822L257.001 0.299822C114.001 0.199822 87.9013 0.299822 84.7013 1.49982ZM416.001 63.9998V95.9998H256.001H96.0013V63.9998V31.9998H256.001H416.001V63.9998Z" fill="#137AB6"/>
<path d="M135.2 162C133.4 163.1 131.1 165.4 130 167.2C128.1 170.4 128 172.4 128 224C128 275.6 128.1 277.6 130 280.8C131.1 282.6 133.4 284.9 135.2 286C138.4 288 140.5 288 256 288C371.5 288 373.6 288 376.8 286C378.6 284.9 380.9 282.6 382 280.8C383.9 277.6 384 275.6 384 224C384 172.4 383.9 170.4 382 167.2C380.9 165.4 378.6 163.1 376.8 162C373.6 160 371.5 160 256 160C140.5 160 138.4 160 135.2 162ZM352 224V256H256H160V224V192H256H352V224Z" fill="#137AB6"/>
<path d="M128 336V352H160H192V336V320H160H128V336Z" fill="#137AB6"/>
<path d="M128 384V400H176H224V384V368H176H128V384Z" fill="#137AB6"/>
<path d="M335.7 383.7L324 395.5L342.2 413.7L360.5 432L342.2 450.3L324 468.5L335.7 480.3L347.5 492L365.7 473.8L384 455.5L402.3 473.8L420.5 492L432.3 480.3L444 468.5L425.8 450.3L407.5 432L425.8 413.7L444 395.5L432.3 383.7L420.5 372L402.3 390.2L384 408.5L365.7 390.2L347.5 372L335.7 383.7Z" fill="#137AB6"/>
</svg>
