<svg width="512" height="512" viewBox="0 0 512 512" fill="none" xmlns="http://www.w3.org/2000/svg">
<path d="M243.7 18.1005C238.4 19.4005 229.9 23.5005 225.5 27.0005C219.2 32.0005 215.6 33.9005 209.2 35.5005C203.3 37.0005 202.4 37.0005 191.3 34.9005C180.9 32.9005 178.8 32.8005 171.6 33.8005C161.8 35.2005 151.4 40.0005 144.4 46.4005C141.6 48.9005 137.1 54.8005 134 60.0005C125.9 73.6005 120.8 77.3005 105.1 80.9005C93.7 83.5005 85.7 87.6005 78.9 94.4005C69.9 103.401 65.6 112.801 64 127.201C62.4 141.501 58.1 149.101 48 156.001C26.9 170.301 19.3 193.001 27.5 217.501C29.7 224.101 30.1 226.801 29.8 233.001C29.4 239.901 28.9 241.501 24.1 250.401C17.8 262.101 16 268.001 16 278.001C16 292.101 20.2 302.601 30.2 313.701C40.2 324.601 42.7 332.301 40.9 346.301C38.7 362.801 43.8 378.001 55.3 389.401C60.1 394.301 63.7 396.701 71.5 400.401C86.3 407.401 90.6 412.101 95.4 426.701C99.9 440.201 107.5 450.101 118.2 456.401C126 460.901 130.9 462.201 145 463.001C162.5 464.001 166.5 465.701 177.2 476.901C181.4 481.301 187 486.301 189.6 488.001C204.3 497.301 225.1 497.801 241.5 489.201C245.9 486.901 247.7 486.501 256 486.501C264.9 486.501 266 486.701 273.6 490.201C289 497.401 303.8 497.301 318.5 490.101C325 486.901 328.1 484.501 334.8 477.501C346.1 465.701 350.2 463.801 367.5 463.001C377 462.501 381.9 461.701 385.7 460.201C402.4 453.701 412.1 442.901 418 424.501C420.5 416.401 425.4 409.301 430.7 405.901C432.8 404.501 438.5 401.501 443.4 399.101C454.2 393.801 462.2 386.201 466.7 376.901C471.3 367.401 472.1 362.301 471.8 345.501C471.4 327.601 472.1 325.501 481.9 314.501C490.1 305.201 494.7 295.801 496.2 285.401C497.9 273.301 496.3 265.701 488.7 250.801C482.9 239.501 482.6 238.401 482.6 231.701C482.5 226.501 483.3 222.501 485 217.501C487.1 211.501 487.5 208.801 487.5 198.501C487.4 188.501 487 185.601 485.1 180.801C482 172.801 475.4 164.301 468.4 159.101C453.9 148.401 450.7 143.301 448.5 127.501C446.7 114.801 444.2 107.801 438.6 100.201C431.4 90.5005 422.1 84.4005 409.9 81.5005C392.2 77.3005 385.3 72.7005 379 60.8005C372.8 49.3005 362.3 40.1005 350.7 36.1005C341.2 32.8005 332.9 32.5005 321.1 34.9005C305.8 38.1005 301.5 37.1005 286 26.5005C275.7 19.5005 267.7 17.0005 256.1 17.1005C251.4 17.2005 245.8 17.6005 243.7 18.1005ZM269.5 37.0005C272.8 38.6005 278.4 42.0005 282 44.5005C285.6 47.0005 291.3 50.0005 294.8 51.0005C302.8 53.5005 316.1 53.6005 325.7 51.4005C334.4 49.4005 340.7 50.1005 348.7 54.0005C355.7 57.5005 360.6 62.6005 365.3 71.5005C369.6 79.6005 378.3 88.0005 386.1 91.9005C389.6 93.6005 396.5 95.9005 401.3 97.0005C412 99.4005 416.3 101.601 421.7 107.001C427 112.201 429.8 118.101 431.1 126.201C433.4 141.101 434.3 144.801 437 150.201C441 158.201 445.5 163.501 452.5 168.501C470.3 181.301 474.9 194.201 468.4 213.201C466.1 220.001 465.5 223.201 465.5 231.001C465.5 242.201 467.2 248.001 473.6 259.001C483.1 275.601 481.6 288.501 468.4 303.201C456.4 316.301 453.8 324.601 454.2 347.101C454.5 361.701 454.4 362.701 452 367.501C448.4 374.801 440.7 382.101 433.5 385.001C416.7 391.601 406.4 402.701 401.1 420.001C398.4 428.501 394.6 434.501 388.9 439.001C382.5 444.001 375.9 446.001 365.4 446.001C347.4 446.001 337.6 450.201 324.2 463.701C314 473.901 310.4 476.201 301.8 477.901C294.9 479.401 287.3 478.201 280.3 474.601C271.2 470.101 264.6 468.701 253.6 469.201C244.6 469.601 242.5 470.101 234 473.701C221.9 478.901 217.1 479.601 209.2 477.601C201.2 475.601 197 472.801 188.3 463.701C176.2 450.901 167.8 447.301 147.5 446.101C136.9 445.501 133.7 444.901 130 443.001C119.8 437.801 115.3 432.201 111.1 419.601C105.3 402.201 98 394.001 80.5 385.501C71.7 381.201 68.3 379.001 65.6 375.601C58.5 367.001 56.3 358.501 57.9 346.601C60.1 330.901 55.5 316.201 44.5 304.001C35.5 293.801 33.5 289.301 33.5 278.501C33.5 268.901 33.5 268.801 41.5 254.001C43.4 250.401 45.5 245.001 46.1 242.001C47.8 233.901 46.7 219.801 43.9 212.501C40.4 203.801 40.6 192.401 44.2 185.401C47.9 178.401 51.3 174.601 58 170.001C65.4 165.001 71.8 157.801 75.3 150.601C78.3 144.501 81 133.901 81 127.801C81 118.701 88.5 106.701 97.4 101.501C99.8 100.101 105.8 98.1005 110.9 97.0005C127.9 93.4005 140.5 84.3005 148 70.1005C156.4 54.4005 170.8 47.5005 187.3 51.4005C195.6 53.3005 208.7 53.5005 215.5 51.6005C221.6 50.0005 228.4 46.4005 236.8 40.5005C244.3 35.2005 247.3 34.2005 256.5 34.1005C262.4 34.0005 264.5 34.5005 269.5 37.0005Z" fill="#137AB6"/>
<path d="M241.498 79.1C186.498 83.2 135.198 114.4 105.198 162C99.4981 171.1 90.798 189.7 87.198 200.5C72.998 243.3 76.1981 292.2 95.7981 333.1C120.798 385.2 169.998 422 227.598 431.6C243.298 434.3 271.298 434.1 287.198 431.2C351.398 419.5 403.898 374.2 424.498 312.8C448.398 241.2 425.198 163.4 365.898 116.3C345.298 100 317.798 87.3 291.598 82C283.398 80.3 257.098 77.7 253.498 78.2C252.998 78.2 247.598 78.7 241.498 79.1ZM268.798 96C308.498 99.5 343.098 115.9 370.598 144.2C380.098 153.9 388.698 164.8 393.898 173.7L396.898 179H256.498C168.798 179 115.998 178.6 115.998 178.1C115.998 177.5 119.198 172.2 123.198 166.3C132.998 151.6 151.598 133 166.298 123.2C192.898 105.5 221.398 96.4 253.998 95.1C255.898 95.1 262.598 95.5 268.798 96ZM202.998 199.6C188.098 213.1 178.998 234.3 178.998 255.7C178.998 269.3 181.098 278.2 186.998 290.5C192.398 301.7 200.398 311.3 210.398 318.7L216.198 323H163.198H110.198L107.098 315.7C92.3981 280.4 91.6981 237.4 105.198 201.2L107.098 196H157.098H206.998L202.998 199.6ZM270.298 197.6C297.098 204.5 315.898 228.2 316.198 255.1C316.298 266.1 314.798 272.4 309.698 283C301.298 300.2 284.998 312.3 265.498 315.6C242.698 319.6 219.398 309.3 206.198 289.6C199.298 279.3 196.898 271.8 196.298 259C195.398 240.6 200.698 227.1 213.998 213.8C222.198 205.5 231.898 200 242.398 197.4C249.698 195.6 263.098 195.7 270.298 197.6ZM408.598 206.5C415.498 227.9 417.998 249 416.098 269.1C414.798 283.8 410.498 302 405.598 314.2L402.298 322.5L348.998 322.8L295.698 323L302.198 318.1C312.298 310.4 319.398 301.9 324.998 290.6C330.998 278.5 332.998 270 332.998 256.2C332.998 234.9 325.998 217.4 311.098 201.7L305.698 196L355.498 196.2L405.398 196.5L408.598 206.5ZM391.598 341.6C390.498 344.5 382.098 355.7 375.498 363.1C337.698 405.1 281.098 424.5 226.598 414C192.998 407.5 164.298 391.7 139.998 366.4C131.898 357.9 119.998 342.5 119.998 340.6C119.998 340.3 181.198 340 256.098 340C378.898 340 392.198 340.2 391.598 341.6Z" fill="#137AB6"/>
<path d="M252.298 207.001C248.698 208.501 247.998 211.301 247.998 223.601V235.401L239.798 227.301C235.198 222.901 230.198 219.001 228.698 218.601C222.898 217.201 216.998 223.001 218.498 228.801C218.798 230.201 222.798 235.101 227.198 239.701L235.398 248.001H223.398C209.998 248.001 207.598 248.901 206.498 254.101C205.598 258.001 207.498 262.401 210.598 263.901C211.998 264.501 218.098 265.001 224.198 265.001H235.398L226.698 273.901C217.798 282.901 216.798 284.901 219.198 289.301C220.898 292.601 223.098 293.901 226.898 294.001C229.798 294.001 231.498 292.801 239.098 285.301L247.998 276.601V289.101C247.998 300.901 248.098 301.801 250.298 303.801C252.898 306.301 258.498 306.701 261.198 304.601C264.098 302.501 264.998 298.301 264.998 287.801V277.601L273.398 285.801C280.498 292.801 282.198 294.001 285.198 294.001C289.698 294.001 292.798 291.701 293.598 287.601C294.398 283.101 293.098 280.901 284.698 272.201L277.598 265.001H288.298C302.298 265.001 305.898 263.201 305.998 256.201C305.998 254.001 305.198 252.101 303.498 250.501C301.198 248.101 300.498 248.001 288.898 248.001H276.598L285.298 239.101C292.398 231.901 293.998 229.701 293.998 227.201C293.998 222.501 290.298 218.801 285.598 218.801C282.098 218.801 280.998 219.601 273.498 227.001L265.198 235.301L264.798 223.101C264.498 211.101 264.398 210.801 261.698 208.401C258.798 205.901 256.098 205.501 252.298 207.001Z" fill="#137AB6"/>
</svg>
