<svg width="512" height="512" viewBox="0 0 512 512" fill="none" xmlns="http://www.w3.org/2000/svg">
<path d="M100.2 24.3002C98.2 26.4002 98 27.7003 98 38.4003C98 49.5002 98.1 50.2002 100.5 52.5002C103.9 56.0002 108.3 55.8002 112.2 52.0002L115.2 49.0002L114.8 37.4003C114.5 26.6003 114.3 25.7002 112.1 23.9002C108.8 21.2002 102.9 21.4002 100.2 24.3002Z" fill="#137AB6"/>
<path d="M411.2 24.3002C409.2 26.4002 409 27.7003 409 38.4003C409 49.5002 409.1 50.2002 411.5 52.5002C414.9 56.0002 419.3 55.8002 423.2 52.0002L426.2 49.0002L425.8 37.4003C425.5 26.6003 425.3 25.7002 423.1 23.9002C419.8 21.2002 413.9 21.4002 411.2 24.3002Z" fill="#137AB6"/>
<path d="M47.8999 33.2993C45.2999 35.2993 43.7999 38.9993 44.4999 41.7993C45.4999 45.7993 53.8999 59.7993 56.2999 61.4993C61.5999 65.1993 68.9999 61.4993 68.9999 55.1993C68.9999 51.0993 61.5999 36.8993 57.8999 33.6993C55.4999 31.6993 50.1999 31.4993 47.8999 33.2993Z" fill="#137AB6"/>
<path d="M153.602 35.4009C148.602 40.8009 142.502 53.1009 143.402 56.3009C145.002 62.7009 152.902 65.2009 157.302 60.7009C158.602 59.5009 161.502 55.1009 163.802 50.9009C168.902 41.6009 169.302 37.2009 165.402 34.1009C161.402 30.9009 157.302 31.4009 153.602 35.4009Z" fill="#137AB6"/>
<path d="M358.197 34.0002C354.197 37.7002 354.297 40.7002 358.597 48.8002C365.697 62.4002 371.097 65.8002 377.397 60.9002C381.297 57.8002 380.897 53.4002 375.797 44.1002C373.497 39.9002 370.597 35.5002 369.297 34.2002C366.497 31.4002 361.197 31.3002 358.197 34.0002Z" fill="#137AB6"/>
<path d="M464.602 35.401C459.602 40.801 453.502 53.101 454.402 56.301C456.002 62.701 463.902 65.201 468.302 60.701C472.002 57.101 479.002 43.501 479.002 40.101C479.002 35.801 475.202 32.001 470.902 32.001C468.602 32.001 466.902 32.901 464.602 35.401Z" fill="#137AB6"/>
<path d="M89.4047 60.5006C71.2047 64.4006 54.2047 75.6006 43.5047 90.5006C33.1047 105.1 28.8047 118.2 28.7047 136C28.6047 154.3 33.3047 167.9 47.0047 189L54.2047 200L51.2047 203.4C44.0047 211.6 45.5047 226.9 54.0047 233C56.7047 234.9 57.0047 235.7 57.0047 240.3C57.1047 249.4 62.3047 257.3 69.2047 258.7C71.5047 259.2 72.2047 260.2 74.0047 265.6C76.7047 273.5 81.4047 280.7 86.0047 283.8C89.4047 286 90.0047 286.1 107.005 285.8C123.405 285.5 124.705 285.4 127.705 283.2C131.605 280.5 135.505 274.1 138.605 265.6C140.505 260.3 141.205 259.4 144.005 258.6C151.105 256.5 156.005 248.5 156.005 239.1C156.005 235.6 156.505 234.4 159.105 232.2C167.405 225.3 168.305 210.2 160.805 202.3L158.705 200.1L165.005 190.5C172.905 178.2 179.505 164.3 182.005 154.4C185.805 139.5 184.105 119.2 177.605 104.7C170.205 88.0006 154.705 72.7006 137.505 65.1006C124.505 59.4006 103.705 57.4006 89.4047 60.5006ZM120.505 77.5006C142.605 83.1006 160.005 100.7 165.605 123C168.005 132.4 167.105 146.1 163.505 156C160.205 165.1 156.905 171.1 147.205 185.7L139.705 197H127.405H115.005V184.2V171.4L120.205 168C131.005 160.7 134.605 146.9 128.705 135.4C124.005 126.2 116.905 122 106.305 122C96.0047 122 88.5047 126.5 83.7047 135.5C80.7047 141.1 80.7047 152.9 83.7047 158.5C86.2047 163.2 90.2047 167.1 94.8047 169.4L98.0047 171.1V184V197H85.6047H73.1047L65.0047 184.9C50.3047 162.8 45.5047 150.6 45.7047 135.5C46.0047 108.2 65.5047 84.0006 92.5047 77.4006C99.5047 75.7006 113.505 75.7006 120.505 77.5006ZM112.005 141.5C116.805 146.6 113.105 155 106.105 155C102.305 155 98.0047 150.6 98.0047 146.8C98.0047 139.9 107.205 136.4 112.005 141.5ZM148.805 216.4C149.005 217.4 148.605 218.6 147.805 219.1C147.105 219.6 128.205 220 105.805 220C68.0047 220 65.0047 219.9 64.2047 218.2C62.0047 214 62.1047 214 106.305 214.2C146.705 214.5 148.505 214.6 148.805 216.4ZM139.005 239.5V242H106.505H74.0047V239.5V237H106.505H139.005V239.5ZM121.305 262.7C118.705 269 118.805 269 106.005 269H94.2047L92.1047 264.5C90.9047 262 90.0047 259.8 90.0047 259.5C90.0047 259.2 97.4047 259 106.405 259H122.905L121.305 262.7Z" fill="#137AB6"/>
<path d="M400.405 60.5001C382.205 64.4001 365.205 75.6001 354.505 90.5001C344.105 105.1 339.805 118.2 339.705 136C339.605 154.3 344.305 167.9 358.105 189L365.305 200.1L362.605 202.9C355.005 210.8 356.305 226.8 365.005 233C367.705 234.9 368.005 235.7 368.005 240.6C368.005 249.5 373.305 257.3 380.205 258.7C382.405 259.1 383.205 260.2 384.605 264.4C386.905 271.6 389.805 277 392.905 280.3C397.705 285.6 399.605 286 417.205 286C432.205 286 433.805 285.8 437.505 283.7C442.005 281.1 446.205 275 449.505 265.9C451.305 260.8 452.305 259.4 454.605 258.5C456.205 258 458.505 256.9 459.805 256.2C463.205 254.3 467.005 245.5 467.005 239.7C467.005 235.5 467.405 234.5 470.105 232.2C478.405 225.3 479.305 210.2 471.805 202.3L469.705 200L474.405 193C481.405 182.4 488.505 168.5 491.605 159.5C495.205 148.7 496.105 131.9 493.505 120.4C488.105 95.6001 471.405 75.2001 448.505 65.1001C435.505 59.4001 414.705 57.4001 400.405 60.5001ZM431.505 77.5001C453.105 83.0001 471.005 100.9 476.505 122.5C478.405 130.1 478.405 141.9 476.505 149.5C474.205 158.3 467.105 172.4 458.405 185.5L450.705 197H438.405H426.005V184.2V171.4L431.205 168C441.905 160.8 445.605 146.9 439.705 135.5C435.005 126.2 427.905 122 417.305 122C409.005 122 403.905 124.2 398.905 129.7C387.505 142.3 390.905 161.9 405.805 169.4L409.005 171.1V184V197H396.605H384.105L375.905 184.7C356.805 156.3 352.805 139.6 359.605 118C365.805 98.4001 383.005 82.4001 403.505 77.4001C410.505 75.7001 424.505 75.7001 431.505 77.5001ZM423.005 141.5C427.805 146.6 424.105 155 417.105 155C413.305 155 409.005 150.6 409.005 146.8C409.005 139.9 418.205 136.4 423.005 141.5ZM459.805 216.4C460.005 217.4 459.605 218.6 458.805 219.1C458.105 219.6 439.205 220 416.805 220C379.005 220 376.005 219.9 375.205 218.2C373.005 214 373.105 214 417.305 214.2C457.705 214.5 459.505 214.6 459.805 216.4ZM450.005 239.5V242H417.505H385.005V239.5V237H417.505H450.005V239.5ZM432.505 261.7C432.205 263.3 431.205 265.5 430.405 266.7C429.005 268.9 428.305 269 417.105 269H405.205L403.105 264.5C401.905 262 401.005 259.8 401.005 259.5C401.005 259.2 408.205 259 417.105 259H433.205L432.505 261.7Z" fill="#137AB6"/>
<path d="M194.1 194.6C192.9 196.1 192 198.5 192 200C192 201.5 192.9 203.9 194.1 205.4L196.1 208H261.1C300.8 208 326.8 207.6 327.9 207C328.9 206.5 330.3 204.7 331 203C332.5 199.5 331 194.6 327.9 193C326.8 192.4 300.8 192 261.1 192H196.1L194.1 194.6Z" fill="#137AB6"/>
<path d="M162.2 280.3L160 282.6V379.6V476.7L162.3 478.8L164.6 481H261.7C355.8 481 358.9 480.9 361.1 479.1L363.5 477.2V379.5V281.8L361.1 279.9C358.9 278.1 355.8 278 261.6 278H164.3L162.2 280.3ZM221 327.9C221 350 221.4 362.8 222.1 364.9C223.4 368.6 225.6 370 230.3 370C233.2 370 235.6 368.4 246.2 359.2C253 353.3 259.4 347.9 260.3 347.1C261.8 345.9 263.1 346.8 272.1 354.6C288.7 369.2 289.9 370 294.1 370C297 370 298.3 369.4 299.9 367.4C301.9 364.8 302 363.6 302 329.4V294H324.5H347V379V464H262H177V379V294H199H221V327.9ZM285 318.5V343.1L275.3 334.5C262.4 323.2 261.3 323.1 249.8 333.2C245.2 337.1 240.7 341 239.8 341.8C238.1 343.2 238 342 238 318.7V294H261.5H285V318.5Z" fill="#137AB6"/>
<path d="M274.705 399C271.105 401.9 270.905 408.6 274.305 411.8C276.505 413.9 277.405 414 298.405 414H320.105L322.505 411.5C325.605 408.5 325.805 403.2 323.105 399.9C321.205 397.5 320.905 397.5 299.305 397.2C278.205 396.9 277.305 397 274.705 399Z" fill="#137AB6"/>
<path d="M276.303 431C271.503 433 270.403 441.1 274.303 444.8C276.503 446.9 277.403 447 298.403 447H320.103L322.503 444.5C325.603 441.5 325.803 436.2 323.103 432.9C321.203 430.5 320.903 430.5 299.803 430.3C288.103 430.2 277.503 430.5 276.303 431Z" fill="#137AB6"/>
<path d="M101.4 298C96.1 300.1 96 300.9 96 336.3V369.2L98.9 372.1L101.8 375H126C155.4 375 157 374.5 157 365.6C157 363.5 156.2 361.6 154.7 360.2C152.5 358.1 151.5 358 132.7 358H113V330.6C113 303.5 113 303.1 110.8 300.6C108.2 297.7 104.5 296.7 101.4 298Z" fill="#137AB6"/>
<path d="M415.399 298.4C413.699 299.2 411.999 300.5 411.599 301.5C411.299 302.4 410.999 315.5 410.999 330.6V358H390.999C372.399 358 370.899 358.1 368.999 360C366.299 362.7 365.599 366.4 367.199 369.6C369.599 374.8 371.299 375 398.199 374.8C422.399 374.5 422.999 374.5 425.199 372.2C427.499 370 427.499 369.7 427.799 338.7C428.199 303.2 427.799 300.7 422.499 298.4C418.499 296.8 419.199 296.8 415.399 298.4Z" fill="#137AB6"/>
</svg>
