<svg width="512" height="512" viewBox="0 0 512 512" fill="none" xmlns="http://www.w3.org/2000/svg">
<g clip-path="url(#clip0_363_3373)">
<path d="M78.7 1.19951C75.2 3.89951 75 7.49951 75 59.0995C75 115.6 75 115.8 81 117.9C85.5 119.4 184.4 119.5 188.9 117.9C190.6 117.3 192.5 116 193 115C193.6 113.8 194 92.1995 194 58.5995C194 5.29951 194 3.99951 192 1.99951C190 -0.000488162 188.7 -0.000488281 135.2 -0.000488281C92.9 -0.000488281 80 0.299512 78.7 1.19951ZM107 36.0995C107 56.2995 107.4 58.9995 110.9 61.6995C112 62.5995 118.8 62.8995 134.6 62.9995C155.5 62.9995 156.9 62.8995 159.4 60.8995L162 58.8995V37.3995V15.9995H169.5H177V58.9995V102H134.5H92V58.9995V15.9995H99.5H107V36.0995ZM146 30.9995V45.9995H135H124V30.9995V15.9995H135H146V30.9995Z" fill="#137AB6"/>
<path d="M361.497 1.50063C352.597 4.00063 342.097 10.1006 335.597 16.5006C324.097 28.0006 318.897 39.7006 318.197 55.9006C317.697 68.8006 318.897 74.9006 324.297 85.9006C331.597 100.8 345.597 112.2 361.997 116.5C370.497 118.7 384.997 118.7 392.697 116.5C412.897 110.7 428.597 94.9006 434.597 74.5006C436.897 66.5006 436.897 51.5006 434.597 43.5006C428.497 22.9006 412.297 6.70063 392.397 1.60063C384.797 -0.399369 368.497 -0.399369 361.497 1.50063ZM395.397 21.0006C402.997 24.6006 412.097 33.7006 415.497 41.2006C423.097 57.9006 419.397 76.6006 406.097 89.4006C399.197 95.9006 392.197 99.5006 383.297 100.9C358.397 104.9 334.997 84.7006 334.997 59.4006C334.997 27.9006 367.097 7.50063 395.397 21.0006Z" fill="#137AB6"/>
<path d="M371.6 22.1001C369.8 23.5001 369 25.1001 369 27.2001C369 29.6001 368.1 31.1001 365.1 33.6001C360.3 37.8001 358 42.5001 358 48.4001C358 57.5001 364.4 65.2001 373.4 66.9001C378.8 67.9001 379.5 68.3001 378.7 70.5001C377.8 72.6001 374.7 72.4001 372.6 70.1001C370.3 67.6001 366.8 66.8001 363.4 68.0001C355.2 71.1001 356.8 81.7001 366.1 86.6001C368.3 87.7001 369 88.8001 369 91.0001C369 94.5001 373 98.0001 377 98.0001C380.9 98.0001 384.8 94.5001 385.6 90.3001C386 88.0001 387.5 85.6001 389.8 83.6001C391.7 81.9001 393.9 79.1001 394.6 77.3001C396.3 73.4001 396.4 66.2001 394.9 62.3001C392.8 56.7001 385.6 51.0001 380.6 51.0001C377.2 51.0001 375 50.0001 375 48.5001C375 46.1001 379 45.7001 381.3 47.8001C384.5 50.8001 388.3 51.4001 391.8 49.6001C395.2 47.9001 396 46.3001 396 41.5001C396 39.0001 395.1 37.4001 392 34.6001C389.8 32.6001 387.6 31.0001 387.1 31.0001C386.6 31.0001 385.9 29.4001 385.6 27.5001C384.3 20.8001 376.9 17.9001 371.6 22.1001Z" fill="#137AB6"/>
<path d="M252.001 105C244.801 106.3 241.901 109.2 234.501 122.4L229.601 131H140.301C53.2008 131 51.0008 131 49.1008 132.9C46.2008 135.8 45.8008 139.5 46.2008 159.8L46.5008 178.2L49.3008 180.6L52.1008 183H125.601C166.001 183 199.001 183.2 199.001 183.4C199.001 183.7 194.901 191 189.801 199.7C180.701 215.2 180.601 215.6 180.501 222.1C180.501 230.3 183.601 235.7 190.201 238.9C194.601 241 195.501 241 256.001 241C316.501 241 317.401 241 321.801 238.9C328.401 235.7 331.501 230.3 331.501 222.1C331.501 215.6 331.301 215.2 322.201 199.7C317.201 191 313.001 183.7 313.001 183.4C313.001 183.2 346.001 183 386.401 183H459.901L462.701 180.6L465.501 178.2L465.801 159.8C466.201 139.5 465.801 135.8 462.901 132.9C461.001 131 458.801 131 371.801 131H282.501L277.501 122.3C271.701 112.2 268.801 108.4 265.101 106.6C261.601 104.8 256.301 104.2 252.001 105ZM286.301 172C302.201 199.5 314.801 222.4 314.501 223C313.701 224.4 198.401 224.4 197.501 223C196.601 221.5 254.201 122 256.001 122C256.901 122 268.501 141.1 286.301 172ZM219.001 148.6C219.001 149 216.901 153 214.301 157.6L209.501 165.9L136.301 166H63.0008V157V148H141.001C183.901 148 219.001 148.3 219.001 148.6ZM449.001 157V166H375.801H302.501L298.001 157.9C295.501 153.4 293.401 149.4 293.201 148.9C293.001 148.4 325.001 148 370.901 148H449.001V157Z" fill="#137AB6"/>
<path d="M84.4981 196.1C75.2981 198.4 66.3981 207.1 63.7981 216.4C62.5981 221.1 65.3981 358.3 67.0981 370.2C69.2981 386.4 74.7981 394.9 95.3981 413.8C113.798 430.6 117.598 436.2 119.498 449.2L120.198 454H113.998C106.498 454 102.598 456 99.8981 461.2C98.1981 464.5 97.9981 467.2 97.9981 483.1C97.9981 503.3 98.7981 506.7 104.398 510.1C107.398 511.9 110.698 512 172.498 512C235.198 512 237.598 511.9 240.698 510C246.498 506.5 246.998 504.2 246.998 483C246.998 461.8 246.498 459.5 240.698 456C238.498 454.6 235.698 454 231.398 454H225.298L224.698 445.7C224.298 441.2 223.998 430.7 223.998 422.5C223.898 393.1 221.898 378.8 215.998 366.4C210.698 355.4 204.198 348.2 177.398 323.9L151.198 300.1L150.798 281.3C150.398 265.1 150.098 261.9 148.298 257.9C144.198 248.8 135.498 241.9 126.198 240.4C121.498 239.7 120.998 238.3 120.998 226.4C120.998 216.3 118.298 209.5 112.098 203.7C109.398 201.2 105.498 198.4 103.398 197.5C98.4981 195.5 89.5981 194.8 84.4981 196.1ZM98.6981 214.5C103.498 217.7 103.898 219.7 105.098 255.5L106.198 289.2L102.698 292.1C97.0981 296.7 93.5981 304.9 93.5981 313.4C93.5981 327.1 94.5981 328.4 131.198 361.3C149.898 378.2 152.298 380 155.498 380C162.098 380 166.598 371.8 162.798 366.8C162.098 365.9 150.698 355.4 137.498 343.5C123.998 331.4 112.698 320.4 111.598 318.4C109.998 315.4 109.898 314.3 110.798 311.1C112.898 304.4 119.298 300.5 125.498 302.1C129.298 303.2 188.498 356.6 194.198 364.1C203.198 375.9 205.798 385.3 206.498 407.9C206.798 417 207.298 431.1 207.498 439.2L207.998 454H172.498H136.998V451.2C136.898 445.5 133.898 434.2 130.598 427.5C126.798 419.7 121.998 414.5 103.398 397.3C90.2981 385.2 86.0981 379 84.0981 369C83.5981 366 82.2981 331.4 81.3981 292.2C79.6981 221.2 79.6981 220.9 81.5981 218.2C85.8981 212.4 92.9981 210.8 98.6981 214.5ZM126.398 258.5C131.698 261.1 133.398 265.1 133.798 276.8L134.198 287L131.498 286C130.098 285.5 127.798 285 126.498 285C125.198 285 123.898 284.7 123.698 284.2C122.898 282.9 121.798 257 122.498 257C122.898 257 124.598 257.7 126.398 258.5ZM229.998 483V495H206.298C193.198 495 167.298 495.3 148.798 495.7L114.998 496.3V483.7V471H172.498H229.998V483Z" fill="#137AB6"/>
<path d="M413.5 196C407.6 197.5 404.9 199 400 203.6C393.6 209.5 391 216.2 391 226.4C391 238.3 390.5 239.7 385.8 240.4C376.5 241.9 367.8 248.8 363.7 257.9C361.9 261.9 361.6 265.1 361.2 281.3L360.8 300.1L334.8 323.7C320.5 336.6 307.1 349.4 305 352.1C291.8 368.8 288.1 384 288 421.6C288 429.3 287.7 439.8 287.4 444.8L286.7 454H280.6C276.3 454 273.5 454.6 271.3 456C265.5 459.5 265 461.8 265 483C265 504.2 265.5 506.5 271.3 510C274.4 511.9 276.8 512 339.5 512C401.3 512 404.6 511.9 407.6 510.1C413.2 506.7 414 503.3 414 483.1C414 467.2 413.8 464.5 412.1 461.2C409.4 456 405.5 454 398.1 454C391.2 454 391.4 454.2 393.1 445.8C395.2 435.9 399.4 429.7 411.9 418.2C433.9 398 437.8 393.3 442.1 382.1C443.1 379.4 444.4 374.3 444.9 370.8C446.5 360.1 449.5 221.2 448.1 216.4C444.1 201.8 427.9 192.3 413.5 196ZM426.1 214.3C432.7 218.7 432.5 214.9 430.6 293C429.7 331.8 428.4 366 427.8 369C425.9 379 421.7 385.2 408.6 397.3C390 414.5 385.2 419.7 381.4 427.5C378.1 434.2 375.1 445.5 375 451.2V454H339.5H304L304.5 439.2C304.7 431.1 305.2 417 305.5 407.9C306.2 385 308.9 375.8 318.1 363.8C323.6 356.6 381.3 304.3 385.8 302.3C394.9 298.5 405 309.8 400.3 318.5C399.3 320.4 387.7 331.7 374.5 343.5C361.3 355.4 349.9 365.9 349.3 366.8C345.4 371.8 349.9 380 356.5 380C360.2 380 366.4 374.8 402.6 341.3C415.9 329.1 418.3 324.7 418.4 313.5C418.5 305 415 296.8 409.3 292.1L405.8 289.2L406.9 255.4C408.2 217.9 408.3 217.1 415 213.8C419.6 211.4 422 211.5 426.1 214.3ZM389.5 269.7C389.1 276.8 388.7 283.1 388.5 283.7C388.2 284.4 387 285 385.6 285C384.2 285 381.9 285.5 380.5 286L377.8 287L378.2 276.8C378.5 268.9 379 265.7 380.5 263.3C382.2 260.5 386.9 257.1 389.3 257C389.8 257 389.9 262.7 389.5 269.7ZM397 483.7V496.3L363.3 495.7C344.7 495.3 318.8 495 305.8 495H282V483V471H339.5H397V483.7Z" fill="#137AB6"/>
</g>
<defs>
<clipPath id="clip0_363_3373">
<rect width="512" height="512" fill="white"/>
</clipPath>
</defs>
</svg>
