<svg width="512" height="512" viewBox="0 0 512 512" fill="none" xmlns="http://www.w3.org/2000/svg">
<path d="M150.998 53.8997C141.798 56.7997 132.398 65.4997 129.598 73.6997C128.598 76.5997 127.998 81.6997 127.998 87.1997V95.9997H119.198C113.698 95.9997 108.598 96.5997 105.698 97.5997C99.6984 99.5997 91.5984 106.9 88.1984 113.4C85.4984 118.4 85.4984 118.8 85.1984 141.3L84.8984 164.1L88.2984 167.5C92.9984 172.2 98.3984 172.4 103.198 168.1L106.498 165.2L106.998 144.5L107.498 123.8L110.798 120.9L113.998 118H234.098C364.498 118 358.198 117.7 360.798 123.5C361.698 125.5 361.998 162.4 361.998 278V430L359.098 433.2L356.198 436.5L274.098 436.8L191.998 437V407.1C191.998 372 191.498 369.6 182.998 361C174.398 352.5 171.998 352 136.998 352H106.998V276C106.998 194.4 107.098 195.7 102.098 193C99.1984 191.5 91.7984 191.8 89.3984 193.5C84.8984 196.6 84.8984 195.9 85.2984 290C85.5984 379.4 85.5984 379.5 87.8984 387.5C97.1984 420.8 122.998 446.5 156.498 456.1L164.498 458.4L261.098 458.7L357.698 459.1L363.598 456.9C367.898 455.3 370.998 453.2 375.098 449.1C382.098 441.9 383.998 436.8 383.998 424.8V416H392.798C404.598 416 409.898 414 417.098 407C426.398 397.9 426.998 395.3 426.998 363.4V336.8L424.098 334C419.198 329 413.598 328.8 408.298 333.4L405.498 335.8L404.998 362L404.498 388.2L401.198 391.1C398.298 393.7 397.298 394 390.998 394H383.998V257.5C383.998 121.6 383.998 121.1 381.898 115.5C379.098 108.1 371.898 100.9 364.498 98.0997C358.998 95.9997 357.898 95.9997 254.498 95.9997H149.998V88.9997C149.998 82.6997 150.298 81.6997 152.898 78.7997L155.798 75.4997L275.898 75.1997C382.098 74.9997 396.398 75.1997 398.998 76.4997C405.298 79.7997 404.998 73.0997 404.998 193.5V303.2L407.898 306C412.998 311.2 418.998 311.2 424.098 306L426.998 303.2V191.1C426.998 80.8997 426.998 78.9997 424.998 73.5997C422.298 66.3997 416.198 59.6997 409.198 56.2997L403.498 53.4997L278.498 53.2997C209.798 53.1997 152.398 53.4997 150.998 53.8997ZM164.898 375.4C169.698 377.9 169.998 380 169.998 409C169.998 423.9 169.898 436 169.698 436C166.998 436 152.598 430.9 146.498 427.7C135.298 421.9 122.098 408.7 116.298 397.5C113.098 391.4 107.998 377 107.998 374.3C107.998 374.1 120.198 374 134.998 374C156.498 374 162.698 374.3 164.898 375.4Z" fill="#137AB6"/>
<path d="M165.5 139.6C163.9 140.4 159.5 144.1 155.8 147.7L149.1 154.3L146 151.7C142.4 148.6 137.5 148.2 133 150.5C129.2 152.5 128 154.8 128 160.6C128 165.2 128.3 165.6 135.8 173.1C148.5 185.8 151.5 185.3 169.3 167.1C178.5 157.7 181 154.6 181.5 151.6C182.4 146.8 180.5 142.3 176.6 139.9C172.8 137.6 169.5 137.5 165.5 139.6Z" fill="#137AB6"/>
<path d="M207.397 139.9C201.297 143.6 200.497 151.8 205.697 157.2L208.397 160H271.997H335.597L338.397 157.2C341.797 153.5 342.697 148.3 340.597 144.2C337.297 137.8 339.297 138 271.797 138C213.597 138 210.297 138.1 207.397 139.9Z" fill="#137AB6"/>
<path d="M205.999 183.9C202.699 187.2 201.499 190.8 202.399 194.6C202.799 196.1 204.399 198.5 205.999 200.1L208.799 203H271.799C332.899 203 334.799 202.9 337.199 201C342.999 196.5 343.299 188.1 337.899 183.6L334.799 181H271.799H208.799L205.999 183.9Z" fill="#137AB6"/>
<path d="M157.5 199.999C150.2 207.099 149.1 207.899 148 206.499C143.7 201.299 135.8 200.899 130.8 205.599C128.5 207.899 128 209.199 128 213.299C128 218.099 128.2 218.499 135.7 226.099C143.7 234.299 147 235.999 152.7 234.499C155.9 233.699 178.3 212.099 180.7 207.599C182.7 203.699 181.8 198.399 178.4 194.799C176.1 192.499 174.8 191.999 170.7 191.999C165.9 191.999 165.6 192.199 157.5 199.999Z" fill="#137AB6"/>
<path d="M205.598 226.799C202.198 230.499 201.298 235.699 203.398 239.799C206.698 246.199 204.698 245.999 271.998 245.999C339.298 245.999 337.298 246.199 340.598 239.799C342.698 235.699 341.798 230.499 338.398 226.799L335.598 223.999H271.998H208.398L205.598 226.799Z" fill="#137AB6"/>
<path d="M164.503 246.9C162.903 247.9 158.803 251.5 155.603 254.9L149.603 260.9L146.403 258.5C141.603 254.8 134.803 255 130.903 258.9C124.403 265.4 128.503 275.6 141.403 285.1C144.403 287.3 146.403 288 149.903 288C154.403 288 154.503 287.9 167.603 274.7C175.703 266.7 181.103 260.4 181.503 258.7C182.503 254.8 181.303 251.2 178.003 247.9C174.603 244.4 169.103 244 164.503 246.9Z" fill="#137AB6"/>
<path d="M207.397 267.9C201.297 271.6 200.497 279.8 205.697 285.2L208.397 288H229.297H250.197L253.097 285.1C255.497 282.6 255.997 281.3 255.997 277.3C255.997 273.1 255.497 271.9 252.897 269.4L249.897 266.5L230.197 266.2C212.297 266 210.197 266.1 207.397 267.9Z" fill="#137AB6"/>
<path d="M288.4 278.4C279.5 281.3 272.4 288.1 268.4 297.5C265.8 303.6 265.3 321 267.5 328.6C268.4 331.8 269.7 335.1 270.3 335.9C271.2 337 270.7 337.8 268 339.8C261.8 344.4 254.5 352.6 251.3 358.6C246.2 368.1 245 374.8 245 392.4C245 409 245.8 412.8 249.9 415C251.2 415.6 268.6 416 299 416H346.2L349.1 413.1L352 410.2V392.8C351.9 373.7 351.3 369.5 346.9 360.3C343.7 353.5 334.9 343.4 329.4 340L326 337.9L328.2 333.7C330.1 330.1 330.5 327.5 330.8 316.5C331.1 305.1 330.9 302.8 329.1 297.9C324.4 285.4 313.8 277.9 300.1 277.3C295.6 277.1 290.9 277.6 288.4 278.4ZM303 300.5C307.7 303 309.3 307.1 308.8 316.2C308.5 323.7 308.3 324.3 305.2 327.1C298.6 333 290.1 329.4 288.5 320.1C287.6 314.9 288.6 306.1 290.4 303.8C291.8 301.8 296.8 299 298.8 299C299.5 299 301.4 299.7 303 300.5ZM288 361.3C288 366.9 288.3 367.9 290.8 370.4C294.5 373.8 299.7 374.7 303.8 372.6C307.9 370.5 310 366.3 310 360.1C310 355.7 310.2 355.2 312 355.7C315.5 356.6 324 365.1 326.7 370.4C328.9 374.5 329.5 377.3 329.8 384.7L330.2 394H298.5H266.7L267.2 385.2C267.8 375.6 269.8 369.7 274.6 364.1C277.3 360.9 285.4 355 287.2 355C287.6 355 288 357.8 288 361.3Z" fill="#137AB6"/>
<path d="M132.8 310.6C129.2 312.5 128 314.9 128 320C128 325.2 129.3 327.6 133 329.5C135.5 330.8 143.4 331 187.3 331C236.9 331 238.8 330.9 241.2 329C247 324.5 247.3 316.1 241.9 311.6L238.8 309H187.2C143.5 309.1 135.1 309.3 132.8 310.6Z" fill="#137AB6"/>
</svg>
