<svg width="512" height="512" viewBox="0 0 512 512" fill="none" xmlns="http://www.w3.org/2000/svg">
<g clip-path="url(#clip0_363_3399)">
<mask id="mask0_363_3399" style="mask-type:luminance" maskUnits="userSpaceOnUse" x="0" y="0" width="512" height="512">
<path d="M512 0H0V512H512V0Z" fill="white"/>
</mask>
<g mask="url(#mask0_363_3399)">
<path d="M211 0.599992C209.6 0.799992 204.5 1.49999 199.5 2.09999C187.5 3.59999 165.7 9.09999 152.3 14.1C106 31.2 64.5 64.3 37.7 105.5C12 145.1 0 185.8 0 233.5C0 261.7 3.3 282.9 11.7 308C28.5 358.7 63.5 403.2 108.9 431.7L117.3 437H102.8C89.3 437 88.2 437.1 86.4 439.1C84.6 441 84.5 443.3 84.2 469.1L83.9 497H61.9H40V474.5V452H53.3C68.7 452 70 451.4 70 444.3C70 437.3 69.1 437 47.3 437C29.3 437 28.2 437.1 26.4 439.1C24.6 441.1 24.5 443.2 24.5 474.5C24.5 505.9 24.6 507.9 26.4 509.9L28.3 512L235.9 511.8L443.5 511.5L449.5 509.1C461.6 504.3 471 496.7 477.4 486.7C481.2 480.8 508 418.4 510.6 409.5C511.8 405.2 512.1 401.1 511.8 392.6C511 373.4 506.8 365.7 484.7 342.7C472.3 329.9 471.2 329 467.7 329C462.8 329 460 331.8 460 336.6C460 339.8 461.1 341.5 469.5 350.5L479 360.7L463.2 375.8L447.4 390.8L436.5 379.3C426.3 368.5 425.7 367.7 427 365.6C447.7 332.8 458.2 306.8 464 274C466.8 258.4 467.9 223.7 466.1 207.9C459.6 150.8 432.3 97.3 391 60.4C383.7 53.9 382.3 53 378.9 53C373.9 53 371 55.8 371 60.5C371 63.5 371.9 64.9 378.2 70.7C395 86.5 405.1 98.3 415.4 114C439.4 150.5 451 189.4 451 233C451 253.2 449.2 268.4 444.6 286.3C440.1 303.6 436.4 313.7 428.5 329.5C406 375 368.1 411.8 322.8 432.2L312 437H233.5H155L144.8 432.5C85.4 406.1 40.2 353.7 23.5 291.7C18.3 272.7 16.8 261.6 16.3 239.4C15.7 215.5 17.2 200.7 22 181.4C31.9 142.1 50.6 109.3 79.9 79.9C114.9 45 156.3 24.3 205 17.5C218.1 15.7 246.3 15.4 258.5 17C289.2 20.9 316.2 29.8 341.6 44.5C354.4 51.8 356 52.1 360.1 48.1C362.7 45.4 363.1 44.4 362.6 41.7C361.9 37.7 359.2 35.5 347 28.8C321.6 14.7 293.1 5.39999 263.6 1.49999C253 0.0999923 218.5 -0.400008 211 0.599992ZM494.1 381.9C495.8 386.5 496.1 389.2 495.8 396.5C495.3 407.3 492 415.6 484.8 423.5L480.3 428.4L478.6 425.2C477.7 423.4 472.9 417.5 468 412.1L459 402.2L474.3 387.7C491.3 371.4 490.2 371.7 494.1 381.9ZM453.6 420.8C459.9 427.6 464.9 433.7 464.7 434.3C464 436.4 454.3 436.8 401.6 436.9L349.7 437L358.1 431.7C375.6 420.7 394.6 404.7 407.5 390L415.5 380.9L428.8 394.7C436.1 402.3 447.2 414.1 453.6 420.8ZM472 460.6C466.8 472.8 462.7 480.4 461 481.5C460.4 481.9 460 476.8 460 467.2V452.3L464.8 451.6C467.4 451.2 471.1 450.3 473 449.6C474.9 448.9 476.6 448.5 476.8 448.5C476.9 448.6 474.8 454.1 472 460.6ZM144 474.5V497H122H100V474.5V452H122H144V474.5ZM204 474.5V497H182H160V474.5V452H182H204V474.5ZM264 474.5V497H242H220V474.5V452H242H264V474.5ZM324 474.5V497H302H280V474.5V452H302H324V474.5ZM384 474.5V497H362H340V474.5V452H362H384V474.5ZM444 473V493.9L440.3 495C438.2 495.6 428.3 496.4 418.3 496.7L400 497.3V474.6V452H422H444V473Z" fill="#137AB6"/>
<path d="M210.501 31.0999C166.401 37.8999 138.901 62.5999 146.501 88.4999C153.401 112.2 179.801 141.4 206.301 154.5C215.601 159.1 226.101 162 233.501 162C244.901 162 261.901 155.5 274.901 146.2C284.101 139.8 299.101 125 306.201 115.6C317.001 101.2 322.801 86.5999 321.601 76.4999C319.301 56.7999 297.401 39.8999 264.501 32.3999C256.201 30.5999 219.801 29.5999 210.501 31.0999ZM265.201 49.3999C283.101 53.8999 299.101 63.3999 303.601 72.1999L305.001 74.8999L299.301 72.3999C290.601 68.4999 271.501 63.2999 259.801 61.5999C253.701 60.6999 242.601 59.9999 233.501 59.9999C224.401 59.9999 213.301 60.6999 207.201 61.5999C195.501 63.2999 176.401 68.4999 167.701 72.3999L162.001 74.8999L163.401 72.1999C166.001 67.1999 174.801 59.9999 183.301 55.8999C205.101 45.4999 239.201 42.7999 265.201 49.3999ZM258.501 77.4999C275.101 80.4999 302.001 89.4999 302.001 92.0999C302.001 92.3999 299.701 96.2999 296.901 100.6C289.901 111.5 270.901 130 260.501 136.2C239.101 148.9 226.701 148.7 205.101 135.3C195.201 129.2 176.801 111 170.101 100.6C167.301 96.2999 165.001 92.3999 165.001 91.9999C165.001 89.5999 190.901 80.6999 206.001 77.9999C219.601 75.3999 245.801 75.1999 258.501 77.4999Z" fill="#137AB6"/>
<path d="M92.3037 102.799C76.1037 108.599 58.7037 127.099 47.5037 150.499C41.7037 162.699 38.7037 171.299 35.4037 185.499C32.9037 196.099 32.6037 199.399 32.7037 213.999C32.7037 227.599 33.1037 231.899 34.8037 238.199C37.5037 248.299 41.1037 255.199 46.8037 261.199C55.1037 270.099 64.0037 272.799 79.0037 270.899C88.8037 269.699 107.804 263.699 110.904 260.899C114.104 257.899 113.804 251.799 110.404 249.099C108.904 247.899 107.104 246.999 106.304 246.999C105.504 246.999 100.204 248.499 94.7037 250.399C89.1037 252.299 82.8037 254.199 80.8037 254.499L77.2037 255.199L76.5037 250.499C76.1037 247.999 76.0037 237.899 76.3037 228.199C77.1037 202.499 80.7037 187.499 91.9037 164.499C98.4037 151.199 104.504 141.699 113.504 131.099L119.504 123.999L123.804 128.699C133.704 139.799 143.704 158.099 148.604 174.499C150.604 181.399 151.304 185.799 151.404 193.499C151.504 202.899 151.304 203.999 148.304 210.099C145.004 216.699 137.504 225.299 128.604 232.499C124.304 236.099 123.804 236.899 123.804 240.499C123.804 245.199 126.604 247.999 131.504 247.999C138.804 247.999 155.304 231.999 162.004 218.499C171.404 199.599 169.104 176.299 155.104 147.499C144.904 126.699 130.704 109.499 119.104 103.799C112.804 100.699 99.7037 100.199 92.3037 102.799ZM100.104 121.599C97.9037 124.099 93.5037 130.099 90.2037 134.799C69.4037 165.299 59.9037 196.599 59.9037 234.799V251.299L57.5037 248.999C51.3037 243.199 47.5037 226.999 48.4037 209.999C50.4037 171.399 71.3037 131.199 95.8037 118.899C97.8037 117.899 100.604 117.099 101.804 116.999C104.004 116.999 103.904 117.299 100.104 121.599Z" fill="#137AB6"/>
<path d="M350.802 102.501C334.202 108.801 314.402 135.701 304.502 165.301C294.502 195.101 298.402 216.401 317.302 235.401C339.702 257.901 380.602 274.901 402.502 270.901C430.502 265.901 442.202 226.801 430.002 179.501C420.802 144.101 400.402 114.401 378.002 104.201C371.202 101.101 356.802 100.201 350.802 102.501ZM371.802 119.401C388.202 127.701 402.802 148.201 412.002 175.701C416.102 188.201 419.002 204.601 419.002 215.101C418.902 228.801 414.302 244.701 409.102 249.401C407.302 251.101 407.202 250.601 406.702 230.301C406.402 214.101 405.802 207.201 404.102 199.101C398.202 171.101 385.202 143.701 368.102 123.201C363.702 117.901 363.202 117.001 365.002 117.001C366.102 117.001 369.202 118.101 371.802 119.401ZM353.002 130.501C368.102 147.801 380.302 171.301 386.302 194.501C389.902 208.301 391.002 217.801 391.002 233.801C391.002 249.301 390.302 255.001 388.502 255.001C387.802 255.001 383.202 253.801 378.402 252.401C352.502 245.001 327.002 226.901 318.902 210.501C315.702 203.901 315.502 203.001 315.602 193.501C315.702 185.801 316.402 181.401 318.402 174.501C323.302 158.201 333.002 140.001 343.102 128.701C345.402 126.101 347.402 124.001 347.502 124.201C347.602 124.401 350.102 127.201 353.002 130.501Z" fill="#137AB6"/>
<path d="M223.998 212.6C215.698 216.2 210.898 223.8 210.898 233.5C210.898 246.9 219.998 256 233.498 256C246.998 256 255.998 247 255.998 233.5C255.998 223.6 251.198 216.1 242.798 212.6C238.098 210.6 228.598 210.6 223.998 212.6ZM238.198 228.7C240.398 230.7 240.498 235.7 238.298 238.2C236.298 240.4 231.298 240.5 228.798 238.3C226.598 236.3 226.498 231.3 228.698 228.8C230.698 226.6 235.698 226.5 238.198 228.7Z" fill="#137AB6"/>
<path d="M125.5 281.501C104.1 285.001 83.9 293.201 75.1 302.001C68.7 308.401 66 315.401 66 325.601C66 335.701 67.3 340.601 73.1 352.501C79.1 365.001 85.3 373.101 97.7 385.101C136.3 422.001 189.7 435.301 211.6 413.301C219.8 405.101 223.6 389.901 222.7 368.501C221.4 338.901 212.4 312.901 198.3 297.901C191.2 290.401 184 286.201 173 283.001C163.1 280.101 138.8 279.401 125.5 281.501ZM161.8 297.001C172.9 298.801 178.9 301.701 185.6 308.401C195.9 318.701 203.2 337.101 206.1 359.601C207.2 368.501 207 387.401 205.7 388.601C205.4 388.901 200.7 388.001 195.3 386.601C155 376.201 120.1 350.501 98.7 315.501C96.7 312.201 95 308.901 95 308.301C95 305.901 115.9 299.101 129.9 297.101C138 295.901 154.5 295.901 161.8 297.001ZM101.5 346.901C122.8 372.201 154.9 392.601 187 401.101C191.7 402.301 195.9 403.701 196.4 404.101C197.8 405.401 187.1 408.001 180.4 408.001C168.2 408.001 146.8 400.701 132.5 391.701C117.3 382.101 100.5 366.501 92.7 354.701C85.8 344.301 82.7 336.401 82.2 327.501L81.8 319.501L87.7 328.501C91 333.401 97.2 341.701 101.5 346.901Z" fill="#137AB6"/>
<path d="M302.802 281C281.302 284.7 267.502 294.6 257.802 313.6C243.702 341.1 239.702 383.3 249.302 404.3C262.302 432.7 309.302 430 353.802 398.3C362.402 392.2 377.802 377.3 384.202 369C389.802 361.6 398.302 344.8 399.902 337.8C401.702 330.1 401.302 318.8 398.902 312.5C393.502 297.9 371.202 286.1 340.502 281.5C330.002 279.9 310.802 279.7 302.802 281ZM336.502 297C351.402 299.2 372.002 305.8 372.002 308.5C372.002 310.8 358.702 329.9 351.302 338.3C335.202 356.6 313.802 371.3 289.602 381C281.002 384.4 262.102 389.5 261.302 388.6C259.802 387.1 259.902 366.8 261.402 356.2C264.602 334.8 271.402 318.6 281.502 308.4C287.902 301.9 294.202 298.8 304.302 297.1C311.602 295.9 328.202 295.9 336.502 297ZM383.002 337.5C373.702 365.5 336.502 396.9 302.402 405.6C297.102 406.9 290.002 408 286.602 408C280.402 408 269.302 405.4 270.402 404.3C270.702 403.9 276.102 402.2 282.302 400.4C322.602 388.8 359.402 361 381.102 325.7L384.502 320.2L384.802 325.7C385.002 329.3 384.402 333.3 383.002 337.5Z" fill="#137AB6"/>
</g>
</g>
<defs>
<clipPath id="clip0_363_3399">
<rect width="512" height="512" fill="white"/>
</clipPath>
</defs>
</svg>
