<svg width="512" height="512" viewBox="0 0 512 512" fill="none" xmlns="http://www.w3.org/2000/svg">
<g clip-path="url(#clip0_363_3435)">
<mask id="mask0_363_3435" style="mask-type:luminance" maskUnits="userSpaceOnUse" x="0" y="0" width="512" height="512">
<path d="M512 0H0V512H512V0Z" fill="white"/>
</mask>
<g mask="url(#mask0_363_3435)">
<path d="M99.5 1.40041C92.3 3.70041 85.4 7.80041 80.6 12.6004C70.7 22.7004 68 31.2004 68 52.8004V68.0004H36.5H4.9L2.5 70.5004L0 72.9004V221.7C0 361.2 0.2 370.6 1.8 372.6C2.7 373.8 18 385.6 35.8 398.9C53.5 412.2 68 423.7 68 424.5C68 425.8 63.9 426 38.1 426C19.9 426 7.1 426.4 5.3 427C0.1 428.8 -0.1 430.3 0.2 456.6L0.5 480.6L4.2 488.1C8.8 497.4 15.4 503.9 24.8 508.3L31.5 511.5H222H412.5L419 508.4C430.9 502.7 438.3 494.2 442 482.2C444 475.9 444 472.2 444 280.9V86.0004H473.9C492.1 86.0004 504.9 85.6004 506.7 85.0004C511.9 83.2004 512.1 81.6004 511.8 55.5004L511.5 31.5004L508.3 24.8004C503.9 15.4004 497.4 8.80041 488.1 4.20041L480.6 0.500409L292.1 0.300409C141.6 0.200409 102.7 0.400409 99.5 1.40041ZM431.4 22.4004C426.7 30.7004 426 37.6004 426 74.7004C426 93.6004 425.8 109 425.5 109C425.2 109 412.7 99.8004 397.7 88.5004L370.3 68.0004H228.2H86V53.6004C86 45.5004 86.5 37.8004 87.1 35.9004C88.6 31.7004 92.8 25.7004 96.4 22.9004C102.8 17.9004 95.7 18.1004 270.2 18.0004H433.9L431.4 22.4004ZM477.4 19.1004C482.6 20.5004 491.5 29.4004 492.9 34.6004C493.5 36.7004 494 45.1004 494 53.2004V68.0004H468.9H443.8L444.2 52.2004C444.5 37.1004 444.6 36.3004 447.4 31.2004C453.5 20.2004 464.9 15.6004 477.4 19.1004ZM358 222V358H188H18V222V86.0004H188H358V222ZM426 265.8C426 339.7 425.6 399 425.1 398.8C424.7 398.7 413.4 390.4 400.2 380.5L376.1 362.5L376 228.7V95.0004L401 113.7L426 132.5V265.8ZM68 388V400.1L53.8 389.4C45.9 383.5 38.8 378.1 38 377.4C36.8 376.2 39 376 52.3 376H68V388ZM394.8 399.3L425.9 422.5V448.5C426 472.5 425.8 474.8 423.9 479C421.2 485 417.5 488.8 411.5 491.6C398.9 497.6 384 491.9 378.1 479C376.9 476.3 376.4 470.6 376 453.3C375.5 431.8 375.4 431 373.2 428.8L370.9 426.5L228.5 426.2L86 426V401V376H224.8H363.7L394.8 399.3ZM358 459.2C358 475.3 359.1 481.7 362.9 489.1C364.1 491.3 365 493.3 365 493.5C365 493.8 291.5 494 201.8 494C87.5 494 37.3 493.7 34.6 492.9C29.4 491.5 20.5 482.6 19.1 477.4C18.5 475.3 18 466.9 18 458.7V444H188H358V459.2Z" fill="#137AB6"/>
<path d="M211.3 118.2C198.7 130.9 196.5 134.2 197.6 138.8C198.3 141.4 222.4 167 224.2 167C224.7 167 227.7 164.2 231 160.7L236.9 154.5L232.7 150.2L228.6 146H285.3H342V137V128H284.8H227.6L232.3 123.2L237 118.4L230.7 112.2C227.3 108.8 224.2 106 224 106C223.7 106 218 111.5 211.3 118.2Z" fill="#137AB6"/>
<path d="M112.495 128.602C106.295 129.602 92.2949 134.302 85.4949 137.702C62.1949 149.402 45.1949 169.802 37.2949 195.702C34.8949 203.702 34.5949 206.002 34.5949 221.502C34.4949 236.302 34.7949 239.502 36.7949 246.302C42.6949 267.002 54.9949 285.202 70.7949 296.802C82.5949 305.502 91.2949 309.602 105.995 313.602C115.495 316.202 140.895 316.202 150.495 313.602C179.095 305.902 201.695 287.202 213.595 261.502C220.195 247.302 221.495 240.502 221.395 221.502C221.395 206.002 221.095 203.702 218.695 195.702C208.995 164.202 186.695 141.602 154.995 131.502C147.595 129.202 144.495 128.802 130.995 128.502C122.495 128.302 114.195 128.402 112.495 128.602ZM133.695 148.702C137.695 152.502 141.595 159.302 144.495 168.002C147.395 176.502 147.295 176.502 138.995 177.602C129.195 179.002 113.495 178.102 110.195 176.102C109.295 175.602 109.595 173.702 111.495 168.002C115.995 154.702 122.595 146.002 127.995 146.002C129.695 146.002 131.995 147.102 133.695 148.702ZM94.8949 160.602C93.1949 164.902 91.5949 168.702 91.4949 168.802C91.2949 169.002 88.8949 167.702 85.9949 165.802L80.8949 162.502L83.6949 160.302C86.4949 158.002 97.2949 151.902 97.6949 152.402C97.7949 152.502 96.5949 156.202 94.8949 160.602ZM172.295 160.302L175.095 162.502L169.995 165.802C167.095 167.702 164.695 169.002 164.495 168.802C164.295 168.602 162.995 165.602 161.695 162.002C160.395 158.402 158.895 154.602 158.495 153.602C157.795 152.002 158.595 152.202 163.595 154.902C166.795 156.602 170.795 159.002 172.295 160.302ZM73.4949 179.202C75.8949 181.002 80.0949 183.702 82.7949 185.202L87.6949 187.802L86.9949 192.702C86.5949 195.302 85.8949 201.002 85.4949 205.202L84.7949 213.002H68.4949H52.1949L53.5949 206.702C54.2949 203.302 55.4949 198.702 56.2949 196.402C59.1949 188.302 66.3949 176.002 68.1949 176.002C68.6949 176.002 71.0949 177.502 73.4949 179.202ZM193.095 182.902C197.695 190.502 200.595 197.902 202.395 206.702L203.795 213.002H187.495H171.195L170.495 205.202C170.095 201.002 169.395 195.302 168.995 192.702L168.295 187.802L173.195 185.202C175.895 183.702 179.995 181.102 182.295 179.302C184.595 177.502 187.095 176.202 187.895 176.302C188.595 176.402 190.995 179.402 193.095 182.902ZM118.795 196.002C127.395 196.902 142.495 196.102 148.695 194.402C151.095 193.702 151.395 194.802 152.495 206.202L153.195 213.002H127.995H102.795L103.495 206.202C104.595 194.802 104.895 193.702 107.295 194.402C108.495 194.702 113.695 195.502 118.795 196.002ZM85.4949 238.702C85.8949 243.002 86.5949 248.702 86.9949 251.302L87.6949 256.102L83.5949 258.202C81.2949 259.302 76.8949 262.102 73.7949 264.302L67.9949 268.302L66.0949 265.902C60.9949 259.802 55.7949 248.002 53.5949 237.202L52.1949 231.002H68.4949H84.7949L85.4949 238.702ZM152.595 236.702C151.195 248.902 150.895 250.202 149.195 249.502C144.295 247.602 127.495 246.702 118.195 247.802C112.695 248.402 107.595 249.202 106.795 249.502C105.095 250.202 104.795 248.902 103.395 236.702L102.795 231.002H127.995H153.195L152.595 236.702ZM202.395 237.202C200.195 247.802 196.395 256.802 191.095 264.002C189.695 265.902 188.495 267.702 188.295 267.902C188.195 268.102 185.395 266.502 182.295 264.302C179.095 262.102 174.695 259.302 172.395 258.202L168.295 256.102L168.995 251.302C169.395 248.702 170.095 243.002 170.495 238.702L171.195 231.002H187.495H203.795L202.395 237.202ZM138.995 266.102C142.595 266.602 145.795 267.502 146.295 267.902C147.295 268.902 142.795 281.702 139.495 287.402C136.395 292.802 130.695 298.002 127.995 298.002C125.395 298.002 119.695 292.802 116.695 287.702C113.295 281.902 108.695 268.902 109.695 267.902C112.095 265.502 128.995 264.502 138.995 266.102ZM94.6949 282.702C96.3949 287.002 97.5949 290.602 97.4949 290.802C96.6949 291.802 81.7949 283.002 81.7949 281.502C81.7949 280.802 89.9949 275.002 91.0949 275.002C91.3949 275.002 92.9949 278.502 94.6949 282.702ZM170.195 278.102C172.795 279.802 174.995 281.302 174.995 281.502C174.995 282.402 160.195 291.002 158.595 291.002C158.395 291.002 159.595 287.402 161.295 283.002C162.995 278.602 164.595 275.002 164.795 275.002C165.095 275.002 167.495 276.402 170.195 278.102Z" fill="#137AB6"/>
<path d="M291.398 154.102C285.298 155.902 278.698 161.202 275.798 166.902C272.498 173.202 271.998 182.402 274.498 188.802L276.098 192.702L268.698 200.102C257.198 211.602 256.598 213.602 256.198 244.002L255.898 268.502L258.498 271.002L261.198 273.502L295.998 273.802C335.698 274.102 338.298 273.802 340.598 268.502C342.598 263.602 342.598 228.602 340.498 220.702C337.698 209.902 331.898 201.202 323.698 195.402C320.998 193.502 320.898 193.402 322.398 190.002C326.798 179.402 324.798 168.702 316.998 160.902C310.098 154.002 300.498 151.502 291.398 154.102ZM304.298 173.902C308.698 178.202 304.898 187.002 298.798 187.002C294.998 187.002 290.998 183.002 290.998 179.202C290.998 172.202 299.198 168.902 304.298 173.902ZM309.698 208.302C314.898 210.802 318.098 214.102 321.198 220.002C323.298 224.002 323.498 226.102 323.898 240.202L324.198 256.002H299.098H273.998V240.202C273.998 222.702 274.898 219.202 280.998 213.202C288.898 205.202 299.698 203.402 309.698 208.302Z" fill="#137AB6"/>
<path d="M314.5 283L308.6 289L313 293.5L317.4 298H260.7H204V307V316H261.2H318.4L313.7 320.8L309 325.6L315.5 332L322 338.5L333.6 327C339.9 320.7 346 314 347.2 312.2C350.8 306.4 349.5 304 335.2 289.7C328.3 282.7 322.1 277 321.5 277C320.9 277 317.8 279.7 314.5 283Z" fill="#137AB6"/>
</g>
</g>
<defs>
<clipPath id="clip0_363_3435">
<rect width="512" height="512" fill="white"/>
</clipPath>
</defs>
</svg>
