<svg width="512" height="512" viewBox="0 0 512 512" fill="none" xmlns="http://www.w3.org/2000/svg">
<g clip-path="url(#clip0_363_3380)">
<mask id="mask0_363_3380" style="mask-type:luminance" maskUnits="userSpaceOnUse" x="0" y="0" width="512" height="512">
<path d="M512 0H0V512H512V0Z" fill="white"/>
</mask>
<g mask="url(#mask0_363_3380)">
<path d="M87 1.49969C65.4 5.79969 47.5 15.4997 31.5 31.4997C15.2 47.6997 5.7 65.5997 1.4 87.7997C-0.2 96.3997 -0.5 118 1 126.6C8.9 171.4 44.4 206.9 89.4 214.9C97.1 216.3 118.9 216.3 126.6 214.9C141.3 212.3 156.4 206.2 169.5 197.5C182.8 188.6 199.9 168.6 206.2 154.3L208.3 149.6L219.1 160.8C225 166.9 233.9 177.4 238.9 184L248 196.1V218V240L245.3 240.6C233.9 243.1 225.1 247.9 217 256C213.4 259.6 209.4 264.6 208.1 267.1C205.8 271.5 205.5 271.7 199.2 272.8C181.7 275.8 166.3 290 162 307.1L160.8 311.8L145.2 312.2C127.4 312.8 117.9 315 103.8 321.8L96 325.6V321C96 312 89.2 302.2 80 298.1C75.8 296.2 73.5 296 48 296C22.5 296 20.2 296.2 16 298.1C10 300.8 5.3 305.5 2.4 311.5L0 316.5V404V491.5L2.4 496.5C5.3 502.5 10 507.2 16 509.9C20.2 511.8 22.5 512 48 512C74.7 512 75.6 511.9 80.5 509.6C85 507.5 92.1 501 93.1 498.2C93.4 497.5 96.9 498.7 102.5 501.5C107.5 503.9 115.6 507.2 120.5 508.7L129.5 511.5L240.2 511.8L350.8 512.1L421.2 470.9C459.9 448.3 493.4 428.3 495.7 426.4C501.5 421.7 507.6 412 510.1 403.8C511.8 398.2 512.2 395 511.8 386.7C511.5 377.4 511.1 375.8 507.8 368.7C499.1 350.4 481 339.8 461 341.3C450.7 342.1 446.7 343.7 428.1 354.5L412 363.8L409.9 359.7C406.4 353 397.9 345.3 389.4 341.3C383.9 338.7 381.6 337 380.9 335.1C376.5 323.5 368 314.1 357.1 308.9C350.3 305.6 350 305.3 346.5 298.4C340 285.1 327 275.2 312.8 272.8C306.5 271.7 306.2 271.5 303.9 267.1C300.5 260.7 289.6 250.1 282.5 246.3C279.2 244.6 273.7 242.4 270.2 241.4L264 239.7V217.9V196.1L273.1 184C278.1 177.4 287 166.9 292.9 160.8L303.7 149.6L305.8 154.3C312.2 168.7 329.1 188.7 342.5 197.5C356 206.4 371.1 212.5 386.3 215.1C397.6 217 421.6 215.7 432.5 212.7C470 202.2 498.7 173.1 509 135.5C511.8 125.6 512.9 100.9 511.1 90.2997C503.3 44.7997 467.8 8.89969 422.6 0.999691C414 -0.500309 392.4 -0.200309 383.8 1.39969C361.6 5.69969 343.7 15.1997 327.5 31.4997C311.2 47.6997 301.7 65.5997 297.4 87.7997C295.8 96.1997 295.5 118.3 297 125.8L297.9 130.8L285.7 143.1C279 149.9 269.7 160.2 265.1 166C260.4 171.8 256.4 176.5 256 176.5C255.6 176.5 251.6 171.8 246.9 166C242.3 160.2 233 149.9 226.3 143.1L214.1 130.8L215 125.8C216.3 119 216.3 96.7997 214.9 89.3997C206.9 44.3997 171.4 8.89969 126.6 0.999691C118.5 -0.400309 95 -0.100309 87 1.49969ZM118.8 17.3997C139.5 19.1997 164.3 32.4997 177.7 48.9997C192.4 67.1997 199 85.4997 199 108.3C199 145.5 175.7 179.6 141 193.3C120.8 201.2 94.1 201.1 74.3 192.9C50.4 182.9 33.8 166.4 23.5 142.3C18.3 130.2 16.7 120.2 17.3 104.1C17.9 87.9997 19.4 82.0997 26 68.2997C40.1 39.2997 67.7 19.9997 99.5 17.0997C103.9 16.6997 108.6 16.4997 110 16.5997C111.4 16.7997 115.3 17.0997 118.8 17.3997ZM414.8 17.3997C435.5 19.1997 460.3 32.4997 473.7 48.9997C483.8 61.5997 490.6 75.5997 493.5 89.8997C495.6 100.3 495.1 122.2 492.5 131.5C488.5 145.8 479.1 161.9 468.5 172.5C453.5 187.6 433.3 197 412.4 198.8C367 202.8 326.9 174.2 315.4 129.5C313.1 120.4 312.9 118.2 313.3 105C313.9 87.8997 315.2 82.3997 322 68.2997C336.1 39.2997 363.7 19.9997 395.5 17.0997C399.9 16.6997 404.6 16.4997 406 16.5997C407.4 16.7997 411.3 17.0997 414.8 17.3997ZM273.1 260.7C281.3 264.8 288.2 271.9 292 280.4C295.2 287.5 297.5 289 305 289C318.4 289 330.2 298.4 334.4 312.4C336.3 318.7 337.3 319.6 343.5 321.4C354.1 324.5 363.5 333.6 366.1 343.3C367.8 350 369.5 351.8 375.5 353.5C382.8 355.7 389.6 360.5 393.7 366.4C395.5 369.1 397 371.6 397 372C397 372.4 389.2 377.2 379.8 382.7C370.3 388.3 360.9 393.7 359 394.8L355.5 396.9V384.2C355.5 371.6 355.5 371.4 351.8 363.7C349.2 358.3 346.2 354 342.1 349.9C338 345.8 333.7 342.8 328.3 340.2L320.5 336.5L267.2 336.2L213.9 335.9L208.8 332C202.4 326.8 192.2 321.2 184.5 318.4C177.2 315.8 176.8 314.4 180.6 306C185.2 295.8 193.3 290.4 205.9 289C210.1 288.6 214.3 287.9 215.3 287.5C216.3 287.1 218.4 284 220 280.6C227.7 264.5 240.1 256.7 257.5 257.2C265.4 257.5 267.4 257.9 273.1 260.7ZM71.9 313.3C73.8 314 76.3 315.8 77.4 317.3C79.5 320.1 79.5 320.5 79.5 404C79.5 487.5 79.5 487.9 77.4 490.7C74 495.3 70.4 495.9 48 495.9C25.6 495.9 22 495.3 18.6 490.7C16.5 487.9 16.5 487.5 16.5 404C16.5 320.5 16.5 320.1 18.6 317.3C19.7 315.8 22.2 314 24.1 313.3C28.7 311.7 67.3 311.7 71.9 313.3ZM171.5 332.1C182.6 335.5 194.4 342 202.8 349.2L206.1 352H255.8C307.3 352 315.1 352.5 322.2 356.1C328.3 359.2 334.6 366.3 337 372.8C338.8 377.3 339.1 380 338.8 386C338.1 398.6 332 407.3 320 412.9L314.5 415.5L250.2 416C187.9 416.5 185.8 416.6 184.4 418.4C182.3 421.3 182.6 427.6 185 430C187 432 188.3 432 258.4 432H329.8L390.6 396.4C424.1 376.8 453.5 360.1 455.9 359.4C471.7 354.5 488.8 364 494 380.4C495.7 385.8 495.5 394 493.4 400.2C490 410.5 487.1 412.6 413.4 455.6L346.3 494.7L248.4 495.2C193.7 495.5 146.2 495.4 140.8 494.9C126.1 493.5 115.2 489.7 101.8 481.1L96 477.5V412V346.5L101.8 342.9C110.1 337.6 116.6 334.5 124.6 332C138.4 327.8 157.9 327.9 171.5 332.1Z" fill="#137AB6"/>
<path d="M102 38C100.4 39.6 100 41.3 100 46.4C100 52.7 99.9 52.9 97.1 53.5C92.8 54.4 85.2 60.2 81.5 65.4C77.2 71.5 75.7 77.3 76.2 86.2C76.6 94.9 79.3 101 85.1 106.9C90.4 112.2 96.4 114.9 105.2 116.2C109.2 116.7 113.8 117.9 115.5 118.9C128.8 126.6 123.3 147 108 147C99.8 147 93.9 141.4 92.5 132.3C91.6 126.5 89.1 124 84 124C78.2 124 76 126.6 76 133.4C76 139.9 78 145.9 82 151.3C85.5 156 93 161.6 97.1 162.5C99.9 163.1 100 163.3 100 169.6C100 177.5 101.9 180 108 180C114.1 180 116 177.5 116 169.6C116 163.3 116.1 163.1 118.9 162.5C123.2 161.6 130.8 155.8 134.5 150.6C138.8 144.5 140.3 138.7 139.8 129.8C139.4 121.1 136.7 115 130.9 109.1C125.6 103.8 119.6 101.1 110.8 99.8C106.8 99.3 102.2 98.1 100.5 97.1C87.2 89.4 92.7 69 108 69C116.2 69 122.1 74.6 123.5 83.7C124.4 89.5 126.9 92 132 92C137.8 92 140 89.4 140 82.6C140 76.1 138 70.1 134 64.7C130.5 60 123 54.4 118.9 53.5C116.1 52.9 116 52.7 116 46.4C116 38.5 114.1 36 108 36C105.3 36 103.3 36.7 102 38Z" fill="#137AB6"/>
<path d="M398 38C396.4 39.6 396 41.3 396 46.4C396 52.7 395.9 52.9 393.1 53.5C388.8 54.4 381.2 60.2 377.5 65.4C373.2 71.5 371.7 77.3 372.2 86.2C372.6 94.9 375.3 101 381.1 106.9C386.4 112.2 392.4 114.9 401.2 116.2C405.2 116.7 409.8 117.9 411.5 118.9C424.8 126.6 419.3 147 404 147C395.8 147 389.9 141.4 388.5 132.3C387.6 126.5 385.1 124 380 124C374.2 124 372 126.6 372 133.4C372 139.9 374 145.9 378 151.3C381.5 156 389 161.6 393.1 162.5C395.9 163.1 396 163.3 396 169.6C396 177.5 397.9 180 404 180C410.1 180 412 177.5 412 169.6C412 163.3 412.1 163.1 414.9 162.5C419.2 161.6 426.8 155.8 430.5 150.6C434.8 144.5 436.3 138.7 435.8 129.8C435.4 121.1 432.7 115 426.9 109.1C421.6 103.8 415.6 101.1 406.8 99.8C402.8 99.3 398.2 98.1 396.5 97.1C383.2 89.4 388.7 69 404 69C412.2 69 418.1 74.6 419.5 83.7C420.4 89.5 422.9 92 428 92C433.8 92 436 89.4 436 82.6C436 76.1 434 70.1 430 64.7C426.5 60 419 54.4 414.9 53.5C412.1 52.9 412 52.7 412 46.4C412 38.5 410.1 36 404 36C401.3 36 399.3 36.7 398 38Z" fill="#137AB6"/>
</g>
</g>
<defs>
<clipPath id="clip0_363_3380">
<rect width="512" height="512" fill="white"/>
</clipPath>
</defs>
</svg>
