<svg width="512" height="512" viewBox="0 0 512 512" fill="none" xmlns="http://www.w3.org/2000/svg">
<g clip-path="url(#clip0_363_3411)">
<mask id="mask0_363_3411" style="mask-type:luminance" maskUnits="userSpaceOnUse" x="0" y="0" width="512" height="512">
<path d="M512 0H0V512H512V0Z" fill="white"/>
</mask>
<g mask="url(#mask0_363_3411)">
<path d="M165.698 2.39991C154.298 7.19991 148.198 12.8999 143.398 23.3999C141.998 26.4999 140.598 31.3999 140.298 34.3999L139.698 39.8999L121.998 40.1999L104.298 40.4999L99.3984 43.4999C96.3984 45.3999 93.3984 48.3999 91.4984 51.3999C88.4984 56.2999 88.4984 56.4999 88.1984 72.6999L87.8984 89.0999L91.2984 92.4999L94.7984 95.9999H179.498C273.598 95.9999 268.198 96.3999 271.498 89.3999C273.498 84.9999 273.598 64.2999 271.498 57.3999C269.698 51.0999 264.398 44.8999 258.498 42.0999C254.498 40.1999 252.298 39.9999 237.598 39.9999H221.198L220.098 33.8999C217.798 20.5999 209.298 9.19991 197.498 3.49991C192.398 0.999907 190.098 0.599907 181.498 0.299907C172.698 -9.32366e-05 170.798 0.199907 165.698 2.39991ZM190.998 19.4999C195.798 21.9999 201.698 29.5999 202.998 34.9999C203.598 37.6999 203.898 40.2999 203.598 40.8999C202.298 42.9999 204.898 50.4999 207.998 53.1999L210.998 55.9999H228.898C239.298 55.9999 247.998 56.4999 249.898 57.0999C254.498 58.6999 255.998 62.4999 255.998 71.9999V79.9999H180.498H104.998V70.6999C104.998 61.8999 105.198 61.1999 107.598 58.8999C110.098 56.5999 110.698 56.4999 130.398 55.9999C155.798 55.3999 155.798 55.3999 156.998 40.1999C157.598 33.2999 158.198 31.1999 160.598 27.6999C167.998 17.2999 180.298 13.8999 190.998 19.4999Z" fill="#137AB6"/>
<path d="M174 50.0005C172.7 51.3005 172 53.3005 172 55.8005C172 60.9005 174.9 64.0005 179.6 64.0005C184.3 64.0005 186.5 62.7005 188 59.0005C189.5 55.5005 188 50.6005 184.9 49.0005C181.8 47.3005 176.2 47.8005 174 50.0005Z" fill="#137AB6"/>
<path d="M33.5004 61.9C31.3004 62.9 28.1004 65.3 26.3004 67.1C19.5004 74.3 20.0004 56.2 20.0004 286C20.0004 515.8 19.5004 497.7 26.3004 504.9C28.1004 506.7 31.3004 509.1 33.5004 510.1C37.3004 511.9 42.1004 512 133.7 512H229.9L228.9 508.8C228.4 507 228 503.4 228 500.8V496H136.6C72.5004 496 44.4004 495.7 42.1004 494.9C40.4004 494.3 38.5004 493 38.0004 492C36.6004 489.5 36.6004 82.5 38.0004 80C39.6004 77 44.7004 76 59.1004 76H73.0004V68V60H55.3004C40.1004 60 36.9004 60.3 33.5004 61.9Z" fill="#137AB6"/>
<path d="M287.396 61.6C287.696 62.5 287.997 66 287.997 69.5V75.8L303.597 76.2L319.197 76.5L321.597 79.3L323.997 82.1V149V216L330.396 211.6C333.996 209.2 337.796 206.9 338.896 206.5C340.996 205.9 340.997 205.6 340.997 143.6C340.997 76.1 340.997 75.8 335.497 68.7C334.097 66.7 330.497 64 327.697 62.5C322.797 60.1 321.897 60 304.697 60C288.797 60 286.896 60.2 287.396 61.6Z" fill="#137AB6"/>
<path d="M147.5 143.1C132.7 151.3 118.9 159.2 116.9 160.5C110.1 164.9 110 165.7 110 204C110 241.3 110.2 242.9 115.9 246.9C117.3 247.9 131.1 255.8 146.6 264.4C173.3 279.3 174.9 280 180.2 280C185.4 280 187 279.3 214.6 263.9C230.5 255 244.4 247.1 245.4 246.2C246.4 245.2 248.1 242.7 249.1 240.5C250.8 236.9 251 233.4 251 204C251 174.6 250.8 171.1 249.1 167.5C248.1 165.3 246.4 162.8 245.4 161.8C244.4 160.9 230.5 152.9 214.6 144.1C186.8 128.6 185.5 128 180.1 128C174.8 128 173.2 128.8 147.5 143.1ZM201.6 156.6C213.1 163 222.8 168.5 223.2 168.9C223.6 169.3 214.1 175.1 202.1 181.8L180.2 194.1L158.3 181.9C146.3 175.2 136.4 169.6 136.3 169.5C136 169.3 179.3 145.1 180.1 145C180.5 145 190.2 150.2 201.6 156.6ZM172 233.6C172 247 171.7 258 171.3 258C171 258 160.8 252.5 148.8 245.8L127 233.7V208.9V184.2L149.5 196.7L172 209.3V233.6ZM234 208.7V233.5L220.3 241C212.8 245.1 202.6 250.7 197.8 253.3L189 258.2L189.2 233.4L189.5 208.7L211.5 196.4C223.6 189.6 233.6 184 233.8 184C233.9 184 234 195.1 234 208.7Z" fill="#137AB6"/>
<path d="M349.996 217.799C347.496 218.699 343.996 220.299 342.196 221.299C338.096 223.499 314.496 243.799 303.396 254.599C296.296 261.499 295.096 263.199 294.096 267.599C292.496 274.299 293.696 278.899 298.996 286.299C304.396 293.799 306.696 299.199 307.496 306.499C308.296 312.699 309.996 317.099 312.996 320.499C314.496 322.199 314.796 325.099 315.296 338.499C315.996 360.999 319.396 370.399 330.996 381.999C341.496 392.499 355.396 397.599 370.996 396.699C393.596 395.399 411.996 380.799 418.396 359.099C419.596 355.099 419.996 349.399 419.996 338.299V323.099L423.096 318.699C425.296 315.499 426.396 312.599 426.996 307.899C427.896 300.199 429.596 295.999 434.396 289.299C438.396 283.699 440.996 277.199 440.996 272.799C440.996 264.899 434.596 257.499 410.496 237.599C392.596 222.799 388.696 220.099 381.596 217.699C374.796 215.399 356.296 215.499 349.996 217.799ZM378.496 234.999C383.196 237.099 418.696 266.399 421.696 270.599C425.196 275.699 424.296 275.999 407.596 275.999H392.296L391.196 272.199C389.596 267.099 383.496 260.099 378.596 257.899C373.496 255.599 363.296 255.399 358.196 257.599C351.796 260.199 343.996 269.499 343.996 274.499C343.996 275.799 341.796 275.999 328.196 275.999C313.796 275.999 312.396 275.799 311.296 274.099C310.196 272.399 310.996 271.299 318.496 264.199C330.396 252.899 348.996 237.099 352.296 235.299C359.296 231.699 370.996 231.599 378.496 234.999ZM372.996 274.999C377.296 279.299 374.096 286.999 368.096 286.999C361.696 286.999 358.296 279.699 362.496 274.999C364.896 272.399 370.396 272.399 372.996 274.999ZM350.096 296.599C359.696 306.699 376.996 306.599 385.896 296.399L388.896 292.999H400.596H412.296L411.596 296.199C411.196 297.999 410.696 301.399 410.296 303.699C409.196 311.799 410.696 311.499 367.596 311.499C340.896 311.499 328.896 311.199 327.596 310.399C326.196 309.499 325.196 306.899 323.996 301.099L322.396 292.999H334.496H346.596L350.096 296.599ZM402.796 341.199C402.496 354.099 402.396 354.699 399.096 360.799C394.996 368.299 389.696 373.299 382.096 376.899C377.296 379.099 375.196 379.499 367.496 379.499C359.396 379.499 357.896 379.199 352.396 376.299C348.896 374.499 344.296 370.899 341.696 367.999C335.096 360.599 332.896 354.099 332.196 339.699L331.696 327.999H367.496H403.196L402.796 341.199Z" fill="#137AB6"/>
<path d="M83.1979 310L76.7979 313L73.7979 310.5C70.1979 307.5 66.1979 307.3 62.5979 310.1C58.5979 313.2 58.9979 318.8 63.5979 325.1C67.5979 330.6 70.5979 333 73.2979 333C75.8979 333 97.1979 322.7 98.9979 320.6C101.198 317.8 100.798 312.4 97.9979 309.5C94.8979 306.2 90.9979 306.3 83.1979 310Z" fill="#137AB6"/>
<path d="M118 310C116.7 311.3 116 313.3 116 316C116 318.7 116.7 320.7 118 322C120 324 121.3 324 207.8 324C256.1 324 295.9 323.7 296.3 323.4C296.6 323 296.3 321.5 295.4 319.9C294.6 318.3 293.7 315 293.3 312.5L292.7 308H206.4C121.3 308 120 308 118 310Z" fill="#137AB6"/>
<path d="M83.1979 350L76.7979 353L73.7979 350.5C70.1979 347.5 66.1979 347.3 62.5979 350.1C58.5979 353.2 58.9979 358.8 63.5979 365.1C67.5979 370.6 70.5979 373 73.2979 373C75.8979 373 97.1979 362.7 98.7979 360.7C99.5979 359.8 100.198 357.4 100.298 355.4C100.398 352.6 99.7979 351.2 97.5979 349.4C93.9979 346.2 90.7979 346.4 83.1979 350Z" fill="#137AB6"/>
<path d="M118 350C116.7 351.3 116 353.3 116 356C116 358.7 116.7 360.7 118 362C120 364 121.3 364 207.9 364C292.6 364 295.9 363.9 298.1 362.1C299.9 360.7 300.5 359.2 300.5 356C300.5 352.8 299.9 351.3 298.1 349.9C295.9 348.1 292.6 348 207.9 348C121.3 348 120 348 118 350Z" fill="#137AB6"/>
<path d="M291.303 391C280.703 395.3 270.102 400.2 267.702 401.8C260.902 406.5 251.502 417.3 248.102 424.2C243.402 433.8 242.902 439.9 243.202 475.8L243.502 508.2L245.902 510.1C249.202 512.8 255.103 512.6 257.803 509.7C259.803 507.6 259.902 506.5 260.202 473L260.502 438.5L263.802 431.8C267.402 424.4 274.502 417.2 282.002 413.6C284.502 412.3 294.802 408 305.002 404C315.202 400 323.702 396.5 323.902 396.3C324.502 395.9 312.702 383.6 311.502 383.3C311.002 383.2 301.903 386.6 291.303 391Z" fill="#137AB6"/>
<path d="M417.597 389.599C414.397 393.199 411.897 396.199 412.097 396.399C412.297 396.599 421.697 400.399 432.997 404.899C455.697 413.999 462.397 417.899 468.097 425.499C474.797 434.399 474.997 435.499 474.997 470.899C474.997 503.499 475.597 509.199 478.997 510.999C482.197 512.699 487.797 512.199 489.997 509.999C491.997 507.999 492.097 507.099 491.797 470.199L491.497 432.399L487.597 424.399C482.897 414.799 472.597 404.099 463.497 399.299C458.097 396.499 425.297 382.999 423.997 382.999C423.697 383.099 420.897 385.999 417.597 389.599Z" fill="#137AB6"/>
<path d="M83.1979 390L76.7979 393L73.7979 390.5C70.1979 387.5 66.1979 387.3 62.5979 390.1C58.5979 393.2 58.9979 398.8 63.5979 405.1C67.5979 410.6 70.5979 413 73.2979 413C75.8979 413 97.1979 402.7 98.7979 400.7C99.5979 399.8 100.198 397.4 100.298 395.4C100.398 392.6 99.7979 391.2 97.5979 389.4C93.9979 386.2 90.7979 386.4 83.1979 390Z" fill="#137AB6"/>
<path d="M118 390C116.7 391.3 116 393.3 116 396C116 398.7 116.7 400.7 118 402C120 404 121.3 404 181.7 404H243.3L249.4 398.2C252.8 395 256.9 391.5 258.5 390.2L261.5 388.1L190.8 388C121.3 388 120 388 118 390Z" fill="#137AB6"/>
<path d="M347.606 410.901C345.006 419.701 335.706 462.501 335.706 466.001C335.606 473.101 338.206 477.001 351.106 488.901C363.006 499.901 363.206 500.001 368.006 500.001C372.806 500.001 373.006 499.901 384.606 489.001C391.106 483.001 397.206 476.601 398.206 474.801C401.206 469.201 400.406 463.101 393.106 436.201C389.306 422.301 386.006 410.701 385.706 410.401C385.406 410.101 382.806 410.301 380.006 410.901C377.206 411.501 373.506 412.001 371.806 412.001C369.406 412.001 368.906 412.401 369.206 413.701C369.506 414.701 372.806 426.901 376.506 440.901L383.406 466.301L375.606 473.801L367.806 481.201L360.406 473.901C356.306 469.901 353.006 465.801 353.006 465.001C353.006 463.501 363.306 417.901 364.606 413.701C365.006 412.401 364.606 412.001 362.806 412.001C361.506 412.001 357.706 411.401 354.306 410.701C348.706 409.501 348.006 409.501 347.606 410.901Z" fill="#137AB6"/>
<path d="M83.1979 430L76.7979 433L73.7979 430.5C70.1979 427.5 66.1979 427.3 62.5979 430.1C58.5979 433.2 58.9979 438.8 63.5979 445.1C67.5979 450.6 70.5979 453 73.2979 453C75.8979 453 97.1979 442.7 98.7979 440.7C99.5979 439.8 100.198 437.4 100.298 435.4C100.398 432.6 99.7979 431.2 97.5979 429.4C93.9979 426.2 90.7979 426.4 83.1979 430Z" fill="#137AB6"/>
<path d="M118 430C116.7 431.3 116 433.3 116 436C116 438.7 116.7 440.7 118 442C120 444 121.3 444 173.8 444H227.6L229.1 436L230.6 428H175.3C121.3 428 120 428 118 430Z" fill="#137AB6"/>
<path d="M302 482C300.2 483.8 300 485.3 300 496C300 510 301 512 308 512C315 512 316 510 316 496C316 482 315 480 308 480C305.3 480 303.3 480.7 302 482Z" fill="#137AB6"/>
<path d="M422 482C420.2 483.8 420 485.3 420 496C420 510 421 512 428 512C435 512 436 510 436 496C436 482 435 480 428 480C425.3 480 423.3 480.7 422 482Z" fill="#137AB6"/>
</g>
</g>
<defs>
<clipPath id="clip0_363_3411">
<rect width="512" height="512" fill="white"/>
</clipPath>
</defs>
</svg>
