<svg width="512" height="512" viewBox="0 0 512 512" fill="none" xmlns="http://www.w3.org/2000/svg">
<path d="M66 82C64 84 64 85.3 64 232C64 378.7 64 380 66 382C68 384 69.3 384 192 384C314.7 384 316 384 318 382C320.7 379.3 320.7 372.7 318 370C316 368 314.7 368 198 368H80V232V96H256H432V160C432 222.7 432 224 434 226C436.7 228.7 443.3 228.7 446 226C448 224 448 222.7 448 154C448 85.3 448 84 446 82C444 80 442.7 80 256 80C69.3 80 68 80 66 82Z" fill="#137AB6"/>
<path d="M114 130C112.1 131.9 112 133.3 112 160C112 186.7 112.1 188.1 114 190C115.3 191.3 117.3 192 120 192C122.7 192 124.7 191.3 126 190C127.9 188.1 128 186.7 128 166V144H150C170.7 144 172.1 143.9 174 142C175.3 140.7 176 138.7 176 136C176 133.3 175.3 131.3 174 130C172.1 128.1 170.7 128 144 128C117.3 128 115.9 128.1 114 130Z" fill="#137AB6"/>
<path d="M338 130C336.7 131.3 336 133.3 336 136C336 138.7 336.7 140.7 338 142C339.9 143.9 341.3 144 362 144H384V166C384 186.7 384.1 188.1 386 190C387.3 191.3 389.3 192 392 192C394.7 192 396.7 191.3 398 190C399.9 188.1 400 186.7 400 160C400 133.3 399.9 131.9 398 130C396.1 128.1 394.7 128 368 128C341.3 128 339.9 128.1 338 130Z" fill="#137AB6"/>
<path d="M162 178C160.7 179.3 160 181.3 160 184C160 186.7 160.7 188.7 162 190C163.9 191.9 165.3 192 192 192C218.7 192 220.1 191.9 222 190C223.3 188.7 224 186.7 224 184C224 181.3 223.3 179.3 222 178C220.1 176.1 218.7 176 192 176C165.3 176 163.9 176.1 162 178Z" fill="#137AB6"/>
<path d="M258 178C256.7 179.3 256 181.3 256 184C256 186.7 256.7 188.7 258 190C259.9 191.9 261.3 192 304 192C346.7 192 348.1 191.9 350 190C351.3 188.7 352 186.7 352 184C352 181.3 351.3 179.3 350 178C348.1 176.1 346.7 176 304 176C261.3 176 259.9 176.1 258 178Z" fill="#137AB6"/>
<path d="M186.802 212.4C172.002 216.4 155.202 233.9 150.002 250.9C144.402 268.7 150.202 284.2 165.302 292.2C168.802 294.1 171.002 294.5 178.502 294.4C186.202 294.4 188.702 293.9 195.702 291.1C200.302 289.3 208.902 284.6 214.902 280.6L225.802 273.3L227.902 276.1C232.402 282.2 239.102 284.5 247.902 282.8C258.102 280.9 263.402 277.4 281.502 259.9C290.702 251.1 293.302 249.2 297.202 248.2C302.502 246.8 304.002 244.9 304.002 239.6C304.002 234.3 301.202 232 294.802 232C286.702 232.1 282.402 234.7 268.402 248.2C261.302 255 254.002 261.6 252.202 262.9C248.102 265.8 243.502 267.1 242.202 265.8C240.602 264.2 243.202 256.8 247.902 249.6C254.602 239.4 252.902 232 244.002 232C239.402 232 237.802 233.3 232.802 241.2C224.202 254.6 197.402 273.7 182.802 277C177.802 278.1 176.802 278.1 173.402 276.4C171.302 275.3 168.502 272.9 167.202 271C165.202 268 164.902 266.6 165.302 261.8C166.302 250.7 177.802 234.8 188.002 230.6C190.502 229.6 193.902 228.2 195.702 227.5C202.402 224.6 201.902 214.6 194.902 212.1C193.102 211.5 191.702 211 191.602 211.1C191.502 211.1 189.402 211.7 186.802 212.4Z" fill="#137AB6"/>
<path d="M382.7 224C349.2 228.1 322.3 251.8 314 284.4C311.3 295.2 311.2 312.7 314 323.6C316.7 334.4 323.9 348.5 330.6 355.8L336 361.8V406.5C336 433.7 336.4 451.8 337 453C337.5 454 339.4 455.3 341.1 455.9C345.1 457.3 346.6 456.6 372.2 442.2L392 431.1L414.2 443.6C438.2 457 441.8 458.2 446 454C447.9 452.1 448 450.7 448 406.9V361.8L453.4 355.8C460.1 348.5 467.3 334.4 470 323.6C472.8 312.7 472.7 295.2 470 284.4C465.8 268.1 455.9 252.1 443.7 242C436 235.6 419.8 227.6 410.5 225.7C400.9 223.6 390.8 223 382.7 224ZM413 244.4C430.6 250.5 445.4 265.2 451.7 283.1C455.2 292.9 456 309.2 453.5 319C447.6 341.8 429.9 359.6 407.2 365.5C399.2 367.5 384.3 367.5 376.6 365.5C357.1 360.4 340.4 345.5 332.8 326.5C329.7 318.9 329.6 317.8 329.5 305C329.5 288.6 331.7 280.7 339.2 269.4C355.6 244.9 385.4 234.8 413 244.4ZM431.6 432.7C431.3 433 424.7 429.6 416.8 425.2C397.7 414.5 394.5 413 391.8 413C390.5 413 381.4 417.5 371.5 423L353.5 432.9L353.2 404.3C353.1 388.6 353.1 375.5 353.3 375.4C353.5 375.2 356.9 376.4 360.9 378.1C380.8 386.5 406.3 386.1 425.5 377.2L431.5 374.4L431.8 403.3C431.9 419.3 431.8 432.5 431.6 432.7Z" fill="#137AB6"/>
<path d="M114 274C112.1 275.9 112 277.3 112 304C112 330.7 112.1 332.1 114 334C115.9 335.9 117.3 336 144 336C170.7 336 172.1 335.9 174 334C175.3 332.7 176 330.7 176 328C176 325.3 175.3 323.3 174 322C172.1 320.1 170.7 320 150 320H128V298C128 277.3 127.9 275.9 126 274C124.7 272.7 122.7 272 120 272C117.3 272 115.3 272.7 114 274Z" fill="#137AB6"/>
</svg>
