<svg width="512" height="512" viewBox="0 0 512 512" fill="none" xmlns="http://www.w3.org/2000/svg">
<path d="M103.1 26.7C95.4 30.9 29.8 94.9 26.5 101.4L24 106.4V287.5V468.6L26.6 473.8C29.4 479.5 33.5 483.4 39.5 486.1C43.3 487.9 50.7 488 199.5 488C349.3 488 355.7 487.9 359.6 486.1C364.4 483.9 370.1 478.3 372.7 473.2C374.4 469.7 374.5 463.9 375 370.5L375.5 271.5L415.3 217.3L455.1 163.1L461.3 167.6C464.7 170.1 467.7 172.3 467.9 172.5C468.1 172.7 454.7 191.4 438.2 213.9C421.6 236.5 407.6 255.9 406.9 257.1C405.4 260 406.6 265.6 409.3 267.5C412.5 269.7 417.5 269.4 420.4 266.7C424.1 263.3 483 182.3 484.7 178.2C486.5 174 485.8 167.8 483.2 163.7C482.2 162.2 477.7 158.3 473.2 155C468.7 151.7 465 148.9 465 148.8C465 148.6 466 146 467.1 143C468.5 139.4 469.4 134.5 469.6 128.7L470 119.8L477.1 110.2C486.5 97.5 488.1 93.7 488.1 84.9C488.1 68 476.1 56 459.5 56.1C446.4 56.1 441.4 59.3 429.8 75.1C424 83.1 421.3 86 419.7 86C416.4 86.1 406.9 90.3 401.7 94C398.7 96.1 393.1 102.7 386.3 111.8L375.5 126.4L375 84.4C374.5 43.8 374.4 42.4 372.3 38.5C369.5 33.2 364.5 28.6 359 26.1C354.6 24.1 353 24 231.4 24H108.2L103.1 26.7ZM353.1 42C357.9 44.6 358 45.4 358 99.7L357.9 150.5L335.8 180.7L313.6 210.9L311.5 205.6C297 170 263.5 142.9 224.8 135.5C214.3 133.5 191.7 133.5 181.3 135.5C157.4 140 137.3 150.7 120 168C99.8 188.2 88.7 211.9 86 240.9C81.1 292.7 112.2 342.3 161 360.7C174.7 365.9 181.7 367.1 199.8 367.7C209.2 368 217 368.3 217 368.4C217 368.5 215 374.6 212.5 382C207.9 395.7 207 402.6 209.1 407.3C210 409.4 209.8 410.3 207.1 414C203.5 419 203.2 422.7 206.1 426.4C207.7 428.5 209 429 212.5 429C216.5 429 217.3 428.6 220.7 424.5C224 420.5 224.9 420 228.6 420C231 420 234.1 419.5 235.6 419C237.1 418.4 249.3 410 262.7 400.4C276.2 390.7 288.6 382.4 290.3 381.9C292.1 381.4 294.5 380.1 295.7 379.1C296.9 378.1 311 359.3 327.1 337.4C343.1 315.4 356.6 297.1 357.1 296.5C357.6 296 358 332 358 380.4V465.2L355.1 468.1L352.2 471H199.8C60.6 471 47.2 470.9 45.1 469.4C39.7 465.6 40 474.7 40 287.5V114H75.7C110.9 114 111.4 114 113.7 111.8L116 109.7V75.3V41H233.6C312.3 41 351.8 41.3 353.1 42ZM99 75V97H76.3L53.5 96.9L76 75C88.4 63 98.6 53.1 98.8 53C98.9 53 99 62.9 99 75ZM465 74.5C469.1 76.6 471 79.8 471 84.6C471 88.6 469.9 90.8 464 98.8L461.9 101.6L457.1 96.9C454.4 94.3 450 91.2 447.2 89.9L442.2 87.6L445.3 83.2C452.3 73.4 458.1 70.9 465 74.5ZM438.6 104.8C449.9 110.6 455.2 123 451.6 135.1C450.1 140.3 446.1 146.1 418.5 183.6L412.5 191.7L391.9 176.5L371.4 161.4L389.7 136.5C399.7 122.7 409.6 110 411.7 108.2C418.8 102 430.3 100.5 438.6 104.8ZM228.5 154C237.9 156.5 250.5 162.3 258.7 167.7C270.5 175.5 285.2 191.5 290.9 202.7C292 205 293 207.1 293 207.4C293 207.7 276.7 208 256.8 208.2L220.5 208.5L214.8 211.3C204.3 216.5 198.6 225.7 198.5 237.5C198.5 249.5 204.9 259.3 215.9 264.4C220 266.2 223 266.5 241.6 267C264.5 267.5 266 267.9 266 273.1C266 276.2 263.9 278.8 260.7 279.5C259.5 279.7 253.5 280.1 247.4 280.2C237.1 280.5 236 280.7 231.4 283.5C224.6 287.8 220.7 294.3 220.2 302.5C219.7 310.5 221.1 314.7 226.1 320.4C230 324.8 230.1 325 228.5 327.9C227.7 329.6 227 332.4 227 334.3C227 338.1 224.3 346.9 222.6 348.7C222 349.4 217 350.4 211.7 351C179.3 354.3 145.8 340.1 124.8 314.1C117.6 305.1 110.3 291.6 107 281C105.9 277.4 105 274.2 105 273.8C105 273.5 118.2 273 134.3 272.8C166.2 272.4 168.2 272.1 174.3 266.2C184.2 256.8 184 240 173.8 231.5C168.7 227.2 164.8 226 156.1 226C147.4 226 143.4 224.8 142.5 221.8C141.7 219.3 142.7 216.4 144.8 215.4C145.7 214.9 155.7 214.3 167 214C189.9 213.4 192.1 212.9 199 206C209 196 209.7 179 200.4 168.2C195 161.8 188.1 159 176.4 158.3L166.5 157.7L172 155.8C183.6 151.9 190 151 205.5 151.4C217 151.7 222.4 152.3 228.5 154ZM183.5 176.6C190.3 179.8 191.9 188.9 186.4 194.1C183.9 196.4 183.3 196.5 162.7 197.1C150.3 197.4 140.4 198.1 138.8 198.8C137.3 199.4 134.3 201.5 132.1 203.5C121.4 213.2 122.9 230.6 135.2 238.7C138.8 241.1 140.6 241.6 149.4 242.1C161 242.7 162.8 243.3 164.1 246.8C164.9 248.8 164.7 249.9 163.2 251.9L161.3 254.5L132 254.8L102.7 255L103.3 243.8C104.4 220.6 114.6 197.7 131.1 181.2L137.3 175H158.8C176.1 175 180.8 175.3 183.5 176.6ZM380.8 189.7C391.1 197.2 400.1 203.9 400.9 204.6C402 205.6 392.1 219.7 344.5 284.6C312.7 328 286.4 363.9 285.9 364.4C284.9 365.5 245 336 245.3 334.4C245.6 332.7 360.4 176.1 361.3 176C361.7 176 370.5 182.1 380.8 189.7ZM300.4 226.6C300.8 227.6 297.2 233.4 289.8 243.5L278.5 258.9L275.5 256C269.8 250.7 268.9 250.5 246 250C222.2 249.4 220.9 249.1 217 242.7C214.5 238.7 214.5 236.5 216.8 232.1C220.3 225.1 221 225 262.6 225C295.7 225 299.9 225.2 300.4 226.6ZM248.4 299.9C247.5 301.4 245.2 304.5 243.4 306.6C240.1 310.4 240 310.4 238.5 308.6C234.5 303.4 238.5 297 245.7 297H250.1L248.4 299.9ZM255.7 365.1L268.9 374.7L250.3 388.1C240.1 395.5 231.1 401.9 230.3 402.3C228.3 403.5 225 402.1 225 400.2C225 398.9 236.6 363 239.5 355.2C240.1 353.6 239.5 353.2 255.7 365.1Z" fill="#137AB6"/>
<path d="M214.5 70.5C212.8 72.1 212 74 212 76.5C212 79 212.8 80.9 214.5 82.5L216.9 85H264.9H312.9L315.6 82.6C319.5 79.3 319.5 73.7 315.6 70.4L312.9 68H264.9H216.9L214.5 70.5Z" fill="#137AB6"/>
<path d="M270.494 103.2C265.394 106.2 264.394 112.5 268.494 116.5L270.894 119H292.194C308.094 118.9 313.894 118.6 315.194 117.6C319.194 114.6 319.494 107.7 315.794 104.3C313.994 102.7 311.494 102.5 293.094 102.2C278.694 102.1 271.894 102.4 270.494 103.2Z" fill="#137AB6"/>
<path d="M91.1993 404.2C84.1993 410.9 77.6993 417.3 76.7993 418.4C72.2993 423.8 76.4993 432 83.5993 432C86.8993 432 88.2993 431 97.3993 422.1L107.499 412.1L117.699 422.1C126.799 431 128.199 432 131.499 432C134.799 432 136.199 431.1 142.899 424.7C147.099 420.8 151.699 416.4 153.199 415.1L155.899 412.8L166.399 422.4C175.299 430.5 177.399 432 180.299 432C184.899 432 188.199 428.4 188.199 423.4C188.199 419.8 187.299 418.7 174.199 405.8C160.599 392.5 159.999 392 155.899 392C151.999 392 151.199 392.5 141.899 401.6L132.099 411.3L124.299 404.2C119.999 400.4 115.399 396 114.099 394.6C112.299 392.7 110.699 392 107.699 392C104.099 392 102.899 392.8 91.1993 404.2Z" fill="#137AB6"/>
<path d="M160.099 283.5C144.299 288.4 139.399 310.6 151.699 322.2C156.799 327.1 160.699 328 175.499 328C186.899 328 189.699 327.7 192.799 326.1C197.099 323.9 201.099 319.8 203.399 315.4C209.499 303.1 202.799 287.4 189.699 283.5C183.399 281.6 166.199 281.6 160.099 283.5ZM186.499 301.5C189.499 304.4 189.599 306 187.099 309.1C185.299 311.3 184.499 311.5 175.099 311.5C163.999 311.5 161.799 310.5 161.799 305.4C161.799 300.5 164.999 299 175.199 299C183.299 299 184.299 299.2 186.499 301.5Z" fill="#137AB6"/>
</svg>
