<svg width="512" height="512" viewBox="0 0 512 512" fill="none" xmlns="http://www.w3.org/2000/svg">
<path d="M14.8 27.5C11.2 29.5 10 31.9 10 37.3C10 42.5 13.1 46.4 18.1 47.4C19.9 47.7 33.5 48 48.4 48H75.5L124 226.3C170 395.3 172.7 404.7 175.6 407.7L178.8 411H190.5C199.5 411 202.1 411.3 201.7 412.2C193.5 430.8 193 442.9 200 457.8C203.6 465.5 213.3 475.6 220.8 479.4C252.9 495.7 290 472.9 290 436.9C290 428.9 287.6 419.2 284.4 414.3C283.6 413.1 283 411.8 283 411.5C283 411.2 307.5 411 337.4 411H391.9L388.7 417.7C385.6 424.2 385.5 425 385.5 437C385.5 449.4 385.5 449.6 389.3 457.4C398.4 476.5 419 487.6 439.3 484.2C468.9 479.2 487 448.7 476.8 421.1C475.6 418 474 414.5 473.2 413.3L471.8 411H484C496.1 411 496.2 411 499.1 408.1C501.4 405.7 502 404.3 502 400.8C501.9 396.2 500.8 394 497.3 392.2C495.7 391.3 456.8 391 343.1 391C199.2 391 191.1 390.9 190.6 389.2C190.3 388.3 188 379.8 185.5 370.5C183 361.1 180.7 352.7 180.4 351.7C179.9 350.1 186.2 350 303.7 350C422.6 350 427.7 349.9 431 348.1C434.4 346.3 435.3 344.4 468.4 261.5C487 214.9 502.5 175.1 502.7 173C503.1 169.9 502.7 168.7 500.2 165.9L497.2 162.5L472.1 162.2L447.1 161.9L446.5 157.2C443.2 133.6 435.9 113.7 423.7 95.2001C401.8 62.1 369.9 40.9 330.5 33.4C318.1 31 292.7 31 280.5 33.4C260.9 37.2 242.9 44.6 226 55.8C215.6 62.6 197.4 80.6 190.2 91.2C177.3 110.2 167.5 136.8 165.8 158L165.5 161.5L146.9 161.8L128.4 162L110.6 96.8001C95.9 42.3 92.5 31.1 90.4 29L88 26.5L52.7 26.3C23 26.1 17.1 26.3 14.8 27.5ZM326.3 61.2C335.8 68.7 349.3 92.1001 352.5 106.7L353.2 110H335.1H317V82.4V54.8L319.8 56.5C321.3 57.5 324.2 59.6 326.3 61.2ZM295 83V110H277H259L259.6 107.2C262.1 97.0001 271.4 78.1 278 70C283.5 63.2 291.8 56 294.3 56C294.7 56 295 68.1 295 83ZM251.9 68.2C245.9 78.5 240.4 92.0001 237 104.7L235.9 109H219.8H203.8L205.5 106.2C211.3 97.2001 223 84.7 233.1 76.6C237.1 73.4 253.7 63 254.7 63C254.9 63 253.6 65.4 251.9 68.2ZM367.7 70C377.5 76 384 81.2 391.8 89.5C397.9 95.8001 407 107.8 407 109.4C407 109.8 399.9 110 391.2 110H375.4L373.1 102.7C369.5 91.5 364.4 79 360.1 71.2C356.5 64.6 356.4 64.2 358.6 65C359.8 65.5 363.9 67.8 367.7 70ZM230.9 138.7C230.4 142.5 229.8 149 229.5 153.2L228.8 161H207.9C193.5 161 187 160.7 187 159.9C187 157.3 191.2 138.4 192.5 135.3L193.9 132H212.8H231.6L230.9 138.7ZM294 146.5V161H271.9H249.9L250.4 156.7C250.7 154.4 251.4 147.9 252.1 142.2L253.2 132H273.6H294V146.5ZM358.4 134.7C359.5 139.6 360.9 152.3 361 156.7V161H338.5H316V146.5V132H336.9H357.8L358.4 134.7ZM419.4 136.7C421.3 142.6 424 155.3 424 158.6V161H403.1H382.3L381.6 149.7C381.3 143.6 380.7 137 380.4 135.2L379.8 132H398.8H417.8L419.4 136.7ZM166.2 190C168.7 212.8 178.5 237.6 192.5 256.2C200.7 267.1 216.5 282.2 227.2 289.3C252.4 306.1 284.5 315.2 312.3 313.6C348.6 311.5 379.2 297.8 404.5 272.5C428.1 249 441 222.3 445.5 187.7L446.1 183H460.6C468.9 183 475 183.4 474.8 183.9C474.7 184.4 461.7 217 446 256.4L417.5 328H295.5H173.5L154.1 256.7C143.4 217.6 134.5 184.9 134.2 184.2C133.9 183.2 137.1 183 149.6 183.2L165.5 183.5L166.2 190ZM229 187.8C229 192.8 230.7 208.3 231.6 211.2C232.1 212.9 230.8 213 213.1 213H194.1L192.6 207.7C190.6 200.7 187 185.8 187 184.2C187 183.3 191.9 183 208 183H229V187.8ZM295 198V213H274.1H253.2L252.2 204.7C251.6 200.2 250.8 193.5 250.5 189.7L249.9 183H272.5H295V198ZM361.6 190.2C361.3 194.2 360.5 201 359.9 205.2L358.8 213H338.4H318V198V183H340.1H362.3L361.6 190.2ZM424 185.7C423.9 189.6 420.5 205 418.6 209.3L417.1 213H398.4H379.7L380.4 208.7C380.7 206.4 381.3 199.7 381.7 193.7L382.3 183H403.1H424V185.7ZM236.4 235.2C240.7 249.5 244.5 259.6 249.1 268.8L254.8 280.1L249.2 276.9C232.4 267.6 215 251.5 205.5 236.7L203.8 234H219.9C232 234 236.2 234.3 236.4 235.2ZM295 261C295 276.3 294.6 288 294.1 288C292.1 288 282.7 280 278.3 274.4C271.4 265.8 262.1 247.1 259.6 236.7L259 234H277H295V261ZM353 235.5C353 238 346.2 255 342.4 261.9C335.9 273.7 328.1 282.6 320.1 287.3L317 289.1V261.6V234H335C350.5 234 353 234.2 353 235.5ZM407 234.8C407 236.5 393.6 253.2 387.9 258.4C380.4 265.4 369.5 273.2 361.6 277.2L355.8 280.2L357.8 277.3C362.7 270.3 370.4 252.5 373.5 240.7L375.3 234H391.1C399.9 234 407 234.3 407 234.8ZM249.1 413.6C260.3 416.9 269.1 430.2 267.5 441.4C266.1 450.7 258.2 460.1 249.3 463.1C244.7 464.6 235.5 463.8 230.9 461.6C226 459.3 220.5 453.7 218 448.5C211.8 435.7 220 417.9 234 413.5C240 411.7 242.6 411.7 249.1 413.6ZM442.1 415.6C457.6 424.1 460.6 444.3 448.2 456.8C437.8 467.1 420.4 466.3 410.7 455C403.9 447 402.3 437.2 406.4 428.5C413.2 413.8 428.5 408.3 442.1 415.6Z" fill="#137AB6"/>
</svg>
