<svg width="512" height="512" viewBox="0 0 512 512" fill="none" xmlns="http://www.w3.org/2000/svg">
<path d="M154.5 89.9991C138.1 92.1991 122.9 103.199 115.5 118.399C112.4 124.799 110 135.599 110 143.799C110 148.699 109.5 150.699 107.8 153.099C105.8 155.699 105.5 157.699 105.2 166.699C104.7 180.599 105.3 182.999 110.4 188.699C114.7 193.399 114.7 193.599 115.2 201.999C115.8 212.799 118.6 219.599 124.8 224.999C127.3 227.199 129.9 228.999 130.6 228.999C132.9 228.999 132.5 250.499 130.1 254.999C127.5 259.999 124.2 261.899 103.8 269.999C76.4 280.899 74.1 282.299 69.7 290.499C67.5 294.499 67.5 294.899 67.5 355.899C67.5 413.299 67.6 417.399 69.3 418.399C70.5 419.199 71.5 419.199 72.8 418.399C74.4 417.399 74.5 412.999 75 356.399C75.4 310.899 75.8 294.999 76.7 293.399C79.3 288.799 84.6 285.999 106.2 277.399C125.4 269.699 129.1 267.899 132.7 264.299C137.9 259.099 140 252.599 140 241.399V233.199L147.2 236.199C157.9 240.699 167.8 240.999 178.5 237.199C182.9 235.599 187.3 233.999 188.3 233.599C189.9 232.899 190 233.599 190 242.599C190 254.299 192.4 260.899 198.4 265.599C200.4 267.199 212.4 272.799 225.2 277.999C245.8 286.499 248.7 287.899 251.4 291.299L254.5 295.199L255 356.799C255.3 390.799 255.7 418.599 255.8 418.699C256.8 419.899 261.1 418.599 262 416.999C262.8 415.599 263 396.599 262.8 355.199L262.5 295.399L260 290.599C258.6 287.899 255.8 284.399 253.8 282.699C251.6 280.999 240.9 275.999 228.3 270.899C215.4 265.799 205.1 260.999 203.2 259.299C198.7 255.499 197.1 250.299 197 239.299V229.999L200.9 228.099C206 225.499 211.5 218.899 213.4 213.199C214.3 210.699 215 205.299 215 200.999C215 193.499 215 193.399 218.9 189.599C224.7 183.999 225.2 181.899 224.8 167.699C224.6 157.499 224.2 154.799 222.8 153.299C221.5 151.899 221 149.699 221 145.899C220.9 126.099 213.5 109.699 200 99.8991C187.3 90.6991 173.1 87.5991 154.5 89.9991ZM187.1 101.199C202.3 108.399 211.7 122.099 212.8 138.499C213.3 147.999 212.9 148.499 206.9 145.499C202.2 142.999 200 138.499 200 131.199C200 125.499 199.7 124.499 197.1 121.899L194.2 118.999H166.1C150 118.999 137 119.399 135.5 119.999C132.1 121.299 130 126.499 130 133.499C130 138.399 129.6 139.399 126.8 142.499C125 144.399 122.3 146.199 120.8 146.599L118 147.199V140.599C118 124.299 127.6 109.199 142.7 101.599C150.5 97.6991 154.3 97.0991 167.5 97.2991C179 97.5991 179.9 97.6991 187.1 101.199ZM192.3 133.499C193.4 144.999 198.7 151.699 208.5 153.999C211.4 154.699 214.5 156.199 215.8 157.699C217.8 159.799 218 161.199 218 169.599V179.099L213.1 184.299L208.2 189.499L207.8 198.999C207.3 209.599 205.3 214.899 200.2 219.199C198.6 220.499 191.3 223.999 183.9 226.999C165.6 234.299 162.3 234.299 145 226.999C130.2 220.599 126 217.099 123.6 208.999C122.7 206.099 122 200.499 122 196.699C122 189.799 121.9 189.599 117.6 184.999C112.5 179.599 111.6 176.299 112.2 166.099C112.6 157.799 114.3 155.499 120.3 154.499C131.3 152.599 138 144.299 138 132.499V126.999H164.9H191.7L192.3 133.499Z" fill="#137AB6"/>
<path d="M271.394 95.9998C268.894 97.2998 266.494 99.4998 265.194 101.9L262.994 105.8V197C262.994 297.9 262.694 292.5 269.394 297.3C272.194 299.3 273.894 299.5 286.094 299.8C300.694 300.2 302.894 299.5 301.494 295C300.894 293.1 300.094 293 289.494 293C282.794 293 276.994 292.5 275.494 291.8C269.794 289.2 269.994 292.7 269.994 197C269.994 98.7998 269.594 104.1 276.794 102C279.294 101.2 303.794 101 356.194 101.2L431.794 101.5L434.394 103.9L436.994 106.3V196.7C436.994 253.4 436.594 287.8 435.994 288.9C435.494 289.9 434.294 291.2 433.294 291.6C432.294 292.1 421.794 292.7 409.994 293L388.494 293.5V296.5V299.5L410.794 299.8C432.294 300 433.294 299.9 437.094 297.8C439.594 296.4 441.694 294.1 442.994 291.5C444.994 287.4 444.994 285.8 444.794 195.7C444.494 105 444.494 104.1 442.394 101.4C441.294 99.8998 439.094 97.6998 437.594 96.5998C434.894 94.4998 433.894 94.4998 355.194 94.1998C276.894 93.9998 275.394 93.9998 271.394 95.9998Z" fill="#137AB6"/>
<path d="M325.201 126.701L317.101 144.401L313.101 135.501C307.701 123.601 307.601 123.501 305.001 123.501C300.101 123.501 300.401 125.901 307.301 141.601C314.001 156.801 315.701 159.301 318.601 157.501C319.401 156.901 324.601 146.601 330.001 134.601C340.401 111.501 340.901 109.001 335.601 109.001C333.501 109.001 332.301 111.101 325.201 126.701Z" fill="#137AB6"/>
<path d="M292.2 129.2C291.3 130.1 291 135.8 291 150.3V170.2L293.9 173.1L296.8 176H317C340.1 176 342.2 175.5 343.9 169.2C345.3 164.3 345.3 132.5 344 129.9C342.8 127.8 340 127.4 338.2 129.2C337.4 130 337 135.9 337 149.1C337 165.2 336.8 167.9 335.4 168.4C334.5 168.7 326.3 169 317 169C304.3 169 300 168.7 299.1 167.7C298.5 166.8 297.9 159.3 297.8 147.4C297.5 129.3 297.4 128.5 295.5 128.2C294.4 128.1 292.9 128.5 292.2 129.2Z" fill="#137AB6"/>
<path d="M349.304 147.6C349.004 148.5 349.104 150 349.704 150.9C350.604 152.3 354.404 152.5 380.604 152.8C397.004 152.9 411.504 152.8 412.804 152.5C414.604 152 415.104 151.4 414.804 149.2L414.504 146.5L382.204 146.2C353.004 146 349.904 146.1 349.304 147.6Z" fill="#137AB6"/>
<path d="M333.798 184.2C332.898 184.9 328.898 192.8 324.898 201.7C320.898 210.7 317.298 218 316.998 218C316.598 218 314.398 213.5 311.998 208C308.098 198.7 307.598 198 304.998 198C300.098 198 300.398 200.7 307.598 216.9C313.898 231 314.498 232 316.998 232C319.598 232 320.298 230.8 329.498 210.2C334.898 198.3 339.298 187.6 339.198 186.6C339.098 184.9 337.398 183.1 335.898 183C335.598 183 334.698 183.6 333.798 184.2Z" fill="#137AB6"/>
<path d="M291.706 203.599C290.606 204.699 290.906 242.499 292.006 245.499C293.806 250.399 298.106 251.199 319.606 250.799L339.006 250.499L341.706 247.699L344.506 244.999L344.806 226.099C345.206 205.099 344.706 202.699 340.206 203.199L337.506 203.499L337.006 222.999L336.506 242.499L317.806 242.799C307.406 242.899 298.906 242.899 298.806 242.799C298.706 242.599 298.406 233.699 298.106 222.999L297.506 203.499L295.006 203.199C293.606 202.999 292.106 203.199 291.706 203.599Z" fill="#137AB6"/>
<path d="M350.204 221.2C348.404 223 348.804 225.8 350.904 227C352.104 227.6 363.804 228 382.004 228C400.204 228 411.904 227.6 413.104 227C415.404 225.7 415.604 221.5 413.404 220.6C412.504 220.3 398.204 220 381.604 220C359.404 220 351.104 220.3 350.204 221.2Z" fill="#137AB6"/>
<path d="M314.694 266C309.694 270 309.594 273.5 314.394 289.6C318.394 302.9 318.594 304 316.794 304C311.594 304 303.294 310.7 300.594 317.1C299.694 319.2 297.094 338 294.394 361.3C290.294 397.1 289.894 402.4 290.994 406.3C292.494 412 296.994 417.4 302.294 420.3C306.394 422.5 307.094 422.5 345.494 422.5C366.994 422.5 386.094 422.2 388.094 421.7C392.794 420.7 399.794 414.6 402.094 409.6C403.094 407.3 403.994 403.4 403.994 400.8C403.994 393.5 395.094 320.9 393.794 317.6C391.294 311.5 382.394 304 377.494 304C376.694 304 375.994 303.7 375.994 303.4C375.994 303.1 377.794 296.9 379.994 289.6C384.294 275.4 384.594 273.1 382.894 269.7C379.994 264 379.994 264 347.394 264C318.494 264 317.194 264.1 314.694 266ZM375.794 272.6C376.394 273.7 375.794 277.3 373.794 283.9C372.194 289.2 370.194 295.9 369.394 298.8L367.794 304L347.194 303.8L326.594 303.5L322.094 288.8C318.494 276.6 317.894 273.8 318.994 272.5C320.094 271.2 324.194 271 347.594 271C371.794 271 374.994 271.2 375.794 272.6ZM377.694 312.1C381.594 313.5 385.794 317.8 386.894 321.4C387.494 323.1 389.994 342 392.494 363.3L397.094 402.1L395.094 406.3C393.694 409.1 391.594 411.4 389.094 412.8C385.294 415 384.494 415 346.894 415C310.294 415 308.294 414.9 305.194 413C300.594 410.2 297.994 405.4 297.994 399.8C297.994 395.2 305.494 328.1 306.594 322.7C307.394 319.1 311.594 314.1 315.494 312.4C319.294 310.7 373.294 310.4 377.694 312.1Z" fill="#137AB6"/>
<path d="M342.7 325.6C342.3 326 342 327.8 342 329.7C342 332.8 341.8 333 338.6 333C336.1 333 334.6 333.7 333.1 335.6C331.3 337.9 331 339.7 331 349C331 363.7 331.6 364.5 344.2 365.5C349.4 365.9 353.8 366.7 354.2 367.3C355.2 368.9 355.2 379.2 354.1 380.8C353.6 381.7 351.2 382 346 381.8C339 381.5 338.5 381.4 338 379C337.5 377 336.8 376.5 334.5 376.5C331.8 376.5 331.5 376.8 331.2 380.3C330.9 383.3 331.4 384.6 333.9 387C335.6 388.7 337.9 390 339.4 390C341.5 390 341.9 390.5 342.2 393.7C342.5 397.2 342.8 397.5 345.5 397.5C348.2 397.5 348.5 397.2 348.8 393.7C349.1 390.6 349.5 390 351.5 390C359.6 390 362.3 385.4 361.8 372.4C361.4 359.7 360.4 358.7 347.7 358L338.5 357.5V349V340.5L346.2 340.2C354.6 339.9 354.2 339.6 355.2 346.5C355.4 348 356.3 348.5 358.5 348.5C361.2 348.5 361.5 348.1 361.8 345.1C362.6 337.5 359.3 333 353.1 333C349.2 333 349.1 332.9 348.8 329.2C348.5 326.1 348.1 325.5 346 325.2C344.6 325 343.1 325.2 342.7 325.6Z" fill="#137AB6"/>
<path d="M129.7 271.7C129.3 272 129 273.3 129 274.5C129 276.2 131.3 278.3 138.5 283.1C143.7 286.6 147.9 290.1 148 290.8C148 291.5 145.3 308.3 142 328.1C136.6 360.6 136.1 364.5 137.3 367C139.5 371.4 158.7 395.7 160.5 396.4C161.4 396.7 163.7 397 165.7 397C169.9 397 171.1 395.9 183.8 379.1C191.6 368.8 193 366.3 193 363.2C193 361.2 190.4 343.9 187.2 324.8L181.3 290.1L190 284.1C200.2 277.1 201.4 275.8 200.5 273C199.4 269.4 196 270.8 182.1 280.1C164.6 292 164.6 292 146.9 279.7C135.5 271.7 131.5 269.9 129.7 271.7ZM175.9 376.6C170.3 384 165.4 390 164.9 390C164.5 390 159.6 384.1 154 376.8L143.7 363.6L148.5 335.1C151.1 319.3 153.7 303.9 154.2 300.7L155.2 294.9L158.4 295.6C162.7 296.6 170.6 296.3 172.7 295.1C174.4 294.2 174.9 296.8 180.3 328.7L186.1 363.3L175.9 376.6Z" fill="#137AB6"/>
<path d="M195.502 315C194.102 319.4 196.102 320 213.602 320C228.002 320 230.002 319.8 230.902 318.3C231.502 317.2 231.502 315.9 230.902 314.8C230.002 313.2 228.202 313 213.002 313C196.902 313 196.102 313.1 195.502 315Z" fill="#137AB6"/>
<path d="M103.2 333.3C102.3 334.4 102 345.7 102.2 376.6L102.5 418.5H105.5H108.5V375.5C108.5 332.7 108.5 332.5 106.4 332.2C105.3 332 103.8 332.5 103.2 333.3Z" fill="#137AB6"/>
<path d="M221.004 334C220.304 335.2 220.104 349.7 220.204 376.6C220.504 414.1 220.604 417.4 222.304 418.4C223.504 419.2 224.504 419.2 225.804 418.4C227.404 417.4 227.504 414.1 227.804 376C227.904 346.4 227.704 334.3 226.904 333.4C225.204 331.4 222.204 331.7 221.004 334Z" fill="#137AB6"/>
</svg>
