<svg width="512" height="512" viewBox="0 0 512 512" fill="none" xmlns="http://www.w3.org/2000/svg">
<g clip-path="url(#clip0_363_3447)">
<path d="M119.1 2.1C112.1 6.4 110 11.8 110 26V33.9L79.8 34.2L49.5 34.5L43.2 37.9C36.2 41.7 31.2 47.1 27.8 54.6L25.5 59.5V230.5V401.5L28.3 407.1C31.5 413.8 39.2 421.3 45.8 424.3C50.4 426.5 51.3 426.5 110.3 426.8L170 427.1V439.5V452H150.3C131.7 452 130.2 452.2 125.5 454.4C120 456.9 114.5 462.5 112.3 467.9C111.5 469.8 110.6 475.5 110.3 480.5C109.3 497.4 111.4 504.7 118.9 509.7L122.3 512H255.8H389.2L393 509.9C395.1 508.7 397.8 505.9 399.1 503.6C401.3 499.8 401.5 498.4 401.5 485.5C401.4 469.9 400.7 467.1 394.9 460.5C393 458.4 389.3 455.6 386.5 454.4C381.8 452.2 380.3 452 361.8 452H342V439.5V427.1L401.8 426.8L461.5 426.5L466.7 424.1C473 421.3 481.1 413 484.3 406.3L486.5 401.5V230.5V59.5L483.9 53.9C480.6 47 474.8 41 467.8 37.3L462.5 34.5L421 34.2L379.5 33.9L364 18.5C354.6 9.2 347 2.5 344.8 1.5C341.5 0.2 328 0 231.8 0C123 0 122.5 0 119.1 2.1ZM332 35.2C332 54.7 332.8 59 337.4 63.6C342 68.2 346.3 69 366.3 69H384V188V307H256H128V162.5V18H230H332V35.2ZM360.5 41L370.5 51H360.2H350V41C350 35.5 350.1 31 350.3 31C350.4 31 355 35.5 360.5 41ZM110 60V68H91C76.5 68 71.2 68.3 69.2 69.4C65.1 71.5 61.1 76.2 60 80.1C58.5 85.1 58.7 307.3 60.1 312.5C61.5 317.5 66.5 322.5 71.5 323.9C77.1 325.4 434.9 325.4 440.5 323.9C445.5 322.5 450.5 317.5 451.9 312.5C453.5 306.8 453.4 84.6 451.9 79.9C451.2 78 449.6 75.2 448.1 73.6C443.5 68.6 440.8 68 420.6 68C402.4 68 402.2 68 401.6 65.7C401.3 64.5 401 62.7 401 61.7C401 60.7 400.1 58.1 399.1 56L397.2 52H426.8C455.7 52 456.6 52.1 460.4 54.3C462.9 55.7 465.2 58.2 466.7 60.9L469 65.3V203.2V341H256H43V203.2V65.3L45.3 60.9C46.8 58.2 49.1 55.7 51.6 54.3C55.4 52.1 56.4 52 82.8 52H110V60ZM110 196.5V307H93.5H77V196.5V86H93.5H110V196.5ZM435 196.5V307H418.5H402V196.5V86H418.5H435V196.5ZM469 377C469 390.1 468.6 395.9 467.6 398.3C466 402.2 461.5 406.5 457.7 407.9C455.7 408.7 394.1 409 255.9 409C39.3 409 53.4 409.4 47.8 403.4C43.5 398.8 43 396 43 376.9V359H256H469V377ZM324 439.5V452H256H188V439.5V427H256H324V439.5ZM380.6 472.4C383.2 474.6 383.4 475.3 383.8 484.4L384.2 494H256H127.8L128.2 484.4C128.6 475.3 128.8 474.6 131.4 472.4L134.1 470H256H377.9L380.6 472.4Z" fill="#137AB6"/>
<path d="M166.505 60.2C161.305 63.2 160.305 70.4 164.505 74.5L166.905 77H230.505H294.105L296.505 74.5C300.105 71 299.905 65.7 296.105 61.9L293.205 59H230.805C185.805 59.1 167.905 59.4 166.505 60.2Z" fill="#137AB6"/>
<path d="M164.502 104.5C161.402 107.5 161.102 113.7 163.902 117.1L165.802 119.5L228.202 119.8C262.402 119.9 291.502 119.8 292.702 119.5C299.002 118 301.202 109.1 296.502 104.5L294.102 102H230.502H166.902L164.502 104.5Z" fill="#137AB6"/>
<path d="M318.294 104.399C314.294 107.799 314.394 114.199 318.394 117.699C321.194 120.099 321.694 120.099 333.694 119.799C345.394 119.499 346.294 119.399 348.094 117.099C350.894 113.699 350.594 107.499 347.494 104.499C345.194 102.099 344.494 101.999 333.094 101.999C321.894 101.999 320.894 102.199 318.294 104.399Z" fill="#137AB6"/>
<path d="M238.4 147C214.5 153.2 196 171.8 189.4 196C186.7 205.8 187 222.4 189.9 232C196.8 254.5 212.6 271 234.5 278.6C241.6 281.1 244 281.4 255.5 281.5C267.2 281.5 269.4 281.2 277.4 278.6C299 271.5 315.2 254.6 322.1 232C325 222.4 325.3 205.8 322.6 196C316 171.6 297.4 153.1 273.2 146.9C263.3 144.4 248.2 144.4 238.4 147ZM269.1 164.6C294.1 172 309.7 195.7 306 220.4C303 240.9 286.2 258.7 266.2 262.9C238 268.8 210.1 248.8 205.9 219.8C201.7 190.5 225.6 163.1 255.6 163C260.2 163 266 163.7 269.1 164.6Z" fill="#137AB6"/>
<path d="M249.497 181.5C247.197 183.7 246.997 184.6 246.997 194V204H237.997C227.197 204 223.697 205.4 222.097 210.3C220.797 214.1 221.397 216.5 224.297 219.7C226.197 221.8 227.197 222 236.697 222H246.997V232.1C246.997 241.9 247.097 242.2 249.897 245.1C251.897 247.1 253.797 248 255.997 248C258.197 248 260.097 247.1 262.097 245.1C264.897 242.2 264.997 241.9 264.997 232.1V222H275.297C284.797 222 285.797 221.8 287.697 219.7C290.597 216.5 291.197 214.1 289.897 210.3C288.297 205.4 284.797 204 273.997 204H264.997V194C264.997 184.6 264.797 183.7 262.497 181.5C259.097 178 252.897 178 249.497 181.5Z" fill="#137AB6"/>
<path d="M242.7 376.1C241.6 376.7 240.2 378.7 239.4 380.6C238.2 383.5 238.2 384.5 239.4 387.4C240.2 389.3 241.7 391.3 242.8 391.9C244 392.5 249.9 393 256 393C262.1 393 268 392.5 269.2 391.9C270.3 391.3 271.8 389.3 272.6 387.4C273.8 384.5 273.8 383.5 272.6 380.6C271.8 378.7 270.3 376.7 269.2 376.1C266.5 374.7 245.1 374.7 242.7 376.1Z" fill="#137AB6"/>
</g>
<defs>
<clipPath id="clip0_363_3447">
<rect width="512" height="512" fill="white"/>
</clipPath>
</defs>
</svg>
