<svg width="512" height="512" viewBox="0 0 512 512" fill="none" xmlns="http://www.w3.org/2000/svg">
<path d="M27.9 43.9L25 46.8V219V391.2L27.9 394.1L30.8 397H46.9H62.9L63.2 413.1L63.5 429.2L66.3 431.6C69 433.9 69.6 434 85.6 434H102V450C102 465.7 102.1 466.1 104.5 468.5L106.9 471H244.5H382.2L385.1 468.1L388 465.2V447.1V429H426.8C465.3 429 465.5 429 470.5 426.6C476.8 423.7 481.7 418.9 484.4 413C486.2 409.2 486.5 406.7 486.4 396C486.4 385.4 486 382.6 484 377.5C477.4 360.3 463.3 349.3 444.9 346.8L436.3 345.7L437.2 341.6C438.4 336.3 438 333.8 431.5 307L426 284.5L430.1 276.4C441.5 253.8 433.3 228.2 411.1 217.2C403.8 213.6 403.4 213.5 392.1 213.5C381.1 213.5 380.1 213.7 373.7 216.7C364.8 220.9 356.9 228.9 352.7 237.7C349.7 244.1 349.5 245.2 349.5 256C349.5 266.9 349.7 267.8 352.7 274C354.5 277.6 356.5 281.2 357.2 282.2C358.1 283.5 357.3 288.3 352.6 307.6C347.3 329.7 345.9 339 347.4 343.8C348 345.4 347 345.8 339.4 346.8C312.2 350.4 295.1 372.8 297.3 401.5C297.6 405.3 298.6 410.2 299.4 412.3C301.8 417.8 307.8 424 313.5 426.6C318.3 428.9 319.4 429 344.3 429H370V441.5V454H244.5H119V293V132H244.5H369.9L370.2 159.1L370.5 186.2L373.3 188.6C377.2 191.9 381.4 191.7 385.1 188.1L388 185.2V153V120.8L385.1 117.9L382.2 115H366.2H350.2L349.8 98.9L349.5 82.8L346.7 80.4C344 78.1 343.4 78 327.4 78H311V62C311 46.3 310.9 45.9 308.5 43.5L306.1 41H168.5H30.8L27.9 43.9ZM294 68V78H181.6H69.1L66.3 80.4L63.5 82.8L63.2 231.4L63 380H53H43V219V58H168.5H294V68ZM332 105V115H219.5H106.9L104.5 117.5L102 119.9V268.5V417H91.5H81V256V95H206.5H332V105ZM400.1 231.5C406 233.5 411.3 238 414.8 243.8C417.1 247.8 417.5 249.6 417.5 256.1C417.5 262.8 417.1 264.2 414.5 268.5C402 288.8 373.1 284.5 366.9 261.5C365.4 256.1 366.4 249.8 369.7 243.8C375.9 232.4 388.2 227.5 400.1 231.5ZM420 336.8C420 339.2 419.2 341 417.1 343.1L414.2 346H392C370 346 369.9 346 367.5 343.6C366.2 342.3 364.8 340 364.4 338.6C364.1 337.1 365.6 328.5 368.5 316.3C371.1 305.4 373.4 296.4 373.5 296.2C373.7 296 376.2 296.6 379.1 297.4C386.1 299.5 399.1 299.4 405.5 297.2L410.5 295.5L415.2 314.5C417.8 324.9 419.9 335 420 336.8ZM449.3 365.6C455 367.5 463.3 374.8 466.2 380.4C467.9 383.6 468.5 386.8 468.8 394.7L469.2 405L465.7 408.5L462.2 412L391.5 411.8L320.8 411.5L317.9 408.2C315.2 405.2 315 404.4 315 396.7C315 385.4 317.1 379.9 324 372.9C333 363.8 330.4 364.2 391.6 364.1C437.6 364 445.3 364.2 449.3 365.6Z" fill="#137AB6"/>
<path d="M144.506 154.5C140.806 158.1 141.506 164.3 145.906 167.7C147.106 168.7 170.106 168.9 245.606 169C343.406 169 343.706 169 346.406 166.9C349.906 164.1 350.106 157.4 346.706 154.2L344.406 152H245.606H146.906L144.506 154.5Z" fill="#137AB6"/>
<path d="M146.401 185.2C141.701 187.4 140.701 194.7 144.501 198.5L146.901 201H245.801H344.701L346.801 198.7C350.101 195.2 349.801 188.8 346.401 186.1C343.701 184 343.401 184 246.101 184.1C181.101 184.1 147.801 184.5 146.401 185.2Z" fill="#137AB6"/>
<path d="M208.8 214.999C181 221.999 159.4 242.099 149.8 269.999C146.7 279.099 146.6 280.099 146.5 294.999C146.5 313.099 147.7 318.699 154.6 332.499C162.9 349.199 175.1 361.499 191.5 369.599C204.8 376.099 213.9 378.199 229 378.199C243 378.199 252.7 376.199 263.7 370.999C300.9 353.599 319.9 311.799 308.5 272.499C304.1 257.299 297.1 246.099 285.2 234.799C276.3 226.499 267.1 220.999 255 216.899C246.3 213.899 244.3 213.599 231 213.299C219.2 213.099 215 213.399 208.8 214.999ZM242.4 231.499C246.2 232.299 253.1 234.799 257.8 237.099C274.1 244.999 288.4 262.699 292.5 280.099C294.4 288.299 294.4 302.699 292.4 310.999C290 321.199 284.6 331.199 276.8 339.499C268.9 347.999 260.6 353.499 250 357.599C243.1 360.199 241.4 360.399 229 360.399C216.8 360.499 214.8 360.199 208.2 357.799C197.7 353.999 190.7 349.499 182.4 341.299C166.5 325.499 159.8 302.099 165.1 280.199C168.3 267.199 177.9 252.199 188.3 244.399C204.6 232.099 223.7 227.499 242.4 231.499Z" fill="#137AB6"/>
<path d="M191.804 259C189.204 261.7 188.804 262.6 189.304 265.8C189.804 268.8 192.204 271.7 203.004 282.5L216.004 295.5L203.504 308C196.704 314.8 190.604 321.6 189.904 323.2C187.504 329 191.504 335 197.804 335C201.304 335 202.504 334.1 215.004 321.5L228.404 308L242.104 321.5C255.004 334.3 255.904 335 259.704 335C265.004 335 268.004 331.9 268.004 326.4C268.004 322.7 267.204 321.8 254.504 309L241.004 295.5L254.504 282C267.504 269 268.004 268.4 268.004 264.3C268.004 261 267.504 259.7 265.404 258.1C259.504 253.5 256.104 255.3 240.504 270.9L228.604 283L214.904 269.5C203.104 257.7 200.904 256 198.104 256C195.804 256 193.904 256.9 191.804 259Z" fill="#137AB6"/>
<path d="M144.5 402.5C142.8 404.1 142 406 142 408.5C142 411 142.8 412.9 144.5 414.5L146.9 417H207.5H268.1L270.5 414.5C273.9 411.2 273.9 405.8 270.5 402.5L268.1 400H207.5H146.9L144.5 402.5Z" fill="#137AB6"/>
</svg>
