<svg width="512" height="512" viewBox="0 0 512 512" fill="none" xmlns="http://www.w3.org/2000/svg">
<path d="M203.001 7.70005C201.101 7.90005 194.501 9.00005 188.401 10C123.001 21.5001 65.4007 63.9001 35.2007 122.8C-14.8993 220.3 15.8007 340.1 106.501 400.7C159.401 436.1 225.501 446.2 287.301 428.4C293.801 426.5 299.301 425 299.601 425C299.801 425 300.001 440.4 300.001 459.2C300.001 497.5 300.101 498.2 306.901 502.7L310.301 505H400.401H490.501L494.201 502.5C501.501 497.6 501.101 504.7 500.801 379.5L500.501 267.5L498.201 264.2C493.601 257.8 492.201 257.5 464.201 257.2L438.801 256.9L439.401 253.7C439.701 251.9 440.501 244.9 441.101 238C444.801 195.4 433.201 146.7 410.501 110C388.501 74.6001 359.501 47.9001 323.501 29.8001C291.201 13.6001 262.201 6.90005 225.501 7.20005C215.101 7.30005 204.901 7.50005 203.001 7.70005ZM183.401 32.2001C167.301 46.2001 151.201 64.5001 138.701 83.2001L131.601 93.8001L123.001 90.8001C111.401 86.8001 91.7007 77.3001 92.5007 76.1001C92.8007 75.5001 96.4007 72.3001 100.501 69.0001C123.101 50.5001 149.701 37.0001 178.501 29.5001C183.501 28.2001 187.901 27.1001 188.401 27.1001C189.001 27.0001 186.701 29.3001 183.401 32.2001ZM289.001 34.0001C313.701 42.1001 338.001 56.1001 357.501 73.3001L361.501 76.8001L350.001 82.3001C343.701 85.3001 334.601 89.2001 329.901 90.8001L321.301 93.8001L314.201 83.2001C302.001 64.8001 286.001 46.5001 270.001 32.7001L263.601 27.1001L270.501 28.6001C274.401 29.5001 282.701 31.9001 289.001 34.0001ZM217.701 107.6C217.101 108.2 189.801 106 179.501 104.5C174.001 103.7 164.901 102.1 159.301 100.9L149.101 98.8001L151.701 94.6001C163.001 76.6001 188.501 49.3001 207.001 35.5001L217.501 27.7001L217.801 67.5001C217.901 89.4001 217.901 107.5 217.701 107.6ZM246.601 36.2001C264.701 49.7001 284.601 70.5001 298.001 90.1001L303.901 98.8001L293.701 100.9C281.301 103.5 266.301 105.7 255.501 106.5C251.101 106.8 244.701 107.3 241.301 107.6L235.001 108.2V68.0001C235.001 36.2001 235.301 28.0001 236.301 28.6001C236.901 29.0001 241.601 32.4001 246.601 36.2001ZM92.2007 96.4001C99.5007 100 109.101 104.1 113.501 105.6C117.901 107.1 121.901 108.6 122.301 109C122.801 109.4 122.101 111.9 120.701 114.6C109.301 137.2 100.501 169.9 97.8007 199.4L96.6007 213H62.4007H28.3007L28.7007 207.7C31.8007 167.5 47.1007 129 72.5007 97.2001C75.7007 93.3001 78.4007 90.0001 78.6007 90.0001C78.8007 90.0001 85.0007 92.9001 92.2007 96.4001ZM379.801 96.5001C393.901 113.7 407.501 138.4 414.401 159.2C418.801 172.4 422.801 191.7 423.701 203.9L424.301 213H390.301H356.301L355.601 203.7C353.401 174.7 345.501 143.4 333.901 118.3C331.701 113.6 330.301 109.4 330.701 109C331.101 108.6 335.701 106.8 340.901 104.9C346.101 103 355.301 99.0001 361.401 95.9001C367.501 92.8001 373.001 90.2001 373.501 90.2001C374.101 90.1001 376.901 92.9001 379.801 96.5001ZM155.601 117.5C172.001 120.8 189.101 122.9 204.801 123.7L218.001 124.3V168.7V213H166.001H114.001V210.2C114.001 203.9 117.201 181.1 119.501 170.8C124.801 147.2 138.401 113.3 142.001 114.5C142.901 114.8 149.101 116.1 155.601 117.5ZM316.801 122.7C328.601 147.8 336.301 176.7 338.501 204.2L339.201 213H287.101H235.001V168.5V124H242.401C256.901 124 285.401 120.3 303.501 116.1C307.901 115 311.801 114.1 312.101 114.1C312.401 114 314.501 117.9 316.801 122.7ZM97.4007 239.7C99.4007 268.1 106.801 297.6 118.501 324.3C121.001 329.8 122.901 334.5 122.701 334.6C122.601 334.7 118.001 336.5 112.501 338.5C107.001 340.6 97.2007 344.9 90.7007 348.2C80.7007 353.2 78.6007 353.9 77.7007 352.7C53.2007 322.2 42.5007 301.8 34.5007 270.6C31.6007 259.1 30.6007 253.1 28.5007 234.2L28.0007 230H62.4007H96.7007L97.4007 239.7ZM218.001 274.4V318.8L209.301 319.4C184.701 321.2 163.601 324.1 147.801 327.9L140.101 329.7L135.901 320.6C128.501 304.6 122.801 287.6 119.001 270.5C117.001 261.3 114.001 238.5 114.001 232.8V230H166.001H218.001V274.4ZM339.001 231.3C339.001 236 336.501 256.1 334.901 264.5L333.001 274.5L317.601 290C309.101 298.5 301.701 306.5 301.101 307.7C300.501 308.9 300.001 313.7 300.001 318.3V326.7L290.801 324.9C281.401 323.1 259.701 320.6 243.801 319.4L235.001 318.8V274.4V230H287.001C329.501 230 339.001 230.2 339.001 231.3ZM424.001 234.7C424.001 237.3 423.501 243.3 422.901 248.2L421.701 257H387.701H353.701L354.301 252.2C354.701 249.6 355.201 243.6 355.601 238.7L356.301 230H390.101H424.001V234.7ZM484.001 381V488H400.501H317.001V404.1V320.1L336.101 319.8L355.201 319.5L358.601 315.8L362.001 312V293V274H423.001H484.001V381ZM345.001 295V303H336.801H328.501L336.501 295C340.901 290.6 344.601 287 344.701 287C344.901 287 345.001 290.6 345.001 295ZM218.001 376.1V416.1L211.901 411.9C190.601 396.9 169.101 374.8 153.901 352.4L149.001 345.2L155.801 343.6C172.101 340 195.801 336.9 213.801 336.2L218.001 336V376.1ZM251.101 337.1C266.201 338.3 280.801 340.2 292.301 342.6L300.001 344.3V347.8C300.001 351.5 297.601 355.3 286.501 369C274.001 384.6 257.701 399.9 240.801 412L235.001 416.1V376.1C235.001 343.9 235.301 336 236.301 336C237.001 336 243.701 336.5 251.101 337.1ZM136.001 356.7C146.801 374 165.101 395.5 179.401 407.9C184.101 412 187.801 415.6 187.501 415.8C186.901 416.5 177.501 414.1 164.501 409.9C142.601 402.9 117.301 388.8 99.3007 373.7C95.3007 370.4 92.4007 367.2 92.7007 366.7C93.8007 364.9 127.801 350.2 131.101 350C131.501 350 133.701 353 136.001 356.7ZM298.801 406.2C295.401 408.3 266.401 416.8 265.501 415.8C265.301 415.6 269.201 411.7 274.301 407.1C279.401 402.5 287.101 394.8 291.501 389.9L299.501 381L299.801 393.2C300.001 402.2 299.701 405.6 298.801 406.2Z" fill="#137AB6"/>
<path d="M435.901 327.9C434.301 329.5 433.001 331.9 433.001 333.2C433.001 334.6 435.901 340.2 439.501 345.8C443.101 351.5 446.001 356.3 446.001 356.5C446.001 356.7 420.801 357.1 389.901 357.2L333.801 357.5L331.401 360.3C328.501 363.7 328.301 367.9 331.101 371.4L333.101 374H400.101C465.701 374 467.001 374 469.001 372C470.301 370.7 471.001 368.7 471.001 366.2C471.001 363.1 469.001 359.5 460.001 345.5C453.901 336.1 448.001 327.7 446.901 326.7C443.701 324.1 439.301 324.5 435.901 327.9Z" fill="#137AB6"/>
<path d="M334.298 389C330.998 390.3 328.698 394.5 329.298 397.9C330.098 401.8 352.298 435.5 354.998 437C357.998 438.6 363.598 437.4 365.498 434.7C368.498 430.4 367.398 426.4 360.498 415.9C356.898 410.4 353.998 405.7 353.998 405.5C353.998 405.2 379.298 405 410.298 405H466.698L468.798 402.7C470.998 400.4 471.698 395.9 470.398 392.5C468.698 388.1 467.798 388 400.298 388.1C365.198 388.1 335.498 388.5 334.298 389Z" fill="#137AB6"/>
</svg>
