<svg width="512" height="512" viewBox="0 0 512 512" fill="none" xmlns="http://www.w3.org/2000/svg">
<path d="M242 1.40043C229.7 4.90043 217.5 14.6004 211.9 25.5004L208.5 32.0004H186.3C165.3 32.0004 163.9 32.1004 162 34.0004C160.2 35.8004 160 37.3004 160 53.0004V70.0004H131.8C101.8 70.0004 97.8 70.5004 88.4 75.1004C81.1 78.6004 71.8 87.9004 67.9 95.7004L64.5 102.5V291V479.5L67.9 486.4C72.4 495.6 79.9 502.9 89.7 507.7L97.5 511.5H256.1H414.6L422.4 507.7C432.2 502.8 439.6 495.5 444.1 486.4L447.5 479.5L447.8 293.1C448 88.4004 448.4 102.9 442.3 92.3004C439.1 86.8004 429.4 77.9004 423.6 75.0004C414.2 70.5004 410.1 70.0004 380.3 70.0004H352V53.0004C352 37.3004 351.8 35.8004 350 34.0004C348.1 32.1004 346.7 32.0004 325.6 32.0004H303.2L300.6 26.6004C295.1 15.4004 283.7 5.80043 271.2 2.00043C263.8 -0.29957 249.3 -0.59957 242 1.40043ZM270.9 16.5004C280.2 20.7004 290.9 33.3004 291 40.2004C291 41.1004 292.2 42.8004 293.6 43.9004C296.1 45.9004 297.5 46.0004 317.1 46.0004H338V76.0004V106H256H174V76.0004V46.0004H193.9C204.9 46.0004 215 45.6004 216.3 45.1004C218.1 44.4004 219.4 42.5004 221 38.4004C228.8 17.3004 251 7.60043 270.9 16.5004ZM160 99.0004C160 113.7 160.2 115.2 162 117C164 119 165.3 119 256 119C346.7 119 348 119 350 117C351.8 115.2 352 113.7 352 98.9004V82.8004L380.3 83.2004C411.2 83.7004 412.6 83.9004 421.6 90.0004C426.9 93.7004 432.5 101.7 434 108C434.7 111.2 435 165.7 434.8 293.5L434.5 474.5L431.7 480.2C428.4 486.9 422.7 492.3 415.1 495.9L409.5 498.5H256H102.5L96.9 495.9C89.3 492.3 83.6 486.9 80.3 480.2L77.5 474.5V291V107.5L79.9 102.5C84.5 93.2004 93.9 86.1004 104.1 84.1004C106.5 83.6004 120.1 83.2004 134.3 83.1004L160 83.0004V99.0004Z" fill="#137AB6"/>
<path d="M234.099 141.701C232.299 143.201 231.799 145.401 230.699 155.401L229.499 167.201L223.899 168.901C220.899 169.901 215.199 172.101 211.299 173.901L204.199 177.201L195.399 169.901C182.699 159.301 183.299 159.201 165.899 176.601C148.799 193.901 148.999 193.201 158.999 205.401C162.799 210.001 165.999 214.301 165.999 214.801C165.999 215.301 164.699 218.601 163.099 222.101C161.499 225.601 159.399 231.101 158.499 234.201C156.499 240.601 156.899 240.401 142.499 241.501C129.299 242.601 129.999 241.301 129.999 266.501C129.999 291.701 129.299 290.401 142.499 291.501C156.899 292.601 156.499 292.401 158.499 298.801C159.399 301.901 161.699 307.601 163.499 311.401L166.799 318.301L159.399 327.201C148.899 339.801 148.699 339.001 165.899 356.401C183.299 373.801 182.699 373.701 195.399 363.101L204.199 355.801L211.799 359.301C215.999 361.201 221.799 363.501 224.599 364.401L229.699 366.101L230.799 377.801C232.399 393.801 230.999 393.001 255.999 393.001C280.999 393.001 279.599 393.901 281.299 377.601L282.499 365.801L288.099 364.101C291.099 363.101 296.799 360.901 300.699 359.101L307.799 355.801L316.599 363.101C329.299 373.701 328.699 373.801 346.099 356.401C363.199 339.101 362.999 339.801 352.999 327.601C349.199 323.001 345.999 318.701 345.999 318.201C345.999 317.701 347.299 314.401 348.899 310.901C350.499 307.401 352.599 301.901 353.499 298.801C355.599 292.401 354.799 292.701 369.999 291.401C382.599 290.401 381.999 291.601 381.999 266.501C381.999 241.401 382.599 242.601 369.999 241.601C354.799 240.301 355.599 240.601 353.499 234.201C352.599 231.101 350.299 225.401 348.499 221.601L345.199 214.701L352.599 205.801C357.699 199.701 359.999 196.101 359.999 194.301C359.999 192.201 356.799 188.501 345.799 177.301C328.299 159.701 328.999 159.901 316.599 170.001C311.899 173.801 307.699 177.001 307.299 177.001C306.999 177.001 304.199 175.801 301.099 174.301C297.999 172.901 292.599 170.701 288.999 169.501L282.499 167.301L281.799 162.401C281.399 159.701 280.799 154.401 280.499 150.701C279.399 139.801 279.799 140.001 256.099 140.001C238.599 140.001 235.999 140.201 234.099 141.701ZM266.799 154.501C266.999 154.701 267.599 159.401 268.199 165.101C268.899 172.401 269.699 176.001 270.899 177.301C271.799 178.201 276.099 180.001 280.399 181.201C284.699 182.301 292.599 185.501 297.799 188.201C304.199 191.501 308.099 192.901 309.599 192.601C310.799 192.301 315.299 189.101 319.599 185.501C323.899 181.901 327.699 179.001 327.999 179.001C328.299 179.001 331.999 182.501 336.199 186.701L343.899 194.501L336.999 203.001C333.099 207.701 329.999 212.401 329.999 213.601C329.999 214.701 332.199 219.901 334.799 225.101C337.399 230.301 340.399 237.601 341.399 241.501C342.399 245.301 343.799 249.501 344.599 250.601C345.899 252.801 346.499 252.901 362.799 254.601L368.999 255.301V266.601C368.999 276.201 368.799 278.001 367.499 278.001C366.599 278.001 361.599 278.501 356.199 279.001C344.699 280.301 343.999 280.801 341.499 291.101C340.499 295.001 337.499 302.501 334.899 307.801C332.199 313.001 329.999 318.301 329.999 319.401C329.999 320.601 333.099 325.301 336.999 330.001L343.899 338.501L336.199 346.201C331.999 350.501 328.299 354.001 327.999 354.001C327.699 354.001 323.899 351.101 319.499 347.501C315.099 343.901 310.799 340.701 309.799 340.501C308.899 340.201 303.099 342.401 296.799 345.401C290.599 348.401 282.499 351.701 278.799 352.601C275.099 353.501 271.499 354.901 270.799 355.801C270.099 356.601 268.999 362.101 268.499 367.901L267.499 378.501H255.999H244.499L243.499 367.901C242.999 362.101 241.899 356.601 241.199 355.801C240.499 354.901 236.899 353.501 233.199 352.601C229.499 351.701 221.399 348.401 215.199 345.401C208.899 342.401 203.099 340.201 202.199 340.501C201.199 340.701 196.899 343.901 192.499 347.501C188.099 351.101 184.299 354.001 183.999 354.001C183.699 354.001 179.999 350.501 175.699 346.201L167.999 338.501L174.999 330.001C178.799 325.401 181.999 320.601 181.999 319.501C181.999 318.401 179.799 313.001 177.099 307.501C174.399 302.001 171.199 294.201 170.099 290.101C168.999 286.001 167.499 282.001 166.799 281.301C165.699 280.301 151.199 278.101 144.799 278.001C143.199 278.001 142.999 276.801 142.999 266.601V255.201L149.799 254.601C168.299 252.801 167.499 253.401 170.599 241.501C171.599 237.601 174.599 230.301 177.199 225.101C179.799 219.901 181.999 214.701 181.999 213.601C181.999 212.401 178.899 207.701 174.999 203.001L168.099 194.501L175.799 186.701C179.999 182.501 183.699 179.001 183.999 179.001C184.299 179.001 187.899 181.801 191.999 185.101C196.099 188.501 200.499 191.601 201.799 192.101C203.599 192.801 206.399 191.901 215.299 187.501C221.499 184.501 229.599 181.301 233.299 180.401C237.899 179.301 240.599 178.001 241.499 176.601C242.199 175.501 243.099 170.401 243.499 165.501C244.499 152.001 243.399 153.001 255.799 153.701C261.699 154.001 266.599 154.401 266.799 154.501Z" fill="#137AB6"/>
<path d="M244.002 187.601C210.902 194.001 187.202 215.601 178.902 246.601C176.002 257.601 176.002 275.401 178.902 286.401C186.302 314.101 207.002 335.201 234.602 343.201C246.002 346.501 266.002 346.501 277.402 343.201C305.002 335.201 325.702 314.101 333.102 286.401C334.702 280.501 335.202 275.501 335.202 266.501C335.202 257.501 334.702 252.501 333.102 246.601C325.802 219.101 305.002 197.801 278.002 190.001C270.602 187.901 250.102 186.401 244.002 187.601ZM271.502 202.601C292.902 207.701 311.602 225.101 318.702 246.401C321.002 253.401 321.402 256.201 321.402 266.501C321.402 276.801 321.002 279.601 318.702 286.601C311.702 307.801 293.202 325.001 271.502 330.501C263.902 332.401 248.102 332.401 240.502 330.501C218.902 325.001 201.202 308.701 193.602 287.101C190.902 279.501 190.602 277.201 190.502 267.001C190.502 256.901 190.902 254.401 193.402 246.601C204.302 213.501 237.802 194.601 271.502 202.601Z" fill="#137AB6"/>
<path d="M225.005 222C222.605 224.4 222.405 227.7 224.605 230.8C226.005 232.8 226.905 233 235.305 233C240.405 233 246.205 233.5 248.205 234C252.005 235.1 258.005 239.4 258.005 241.1C258.005 241.6 251.205 242 242.505 242C228.305 242 226.805 242.2 225.005 244C222.505 246.5 222.405 250.1 224.805 252.9C226.405 254.8 227.605 255 242.905 255.2L259.305 255.5L256.405 258.9C252.305 263.8 248.605 265 237.005 265C228.305 265 226.705 265.3 225.005 267C221.405 270.6 222.405 273.9 228.805 279.9C264.305 313.4 263.705 313 267.405 313C269.905 313 271.305 312.4 272.405 310.8C275.805 306 274.705 304.2 260.805 290.9L247.605 278.3L253.205 276.6C261.805 274.1 268.805 267.7 271.705 259.7L273.505 255H279.705C285.005 255 286.105 254.7 287.405 252.8C289.605 249.7 289.405 246.4 287.005 244C285.505 242.5 283.705 242 279.205 242C273.405 242 273.405 242 272.005 238.2C271.205 236.2 270.405 234.2 270.205 233.7C270.005 233.3 273.405 233 277.905 233C285.005 233 286.105 232.8 287.405 230.8C289.605 227.7 289.405 224.4 287.005 222C285.105 220.1 283.705 220 256.005 220C228.305 220 226.905 220.1 225.005 222Z" fill="#137AB6"/>
<path d="M175.494 423.2C174.394 423.8 173.194 424.8 172.794 425.4C171.394 427.5 171.994 432 173.994 434C175.994 436 177.294 436 255.994 436C334.694 436 335.994 436 337.994 434C339.994 432 340.594 427.5 339.194 425.4C336.994 422.1 334.494 422 255.794 422C199.294 422.1 176.894 422.4 175.494 423.2Z" fill="#137AB6"/>
<path d="M142.899 451C139.499 453 139.799 459.8 143.399 462.2C143.999 462.6 194.699 463 255.999 463C317.299 463 367.999 462.6 368.599 462.2C372.299 459.8 372.499 452.9 368.999 451C366.499 449.7 145.099 449.7 142.899 451Z" fill="#137AB6"/>
</svg>
