<svg width="512" height="512" viewBox="0 0 512 512" fill="none" xmlns="http://www.w3.org/2000/svg">
<path d="M266 15.7999C245.1 16.9999 223.1 28.4999 209.7 44.9999C200.2 56.7999 192 76.5999 192 87.8999C192 91.0999 190.6 92.7999 176 107.5C160.5 123.2 160 123.8 160 127.8C160 134.8 162.1 136 174 136H184V151.2C184 168.4 185 171.9 191.1 177.7C196 182.3 200.8 184 209 184H216V202C216 218.7 216.1 220.1 218 222C219.9 223.9 221.3 224 272 224C322.7 224 324.1 223.9 326 222C327.9 220.1 328 218.7 328 187.1V154.1L333.5 147.8C340.2 140.1 347.4 126.2 350 115.6C352.8 104.7 352.7 87.1999 350 76.3999C340.3 38.4999 305.6 13.3999 266 15.7999ZM286.5 34.5999C297.9 37.2999 306.7 42.4999 316 51.8999C330.2 66.1999 335.6 79.6999 334.8 98.8999C334.1 115.4 329 127.4 317.4 139.9L312 145.8V176.9V208H272H232V190C232 167.4 232.3 168 218.6 168C200.7 168 200 167 200 141.5C200 125.3 199.8 123.8 198 122C196.7 120.7 194.7 120 192.3 120H188.6L198.2 110.2C208.6 99.5999 207.8 101.3 209.5 86.0999C211.2 70.3999 222.7 52.5999 237.3 43.0999C252.5 33.1999 268.8 30.3999 286.5 34.5999Z" fill="#137AB6"/>
<path d="M256 60C256 63.8 255.8 64 253 64C245.9 64 237.4 70.1 233.9 77.5C231.4 82.9 231.4 93.1 233.9 98.5C234.9 100.7 237.3 103.9 239.1 105.7C244.5 110.8 248.6 112 260.5 112C272.8 112 277.6 113.4 278.6 117.4C280.4 124.7 275.8 128 264 128C255.4 128 250.3 126.1 249.4 122.6C248.8 120.1 248.6 120 240.4 120H232V123C232 132.8 243 143.9 252.8 144C255.9 144 256 144.2 256 148V152H264H272V148C272 144.2 272.1 144 275.3 144C282.4 143.9 291.3 137.4 294.4 129.8C295.3 127.7 296 123.3 296 120C296 112.8 294.1 107.8 289.7 103.1C284.3 97.4 280 96 267.7 96C255.2 96 250.4 94.6 249.4 90.6C247.6 83.3 252.2 80 264 80C272.6 80 277.7 81.9 278.6 85.4C279.2 87.9 279.4 88 287.6 88H296V85C296 75.2 285 64.1 275.3 64C272.1 64 272 63.8 272 60V56H264H256V60Z" fill="#137AB6"/>
<path d="M85.5 49.9C83.3 50.9 80.1 53.3 78.3 55.1C71.6 62.2 72 54.5 72 176.2C72 281.5 72.1 286.7 73.9 290.5C74.9 292.7 77.3 295.9 79.1 297.7C85.3 303.6 87.5 304 113 304H136V311.5C136 321 134.3 325.3 130 326.9C127.9 327.6 117.3 328 100.1 328C70.4 328 68.7 328.4 62.3 335.1C57.9 339.8 56 344.8 56 352C56 359.2 57.9 364.2 62.3 368.9C68.7 375.6 70.4 376 100.1 376C117.3 376 127.9 376.4 130 377.1C134.3 378.7 136 383 136 392.5V400H125.8H115.5L89.8 425.8L64 451.5V468.5C64 487.5 64.7 490 71.2 494C74.5 496 76.7 496 256 496C435.3 496 437.5 496 440.8 494C447.3 490 448 487.5 448 468.5V451.5L422.2 425.8L396.5 400H274.2H152V389C152 376.6 150.8 372.6 145.7 367.1C139.3 360.4 137.6 360 107.7 360C86.8 360 80.2 359.7 77.5 358.6C73.8 357 72.3 353.8 73.4 349.4C74.6 344.6 78.2 344 107.7 344C137.6 344 139.3 343.6 145.7 336.9C150.8 331.4 152 327.4 152 315V304H180H208V320V336H190C166.1 336 168 334 168 360C168 378.7 168.1 380.1 170 382C172 384 173.3 384 256 384C338.7 384 340 384 342 382C343.9 380.1 344 378.7 344 360C344 334 345.9 336 322 336H304V320V304H363C428.1 304 426 304.2 432.9 297.7C434.7 295.9 437.1 292.7 438.1 290.5C439.9 286.7 440 281.5 440 176C440 70.5 439.9 65.3 438.1 61.5C437.1 59.3 434.7 56.1 432.9 54.3C426.4 48.2 425.3 48 391 48H360V56V64H387.5C418.5 64 420.9 64.4 422.9 70C423.7 72.4 424 97 424 156.6V240H256H88V156.5C88 64.3 87.8 67.3 94 65.1C96.3 64.4 110.9 64 140.6 64H184V56V48H136.8C92.9 48 89.2 48.2 85.5 49.9ZM424 267.4C424 281.1 422.9 284.7 418.4 286.6C415.6 287.8 389.7 288 256.2 288C140.2 288 96.4 287.7 94 286.9C89.2 285.2 88 281.3 88 267.5V256H256H424V267.4ZM288 320V336H256H224V320V304H256H288V320ZM328 360V368H256H184V360V352H256H328V360ZM403.5 432L419.5 448H256H92.5L108.5 432L124.5 416H256H387.5L403.5 432ZM432 472V480H256H80V472V464H256H432V472Z" fill="#137AB6"/>
<path d="M376 272V280H384H392V272V264H384H376V272Z" fill="#137AB6"/>
<path d="M128 432V440H136H144V432V424H136H128V432Z" fill="#137AB6"/>
<path d="M160 432V440H168H176V432V424H168H160V432Z" fill="#137AB6"/>
<path d="M192 432V440H256H320V432V424H256H192V432Z" fill="#137AB6"/>
<path d="M336 432V440H344H352V432V424H344H336V432Z" fill="#137AB6"/>
<path d="M368 432V440H376H384V432V424H376H368V432Z" fill="#137AB6"/>
</svg>
