<svg width="512" height="512" viewBox="0 0 512 512" fill="none" xmlns="http://www.w3.org/2000/svg">
<path d="M263.497 1.0997C254.097 3.7997 243.597 13.6997 240.697 22.4997L239.297 26.4997L217.597 26.9997C196.197 27.4997 195.797 27.4997 193.897 29.8997C192.897 31.1997 191.997 33.6997 191.997 35.5997V38.9997H157.097C137.897 38.9997 121.397 39.2997 120.497 39.5997C115.897 41.3997 115.997 39.7997 115.997 143.4V240.9L65.6971 241.2L15.3971 241.5L11.1971 244.3C8.89714 245.8 5.79714 248.9 4.29714 251.2L1.49714 255.4L1.19714 374.4C0.997136 458.3 1.19714 494.6 1.99714 497.3C3.39714 502 8.19714 507.5 13.0971 510.1C16.8971 512 19.4971 512 121.397 511.8L225.797 511.5L230.097 508.5C232.697 506.7 235.397 503.5 236.897 500.5L239.497 495.6L239.797 438.8L240.097 382H258.597C275.897 382 277.197 382.1 276.497 383.7C274.597 388.5 269.897 409.1 268.997 416.9C266.297 438.7 273.097 458.2 288.997 474.1C298.397 483.5 304.497 487.4 316.497 491.7L324.497 494.5H379.997C430.997 494.5 435.997 494.4 441.497 492.7C461.397 486.6 476.297 474.2 484.997 456.5C494.497 437.4 494.797 419.6 486.397 390C478.097 360.8 464.397 337.4 442.997 315.9L431.397 304.3L432.397 297.7L433.397 291H441.597C455.997 291 459.497 293.4 467.297 308.5C475.397 324.2 483.097 331.3 495.897 334.5C505.597 337 510.997 334.5 510.997 327.5C510.997 322.9 507.697 319.6 502.497 318.6C492.897 316.8 488.997 313 481.997 299C476.697 288.2 472.097 282.7 465.797 279.1L460.797 276.2L466.397 273.5C472.297 270.6 473.597 270.6 487.797 272.6C491.397 273.1 492.497 272.9 494.597 270.9C497.497 268.2 497.897 262.2 495.297 259.2C490.997 254.2 473.497 252.4 463.497 255.9C460.397 257 454.497 260.3 450.197 263.3C435.297 273.7 433.497 274.1 430.197 267L427.797 262L434.897 240.7C438.797 229.1 441.997 217.8 441.997 215.7C441.997 211.1 439.197 208 434.997 208H431.997V125.7V43.2997L429.697 41.1997C427.397 38.9997 426.897 38.9997 392.297 38.9997H357.297L356.597 35.0997C356.197 32.4997 355.097 30.3997 353.397 29.0997C350.897 27.0997 349.497 26.9997 330.097 26.9997H309.497L307.597 21.7997C304.997 14.3997 295.497 5.0997 287.697 2.1997C281.597 -0.100303 269.497 -0.700304 263.497 1.0997ZM282.297 18.5997C288.897 21.9997 292.997 28.0997 292.997 34.4997C292.997 37.1997 293.797 38.8997 295.897 41.0997L298.797 43.9997H319.397H339.997V62.9997V81.9997H274.497H208.997V62.9997V43.9997H229.497C249.997 43.9997 250.097 43.9997 252.497 41.4997C253.897 40.1997 254.997 38.0997 254.997 36.7997C254.997 29.5997 260.397 21.0997 266.497 18.3997C270.697 16.5997 278.497 16.6997 282.297 18.5997ZM191.997 63.9997V71.9997H172.997C152.897 71.9997 149.997 72.4997 148.097 76.6997C147.297 78.3997 146.997 102.8 146.997 160V241H139.997H132.997V148.5V55.9997H162.497H191.997V63.9997ZM414.997 135.4V214.7L409.197 216.4C405.997 217.3 403.097 218 402.697 218C402.297 218 401.897 186.2 401.797 147.4L401.497 76.7997L398.697 74.3997C395.897 71.9997 395.597 71.9997 376.397 71.9997H356.997V63.9997V55.9997H385.997H414.997V135.4ZM191.997 91.3997C191.997 92.6997 192.897 94.8997 194.097 96.3997L196.097 98.9997H274.097C351.097 98.9997 351.997 98.9997 353.997 96.9997C355.097 95.8997 356.297 93.5997 356.697 91.9997L357.297 88.9997H371.097H384.997V155.1V221.2L375.297 220.5C363.597 219.6 350.197 216.4 338.297 211.6C328.297 207.5 323.897 207.1 320.997 210C317.697 213.3 318.497 218.1 326.197 240.8L333.297 262.1L331.097 266C328.997 269.7 328.897 271.1 329.097 287.5L329.297 305.1L321.397 312.4C316.997 316.4 311.497 322.3 308.997 325.4L304.497 331H272.297H239.997V296.4C239.997 274.5 239.597 260.3 238.897 257.5C237.497 252 231.897 245.3 226.597 242.9C222.897 241.2 219.497 241 193.297 241H163.997V165V88.9997H177.997H191.997V91.3997ZM369.697 236.9C382.897 237.9 399.397 236.6 410.797 233.7L419.697 231.3L415.097 245.2L410.497 259H380.497H350.497L345.897 245.2L341.297 231.5L350.397 233.8C355.397 235 364.097 236.4 369.697 236.9ZM221.397 260.2C222.797 262.2 222.997 274.9 222.997 376.6C222.997 487.5 222.897 490.8 221.097 493.1L219.197 495.5H119.997C22.9971 495.5 20.7971 495.5 19.3971 493.6C18.1971 491.9 17.9971 474.4 17.9971 376.6C17.9971 271.1 18.0971 261.5 19.6971 259.8C21.1971 258.1 25.6971 258 120.597 258H219.897L221.397 260.2ZM415.997 285.5V296H380.997H345.997V285.5V275H380.997H415.997V285.5ZM419.697 317.8C449.697 342.9 469.097 378.2 474.997 418.3C478.597 442.6 463.897 466.4 439.997 475.1L433.497 477.5H380.497H327.497L320.997 475.1C305.197 469.3 293.197 457 287.797 441.1C283.697 428.8 285.597 411 293.397 387.5C302.297 361.1 319.397 336.2 340.897 318.3L347.397 313H380.597H413.897L419.697 317.8ZM291.797 348.8C291.697 349.2 289.697 353.1 287.497 357.3L283.497 365H261.797H239.997V356.5V348H266.097C280.397 348 291.997 348.4 291.797 348.8Z" fill="#137AB6"/>
<path d="M196.402 127.4C194.302 129.2 193.602 130.6 193.602 133.5C193.602 136.4 194.302 137.8 196.402 139.6L199.102 142H265.402C330.502 142 331.702 142 333.802 140C338.202 135.9 337.402 128.4 332.402 126.1C330.602 125.3 311.002 125 264.502 125H199.102L196.402 127.4Z" fill="#137AB6"/>
<path d="M196.002 157C191.502 161.5 192.702 168.2 198.502 170.6C201.602 171.8 211.502 172 267.102 171.8L332.202 171.5L334.602 168.7C337.702 165 337.702 160.6 334.502 157.5L332.102 155H265.002C199.602 155 198.002 155 196.002 157Z" fill="#137AB6"/>
<path d="M196.402 186.4C194.302 188.2 193.602 189.6 193.602 192.5C193.602 195.4 194.302 196.8 196.402 198.6L199.102 201H237.502C263.502 201 276.702 200.6 278.302 199.9C280.802 198.8 283.002 195.2 283.002 192.5C283.002 189.8 280.802 186.2 278.302 185.1C276.702 184.4 263.502 184 237.502 184H199.102L196.402 186.4Z" fill="#137AB6"/>
<path d="M197.2 214.7C195 215.6 192.8 221 193.5 224.1C194.8 230 194.6 230 238.6 230H278.9L281 227.3C283.5 224.1 283.2 219 280.4 215.9C278.8 214.1 276.6 214 238.6 214.1C216.5 214.1 197.9 214.4 197.2 214.7Z" fill="#137AB6"/>
<path d="M34.4 268.9C29.5 271.9 29 274.9 29 300.7C29 320.4 29.3 324.8 30.6 327.6C33.8 334.3 29.3 334 120.2 334C200.7 334 202.6 333.9 205.8 332C207.6 330.9 209.5 328.8 210.1 327.3C210.7 325.7 211 314.7 210.8 298.8L210.5 273L207.7 270.3L205 267.5L121.2 267.2C40.3 267 37.4 267.1 34.4 268.9ZM194 300.5V317H120H46V300.5V284H120H194V300.5Z" fill="#137AB6"/>
<path d="M40.2984 342.7C37.0984 343.3 33.1984 347.7 31.9984 351.9C30.6984 356.6 30.6984 384.4 31.9984 389.2C32.5984 391.2 34.3984 394 36.0984 395.4L39.1984 398H59.6984H80.1984L83.4984 394.7C87.6984 390.5 88.2984 386.9 87.7984 366.9C87.5984 354 87.1984 351 85.5984 348.4C82.1984 342.8 81.1984 342.5 60.9984 342.3C50.7984 342.3 41.4984 342.4 40.2984 342.7ZM70.9984 370V381H59.4984H47.9984V370V359H59.4984H70.9984V370Z" fill="#137AB6"/>
<path d="M98.9973 343.8C92.5973 346.9 91.8973 349.9 92.1973 371.8L92.4973 391.2L96.1973 394.6L99.9971 398H119.497C148.597 398 147.997 398.6 147.997 369.7C147.997 351.3 147.897 350.1 145.797 347.5C142.097 342.7 138.697 342 119.797 342C105.297 342 101.897 342.3 98.9973 343.8ZM130.997 370V381H119.997H108.997V370V359H119.997H130.997V370Z" fill="#137AB6"/>
<path d="M160.3 343.5C158.5 344.3 156.1 346.4 155 348.2C153.1 351.4 153 353.1 153 404.8C153 463.3 152.9 462.4 159 465.5C163.1 467.6 198.8 467.7 202.9 465.5C209 462.4 209 462.5 209 404.3C209 353.1 208.9 351.4 207 348.2C203.7 342.8 200.3 342 180.8 342C168.2 342.1 162.6 342.5 160.3 343.5ZM192 404.5V450H181H170V404.5V359H181H192V404.5Z" fill="#137AB6"/>
<path d="M39.0956 412.8C32.2956 416.2 31.4956 418.3 31.1956 435.7C30.6956 455.9 31.2956 459.5 35.4956 463.7L38.7956 467H59.4956H80.1956L83.4956 463.7C87.6956 459.5 88.2956 455.9 87.7956 435.7C87.4956 421.9 87.2956 419.8 85.3956 417.3C81.2956 411.8 78.1956 411 59.4956 411C45.2956 411 41.8956 411.3 39.0956 412.8ZM70.9956 439V450H59.4956H47.9956V439V428H59.4956H70.9956V439Z" fill="#137AB6"/>
<path d="M100.095 412.299C98.1954 412.899 95.6954 414.799 94.5954 416.299C92.6954 418.899 92.4954 420.699 92.1954 437.999C91.6954 467.199 91.4954 466.999 120.395 466.999C148.495 466.999 147.995 467.499 147.995 439.299C147.995 418.999 147.595 417.299 142.695 413.599C140.095 411.699 138.395 411.499 121.695 411.299C109.195 411.099 102.395 411.399 100.095 412.299ZM130.995 438.999V449.999H119.995H108.995V438.999V427.999H119.995H130.995V438.999Z" fill="#137AB6"/>
<path d="M370.3 339C347.9 343.1 329.2 361.2 324.5 383.7C317.9 414.6 337.6 445 368.5 451.5C377.3 453.4 383.7 453.4 392.5 451.5C414.5 446.9 431.9 429.5 436.5 407.5C443.8 372.9 419 340.5 383.9 338.6C379.3 338.3 373.2 338.5 370.3 339ZM372.5 359.6C371.7 362 370.3 363.7 368.4 364.5C364.6 366.1 360 370.7 358.4 374.7C356.5 379.1 356.6 388.4 358.6 392.3C362.6 400.1 367.6 403.2 377.9 403.9C386 404.6 388.6 406.3 386.4 409.8C385.5 411.2 383.4 411.5 373.4 411.8C362.9 412 361.3 412.3 359.3 414.2C356.4 416.9 356.2 422.8 358.8 426C360.2 427.8 362 428.4 366.3 428.8C370.1 429.1 372 429.7 372 430.5C372 431.3 372.3 432.5 372.6 433.4C373.6 435.9 371 435.4 363.3 431.5C347.2 423.5 337.6 405.5 340.8 389.4C343.8 374.5 352.3 363.9 365.9 358.4C373.6 355.2 374 355.3 372.5 359.6ZM397.7 359.5C412.5 366.2 422.4 383.8 420.5 400.2C418.7 415.4 405.3 430.9 390.6 434.6C388.1 435.2 388 435.1 388.7 431.9C389 430 389.6 428.4 390 428.2C394.6 426.3 400 421.6 401.9 417.8C404.8 411.7 404.8 402.9 401.7 397.5C398 391 392.5 387.8 383.8 387.2C376 386.7 374 385.8 374 382.9C374 379.9 377.3 379 388.9 379C398.7 379 400.2 378.8 402 377C404.2 374.8 404.7 369.2 403 366C401.8 363.8 397 362 392.4 362C389.8 362 389 361.6 389 360.2C389 359.2 388.4 357.8 387.8 357.1C386 355.2 390.9 356.4 397.7 359.5Z" fill="#137AB6"/>
</svg>
