<svg width="512" height="512" viewBox="0 0 512 512" fill="none" xmlns="http://www.w3.org/2000/svg">
<g clip-path="url(#clip0_363_3556)">
<mask id="mask0_363_3556" style="mask-type:luminance" maskUnits="userSpaceOnUse" x="0" y="0" width="512" height="512">
<path d="M512 0H0V512H512V0Z" fill="white"/>
</mask>
<g mask="url(#mask0_363_3556)">
<path d="M194.8 35.8L159 71.5V161.8V252H156.6C155.3 252 149.9 253.1 144.6 254.4C89.5 268.4 59.9 329.9 83.1 382L86.3 389.1L48.8 426.8C28.1 447.5 10.4 466.1 9.4 468C8 470.5 7.5 473.7 7.5 479.5C7.5 486.5 7.9 488.1 10.3 492.3C13.6 497.8 19.6 502.5 25.4 504.1C30.6 505.5 39.7 504.7 44.1 502.5C46 501.6 64.5 483.9 85.2 463.2L122.9 425.7L129.7 428.7C138 432.5 144.6 434.6 152.4 435.9C155.7 436.5 158.5 437 158.7 437C158.9 437 159 449.1 159 463.8C159 489.6 159.1 490.7 161.3 495C162.9 498.3 164.7 500.1 168 501.8L172.5 504L337.2 503.8L501.9 503.5L504.7 501.4C506.2 500.3 508.5 497.8 509.8 496L512 492.7V252.3C512 -14.2 512.6 7.7 505.6 2.7L502.5 0.5L366.5 0.2L230.6 0L194.8 35.8ZM495 251.5V486H336H177V461.5C177 448 177.1 437 177.3 437C179.5 437 191 434.4 196 432.8C225.5 423.3 247.3 400.9 256.7 370.3C259.2 362.2 259.4 360.1 259.4 344.5C259.4 328.9 259.2 326.8 256.7 318.7C251.8 303 244.2 290 233.1 278.9C218.8 264.7 203.1 256.9 179.8 252.5L177 252V168V84H201.5C219.9 84 226.9 83.7 229.3 82.7C234 80.7 238.8 76.3 241.3 71.6C243.4 67.7 243.5 66.1 243.8 42.2L244.1 17H369.6H495V251.5ZM223.5 64.7C221 66.9 220 67 205.2 67H189.5L207.5 49L225.5 31L225.8 46.7L226.1 62.5L223.5 64.7ZM181.4 270.4C209.7 275.9 232.3 296.7 240.2 324.7C243 334.8 243.3 352.3 240.7 362C231.4 396.9 199.6 420.5 164.1 418.8C125.6 416.9 95.1 386.4 93.2 347.9C92.1 325.2 100.1 305.5 116.9 289.7C134.7 273.1 158.2 266 181.4 270.4ZM102.2 409.5L107.6 414.9L72 450.5C33.4 489 33.7 488.8 28.5 483.5C23.4 478.5 23.3 478.6 61.2 439.9C80.5 420.2 96.4 404 96.5 404C96.6 404 99.2 406.5 102.2 409.5Z" fill="#137AB6"/>
<path d="M269.4 34.9C267.1 35.9 264.2 38.3 262.9 40.1L260.5 43.5L260.2 107.7C259.9 179.1 259.7 176.4 266.6 181.6L270.3 184.5L298.7 184.8L327 185.1V197V209H297.3C277.1 209 265.5 209.5 261.4 210.3C245.8 213.6 235 226.6 235 242.1C235 249.8 237.1 254.4 242.3 257.8L246.4 260.5H352.4H458.5L462.2 258.2C467.9 254.7 470.2 250.2 470.1 242.6C470 230.8 464 220 454.3 214.3C446.3 209.6 441.1 209 408.3 209H378V197V185.1L406.4 184.8C433.5 184.5 435 184.4 437.7 182.4C439.2 181.3 441.5 178.8 442.8 177L445 173.6L444.8 108.6L444.5 43.5L442.1 40.1C440.8 38.3 437.9 35.9 435.6 34.9C431.7 33.1 427.4 33 352.5 33C277.6 33 273.3 33.1 269.4 34.9ZM428 109V167H352.5H277V109V51H352.5H428V109ZM360 197V209H352.5H345V197V185H352.5H360V197ZM442.3 228.4C445.8 229.8 452 236.2 452 238.5C452 239.2 452.3 240.5 452.6 241.4C453.2 242.9 443.9 243 352.5 243H251.9L252.6 240.7C254.4 234.7 258.3 230 263 228.1C264.6 227.5 297.1 227.1 352.3 227.1C423 227 439.7 227.2 442.3 228.4Z" fill="#137AB6"/>
<path d="M296.199 68.9998C293.299 71.6998 292.499 75.3998 293.999 79.0998C297.599 87.5998 310.999 84.7998 310.999 75.4998C310.999 68.0998 301.599 63.9998 296.199 68.9998Z" fill="#137AB6"/>
<path d="M343.099 68.3997C337.699 70.2997 331.899 75.8997 329.199 81.7997C324.499 92.0997 327.699 105.9 336.299 112.4C340.399 115.6 347.199 118 351.699 118C358.599 118 362.399 125.8 358.099 131.1C356.299 133.3 355.299 133.5 343.499 134C331.699 134.5 330.699 134.7 328.899 136.9C326.199 140.2 326.499 145.3 329.399 148.7C331.799 151.5 331.799 151.5 344.699 151.5C360.499 151.5 364.899 150.1 371.299 143C385.499 127.2 376.399 103.2 355.199 100.4C348.399 99.4997 344.999 96.8997 344.999 92.6997C345.099 85.8997 349.099 83.9997 363.099 83.9997C372.399 83.9997 373.299 83.7997 375.499 81.4997C377.199 79.8997 377.999 77.9997 377.999 75.4997C377.999 72.9997 377.199 71.0997 375.499 69.4997C373.199 67.0997 372.599 66.9997 359.799 67.0997C352.099 67.0997 345.099 67.6997 343.099 68.3997Z" fill="#137AB6"/>
<path d="M396.504 69.5C391.104 74.9 394.904 84 402.504 84C407.304 84 409.504 82.7 411.004 79.1C413.504 72.9 409.704 67 403.004 67C400.004 67 398.304 67.7 396.504 69.5Z" fill="#137AB6"/>
<path d="M295.595 137.1C292.595 140.6 292.395 142.9 294.495 146.9C297.195 152.3 305.295 153 308.995 148.2C316.195 139.2 302.995 128.2 295.595 137.1Z" fill="#137AB6"/>
<path d="M397.003 135.801C393.803 138.401 393.203 144.801 395.903 148.101C399.703 153.001 407.703 152.301 410.503 146.901C412.603 142.901 412.403 140.601 409.403 137.101C407.403 134.601 406.003 134.001 403.003 134.001C400.903 134.001 398.303 134.801 397.003 135.801Z" fill="#137AB6"/>
<path d="M273.4 293.999C267.6 296.399 266.4 303.499 270.9 308.099L273.8 310.999H298H322.2L325.2 307.999C327.8 305.299 328.2 304.399 327.7 301.299C327.3 299.299 326.1 296.699 325 295.599C323.1 293.599 321.7 293.499 299.2 293.299C286.2 293.199 274.5 293.499 273.4 293.999Z" fill="#137AB6"/>
<path d="M348.505 294.2C343.305 297.2 342.305 304.4 346.505 308.5L348.905 311H406.905H464.905L467.505 308.7C471.905 305 471.005 297.1 466.005 294.5C463.505 293.2 454.705 293 406.805 293C366.305 293.1 349.905 293.4 348.505 294.2Z" fill="#137AB6"/>
<path d="M279.5 329.301C276.5 331.801 275.9 337.001 277.9 340.801C280.1 344.901 284.1 345.101 338.3 344.801L390.2 344.501L392.6 341.701C396.1 337.601 395.5 331.701 391.1 328.301C389.9 327.401 376.4 327.101 335.8 327.001H282.1L279.5 329.301Z" fill="#137AB6"/>
<path d="M413.497 329.501C409.997 332.901 410.097 338.801 413.597 342.101C416.097 344.501 416.397 344.501 438.297 344.801C467.297 345.201 470.197 344.401 470.197 335.201C470.197 332.501 469.497 331.001 467.497 329.301C464.897 327.001 464.497 327.001 440.397 327.001H415.897L413.497 329.501Z" fill="#137AB6"/>
<path d="M281.306 361.5C276.006 363.8 275.006 371.9 279.506 375.7L282.106 378H373.506H464.906L467.506 375.7C472.106 371.8 471.006 363.7 465.406 361.4C460.506 359.3 286.106 359.4 281.306 361.5Z" fill="#137AB6"/>
<path d="M256.4 403.4C250.5 406 249.6 414 254.7 418C257.1 419.9 258.9 420 285.7 420H314.1L316.5 417.5C318.3 415.8 319 414 319 411.3C318.9 406.8 317.4 404.5 313.6 403C309.3 401.4 260.3 401.7 256.4 403.4Z" fill="#137AB6"/>
<path d="M374.398 444.999C368.798 447.199 367.198 455.299 371.498 459.499L373.898 461.999H419.398H464.898L467.498 459.699C470.198 457.399 470.998 453.599 469.498 449.199C467.998 444.299 465.398 443.999 419.298 444.099C395.798 444.099 375.498 444.499 374.398 444.999Z" fill="#137AB6"/>
</g>
</g>
<defs>
<clipPath id="clip0_363_3556">
<rect width="512" height="512" fill="white"/>
</clipPath>
</defs>
</svg>
