<svg width="512" height="512" viewBox="0 0 512 512" fill="none" xmlns="http://www.w3.org/2000/svg">
<g clip-path="url(#clip0_363_3526)">
<path d="M97.5051 2.4C88.2051 6.7 81.0051 17.7 81.0051 27.5V30.7L73.7051 31.2C61.8051 32 53.0051 38 48.3051 48.7C46.9051 51.7 46.5051 56.4 46.2051 70.6L45.8051 88.7L41.7051 90C27.9051 94.1 17.2051 108.1 16.2051 123.5C15.1051 140.4 24.4051 155.3 39.8051 161.6L45.5051 163.9L45.8051 219.9C46.0051 266.4 45.8051 276 44.7051 276C41.4051 276 30.9051 282.4 26.5051 287.1C20.2051 293.8 17.0051 301.2 16.3051 310.3C15.0051 327.3 24.1051 342.2 39.7051 348.6L45.5051 350.9L46.0051 388.2C46.5051 424.5 46.6051 425.6 48.8051 430.5C51.8051 437 57.1051 442.3 63.4051 445.2L68.5051 447.5L182.305 447.8L296.105 448L299.205 445C301.705 442.4 302.105 441.4 301.605 438.7C301.305 436.9 300.005 434.7 298.905 433.7C296.905 432.1 290.005 432 185.105 432C80.8051 432 73.3051 431.9 70.1051 430.2C68.2051 429.3 65.7051 427.2 64.6051 425.7C62.5051 422.9 62.5051 421.8 62.2051 356.9L61.9051 291H71.5051H81.0051V341.3C81.0051 383.1 81.3051 392.5 82.5051 396.7C84.4051 403.2 91.0051 410.6 97.5051 413.6L102.505 416H212.205H321.905L322.205 457.2L322.505 498.5L325.005 502.8C328.505 509 334.005 512 341.705 512C347.405 512 348.205 511.7 363.505 502.6C374.905 495.8 379.805 493.4 380.905 494C381.805 494.4 389.005 498.7 396.905 503.4C410.705 511.6 411.605 512 417.305 512C425.005 512 430.205 509.2 433.805 503L436.505 498.5L437.005 450L437.505 401.5L444.205 400.8C457.605 399.5 464.105 395.6 468.905 385.9C471.305 381 472.005 378.4 472.005 373.6C472.005 366.1 474.205 361.2 479.005 358.5C480.905 357.4 484.805 354.2 487.705 351.3C491.705 347.3 493.305 344.9 494.605 340.4C496.905 332.4 496.105 324.6 492.105 317.5C488.205 310.5 488.205 306.6 492.105 298.8C499.505 284.2 495.705 269.2 482.405 260.3C474.105 254.8 472.805 252.6 472.005 242.8C470.605 225.7 461.005 216.4 443.605 215.2C435.805 214.7 435.405 214.5 432.005 211C430.105 208.9 427.105 205.3 425.505 202.9C423.805 200.5 420.305 197.2 417.605 195.5C413.005 192.7 411.905 192.5 403.605 192.5C395.305 192.5 393.905 192.8 388.005 195.7C384.405 197.5 380.505 199 379.205 199C378.005 199 374.105 197.5 370.705 195.7C365.005 192.8 363.705 192.5 355.405 192.5C347.105 192.5 346.005 192.7 341.505 195.5C338.805 197.2 335.105 200.6 333.305 203C325.405 214 325.305 214.1 315.705 215.1C305.305 216.1 301.605 217.6 296.005 222.6C290.105 228 287.805 233 286.905 242.9C286.105 252.2 284.505 255.2 279.005 258.5C277.105 259.6 273.505 262.6 270.905 265.1C262.105 273.8 260.605 286.4 266.805 299.1C268.605 302.7 270.005 306.8 270.005 308.2C270.005 309.6 268.405 314.2 266.405 318.4C263.005 325.5 262.805 326.6 263.205 333.3C263.505 337.8 264.505 342 265.805 344.5C268.005 348.9 274.805 355.5 279.905 358.2C284.205 360.6 286.905 366.8 287.005 374.5C287.105 384.8 292.505 393.5 301.505 397.6L306.505 400H205.905C105.405 400 105.305 400 102.605 397.9C96.9051 393.4 97.0051 394.4 97.0051 340.5V291H103.905C112.705 291 116.005 288.8 116.005 283C116.005 276.8 113.305 275 104.305 275H97.0051V189.6V104.2L104.605 103.8C111.105 103.5 112.505 103.1 114.105 101.1C116.605 98 116.605 92.6 114.005 90C112.405 88.4 110.705 88 104.505 88H97.0051V56.7C97.0051 27.5 97.1051 25.3 99.0051 22.3C100.005 20.5 102.105 18.3 103.705 17.3C106.305 15.6 113.205 15.5 248.005 15.5C384.405 15.5 389.605 15.6 392.605 17.4C398.805 21.1 398.505 16.9 399.005 95.6C399.505 164.8 399.605 167.9 401.405 169.9C404.005 172.7 410.205 172.8 413.005 170C415.005 168 415.005 166.7 415.005 94.7V21.3L411.905 15C408.605 8.6 403.305 3.8 396.705 1.3C394.305 0.4 356.805 0.1 248.005 0.1L102.505 0L97.5051 2.4ZM81.0051 67.5V88H71.5051H62.0051V73.5C62.0051 62.6 62.4051 58.1 63.6051 55.1C65.7051 49.9 70.1051 47 76.3051 47H81.0051V67.5ZM81.0051 189.5V275H71.5051H62.0051V201.6V128.1L59.4051 126.1C56.4051 123.7 54.2051 123.5 50.6051 125.1C47.2051 126.7 46.7051 128.2 46.0051 138.3L45.5051 147.1L41.5051 144.1C30.8051 136.3 29.1051 121.4 37.8051 111.8C44.0051 104.9 47.1051 104 65.3051 104H81.0051V189.5ZM365.205 211.2C370.705 214.1 372.305 214.5 379.505 214.5C386.705 214.5 388.305 214.1 393.805 211.2C403.705 206.1 409.605 207.3 414.405 215.4C420.205 225.4 429.205 231 439.305 231C451.105 231 455.105 234.6 456.105 246.1C457.205 259.1 461.305 266.2 471.105 272.5C480.805 278.7 482.005 283.1 476.805 293.2C474.105 298.3 473.405 300.7 473.105 307.2C472.805 314.6 473.005 315.6 476.405 322.5C478.405 326.5 480.005 330.9 480.005 332.2C480.005 335.6 476.405 340.9 472.805 342.8C462.905 348.1 457.105 357.4 456.305 369C455.605 381 451.905 384.6 439.505 385.3C428.705 385.9 419.405 391.6 414.905 400.2C412.705 404.5 409.005 407.6 404.905 408.5C402.705 409 400.205 408.3 394.505 405.5C388.005 402.2 386.105 401.8 379.605 401.7C373.005 401.7 371.305 402.1 364.805 405.3C360.705 407.4 356.505 409 355.405 409C352.005 409 347.205 405.2 343.705 399.7C337.705 390.3 330.105 385.9 319.005 385.2C314.905 385 310.305 384.1 308.805 383.4C305.305 381.6 303.005 377.2 303.005 372.1C303.005 361.3 298.305 351.2 290.905 346.3C278.205 337.7 276.605 333.6 282.105 323C285.205 317.2 285.505 315.9 285.505 308.1C285.505 300.4 285.105 298.8 282.205 293.3C280.505 289.9 279.005 285.8 279.005 284.3C279.005 280.2 282.405 275.4 286.705 273.1C296.005 268.3 301.805 258.7 302.705 246.4C303.605 234.9 307.905 231 319.705 231C329.605 230.9 339.505 224.7 344.105 215.7C346.505 211.2 351.305 208 355.705 208C357.505 208 361.805 209.5 365.205 211.2ZM46.0051 313.6V334.1L42.9051 332.3C39.2051 330.2 35.6051 325.8 33.5051 320.7C30.3051 313.1 32.3051 304.7 39.0051 297.8C41.6051 295.1 44.2051 293 44.8051 293C45.7051 293 46.0051 298.4 46.0051 313.6ZM391.105 421.6C402.205 425.9 407.505 425.9 415.805 421.7L421.005 419.1V456.3C421.005 494.1 420.805 496 417.405 496C416.705 496 408.605 491.5 399.305 485.9C387.805 479 381.605 475.8 379.505 475.8C377.405 475.8 371.205 479 359.705 485.9C350.405 491.5 342.305 496 341.605 496C338.205 496 338.005 494.1 338.005 456.3V419.1L343.105 421.8C350.805 425.8 360.205 425.6 369.005 421.3C372.605 419.6 376.905 418.1 378.605 418.1C380.405 418 386.005 419.6 391.105 421.6Z" fill="#137AB6"/>
<path d="M366.702 228.1C346.702 231 324.502 244.8 313.102 261.3C308.402 268.1 302.502 281.3 300.402 289.5C297.902 299.6 298.102 317.9 300.902 328.5C308.202 356.1 329.002 377.4 357.002 386.2C363.402 388.2 366.602 388.5 379.002 388.5C395.602 388.5 401.802 387.2 414.502 381.1C437.002 370.3 452.802 350.6 458.502 326C460.702 316.3 460.502 298.2 458.002 288.4C454.202 273.8 447.402 261.7 436.802 251.1C418.302 232.6 392.802 224.3 366.702 228.1ZM391.802 244.5C396.002 245.4 403.302 247.9 408.002 250.2C419.402 255.7 431.802 267.9 437.202 279C442.902 290.6 444.302 297.5 443.702 311C443.202 323.8 441.102 331.2 434.902 341.7C430.602 349 420.002 359.5 412.802 363.8C393.302 375.3 370.002 376 349.702 365.7C338.602 360 328.002 349.5 322.302 338.5C316.602 327.4 314.702 319.6 314.702 307.5C314.802 280.9 331.002 257.9 356.802 247.4C367.702 243 379.402 242.1 391.802 244.5Z" fill="#137AB6"/>
<path d="M374.303 269.4C372.403 270.3 369.003 273.7 366.003 277.9C360.903 284.9 360.903 284.9 352.503 287.5C336.703 292.3 334.203 300.6 344.403 313.9L349.003 319.8V329C349.003 339.3 350.403 343.1 355.003 345.5C359.103 347.6 363.503 347.4 371.603 344.7L378.503 342.3L387.203 345.4C395.503 348.4 396.003 348.4 400.203 347C406.903 344.6 409.003 340.7 409.003 330.1V321.5L414.503 314.2C419.403 307.6 420.003 306.4 420.003 302C420.003 294.6 416.303 290.9 406.303 288C398.603 285.8 398.403 285.7 394.003 279.2C391.503 275.6 388.403 271.8 387.003 270.8C383.503 268.3 378.203 267.7 374.303 269.4ZM383.103 292.1C386.903 298 389.003 299.6 396.503 301.9L402.103 303.6L398.903 307.6C394.003 313.8 393.003 316.4 393.003 323.5C393.003 327.1 392.803 330 392.703 330C392.503 330 389.703 329.1 386.503 328C379.303 325.5 377.703 325.5 370.803 327.9L365.203 329.8L364.803 321.7C364.503 314.1 364.203 313.1 360.603 308.3C357.903 304.5 357.203 302.9 358.203 302.6C358.903 302.3 361.503 301.6 363.903 301C370.003 299.4 372.403 297.6 376.103 291.9C377.803 289.2 379.303 287 379.503 287C379.703 287 381.303 289.3 383.103 292.1Z" fill="#137AB6"/>
<path d="M283.501 63.9C280.201 65.3 276.101 70 275.101 73.7C274.501 75.8 274.501 82.9 275.101 92.7C275.601 101.3 275.901 108.4 275.701 108.6C275.601 108.7 272.501 107.4 269.001 105.7L262.501 102.5H227.501H192.501L185.801 105.7C170.601 112.9 161.001 127.5 161.001 143.7V149H150.001C140.101 149 138.901 149.2 137.001 151.2C133.201 155.4 134.801 162 140.101 163.9C144.401 165.4 351.701 165.5 355.601 164C361.301 161.8 362.901 155.1 358.701 151.2C356.701 149.3 355.201 149 348.701 149H341.001V144.2C341.001 141.6 341.701 128.2 342.501 114.5C344.501 79.9 344.501 74.3 342.001 70.2C340.901 68.4 338.601 66.1 336.801 65C333.701 63.2 331.701 63 309.501 63.1C296.301 63.1 284.601 63.5 283.501 63.9ZM328.001 83.2C328.001 86.1 327.301 100 326.501 114C325.701 128 325.001 141.6 325.001 144.2V149H309.501H294.001L293.901 145.2C293.901 143.2 293.101 127.5 292.101 110.5C291.101 93.4 290.501 79.2 290.701 78.7C290.901 78.3 299.401 78 309.601 78H328.001V83.2ZM262.401 120.4C271.001 124.7 276.201 132.6 277.501 143.2L278.101 149H227.601H177.001V144.7C177.001 134.7 183.401 124.6 192.401 120.4C197.501 118 197.701 118 228.001 118.2C255.801 118.5 258.801 118.7 262.401 120.4Z" fill="#137AB6"/>
<path d="M201.495 76.4999C196.295 81.5999 199.695 89.9999 206.895 89.9999C211.295 89.9999 213.595 88.5999 214.895 84.9999C217.695 76.6999 207.695 70.2999 201.495 76.4999Z" fill="#137AB6"/>
<path d="M227.5 76.5004C225.8 78.1004 225 80.0004 225 82.5004C225 87.3004 227.9 90.0004 233 90.0004C238.3 90.0004 241 87.3004 241 82.1004C241 74.8004 232.6 71.3004 227.5 76.5004Z" fill="#137AB6"/>
<path d="M137.204 214.3C134.504 217.2 134.404 222 136.904 225.1L138.804 227.5H176.004H213.204L215.104 225.1C217.604 222 217.504 217 215.004 214.2C212.904 212 212.704 212 176.104 212H139.304L137.204 214.3Z" fill="#137AB6"/>
<path d="M137.204 277.3C134.504 280.2 134.404 285 136.904 288.1L138.804 290.5H191.004H243.204L245.104 288.1C247.604 285.1 247.504 280.9 244.904 277.6L242.904 275H191.104H139.304L137.204 277.3Z" fill="#137AB6"/>
<path d="M137 307C135.8 308.2 135 310.3 135 312.5C135 314.7 135.8 316.8 137 318C138.9 319.9 140.3 320 191 320H242.9L245 317.8C246.1 316.6 247 314.3 247 312.5C247 310.7 246.1 308.4 245 307.2L242.9 305H191C140.3 305 138.9 305.1 137 307Z" fill="#137AB6"/>
<path d="M139.3 335C134.6 336.9 133.5 344.2 137.3 347.8C139.4 349.8 140.7 350 150.4 350C156.3 350 162 349.6 163 349C165.5 347.7 167.1 342.5 166 339.6C164.3 335.1 161.4 334 151 334.1C145.8 334.1 140.5 334.5 139.3 335Z" fill="#137AB6"/>
<path d="M188.696 336C185.296 338.7 184.896 344.9 187.996 348C189.896 349.9 191.296 350 216.396 350H242.896L244.896 347.4C247.496 344.1 247.596 339.9 245.096 336.9C243.196 334.5 243.096 334.5 217.296 334.2C192.196 333.9 191.296 334 188.696 336Z" fill="#137AB6"/>
</g>
<defs>
<clipPath id="clip0_363_3526">
<rect width="512" height="512" fill="white"/>
</clipPath>
</defs>
</svg>
