<svg width="512" height="512" viewBox="0 0 512 512" fill="none" xmlns="http://www.w3.org/2000/svg">
<path d="M254.502 17.2004C251.802 18.7004 238.802 31.0004 237.302 33.5004C236.602 34.6004 236.102 36.8004 236.102 38.5004C236.102 42.8004 237.602 44.9004 245.502 52.2004C253.602 59.7004 255.702 61.0005 260.002 61.0005C263.502 61.0005 270.002 55.5004 270.002 52.6004C270.002 50.4004 273.802 50.5004 287.302 53.4004C325.902 61.6004 360.402 80.3005 388.502 108.5C424.302 144.2 444.902 190.3 447.502 240.5C448.302 254.3 449.202 257.5 453.102 259.5C457.902 262 461.802 261.4 465.602 257.6C468.802 254.4 469.002 253.7 469.002 247.8C469.002 217.4 460.202 180.8 445.902 152.1C435.002 130.1 423.602 113.9 406.602 96.2005C381.702 70.4005 350.702 50.8004 317.002 39.6004C304.002 35.2004 281.302 30.0004 275.402 30.0004C271.402 30.0004 270.402 29.1004 269.602 24.8004C268.402 18.0004 260.402 13.9004 254.502 17.2004ZM262.502 24.0004C264.002 25.7004 264.102 26.4004 263.002 29.0004C261.002 33.7004 262.002 34.7004 270.202 35.4004C274.202 35.8004 282.002 37.0004 287.502 38.1004C360.602 52.5004 420.902 103 448.302 172.6C456.802 194.1 463.002 225.7 463.002 247.2C463.002 253.5 460.002 256.5 456.102 254.1C455.002 253.4 454.302 249 453.402 237.3C449.202 184.6 429.002 140 393.002 104C361.702 72.6005 323.602 53.1004 279.702 45.9004C264.202 43.4004 262.502 43.6004 263.402 48.2004C264.002 51.5004 262.002 55.0004 259.402 55.0004C257.702 55.0004 243.802 42.6004 242.602 40.1004C242.202 39.0004 242.202 37.6004 242.602 36.8004C244.302 34.1004 257.902 22.0004 259.302 22.0004C260.102 22.0004 261.502 22.9004 262.502 24.0004Z" fill="#137AB6"/>
<path d="M124.902 44.099C102.802 45.999 83.5023 54.899 66.6023 70.999C56.9023 80.299 51.3023 87.999 45.5023 100.199C27.3023 138.599 36.2023 184.599 67.3023 213.699C79.0023 224.599 91.5023 231.699 107.502 236.599C115.902 239.199 117.802 239.399 134.502 239.399L152.502 239.499L152.602 251.999C152.602 261.699 153.102 266.299 154.802 272.299C164.702 307.599 194.402 333.799 230.202 339.099C237.802 340.199 254.602 339.899 258.102 338.499C259.302 338.099 259.402 339.299 258.602 347.099C255.502 376.399 267.302 406.999 289.302 427.699C301.002 438.599 313.502 445.699 329.502 450.599C337.802 453.099 339.902 453.399 356.002 453.399C371.402 453.499 374.502 453.199 381.402 451.199C400.102 445.799 414.902 437.099 427.102 424.299C439.602 411.099 448.002 396.199 452.202 379.399C455.402 366.799 455.402 345.299 452.202 332.699C441.902 291.499 407.302 261.599 366.102 258.199C356.802 257.399 343.602 257.999 335.602 259.499L331.702 260.299L332.302 254.899C332.902 248.199 331.602 234.499 329.502 226.499C322.202 198.699 298.202 173.299 270.802 164.199C260.002 160.599 245.402 158.599 237.002 159.599L231.302 160.199L232.202 154.399C233.602 146.199 232.502 128.099 230.002 118.199C221.802 84.399 195.702 57.099 162.502 47.499C157.802 46.199 150.902 44.799 147.202 44.499C143.502 44.199 138.902 43.7991 137.002 43.5991C135.102 43.3991 129.602 43.599 124.902 44.099ZM143.502 49.999C163.402 52.299 179.702 59.299 195.402 72.399C215.702 89.399 228.502 120.099 226.702 147.399C225.102 170.999 215.102 192.099 197.802 208.599C180.102 225.399 158.702 233.999 134.502 233.999C110.302 233.999 88.9023 225.399 71.2023 208.599C58.2023 196.299 49.6023 181.599 44.9023 163.999C41.7023 152.099 41.7023 131.199 44.9023 119.499C49.1023 103.999 58.1023 88.199 69.1023 77.099C86.1023 59.999 106.002 51.299 133.002 49.099C133.802 49.099 138.602 49.499 143.502 49.999ZM262.502 168.099C296.502 176.999 322.302 206.699 325.802 241.399C326.302 245.799 326.402 252.299 326.102 255.799L325.502 262.099L317.902 265.399C308.902 269.199 304.502 271.799 297.002 277.599C290.202 282.699 279.502 293.899 275.202 300.199C271.002 306.399 264.302 320.199 262.402 326.699C260.902 331.799 260.802 331.899 256.202 332.699C247.002 334.299 230.102 333.499 221.702 331.199C184.902 320.799 158.002 286.599 158.002 249.999C158.002 238.899 158.602 237.399 163.302 235.999C177.402 231.899 191.702 223.399 202.702 212.699L209.902 205.799L208.102 210.599C202.402 225.699 206.002 243.099 217.002 253.399C223.502 259.499 228.702 261.699 238.702 262.899C251.702 264.299 257.002 268.999 257.002 278.799C257.002 282.799 256.502 284.499 254.402 286.999C250.902 291.099 247.002 292.999 241.802 292.999C233.802 292.999 228.502 287.999 227.102 279.199C226.002 272.399 223.802 269.299 219.002 267.899C215.602 266.899 214.402 266.899 211.502 268.299C206.102 270.899 204.702 273.899 205.202 281.899C206.102 294.599 213.102 305.299 224.502 311.099C229.902 313.899 231.002 314.899 231.002 316.999C231.002 320.699 234.102 326.299 237.002 327.699C241.602 329.999 245.902 329.299 249.602 325.599C252.302 322.899 253.002 321.399 253.002 318.199C253.002 314.399 253.202 314.199 257.802 312.499C260.802 311.299 264.702 308.399 268.602 304.599C276.502 296.699 279.302 289.899 279.302 278.499C279.302 267.799 276.602 260.799 269.402 253.099C262.802 245.899 255.202 242.299 244.402 240.999C233.602 239.799 228.202 235.399 227.302 226.899C226.102 214.899 239.102 206.999 250.002 213.099C254.602 215.699 256.602 218.999 257.502 225.699C258.502 232.999 261.602 235.999 268.202 235.999C274.302 235.999 277.702 233.899 279.102 229.099C280.502 224.399 278.902 215.499 275.402 208.299C272.402 201.999 263.702 193.799 257.502 191.499C253.202 189.799 253.002 189.499 253.002 185.799C253.002 182.599 252.302 181.099 249.602 178.399C245.902 174.699 241.602 173.999 237.002 176.299C234.102 177.699 231.002 183.299 231.002 187.099C231.002 189.299 230.202 189.999 226.702 191.399C224.302 192.299 220.402 194.699 218.102 196.599L213.902 200.199L217.002 195.599C220.802 189.999 227.402 175.899 228.902 170.299C230.002 166.299 230.302 166.099 234.302 165.699C241.402 164.999 255.102 166.099 262.502 168.099ZM245.002 181.999C245.902 182.499 246.702 185.099 247.002 188.599L247.502 194.199L252.602 196.099C258.402 198.299 265.802 204.299 268.902 209.399C270.002 211.199 271.702 215.499 272.602 218.999C274.602 226.699 273.602 229.999 269.302 229.999C265.302 229.999 264.302 228.999 263.502 224.499C261.902 214.999 258.702 210.299 251.302 206.599C244.702 203.299 232.802 205.099 227.102 210.299C219.202 217.599 219.102 232.199 226.802 240.299C230.802 244.599 234.302 245.999 243.002 246.999C252.102 247.999 258.702 250.999 264.402 256.699C272.702 264.899 275.502 277.399 271.602 288.999C269.002 296.399 260.602 304.899 253.002 307.699L247.502 309.799L247.002 315.399C246.002 326.399 237.002 325.399 237.002 314.299V310.099L229.602 306.599C220.902 302.399 216.002 297.299 213.002 289.299C210.302 281.999 210.302 276.599 213.202 274.599C216.102 272.599 216.602 272.599 219.002 274.999C220.202 276.199 221.002 278.399 221.002 280.199C221.002 284.299 224.002 290.799 227.102 293.699C233.002 299.099 244.702 300.699 251.902 297.099C257.002 294.499 261.802 288.799 262.602 284.499C263.802 278.199 262.602 270.399 259.702 266.199C256.402 261.099 248.402 256.999 242.002 256.999C233.402 256.999 227.202 254.399 221.002 248.199C214.102 241.199 211.502 234.899 211.602 224.399C211.602 218.799 212.102 216.299 214.302 211.699C217.702 204.799 224.302 198.899 231.202 196.399L236.502 194.499L237.002 189.399C237.802 181.999 240.702 179.299 245.002 181.999ZM365.502 263.999C385.402 266.299 401.702 273.299 417.402 286.399C437.702 303.399 450.502 334.099 448.702 361.399C447.102 384.999 437.102 406.099 419.802 422.599C402.102 439.399 380.702 447.999 356.502 447.999C332.302 447.999 310.902 439.399 293.202 422.599C280.202 410.299 271.602 395.599 266.902 377.999C263.702 365.999 263.602 346.199 266.802 333.999C270.902 318.199 279.902 302.399 291.102 291.099C308.102 273.999 328.002 265.299 355.002 263.099C355.802 263.099 360.602 263.499 365.502 263.999Z" fill="#137AB6"/>
<path d="M123.2 83.3C121.1 85.5 121 86.5 121 105.3V125H96.7C72.5 125 72.3 125 70.2 127.3C68 129.6 68 130.1 68 165.1V200.7L70.3 202.8L72.6 205H134.6H196.7L198.8 202.7L201 200.4V142.9V85.3L198.7 83.2C196.4 81 195.9 81 160.9 81H125.3L123.2 83.3ZM194.5 143V198.5L185.8 198.8L177 199.1V181.6C177 172 176.7 163.5 176.4 162.6C175.5 160.2 146.5 160.2 145.6 162.6C145.3 163.5 145 172 145 181.6V199H136H127V143.7C127 113.2 127.3 88 127.7 87.7C128.1 87.3 143.2 87.1 161.4 87.2L194.5 87.5V143ZM120 134.5V137.9L112.8 138.2C105.8 138.5 105.5 138.6 105.5 141C105.5 143.4 105.8 143.5 112.8 143.8L120 144.1V147.5V150.9L112.8 151.2C105.8 151.5 105.5 151.6 105.5 154C105.5 156.4 105.8 156.5 112.8 156.8L120 157.1V162V167H112.6C108.5 167 104.5 167.3 103.6 167.6C102.2 168.1 102 170.5 102 183.6V199.1L88.3 198.8L74.5 198.5L74.2 166C74.1 148.1 74.2 133 74.5 132.3C74.8 131.3 80.3 131 97.5 131H120V134.5ZM171 183V199H161H151V183V167H161H171V183ZM119 186V199H113.5H108V186V173H113.5H119V186Z" fill="#137AB6"/>
<path d="M146.006 99.5C145.306 100.3 145.006 101.7 145.406 102.5C145.806 103.7 148.506 104 160.906 104C173.706 104 175.906 103.8 176.406 102.4C177.806 98.7 175.306 98 161.006 98C150.006 98 147.006 98.3 146.006 99.5Z" fill="#137AB6"/>
<path d="M146.501 114.4C145.401 115.2 144.901 116.3 145.301 117.4C145.901 118.8 147.901 119 160.901 119C173.101 119 175.901 118.7 176.401 117.5C176.701 116.7 176.201 115.4 175.401 114.5C173.301 112.4 149.301 112.3 146.501 114.4Z" fill="#137AB6"/>
<path d="M145.307 130.6C144.007 134 147.707 135 161.107 135C171.207 135 174.207 134.7 175.407 133.5C176.207 132.6 176.707 131.3 176.407 130.5C175.907 129.3 173.107 129 160.907 129C147.907 129 145.907 129.2 145.307 130.6Z" fill="#137AB6"/>
<path d="M145.406 145.5C145.006 146.3 145.306 147.7 146.006 148.5C147.006 149.7 150.006 150 161.006 150C175.306 150 177.806 149.3 176.406 145.6C175.906 144.2 173.706 144 160.906 144C148.506 144 145.806 144.3 145.406 145.5Z" fill="#137AB6"/>
<path d="M79.4047 139.499C79.1047 140.299 79.1047 141.699 79.4047 142.499C79.9047 143.799 81.6047 143.999 89.2047 143.799C98.4047 143.499 98.5047 143.499 98.5047 140.999C98.5047 138.499 98.4047 138.499 89.2047 138.199C81.6047 137.999 79.9047 138.199 79.4047 139.499Z" fill="#137AB6"/>
<path d="M79.4047 152.499C79.1047 153.299 79.1047 154.699 79.4047 155.499C79.9047 156.799 81.6047 156.999 89.2047 156.799C98.4047 156.499 98.5047 156.499 98.5047 153.999C98.5047 151.499 98.4047 151.499 89.2047 151.199C81.6047 150.999 79.9047 151.199 79.4047 152.499Z" fill="#137AB6"/>
<path d="M345.2 297.3C343.1 299.5 343 300.5 343 319.3V339H318.7C294.5 339 294.3 339 292.2 341.3C290 343.6 290 344.1 290 379.1V414.7L292.3 416.8L294.6 419H356.6H418.7L420.8 416.7L423 414.4V356.9V299.3L420.7 297.2C418.4 295 417.9 295 382.9 295H347.3L345.2 297.3ZM416.5 357V412.5L407.8 412.8L399 413.1V395.6C399 386 398.7 377.5 398.4 376.6C397.5 374.2 368.5 374.2 367.6 376.6C367.3 377.5 367 386 367 395.6V413H358H349V357.7C349 327.2 349.3 302 349.7 301.7C350.1 301.3 365.2 301.1 383.4 301.2L416.5 301.5V357ZM342 348.5V351.9L334.8 352.2C327.8 352.5 327.5 352.6 327.5 355C327.5 357.4 327.8 357.5 334.8 357.8L342 358.1V361.5V364.9L334.8 365.2C327.8 365.5 327.5 365.6 327.5 368C327.5 370.4 327.8 370.5 334.8 370.8L342 371.1V376V381H334.6C330.5 381 326.5 381.3 325.6 381.6C324.2 382.1 324 384.5 324 397.6V413.1L310.3 412.8L296.5 412.5L296.2 380C296.1 362.1 296.2 347 296.5 346.3C296.8 345.3 302.3 345 319.5 345H342V348.5ZM393 397V413H383H373V397V381H383H393V397ZM341 400V413H335.5H330V400V387H335.5H341V400Z" fill="#137AB6"/>
<path d="M368.006 313.5C367.306 314.3 367.006 315.7 367.406 316.5C367.806 317.7 370.506 318 382.906 318C395.706 318 397.906 317.8 398.406 316.4C399.806 312.7 397.306 312 383.006 312C372.006 312 369.006 312.3 368.006 313.5Z" fill="#137AB6"/>
<path d="M368.501 328.4C367.401 329.2 366.901 330.3 367.301 331.4C367.901 332.8 369.901 333 382.901 333C395.101 333 397.901 332.7 398.401 331.5C398.701 330.7 398.201 329.4 397.401 328.5C395.301 326.4 371.301 326.3 368.501 328.4Z" fill="#137AB6"/>
<path d="M367.307 344.6C366.007 348 369.707 349 383.107 349C393.207 349 396.207 348.7 397.407 347.5C398.207 346.6 398.707 345.3 398.407 344.5C397.907 343.3 395.107 343 382.907 343C369.907 343 367.907 343.2 367.307 344.6Z" fill="#137AB6"/>
<path d="M367.406 359.5C367.006 360.3 367.306 361.7 368.006 362.5C369.006 363.7 372.006 364 383.006 364C397.306 364 399.806 363.3 398.406 359.6C397.906 358.2 395.706 358 382.906 358C370.506 358 367.806 358.3 367.406 359.5Z" fill="#137AB6"/>
<path d="M301.405 353.499C301.105 354.299 301.105 355.699 301.405 356.499C301.905 357.799 303.605 357.999 311.205 357.799C320.405 357.499 320.505 357.499 320.505 354.999C320.505 352.499 320.405 352.499 311.205 352.199C303.605 351.999 301.905 352.199 301.405 353.499Z" fill="#137AB6"/>
<path d="M301.405 366.499C301.105 367.299 301.105 368.699 301.405 369.499C301.905 370.799 303.605 370.999 311.205 370.799C320.405 370.499 320.505 370.499 320.505 367.999C320.505 365.499 320.405 365.499 311.205 365.199C303.605 364.999 301.905 365.199 301.405 366.499Z" fill="#137AB6"/>
<path d="M29.0975 241.399C23.7975 244.299 22.9975 250.999 25.0975 272.599C31.5975 339.399 68.1975 399.699 124.997 436.999C150.897 453.999 182.497 465.899 214.497 470.599L225.997 472.399V475.299C225.997 477.299 227.097 479.299 229.397 481.599C235.697 487.899 241.197 485.799 254.497 472.099C258.997 467.499 259.497 466.499 259.497 462.499C259.497 458.499 258.997 457.499 254.497 452.899C246.397 444.499 240.197 439.999 236.897 439.999C231.097 439.999 225.997 444.499 225.997 449.499C225.997 451.399 226.397 451.399 212.797 448.999C155.497 439.199 105.697 405.399 74.6975 355.299C56.9975 326.599 46.9975 293.999 45.2975 259.499C44.6975 246.499 44.6975 246.499 41.3975 243.199C37.8975 239.699 33.3975 238.999 29.0975 241.399ZM37.3975 247.599C38.4975 248.599 38.9975 250.999 38.9975 254.999C38.9975 272.299 43.1975 296.499 49.5975 315.999C69.2975 375.899 117.297 424.999 176.797 446.099C193.597 451.999 221.697 457.799 229.497 456.799C232.297 456.499 232.497 456.199 232.497 452.199C232.497 447.999 233.897 446.099 236.797 445.999C238.397 445.999 253.997 460.899 253.997 462.499C253.997 464.199 238.397 478.999 236.597 478.999C234.697 478.999 231.997 476.299 231.997 474.399C231.997 473.599 232.597 472.099 233.297 470.899C234.297 469.199 234.197 468.699 232.597 467.399C231.497 466.599 228.997 465.999 227.097 465.999C220.497 465.999 199.497 462.099 187.397 458.599C101.297 433.799 39.9975 360.299 30.9975 271.099C29.0975 251.799 29.8975 245.999 34.4975 245.999C35.1975 245.999 36.5975 246.699 37.3975 247.599Z" fill="#137AB6"/>
</svg>
