<svg width="512" height="512" viewBox="0 0 512 512" fill="none" xmlns="http://www.w3.org/2000/svg">
<path d="M248.101 6.5C241.301 12.3 204.401 54.3 203.201 57.7C201.501 62.5 203.101 68.1 207.101 71.4C209.801 73.7 211.101 74 217.601 74H225.001V144.8V215.7L220.801 217.6C212.601 221.2 202.501 228.7 195.301 236.3L188.001 244V214.1V184.2L195.901 183.9C202.601 183.5 204.201 183.1 206.401 181.1C209.601 178.1 211.401 172.8 210.601 168.6C209.701 163.8 166.201 115.6 161.401 114C156.901 112.5 152.601 113.5 148.601 117.1C144.201 120.9 106.801 162.6 105.301 165.3C103.601 168.3 103.701 174.5 105.501 178C107.701 182.2 111.801 184 119.501 184H126.001V236.6C126.001 294.8 125.901 294.2 132.401 298.1C135.101 299.8 137.701 300 153.701 300H171.901L172.501 303.7C174.501 316.8 178.301 327.9 184.101 337.7C187.501 343.4 201.901 358.8 207.501 362.8L210.501 364.9L197.501 365C182.001 365 178.201 366.5 174.301 373.9C172.201 377.9 172.001 379.6 172.001 393.2C172.001 403.9 172.401 409 173.401 411.5C174.701 414.6 174.701 415.4 173.401 418.5C171.401 423.3 171.401 449.7 173.401 454.5C174.701 457.6 174.701 458.4 173.401 461.6C172.201 464.5 171.901 468.6 172.201 481C172.501 496 172.601 496.8 175.201 500.7C180.301 508.4 176.101 508 256.001 508C335.901 508 331.701 508.4 336.801 500.7C339.401 496.8 339.501 496 339.801 481C340.101 468.6 339.801 464.5 338.601 461.6C337.301 458.4 337.301 457.6 338.601 454.5C340.601 449.7 340.601 423.3 338.601 418.5C337.301 415.4 337.301 414.6 338.601 411.5C339.601 409 340.001 403.9 340.001 393.2C340.001 379.6 339.801 377.9 337.701 373.9C333.801 366.5 330.001 365 314.501 365L301.501 364.9L304.501 362.8C310.301 358.5 320.301 348.4 324.601 342.4C332.001 332.1 337.201 318.5 339.501 303.7L340.101 300H358.101C377.701 300 380.101 299.5 383.601 294.3C385.401 291.6 385.501 288.6 385.801 237.7L386.101 184H392.601C400.201 184 404.301 182.2 406.501 178C408.301 174.5 408.401 168.3 406.701 165.3C405.201 162.6 367.801 120.9 363.401 117.1C361.601 115.5 358.801 113.9 357.101 113.5C350.501 112.1 348.301 113.8 325.501 139.2C313.601 152.4 303.101 164.7 302.301 166.5C300.201 170.8 301.301 176.1 305.001 180.3C307.701 183.3 308.301 183.5 315.901 183.8L324.001 184.2V214.1V244L317.301 236.9C309.801 228.9 301.401 222.6 292.801 218.4L287.001 215.6V144.8V74H294.401C300.901 74 302.201 73.7 304.901 71.4C308.901 68.1 310.501 62.5 308.801 57.7C307.601 54.3 270.701 12.3 263.901 6.5C259.601 3 252.401 3 248.101 6.5ZM273.601 39.3L290.801 58.5L283.301 59.1C270.901 60 272.001 52.1001 272.001 137.4V210.5H256.001H240.001V137.4C240.001 52.1001 241.101 60 228.701 59.1L221.201 58.5L238.401 39.3C247.801 28.8 255.701 20.1 256.001 20.1C256.301 20.1 264.201 28.8 273.601 39.3ZM175.101 149.5L192.101 168.5L184.601 169C172.501 169.8 173.601 164 173.001 229.3L172.501 285.5L156.801 285.8L141.001 286.1V229.7C141.001 164 142.101 169.9 129.501 169L122.201 168.5L139.401 149.3C148.801 138.8 156.801 130.2 157.201 130.3C157.701 130.4 165.701 139 175.101 149.5ZM372.601 149.3L389.801 168.5L382.501 169C369.901 169.9 371.001 164 371.001 229.7V286.1L355.301 285.8L339.501 285.5L339.001 229.3C338.401 164 339.501 169.8 327.401 169L319.901 168.5L337.201 149.2C346.701 138.7 354.701 130 355.001 130.1C355.301 130.1 363.201 138.8 372.601 149.3ZM276.501 228.4C287.501 231.9 296.101 237.2 304.401 245.6C312.801 253.9 318.101 262.5 321.601 273.5C323.801 280.2 324.201 283.5 324.301 294C324.401 305 324.101 307.4 321.701 314.5C318.001 325.6 312.701 334.2 304.401 342.4C296.201 350.7 287.601 356 276.501 359.7C269.601 362 266.901 362.4 256.001 362.4C245.101 362.4 242.401 362 235.501 359.7C224.401 356 215.801 350.7 207.601 342.4C199.301 334.2 194.001 325.6 190.301 314.5C187.901 307.4 187.601 305 187.701 294C187.801 283.5 188.201 280.2 190.401 273.5C198.101 249.5 217.101 232.3 242.501 226.4C251.501 224.3 266.601 225.2 276.501 228.4ZM324.801 393C325.001 403.9 324.801 405.6 323.301 406.7C321.101 408.4 192.001 408.6 188.901 407C187.201 406 187.001 404.8 187.001 393.6C187.001 386.9 187.301 381 187.701 380.7C188.001 380.3 219.001 380.1 256.401 380.2L324.501 380.5L324.801 393ZM324.801 436C325.001 446.9 324.801 448.6 323.301 449.7C321.101 451.4 192.001 451.6 188.901 450C187.201 449 187.001 447.8 187.001 436.6C187.001 429.9 187.301 424 187.701 423.7C188.001 423.3 219.001 423.1 256.401 423.2L324.501 423.5L324.801 436ZM323.101 466C324.801 467 325.001 468.2 325.001 479.5C325.001 490.8 324.801 492 323.101 493C320.401 494.4 191.601 494.4 188.901 493C187.201 492 187.001 490.8 187.001 479.5C187.001 468.7 187.201 467 188.801 466.1C191.201 464.7 320.401 464.6 323.101 466Z" fill="#137AB6"/>
<path d="M240.5 232.6C229.9 235.2 220.3 240.7 211.9 249C199 261.7 193 276.1 193 293.9C193 312 198.8 325.9 211.5 338.5C224.1 351.2 238.1 357 256 357C273.9 357 287.9 351.2 300.5 338.5C313.2 325.9 319 312 319 293.9C319 276.4 313 261.8 300.6 249.4C288 236.8 273.5 230.9 255.6 231.1C250.6 231.1 243.8 231.8 240.5 232.6ZM273 248.8C284.7 253.5 296.7 265.4 301.1 277C302.3 280.1 303.4 286 303.7 290.5C304.7 305.8 300.6 316.6 289.6 327.6C279.4 337.8 269.7 342 256 342C242.3 342 232.6 337.8 222.4 327.6C212.2 317.4 208.1 307.7 208 294C207.9 273.1 221.6 254.5 242 247.8C249.7 245.3 265.3 245.8 273 248.8Z" fill="#137AB6"/>
<path d="M252.5 252.2C249.6 253.8 249.7 253.7 249.1 258.2C248.6 261.7 248.1 262.5 245.6 263.1C232 266.8 227.1 284.5 237.2 293.6C240.6 296.8 243.5 298.1 252.9 300.6C261.3 302.9 266 305.2 266 307C266 309.5 260.9 311.2 255.1 310.8C250 310.4 248.6 309.9 245.1 306.7C242.6 304.5 240 303 238.5 303C235.4 303 231 307.1 231 310C231 315.6 238.8 323.3 245.6 324.6C248.8 325.2 249 325.5 249 329C249 332 249.6 333.3 251.6 334.9C255 337.5 257 337.5 260.4 334.9C262.3 333.4 263 331.9 263 329.5C263 326.5 263.4 326 266.8 325C283.3 319.7 285.9 300.1 271.2 291.3C268.3 289.6 262.7 287.4 258.7 286.5C250.7 284.6 247 282.7 247 280.5C247 278 251 276.8 257.2 277.2C262.3 277.6 263.5 278.1 266 280.8C269.6 284.8 274 285.1 277.5 281.5C283.4 275.7 277.5 266.9 264.8 262.7C263.6 262.3 263 261 263 258.8C263 254.9 262.3 253.7 259.3 252.1C256.6 250.7 255.1 250.7 252.5 252.2Z" fill="#137AB6"/>
<path d="M51.3 226.2C49.3 227.2 11.2 268.7 6.3 275.4C4.7 277.4 4 279.8 4 282.7C4 291.8 9.1 296 19.9 296H26V325.2C26 357.4 26.3 359 32.3 363.4C35 365.4 36.5 365.5 56.9 365.5C81 365.5 82.1 365.2 86 358.7C87.9 355.7 88 353.5 88 325.7V296H94C103.7 296 108.6 293 110.3 285.8C111.8 279.8 110.3 277.6 87.4 252.2C75.2 238.5 64 226.9 62.5 226.2C59.4 224.8 54.3 224.7 51.3 226.2ZM75 261.2L92.4 280.5L84.7 280.8C72.5 281.3 73 279.5 73 318.6V351H57H41V318.2C41 285.4 41 285.3 38.7 283.2C36.9 281.5 35 281 29.2 280.8L21.9 280.5L39.2 261.2C48.7 250.7 56.7 242 57.1 242C57.4 242 65.5 250.7 75 261.2Z" fill="#137AB6"/>
<path d="M449.199 226.2C447.899 226.9 436.799 238.5 424.499 252.2C399.699 279.8 398.899 281.2 402.699 288.8C405.299 293.8 409.899 296 417.799 296H423.999V325.7C423.999 367.3 422.599 365.5 455.099 365.5C487.299 365.5 485.999 367.2 485.999 325.2V296H492.099C502.899 296 507.999 291.8 507.999 282.7C507.999 279.8 507.299 277.4 505.799 275.4C500.199 267.9 462.599 227.1 460.399 226.1C457.299 224.7 452.199 224.8 449.199 226.2ZM473.099 261.5L490.099 280.5L482.799 280.8C476.999 281 475.099 281.5 473.299 283.2C470.999 285.3 470.999 285.4 470.999 318.2V351H454.999H438.999V318.6C438.999 279.5 439.499 281.3 427.299 280.8L419.599 280.5L436.999 261.2C446.499 250.6 454.699 242.1 455.199 242.2C455.599 242.4 463.699 251 473.099 261.5Z" fill="#137AB6"/>
<path d="M57.0029 380.701C42.7029 383.101 27.8029 391.801 17.9029 403.701C12.7029 410.001 6.40291 422.901 5.00291 430.701C3.10291 440.501 4.10291 457.101 7.20291 465.701C13.7029 483.901 28.6029 498.701 47.0029 505.101C55.8029 508.201 73.8029 508.901 83.1029 506.601C104.603 501.201 122.003 485.101 129.003 464.001C132.003 455.001 132.703 440.701 130.603 431.001C124.303 401.201 97.4029 379.701 67.0029 380.201C62.9029 380.201 58.4029 380.501 57.0029 380.701ZM79.5029 396.501C88.4029 398.901 96.2029 403.501 103.003 410.601C117.803 426.001 121.003 446.801 111.403 466.401C105.803 477.801 94.5029 487.301 81.8029 491.101C76.2029 492.801 73.0029 493.201 65.1029 492.801C55.9029 492.501 54.6029 492.101 46.8029 488.301C36.0029 482.901 28.4029 475.201 23.2029 464.301C19.9029 457.301 19.5029 455.501 19.2029 446.801C18.7029 435.101 20.9029 426.601 26.8029 417.401C38.0029 400.101 59.9029 391.401 79.5029 396.501Z" fill="#137AB6"/>
<path d="M63 402.8C61.7 403.9 60.5 406.3 60.1 408.5C59.6 411.7 59 412.5 56.2 413.4C45.1 417.2 40.1 428.4 45.1 438.8C47.9 444.4 52.7 447.6 63.2 450.5C77.6 454.4 81.2 457.6 75 460.7C69.4 463.5 60.7 461.6 56.1 456.6C53.3 453.6 48.7 453.1 45.2 455.6C43.6 456.7 43 458.1 43 461C43 466.2 47.3 471.1 54.5 474.1C59 475.9 60 476.8 60 478.7C60 481.4 61.7 485.1 63.4 486.2C64 486.6 66.1 487 68.1 487C72.6 487 75 484.5 75 479.8C75 476.6 75.3 476.2 78.2 475.6C86.3 474 93 465.8 93 457.5C93 452 89.6 445.7 85 442.6C81.4 440.2 73.9 437.5 64.4 435C56.5 433 56.4 429.1 64.1 427C69.3 425.6 74.8 427.1 78.5 431C82.1 434.8 86.1 435 89.5 431.5C94.6 426.5 91.1 419.3 81.2 414.5C75.6 411.7 75 411.2 75 408.2C75 401.9 68 398.8 63 402.8Z" fill="#137AB6"/>
<path d="M430.001 381.5C412.001 385.5 395.201 398.7 387.101 415C371.101 447.6 383.601 485.8 415.501 501.5C426.301 506.9 433.401 508.3 446.901 507.8C456.101 507.5 460.001 506.9 465.701 504.8C483.901 498.3 498.501 483.5 505.201 465C507.201 459.4 507.501 456.6 507.501 444.5C507.501 432.5 507.201 429.6 505.201 423.9C498.601 404.8 483.001 389.3 464.001 383C455.501 380.2 439.101 379.4 430.001 381.5ZM454.201 396.1C471.301 399.6 486.001 413.2 491.101 430.2C492.801 435.8 493.201 439 492.801 446.8C492.501 455.5 492.101 457.3 488.801 464.3C483.601 475.2 476.001 482.9 465.201 488.3C457.401 492.1 456.101 492.5 446.901 492.8C434.901 493.3 426.301 491 417.101 484.9C390.801 467.3 387.501 431.1 410.401 409.2C422.701 397.4 438.101 392.8 454.201 396.1Z" fill="#137AB6"/>
<path d="M439 402.999C437.8 404.199 437 406.299 437 408.199C437 411.199 436.5 411.699 431.1 414.299C424.5 417.299 421.2 421.099 419.9 427.099C418.6 432.799 420.4 438.699 424.8 443.099C428.5 446.699 430.8 447.699 444.9 452.199C453.7 454.899 455.7 457.099 452.1 460.099C447.7 463.699 437.1 461.999 432.7 456.999C427.9 451.599 419 454.099 419 460.799C419 466.399 426.5 473.599 434.3 475.499C436.6 476.099 437 476.699 437 479.999C437 482.299 437.7 484.299 438.8 485.299C440.7 486.999 446.6 487.599 448.6 486.199C450.4 485.099 452 481.399 452 478.599C452 476.899 452.6 475.999 453.5 475.999C456.5 475.999 462.9 471.999 465.6 468.399C467.6 465.899 468.5 463.299 468.8 459.499C469.4 452.699 468.7 449.899 465.4 445.999C462 441.999 457.4 439.699 446.5 436.599C441.7 435.299 437.1 433.499 436.2 432.699C434 430.399 435.4 428.199 439.9 426.999C445.3 425.599 450.7 426.999 454.8 430.999C460.6 436.499 468 433.899 468 426.299C468 423.299 467.2 421.899 463.7 418.499C461.3 416.299 457.8 413.999 456 413.399C453 412.599 452.4 411.899 451.9 408.499C450.8 401.699 443.4 398.599 439 402.999Z" fill="#137AB6"/>
</svg>
