<svg width="512" height="512" viewBox="0 0 512 512" fill="none" xmlns="http://www.w3.org/2000/svg">
<path d="M422.505 21.7002C404.905 25.3002 390.305 28.3002 390.105 28.5002C389.605 29.0002 392.205 42.7002 393.105 44.1002C393.605 45.0002 398.005 44.5002 412.105 41.7002C422.105 39.7002 430.505 38.1002 430.605 38.3002C431.205 38.8002 246.905 252 246.005 252C245.405 252 223.105 238.5 196.305 222C145.505 190.8 143.305 189.7 138.805 193.2C136.905 194.8 40.7051 315.1 41.2051 315.4C41.4051 315.5 44.1051 317.7 47.3051 320.3C50.6051 322.9 53.6051 325 54.1051 325C54.6051 325 75.0051 299.9 99.5051 269.2C124.005 238.6 144.705 213.1 145.405 212.6C146.305 212 161.405 220.8 195.105 241.6C248.905 274.8 249.405 275 254.805 269.2C256.305 267.6 300.305 216.7 352.505 156.2L447.505 46.1002L447.805 67.0002L448.005 88.0002H456.005H464.005V54.4002C464.005 34.5002 463.605 20.1002 463.005 19.0002C462.205 17.5002 456.905 14.8002 455.105 15.1002C454.805 15.2002 440.105 18.1002 422.505 21.7002Z" fill="#137AB6"/>
<path d="M69.2016 18.0004C44.7016 24.5004 24.3016 45.0004 18.0016 69.6004C15.3016 80.1004 15.3016 95.9004 18.0016 106.4C24.3016 131.2 44.8016 151.7 69.6016 158C74.9016 159.4 80.7016 160 88.0016 160C106.802 160 123.402 153.8 136.402 141.9L142.802 136H159.402H176.002V146C176.002 157.8 177.202 160 184.002 160C187.702 160 189.602 158.6 212.202 139.9C225.602 128.8 237.302 118.9 238.302 117.8C239.302 116.6 240.002 114.2 240.002 112C240.002 109.8 239.302 107.4 238.302 106.2C237.302 105.1 225.602 95.2004 212.202 84.1004C189.602 65.4004 187.702 64.0004 184.002 64.0004C177.202 64.0004 176.002 66.2004 176.002 78.0004V88.0004H168.002H160.002V82.7004C160.002 79.7004 159.102 73.9004 158.002 69.6004C151.702 44.8004 131.202 24.3004 106.402 18.0004C96.1016 15.3004 79.4016 15.4004 69.2016 18.0004ZM80.0016 40.5004V48.0004H88.0016H96.0016V40.4004C96.0016 33.7004 96.2016 32.9004 97.8016 33.4004C98.7016 33.7004 100.902 34.2004 102.502 34.6004C113.202 37.1004 125.902 46.1004 133.102 56.3004C138.602 64.1004 143.002 76.3004 143.002 83.6004V88.0004H129.502C110.902 88.0004 112.002 86.4004 112.002 112C112.002 130.6 112.102 132.1 114.002 134C116.002 136 116.002 136 113.202 137.4C110.002 139 98.6016 143 97.0016 143C96.4016 143 96.0016 140 96.0016 135.5V128H88.0016H80.0016V135.5V143L77.3016 142.4C55.1016 137.1 38.9016 120.9 33.6016 98.7004L33.0016 96.0004H40.5016H48.0016V88.0004V80.0004H40.5016H33.0016L33.6016 77.2004C38.5016 57.0004 51.9016 42.1004 71.2016 35.6004C75.2016 34.2004 78.8016 33.0004 79.3016 33.0004C79.7016 33.0004 80.0016 36.4004 80.0016 40.5004ZM217.502 112C217.502 112.4 211.802 117.5 204.802 123.4L192.002 134.1V129C192.002 125.3 191.502 123.5 190.002 122C188.102 120.1 186.702 120 158.002 120H128.002V112V104H158.002C186.702 104 188.102 103.9 190.002 102C191.502 100.5 192.002 98.7004 192.002 95.0004V89.9004L204.802 100.6C211.802 106.5 217.502 111.6 217.502 112Z" fill="#137AB6"/>
<path d="M96.8 66.7L88 75.5L83 70.5L78 65.5L71.7 71.8L65.5 78.1L74.6 87C83.2 95.5 83.9 96 88 96C92.2 96 92.7 95.6 105.4 83L118.5 70.1L112.5 64C109.2 60.7 106.3 58 106 58C105.7 58 101.6 61.9 96.8 66.7Z" fill="#137AB6"/>
<path d="M434 146C432.2 147.8 432 149.3 432 162V176H440H448V168V160H464H480V168V176H488H496V162C496 142.4 498.9 144 464 144C437.3 144 435.9 144.1 434 146Z" fill="#137AB6"/>
<path d="M432 224V240H440H448V224V208H440H432V224Z" fill="#137AB6"/>
<path d="M480 224V240H488H496V224V208H488H480V224Z" fill="#137AB6"/>
<path d="M330 274C328.2 275.8 328 277.3 328 290V304H336H344V296V288H360H376V296V304H384H392V290C392 270.4 394.9 272 360 272C333.3 272 331.9 272.1 330 274Z" fill="#137AB6"/>
<path d="M432 288V304H440H448V288V272H440H432V288Z" fill="#137AB6"/>
<path d="M480 288V304H488H496V288V272H488H480V288Z" fill="#137AB6"/>
<path d="M122 298C120 300 120 301.3 120 396C120 490.7 120 492 122 494C123.9 495.9 125.3 496 152 496C178.7 496 180.1 495.9 182 494C184 492 184 490.7 184 396C184 301.3 184 300 182 298C180.1 296.1 178.7 296 152 296C125.3 296 123.9 296.1 122 298ZM168 396V480H152H136V396V312H152H168V396Z" fill="#137AB6"/>
<path d="M226 330C224 332 224 333.3 224 412C224 490.7 224 492 226 494C227.9 495.9 229.3 496 256 496C282.7 496 284.1 495.9 286 494C288 492 288 490.7 288 412C288 333.3 288 332 286 330C284.1 328.1 282.7 328 256 328C229.3 328 227.9 328.1 226 330ZM272 412V480H256H240V412V344H256H272V412Z" fill="#137AB6"/>
<path d="M328 352V368H336H344V352V336H336H328V352Z" fill="#137AB6"/>
<path d="M376 352V368H384H392V352V336H384H376V352Z" fill="#137AB6"/>
<path d="M432 352V368H440H448V352V336H440H432V352Z" fill="#137AB6"/>
<path d="M480 352V368H488H496V352V336H488H480V352Z" fill="#137AB6"/>
<path d="M18 386C16.1 387.9 16 389.3 16 440C16 490.7 16.1 492.1 18 494C19.9 495.9 21.3 496 48 496C74.7 496 76.1 495.9 78 494C79.9 492.1 80 490.7 80 440C80 389.3 79.9 387.9 78 386C76.1 384.1 74.7 384 48 384C21.3 384 19.9 384.1 18 386ZM64 440V480H48H32V440V400H48H64V440Z" fill="#137AB6"/>
<path d="M328 416V432H336H344V416V400H336H328V416Z" fill="#137AB6"/>
<path d="M376 416V432H384H392V416V400H384H376V416Z" fill="#137AB6"/>
<path d="M432 416V432H440H448V416V400H440H432V416Z" fill="#137AB6"/>
<path d="M480 416V432H488H496V416V400H488H480V416Z" fill="#137AB6"/>
<path d="M327.996 478C327.996 497.6 325.096 496 359.996 496C394.896 496 391.996 497.6 391.996 478V464H383.996H375.996V472V480H359.996H343.996V472V464H335.996H327.996V478Z" fill="#137AB6"/>
<path d="M431.996 478C431.996 497.6 429.096 496 463.996 496C498.896 496 495.996 497.6 495.996 478V464H487.996H479.996V472V480H463.996H447.996V472V464H439.996H431.996V478Z" fill="#137AB6"/>
</svg>
