<svg width="512" height="512" viewBox="0 0 512 512" fill="none" xmlns="http://www.w3.org/2000/svg">
<path d="M379.998 34.1C363.898 38.2 349.098 47.5 338.298 60.3C328.198 72.2 319.998 92.6 319.998 106.2V112H233.998C149.298 112 147.998 112 145.998 114C143.998 116 143.998 117.3 143.998 220.9V325.8L136.298 323.2C124.898 319.5 104.798 318.9 92.8984 321.9C63.5984 329.3 41.3984 351.4 33.9984 380.4C31.1984 391.3 31.1984 408.7 33.9984 419.6C39.8984 442.6 55.6984 462.2 76.4984 472.1C88.3984 477.9 98.0984 480 111.998 480C136.898 480 157.498 470.5 174.098 451.3C183.798 440.1 191.998 419.2 191.998 405.8V400H277.998C362.698 400 363.998 400 365.998 398C367.998 396 367.998 394.7 367.998 291.1V186.2L375.798 188.8C386.998 192.5 407.098 193.1 419.098 190.1C447.898 183 470.798 160.2 477.998 131.6C480.698 120.7 480.698 103.3 477.998 92.4C470.798 63.9 448.098 41.2 419.598 34C408.798 31.3 390.498 31.3 379.998 34.1ZM420.998 52.4C438.798 58.5 453.498 73.5 460.198 92C462.198 97.6 462.498 100.4 462.498 112C462.498 123.6 462.198 126.4 460.198 132C453.398 150.8 437.998 166.1 419.898 172.1C413.598 174.1 410.598 174.5 399.498 174.5C388.498 174.5 385.498 174.1 379.998 172.1C361.198 165.5 345.898 150 339.898 131.9C337.798 125.5 337.498 122.7 337.498 111C337.598 98.7 337.798 96.9 340.298 90.5C353.398 57.3 388.098 40.9 420.998 52.4ZM322.998 135.2C324.198 139.2 326.698 145.4 328.498 149.1C332.498 156.9 342.298 169.2 347.898 173.5L351.898 176.5L351.998 280.2V384H271.598H191.198L188.798 376.2L186.398 368.5L261.198 368.2L335.998 368V360V352H256.298L176.498 351.9L172.598 347.2C170.498 344.6 166.798 340.9 164.398 339L160.098 335.5V231.7L159.998 128H240.398H320.798L322.998 135.2ZM132.998 340.4C150.798 346.5 165.598 361.5 172.098 380C174.098 385.5 174.498 388.5 174.498 399.5C174.498 410.6 174.098 413.6 172.098 419.8C166.098 438.2 150.198 454.1 131.898 460.1C125.598 462.1 122.598 462.5 111.498 462.5C100.498 462.5 97.4984 462.1 91.9984 460.1C73.1984 453.5 57.8984 438 51.8984 419.9C49.7984 413.5 49.4984 410.7 49.4984 399C49.5984 386.7 49.7984 384.9 52.2984 378.5C65.3984 345.3 100.098 328.9 132.998 340.4Z" fill="#137AB6"/>
<path d="M420.8 81.6994C418.4 85.3994 410.8 97.5994 404 108.699C397.1 119.799 391.2 128.899 390.9 128.999C390.5 128.999 386.8 124.899 382.5 119.999C378.2 114.999 374.4 110.999 374 110.999C372.8 110.999 362 120.999 362 122.099C362 122.999 384.3 148.799 386.8 150.699C388.5 152.099 393.7 152.399 396.4 151.399C398 150.799 439 86.0994 439 84.2994C439 83.7994 437.3 82.3994 435.3 81.1994C433.2 79.9994 430.1 78.0994 428.3 76.8994L425.1 74.8994L420.8 81.6994Z" fill="#137AB6"/>
<path d="M239.099 137C204.099 144.3 177.399 170.4 169.599 204.9C167.299 215.1 167.499 234.2 169.999 245C174.299 263 186.099 281.5 200.599 293C208.899 299.6 223.099 306.9 232.499 309.5C241.599 312 263.799 312.6 273.599 310.6C305.499 304.2 330.099 281.9 340.599 250C343.199 242.1 343.399 240.4 343.499 224.5C343.499 210.7 343.099 206.3 341.599 201C332.699 170.5 310.499 148 280.399 138.9C275.099 137.3 270.099 136.7 258.499 136.4C250.299 136.3 241.499 136.5 239.099 137ZM247.999 164.5V176H237.999C223.199 176 223.999 174.4 223.999 204C223.999 226.7 224.099 228.1 225.999 230C227.899 231.9 229.299 232 249.999 232H271.999V244V256H247.999H223.999V264V272H235.999H247.999V283.5C247.999 289.8 247.599 295 247.199 295C243.699 295 229.699 290.4 224.099 287.5C172.099 260.2 172.099 187.8 224.099 160.5C229.999 157.4 242.699 153.2 246.799 153.1C247.699 153 247.999 155.9 247.999 164.5ZM278.999 156.7C289.499 160.1 299.599 166.7 307.799 175.5C337.999 207.9 331.899 259 294.799 283.6C287.999 288.1 275.699 293.1 267.799 294.4L263.999 295.1V283.5V272H273.999C288.799 272 287.999 273.6 287.999 244C287.999 221.3 287.899 219.9 285.999 218C284.099 216.1 282.699 216 261.999 216H239.999V204V192H263.999H287.999V184V176H275.999H263.999V164.5V152.9L267.799 153.6C269.799 153.9 274.899 155.3 278.999 156.7Z" fill="#137AB6"/>
<path d="M176 328V336H256H336V328V320H256H176V328Z" fill="#137AB6"/>
<path d="M79.5 368L73.5 374L86.5 387L99.5 400L86.5 413L73.5 426L79.8 432.2L86 438.5L99 425.5L112 412.5L125 425.5L138 438.5L144.2 432.2L150.5 426L137.5 413L124.5 400L137.5 387L150.5 374L144.2 367.8L138 361.5L125 374.5L112 387.5L99.2 374.7C92.2 367.7 86.2 362 86 362C85.7 362 82.8 364.7 79.5 368Z" fill="#137AB6"/>
<path d="M232.994 48.7006C223.294 49.7006 205.894 53.4006 195.694 56.5006C117.894 80.0006 61.1945 146.101 49.5945 226.701C47.7945 239.501 47.3945 269.601 48.9945 281.701C50.2945 291.301 53.9945 309.201 54.8945 310.201C55.4945 310.901 69.7945 307.501 70.8945 306.401C71.0945 306.201 70.4945 303.001 69.5945 299.301C64.5945 278.301 63.2945 249.701 66.3945 229.001C79.1945 144.301 143.994 79.4006 228.994 66.4006C249.494 63.3006 279.694 64.6006 299.694 69.6006C303.194 70.5006 306.194 71.1006 306.394 70.9006C307.394 69.8006 310.894 55.5006 310.194 54.9006C309.194 54.0006 291.294 50.3006 281.694 49.0006C274.394 48.1006 240.894 47.8006 232.994 48.7006Z" fill="#137AB6"/>
<path d="M448.499 203.2C444.699 204.3 441.299 205.4 441.199 205.5C440.999 205.7 441.699 209.8 442.799 214.7C445.899 228.2 447.099 240.1 447.099 256.5C446.999 361.9 361.799 447 256.499 447.1C240.099 447.2 228.199 445.9 214.699 442.8C209.799 441.7 205.699 441 205.499 441.2C204.499 442.2 201.199 456.5 201.799 457.1C202.799 458 215.599 460.7 227.499 462.5C239.199 464.2 268.499 464.5 280.999 463C318.999 458.3 356.699 442.5 385.999 419.1C394.999 411.9 410.999 396 418.299 387C441.499 358.3 457.099 322.3 462.399 285.3C464.499 270.7 464.499 241.7 462.499 227.3C460.499 213.6 457.699 201.7 456.499 201.4C455.899 201.3 452.399 202.1 448.499 203.2Z" fill="#137AB6"/>
</svg>
