<svg width="512" height="512" viewBox="0 0 512 512" fill="none" xmlns="http://www.w3.org/2000/svg">
<path d="M125.202 17.5998C122.302 18.9998 118.602 21.7998 117.002 23.7998C113.802 27.6998 111.002 35.3998 111.002 40.1998C111.002 42.8998 110.802 42.9998 106.202 42.9998C100.102 42.9998 92.1024 46.8998 88.0024 51.7998C81.6024 59.5998 82.0024 44.6998 82.0024 261.499C82.0024 482.399 81.4024 464.099 89.4024 472.399C97.4024 480.599 86.6024 480.099 236.602 479.799C309.702 479.599 370.202 479.099 371.202 478.699C372.502 477.999 373.102 478.799 374.402 483.199C375.902 488.499 379.902 493.399 384.702 495.899C391.002 499.099 411.302 494.599 417.302 488.599C420.402 485.499 423.002 479.499 423.002 475.399C423.002 474.299 420.802 465.599 418.202 455.999C413.702 439.899 413.402 438.199 414.702 435.299C415.702 432.799 416.002 424.699 416.002 401.199V370.299L420.002 363.399C422.102 359.599 425.102 352.899 426.702 348.499C429.102 341.399 429.402 339.099 429.502 326.999C429.502 311.199 427.702 303.999 420.402 290.099L416.002 281.799V157.899C416.002 20.8998 416.502 30.8998 409.302 22.9998C401.602 14.2998 414.602 14.9998 263.902 14.9998H130.402L125.202 17.5998ZM396.602 29.3998C403.502 33.4998 403.002 24.3998 403.002 152.999V269.099L399.802 266.699C398.002 265.399 394.402 262.999 391.802 261.499L387.002 258.799V160.699V62.4998L384.602 57.4998C381.802 51.4998 378.002 47.7998 372.002 45.0998C367.602 43.0998 366.102 42.9998 245.802 42.9998C124.002 42.9998 124.002 42.9998 124.002 40.9998C124.002 37.9998 126.402 32.7998 128.802 30.5998C130.002 29.5998 132.402 28.3998 134.202 27.9998C136.002 27.4998 195.102 27.2998 265.502 27.2998C389.002 27.4998 393.602 27.5998 396.602 29.3998ZM370.202 59.7998L373.502 62.9998L373.802 158.899L374.002 254.799L370.302 253.899C363.302 252.299 346.902 252.899 338.402 254.999C325.002 258.399 314.802 264.199 305.002 273.999C290.302 288.799 284.102 302.699 283.302 322.999C282.702 337.199 284.402 346.299 289.902 357.499C302.002 382.699 324.202 397.699 352.502 399.699L360.702 400.299L363.402 409.699L366.102 419.199L364.002 422.499C360.202 428.599 360.402 433.199 365.002 449.399C367.302 457.499 369.002 464.299 368.802 464.399C366.002 466.899 358.202 466.999 234.302 466.999C105.902 466.999 104.502 466.999 101.202 464.999C94.6024 460.899 95.0024 475.699 95.0024 260.999C95.0024 45.4998 94.5024 62.0998 101.302 57.9998C104.402 55.9998 107.002 55.9998 235.702 56.1998L367.002 56.4998L370.202 59.7998ZM370.902 267.499C381.202 269.999 390.502 275.399 399.002 283.899C421.102 306.099 422.902 338.699 403.402 364.099C393.202 377.399 373.602 386.999 356.502 386.999C343.602 386.999 326.302 380.299 316.402 371.599C309.502 365.499 302.502 355.099 299.302 345.999C295.802 336.199 295.002 322.299 297.402 312.899C302.802 291.299 319.302 274.099 340.502 267.899C348.102 265.699 362.302 265.499 370.902 267.499ZM403.002 398.899V413.799L400.202 412.799C397.702 411.799 397.102 410.599 394.702 401.999C393.202 396.699 392.002 391.999 392.002 391.699C392.002 391.199 402.002 384.099 402.802 383.999C402.902 383.999 403.002 390.699 403.002 398.899ZM381.702 404.199L383.702 411.499L381.102 412.699C378.502 413.799 378.502 413.799 376.302 406.699C373.702 398.599 373.902 396.999 377.302 396.999C379.402 396.999 379.902 397.799 381.702 404.199ZM395.402 426.199C396.202 427.499 399.802 439.199 403.502 452.199C408.702 470.999 409.902 476.399 409.002 477.899C408.402 479.199 405.502 480.699 401.402 481.999C394.302 484.199 391.302 484.399 389.202 483.099C388.402 482.699 384.702 471.099 380.902 457.399C375.302 437.699 374.102 432.099 374.902 430.299C375.602 428.799 377.802 427.499 382.202 426.099C390.602 423.399 393.602 423.499 395.402 426.199Z" fill="#137AB6"/>
<path d="M231.2 80.6997C230.4 80.9997 227.4 86.2997 224.5 92.5997C218.5 105.399 220.5 104.099 203.5 105.999C193.8 107.099 191 108.799 191 113.499C191 115.499 197.7 122.899 207.2 131.099L209.9 133.499L207.4 145.799C205 157.199 205 158.299 206.4 160.599C209 164.399 212.9 163.699 223.9 157.499C229.3 154.499 234.1 151.999 234.6 151.999C235.1 151.999 239.9 154.499 245.3 157.499C255.6 163.299 259.6 164.199 262.3 161.199C264.5 158.799 264.4 157.699 261.8 144.599L259.7 133.699L268.8 124.999C276.4 117.799 278 115.699 278 113.299C278 108.399 275.6 107.199 262.6 105.599C256.1 104.799 250.4 103.799 250 103.299C249.5 102.899 247.3 98.1997 245 92.9997C242.6 87.7997 240.1 82.6997 239.2 81.6997C237.7 80.0997 234 79.5997 231.2 80.6997ZM237.6 108.899C240.3 115.099 242.6 116.899 248.3 117.099C250.1 117.199 252.6 117.499 253.8 117.899C256.1 118.499 256 118.699 251.1 123.199C245.6 128.299 245.2 129.699 247.1 137.899C247.6 140.299 247.9 142.499 247.6 142.699C247.4 142.899 244.4 141.699 240.9 139.899L234.6 136.599L227.7 140.299C222.4 143.099 220.9 143.599 221.4 142.299C221.8 141.299 222.4 137.599 222.7 134.099L223.3 127.599L218 122.899L212.6 118.199L218.6 117.499C227.4 116.399 228.2 115.799 231.4 109.099C233.1 105.799 234.5 102.999 234.7 102.999C234.9 102.999 236.2 105.599 237.6 108.899Z" fill="#137AB6"/>
<path d="M144 108C143.2 108.5 140.1 114 137 120.2L131.5 131.5L121 132.7C107.3 134.3 106.1 134.6 104.8 137.5C103 141.5 104.6 144.2 113.8 152.5L122.6 160.5L120.2 172.7C117.9 184.2 117.8 185.1 119.4 187.5C122 191.4 125.9 190.8 137.2 184.5C142.6 181.5 147.3 179 147.6 179C147.9 179 152.6 181.5 157.9 184.5C168.5 190.5 172.5 191.3 175.5 188C177.3 186 177.3 185.6 175 173.3L172.6 160.7L181.8 152C188.9 145.3 191 142.7 191 140.7C191 135.9 188.2 134.4 176.9 133.1C171.2 132.4 165.8 131.8 165 131.7C164.2 131.6 161.1 126.5 158 120.2C155 114 151.8 108.5 151 108C149.1 106.8 145.9 106.8 144 108ZM155.7 143.4C156.7 143.6 160.1 144.2 163.3 144.6L169.2 145.3L163.9 150.6L158.7 155.9L159.4 161.2C159.7 164.1 160.3 167.6 160.6 168.8C161.3 171.1 161.2 171.1 155.8 168.1C148.9 164.2 146.1 164.2 139.2 168.2L133.7 171.3L134.3 168.9C134.7 167.6 135.3 164 135.6 160.9L136.3 155.2L130.9 150.2L125.6 145.2L132.1 144.5C135.6 144.1 139.2 143.4 140 143C140.9 142.5 142.9 139.4 144.5 136L147.4 129.9L150.7 136.4C152.5 139.9 154.8 143.1 155.7 143.4Z" fill="#137AB6"/>
<path d="M317.8 108.199C316.9 108.899 314 114.199 311.4 119.999C308.8 125.799 306.2 130.799 305.7 131.099C305.2 131.499 301.3 132.099 297.1 132.499C281.2 133.899 278 135.299 278 140.699C278 143.199 278.5 143.799 289.7 154.099L296.8 160.599L294.4 172.399C291.5 186.499 292.1 189.299 298 189.799C300.8 189.999 303.7 188.899 311.4 184.499C316.8 181.499 321.4 178.999 321.8 178.999C322.1 178.999 326.7 181.499 332.1 184.499C342.4 190.299 346.6 191.199 349.3 188.199C351.5 185.799 351.4 184.699 348.8 171.599L346.7 160.699L355.9 152.099C363.7 144.799 365.1 142.999 365 140.399C365 135.399 362.7 134.199 350 132.899C343.7 132.299 338 131.199 337.3 130.599C336.7 129.999 334.3 125.199 332 119.999C329.7 114.799 326.9 109.699 325.8 108.699C323.4 106.699 320 106.499 317.8 108.199ZM324.9 136.399C328 143.299 328.3 143.499 337.3 144.599L343.2 145.299L337.9 150.599C332.3 156.299 332.3 156.399 334.6 167.699L335.2 170.999L329.9 167.999C323 164.199 320.3 164.299 313.4 168.099C307.9 171.199 307.9 171.199 308.4 168.899C310.4 160.499 310.8 157.599 310.3 156.099C310 155.199 307.4 152.399 304.6 149.899L299.5 145.299L306 144.499C314.4 143.599 316.2 142.299 319 135.599C320.2 132.499 321.4 129.999 321.6 129.999C321.8 129.999 323.3 132.899 324.9 136.399Z" fill="#137AB6"/>
<path d="M120.594 237.2C118.294 240.5 118.694 243.6 121.694 245.9L124.294 248L235.694 247.8C344.694 247.5 347.194 247.5 348.594 245.6C350.494 242.9 350.394 238.6 348.194 236.7C346.494 235.1 337.094 235 234.194 235H122.094L120.594 237.2Z" fill="#137AB6"/>
<path d="M121 286C119.9 287.1 119 289.1 119 290.5C119 291.9 119.9 293.9 121 295C123 297 124.3 297 194 297C263.7 297 265 297 267 295C268.1 293.9 269 291.9 269 290.5C269 289.1 268.1 287.1 267 286C265 284 263.7 284 194 284C124.3 284 123 284 121 286Z" fill="#137AB6"/>
<path d="M120.602 334.2C118.302 337.5 118.702 340.6 121.602 342.9C124.202 345 125.002 345 191.202 345H258.102L260.502 342.5C263.402 339.7 263.602 337.4 261.402 334.2L259.902 332H191.002H122.102L120.602 334.2Z" fill="#137AB6"/>
<path d="M121.602 381.1C118.702 383.4 118.302 386.5 120.602 389.8L122.102 392H200.502C287.302 392 282.002 392.4 282.002 385.5C282.002 378.7 286.102 379 200.902 379C124.902 379 124.202 379 121.602 381.1Z" fill="#137AB6"/>
<path d="M121 429C119.9 430.1 119 432.1 119 433.5C119 434.9 119.9 436.9 121 438C122.9 439.9 124.3 440 175.8 440C225.8 440 228.8 439.9 230.3 438.2C232.5 435.7 232.4 430.7 230.2 428.7C228.5 427.2 223.3 427 175.7 427C124.3 427 122.9 427.1 121 429Z" fill="#137AB6"/>
<path d="M343.6 277.099C331.3 279.999 317.7 290.799 311.9 302.199C307.5 310.799 306 317.099 306 326.599C306 340.799 310.6 351.799 320.9 362.099C333.6 374.699 350.5 379.599 367.8 375.499C395.3 368.999 412 341.899 405.5 314.199C401.4 296.899 387.7 282.799 370.1 277.599C364.1 275.899 350.1 275.599 343.6 277.099ZM372.2 292.399C384 297.999 392.7 310.599 393.7 323.499C395.7 348.299 371.3 368.999 347.5 362.599C344.8 361.899 341 360.499 339.1 359.499C333 356.399 325.4 348.299 322.4 341.699C319.8 336.299 319.5 334.399 319.5 325.999C319.5 317.699 319.8 315.799 322.2 310.999C327.3 300.699 334.2 294.399 344.3 290.799C352.1 287.999 364.6 288.699 372.2 292.399Z" fill="#137AB6"/>
<path d="M362.397 318.199L350.997 329.299L345.097 323.699C338.597 317.499 335.397 316.599 331.997 319.999C328.197 323.799 329.297 326.599 338.697 336.099C351.197 348.899 350.597 348.999 368.797 330.699C383.997 315.399 385.197 313.199 380.997 308.999C376.997 304.999 374.497 306.199 362.397 318.199Z" fill="#137AB6"/>
</svg>
