<svg width="512" height="512" viewBox="0 0 512 512" fill="none" xmlns="http://www.w3.org/2000/svg">
<path d="M228.502 52.1996C228.202 52.8996 227.902 60.3996 227.802 68.7996L227.502 84.1996L218.002 87.3996C212.802 89.0996 205.602 92.1996 202.002 94.0996L195.502 97.5996L184.402 86.7996C176.602 79.1996 172.602 75.9996 170.902 75.9996C167.502 75.9996 133.002 110.4 133.002 113.8C133.002 115.4 135.302 118.6 139.702 123.1L146.302 130H103.402C71.3017 130 60.1017 130.3 59.2017 131.2C58.3017 132.1 58.0017 164.4 58.0017 270.2V408H46.5017C35.0017 408 35.0017 408 34.4017 410.6C34.0017 412 34.0017 418.4 34.2017 424.8C34.5017 433.8 35.1017 437.6 36.7017 441.2C39.5017 447.4 46.3017 454.6 52.5017 457.8L57.5017 460.5H256.002H454.502L459.502 457.8C465.702 454.6 472.502 447.4 475.302 441.2C476.902 437.6 477.502 433.8 477.802 424.8C478.002 418.4 478.002 412 477.602 410.6C477.002 408 477.002 408 465.502 408H454.002V270.2C454.002 164.4 453.702 132.1 452.802 131.2C451.902 130.3 440.702 130 408.602 130H365.702L372.302 123.1C376.702 118.6 379.002 115.4 379.002 113.8C379.002 110.4 344.502 75.9996 341.002 75.9996C339.102 75.9996 335.702 78.7996 327.702 86.7996L316.802 97.6996L310.202 94.0996C306.502 92.1996 299.202 89.0996 294.002 87.3996L284.502 84.1996L284.002 67.7996L283.502 51.4996L256.202 51.1996C234.902 50.9996 228.802 51.1996 228.502 52.1996ZM276.202 75.1996L276.502 91.3996L286.002 94.0996C291.202 95.5996 300.502 99.2996 306.502 102.4C312.602 105.5 317.902 108 318.502 108C319.002 108 324.302 103.2 330.202 97.2996L341.002 86.4996L354.702 100.3L368.502 114L357.702 124.8C351.802 130.7 347.002 136 347.002 136.5C347.002 137.1 349.502 142.4 352.602 148.5C355.702 154.5 359.402 163.8 360.902 169L363.602 178.5L379.802 178.8L396.002 179V199V219L379.802 219.2L363.602 219.5L361.402 227C358.502 237 354.702 246.2 350.502 253.3C348.602 256.5 347.002 259.9 347.002 260.8C347.002 261.7 351.802 267.3 357.702 273.2L368.502 284L354.702 297.7L341.002 311.5L330.202 300.7C324.302 294.8 318.702 290 317.902 290C317.002 290 313.002 291.9 309.002 294.2C304.902 296.6 296.002 300.3 289.102 302.7L276.502 306.9L276.202 322.9L276.002 339H256.002H236.002L235.802 322.8L235.502 306.6L228.002 304.4C218.002 301.5 208.802 297.7 201.702 293.5C198.502 291.6 195.102 290 194.202 290C193.302 290 187.702 294.8 181.802 300.7L171.002 311.5L157.302 297.7L143.502 284L154.302 273.2C160.202 267.3 165.002 261.9 165.002 261.1C165.002 260.4 163.202 256.5 161.102 252.6C156.402 244.1 153.502 237.1 150.602 227L148.402 219.5L132.202 219.2L116.002 219V199V179L132.202 178.8L148.402 178.5L151.102 169C152.602 163.8 156.302 154.5 159.402 148.5C162.502 142.4 165.002 137.1 165.002 136.5C165.002 136 160.202 130.7 154.302 124.8L143.502 114L157.302 100.3L171.002 86.4996L181.802 97.2996C187.702 103.2 193.002 108 193.502 108C194.102 108 199.502 105.5 205.502 102.4C211.602 99.2996 220.802 95.5996 226.002 94.0996L235.502 91.3996L235.802 75.1996L236.002 58.9996H256.002H276.002L276.202 75.1996ZM150.602 146L146.502 154H116.102C89.2017 154 85.4017 154.2 83.8017 155.7C82.1017 157.2 82.0017 162.2 82.0017 272.8C82.0017 378.9 82.1017 388.5 83.7017 390.2C85.2017 391.9 91.9017 392 255.402 392C407.802 392 425.802 391.8 427.802 390.4L430.002 388.9V273.3C430.002 167.1 429.902 157.5 428.302 155.8C426.802 154.1 424.502 154 396.002 154H365.302L361.402 146L357.402 138H401.702H446.002V273V408H256.002H66.0017V273V138H110.302H154.702L150.602 146ZM143.002 164.4C143.002 165.2 142.602 167 142.002 168.4L141.102 171L124.802 171.2L108.502 171.5V199V226.5L125.102 226.8L141.802 227L142.502 230.7C143.302 235.3 149.302 250.2 152.402 255.5L154.702 259.5L143.802 270.6C136.202 278.4 133.002 282.4 133.002 284.1C133.002 287.5 167.502 322 170.902 322C172.602 322 176.602 318.8 184.402 311.2L195.502 300.3L199.502 302.6C204.802 305.7 219.702 311.7 224.302 312.5L228.002 313.2L228.202 329.9L228.502 346.5H256.002H283.502L283.802 329.9L284.002 313.4L289.302 312C295.402 310.5 309.202 304.8 313.502 302.1L316.502 300.2L327.602 311.1C335.302 318.7 339.402 322 341.002 322C344.502 322 379.002 287.5 379.002 284C379.002 282.1 376.302 278.8 368.102 270.6L357.302 259.8L360.102 254.7C363.702 248 368.702 235.3 369.502 230.7L370.202 227L386.902 226.8L403.502 226.5V199V171.5L386.802 171.2C377.502 171.1 370.002 170.6 370.002 170.1C370.002 169.6 369.702 167.8 369.402 166.1L368.802 163H394.902H421.002V273V383H256.002H91.0017V273V163H117.002C138.902 163 143.002 163.2 143.002 164.4ZM469.002 424.2C468.902 437.4 465.302 444.3 455.802 449.6L450.502 452.5L377.802 452.8L305.002 453.1V443.1C305.002 435.4 304.602 432.8 303.402 431.6C302.002 430.2 296.402 430 256.002 430C215.602 430 210.002 430.2 208.602 431.6C207.402 432.8 207.002 435.4 207.002 443.1V453.1L134.302 452.8L61.5017 452.5L56.2017 449.6C46.7017 444.3 43.0017 437.3 43.0017 424.5V416H256.002H469.002V424.2ZM296.002 446V453H256.002H216.002V446V439H256.002H296.002V446Z" fill="#137AB6"/>
<path d="M239.099 111.1C212.399 116.3 188.199 134.5 176.199 158.5C170.299 170.3 167.799 180.3 167.199 194.4C166.699 208.6 167.799 217 171.599 228.3C187.099 273.9 237.399 298.8 283.999 283.8C314.999 273.8 338.199 247.1 343.999 214.3C345.999 203 344.899 183.5 341.499 173C331.399 141.1 306.399 118.3 274.399 111.5C266.899 109.9 246.299 109.7 239.099 111.1ZM274.499 120.5C288.799 124.3 299.999 130.3 310.299 140C327.699 156.3 336.199 175.6 336.199 199C336.199 236.1 311.999 267.3 275.499 277.1C264.399 280.1 247.599 280.1 236.499 277.1C207.299 269.3 185.699 247.7 177.899 218.5C174.699 206.5 174.899 189.5 178.399 177.7C182.699 163.2 188.199 153.8 198.399 143.2C210.699 130.3 227.199 121.8 244.499 119C252.199 117.8 266.999 118.6 274.499 120.5Z" fill="#137AB6"/>
<path d="M210.7 153.7C210.3 154 210 158.8 210 164.2V174H206.7C201.2 174 201 174.8 201 193.1C201 211.6 201.4 213 207.1 213H210V227.8C210 243.5 210.4 245 214.7 245C218.3 245 219 242 219 227.1V213H221.8C227.4 213 228 211.1 228 193.2C228 175.5 227.5 174 221.9 174H219V164.7C219 158.8 218.6 155 217.8 154.2C216.5 152.9 211.8 152.6 210.7 153.7ZM219 193.5V204H214.5H210V193.5V183H214.5H219V193.5Z" fill="#137AB6"/>
<path d="M252.7 153.6C252.3 154 252 162.1 252 171.7V189H249.4C248 189 246 189.5 244.9 190C243.1 191 243 192.3 243 208.3C243 227.2 243.2 228 248.7 228H251.9L252.2 236.2L252.5 244.5H256H259.5L259.8 236.2L260.1 228H263.3C268.8 228 269 227.2 269 208.3C269 192.3 268.9 191 267.1 190C266 189.5 264 189 262.6 189H260L259.8 171.2L259.5 153.5L256.5 153.2C254.8 153 253.1 153.2 252.7 153.6ZM261 208.5V219H256H251V208.5V198H256H261V208.5Z" fill="#137AB6"/>
<path d="M294.2 154.2C293.6 154.8 293 157.3 293 159.7C293 163.9 293 164 289.5 164C287.1 164 285.8 164.6 285 165.9C284.5 167 284 174.5 284 183C284 191.5 284.5 199 285 200.1C285.8 201.4 287.1 202 289.5 202H293V221.6C293 233.1 293.4 241.9 294 243.1C295.2 245.2 299 245.6 300.8 243.8C301.7 242.9 302 236.8 302 222.3V202H305.3C310.8 202 311 201.2 311 183C311 164.8 310.8 164 305.4 164C302.1 164 302.1 163.9 301.8 158.7C301.5 153.7 301.4 153.5 298.5 153.2C296.8 153 294.9 153.5 294.2 154.2ZM302 183V194H297.5H293V183V172H297.5H302V183Z" fill="#137AB6"/>
</svg>
