<svg width="512" height="512" viewBox="0 0 512 512" fill="none" xmlns="http://www.w3.org/2000/svg">
<path d="M120.594 11.101C80.6943 15.101 44.9943 36.601 22.0943 70.201C17.2943 77.401 9.59433 93.501 6.69433 102.501C0.19433 122.601 0.49433 115.401 0.49433 247.501C0.49433 378.001 0.29433 373.301 6.19433 392.001C14.5943 418.601 32.3943 443.501 54.4943 459.801C63.8943 466.701 80.5943 475.301 91.9943 479.001C111.494 485.401 110.094 485.301 194.994 485.701C237.594 485.901 274.394 485.801 276.794 485.501C283.294 484.501 287.194 480.601 287.694 474.401C288.094 468.801 286.794 465.701 282.694 462.601C279.894 460.501 279.094 460.501 198.194 460.001L116.494 459.501L106.894 456.801C62.1943 444.601 30.2943 406.901 25.9943 361.201C24.6943 346.901 24.6943 149.101 25.9943 134.801C28.4943 108.101 39.7943 84.901 59.4943 66.101C73.8943 52.301 88.7943 44.101 108.594 38.901L117.494 36.501H201.994H286.494L296.194 39.201C322.594 46.501 345.094 62.701 359.794 85.001C366.794 95.601 371.094 105.401 374.794 118.901L377.394 128.501L377.894 183.001C378.394 227.701 378.794 237.901 379.894 239.601C384.794 247.001 397.594 246.601 401.494 239.001C403.794 234.601 403.694 135.701 401.394 121.901C396.694 93.801 382.294 66.901 361.594 47.201C342.794 29.501 321.494 18.501 294.994 12.801C285.894 10.801 281.894 10.701 207.494 10.401C164.594 10.301 125.494 10.601 120.594 11.101Z" fill="#137AB6"/>
<path d="M91.4966 153.399C82.7966 157.199 82.0966 170.599 90.2966 175.599C93.3966 177.399 96.4966 177.499 200.097 177.799C284.097 177.999 307.597 177.799 310.597 176.799C321.097 173.299 321.697 157.699 311.497 153.399C306.597 151.399 96.1966 151.299 91.4966 153.399Z" fill="#137AB6"/>
<path d="M91.4924 236.9C89.2924 237.9 86.7924 239.9 85.9924 241.5C83.9924 245.2 84.1924 251.9 86.3924 255.2C90.3924 261.3 84.5924 261 201.392 261C318.792 261 312.992 261.3 316.992 254.8C321.092 248 318.092 238.8 310.992 236.3C308.392 235.4 280.892 235.1 201.492 235.1C101.092 235 95.2924 235.1 91.4924 236.9Z" fill="#137AB6"/>
<path d="M369.903 260.6C338.103 266.3 311.103 283.3 291.703 309.9C284.903 319.1 276.503 336.7 273.503 348C258.503 404.6 284.403 462.5 336.503 488.8C366.103 503.7 403.103 505.5 434.203 493.5C498.903 468.5 529.303 395 501.503 330.8C489.803 303.6 465.103 279.6 437.303 268.1C416.903 259.7 390.803 256.8 369.903 260.6ZM413.003 287C422.003 289.2 437.003 295.8 444.503 301C456.303 309.1 468.003 322.2 475.003 335.3C482.803 349.8 486.103 363 486.203 380C486.203 404.2 478.203 425.2 461.803 444.3C451.203 456.5 431.603 468.4 414.403 473.2C402.603 476.4 378.903 476.4 367.103 473.2C333.703 464.1 308.503 439.5 298.303 406.3C295.903 398.3 295.603 396 295.603 381C295.503 366.8 295.803 363.3 297.803 356.2C303.403 335.7 315.803 316.9 332.203 304.4C344.403 294.9 363.003 287.1 378.003 285C387.203 283.8 403.003 284.7 413.003 287Z" fill="#137AB6"/>
<path d="M350.395 331.999C345.395 333.599 342.695 337.199 342.195 343.499L341.695 349.099L357.095 364.599L372.395 379.999L358.295 394.299C350.595 402.099 343.695 409.499 343.095 410.699C340.195 416.499 342.895 424.799 348.595 427.499C356.495 431.199 359.795 429.499 376.795 412.699L390.995 398.599L405.895 413.399C419.795 427.299 420.995 428.199 425.195 428.699C433.695 429.699 438.995 424.599 438.995 415.399V410.599L423.995 395.499L408.995 380.399L421.095 368.499C427.795 361.899 434.495 354.699 436.095 352.599C441.895 344.799 438.895 334.399 430.095 331.999C423.295 330.199 420.695 331.799 404.995 347.499L390.595 361.999L375.495 346.999C367.095 338.699 359.695 331.999 358.895 331.999C358.095 331.999 356.595 331.799 355.495 331.599C354.395 331.299 352.095 331.499 350.395 331.999Z" fill="#137AB6"/>
<path d="M89.1038 321.6C82.9038 326.8 83.0038 336.7 89.3038 341.4C92.1038 343.5 92.7038 343.5 156.504 343.5C220.304 343.5 220.904 343.5 223.704 341.4C230.004 336.7 230.104 326.8 223.904 321.6L220.804 319H156.504H92.2038L89.1038 321.6Z" fill="#137AB6"/>
</svg>
