<svg width="512" height="512" viewBox="0 0 512 512" fill="none" xmlns="http://www.w3.org/2000/svg">
<path d="M149.8 48.8L109 89.6V154.3C109 217.7 109 219 111 221C113.7 223.7 119.3 223.7 122 220.8C124 218.7 124 217.6 124 159.8V101H160.4C195.6 101 196.8 100.9 199.4 98.9L202 96.9V59.9V23H345.5H489V256V489H330C157.2 489 164.9 488.8 163.4 494.4C162.7 497.3 163.5 500.4 165.6 502.5C167 503.8 186.7 504 333.9 504C494.2 504 500.8 503.9 502.3 502.2C503.9 500.5 504 481.9 504 255.8C504 20.2 503.9 11.2 502.2 9.7C500.5 8.1 488.2 8 345.4 8H190.5L149.8 48.8ZM187 60V86H160.8H134.5L160.5 60C174.8 45.7 186.6 34 186.7 34C186.9 34 187 45.7 187 60Z" fill="#137AB6"/>
<path d="M241.301 80.5C240.201 81.3 238.901 83.1 238.601 84.5C237.901 87.4 240.101 92.4 242.501 93.4C243.401 93.7 285.701 94 336.401 94C428.301 94 428.701 94 431.401 91.9C434.701 89.3 435.001 84 432.001 81C430.001 79 428.701 79 336.701 79C256.101 79 243.201 79.2 241.301 80.5Z" fill="#137AB6"/>
<path d="M181.6 135.601C177.3 139.801 179 146.301 184.7 148.001C187.4 148.801 223.6 149.001 309.3 148.801L430.2 148.501L432.1 146.101C434.4 143.301 434.5 139.201 432.4 136.201L430.9 134.001H307C195.8 134.001 183 134.201 181.6 135.601Z" fill="#137AB6"/>
<path d="M183.303 189C178.803 190.8 177.803 196.2 181.103 200.4L183.103 203H306.603C428.703 203 430.003 203 432.003 201C435.003 198 434.703 192.7 431.403 190.1C428.703 188 428.703 188 307.103 188.1C239.603 188.1 184.503 188.5 183.303 189Z" fill="#137AB6"/>
<path d="M96.199 227.001C84.399 228.801 72.899 237.301 67.399 248.501C64.699 254.001 64.499 255.401 64.499 265.501C64.499 275.301 64.799 277.101 67.199 282.201C70.599 289.601 77.799 297.201 84.299 300.501L89.399 303.001H82.899C79.399 303.001 73.699 303.701 70.199 304.501C58.199 307.301 53.399 310.701 32.399 330.801C21.599 341.101 11.699 351.301 10.399 353.601C7.59897 358.301 7.09897 367.001 9.39897 372.301C11.099 376.201 16.499 381.501 20.299 382.901C23.899 384.301 32.099 384.301 35.599 383.001C37.099 382.401 42.199 378.301 46.899 373.801L55.499 365.601L55.799 380.201C55.999 393.201 55.399 399.301 50.499 436.101C47.499 458.801 44.999 479.601 44.999 482.401C44.999 491.601 51.299 500.301 59.899 502.901C65.299 504.501 74.399 504.301 78.799 502.401C83.299 500.601 88.399 495.701 89.999 492.001C90.599 490.501 93.699 479.201 96.899 466.901C103.599 441.101 102.099 440.801 109.499 469.501C114.899 490.801 115.499 492.401 119.399 496.801C124.299 502.401 129.099 504.301 137.999 503.801C144.399 503.601 146.499 503.001 150.599 500.501C156.399 496.901 160.999 489.101 160.999 482.701C160.999 480.501 158.499 460.301 155.499 437.801C150.199 398.801 149.999 396.001 149.999 375.101V353.301L178.899 324.801C194.799 309.101 208.599 294.801 209.599 292.901C214.099 284.201 210.299 271.601 201.599 266.501C196.699 263.601 188.099 263.101 182.699 265.401C180.899 266.101 171.099 274.901 160.899 284.901L142.199 303.001H129.399H116.499L120.999 300.801C127.299 297.701 135.099 289.601 138.599 282.501C141.199 277.001 141.499 275.601 141.499 266.001C141.499 256.201 141.299 255.101 138.299 249.001C134.699 241.701 132.299 238.701 125.599 233.601C118.399 228.101 106.599 225.501 96.199 227.001ZM114.399 244.901C131.899 254.201 130.899 279.101 112.599 287.601C103.699 291.701 94.999 290.401 87.299 283.601C81.599 278.601 79.099 273.201 78.999 265.901C78.999 254.001 86.899 244.201 98.199 242.101C104.099 241.001 108.599 241.801 114.399 244.901ZM194.799 280.201C198.399 283.801 196.999 285.601 165.499 316.501L134.999 346.501V372.701C134.999 398.801 134.999 399.101 140.499 439.801C143.499 462.301 145.999 481.501 145.999 482.401C145.999 483.301 144.899 485.201 143.499 486.501C140.499 489.601 133.899 489.901 131.199 487.201C129.299 485.301 128.899 483.901 117.399 439.501C112.399 420.301 108.899 408.901 107.799 407.801C106.799 406.801 104.699 406.001 103.099 406.001C96.999 406.001 96.699 406.901 86.399 447.001C79.499 473.701 76.199 485.101 74.699 486.801C70.399 491.501 59.999 488.201 59.999 482.101C59.999 480.601 62.499 460.901 65.499 438.301L70.999 397.201V370.201V343.101L68.399 341.101C63.299 337.101 61.799 337.901 45.499 354.001C30.099 369.201 27.799 370.701 24.599 367.401C20.999 363.901 22.499 361.801 41.299 343.301C56.499 328.301 60.699 324.801 66.499 321.901L73.499 318.501L111.699 318.001L149.999 317.501L169.199 298.201C188.899 278.601 191.399 276.801 194.799 280.201Z" fill="#137AB6"/>
<path d="M277 245C275.8 246.2 275 248.3 275 250.5C275 252.7 275.8 254.8 277 256C279 258 280.3 258 354.3 258H429.7L431.8 255.7C434.7 252.6 434.7 248 431.7 245.2L429.4 243H354.2C280.3 243 279 243 277 245Z" fill="#137AB6"/>
<path d="M276.702 299.8C274.002 302.8 274.502 308.5 277.602 310.9C280.202 313 280.902 313 354.502 313C428.102 313 428.802 313 431.402 310.9C434.702 308.3 435.002 303 432.002 300C430.002 298 428.702 298 354.202 298C281.902 298 278.202 298.1 276.702 299.8Z" fill="#137AB6"/>
<path d="M284.798 353.1C280.098 354.9 279.098 362.4 283.198 365.7C283.898 366.3 286.498 367 288.798 367.2L293.098 367.5L284.398 379.5C279.598 386.1 275.298 392.8 274.898 394.5C271.498 406.3 278.798 421.3 290.998 427.5C308.398 436.3 330.598 430 339.198 413.7C340.998 410.4 341.498 407.8 341.498 401.4C341.498 392.4 341.998 393.5 327.398 373.2L322.798 367H336.398H349.998V407.5V448H342.498C335.798 448 334.598 448.3 332.498 450.5C329.498 453.5 329.298 456.9 332.098 460.4L334.098 463H356.998C377.798 463 379.998 462.8 382.098 461.1C385.298 458.5 385.298 452.5 382.098 449.9C380.298 448.4 378.098 448 372.398 448H364.998V407.5V367H377.998H390.998L381.798 379.7C372.598 392.3 372.498 392.4 372.198 399.1C371.598 408.7 373.998 415.1 380.398 421.6C387.298 428.4 394.598 431.3 405.498 431.3C425.098 431.3 439.498 418.4 439.398 401C439.398 393.4 439.098 392.8 428.798 378.8C424.498 372.9 420.998 367.8 420.998 367.5C420.998 367.2 423.198 367 425.798 367C429.298 367 431.198 366.5 432.298 365.2C434.698 362.5 434.498 356.7 431.898 354.4C429.898 352.6 427.098 352.5 358.598 352.3C313.798 352.2 286.498 352.5 284.798 353.1ZM308.698 387.8C303.198 387.9 298.498 387.9 298.198 387.6C297.998 387.3 300.098 383.9 302.998 380L308.198 373L313.398 380.2L318.598 387.5L308.698 387.8ZM410.198 379.2C412.698 382.7 414.998 386.1 415.398 386.7C415.998 387.7 413.698 388 405.498 388H394.898L400.098 380.5C402.998 376.4 405.498 373 405.598 373C405.698 373 407.798 375.8 410.198 379.2ZM326.998 403.9C326.998 404.3 325.998 406.2 324.698 408.1C316.398 420.4 294.598 418.3 289.698 404.7C289.098 403.1 290.398 403 307.998 403C318.498 403 326.998 403.4 326.998 403.9ZM423.998 404.1C423.998 406.3 420.098 411.5 417.198 413.2C408.598 418.3 398.398 417.3 391.398 410.6C383.798 403.2 384.198 403 405.498 403C418.598 403 423.998 403.3 423.998 404.1Z" fill="#137AB6"/>
</svg>
