<svg width="512" height="512" viewBox="0 0 512 512" fill="none" xmlns="http://www.w3.org/2000/svg">
<path d="M61 44.3997C20.8 68.4997 20.5 68.6997 20.5 71.9997C20.5 75.2997 20.8 75.4997 61 99.6997C93.4 119.2 102.1 124 104.5 123.8L107.5 123.5L107.8 107.7L108.1 91.9997H187.8C272.7 91.9997 289.8 92.5997 306.8 96.0997C378.1 110.4 433.6 166.3 448.2 238.2C450.2 248 450.5 252.5 450.5 272C450.5 291.5 450.2 296 448.2 305.8C433.6 377.7 378.1 433.6 306.8 447.9C291 451.1 273 452 217.8 452H168V456V460H228.8C284.6 460 290.5 459.8 301.5 458C333 452.8 360.5 441.2 385.5 422.5C396.3 414.5 415.1 395.6 423.3 384.5C441.6 359.7 453.9 330.1 458.5 299.4C460.5 286.4 460.5 257.6 458.5 244.6C453.9 213.9 441.6 184.3 423.3 159.5C414.7 148 396 129.3 384.5 120.7C359.5 102.3 329.7 89.9997 299 85.4997C290 84.1997 274.7 83.9996 194.5 84.1996L100.5 84.4997L100 98.1997L99.5 111.8L66.8 92.1997C48.7 81.2997 34 72.2997 34 71.9997C34 71.6997 48.7 62.6996 66.8 51.7997L99.5 32.1997L100 45.7997L100.5 59.4996L194.5 60.0997C291.4 60.6997 294.4 60.7997 315 65.0997C392.5 81.0997 456.4 141.8 476.5 218.6C485.2 251.8 485.2 292.2 476.5 325.4C467.1 361.4 448.3 393.8 421.1 421.1C387.9 454.2 349.2 473.8 302.5 481.2C290.9 483 283.5 483.3 232.8 483.7L176 484.2V488.2V492.1L237.8 491.8C296.4 491.4 300 491.3 310.5 489.2C349.4 481.5 380.3 467.5 409.9 444.1C419.1 436.9 436.5 419.5 444.1 410C462.8 386.7 478.3 355.6 485.4 327.1C490.9 305.7 491.5 300.2 491.5 272C491.5 243.3 490.8 237.8 485 215.4C471.7 164 438.7 118 393.5 87.7997C374.3 75.0997 345 62.4997 321.8 57.0997C300.9 52.1997 295.8 51.9997 199 51.9997H108.1L107.8 36.1997L107.5 20.4997L104.5 20.2997C102.1 20.0997 93 25.0997 61 44.3997Z" fill="#137AB6"/>
<path d="M292.7 132.6C292.3 133 292 138.3 292 144.4V155.5L182.3 155.2C121.9 155 71.5 155.2 70.3 155.5L68 156L68.2 239.8L68.5 323.5L136.3 323.8L204 324V332V340H174H144V344V348H174H204V356V364H182H160V368V372L277.8 371.8L395.5 371.5V264V156.5L368 156.2L340.4 156L339.2 151.6C337.7 145.8 332.5 139.2 326.5 135.5C321.8 132.6 321.3 132.5 307.6 132.2C299.8 132 293.1 132.2 292.7 132.6ZM320.7 142.8C325 145.1 327 147 329.6 152C331.4 155.3 331.5 159.1 331.8 215.2L332.1 275L326.9 271.7C322 268.7 321 268.5 310.8 268.2L300 267.8V203.8V139.7L308.4 140.3C313.8 140.7 318.3 141.6 320.7 142.8ZM292.2 219.7L292.5 275.5L304.5 276.1C316.6 276.7 320.8 277.9 325.4 281.9C330.9 286.7 332.7 297.8 329.1 304.8C326.9 309 324.9 311 320 313.6C316.6 315.4 311.5 315.5 196.3 315.8L76 316V240V164H184H292L292.2 219.7ZM388 240V316H360.5H333L336 311.3C337.6 308.8 339.3 305.2 339.6 303.4C340.1 300.5 340.6 300.1 343.9 299.8C347.2 299.5 347.6 299.2 348.4 295.5C351 283.3 355.3 279 367.5 276.4L371.5 275.5V240V204.5L367.5 203.6C355.3 201 351 196.7 348.4 184.5C347.6 180.8 347.2 180.5 343.8 180.2L340 179.9V171.9V164H364H388V240ZM346.9 203.2C350.2 207 359 212 362.2 212C363.9 212 364 213.7 364 240C364 266 363.9 268 362.3 268C356.1 268.1 346.3 275.7 342.6 283.2L340 288.4V239.9C340 192 340.1 191.5 341.9 195.6C342.9 197.8 345.2 201.3 346.9 203.2ZM252 344V364H232H212V344V324H232H252V344ZM388 332V340H324H260V332V324H324H388V332ZM388 356V364H324H260V356V348H324H388V356Z" fill="#137AB6"/>
<path d="M116 182.6C115.4 184 115 186 115 187.1C115 190 111.4 196.5 108.6 198.8C105.7 201 102.3 202.4 96.5 203.6L92.5 204.5V240V275.5L96.5 276.4C108.7 279 113 283.3 115.6 295.5L116.5 299.5L146.3 299.8L176 300V296V292H150.1H124.2L123.6 288.7C122.1 280.5 112.9 271 104.3 268.7L100 267.6V240V212.4L104.3 211.3C112.9 209 122.1 199.5 123.6 191.3L124.2 188H150.1H176V184V180H146.5H117L116 182.6Z" fill="#137AB6"/>
<path d="M218 206.2C214.2 207.7 210.6 210.2 206.4 214.4C198.6 222.2 196 228.7 196 240C196 251.3 198.6 257.8 206.4 265.6C214.2 273.4 220.7 276 232 276C243.3 276 249.8 273.4 257.6 265.6C265.4 257.8 268 251.3 268 240C268 228.7 265.4 222.2 257.6 214.4C249.7 206.5 243.3 204 231.7 204.1C225.9 204.1 221.9 204.7 218 206.2ZM241.9 214.7C259.3 220.9 264.7 243.9 252.1 258.2C242.1 269.7 222.8 270 212.3 258.9C200 245.9 203.6 223.9 219.3 215.8C226.8 212 233.4 211.7 241.9 214.7Z" fill="#137AB6"/>
<path d="M120 240V244H148H176V240V236H148H120V240Z" fill="#137AB6"/>
<path d="M72.2 341.5C68.7 342.3 62 344.8 57.2 347.1C50.2 350.5 47 352.9 40 359.9C26.2 373.8 20 388.5 20 408.1C20 427.5 26.1 442.2 40 456C49.6 465.7 57.8 470.5 70 473.9C79.9 476.7 95.8 476.8 105.2 474.2L111.8 472.3L134.7 482.2C159.5 492.9 163.2 493.7 163.8 488.7C164 487.1 160.8 475.9 156.5 462.9L148.8 439.9L150.9 435C154.5 426.5 156 419 156 408.4C156 388.3 150.1 374 136 359.9C122.2 346.1 107.3 340 88 340.1C82.8 340.1 75.7 340.8 72.2 341.5ZM102.5 350.5C113 353.2 120.8 357.8 129.5 366.5C141.8 378.7 147 391.2 147 408C147 417.3 145.3 425.4 141.4 434L139 439.5L145.5 458.9C149 469.6 151.8 478.5 151.6 478.8C151.4 479 142.6 475.5 132.1 471C119.9 465.7 112.2 462.9 110.7 463.3C109.5 463.5 105.8 464.5 102.5 465.4C95 467.5 81.5 467.6 73.5 465.5C62.8 462.8 55.2 458.2 46.5 449.5C34.2 437.3 29 424.9 29 408C29 391.1 34.1 378.8 46.5 366.5C55 358 62.7 353.4 73.1 350.6C80.3 348.7 95.1 348.6 102.5 350.5Z" fill="#137AB6"/>
<path d="M84.1043 401.6C70.7043 421.6 59.9043 438.2 60.1043 438.3C64.0043 441.4 67.3043 443.1 68.0043 442.4C68.4043 441.9 79.4043 425.6 92.3043 406.1C107.304 383.6 115.604 370.2 115.004 369.6C114.604 369 112.904 367.8 111.304 366.9L108.504 365.2L84.1043 401.6Z" fill="#137AB6"/>
<path d="M64 384V388H72H80V384V380H72H64V384Z" fill="#137AB6"/>
<path d="M88 432V436H96H104V432V428H96H88V432Z" fill="#137AB6"/>
</svg>
