<svg width="512" height="512" viewBox="0 0 512 512" fill="none" xmlns="http://www.w3.org/2000/svg">
<path d="M212 43.0999C165.3 48.4999 122.5 68.7999 87.6 102.1C79.5 109.8 77 111.7 77.4 109.9C77.7 108.6 78.1 104.8 78.5 101.4C79 96.3999 78.7 94.8999 77.3 93.1999C74.5 89.8999 70.7 89.4999 67.7 92.1999C65.1 94.3999 64.9 95.2999 62.9 115.8C60.9 135.5 60.9 137.2 62.4 139.5C63.7 141.4 64.9 142 67.9 142C74.4 142 109.3 135.1 110.9 133.5C111.7 132.7 112.4 130.4 112.4 128.4C112.4 121.9 107.7 120.6 93.9 123.5C89.9 124.4 86.5 124.8 86.2 124.5C85.2 123.6 106.6 103.4 116.1 96.3999C152.4 69.2999 191.8 56.0999 236.5 55.9999C260.1 55.9999 276.7 58.5999 299.4 65.9999C380.8 92.4999 437.2 170.7 437 256.7C436.7 356 362.2 440.8 263.2 454.4C216.6 460.9 166.3 449.3 127 423.2C107.4 410.1 93.2 397.1 78.7 378.7C72 370.3 70.7 369.4 66 369.9C63.8 370.2 61 373.9 61 376.5C61 381.8 82.1 406.1 98.9 420.1C138 452.8 185.6 470 236.5 470C270.7 470 302 462.8 331.9 447.9C394.8 416.7 437.7 358 448.7 287.9C451.4 270.5 451.1 237.7 448.1 220.7C443.9 196.8 437 176.2 426.4 156.1C393.6 93.9999 333 52.1999 263 43.3999C250.7 41.8999 224.1 41.6999 212 43.0999Z" fill="#137AB6"/>
<path d="M141.3 131.3L116 156.5V273.8C116 377.1 116.2 391.5 117.5 394.7C119.6 399.7 121.7 401.9 126.5 404.1C130.3 405.9 135.5 406 226 406C285.7 406 322.8 405.6 325 405C329.1 403.9 334.4 398.9 335.9 394.7C336.5 393.1 337 386.7 337 380.4V369H354.8C374.3 369 377.9 368.4 382.3 364.3C388.1 358.7 388 359.6 388 315.5C388 271.4 388.1 272.3 382.3 266.7C377.9 262.6 374.3 262 354.8 262H337V191.1C337 143.5 336.7 119.2 335.9 117.3C334.4 113.1 329.1 108.1 325 107C322.9 106.4 291.8 106 244 106H166.5L141.3 131.3ZM321.8 121.2C322.7 122.1 323 139.2 323 192.2V262H267C218.8 262 210.4 262.2 207.3 263.5C202.5 265.5 200.2 267.6 197.9 272.2C196.1 275.7 196 278.6 196 315.5C196 352.4 196.1 355.3 197.9 358.8C200.2 363.4 202.5 365.5 207.3 367.5C210.4 368.8 218.8 369 267 369H323V379.3C323 386 322.6 390 321.8 390.8C320.9 391.7 298.3 392 226.3 392C134.2 392 132 392 131 390.1C130.3 388.8 130 351.7 130 277.1V166H147C165.7 166 167.7 165.5 172.3 160C176.2 155.4 177 151 177 134.7V120H248.8C303.3 120 320.9 120.3 321.8 121.2ZM163 139.5C163 152.4 162.4 153 149.3 153H139.5L151 141.5C157.3 135.2 162.6 130 162.7 130C162.9 130 163 134.3 163 139.5ZM372.8 277.2C374.5 278.9 374.5 352.1 372.8 353.8C371.1 355.5 212.9 355.5 211.2 353.8C209.5 352.1 209.5 278.9 211.2 277.2C212.9 275.5 371.1 275.5 372.8 277.2Z" fill="#137AB6"/>
<path d="M160 192.001C155 197.001 159.3 204.001 167.3 204.001H172V219.301C172 233.301 172.2 234.801 174 236.801C176.6 239.601 181.3 239.701 184 237.001C185.8 235.201 186 233.701 186 219.501V204.001H191C196.9 204.001 200 201.601 200 197.001C200 195.301 199.1 193.101 198 192.001C196.2 190.201 194.7 190.001 179 190.001C163.3 190.001 161.8 190.201 160 192.001Z" fill="#137AB6"/>
<path d="M222.2 191.7C219.7 194 206 228.5 206 232.7C206 236.4 208.9 239 213.1 239C216.7 239 218.3 236.9 222.7 225.7L226.6 215.9L230.5 225.6C234.8 236.5 236.7 239 240.9 239C243.9 239 248 235.2 248 232.4C248 229.1 232.7 192.9 230.7 191.5C227.9 189.5 224.7 189.6 222.2 191.7Z" fill="#137AB6"/>
<path d="M255.097 192.6C252.097 196.4 252.397 198.1 257.797 205C260.397 208.4 263.097 212 263.797 212.9C264.897 214.5 264.297 215.6 259.497 221.6C256.497 225.4 253.697 229.6 253.297 230.8C252.497 234.3 255.897 238.4 259.897 238.8C263.297 239.1 263.397 239.1 272.197 228.8L274.497 226L279.797 232.5C283.897 237.7 285.597 239 287.797 239C292.297 239 294.997 236.4 294.997 232.2C294.897 229.2 293.797 227.2 289.097 221.5L283.297 214.5L289.097 207.3C293.797 201.6 294.997 199.4 294.997 196.6C294.997 192.6 292.197 190 287.797 190C285.597 190 283.897 191.3 279.797 196.5L274.497 203L272.197 200.2C263.797 190.5 263.297 190 260.197 190C258.097 190 256.497 190.8 255.097 192.6Z" fill="#137AB6"/>
<path d="M263.201 282C256.201 286.3 253.701 296.7 258.001 303.8C264.201 313.9 280.001 313.4 285.201 303C288.901 295.8 286.601 286.6 280.101 282.3C275.701 279.3 267.901 279.2 263.201 282ZM273.001 295.5C273.001 296.3 272.301 297 271.501 297C270.701 297 270.001 296.3 270.001 295.5C270.001 294.7 270.701 294 271.501 294C272.301 294 273.001 294.7 273.001 295.5Z" fill="#137AB6"/>
<path d="M292.3 304.7C281.9 316.2 271.1 328.1 268.2 331.3C264.1 335.8 263 337.7 263 340.4C263 344.5 265.6 347 269.7 347C272.4 347 274.3 345.4 283.3 335.7C301.7 315.9 319.1 296.6 320.7 294.3C323.7 289.8 320.2 284 314.5 284C311.5 284 309.7 285.7 292.3 304.7Z" fill="#137AB6"/>
<path d="M303.9 322.399C300.1 324.999 297 330.999 297 335.699C297 340.299 300.7 346.499 304.9 348.799C318.8 356.599 334.3 341.999 326.8 328.099C323.9 322.599 319.2 319.999 312.5 319.999C308.8 319.999 306.5 320.699 303.9 322.399ZM314.1 335.499C314 336.999 311.7 336.699 311.2 335.199C310.9 334.299 311.4 333.899 312.4 334.199C313.4 334.299 314.1 334.899 314.1 335.499Z" fill="#137AB6"/>
</svg>
