<svg width="512" height="512" viewBox="0 0 512 512" fill="none" xmlns="http://www.w3.org/2000/svg">
<g clip-path="url(#clip0_363_3660)">
<path d="M17.4945 2.7C16.0945 4.3 14.4945 7.1 13.8945 9C13.2945 11.3 12.9945 93 13.1945 256.2L13.4945 499.8L16.5945 503.6C18.1945 505.7 20.8945 508.3 22.3945 509.4L25.0945 511.5L201.294 511.8C361.694 512 377.794 511.9 381.594 510.4C385.494 508.9 386.294 508.9 390.594 510.4C394.094 511.6 399.094 512 409.494 512H423.494L431.994 503.5C440.994 494.5 441.394 494.2 453.494 491C463.394 488.3 469.194 485.1 471.994 480.6C473.894 477.5 475.594 470.8 477.494 458.5C478.094 455.1 479.594 453.1 487.494 445.5C500.294 433.2 501.394 428.6 495.994 412.5C492.294 401.6 492.294 398.1 495.594 389.9C498.794 382.2 499.194 374.2 496.594 369C495.594 367.1 490.594 361.2 485.394 356C475.094 345.6 475.594 346.7 473.494 329.9C472.094 319.2 463.294 311.9 449.994 310.4C440.794 309.5 439.594 308.8 430.594 300C421.294 290.9 417.494 289 408.994 289H402.994V190.7V92.5L356.694 46.2L310.494 0H165.294H20.0945L17.4945 2.7ZM299.194 48.4C299.494 91.2 299.594 92.9 301.494 95C305.794 99.9 307.094 100 351.994 100H393.994V196.4C393.994 283.4 393.794 292.8 392.394 293.4C389.494 294.5 385.494 294 375.494 291C357.794 285.8 352.394 287 338.894 299.5C328.294 309.3 327.694 309.7 318.894 312.2C302.294 316.8 299.494 320.1 295.394 339.5C293.694 347.4 293.594 347.6 285.294 356.2C280.694 361 276.294 366.5 275.494 368.4C273.294 373.5 273.594 379.7 276.594 391.5L279.194 401.9L276.594 411.8C271.994 429.2 273.094 434.1 283.794 445.4C290.494 452.4 290.694 452.8 293.394 463C298.794 483.2 301.294 486.2 317.194 491C331.494 495.3 332.294 495.7 336.094 499.6L339.394 503H184.094H28.7945L25.3945 499.6L21.9945 496.2V254.2V12.2L24.5945 9.1C25.9945 7.4 28.5945 5.6 30.2945 5.1C32.1945 4.6 88.9945 4.1 166.194 4.1L298.894 4L299.194 48.4ZM349.394 90.8C321.694 90.9 310.294 90.7 309.394 89.9C308.294 89 307.994 81.6 307.994 50.3V11.8L347.994 51.2L388.094 90.5L349.394 90.8ZM373.694 300C386.694 303.7 390.994 303.7 399.594 300.5C411.394 296.1 414.694 297 424.994 307.5C433.194 315.9 436.894 317.8 448.194 319.5C461.294 321.4 463.994 324.5 465.494 339C466.494 348.9 468.794 352.9 479.294 363.2C485.794 369.6 488.894 373.4 489.294 375.5C489.694 377.5 488.794 381.4 486.894 387C483.194 397.7 483.194 402.6 486.994 414.3C488.694 419.5 489.994 424.7 489.994 425.9C489.994 429.7 487.394 433.3 480.094 439.8C471.694 447.3 469.394 451.3 467.994 461.2C465.694 476.4 463.794 478.6 450.294 482.4C436.494 486.3 436.094 486.5 426.994 495.4C422.294 500 417.394 504.5 415.994 505.4C412.294 507.8 406.694 507.4 399.194 503.9C389.794 499.5 382.994 499.5 373.294 503.8C368.994 505.7 364.494 507 361.994 507C358.194 507 357.194 506.3 347.894 497.5L337.894 488L325.194 484C318.294 481.8 311.494 479.3 310.294 478.5C307.194 476.4 305.594 473 302.494 461.5C299.094 448.9 297.394 445.7 290.994 439.5C285.294 434 282.994 430.3 282.994 426.8C282.994 425.5 284.194 419.4 285.694 413.3L288.394 402L285.994 391.8C282.894 378.1 282.694 376.5 283.394 373.4C283.794 372 288.094 366.6 292.894 361.5L301.794 352.2L304.494 340.6C307.894 325.9 309.394 324.2 321.194 321C331.994 318.1 333.094 317.5 342.494 308.8C357.394 295.1 356.794 295.3 373.694 300Z" fill="#137AB6"/>
<path d="M67.8969 62.9004C63.1969 64.4004 60.0969 67.1004 57.9969 71.5004C55.9969 75.6004 55.8969 77.1004 56.1969 105.301C56.4969 133.301 56.5969 135.001 58.5969 137.601C63.0969 143.701 65.0969 144.501 78.2969 144.801C92.8969 145.201 96.9969 144.101 101.297 138.701C104.297 135.101 104.397 134.501 104.797 123.001C105.297 108.801 104.697 104.601 101.497 101.401C99.2969 99.2004 98.2969 99.0004 88.6969 99.0004C77.8969 99.0004 75.9969 99.7004 75.9969 103.501C75.9969 107.201 77.8969 108.001 87.2969 108.001H96.1969L95.7969 120.101C95.3969 135.801 95.1969 136.001 80.4969 136.001C71.6969 136.001 69.8969 135.701 67.5969 133.901L64.9969 131.901V105.001C64.9969 87.4004 65.3969 77.3004 66.0969 75.7004C67.7969 72.0004 71.0969 71.0004 80.9969 71.0004C88.8969 71.0004 90.1969 71.3004 92.5969 73.3004C94.7969 75.2004 95.3969 76.7004 95.7969 81.6004C96.2969 88.1004 97.2969 90.0004 100.097 90.0004C103.497 90.0004 105.297 85.6004 104.597 79.4004C103.797 72.4004 101.997 68.8004 97.2969 65.3004C93.7969 62.6004 93.0969 62.5004 82.0969 62.3004C75.6969 62.2004 69.2969 62.4004 67.8969 62.9004Z" fill="#137AB6"/>
<path d="M140.899 63.4003C135.299 65.4003 131.299 68.7003 128.299 73.8003C126.099 77.5003 125.599 79.6003 125.599 84.9003C125.599 92.3003 127.099 95.8003 132.199 100.7C136.099 104.5 140.299 106.3 148.499 108C156.499 109.6 161.599 112.4 163.499 116C168.199 125 160.899 136 150.199 136C141.799 136 135.699 131.5 134.399 124.1C133.599 119.6 132.299 118 129.599 118C122.399 118 123.899 129.9 131.999 138C137.099 143.2 141.899 145 150.399 145C157.199 145 161.299 143.4 166.499 138.9C171.399 134.6 173.999 128.9 173.999 122.2C173.999 109.6 167.399 102.7 151.999 99.5003C140.799 97.1003 135.999 93.7003 134.499 86.9003C132.899 79.8003 141.199 71.0003 149.399 71.0003C156.999 71.0003 164.999 77.1003 164.999 82.9003C164.999 87.0003 167.099 89.2003 170.499 88.8003C173.299 88.5003 173.499 88.2003 173.799 83.8003C174.199 77.9003 171.599 72.5003 165.999 67.8003C159.499 62.2003 149.199 60.4003 140.899 63.4003Z" fill="#137AB6"/>
<path d="M184.998 63.9002C183.598 66.6002 183.698 67.6002 185.598 69.4002C186.798 70.7002 189.598 71.0002 199.098 71.0002H210.998V106.8C210.998 144.4 211.098 145 215.498 145C219.898 145 219.998 144.4 219.998 106.8V71.0002H231.898C244.898 71.0002 246.398 70.4002 245.798 65.3002L245.498 62.5002L215.798 62.2002C187.198 62.0002 185.998 62.0002 184.998 63.9002Z" fill="#137AB6"/>
<path d="M60.2 185.2C59.3 186.1 59 194.9 59 218.6C59 247 59.2 250.9 60.6 251.4C61.5 251.7 76.2 252 93.4 252C116.3 252 124.9 251.7 125.8 250.8C127.5 249.1 127.5 186.9 125.8 185.2C124.1 183.5 61.9 183.5 60.2 185.2ZM118 218V243H93H68V218V193H93H118V218Z" fill="#137AB6"/>
<path d="M142.997 198.1C142.097 199.7 142.197 200.7 143.497 202.6L144.997 205H247.497C339.197 205 349.997 204.8 351.397 203.4C353.297 201.6 353.497 198.9 351.797 197.2C350.897 196.3 326.297 196 247.297 196H144.097L142.997 198.1Z" fill="#137AB6"/>
<path d="M143.502 232C142.002 233.7 141.902 234.4 142.802 236.5L144.002 239H216.802C272.102 239 289.902 238.7 290.802 237.8C292.502 236.1 292.302 233.4 290.402 231.6C289.002 230.2 281.002 230 217.102 230C146.502 230 145.302 230 143.502 232Z" fill="#137AB6"/>
<path d="M59.7 292.699C59.3 292.999 59 307.799 59 325.499C59 349.099 59.3 357.899 60.2 358.799C61.9 360.499 124.1 360.499 125.8 358.799C127.5 357.099 127.5 294.899 125.8 293.199C124.9 292.299 116.1 291.999 92.5 291.999C74.8 291.999 60 292.299 59.7 292.699ZM118 325.999V350.999H93H68V325.999V300.999H93H118V325.999Z" fill="#137AB6"/>
<path d="M143.502 311C142.002 312.7 141.902 313.4 142.802 315.5L144.002 318H216.802C272.102 318 289.902 317.7 290.802 316.8C292.502 315.1 292.302 312.4 290.402 310.6C289.002 309.2 281.002 309 217.102 309C146.502 309 145.302 309 143.502 311Z" fill="#137AB6"/>
<path d="M143.002 340.901C141.802 343.301 142.602 345.701 145.102 347.001C147.602 348.401 241.502 348.301 244.102 347.001C246.002 345.901 246.502 343.501 245.402 340.601C244.902 339.201 239.402 339.001 194.402 339.001C145.702 339.001 144.002 339.101 143.002 340.901Z" fill="#137AB6"/>
<path d="M60.0928 401.4C59.2928 402.3 58.9928 412.1 59.1928 435.1L59.4928 467.5L92.3928 467.8C118.093 468 125.493 467.7 126.193 466.8C126.593 466.1 126.993 451.2 126.993 433.8C126.993 403.4 126.893 402 125.093 401C123.893 400.4 111.593 400 92.1928 400C67.1928 400 60.9928 400.3 60.0928 401.4ZM117.993 434V459H92.9928H67.9928V434V409H92.9928H117.993V434Z" fill="#137AB6"/>
<path d="M145.198 416.7C142.998 417.6 141.798 420.8 142.998 423C143.998 425 145.098 425 197.398 425C245.198 425 250.898 424.8 251.398 423.4C252.498 420.5 251.998 418.1 250.098 417C248.098 416 147.798 415.6 145.198 416.7Z" fill="#137AB6"/>
<path d="M143.598 449.6C141.698 451.4 141.598 452.4 142.998 455.1C143.998 456.9 145.698 457 196.798 457C252.398 457 251.998 457 251.998 452.5C251.998 448 252.398 448 197.398 448C151.198 448 144.998 448.2 143.598 449.6Z" fill="#137AB6"/>
<path d="M350.2 355.199C348.5 356.899 348.7 359.599 350.6 361.399C351.8 362.699 354.6 362.999 363.8 362.999C376.5 363.099 380.9 364.099 386.5 368.399C390.2 371.199 394.4 377.699 395.5 382.199L396.2 384.999H373.8C357.7 384.999 351.1 385.299 350.2 386.199C348.5 387.899 348.7 390.599 350.6 392.399C351.9 393.799 355.4 393.999 373.7 393.999H395.2L394.5 396.699C393.8 399.499 389.8 405.399 387 407.799C386.2 408.499 383.3 410.199 380.5 411.499C376.1 413.699 374.2 413.999 363.5 413.999C350.8 413.999 349 414.599 349 418.399C349 420.899 393.9 467.999 397.5 469.399C399.2 470.099 400.4 469.899 401.4 468.999C405.2 465.899 403.5 463.399 383.9 443.199L364.9 423.499L372.2 422.899C385.3 421.799 395.3 415.599 400.7 405.299C402.4 402.099 404 398.299 404.4 396.699C405 394.099 405.2 393.999 412.6 393.999C421.2 393.999 424 392.899 424 389.699C424 385.799 422.1 384.999 413.5 384.999H405.3L404.1 379.599C403.4 376.399 401.3 371.899 399 368.599L395.1 362.999H407.6C414.5 362.999 421 362.499 422.1 361.999C424.2 360.799 424.6 356.999 422.8 355.199C421.1 353.499 351.9 353.499 350.2 355.199Z" fill="#137AB6"/>
</g>
<defs>
<clipPath id="clip0_363_3660">
<rect width="512" height="512" fill="white"/>
</clipPath>
</defs>
</svg>
