<svg width="512" height="512" viewBox="0 0 512 512" fill="none" xmlns="http://www.w3.org/2000/svg">
<path d="M80 41.2C75 42.6 70.3 46.5 68 51C66 54.9 66 57.2 66 225.3V395.6L68.9 400.3C70.8 403.1 73.5 405.8 76.2 407.2L80.5 409.5H164.5H248.5V402.5V395.5L165.7 395C85.1 394.5 82.8 394.4 81.4 392.6C80.2 390.9 80 366.4 80 225C80 76.8 80.2 59.2 81.6 57.2L83.1 55H174.1H265V75.5C265 97.4 265.6 100.8 270.3 105.8C275.2 111.1 277 111.5 300.5 112L322.5 112.5L322.8 172.2L323 232H330H337V166.8V101.6L306.5 71L276 40.5L179.8 40.3C117.9 40.2 82.2 40.5 80 41.2Z" fill="#137AB6"/>
<path d="M100.703 87.2C97.9026 89.4 97.5026 94.1 100.003 97.3C101.903 99.7 102.803 99.9996 108.103 99.9996H114.003V117.5C114.003 133.7 114.203 135.2 116.003 137C118.703 139.7 123.103 139.6 125.803 136.7C127.903 134.5 128.003 133.5 128.003 117.2V100.1L134.103 99.8C139.503 99.5 140.603 99.1 142.303 96.8C143.603 95 144.103 93.4 143.603 91.7C142.303 86.2 141.403 86 121.103 86C107.703 86 101.903 86.4 100.703 87.2Z" fill="#137AB6"/>
<path d="M168.6 87.8998C166.3 90.4998 151 128.8 151 132.2C151 137.6 157.9 140.9 162.3 137.6C163.3 136.8 166.1 131.1 168.6 124.9C171.1 118.6 173.3 113.4 173.5 113.2C173.6 113 175.7 117.8 178 123.7C182.4 135 185.5 139 189.6 139C192.9 139 196 135.6 196 132C196 128.6 180.5 89.5998 178.3 87.3998C176.2 85.3998 170.6 85.6998 168.6 87.8998Z" fill="#137AB6"/>
<path d="M204.998 88.701C201.698 92.901 202.698 95.101 214.398 109.501L216.798 112.401L210.898 119.601C207.698 123.501 204.598 127.801 203.998 129.201C201.598 134.301 206.698 140.001 212.398 138.601C213.898 138.201 217.098 135.301 220.198 131.501C222.998 127.901 225.698 125.001 226.098 125.001C226.498 125.001 229.098 127.901 231.898 131.401C238.698 139.901 241.998 141.101 246.498 136.501C250.298 132.801 249.698 130.001 243.198 121.801C239.998 117.801 236.998 113.901 236.598 113.201C236.098 112.401 237.798 109.501 241.298 105.201C247.498 97.501 248.998 94.901 248.998 92.101C248.998 88.901 245.498 86.001 241.498 86.001C238.398 86.001 237.398 86.801 232.298 93.001C229.098 96.801 226.298 100.001 225.998 100.001C225.698 100.001 223.998 98.001 222.198 95.601C216.098 87.501 214.298 86.001 210.598 86.001C207.998 86.001 206.598 86.701 204.998 88.701Z" fill="#137AB6"/>
<path d="M152.501 154.9C150.901 155.9 146.401 160 142.501 163.9L135.601 171H120.801C100.801 171 102.001 169.4 102.001 197.2C102.001 225.2 99.801 223 128.001 223C139.901 223 149.901 222.6 151.001 222C152.001 221.5 153.301 219.6 153.901 217.9C155.401 213.5 155.401 193.3 153.801 192.4C153.101 191.9 148.701 195.8 142.101 202.8C131.901 213.6 129.401 215.3 126.401 213.2C124.501 211.9 115.001 198.7 115.001 197.4C115.001 195.5 117.901 193 120.001 193C121.001 193 123.601 195.1 125.801 197.7L129.801 202.5L147.201 184.6C156.701 174.8 165.101 165.6 165.801 164.3C167.301 161.5 166.701 157.4 164.301 154.7C162.201 152.4 156.301 152.5 152.501 154.9Z" fill="#137AB6"/>
<path d="M184.606 188.2C182.206 191.6 182.606 195.5 185.606 197.9C188.206 200 189.206 200 241.406 200C299.106 200 298.006 200.1 299.406 194.5C300.006 192 298.706 188.1 296.606 186.8C296.006 186.4 270.906 186 240.806 186H186.106L184.606 188.2Z" fill="#137AB6"/>
<path d="M155.004 228.102C153.604 228.602 148.904 232.602 144.504 237.002L136.504 244.902L121.204 245.202C100.604 245.602 102.004 243.702 102.004 271.502C102.004 291.002 102.204 293.002 103.904 295.102C105.804 297.502 106.104 297.502 127.304 297.802L148.804 298.102L151.604 295.602C154.504 293.202 154.504 293.002 154.804 281.002C155.104 273.002 154.804 268.402 154.104 267.702C153.304 266.902 149.904 269.602 141.704 277.802C135.504 284.002 129.704 289.002 128.704 289.002C127.104 289.002 115.004 274.002 115.004 271.902C115.004 271.402 115.904 270.102 116.904 269.102C119.604 266.402 122.304 267.402 125.604 272.102C127.104 274.202 128.804 276.002 129.404 276.002C131.604 276.002 165.704 240.602 166.404 237.602C167.304 233.802 165.504 229.602 162.404 228.102C159.504 226.802 158.304 226.802 155.004 228.102Z" fill="#137AB6"/>
<path d="M270.505 246.401C266.805 248.001 263.505 251.601 262.105 255.301C260.505 259.501 260.705 457.301 262.305 461.901C263.005 463.801 265.205 466.701 267.305 468.401L271.205 471.501L352.105 471.801C430.605 472.001 433.205 472.001 437.505 470.101C440.205 468.901 442.705 466.801 444.005 464.801C446.005 461.501 446.005 460.101 446.005 358.401V255.301L443.705 251.901C438.905 244.601 443.805 245.001 354.005 245.001C289.105 245.101 272.905 245.301 270.505 246.401ZM417.005 276.501C422.705 279.401 423.005 280.801 423.005 300.501C423.005 320.201 422.705 321.601 417.005 324.501C414.505 325.801 405.405 326.001 353.805 326.001C307.605 326.001 292.905 325.701 291.005 324.701C289.705 324.001 287.505 321.901 286.205 320.001C284.005 316.601 283.905 315.901 284.205 299.801C284.505 284.701 284.705 282.901 286.605 280.301C290.605 274.901 289.005 275.001 353.805 275.001C405.405 275.001 414.505 275.201 417.005 276.501ZM312.605 355.401C314.805 357.901 315.005 359.001 315.005 368.401C315.005 377.301 314.705 379.101 312.905 381.401C310.905 383.901 310.605 384.001 299.605 384.001C284.605 384.001 284.505 383.901 284.505 368.501C284.505 352.701 285.305 352.001 301.405 352.401C309.705 352.601 310.405 352.801 312.605 355.401ZM363.605 353.001C368.305 354.801 368.905 356.601 369.005 368.401C369.005 378.301 368.805 379.601 366.805 381.701C364.805 383.801 363.805 384.001 353.805 384.001C339.105 384.001 339.005 383.901 339.005 368.701C339.005 356.501 340.005 353.501 344.305 352.701C348.805 351.801 361.005 352.001 363.605 353.001ZM416.105 353.001C423.105 354.901 423.005 354.401 423.005 397.301V435.701L420.605 438.301C417.805 441.301 411.405 442.601 403.705 441.701C399.605 441.201 397.905 440.401 395.805 438.001L393.005 435.001V397.101V359.201L395.505 356.101C396.905 354.501 399.105 352.901 400.305 352.701C404.605 351.901 412.605 352.001 416.105 353.001ZM312.905 412.601C314.705 414.901 315.005 416.701 315.005 425.601C315.005 435.001 314.805 436.101 312.605 438.701C310.205 441.401 309.905 441.501 299.605 441.501C290.005 441.501 288.905 441.301 286.805 439.201C284.705 437.101 284.505 436.101 284.505 425.601C284.505 410.101 284.505 410.001 299.605 410.001C310.605 410.001 310.905 410.101 312.905 412.601ZM366.705 412.201C368.805 414.201 369.005 415.101 369.005 425.501C369.005 436.201 368.905 436.801 366.505 439.001C362.005 443.201 345.105 443.101 340.905 438.901C339.205 437.201 339.005 435.601 339.005 425.501C339.005 410.101 339.105 410.001 353.705 410.001C363.305 410.001 364.605 410.201 366.705 412.201Z" fill="#137AB6"/>
<path d="M185.005 265C182.405 267.6 182.405 272.4 185.005 275C186.905 276.9 188.305 277 215.905 277C240.905 277 245.105 276.8 246.405 275.4C248.805 273.1 249.305 269.5 247.805 266.3L246.505 263.5L216.805 263.2C188.105 263 187.005 263 185.005 265Z" fill="#137AB6"/>
<path d="M148.3 307.901C144.5 311.101 140.2 315.201 138.6 316.901L135.6 320.001H121.3C107.4 320.001 106.8 320.101 104.5 322.501C102 324.901 102 325.001 102 345.801C102 365.501 102.1 366.901 104.1 369.401L106.1 372.001H128.4C156.2 372.001 154.4 373.201 154.9 354.901C155.2 343.301 155 342.001 153.5 342.001C152.6 342.001 147.5 346.501 142.3 352.001C132 362.801 129.8 364.501 127.5 363.301C125.6 362.201 115 348.001 115 346.501C115 344.801 118.3 342.001 120.3 342.001C121.2 342.001 123.4 344.001 125.2 346.501C127 348.901 129 350.901 129.6 351.001C130.2 351.001 138.7 342.601 148.6 332.401C165.6 314.601 166.5 313.501 166.5 309.801C166.5 304.901 163.4 302.001 158.4 302.001C155.7 302.001 153.7 303.201 148.3 307.901Z" fill="#137AB6"/>
<path d="M185 342.001C183.9 343.101 183 345.301 183 347.001C183 348.701 183.9 350.901 185 352.001C186.9 353.901 188.3 354.001 216.4 354.001C249.3 354.001 248.5 354.201 248.5 346.801C248.5 340.001 248.4 340.001 215.8 340.001C188.3 340.001 186.9 340.101 185 342.001Z" fill="#137AB6"/>
</svg>
