<svg width="512" height="512" viewBox="0 0 512 512" fill="none" xmlns="http://www.w3.org/2000/svg">
<path d="M233 9.89957C221.5 12.3996 216.1 14.2996 205.5 19.4996C181.4 31.2996 160.8 53.9996 151.4 78.7996L148.1 87.4996L85.8004 87.9996C16.9004 88.5996 21.0004 88.0996 14.3004 95.1996C7.50041 102.3 8.00041 86.0996 8.00041 296C8.00041 505.9 7.50041 489.7 14.3004 496.9C16.1004 498.7 19.3004 501.1 21.5004 502.1C25.4004 503.9 33.6004 504 255.8 504C461.6 504 486.5 503.8 489.8 502.4C494.7 500.4 499.8 495.4 502.1 490.5C503.9 486.6 504 479.4 504 296.2C504 86.0996 504.5 102.3 497.7 95.1996C491 88.0996 495.1 88.5996 426.2 87.9996L363.9 87.4996L360.6 78.8996C348.2 45.8996 319.4 20.3996 284 10.9996C271.8 7.79957 245.2 7.19957 233 9.89957ZM282.5 28.4996C313.6 37.5996 337.9 61.8996 347.7 93.6996C350.1 101.7 350.4 104 350.4 119.5C350.5 134.4 350.2 137.5 348.2 144.4C338.5 177.8 313.7 202.7 280.5 212.2C273.5 214.2 270.4 214.5 255.5 214.4C240 214.4 237.7 214.1 229.7 211.7C203.1 203.5 182.3 185.8 170.5 161.5C163 146.2 161.5 139.1 161.5 120C161.5 105.8 161.8 102.4 163.8 95.5996C173.8 60.8996 200.7 34.9996 235 26.7996C248.4 23.6996 268.4 24.3996 282.5 28.4996ZM144.2 118.5C143.6 143.8 148.9 162.3 162.9 183.5C168.1 191.4 181.3 205.2 187.7 209.5L192 212.3V350.1V488H112.5C24.7004 488 27.3004 488.2 25.1004 482C23.5004 477.3 23.5004 114.7 25.1004 110C27.2004 104 26.7004 104.1 88.5004 104H144.5L144.2 118.5ZM482.4 105.4C484.7 106.3 486.1 107.8 486.9 110C488.5 114.7 488.5 477.3 486.9 482C484.7 488.2 487.3 488 399.5 488H320V480V472H394C466.7 472 468 472 470 470C471.9 468.1 472 466.7 472 424C472 381.3 471.9 379.9 470 378C468 376 466.7 376 394 376H320V294.1V212.3L324.1 209.5C334.6 202.6 349.4 185 356.5 171C365.1 153.9 368.3 139.2 367.8 118.5L367.5 104H423.3C468.7 104 479.7 104.3 482.4 105.4ZM219.2 226.1C230.5 230.2 241.5 232 256 232C273.1 232 286.8 229.2 302.3 222.5C303.9 221.8 304 225.8 304 298.9V376H286C269.3 376 267.9 376.1 266 378C264.1 379.9 264 381.3 264 424C264 466.7 264.1 468.1 266 470C267.9 471.9 269.3 472 286 472H304V480V488H256H208V354.9C208 228.5 208.1 221.8 209.8 222.5C210.7 223 215 224.6 219.2 226.1ZM456 424V456H368H280V424V392H368H456V424Z" fill="#137AB6"/>
<path d="M236 42.1C213.5 47.9 194.8 62.9 184.5 83.5C178.2 96 176 105.5 176 120C176 134.5 178.2 144 184.5 156.5C194.8 177 214.1 192.4 236.4 198C242 199.4 247.7 200 256 200C270.5 200 280 197.8 292.5 191.5C313.1 181.2 328.2 162.2 334 139.6C336.7 128.7 336.8 111.3 334 100.4C326.8 71.9 304.1 49.2 275.6 42C264.8 39.3 246.5 39.3 236 42.1ZM259.7 60.9C262.5 65.1 265.3 72.6 267.3 81.2L268.8 88H256H243.2L244.6 81.7C247.2 70.5 250.3 62.7 253.8 58.7C255.8 56.5 257 56.9 259.7 60.9ZM230.5 68.2C229.2 72.2 227.6 78.3 227 81.7L225.7 88H213.9C207.3 88 202 87.7 202 87.2C202 85.7 211 75.2 215.4 71.6C218.7 68.8 231.1 61.3 232.6 61C232.7 61 231.8 64.3 230.5 68.2ZM295.8 70.9C300.6 74.8 310 85.5 310 87.2C310 87.7 304.7 88 298.1 88H286.3L285 81.7C284.4 78.3 282.8 72.3 281.5 68.3L279.2 61.1L284.9 64C288 65.5 292.9 68.7 295.8 70.9ZM224 120V136H209.5C196.6 136 194.9 135.8 194.2 134.2C193.3 132 193.3 108 194.2 105.7C194.9 104.2 196.6 104 209.5 104H224V120ZM271 120V136H256H241V120V104H256H271V120ZM317.8 105.7C318.7 108 318.7 132 317.8 134.2C317.1 135.8 315.4 136 302.5 136H288V120V104H302.5C315.4 104 317.1 104.2 317.8 105.7ZM227 158.2C227.6 161.7 229.2 167.7 230.5 171.7L232.8 178.9L227.1 176C219.3 172.1 211.8 166 206.5 159.2C204 156.1 202 153.2 202 152.7C202 152.3 207.3 152 213.9 152H225.7L227 158.2ZM267.3 158.7C264.4 171.5 259.2 182.5 256 182.5C252.8 182.5 247.6 171.5 244.7 158.7L243.2 152H256H268.8L267.3 158.7ZM310 152.7C310 153.2 308 156.1 305.5 159.2C300.2 166 292.7 172.1 284.9 176L279.2 178.9L281.5 171.7C282.8 167.7 284.4 161.7 285 158.2L286.3 152H298.1C304.7 152 310 152.3 310 152.7Z" fill="#137AB6"/>
<path d="M98.2 281.7C97.1 282.7 85.4 296.2 72.1 311.8C49.4 338.4 48 340.2 48 344C48 350.8 50.2 352 62 352H72V378C72 402.7 72.1 404.1 74 406C75.9 407.9 77.3 408 104 408C130.7 408 132.1 407.9 134 406C135.9 404.1 136 402.7 136 378V352H146C157.8 352 160 350.8 160 344C160 340.2 158.6 338.4 135.9 311.8C122.6 296.2 110.9 282.7 109.8 281.7C108.6 280.7 106.2 280 104 280C101.8 280 99.4 280.7 98.2 281.7ZM119 318.7L133.3 335.5L128 336C119.9 336.9 120 336.4 120 366.2V392H104H88V366.2C88 336.4 88.1 336.9 80 336L74.7 335.5L89 318.7C96.9 309.5 103.7 302 104 302C104.3 302 111.1 309.5 119 318.7Z" fill="#137AB6"/>
<path d="M42 426C40.1 427.9 40 429.3 40 448C40 466.7 40.1 468.1 42 470C44 472 45.3 472 104 472C162.7 472 164 472 166 470C167.9 468.1 168 466.7 168 448C168 429.3 167.9 427.9 166 426C164 424 162.7 424 104 424C45.3 424 44 424 42 426ZM152 448V456H104H56V448V440H104H152V448Z" fill="#137AB6"/>
<path d="M424 320V328H448H472V320V312H448H424V320Z" fill="#137AB6"/>
<path d="M392 352V360H432H472V352V344H432H392V352Z" fill="#137AB6"/>
<path d="M312 424V440H320H328V424V408H320H312V424Z" fill="#137AB6"/>
<path d="M344 424V440H352H360V424V408H352H344V424Z" fill="#137AB6"/>
<path d="M376 424V440H384H392V424V408H384H376V424Z" fill="#137AB6"/>
<path d="M408 424V440H416H424V424V408H416H408V424Z" fill="#137AB6"/>
</svg>
