<svg width="512" height="512" viewBox="0 0 512 512" fill="none" xmlns="http://www.w3.org/2000/svg">
<path d="M241.297 66.5995C232.597 73.6995 220.097 83.7995 213.397 89.1995L201.397 98.9995L169.397 99.1995L137.497 99.4995L137.197 125.199L136.997 150.999L101.697 179.099C82.3971 194.599 65.8971 207.799 65.1971 208.399C63.3971 210.099 63.3971 455.999 65.2971 457.199C66.8971 458.199 445.097 458.199 446.797 457.199C448.597 455.999 448.597 210.199 446.797 208.399C446.097 207.699 429.797 194.299 410.497 178.499L375.497 149.899L374.997 124.699L374.497 99.4995L343.897 98.9995L313.197 98.4995L286.697 76.4995C272.097 64.3995 259.397 54.3995 258.597 54.1995C257.797 53.9995 249.997 59.5995 241.297 66.5995ZM280.097 80.9995L301.297 98.4995L279.697 98.7995C267.897 98.8995 248.197 98.8995 236.097 98.7995L213.997 98.4995L235.797 80.7995C247.697 71.0995 257.797 63.1995 258.197 63.2995C258.597 63.3995 268.497 71.3995 280.097 80.9995ZM367.997 189.199V272.499L313.597 318.999C283.697 344.499 258.897 365.499 258.397 365.699C257.897 365.799 232.097 344.699 200.997 318.699L144.497 271.399L144.197 188.699L143.997 105.999H255.997H367.997V189.199ZM408.197 186.599L438.897 211.799L409.197 237.199C392.897 251.099 378.497 263.299 377.297 264.299L374.997 266.099V212.999C374.997 170.799 375.297 159.999 376.297 160.599C376.897 161.099 391.297 172.799 408.197 186.599ZM136.797 238.899L136.497 264.799L104.797 238.299L73.0971 211.699L104.797 186.399L136.497 160.999L136.797 186.999C136.897 201.299 136.897 224.699 136.797 238.899ZM215.397 340.899C215.797 341.499 74.4971 444.699 71.7971 445.799C71.3971 445.999 70.9971 395.299 70.9971 332.999V219.899L142.997 279.999C182.597 313.099 215.197 340.499 215.397 340.899ZM440.797 389.599L440.497 446.099L371.597 394.999C333.697 366.899 301.897 343.399 300.897 342.699C299.297 341.499 306.797 334.899 369.797 280.899L440.497 220.499L440.797 276.699C440.897 307.699 440.897 358.499 440.797 389.599ZM258.297 374.999C259.097 374.999 266.897 368.899 275.597 361.399C284.397 353.899 291.997 347.599 292.697 347.299C293.297 347.099 324.997 369.899 363.097 398.199L432.297 449.499L344.197 449.799C295.697 449.899 216.397 449.899 167.997 449.799L79.8971 449.499L151.197 397.899L222.397 346.299L239.597 360.599C248.997 368.499 257.497 374.999 258.297 374.999Z" fill="#137AB6"/>
<path d="M200 135V138H207.5H215V158.5V179H218.5H222V158.5V138H229H236V135V132H218H200V135Z" fill="#137AB6"/>
<path d="M247 135.199C243.8 143.999 232 178.299 232 178.699C232 178.899 233.7 178.999 235.7 178.799C239.2 178.499 239.4 178.299 241.5 171.999L243.7 165.499H251.9H260.2L262.5 171.799C263.8 175.299 265 178.399 265.3 178.599C265.6 178.899 267.4 178.999 269.3 178.799L272.7 178.499L264.6 155.499L256.5 132.499L252.4 132.199C248.5 131.899 248.2 132.099 247 135.199ZM255 149.199C256.4 153.199 257.6 157.099 257.8 157.699C258.1 158.699 256.4 158.999 252 158.999C247.4 158.999 245.9 158.699 246.3 157.699C246.5 157.099 247.8 153.199 249.1 149.199C250.3 145.299 251.7 141.999 252 141.999C252.3 141.999 253.7 145.299 255 149.199Z" fill="#137AB6"/>
<path d="M275 133C275 133.5 277.9 138.7 281.5 144.5C287 153.4 287.9 155.4 287 157C286.4 158.1 283.2 163.3 280 168.5C276.7 173.7 274 178.2 274 178.5C274 178.8 275.8 179 277.9 179C281.8 179 281.9 178.9 287 170C289.8 165 292.3 161 292.5 161C292.6 161 295.2 165 298.1 170C303.3 178.8 303.5 179 307.2 179C309.3 179 311 178.6 311 178C311 177.5 307.9 172.1 304 166L297 155L303.6 144.8C312.2 131.6 312.1 132 307.2 132C303.2 132 303.1 132 298.3 140.5C295.7 145.1 293.2 149 292.8 149C292.5 149 290 145.2 287.4 140.5C282.7 132.1 282.6 132 278.8 132C276.7 132 275 132.4 275 133Z" fill="#137AB6"/>
<path d="M171.406 203.4C171.106 204.2 171.006 205.7 171.206 206.7C171.506 208.4 175.306 208.5 256.006 208.5H340.506V205.5V202.5L256.206 202.2C183.406 202 171.906 202.2 171.406 203.4Z" fill="#137AB6"/>
<path d="M171.406 236.4C171.106 237.2 171.006 238.7 171.206 239.7C171.506 241.4 175.306 241.5 256.006 241.5H340.506V238.5V235.5L256.206 235.2C183.406 235 171.906 235.2 171.406 236.4Z" fill="#137AB6"/>
<path d="M171.406 269.4C171.106 270.2 171.006 271.7 171.206 272.7C171.506 274.4 175.306 274.5 256.006 274.5H340.506V271.5V268.5L256.206 268.2C183.406 268 171.906 268.2 171.406 269.4Z" fill="#137AB6"/>
<path d="M219.199 400.9C218.399 401.3 217.999 402.8 218.199 404.1L218.499 406.5H252.999C285.399 406.5 287.499 406.4 287.799 404.7C288.699 400.1 287.799 400 253.099 400C235.199 400 219.899 400.4 219.199 400.9Z" fill="#137AB6"/>
<path d="M190.6 426.6C189.7 427.4 189 428.5 189 429C189 429.5 189.7 430.6 190.6 431.4C192 432.8 198.8 433 250.6 433C289 433 309.8 432.6 311.1 432C313.2 430.8 313.6 428 311.8 426.2C310.9 425.3 296.1 425 251.4 425C198.9 425 192 425.2 190.6 426.6Z" fill="#137AB6"/>
</svg>
