<svg width="512" height="512" viewBox="0 0 512 512" fill="none" xmlns="http://www.w3.org/2000/svg">
<path d="M69.2 50.7004C68.5 51.0004 67.3 52.5004 66.5 54.0004C65.2 56.5004 65 82.1004 65 255.001V453.201L67.9 456.101L70.8 459.001H215.4C321.1 459.001 360.6 458.701 362.4 457.901C363.8 457.201 365.3 456.001 365.7 455.101C366.1 454.201 366.7 441.301 367 426.301L367.5 399.101L399.9 429.601C417.7 446.401 433.1 460.501 434.1 461.101C437 462.601 440.5 462.101 443.4 459.901C445.5 458.301 446 457.001 446 453.501V449.201L414.3 419.301C396.8 402.901 380.7 387.801 378.6 385.901L374.7 382.301L378.3 376.401C386.2 363.601 391 347.201 391 333.001C391 324.101 388.3 310.501 384.8 302.201C381.5 294.201 373.8 282.001 369.6 278.101L367 275.701V200.101C366.9 142.701 366.6 124.001 365.7 122.401C364.1 119.501 298 51.2004 296.2 50.5004C294.5 49.9004 70.9 50.0004 69.2 50.7004ZM284 97.9004C284 114.901 284.3 129.601 284.6 130.501C286.2 134.601 289.5 135.001 320.5 135.001H350V198.501C350 233.401 349.8 262.001 349.6 262.001C349.4 262.001 346.4 260.701 342.9 259.101C332.1 254.301 323.8 252.601 310.5 252.701C281 252.901 256.5 266.901 241.1 292.401C233.2 305.601 228.9 326.401 230.9 342.301C233.1 360.201 239.5 374.201 251.5 386.801C268.5 404.901 287.4 413.201 311.5 413.301C324.8 413.301 331.9 411.901 342.8 406.901C346.4 405.301 349.4 404.001 349.6 404.001C349.8 404.001 350 412.501 350 423.001V442.001H216H82V254.501V67.0004H183H284V97.9004ZM319.9 99.0004L338.2 118.001H319.6H301V99.0004C301 88.5004 301.1 80.0004 301.3 80.0004C301.5 80.0004 309.8 88.5004 319.9 99.0004ZM330.5 272.901C349.9 279.501 365.1 295.201 371.2 315.001C374.2 324.701 374.4 340.501 371.6 349.501C364.8 371.901 347.7 388.801 326 394.501C317.7 396.701 304.4 396.801 296 394.601C268 387.501 249.7 365.201 248.3 336.501C247.7 324.301 249.5 314.601 254.3 304.501C267.6 276.501 300.9 262.701 330.5 272.901Z" fill="#137AB6"/>
<path d="M112.3 147.7C109.3 148.3 106 152.6 106 156C106 157.5 106.9 159.9 108.1 161.4C110.1 163.9 110.4 164 122.1 164H134V195.4C134 225.6 134.1 226.8 136.1 229.4C137.7 231.5 139 232 142.5 232C146 232 147.3 231.5 148.9 229.4C150.9 226.8 151 225.6 151 195.4V164H161.4C171.5 164 171.9 163.9 173.9 161.4C176.7 157.9 176.5 153.7 173.6 150.3L171.2 147.5L142.8 147.4C127.3 147.3 113.5 147.4 112.3 147.7Z" fill="#137AB6"/>
<path d="M199.8 148.1C198.4 148.7 196.5 150.5 195.7 152.3C191 162.3 170 221.4 170 224.4C170 229.2 172.9 232 177.8 232C179.9 232 182.4 231.4 183.3 230.7C184.3 230.1 186.6 225.4 188.4 220.5L191.8 211.5L205.9 211.2L220.1 210.9L224.5 220.4C229.1 230.4 230.8 232 236.3 232C240.5 232 244 228.6 244 224.3C244 221 212.1 152.8 209.2 149.8C207 147.6 203.1 146.9 199.8 148.1ZM205.7 193.8C202.4 194 199.5 193.9 199.3 193.6C199 193.3 200 189.7 201.5 185.6L204.2 178.1L208 185.8L211.7 193.5L205.7 193.8Z" fill="#137AB6"/>
<path d="M256.4 148.5C253 149.9 252 151.6 252 156.2C252 158.5 254.1 162.2 259.7 169.9C263.9 175.7 268.9 182.6 270.7 185.1L274 189.8L265 204.1C255 220.1 254 223.8 258.3 227.8C260.6 230 265.1 230.7 268.4 229.4C269.3 229.1 273.2 223.7 277.1 217.4C281 211.1 284.6 205.8 285 205.5C285.4 205.3 289.9 210.4 294.9 217C305.5 230.8 307.5 232.5 312.5 231.6C316.6 230.8 319 227.8 319 223.3C319 220 318.2 218.8 301.7 197.7L294.9 188.9L303.4 175.3C308.2 167.9 312.3 160.7 312.6 159.4C314.3 152.6 306.3 146.6 300.1 150C299.1 150.5 295.2 155.9 291.4 162C287.6 168 284.2 173 283.9 173C283.5 173 279.3 167.6 274.6 161C269.8 154.4 265.6 148.9 265.2 148.7C262.9 147.4 259.1 147.3 256.4 148.5Z" fill="#137AB6"/>
<path d="M106.505 257.5C103.005 260.9 103.205 265.3 106.905 269.1L109.905 272L166.505 271.8L223.205 271.5L225.105 269.1C227.805 265.8 227.605 259.9 224.705 257.2L222.405 255H165.605H108.905L106.505 257.5Z" fill="#137AB6"/>
<path d="M106.499 296.5C103.299 299.6 103.299 304 106.399 307.7L108.799 310.5H155.499H202.199L204.599 307.7C207.699 304 207.699 299.6 204.499 296.5L202.099 294H155.499H108.899L106.499 296.5Z" fill="#137AB6"/>
<path d="M106.499 336.5C103.299 339.6 103.299 344 106.399 347.7L108.799 350.5H155.499H202.199L204.599 347.7C207.699 344 207.699 339.6 204.499 336.5L202.099 334H155.499H108.899L106.499 336.5Z" fill="#137AB6"/>
<path d="M106.499 376.5C103.299 379.6 103.299 384 106.399 387.7L108.799 390.5H155.499H202.199L204.599 387.7C207.699 384 207.699 379.6 204.499 376.5L202.099 374H155.499H108.899L106.499 376.5Z" fill="#137AB6"/>
<path d="M280.2 309.301C279 310.601 278 312.901 278 314.501C278 320.401 284.4 353.301 285.9 355.101C286.8 356.201 289.2 357.301 291.3 357.701C294.9 358.201 296.4 357.401 322.6 339.901C337.8 329.801 350.8 320.701 351.6 319.601C353.6 316.701 353.3 312.701 350.9 309.601C349.3 307.601 348 307.001 344.9 307.001C341.4 307.001 338 308.901 319.7 320.901L298.5 334.901L296.3 322.701C293.8 309.001 292.5 307.001 286.1 307.001C283.5 307.001 281.7 307.701 280.2 309.301Z" fill="#137AB6"/>
</svg>
