<svg width="512" height="512" viewBox="0 0 512 512" fill="none" xmlns="http://www.w3.org/2000/svg">
<path d="M48.9049 15.3C48.0049 16 46.8049 17.5 46.2049 18.7C45.3049 20.3 45.0049 59.4 45.0049 173.4V326L39.9049 332.2C34.0049 339.6 25.8049 355.8 23.5049 364.9C20.8049 375.7 19.9049 387.3 21.0049 398C25.0049 437.5 52.5049 468.9 91.6049 478.7C102.205 481.3 123.905 481 135.005 478.1C157.905 472 177.105 458.4 189.405 439.2L194.105 432H249.705H305.305L309.405 435.8C315.605 441.5 326.105 448.7 334.605 453.1C340.805 456.3 343.105 457 347.805 457C353.305 456.9 354.405 456.4 376.305 443.7C408.905 424.7 408.505 425.2 408.505 404.5C408.505 396.8 407.905 386.4 407.105 381.3L405.705 372.1L410.405 365.6C418.605 354.1 428.505 347.9 441.605 346.1C453.705 344.3 462.505 340.4 470.105 333.3C482.505 321.8 486.705 307 482.105 291.9C474.205 266.8 447.805 256.9 422.605 269.7C418.105 272 414.205 275.6 401.905 288.6C399.405 291.3 395.905 294.3 394.105 295.3L391.005 297.1L391.205 271L391.505 244.9L399.505 242.2C409.405 238.9 415.205 235.5 422.305 229C445.905 207.5 448.505 169.9 428.105 144.2C420.605 134.8 407.405 126.4 395.905 123.8L391.005 122.7V70.8V18.9L388.505 16.5L386.105 14H218.305C88.0049 14.1 50.1049 14.3 48.9049 15.3ZM374.005 76.4V121.8L367.405 123C346.905 126.9 327.405 144.6 321.205 165C311.505 196.8 327.605 229.9 358.305 241.5C361.705 242.8 366.705 244.1 369.305 244.5L374.005 245.2V273.6V302H369.505C365.405 302 364.205 301.4 358.705 296.8C350.905 290.3 340.905 283.8 332.805 280C326.105 276.8 319.405 276.1 314.405 278.1C312.805 278.6 301.305 285 288.705 292.3C259.105 309.3 260.505 307.5 260.505 329.4C260.505 341.1 261.005 347.8 262.305 354C266.305 372.8 274.205 391.8 284.405 406.9L289.805 415H245.305H200.805L201.405 412.8C204.905 399.9 204.705 376.7 201.005 364C191.105 329.3 161.805 303.5 125.905 297.9C116.005 296.4 98.6049 297.3 88.5049 300C84.1049 301.2 76.7049 304 72.0049 306.3C67.3049 308.6 63.2049 310.6 62.8049 310.8C62.3049 311 62.0049 248.1 62.0049 171.1V31H218.005H374.005V76.4ZM398.305 142.7C415.605 150.9 426.205 168.6 424.705 187C422.105 218.6 388.105 237.7 359.905 223.5C343.305 215 332.805 194.6 335.905 176.9C339.005 159.7 350.605 146.2 366.805 140.9C371.105 139.5 374.805 139.1 382.005 139.3C390.205 139.5 392.405 140 398.305 142.7ZM452.805 282.6C458.005 284.7 461.805 288.6 464.605 294.5C467.705 301.1 467.605 306.3 464.405 312.9C459.805 322.1 450.305 327.9 437.105 329.5C425.805 330.8 414.205 336.7 404.305 346.3C401.405 349.1 398.905 351.2 398.805 350.9C398.605 350.7 396.605 346.7 394.405 342C392.105 337.3 388.005 330.1 385.205 326.1L380.105 318.6L388.305 316.2C402.305 312.2 405.905 309.6 424.605 289.8C431.905 282 444.105 278.9 452.805 282.6ZM332.305 299.2C368.505 320.8 391.905 361.7 392.005 403.8C392.005 408.4 391.605 413 391.005 414C389.805 416.3 367.305 429.3 366.005 428.5C365.405 428.2 365.005 425.2 365.005 422C365.005 418.7 364.105 411.6 363.105 406.1C355.805 368.6 332.705 333.2 302.205 312.6C299.105 310.5 296.505 308.6 296.505 308.3C296.505 307.3 319.605 294.2 321.605 294.1C322.705 294 327.505 296.3 332.305 299.2ZM133.505 317C159.005 325 178.605 345.5 185.105 370.8C187.505 380.2 187.605 395.3 185.405 405.3C183.305 414.8 176.305 429 170.005 436.7C160.505 448.2 145.805 457.5 130.905 461.6C122.105 464 102.905 464 94.0049 461.6C69.4049 455 49.5049 436.4 41.6049 412.9C36.0049 396 36.2049 379.4 42.3049 363C51.4049 338.9 71.8049 321.3 97.4049 315.4C106.305 313.4 124.505 314.2 133.505 317ZM289.805 325.2C300.705 331.9 318.505 349.4 325.905 360.5C336.205 376.2 343.305 393.5 346.605 410.6C348.305 419.7 349.005 438.4 347.705 439.7C345.505 441.8 326.305 428.4 314.505 416.6C291.205 393.1 277.005 360 277.005 328.8C277.005 316.9 276.505 317 289.805 325.2Z" fill="#137AB6"/>
<path d="M209 50C207.1 51.9 207 53.3 207 80.9C207 96.8 207.3 110.6 207.6 111.5C209.3 115.9 210.9 116 268.4 116C302.1 116 323.9 115.6 325.5 115C330.4 113.1 331 109.5 331 82.3C331 56.6 330.3 50.8 327 49C325.8 48.4 304.6 48 268.1 48C212.3 48 211 48 209 50ZM314 81.5V99H269H224V81.5V64H269H314V81.5Z" fill="#137AB6"/>
<path d="M125.402 52.3998C124.002 53.4998 123.402 55.3998 123.002 60.0998L122.502 66.3998L117.002 67.5998C105.102 70.2998 95.0024 76.7998 90.4024 84.4998C86.9024 90.4998 86.1024 99.4998 88.4024 107.2C89.7024 111.6 91.0024 113.7 94.8024 117.2C101.002 122.7 108.202 125.2 127.002 128.5C135.002 129.9 143.802 131.7 146.702 132.5C153.102 134.4 158.002 139 158.002 143C158.002 147 153.202 152.2 146.802 155.1C142.302 157.1 139.902 157.5 131.002 157.5C122.102 157.5 119.702 157.1 115.202 155.1C109.102 152.4 104.002 147 104.002 143.4C104.002 140.3 99.0024 135 96.0024 135C93.1024 135 88.4024 137.6 87.6024 139.5C86.6024 142.2 87.0024 148.2 88.4024 152.3C92.2024 162.8 103.602 170.8 120.302 174.4C122.802 175 123.002 175.4 123.002 180.1C123.002 186.3 124.102 188.5 128.002 189.8C131.602 191.1 136.602 189.7 138.002 187C138.602 186 139.002 182.9 139.002 180.1C139.002 175.4 139.202 175 141.802 174.4C159.102 170.6 171.102 161.8 174.102 150.6C175.602 145 174.702 135.3 172.202 130.5C167.002 120.2 158.802 116.5 132.002 112C125.102 110.9 117.402 109.2 114.702 108.4C108.702 106.4 104.002 101.8 104.002 97.9998C104.002 93.9998 108.802 88.7998 115.202 85.8998C119.702 83.8998 122.102 83.4998 131.002 83.4998C139.902 83.4998 142.302 83.8998 146.802 85.8998C152.502 88.4998 158.002 93.8998 158.002 96.9998C158.002 105.2 169.302 109.1 173.702 102.4C175.602 99.3998 175.002 90.8998 172.502 85.9998C168.302 77.9998 157.002 70.2998 145.302 67.6998L139.502 66.3998L139.002 60.0998C138.602 55.3998 138.002 53.4998 136.602 52.3998C134.102 50.5998 127.902 50.5998 125.402 52.3998Z" fill="#137AB6"/>
<path d="M196.5 156.5C194.8 158.1 194 160 194 162.5C194 165 194.8 166.9 196.5 168.5L198.9 171H246.5H294.2L297.1 168.1C298.8 166.3 300 164.1 300 162.5C300 160.9 298.8 158.7 297.1 156.9L294.2 154H246.5H198.9L196.5 156.5Z" fill="#137AB6"/>
<path d="M91.5021 205.5C87.9021 209 88.0021 215.1 91.6021 217.9C94.1021 219.9 95.6021 220 114.002 220H133.702L136.002 217.5C139.402 213.8 139.302 208.5 135.602 205.4C132.902 203.1 132.502 203 113.402 203C94.0021 203 93.9021 203 91.5021 205.5Z" fill="#137AB6"/>
<path d="M157.502 205.5C153.902 209 154.002 215.1 157.602 217.9C160.202 220 161.002 220 227.402 220C298.302 219.9 296.302 220.1 298.802 215.3C300.702 211.8 300.202 209 297.102 205.9L294.202 203H227.002H159.902L157.502 205.5Z" fill="#137AB6"/>
<path d="M93.2963 253C88.5963 254.9 87.3963 263.1 91.2963 266.8L93.5963 269H164.096H234.696L236.796 266.7C238.996 264.4 239.696 259.9 238.396 256.5C236.596 252 236.096 252 163.796 252.1C126.196 252.1 94.4963 252.5 93.2963 253Z" fill="#137AB6"/>
<path d="M260.296 253C255.596 254.9 254.396 263.1 258.296 266.8C260.496 268.9 261.496 269 277.796 269C293.596 269 295.196 268.8 296.996 267C301.296 262.7 300.396 256 294.996 253.3C292.096 251.8 263.796 251.6 260.296 253Z" fill="#137AB6"/>
<path d="M388.299 173.2L372.999 188.4L365.699 181.3C361.599 177.3 357.099 173.8 355.599 173.4C349.799 172 344.299 177.4 345.399 183.3C345.899 185.8 348.799 189.3 357.399 197.8C373.499 213.7 371.199 214.2 395.699 189.7C413.899 171.5 414.999 170.2 414.999 166.7C414.999 161.8 411.399 158 406.899 158C404.099 158 401.699 159.9 388.299 173.2Z" fill="#137AB6"/>
<path d="M81.7031 339.6C74.7031 341.8 68.6031 348.3 66.4031 355.6C60.3031 376.6 81.7031 394.8 101.003 385C118.303 376.2 119.003 350.9 102.203 341.7C96.0031 338.3 88.2031 337.5 81.7031 339.6ZM94.6031 357.3C100.003 361.9 96.9031 370.3 89.9031 370.3C87.6031 370.3 86.0031 369.5 84.3031 367.6C81.2031 364 81.4031 361.5 84.9031 357.9C88.5031 354.4 91.0031 354.2 94.6031 357.3Z" fill="#137AB6"/>
<path d="M108.8 381.8C77.5 413 77 413.6 77 417.6C77 423 80.1 426 85.5 426C89.3 426 90.4 425.1 121.2 394.2C152.4 363 153 362.4 153 358.4C153 353 149.9 350 144.5 350C140.6 350 139.6 350.9 108.8 381.8Z" fill="#137AB6"/>
<path d="M131.696 389.601C124.996 391.701 118.596 398.201 116.596 405.101C114.596 411.601 114.596 414.401 116.396 420.201C119.496 430.701 128.596 437.301 139.896 437.301C147.496 437.301 152.696 435.101 157.596 429.801C162.496 424.701 164.296 420.401 164.296 413.501C164.296 395.801 148.396 384.201 131.696 389.601ZM144.596 407.301C146.596 409.101 147.296 410.501 147.196 413.001C146.996 420.101 138.896 423.001 134.296 417.601C131.196 414.001 131.396 411.501 134.896 407.901C138.496 404.401 140.996 404.201 144.596 407.301Z" fill="#137AB6"/>
</svg>
