<svg width="512" height="512" viewBox="0 0 512 512" fill="none" xmlns="http://www.w3.org/2000/svg">
<path d="M224.5 17.6C208.7 19.7 195.7 22.8 179.5 28.2C92.2 57.2 29.6 133.4 17.5 225.3C15.5 240.8 15.5 271.2 17.5 286.7C22.8 327.1 38.3 366 61.6 397.8C101.1 451.4 159.3 485.8 225.4 494.5C240.8 496.5 271.3 496.5 286.7 494.5C370.2 483.5 441.3 430.7 475.5 354.3C488 326.1 496 291.7 496 265.4V256H487.5H479V264.7C478.9 282 474.6 306.1 467.8 326.5C449.6 381.3 408.8 428.7 357.2 454.8C323.7 471.8 292.8 479.1 254.9 479.1C154.4 479 66.2 410.7 40 312.8C30.5 277.1 30.5 234.9 40 199.2C46.1 176.3 56.1 154 68.7 134.5C107.5 75 173.2 36.7 243 33.1L255.5 32.5L255.8 24.2L256.1 16L245.3 16.1C239.4 16.2 230 16.8 224.5 17.6Z" fill="#137AB6"/>
<path d="M302.2 18.5998C284.8 24.4998 272.8 36.2998 266.8 53.3998C264.5 60.1998 264 63.0998 264 71.5998C264 83.0998 265.5 89.1998 270.7 99.1998C277.2 111.6 290.4 122.1 304.9 126.4C313.7 129 328.5 128.6 337.7 125.5C355.3 119.5 367.5 107.3 373.5 89.6998C377.1 78.9998 377.1 64.9998 373.5 54.2998C367.5 36.4998 354.3 23.4998 336.6 18.0998C326.5 14.9998 312 15.1998 302.2 18.5998ZM337.1 36.6998C345.1 40.5998 352.1 47.7998 355.8 55.7998C358.2 60.7998 358.5 62.6998 358.5 71.9998C358.5 81.2998 358.2 83.1998 355.8 88.1998C341.8 118.2 299.3 118.8 284.7 89.0998C281.7 82.9998 281.5 81.8998 281.5 71.9998C281.5 62.6998 281.8 60.8998 284.1 55.9998C288.9 45.8998 297.2 38.3998 307.3 34.7998C311.2 33.3998 314.8 32.9998 321.5 33.1998C329.4 33.4998 331.4 33.8998 337.1 36.6998Z" fill="#137AB6"/>
<path d="M312 41.7C311.9 42.7 310.5 44.4 308.7 45.5C298.2 52.1 298.7 71.5 309.6 77.7L313.5 80H307.3H301V83.8C301 88.9 304.8 96 308.7 98.5C310.5 99.6 311.9 101.3 312 102.2C312 103.8 313.1 104 320 104C326.9 104 328 103.8 328 102.2C328.1 101.3 329.5 99.6 331.3 98.5C341.8 91.9 341.3 72.5 330.4 66.3L326.5 64H332.8H339V60.2C339 55.1 335.2 48 331.3 45.5C329.5 44.4 328.1 42.7 328 41.7C328 40.2 326.9 40 320 40C313.1 40 312 40.2 312 41.7ZM322 61.6C322 64.9 318.7 64.6 318.2 61.2C317.9 59.5 318.4 59 319.9 59C321.5 59 322 59.6 322 61.6ZM321.8 82.8C322.1 84.7 321.7 85.1 320.3 84.8C319.3 84.6 318.4 83.4 318.2 82.2C317.9 80.3 318.3 79.9 319.7 80.2C320.7 80.4 321.6 81.6 321.8 82.8Z" fill="#137AB6"/>
<path d="M422.204 66.6001C404.604 72.5001 392.404 84.8002 386.504 102.3C383.204 112.3 383.004 126.5 386.104 136.6C391.504 154.3 404.504 167.5 422.304 173.5C433.004 177.1 447.004 177.1 457.704 173.5C475.304 167.5 487.504 155.3 493.504 137.7C496.604 128.5 497.004 113.7 494.404 104.9C488.804 86.0002 474.004 71.2001 455.104 65.6001C446.404 63.0001 431.204 63.5001 422.204 66.6001ZM451.904 82.6001C462.304 85.9001 471.104 93.8002 475.804 103.8C478.204 108.8 478.504 110.7 478.504 120C478.504 129.3 478.204 131.1 475.804 136.3C472.304 143.7 463.704 152.3 456.304 155.8C451.104 158.2 449.304 158.5 440.004 158.5C430.104 158.5 429.004 158.3 422.904 155.3C414.904 151.4 407.904 144.2 404.204 136.2C401.804 131.2 401.504 129.3 401.504 120C401.504 110.7 401.804 108.8 404.204 103.8C412.604 85.8002 433.204 76.6001 451.904 82.6001Z" fill="#137AB6"/>
<path d="M432 89.7C431.9 90.7 430.5 92.4 428.7 93.5C418.2 100.1 418.7 119.5 429.6 125.7L433.5 128H427.3H421V131.8C421 136.9 424.8 144 428.7 146.5C430.5 147.6 431.9 149.3 432 150.2C432 151.8 433.1 152 440 152C446.9 152 448 151.8 448 150.2C448.1 149.3 449.5 147.6 451.3 146.5C461.8 139.9 461.3 120.5 450.4 114.3L446.5 112H452.8H459V108.2C459 103.1 455.2 96 451.3 93.5C449.5 92.4 448.1 90.7 448 89.7C448 88.2 446.9 88 440 88C433.1 88 432 88.2 432 89.7ZM442 109.6C442 112.9 438.7 112.6 438.2 109.2C437.9 107.5 438.4 107 439.9 107C441.5 107 442 107.6 442 109.6ZM441.8 130.8C442.1 132.7 441.7 133.1 440.3 132.8C439.3 132.6 438.4 131.4 438.2 130.2C437.9 128.3 438.3 127.9 439.7 128.2C440.7 128.4 441.6 129.6 441.8 130.8Z" fill="#137AB6"/>
<path d="M264.1 152.8L246.8 155.3L247.4 160.4C247.8 163.2 248.3 167 248.7 168.8L249.3 172.2L254.4 171.5C257.2 171.1 260.4 170.6 261.5 170.3C262.6 170 252.3 181.1 238.5 194.9L213.5 220L219.8 226.2L226 232.5L251.1 207.5C264.9 193.7 276 183.4 275.7 184.5C275.4 185.6 274.9 188.8 274.5 191.6L273.8 196.8L280.3 197.9C288 199.2 291 199.3 291 198.1C291 197.6 292.1 189.5 293.5 180C296.6 158.8 296.7 154.7 294 152C291.4 149.4 286.5 149.5 264.1 152.8Z" fill="#137AB6"/>
<path d="M152 164V176H146C136.5 176 136 176.9 136 194V208H130C120.5 208 120 208.9 120 226V240H114C109.3 240 107.6 240.4 106 242C104 244 104 245.3 104 320C104 394.7 104 396 106 398C107.9 399.9 109.3 400 160 400C210.7 400 212.1 399.9 214 398C216 396 216 394.7 216 320C216 245.3 216 244 214 242C212.4 240.4 210.7 240 206 240H200V226C200 208.9 199.5 208 190 208H184V194C184 176.9 183.5 176 174 176H168V164V152H160H152V164ZM168 200V208H160H152V200V192H160H168V200ZM184 232V240H160H136V232V224H160H184V232ZM200 320V384H192H184V369C184 352.2 183.2 348.9 177.7 343.1C173 338.2 167.7 336 160 336C152.3 336 147 338.2 142.3 343.1C136.8 348.9 136 352.2 136 369V384H128H120V320V256H160H200V320ZM164 354C166.9 355.6 168 360.6 168 372.6V384H160H152V372.6C152 360.8 152.9 356.4 155.7 354.2C157.7 352.8 161.4 352.6 164 354Z" fill="#137AB6"/>
<path d="M136 280V288H144H152V280V272H144H136V280Z" fill="#137AB6"/>
<path d="M168 280V288H176H184V280V272H176H168V280Z" fill="#137AB6"/>
<path d="M136 312V320H144H152V312V304H144H136V312Z" fill="#137AB6"/>
<path d="M168 312V320H176H184V312V304H176H168V312Z" fill="#137AB6"/>
<path d="M364.002 186C335.802 193.3 313.102 216.1 306.002 244.4C303.302 255.3 303.302 272.7 306.002 283.6C313.102 312 335.802 334.7 364.402 342C375.302 344.7 392.702 344.8 403.602 342C432.102 334.8 454.802 312.1 462.002 283.6C464.802 272.7 464.702 255.3 462.002 244.4C454.702 215.8 432.002 193.1 403.602 186C392.902 183.3 374.502 183.3 364.002 186ZM405.002 204.4C422.802 210.5 437.602 225.5 444.102 244C446.102 249.5 446.502 252.5 446.502 263.5C446.502 274.6 446.102 277.6 444.102 283.8C438.102 302.2 422.202 318.1 403.902 324.1C397.602 326.1 394.602 326.5 383.502 326.5C372.502 326.5 369.502 326.1 364.002 324.1C345.502 317.6 330.702 302.9 324.302 285C320.802 275.2 319.902 258.7 322.402 249C331.702 212.7 369.802 192.1 405.002 204.4Z" fill="#137AB6"/>
<path d="M376 220C376 223.6 375.6 224.1 372.1 225.9C367.7 228.2 363.3 233 361.3 237.8C359.3 242.7 359.3 253.6 361.4 258.5C365 266.9 370.8 270.9 381.4 272C389.3 272.9 391 274.3 391 280C391 285.3 389 287.5 384 287.5C379.1 287.5 377.5 285.8 376.5 279.9L375.8 276H367.9H360V281.5C360 290.6 364.5 298.2 372.1 302.1C375.6 303.9 376 304.4 376 308V312H384H392V308C392 304.4 392.4 303.9 395.9 302.1C400.3 299.8 404.7 295 406.7 290.2C408.6 285.6 408.5 274.2 406.5 269.4C403.1 261.1 397.1 257.1 386.6 256C378.7 255.1 377 253.7 377 248C377 242.7 379 240.5 384 240.5C388.9 240.5 390.5 242.2 391.5 248.1L392.2 252H400.1H408V246.5C408 237.4 403.5 229.8 395.9 225.9C392.4 224.1 392 223.6 392 220V216H384H376V220Z" fill="#137AB6"/>
</svg>
