<svg width="512" height="512" viewBox="0 0 512 512" fill="none" xmlns="http://www.w3.org/2000/svg">
<path d="M105.705 9.60039C58.3047 18.2004 19.7047 56.1004 10.1047 103.7C7.20468 117.7 7.20468 138.3 10.1047 152.3C20.0047 200.9 58.4047 238.1 107.505 246.7C114.205 247.8 120.605 248.1 132.505 247.7C141.305 247.5 149.305 246.9 150.305 246.5C151.905 245.8 152.005 249.1 152.005 306.9V368L176.905 368.2L201.805 368.5L172.105 424.5C155.805 455.3 139.705 485.8 136.205 492.3L130.005 504H163.805H197.605L233.505 436L269.505 368H320.005H370.505L406.505 436L442.505 504H476.305H510.105L503.605 491.7C500.005 485 483.805 454.5 467.705 424L438.305 368.5L463.105 368.2L488.005 368L488.105 239.7V111.5L492.805 108.5C500.105 103.8 503.405 98.3004 503.805 90.0004C504.305 81.6004 502.905 77.0004 498.105 71.7004C490.605 63.4004 502.605 64.0004 358.405 64.0004H230.205L225.305 57.2004C207.205 32.6004 181.505 16.0004 152.305 10.1004C140.205 7.60039 118.005 7.40039 105.705 9.60039ZM147.505 26.6004C185.705 33.9004 215.805 61.7004 227.705 100.5C230.205 108.9 230.405 110.7 230.405 128C230.405 145.3 230.205 147.1 227.705 155.5C212.705 204.5 168.805 234.9 118.705 230.8C76.9047 227.5 41.2047 197.7 28.3047 155.5C25.8047 147.1 25.6047 145.3 25.6047 128C25.6047 110.7 25.8047 108.9 28.3047 100.5C44.4047 47.7004 94.7047 16.5004 147.505 26.6004ZM482.505 81.4004C486.205 83.0004 487.705 86.2004 486.605 90.6004C485.205 96.2004 489.405 96.0004 361.605 96.0004H244.205L241.905 89.2004C240.705 85.5004 239.505 81.9004 239.205 81.2004C238.905 80.3004 263.205 80.0004 358.905 80.0004C461.005 80.0004 479.605 80.2004 482.505 81.4004ZM472.005 232V352H320.005H168.005V296.5C168.005 249.3 168.205 241 169.405 241C172.505 241 193.005 229.7 201.105 223.6C224.105 206.2 240.205 180.6 246.005 152.1C247.705 143.7 248.005 138.9 247.805 126.9L247.505 112H359.805H472.005V232ZM243.305 380.8C239.505 387.8 225.305 414.8 211.505 440.8L186.505 488H172.305H158.005L164.305 476.2C167.705 469.7 182.005 442.7 196.005 416.2L221.505 368H235.805H250.005L243.305 380.8ZM443.505 415.2C457.305 441.2 471.505 468.2 475.305 475.2L482.005 488H467.805H453.505L428.005 439.8C414.005 413.3 399.705 386.3 396.305 379.8L390.005 368H404.305H418.505L443.505 415.2Z" fill="#137AB6"/>
<path d="M106.498 42.1C75.4984 49.7 49.4984 75.9 41.9984 107C39.1984 118.7 39.1984 137.3 41.9984 149C49.8984 181.8 76.8984 207.9 110.198 214.6C120.198 216.6 142.298 216 151.498 213.5C161.298 210.9 176.798 202.6 184.898 195.8C198.798 184.1 209.798 166.3 213.998 149C216.798 137.3 216.798 118.7 213.998 107C206.498 75.6 180.398 49.5 148.998 42C137.498 39.3 117.898 39.3 106.498 42.1ZM138.198 57.5C151.798 58.8 168.498 67.5 179.198 78.8C187.198 87.3 191.998 95.1 195.698 105.5C198.298 112.9 198.498 114.6 198.498 128C198.498 141.7 198.298 143 195.398 151.1C191.598 161.9 184.898 172 176.498 179.8C138.398 215.5 77.8984 200 60.1984 150.1C57.6984 143.2 57.4984 141.2 57.4984 128C57.4984 114.7 57.6984 112.9 60.2984 105.5C67.5984 84.7 83.7984 68.3 104.398 60.8C111.898 58 124.398 56 129.998 56.6C131.398 56.8 135.098 57.2 138.198 57.5Z" fill="#137AB6"/>
<path d="M120 80V88H112H104V103.2C104 116 104.4 119.2 105.9 122.5C109.2 129.6 117.9 136 124.3 136C131.7 136 136 140.6 136 148.5C136 151.8 135.8 152 132.6 152C124.2 152 120 147.8 120 139.5V136H112H104V143.2C104 148.1 104.6 151.8 105.9 154.5C107.7 158.6 113.4 164.3 117.6 166.2C119.8 167.3 120 167.9 120 175.7V184H128H136V176V168H144H152V152.7C152 140 151.6 136.8 150.1 133.5C146.8 126.3 138.1 120 131.5 120C124.2 120 120 115.4 120 107.4C120 104.2 120.2 104 123.5 104C131.8 104 136 108.2 136 116.6V120H144H152V112.7C152 107.9 151.4 104.2 150.1 101.5C148.3 97.4 142.6 91.7 138.4 89.8C136.2 88.7 136 88.1 136 80.3V72H128H120V80Z" fill="#137AB6"/>
<path d="M280 160V192H296H312V208V224H273C229.9 224 229.7 224 223.1 230.3C217 236.1 216 239.6 216 256.7V272H200H184V304V336H224H264V304V272H248H232V260.5C232 246.7 233.2 242.8 238 241.1C240.2 240.4 252.9 240 276.6 240H312V256V272H296H280V304V336H320H360V304V272H344H328V256V240H363.4C387.1 240 399.8 240.4 402 241.1C406.8 242.8 408 246.7 408 260.5V272H392H376V304V336H416H456V304V272H440H424V256.7C424 239.6 423 236.1 416.9 230.3C410.3 224 410.1 224 367 224H328V208V192H344H360V160V128H320H280V160ZM344 160V176H320H296V160V144H320H344V160ZM248 304V320H224H200V304V288H224H248V304ZM344 304V320H320H296V304V288H320H344V304ZM440 304V320H416H392V304V288H416H440V304Z" fill="#137AB6"/>
</svg>
