<svg width="512" height="512" viewBox="0 0 512 512" fill="none" xmlns="http://www.w3.org/2000/svg">
<path d="M56.5015 28.101C39.6014 30.501 25.2015 44.801 22.0014 62.201C21.3014 65.601 21.0015 84.801 21.2015 112.001L21.5015 156.201L23.9015 158.101C26.1015 159.901 28.2014 160.001 57.6015 160.001H89.0015V178.701C89.0015 189.101 89.5015 252.801 90.0015 320.401L91.0015 443.301L93.2015 445.701L95.3015 448.001H198.701C263.201 448.001 302.001 448.401 302.001 448.901C302.001 449.501 305.801 453.901 310.501 458.801C326.701 475.901 346.401 486.501 368.201 490.001C380.601 492.001 402.501 490.801 413.501 487.601C431.601 482.201 445.001 474.201 458.101 461.101C471.801 447.301 480.001 433.001 485.201 414.001C487.201 406.701 487.501 403.201 487.501 388.501C487.401 368.701 485.801 360.701 478.601 345.401C472.701 333.001 467.101 325.001 458.101 315.901C444.901 302.701 427.701 293.101 409.901 288.901L400.301 286.601L399.701 256.601C399.301 240.201 399.001 190.401 399.001 146.001C399.001 58.201 399.101 59.401 393.301 48.801C389.801 42.401 381.301 34.501 374.701 31.501C371.801 30.101 366.301 28.601 362.501 28.001C353.801 26.801 65.2015 26.901 56.5015 28.101ZM73.5015 47.001C78.7015 49.201 83.8015 54.301 86.4015 60.001C88.4015 64.301 88.5015 66.401 88.8015 103.701L89.1015 143.001H63.5015H37.9014L38.2014 103.201L38.5014 63.501L41.6014 58.001C48.3014 46.201 61.2015 41.701 73.5015 47.001ZM367.901 47.501C370.801 49.101 374.501 52.001 376.101 54.001C382.001 61.001 381.801 57.901 382.301 176.701L382.801 286.001H378.801C372.201 286.001 355.101 289.901 347.001 293.301C307.001 309.901 283.101 345.601 283.001 388.701C283.001 402.201 284.501 411.801 288.401 422.901C289.801 427.001 291.001 430.501 291.001 430.701C291.001 430.901 249.901 431.001 199.601 431.001H108.201L107.601 404.701C107.301 390.301 106.601 307.201 106.101 220.001C105.301 62.501 105.301 61.501 103.201 55.701C102.001 52.501 100.101 48.601 99.0015 46.901L96.8015 44.001L229.701 44.201L362.501 44.501L367.901 47.501ZM401.201 304.401C418.701 307.801 434.401 316.401 447.201 329.801C464.201 347.601 472.001 368.901 470.701 393.801C467.701 449.601 411.701 487.601 358.501 469.901C331.501 461.001 310.201 438.301 302.401 410.501C301.401 407.001 300.601 399.101 300.301 391.501C299.901 380.601 300.101 377.101 301.901 369.701C309.901 335.901 336.701 310.401 370.501 304.101C378.201 302.701 393.001 302.901 401.201 304.401Z" fill="#137AB6"/>
<path d="M168.001 76.9008C161.801 79.5008 155.401 85.2008 152.201 91.3008L149.501 96.5008L149.201 141.401C148.901 194.401 148.801 193.901 157.901 203.101C167.401 212.501 161.901 212.001 250.001 212.001C338.101 212.001 332.601 212.501 342.101 203.101C351.101 194.001 351.001 195.001 351.001 143.501C351.001 92.0008 351.101 93.0008 342.101 83.9008C332.601 74.5008 338.201 75.0008 249.601 75.1008C177.401 75.1008 172.201 75.2008 168.001 76.9008ZM327.001 93.5008C328.501 94.3008 330.801 96.5008 331.901 98.3008C333.901 101.601 334.001 102.801 334.001 143.401C334.001 189.401 334.001 189.201 327.701 193.001C324.601 194.901 322.101 195.001 250.001 195.001C178.901 195.001 175.401 194.901 172.401 193.101C166.101 189.301 166.001 188.601 166.001 143.301C166.001 98.1008 166.001 98.3008 172.501 94.0008C175.401 92.1008 177.501 92.0008 249.801 92.0008C313.401 92.0008 324.501 92.2008 327.001 93.5008Z" fill="#137AB6"/>
<path d="M188.3 108C187.1 108.5 185.7 109.8 185.1 110.9C184.4 112.2 184 123.9 184 144V175.1L186.5 177.5C190.4 181.5 197.6 180.3 199.9 175.3C200.6 173.7 201 162.8 201 142.9V112.8L198.1 109.9C195.1 107 192.3 106.4 188.3 108Z" fill="#137AB6"/>
<path d="M214.3 108C213.1 108.5 211.7 109.8 211.1 110.9C210.4 112.2 210 123.9 210 144V175.1L212.5 177.5C215.1 180.2 218.5 180.7 222.3 178.9C225.8 177.3 227 173.9 227 165.5V158H231.3C243.5 157.9 254.3 146.2 254.4 133C254.4 125.8 252.6 120.6 248.1 115.7C242.4 109.3 236.3 107 225.5 107.1C220.6 107.1 215.5 107.5 214.3 108ZM233.2 125.1C236.1 126.6 238.2 132.3 237.1 135.4C235.9 138.4 232.3 141 229.3 141C227.1 141 227 140.7 227 132.5C227 124.6 227.1 124 229.1 124C230.2 124 232 124.5 233.2 125.1Z" fill="#137AB6"/>
<path d="M279.303 108.601C258.503 116.001 252.903 154.201 270.003 171.901C274.903 176.901 278.803 178.901 285.003 179.701C296.103 181.001 307.003 173.901 312.603 161.801C315.203 156.001 315.503 154.601 315.503 144.001C315.503 129.201 313.303 123.101 305.103 115.001C297.203 107.101 289.103 105.201 279.303 108.601ZM293.403 127.401C297.103 131.301 299.003 136.701 299.003 143.501C299.003 150.301 297.103 155.701 293.403 159.601C289.703 163.601 287.303 163.801 283.503 160.801C279.203 157.501 277.003 151.601 277.003 143.501C277.003 135.401 279.203 129.501 283.503 126.201C287.303 123.201 289.703 123.401 293.403 127.401Z" fill="#137AB6"/>
<path d="M130.005 239C125.805 243.2 126.805 250.1 132.005 252.7C135.805 254.6 164.205 254.5 167.905 252.5C172.705 250.1 173.705 242.9 169.705 239.2C167.505 237.1 166.505 237 149.705 237C133.405 237 131.805 237.2 130.005 239Z" fill="#137AB6"/>
<path d="M191.702 238.2C187.802 241.2 187.502 248.4 191.202 251.7C193.102 253.4 197.702 253.5 274.402 253.8C319.002 253.9 356.502 253.8 357.802 253.5C364.002 252 366.302 243.5 361.702 239.2L359.402 237H276.402C211.502 237 193.002 237.3 191.702 238.2Z" fill="#137AB6"/>
<path d="M129.904 288.9C126.704 291.5 126.604 298.1 129.804 301.2L132.104 303.5H186.604H241.204L243.604 300.7C246.704 297 246.704 292.6 243.504 289.5L241.104 287H186.704C134.704 287 132.104 287.1 129.904 288.9Z" fill="#137AB6"/>
<path d="M258.499 289.5C255.299 292.6 255.299 297 258.399 300.7L260.799 303.5H282.499H304.199L306.599 300.7C309.699 297 309.699 292.6 306.499 289.5C304.099 287 304.099 287 282.499 287C260.899 287 260.899 287 258.499 289.5Z" fill="#137AB6"/>
<path d="M129.904 338.9C126.704 341.5 126.604 348.1 129.804 351.2C131.904 353.3 133.004 353.5 143.404 353.5C156.004 353.5 158.304 352.6 159.504 347C160.204 343.8 158.004 338.6 155.504 337.6C154.604 337.3 149.004 337 143.004 337C133.904 337 131.904 337.3 129.904 338.9Z" fill="#137AB6"/>
<path d="M170.101 339.6C167.301 343.1 167.501 347.3 170.401 350.7L172.801 353.5L210.701 353.8C231.501 354 250.001 353.8 251.801 353.5C256.501 352.6 259.001 349.8 259.001 345.2C259.001 342.5 258.301 340.7 256.701 339.2C254.401 337 254.101 337 213.301 337H172.101L170.101 339.6Z" fill="#137AB6"/>
<path d="M129.904 388.9C126.704 391.5 126.604 398.1 129.804 401.2C132.104 403.5 132.104 403.5 166.104 403.5H200.204L202.604 400.7C205.504 397.3 205.704 393.1 202.904 389.6L200.904 387H166.504C134.404 387 132.104 387.1 129.904 388.9Z" fill="#137AB6"/>
<path d="M220.904 388.9C217.704 391.5 217.604 398.1 220.804 401.2C222.904 403.3 224.204 403.5 235.604 403.9C250.004 404.3 254.304 403.7 257.104 400.9C259.904 398.1 259.704 392 256.704 389.2C254.504 387.1 253.404 387 238.804 387C225.004 387 223.004 387.2 220.904 388.9Z" fill="#137AB6"/>
<path d="M379.502 326.5C377.502 328.4 377.002 329.9 377.002 333.9C377.002 338.7 376.902 338.9 372.602 341C366.102 344.1 360.402 350.2 357.902 356.8C356.202 361.4 355.902 364.1 356.202 370.5C356.902 385.1 362.902 391.6 379.602 396C393.902 399.7 398.002 402.8 398.002 409.9C398.002 413.3 394.302 419 391.002 420.7C383.302 424.6 374.802 419.7 373.102 410.5C372.102 405.2 368.502 401 364.902 401C361.502 401 357.102 403.9 356.402 406.6C355.402 410.5 356.602 418.4 358.902 422.8C362.002 429 365.502 432.5 371.502 435.6L377.002 438.5V443.3C377.002 449.4 380.102 453 385.502 453C390.902 453 394.002 449.4 394.002 443.2C394.002 438.4 394.102 438.3 398.102 436.5C403.602 434 409.702 427.8 412.302 422.2C415.202 415.9 415.402 401.3 412.602 396C408.302 387.8 403.102 384.3 390.002 381C380.302 378.5 376.702 376.9 374.602 373.8C372.402 370.7 372.602 365.2 375.002 361.3C381.702 350.3 398.002 355.4 398.002 368.5C398.002 372.3 402.202 376 406.502 376C421.402 376 415.202 349.1 398.502 341C394.302 339 394.002 338.5 394.002 335C394.002 329.9 392.402 326.5 389.302 325.1C385.502 323.3 382.102 323.8 379.502 326.5Z" fill="#137AB6"/>
</svg>
