<svg width="512" height="512" viewBox="0 0 512 512" fill="none" xmlns="http://www.w3.org/2000/svg">
<path d="M323.5 29.5992C269.6 35.4992 224.6 71.3992 207.6 121.999L204.1 132.499L165.7 132.999C123.5 133.499 123.6 133.499 124.2 139.399C124.7 144.799 125.8 144.999 165.9 144.999C197.9 144.999 202.1 145.199 201.6 146.499C201.3 147.299 200.8 153.399 200.4 159.999L199.7 171.999H163.5C136.1 171.999 127 172.299 125.8 173.199C123.5 174.999 86 256.999 86 260.099C86 263.599 88.1 265.199 92.1 264.799L95.4 264.499L114.1 223.999L132.8 183.499H167.1H201.4L202.6 190.999C205.4 207.299 212.7 225.099 223.1 241.099C230.5 252.499 249 271.199 260 278.499C294.3 301.299 336.3 307.799 375.8 296.399C414.3 285.299 448.5 254.299 463.4 216.899C469.9 200.799 472.1 189.699 472.7 170.999C473.3 151.699 471.9 139.899 466.9 124.299C451.8 76.8992 412.8 41.8992 363.8 31.9992C353.9 29.8992 332.1 28.6992 323.5 29.5992ZM331 104.199C331 138.999 331.4 167.999 331.8 168.599C332.2 169.199 355 186.299 382.5 206.499C410 226.699 432.9 243.599 433.3 243.999C434.5 244.999 420.1 259.399 412 265.399C389.2 282.199 365.1 290.299 337.5 290.399C321.4 290.399 312.6 289.099 298.4 284.499C257.3 271.099 226.4 238.199 215.4 196.099C211.7 181.899 210.9 182.999 225.7 182.999C236.1 182.999 238.7 182.699 240.2 181.299C242.4 179.299 242.5 177.099 240.4 174.199C239 172.099 238.2 171.999 225.4 171.999H212L211.8 169.199C211.6 164.999 212 154.999 212.6 149.799L213.2 145.199L226.2 144.799C237.7 144.499 239.3 144.299 240.6 142.599C242.5 139.899 242.4 137.399 240 134.999C238.2 133.199 236.7 132.999 227 132.999C221 132.999 216 132.899 216 132.699C216 132.499 217.1 129.199 218.4 125.299C230.6 89.3992 260.5 59.6992 297 46.9992C305.9 43.9992 319.4 41.1992 325.8 41.0992L331 40.9992V104.199ZM361.1 42.9992C387.1 48.2992 408.4 60.1992 427.2 79.7992C451.3 104.899 463 135.699 461.7 170.499C461 189.499 457.3 203.899 449 220.599C445.7 227.299 442.4 233.199 441.7 233.799C440.8 234.499 427.1 224.999 391.3 198.699L342 162.499V101.699V40.9992H346.6C349.1 40.9992 355.6 41.8992 361.1 42.9992Z" fill="#137AB6"/>
<path d="M278.797 115.099C277.297 115.899 276.997 117.599 276.997 124.999V133.899L272.997 135.099C267.697 136.699 261.197 142.399 258.897 147.399C256.597 152.499 256.397 162.699 258.597 167.799C261.897 175.799 267.997 179.899 277.997 180.999C290.997 182.399 296.397 187.299 295.697 196.799C294.697 210.999 276.197 214.999 269.697 202.399C268.597 200.299 267.397 197.899 266.997 197.099C265.797 194.499 263.297 193.499 260.297 194.599C257.997 195.399 257.397 196.199 257.197 199.299C256.497 207.099 264.397 217.299 272.997 219.899L276.997 221.099V229.799C276.997 239.399 277.697 240.999 282.097 240.999C286.897 240.999 287.997 238.799 287.997 229.399V220.999L291.697 219.499C297.497 217.099 301.297 213.599 304.197 208.399C307.897 201.599 308.597 195.499 306.597 188.599C303.597 178.199 294.597 171.499 282.097 170.299C278.997 169.999 275.297 169.099 273.797 168.299C267.997 165.399 266.297 156.799 270.297 150.899C272.797 147.099 278.697 144.499 282.397 145.399C286.297 146.399 290.797 150.699 292.097 154.799C292.697 156.799 293.697 159.099 294.297 159.699C295.797 161.699 300.497 161.199 302.497 158.999C304.197 157.099 304.297 156.399 303.097 152.199C301.397 145.599 297.797 140.499 292.497 137.499L287.997 134.799V126.399C287.997 119.299 287.697 117.699 285.997 115.999C283.797 113.799 281.397 113.499 278.797 115.099Z" fill="#137AB6"/>
<path d="M381.298 87.2C371.998 93.8 372.398 107.8 381.998 113.4C388.798 117.4 398.998 115.2 403.098 108.7C404.698 106.1 404.998 104.2 404.698 99.1C404.398 93.1 404.098 92.5 400.198 88.9C396.398 85.3 395.598 85 390.298 85C385.898 85 383.698 85.5 381.298 87.2ZM392.998 97.5C395.598 100.7 391.698 105.6 388.298 103.4C384.798 101.2 385.998 96 389.998 96C390.998 96 392.298 96.7 392.998 97.5Z" fill="#137AB6"/>
<path d="M420.396 85.7988C419.796 86.1988 408.996 104.399 396.396 126.299C374.096 165.299 373.596 166.199 375.096 168.799C377.296 172.799 382.196 172.999 384.796 169.299C388.396 164.199 428.596 93.4988 429.196 91.2988C430.396 86.8988 424.396 83.0988 420.396 85.7988Z" fill="#137AB6"/>
<path d="M407.401 142.399C405.701 143.099 403.401 144.999 402.201 146.499C393.001 158.199 402.801 174.299 417.401 171.599C430.001 169.199 433.501 151.599 422.801 143.699C419.401 141.199 411.501 140.499 407.401 142.399ZM416.101 152.999C418.601 154.399 418.601 158.599 416.001 159.999C411.501 162.399 407.401 155.599 411.801 153.099C413.901 151.799 413.801 151.799 416.101 152.999Z" fill="#137AB6"/>
<path d="M235.1 319.099C213.1 321.899 199.6 332.399 193.9 351.099L191.8 357.999H159.9H128V353.199C128 346.299 124.6 340.199 119 337.299C114.6 334.899 114.5 334.899 81.8 335.199C50.5 335.499 49 335.599 46.3 337.599C44.8 338.699 42.5 341.199 41.3 342.999L39 346.299V408.999V471.699L41.2 474.999C42.5 476.799 44.8 479.299 46.3 480.399C49 482.399 50.5 482.499 81.8 482.799C114.5 483.099 114.6 483.099 119 480.699C124.6 477.799 128 471.699 128 464.899V459.999L251.8 459.799L375.5 459.499L383.9 456.599C394.4 452.899 404.7 446.199 412.6 437.899C418.8 431.199 463.8 365.399 469.7 354.199C475.1 343.799 473.9 334.999 466.3 329.399C460.1 324.799 455.2 322.999 449 322.999C441.6 322.999 436.7 324.899 431.8 329.699L428 333.399L407.3 334.199C389.6 334.899 386 335.299 382.4 337.099C379.1 338.599 372.1 345.999 352.5 368.599L326.8 397.999L313.2 397.899C305.6 397.899 294.6 397.499 288.6 397.099C279.2 396.299 276.9 395.799 271.2 392.899C263.1 388.799 259.2 383.199 258.3 374.899L257.8 369.499L274.5 369.899C284.9 370.099 293.5 369.799 297.3 368.999C314.9 365.599 327.3 351.799 330 333.099C331.6 321.799 331.1 321.399 315.8 320.599C309 320.299 294.7 319.499 283.8 318.999C261.3 317.899 244.3 317.899 235.1 319.099ZM287 330.499C303.2 331.299 317.1 331.999 317.8 331.999C320.9 331.999 315.1 344.699 309.3 350.199C307.2 352.199 303.3 354.899 300.5 356.199C295.7 358.399 294.7 358.499 272.8 358.199L250.1 357.999L248.4 360.499C247.1 362.499 246.8 364.899 247.2 372.899C247.5 381.399 248 383.599 250.5 388.599C256.1 399.499 267.6 406.299 283.5 407.999C287.9 408.499 310.2 408.999 333 409.199L374.5 409.499L378.9 406.999C382.1 405.199 390.8 395.599 412 370.499C427.8 351.699 442 335.899 443.4 335.199C448 333.199 452.4 333.699 456.9 336.999C459.2 338.699 461.4 340.799 461.7 341.599C462.6 343.899 459.4 349.999 450.1 363.799C445.4 370.799 433.8 388.099 424.3 402.199C405.1 430.699 400 436.299 387.5 442.399C373.8 449.199 379.3 448.999 247.3 448.999H128V408.999V368.999H159H190V377.699C190 387.099 191.3 389.999 195.5 389.999C199.5 389.999 200.7 387.199 201.4 375.999C203 349.399 210.7 336.699 228 331.999C239.7 328.799 248.9 328.599 287 330.499ZM416.9 346.699C403.9 362.599 375.3 395.799 373.7 396.699C371.5 397.899 343 398.599 343 397.499C343 396.799 383.1 350.999 385.9 348.499C388.3 346.499 395 345.599 411.4 345.199C417.7 344.999 418.1 345.099 416.9 346.699ZM114.5 348.499L117 350.899V408.999V467.099L114.5 469.499L112.1 471.999H83.3C58.8 471.999 54.1 471.799 52.2 470.399L50 468.899V408.999V349.099L52.2 347.599C54.1 346.199 58.8 345.999 83.3 345.999H112.1L114.5 348.499Z" fill="#137AB6"/>
</svg>
