<svg width="512" height="512" viewBox="0 0 512 512" fill="none" xmlns="http://www.w3.org/2000/svg">
<g clip-path="url(#clip0_363_3850)">
<mask id="mask0_363_3850" style="mask-type:luminance" maskUnits="userSpaceOnUse" x="0" y="0" width="512" height="512">
<path d="M512 0H0V512H512V0Z" fill="white"/>
</mask>
<g mask="url(#mask0_363_3850)">
<path d="M107.8 2C103.4 4.29999 100.6 8.09999 99.1001 13.5C98.3001 16.3 98.0001 54.2 98.0001 142.7C98.0001 211.6 97.6001 268 97.2001 268C96.8001 268 91.7001 266.4 86.0001 264.5C74.2001 260.5 70.2001 260.2 66.9001 262.9L64.5001 264.8V300.9C64.5001 336.8 64.5001 337 66.7001 339.2C69.5001 342 75.1001 342.1 78.0001 339.5C79.9001 337.8 80.0001 336.7 80.0001 308.8C80.0001 293 80.3001 280 80.8001 280C81.8001 280 134.2 296.9 134.7 297.4C134.9 297.6 125.7 318.7 114.2 344.2L93.3001 390.5L86.7001 390.8L80.0001 391.1V375C80.0001 360.3 79.8001 358.8 78.0001 357C75.4001 354.4 70.0001 354.4 66.9001 356.9C64.6001 358.8 64.5001 359.3 64.2001 377.6C63.6001 408.2 62.8001 407 85.3001 407C101 407 101.7 406.9 103.8 404.7C104.9 403.5 106.2 401.5 106.7 400.3C107.5 398.2 108 398.4 120.7 405.8C128 410.1 135 414.6 136.2 415.8C137.5 417 141 422.6 144 428.4L149.5 438.8L147.7 442.4C145.3 447.6 145.5 456.3 148.1 461.8C150.6 466.8 156.6 471.7 161.6 472.6C164.3 473.1 165.1 473.8 165.5 475.9C167.6 486 175.2 493.1 185 493.8C190.5 494.2 191.1 494.5 192.9 497.6C196 502.7 202.2 506.3 209 506.8C212.2 507 216.4 506.7 218.3 506.1C221.5 505 222.1 505.1 226.4 508.1C231.3 511.6 238.5 512.9 245.5 511.6C249.4 510.8 257.5 504.2 258.5 501C259 499.3 259.4 499.3 265.3 501.3C273.8 504.1 299.8 504.5 304.6 501.8C309.7 499 313.8 494.2 315.7 489.1C317.4 484.3 317.4 484.2 322.6 483.7C334 482.5 341.8 475.2 343.6 464.1C344.1 460.7 344.8 459.7 347.6 458.4C353.9 455.4 359 447.4 359 440.5C359 438 359.4 437 360.5 437C361.4 437 364 435.1 366.3 432.7C373 426.1 374.6 417.1 370.7 408C370.2 406.9 371.7 405.4 375.7 402.7L381.3 399H393.2C399.7 399 405 399.4 405 399.9C405 400.4 406.2 402.2 407.6 403.9L410.2 407H426.6C444.9 407 446.3 406.5 447.5 399.8C447.8 398 448 377.7 447.8 354.7L447.5 312.8L444.7 310.4C441.3 307.5 438.1 307.3 434.6 310.1L432 312.1V351.6V391.1L425.4 390.8L418.7 390.5L397.8 344.2C386.3 318.7 377 297.6 377.3 297.4C377.8 296.9 430.2 280 431.3 280C431.7 280 432 282.5 432 285.5C432 292.2 434.2 295 439.5 295C446.6 295 448.5 290.1 447.8 274.3C447.1 258.5 445.1 258.1 416.8 267.3L400 272.8V143.6C400 19.7 399.9 14.3 398.1 10.4C397.1 8.1 394.5 4.99999 392.4 3.4L388.7 0.5L282.4 0.2L176.2 0L174.1 2.6C171.4 5.99999 171.4 9 174.1 12.4L176.1 15H278.1C346.5 15 380.8 15.3 382.1 16C384 17.1 384 19.6 384 147.5V277.8L372.8 281.5C366.6 283.6 360.7 285.9 359.7 286.8C357.6 288.7 357.4 295 359.4 298.8L360.8 301.6L355.1 303.9L349.3 306.2L339.5 303.1C326.2 299 315.1 297.6 300 298.3C284.6 299 279.6 300.5 269.1 307.3L260.9 312.7L255.2 311.8C252.1 311.3 243.7 311 236.5 311.3C222 311.8 216.1 313.2 200.6 320.2C193 323.7 191.2 324.1 188.6 323.3C181.3 321 150 306.4 150 305.2C150 304.5 150.9 302.2 152 300C154.4 295.4 154.6 289.3 152.5 287C151.7 286.1 142.7 282.7 132.5 279.4L114 273.5V146C114 67.6 114.4 17.9 115 17C115.7 15.8 119.6 15.4 136 15C154.5 14.5 156.3 14.3 157.6 12.6C159.7 9.7 159.4 4.39999 157 2C155.1 0.1 153.7 0 133.3 0C113.7 0.1 111.1 0.3 107.8 2ZM323 315.6C327.5 316.4 333.4 318 336.1 319.1C344.8 322.5 350.5 322.6 359.3 319.5C363.6 318 367.3 317 367.6 317.2C368.1 317.8 397 381.8 397 382.4C397 382.7 393.1 383 388.3 383C377.1 383 373.9 384 366.1 389.4C354.9 397.3 345.7 397.7 331.2 390.8C322.6 386.8 315.7 379.5 309 367.6C301.9 354.9 298.7 352 291.7 352C283.4 352 268.4 354.7 265.5 356.6C263.6 357.8 260.9 362.2 257.3 369.6C252.9 378.8 251.2 381.3 248.2 383.2C244.7 385.4 237 386.4 235.5 384.8C235 384.3 243.6 348.7 245.5 344C245.8 343.2 254.9 336.5 265.8 329.2C281.8 318.4 286.5 315.7 290.5 315.1C298.8 313.7 314.3 313.9 323 315.6ZM161.8 329.5C172.2 334.1 183 338.5 185.8 339.2C192.4 340.7 198.2 339.4 210 334C219.8 329.5 228.6 327 234.7 327H239L235.1 330.9C230.6 335.4 230.8 334.8 222.4 367.6C215.7 394.1 215.7 394.3 224 397.9C235.1 402.7 244.3 402.9 253.7 398.6C261 395.1 265.7 389.9 270.7 379.4C275.4 369.3 274.9 369.8 285.5 368.5L290.5 367.9L296 377.6C307.6 398.1 324.2 409.3 346.4 411.7C352.2 412.4 353.6 412.9 355.2 415.1C356.8 417.3 357 418.1 356.1 419.9C354.4 423 351.3 423.3 341.4 421.6C331.6 419.9 324.5 417.4 315.8 412.3C309.1 408.4 305.8 408.2 302.5 411.5C299.4 414.5 299.3 418.8 302 422.3C305.3 426.5 321.4 433.8 332.8 436.3C340.9 438.1 343 438.9 343 440.2C343 443.7 338.3 445.4 329.1 445.3C319.4 445.2 310.9 443.3 300.9 438.8C293.8 435.6 290.6 435.6 287.6 438.6C285.3 440.8 284.7 444.1 285.9 447.4C286.7 449.5 288.8 451 294.6 453.6C303.2 457.6 315.5 461 321.4 461C327.7 461 328.8 462.2 325.7 465.4C323.3 467.8 322.4 468 314.7 468C305.4 468 294.8 465.7 285.6 461.6C278.6 458.5 274.7 458.3 272 461C269.4 463.6 269.3 470 271.8 472.3C274.4 474.6 284 478.7 293.2 481.4L301.2 483.7L298.5 485.8C296.2 487.7 294.4 488 287.3 488C282.7 488 276 487.3 272.5 486.4L266 484.8V480C266 473.4 262.5 467.3 256.6 463.2C253.9 461.5 250.7 460 249.4 460C248 460 246.8 459.4 246.6 458.8C246.4 458.1 245.7 455.6 245.1 453.3C242.8 444.8 235 439.1 225.8 439C221.6 439 220.9 438.7 219.6 436.2C216.3 429.8 209.5 426 201.3 426C195.8 426 195.3 425.8 193.6 423C187.9 413.3 172.3 411.2 162.2 418.7C160.4 420.1 158.7 421 158.6 420.9C158.4 420.7 156.8 417.7 155 414.3C150.5 405.7 144.8 400.8 128.8 391.6C121.2 387.3 115 383.4 115 382.9C115 381.9 142.3 321 142.7 321C142.9 321 151.5 324.8 161.8 329.5ZM180 432C181.1 433.1 182 434.6 182 435.2C181.9 437.3 171.6 455.2 169.9 456.3C167.3 458 163.1 456.3 162.4 453.3C161.8 451.2 162.7 448.7 166.1 442.3C172.8 429.6 175.6 427.6 180 432ZM204.8 443.2C205.5 443.9 206 445.5 206 446.9C206 449.6 192.7 474.8 190.2 476.7C186.8 479.4 181.7 477.1 181.8 472.9C181.8 470.6 193.8 447.3 196.8 443.7C198.5 441.7 203 441.4 204.8 443.2ZM228.8 456.2C231.2 458.6 229.8 462.7 222.2 476.5C215.8 488.2 214.1 490.5 212 490.8C208.6 491.2 205.7 488.9 205.8 485.9C205.8 483.7 217.9 460.2 220.9 456.6C222.5 454.7 227.1 454.5 228.8 456.2ZM249.4 479.3C250.2 481.4 249.8 483 247.5 487.2C243.7 494.4 242.1 496 239 496C235.8 496 234 494.3 234 491.2C234 488 240 477.3 242.5 476.2C245.3 474.9 248.3 476.3 249.4 479.3Z" fill="#137AB6"/>
<path d="M178.9 33.9006C174.6 35.3006 171.2 38.0006 169.6 41.5006C168.4 44.0006 168 48.2006 168 59.7006C168 77.1006 169 80.0006 176 83.7006L180.3 86.0006H256H331.7L336 83.7006C343 80.0006 344 77.1006 344 59.7006C344 42.7006 343.1 39.5006 337.1 35.8006L333.5 33.5006L257.5 33.3006C215.7 33.2006 180.3 33.5006 178.9 33.9006ZM328 59.5006V70.0006H256H184V59.5006V49.0006H256H328V59.5006Z" fill="#137AB6"/>
<path d="M183.995 102.7C178.795 104.7 177.095 112.1 180.995 116C182.995 118 184.295 118 255.995 118C327.695 118 328.995 118 330.995 116C333.795 113.2 333.695 107 330.895 104.4C328.895 102.6 326.095 102.5 257.095 102.3C217.695 102.2 184.795 102.4 183.995 102.7Z" fill="#137AB6"/>
<path d="M181.004 142C178.204 144.8 178.304 151 181.104 153.6C183.104 155.4 185.804 155.5 256.204 155.5H329.204L331.104 153.1C333.604 150 333.604 144.6 331.004 142C329.004 140 327.704 140 256.004 140C184.304 140 183.004 140 181.004 142Z" fill="#137AB6"/>
<path d="M181.601 179.1C178.101 181.8 178.001 187.7 181.301 190.8L183.601 193H256.101H328.701L330.801 190.7C334.001 187.3 333.801 181.8 330.401 179.1C327.801 177 327.101 177 256.001 177C184.901 177 184.201 177 181.601 179.1Z" fill="#137AB6"/>
<path d="M229.3 217.4C224.3 219.8 217 226.2 212 232.7L209.5 235.8L202.8 234.8C197.1 233.8 195.8 233.9 193.6 235.4C190.6 237.3 189.4 241.3 190.6 244.9C191.6 247.5 194.6 249.5 199.2 250.5L201.8 251L199.4 257.9C197.4 263.6 197.2 265.3 198.1 267.9C199.4 271.5 201.6 273 205.9 273C210 273 212.4 270.4 214.5 263.9C217.9 253.5 218.2 253.2 223.7 254.1C232.2 255.5 234.9 255.2 237.5 252.5C242.6 247.5 239.7 240.3 232.3 239.3C227.5 238.7 227.6 238 233.2 233.9C236.2 231.8 238.4 231 241.6 231C248.7 231 249.3 232.7 250 255.4C250.5 272.3 250.8 275 252.8 278.7C256.8 286.3 264.1 289.8 273.4 288.5C279.6 287.7 282.9 286 286.8 281.6C290.9 276.9 292 272.5 292 260.8V251.1L296.3 249.2C304.8 245.3 309 237.8 309 226.5C309 218.3 306.7 215 300.9 215C295.1 215 293 217.6 293 224.8C293 231.2 291.1 235 287.8 235C284.1 235 279.2 238.1 277.6 241.5C276.4 244 276 248 276 257.3C276 269.2 275.9 270 273.8 271.4C270.9 273.5 268.3 273.4 267.2 271.2C266.7 270.3 266 261.4 265.7 251.5C265.4 241.4 264.6 231.9 263.9 229.8C262.2 224.6 257.3 219.1 252.6 216.9C246.5 214.1 235.9 214.4 229.3 217.4Z" fill="#137AB6"/>
</g>
</g>
<defs>
<clipPath id="clip0_363_3850">
<rect width="512" height="512" fill="white"/>
</clipPath>
</defs>
</svg>
