<svg width="512" height="512" viewBox="0 0 512 512" fill="none" xmlns="http://www.w3.org/2000/svg">
<path d="M26 26.001C24 28.001 24 29.301 24 198.501C24 317.001 24.3 370.501 25.1 374.201C25.7 377.101 28.2 383.701 30.6 388.801C36.4 400.901 45.8 410.601 57.7 416.801C72 424.201 68.5 424.001 161.3 424.001C206.8 424.001 244 423.701 244 423.301C244 423.001 242.8 419.401 241.3 415.401L238.6 408.101L159.5 407.801C86.7 407.501 80.1 407.301 75 405.601C54.3 398.801 41 381.001 41 359.901V352.001H137.4H233.7L234.3 347.201C234.6 344.601 235.2 341.001 235.6 339.201L236.3 336.001H138.6H41V188.001V40.001H180.5H320V140.501C320 195.801 320.1 241.001 320.3 241.001C320.4 240.901 324.1 239.901 328.5 238.601L336.5 236.201L336.8 194.101L337 152.001H366.5C394.7 152.001 396.1 151.901 398 150.001C401.5 146.501 400.6 142.201 392.8 126.501L385.5 112.001L392.8 97.501C400.6 81.801 401.5 77.501 398 74.001C396.1 72.101 394.7 72.001 366.5 72.001H337V52.101C337 31.601 336.3 26.801 333 25.001C331.8 24.401 276.5 24.001 179.6 24.001C29.3 24.001 28 24.001 26 26.001ZM378 88.501C378 88.801 375.8 93.501 373 99.001C370.3 104.501 368 110.301 368 112.001C368 113.701 370.3 119.501 373 125.001C375.8 130.501 378 135.201 378 135.501C378 135.801 368.8 136.001 357.5 136.001H337V112.001V88.001H357.5C368.8 88.001 378 88.201 378 88.501Z" fill="#137AB6"/>
<path d="M168.9 52.9019C167.5 53.4019 165.3 54.3019 164 55.0019C162.8 55.7019 156.7 57.5019 150.6 59.0019C125.3 65.2019 106.4 78.7019 94.4 99.0019C86.6 112.202 81.4 129.502 80.4 145.802C79.9 154.102 79.3 156.602 76.2 163.502C73 170.302 72.5 172.502 72.5 178.602C72.5 184.702 72.9 186.102 75.2 189.202C80.8 196.502 73.8 196.102 181.3 195.802L277.7 195.502L281.3 192.702C289.9 186.202 290.7 176.902 283.8 163.502C281.2 158.402 280.6 155.802 279.9 146.302C277.7 119.302 267.7 96.5019 251.3 80.9019C240 70.1019 227.1 63.4019 209.4 59.0019C203.4 57.5019 196.8 55.4019 194.9 54.4019C191.1 52.4019 173.6 51.4019 168.9 52.9019ZM187.9 70.1019C191 71.2019 191 71.2019 191 78.3019C191 82.3019 190.3 99.2019 189.5 116.002C188.7 132.802 188 147.702 188 149.202V152.002H180H172V147.202C172 144.602 171.3 128.802 170.5 112.002C168.5 69.4019 168.4 71.4019 171.8 70.2019C175.5 68.8019 184 68.8019 187.9 70.1019ZM153.4 110.602C154.3 129.402 155 146.402 155 148.402V152.002H126H97V149.102C97 145.102 99.8 130.502 101.7 124.502C107.2 107.002 120 91.1019 135.1 83.0019C140.2 80.3019 151.1 76.0019 151.7 76.4019C151.8 76.5019 152.6 91.9019 153.4 110.602ZM220.5 81.0019C237.8 89.0019 248.8 100.602 256.2 118.402C259.2 125.802 263 142.402 263 148.402V152.002H234H205V149.202C205 147.702 205.7 132.802 206.5 116.002C207.3 99.2019 208 83.4019 208 80.8019C208 76.5019 208.2 76.2019 210.3 76.7019C211.5 77.0019 216.1 78.9019 220.5 81.0019ZM269.2 172.402C273.2 180.702 281 180.002 181.1 180.002C132.2 180.002 91.5 179.702 90.6 179.402C88.5 178.602 88.6 177.402 91 172.202L92.9 168.002H180H267L269.2 172.402Z" fill="#137AB6"/>
<path d="M94 214C92.1 215.9 92 217.3 92 250C92 282.7 92.1 284.1 94 286C96 288 97.3 288 177.4 288H258.8L263.9 281.8L269 275.5V247.9C269 219.4 268.5 214.9 265 213C263.8 212.4 232.2 212 179.6 212C97.3 212 96 212 94 214ZM252 250V272H180.5H109V250V228H180.5H252V250Z" fill="#137AB6"/>
<path d="M345.705 249.601C298.105 258.201 259.805 295.901 250.105 343.701C247.205 357.701 247.205 378.301 250.105 392.301C259.905 440.401 298.405 478.101 346.405 486.501C357.705 488.401 378.305 488.401 389.605 486.501C437.605 478.101 476.105 440.501 485.905 392.301C488.805 378.301 488.805 357.701 485.905 343.701C476.105 295.501 437.605 257.901 389.605 249.501C378.605 247.601 356.405 247.701 345.705 249.601ZM387.505 266.601C425.805 273.901 456.005 301.801 467.705 340.501C470.205 348.901 470.405 350.701 470.405 368.001C470.405 385.301 470.205 387.101 467.705 395.501C460.505 419.201 446.605 438.801 427.605 452.101C409.305 465.101 390.305 471.101 368.005 471.101C321.505 471.101 282.305 441.401 268.305 395.501C265.805 387.101 265.605 385.301 265.605 368.001C265.605 350.801 265.805 348.901 268.305 340.501C284.105 287.901 334.705 256.501 387.505 266.601Z" fill="#137AB6"/>
<path d="M347.704 285.9C338.104 295.6 337.004 297.1 337.004 300.3C337.004 302.3 337.504 304.2 338.104 304.6C338.804 305 332.504 312 322.404 322.1C311.404 333.1 305.204 338.6 304.604 338C304.004 337.4 302.004 337 300.204 337C297.104 337 295.404 338.3 285.904 347.7C270.204 363.1 269.804 361.2 294.004 385.4C312.304 403.9 313.004 404.5 317.004 404.5C320.804 404.5 321.604 403.8 331.404 394.1C342.004 383.6 343.604 380.8 341.904 376.2C341.404 374.9 341.304 373.4 341.604 372.8C342.004 372.2 352.704 382.2 365.504 395C384.904 414.4 388.604 418.6 388.204 420.5C386.604 429.1 400.504 443.9 410.304 444C415.604 444 420.604 440.9 430.404 431.2C440.404 421.3 444.004 415.9 444.004 410.5C444.004 400.6 429.204 386.6 420.504 388.2C418.604 388.6 414.404 384.9 395.004 365.5C382.204 352.7 372.204 342 372.704 341.7C373.304 341.3 375.004 341.4 376.604 341.8C378.204 342.2 380.404 342.4 381.604 342.2C382.704 342.1 388.304 337.2 394.004 331.5C403.804 321.6 404.504 320.8 404.504 317C404.504 313 403.904 312.3 385.404 294C361.204 269.8 363.104 270.2 347.704 285.9ZM373.304 306.8L384.104 317.6L381.704 319.8L379.404 322L368.504 311C357.804 300.2 357.604 300.1 359.504 298C360.504 296.9 361.604 296 361.904 296C362.304 296 367.404 300.9 373.304 306.8ZM356.304 333.2L351.004 338.5L346.004 333.5L341.004 328.6L346.204 323.3L351.504 318L356.504 323L361.504 328L356.304 333.2ZM333.204 356.2L328.004 361.5L323.504 357C321.104 354.5 319.104 352.1 319.004 351.5C319.004 351 321.104 348.4 323.704 345.8L328.504 341L333.504 346L338.504 351L333.204 356.2ZM401.204 401.2L399.004 403.5L377.004 381.5L355.104 359.6L357.204 357.2L359.404 354.9L381.404 376.9L403.504 399L401.204 401.2ZM311.304 368.8L322.104 379.6L319.704 381.8L317.404 384L306.504 373C295.804 362.2 295.604 362.1 297.504 360C298.504 358.9 299.604 358 299.904 358C300.304 358 305.404 362.9 311.304 368.8ZM424.504 408C426.404 410.1 426.304 410.2 418.204 418.3L410.004 426.5L407.804 424.2L405.604 422L413.504 414C417.904 409.6 421.704 406 422.104 406C422.404 406 423.504 406.9 424.504 408Z" fill="#137AB6"/>
<path d="M98 302C96.7 303.3 96 305.3 96 308C96 310.7 96.7 312.7 98 314C100 316 101.3 316 171.4 316H242.8L246.8 308L250.9 300H175.4C101.3 300 100 300 98 302Z" fill="#137AB6"/>
<path d="M66 362C64.7 363.3 64 365.3 64 368C64 370.7 64.7 372.7 66 374C68 376 69.3 376 150.5 376H233V368V360H150.5C69.3 360 68 360 66 362Z" fill="#137AB6"/>
<path d="M74 386C72.7 387.3 72 389.3 72 392C72 394.7 72.7 396.7 74 398C76 400 77.3 400 156.1 400H236.3L235.6 396.7C235.2 395 234.6 391.4 234.3 388.7L233.7 384H154.9C77.3 384 76 384 74 386Z" fill="#137AB6"/>
</svg>
