<svg width="512" height="512" viewBox="0 0 512 512" fill="none" xmlns="http://www.w3.org/2000/svg">
<path d="M202 10C200.1 11.9 200 13.3 200 42V72H162C125.3 72 123.9 72.1 122 74C120 76 120 77.3 120 136C120 194.7 120 196 122 198C124 200 125.3 200 186 200H248V207.9V215.7L241.5 217.9C226.4 222.8 215.5 233.3 210.4 247.9C208.3 253.8 208 256.3 208 271.8C208 286.7 208.3 289.9 210.1 295.3C212.8 303.5 217 309.9 223.6 315.9L229 320.9L225.5 323.6C222.8 325.6 220.2 326.5 214.3 327.2C194.4 329.6 184.4 336.2 178.4 350.8C176.2 356.2 176 357.7 176 380.2C176 402.7 176.1 404.1 178 406C179.9 407.9 181.3 408 214 408H248V416.3V424.7L243.8 425.9C238.1 427.7 227.7 438.1 225.9 443.8L224.7 448H172.3H120V445C120 437.9 113.9 429.4 106.5 425.9C103.2 424.4 99.9 424 87 424L71.5 423.9L76.8 421.9C83.9 419.1 91.2 411.8 93.9 404.5C95.7 399.8 96 396.7 96 384C96 371.3 95.7 368.2 93.9 363.5C86.2 342.8 57 337.1 41 353C33.5 360.6 32 365.7 32 383.9C32 400 32.9 404.4 37.7 411.3C40.7 415.7 47.2 420.4 52.8 422.5C56.2 423.8 55.3 423.9 41 424C23.6 424.1 20.1 425 14.3 431.1C8.2 437.5 8 438.9 8 471C8 498.7 8.1 500.1 10 502C11.9 503.9 13.3 504 64 504C114.7 504 116.1 503.9 118 502C119.9 500.1 120 498.7 120 482V464H172.4H224.8L225.5 466.9C227 474 236.5 483.5 245 486.5C250.5 488.4 261.5 488.4 267 486.5C275.5 483.5 285 474 286.5 466.9L287.2 464H339.6H392V482C392 498.7 392.1 500.1 394 502C395.9 503.9 397.3 504 448 504C498.7 504 500.1 503.9 502 502C503.9 500.1 504 498.7 504 470.7C504 438.1 503.7 436.8 496.9 430.3C491.1 424.8 487.8 424 470.8 423.9H455.5L460.8 421.9C467.9 419.1 475.2 411.8 477.9 404.5C481 396.3 481 371.7 477.9 363.5C470.2 342.8 441 337.1 425 353C417.5 360.6 416 365.7 416 383.9C416 400 416.9 404.4 421.7 411.3C424.7 415.7 431.2 420.4 436.8 422.5C440.2 423.8 439.3 423.9 425 424C412.1 424 408.8 424.4 405.5 425.9C398.1 429.4 392 437.9 392 445V448H339.7H287.3L286.1 443.8C284.3 438.1 273.9 427.7 268.2 425.9L264 424.7V416.3V408H298C330.7 408 332.1 407.9 334 406C335.9 404.1 336 402.7 336 380.2C336 357.7 335.8 356.2 333.6 350.8C327.6 336.2 317.6 329.6 297.7 327.2C291.8 326.5 289.2 325.6 286.5 323.6L283 320.9L288.4 315.9C295.1 309.8 299.6 302.8 302.1 294.9C305 285.7 304.9 257.5 301.9 248.7C296.7 233.2 284 221.3 268.3 217.1L264 215.9V208V200H326C386.7 200 388 200 390 198C392 196 392 194.7 392 120C392 45.3 392 44 390 42C388.1 40.1 386.7 40 350 40H312V26C312 13.3 311.8 11.8 310 10C308.1 8.1 306.7 8 256 8C205.3 8 203.9 8.1 202 10ZM296 104V184H256H216V104V24H256H296V104ZM376 120V184H344H312V120V56H344H376V120ZM200 136V184H168H136V136V88H168H200V136ZM269.8 235.9C275.2 238.7 281.3 244.7 284 250.1C287.2 256.3 288.7 270 287.3 280.9C286 291 283.7 296.3 278 302C271.2 308.8 266.9 310.5 256 310.5C248 310.5 245.8 310.1 242.2 308.2C236.7 305.3 230.7 299.2 228 293.9C224.8 287.7 223.3 274 224.7 263.1C226.7 247.8 233 239.1 245.9 234.3C251.4 232.3 264.4 233.1 269.8 235.9ZM270.5 332.5L274.7 337L269.1 339.8C261.1 343.7 250.9 343.7 242.9 339.8L237.4 337L241.4 332.5L245.5 328.1L255.9 328H266.3L270.5 332.5ZM224.4 348.5C227.3 350.9 232.8 354.4 236.6 356.2C243.3 359.4 243.9 359.5 256 359.5C268.1 359.5 268.7 359.4 275.4 356.2C279.2 354.4 284.8 350.9 287.8 348.3L293.2 343.7L300.1 344.7C304.9 345.5 308.2 346.6 310.5 348.4C318.3 354.4 320 360 320 379.6V392H312H304V384V376H296H288V384V392H256H224V384V376H216H208V384V392H200H192V379.6C192 372.8 192.4 364.9 193 362.1C195.1 351 203.4 344.6 216.3 344.1C218.4 344 220.7 345.3 224.4 348.5ZM72 363.3C78.2 367.4 79.5 371 79.5 384C79.5 393.8 79.2 396 77.4 399C71.1 409.7 56.9 409.7 50.6 399C48.8 396 48.5 393.8 48.5 384C48.5 374.2 48.8 372 50.6 369C55.2 361.2 65 358.5 72 363.3ZM456 363.3C462.2 367.4 463.5 371 463.5 384C463.5 393.8 463.2 396 461.4 399C455.1 409.7 440.9 409.7 434.6 399C432.8 396 432.5 393.8 432.5 384C432.5 374.2 432.8 372 434.6 369C439.2 361.2 449 358.5 456 363.3ZM98.4 441.4C103.4 443.5 104 446.5 104 468.6V488H100H96V472V456H88H80V472V488H64H48V472V456H40H32V472V488H28H24V468.6C24 446.8 24.7 443.5 29.4 441.4C34 439.4 93.6 439.4 98.4 441.4ZM482.4 441.4C487.4 443.5 488 446.5 488 468.6V488H484H480V472V456H472H464V472V488H448H432V472V456H424H416V472V488H412H408V468.6C408 446.8 408.7 443.5 413.4 441.4C418 439.4 477.6 439.4 482.4 441.4ZM263.8 443C276.8 450.9 271.2 471 256 471C247.5 471 241 464.5 241 456C241 447.5 247.5 441 256 441C258.7 441 261.8 441.8 263.8 443Z" fill="#137AB6"/>
<path d="M232 48V56H240H248V48V40H240H232V48Z" fill="#137AB6"/>
<path d="M264 48V56H272H280V48V40H272H264V48Z" fill="#137AB6"/>
<path d="M232 80V88H240H248V80V72H240H232V80Z" fill="#137AB6"/>
<path d="M264 80V88H272H280V80V72H272H264V80Z" fill="#137AB6"/>
<path d="M232 112V120H240H248V112V104H240H232V112Z" fill="#137AB6"/>
<path d="M264 112V120H272H280V112V104H272H264V112Z" fill="#137AB6"/>
<path d="M232 144V152H240H248V144V136H240H232V144Z" fill="#137AB6"/>
<path d="M264 144V152H272H280V144V136H272H264V144Z" fill="#137AB6"/>
<path d="M320 80V88H328H336V80V72H328H320V80Z" fill="#137AB6"/>
<path d="M352 80V88H360H368V80V72H360H352V80Z" fill="#137AB6"/>
<path d="M320 112V120H328H336V112V104H328H320V112Z" fill="#137AB6"/>
<path d="M352 112V120H360H368V112V104H360H352V112Z" fill="#137AB6"/>
<path d="M320 144V152H328H336V144V136H328H320V144Z" fill="#137AB6"/>
<path d="M352 144V152H360H368V144V136H360H352V144Z" fill="#137AB6"/>
<path d="M144 112V120H152H160V112V104H152H144V112Z" fill="#137AB6"/>
<path d="M176 112V120H184H192V112V104H184H176V112Z" fill="#137AB6"/>
<path d="M144 144V152H152H160V144V136H152H144V144Z" fill="#137AB6"/>
<path d="M176 144V152H184H192V144V136H184H176V144Z" fill="#137AB6"/>
</svg>
