<svg width="512" height="512" viewBox="0 0 512 512" fill="none" xmlns="http://www.w3.org/2000/svg">
<path d="M241.496 36.6005C219.096 42.2005 200.696 59.8005 193.296 82.5005C189.996 92.7005 189.596 109.701 192.296 120.001C197.596 139.701 209.796 154.601 228.196 164.001C248.596 174.201 274.596 173.201 294.496 161.301C304.296 155.401 314.196 144.501 319.496 133.701C332.796 106.401 327.996 75.9005 306.996 55.0005C298.496 46.5005 291.496 42.0005 280.796 38.3005C274.596 36.0005 271.496 35.6005 260.496 35.3005C251.396 35.1005 245.696 35.5005 241.496 36.6005ZM269.496 49.5005C280.196 51.8005 288.496 56.3005 296.596 64.4005C307.696 75.4005 312.996 87.9005 312.996 102.801C312.996 127.201 296.896 148.401 272.596 155.801C265.096 158.001 250.996 157.701 242.996 155.101C220.496 147.801 205.796 129.201 204.296 106.001C203.296 90.2005 208.696 76.1005 220.396 64.5005C234.096 50.9005 251.296 45.7005 269.496 49.5005Z" fill="#137AB6"/>
<path d="M252.802 64.1C252.602 66.7 251.902 67.4 248.602 68.5C240.202 71.4 235.102 79.7 236.502 88.7C237.602 96.3 243.002 100.7 257.702 106C265.102 108.7 268.002 111.1 268.002 114.9C268.002 118.9 264.902 121.3 259.602 121.4C254.902 121.5 250.702 118.8 249.402 114.8C249.002 113.3 247.802 113 241.502 113H234.102L234.702 116.2C235.002 118 235.902 120.7 236.702 122.3C238.402 125.6 245.102 130.6 249.102 131.5C251.702 132.1 252.002 132.6 252.002 136.1V140H258.502H265.002V136.2C265.002 132.6 265.202 132.4 269.302 131.3C277.702 129 282.902 122 283.002 113C283.002 103.5 276.702 97.1 262.902 92.5C254.302 89.6 251.002 87.3 251.002 84C251.002 80.9 254.602 78 258.402 78C262.002 78 267.002 81.2 267.002 83.6C267.002 84.7 268.702 85 274.602 85H282.302L281.602 81.9C280.302 75.1 275.002 70.1 266.702 67.6C265.202 67.1 265.002 66.4 265.502 64L266.202 61H259.602H253.102L252.802 64.1Z" fill="#137AB6"/>
<path d="M144.7 83.7991C142.4 86.3991 142.6 90.8991 145.2 93.6991L147.3 95.9991H134.4C119.5 95.9991 115.3 96.8991 110.4 101.199C103 107.699 103 107.599 103 147.999C103 182.699 103.1 184.099 105 185.999C107.4 188.399 110.7 188.599 113.8 186.399L116 184.899V150.899C116 115.299 116.3 112.199 120.5 110.599C121.4 110.299 128.2 109.999 135.5 109.999H148.9L146.5 112.499C141.7 117.199 144.3 123.999 150.8 123.999C154 123.999 155.7 122.899 163.8 115.699C169 111.199 173.6 106.699 174.1 105.799C176.2 102.099 173.9 98.8991 163.2 90.3991C151.9 81.3991 148.1 80.0991 144.7 83.7991Z" fill="#137AB6"/>
<path d="M353.8 90.6003C343.9 98.4003 343 99.4003 343 102.501C343 106.401 344.1 107.701 355.1 117.301C361.4 122.801 363.3 124.001 366.2 124.001C372.6 124.001 375.1 117.901 370.9 112.601L368.9 110.001H382.3C394.1 110.001 396.1 110.201 398.1 111.901L400.5 113.801L401 149.501C401.5 183.301 401.6 185.201 403.4 186.601C406.1 188.501 409.3 188.401 412.1 186.101L414.5 184.201V148.301V112.401L411.9 107.501C410.1 104.001 408 101.601 404.5 99.5003C399.8 96.6003 399.3 96.5003 384.7 96.2003C369.9 95.8003 369.8 95.8003 371.9 93.9003C374.6 91.4003 374.7 85.9003 372.2 83.7003C368.5 80.3003 365.1 81.6003 353.8 90.6003Z" fill="#137AB6"/>
<path d="M102.497 196.299C94.9967 198.199 88.0967 201.899 82.9967 206.599C80.4967 208.899 76.5967 211.399 74.1967 212.099C68.4967 213.799 62.5967 220.199 60.5967 227.099C59.5967 230.199 58.9967 236.099 58.9967 241.599C58.9967 247.499 58.4967 251.999 57.4967 254.299C55.3967 259.299 55.5967 269.499 57.8967 274.499C58.8967 276.699 61.5967 280.199 63.7967 282.199C66.0967 284.299 67.9967 286.599 67.9967 287.299C67.9967 290.799 75.4967 303.699 80.5967 309.099C88.2967 317.099 94.9967 320.199 105.797 320.799C121.197 321.599 133.697 315.899 142.297 304.199C145.797 299.499 150.997 289.099 150.997 286.999C150.997 286.399 152.797 284.299 155.097 282.299C160.897 277.099 163.297 271.899 163.197 264.499C163.197 261.199 162.497 256.499 161.597 254.099C160.497 251.199 159.997 246.299 159.997 239.399C159.997 227.699 158.197 221.399 152.597 213.299C148.397 207.199 138.897 200.699 130.197 197.899C121.897 195.299 109.297 194.599 102.497 196.299ZM125.397 210.999C133.697 213.599 139.497 218.099 143.297 224.899C146.097 229.899 146.397 231.299 147.097 243.399C147.497 250.599 148.397 258.399 149.097 260.599C150.797 266.199 149.097 270.099 143.397 273.999C140.397 276.099 138.997 277.899 138.497 280.199C137.097 286.699 132.097 295.699 127.097 300.299C110.697 315.699 87.0967 306.099 80.8967 281.599C79.9967 277.999 78.8967 276.299 75.8967 274.199C73.7967 272.699 71.2967 269.999 70.2967 268.199C68.5967 265.099 68.5967 264.699 70.2967 260.099C71.3967 256.999 71.9967 252.299 71.9967 247.199C71.9967 231.999 74.8967 224.999 81.1967 224.999C83.4967 224.999 85.2967 223.999 87.8967 221.199C92.9967 215.899 97.9967 212.199 102.597 210.599C108.297 208.499 117.697 208.699 125.397 210.999Z" fill="#137AB6"/>
<path d="M396.2 196.101C389.4 197.401 381.5 201.501 376.3 206.301C373.4 209.001 369.8 211.201 367.4 211.901C361.8 213.401 355.6 220.201 353.6 227.101C352.7 230.101 352 236.101 352 241.201C352 247.001 351.5 251.301 350.4 253.801C349.6 255.801 348.8 260.401 348.8 264.001C348.7 271.801 350.8 276.601 356.9 282.501C359.2 284.601 361 286.901 361 287.601C361 290.701 369.6 305.501 374 309.901C381.3 317.201 388.4 320.301 399 320.801C418.2 321.701 432.2 312.901 441 294.501C442.6 291.101 444 287.701 444 287.101C444 286.501 445.9 284.301 448.2 282.201C450.4 280.201 453.1 276.701 454.1 274.501C456.2 269.901 456.6 259.601 454.8 255.301C454.2 253.801 453.4 246.601 453 239.501C452.5 227.801 452.1 225.801 449.4 220.001C441 202.201 417.9 191.801 396.2 196.101ZM418.4 211.001C427.1 213.701 432.8 218.201 436.4 225.401C439.1 230.601 439.4 232.201 439.7 242.801C439.9 250.101 440.7 256.501 441.7 259.801C443.3 264.801 443.3 265.201 441.7 268.301C440.7 270.001 438.2 272.701 436 274.301C433.4 276.101 431.9 278.101 431.5 280.301C430.1 286.801 425.1 295.701 420.1 300.301C409.2 310.601 392.4 310.001 382.8 299.101C379.3 295.101 374.3 285.101 373.4 280.201C372.9 277.801 371.7 276.101 368.8 274.301C364.7 271.601 362 267.501 362 264.201C362 263.101 362.7 260.601 363.5 258.701C364.4 256.401 365 251.801 365 246.201C365 236.201 367.1 227.501 370 226.001C371 225.501 373.1 225.001 374.6 225.001C376.5 225.001 378.5 223.701 381.4 220.701C392 209.401 403.4 206.401 418.4 211.001Z" fill="#137AB6"/>
<path d="M72 327.4C57.1 332 41.4 339.4 33.4 345.8C26.8 351 20.6 360.4 17.7 369.4C15.6 376.2 15.5 377.9 15.5 414.3V452.2L17.9 454.1C20.1 455.9 22.7 456 84.5 456H148.8L154.8 461.8C165.6 472.2 177.6 477 193 477C203.6 477 209.7 475.4 222.2 469.6C227.6 467.1 232.4 465 232.9 465C233.4 465 236.1 466.5 238.8 468.4C246.4 473.5 255 476.1 266 476.7C278.9 477.4 284.5 475.8 307 464.9L325.5 456H408.6C489 456 491.9 455.9 494.1 454.1L496.5 452.2V414.3C496.5 377.9 496.4 376.2 494.3 369.4C491.4 360.4 485.2 351 478.6 345.8C469.7 338.6 443.6 327.2 432 325.4C426.4 324.5 424.2 327 423 335.6C421.4 347.5 417.2 354.9 407.4 362.9L402.7 366.9L399.6 364.7C389.6 357.6 383.5 347.6 382 335.8C380.6 324 378.1 323.1 361.4 328.5C352.1 331.6 333.9 340 329.4 343.5C326.5 345.7 325.9 345.8 319.6 344.9C312.4 343.9 302.2 344.9 295.5 347.3C293.3 348.1 287.5 350.6 282.5 352.9L273.6 357.1L271 355.2C261.9 348.5 250.7 345 238 345C226.6 345 222.1 346.2 207.4 353.1L196.6 358.1L194.1 354.8C186.5 344.8 169.9 334.8 150.5 328.5C133.8 323.2 131.4 324 130 335.8C128.5 347.6 122.4 357.6 112.4 364.7L109.3 366.9L104.6 362.9C94.8 354.9 90.6 347.5 89 335.6C88.2 330.4 87.4 328 85.9 326.7C83.2 324.5 81.2 324.6 72 327.4ZM76.5 344.7C77.9 352.7 83 361.2 90.9 369C98.6 376.6 104.8 381.3 108.6 382.4C113.7 383.9 133.6 365.9 138.8 355C140.5 351.4 142.1 346.8 142.5 344.7C142.9 342.7 143.6 341 144 341C145.9 341 159.3 346.6 167.3 350.7C173.1 353.7 177.4 356.7 180.1 359.8L184.1 364.4L174.3 369C162 374.9 154.8 380.3 148.8 388.2C139.9 399.9 136 414.6 137.9 428.6C138.5 432.5 139.4 436.9 140 438.4C140.5 439.9 141 441.3 141 441.6C141 441.8 115.8 442 84.9 442H28.9L29.2 409.2C29.5 378.1 29.6 376.2 31.7 371C35.3 362.3 41.5 356 52 350.6C60.8 346 72.4 341.1 74.6 341C75.3 341 76.1 342.7 76.5 344.7ZM369.5 344.7C369.9 346.8 371.5 351.4 373.2 355C378.4 365.9 398.3 383.9 403.4 382.4C407.2 381.3 413.4 376.6 421.1 369C429 361.2 434.1 352.7 435.5 344.7C435.9 342.7 436.6 341 437.1 341C439.1 341 451.7 346.2 460 350.6C470.5 356 476.7 362.3 480.3 371C482.4 376.2 482.5 378.1 482.8 409.2L483.1 442H416.7H350.3L354.6 437.3C370 420.5 373.3 395.6 362.9 374.3C359.7 367.6 352.2 358.8 346.6 354.9C344.6 353.6 343 352.2 343 351.9C343 350.9 365 341.1 367.6 341C368.3 341 369.1 342.7 369.5 344.7ZM325 359.2C339.6 363.7 350.6 374.9 354.5 389.5C358.7 405 352.5 423.3 339.6 433C331.4 439.2 283 462 275.4 463.3C267.8 464.6 258.9 463.4 251.4 460L246.5 457.8L250.9 455.6C254.8 453.5 255.6 453.5 258.9 454.6C263.6 456.3 272.6 456.3 278.1 454.7C286.7 452 332.1 429.6 336.4 425.8C338.8 423.8 342.2 419.3 344.1 415.8C347.3 409.9 347.5 408.9 347.5 400C347.5 388.1 345.2 382.3 337.5 375.1C331.6 369.5 327.1 367.3 318.6 365.9C309.4 364.4 304 366.1 276.2 379.4C256.3 388.9 249.6 392.5 245.4 396.3C238.7 402.4 235.1 409.8 234.3 419C233.8 425.4 233.6 425.8 230.5 427.3C227.5 428.7 227.1 428.7 226.6 427.4C224.8 422.7 227.1 409.6 231.1 401.8C232.3 399.5 235.5 395.2 238.3 392.3C242.8 387.6 246 385.6 264.9 376.4C293.2 362.5 301.3 359 306.9 358C312.1 357.1 319.7 357.6 325 359.2ZM253.8 360.9C256.6 362.2 259 363.6 259 364C259 364.4 257.2 365.5 255.1 366.5C251.8 368 250.6 368 247.5 367C245.2 366.2 240.6 365.9 235.6 366.2C227.6 366.6 227.2 366.8 200.6 379.6C177.1 390.8 172.9 393.2 168.4 397.7C154.9 411.1 155.2 433.5 169.2 446.6C176.7 453.6 181.7 455.5 193 455.5H202.5L217.5 448.4C251 432.4 258.3 428.5 262.6 424.3C268.6 418.2 271.4 412 271.8 403.4C272.2 396.4 272.3 396.2 275.6 394.6C277.5 393.7 279.3 393 279.7 393C280 393 280.1 396.9 279.8 401.8C279.3 412.7 275.6 421.4 267.9 429.5C263.4 434.3 260.2 436.2 243.1 444.6C202.8 464.3 205 463.5 193 463.5C183.3 463.5 182 463.3 175.9 460.4C160.2 453 151 438.7 150.9 421.9C150.8 409.3 155.1 399.8 164.8 390.9C169.7 386.4 174.8 383.5 196.6 373.1C210.8 366.2 224.3 360.1 226.5 359.3C232.8 357.3 247.3 358.1 253.8 360.9ZM308.2 402.8L307.9 426L300.7 429.7C296.7 431.7 289.3 435.2 284.2 437.6L274.8 442L279.7 436.6C285.3 430.5 290.3 421 292 412.9C292.8 409.4 293.1 403.1 292.8 396.8L292.3 386.3L300.4 382.7C304.9 380.8 308.5 379.2 308.5 379.3C308.5 379.4 308.4 390 308.2 402.8ZM226.7 385.1C220.6 392.1 217.3 398.3 215 407.6C212.9 415.7 212.5 423.6 213.9 430.6L214.7 434.7L209.3 437.4L204 440V416.4V392.9L217.3 386.5C224.5 382.9 230.6 380 230.8 380C231 380 229.1 382.3 226.7 385.1ZM327.6 384.2C335 390.7 336.8 399.6 332.6 408.6C330.6 413 324.8 419 322.7 419C322.3 419 322 410.4 322 400C322 388.5 322.4 381 323 381C323.5 381 325.6 382.5 327.6 384.2ZM190 421.5C190 433.3 189.8 443 189.5 443C187.6 443 181.1 439.5 178.7 437.2C173.7 432.5 171.7 427.5 172.2 420.4C172.7 412.4 176 407.2 183.3 403C186.1 401.4 188.8 400 189.3 400C189.7 400 190 409.7 190 421.5ZM257.4 408.5C255.6 412.3 250.5 418 248.9 418C246.2 418 250.1 410 254.8 405.9C258.9 402.3 259.9 403.3 257.4 408.5Z" fill="#137AB6"/>
</svg>
