<svg width="512" height="512" viewBox="0 0 512 512" fill="none" xmlns="http://www.w3.org/2000/svg">
<g clip-path="url(#clip0_363_3861)">
<path d="M109.3 2.1C104.4 4.5 99.4 9.8 97.4 14.6C96.2 17.4 96 42.6 96 165.7V313.5H104H112V169.2C112 8.7 111.5 19.1 118.7 17.1C124 15.6 388 15.6 393.3 17.1C400.5 19.1 400 8.39999 400 171.5V318H403.8C405.8 318.1 409.3 318.7 411.5 319.5C413.7 320.3 415.6 321 415.8 321C415.9 321 415.9 252.2 415.8 168.1L415.5 15.2L412.5 10.9C410.8 8.5 407.5 5.2 405.1 3.5L400.8 0.5L257.2 0.2L113.5 0L109.3 2.1Z" fill="#137AB6"/>
<path d="M241.495 53.9C236.695 56 231.695 61.5 229.895 66.4L228.595 69.9L225.595 68.3C221.195 66 211.495 66.2 205.995 68.7C200.195 71.3 189.695 82.2 187.995 87.5C186.195 92.7 186.295 100.6 188.295 105.1L189.795 108.7L186.295 109.9C181.495 111.7 175.995 116.8 173.895 121.5C171.295 127.2 171.295 144.8 173.895 150.5C175.995 155.2 181.495 160.3 186.295 162.1L189.795 163.3L188.295 166.9C186.295 171.4 186.195 179.3 187.995 184.5C189.695 189.8 200.195 200.7 205.995 203.3C211.495 205.8 221.195 206 225.595 203.7L228.595 202.1L229.895 205.6C231.695 210.5 236.695 216 241.495 218.1C247.195 220.7 264.795 220.7 270.495 218.1C275.295 216 280.295 210.5 282.095 205.6L283.395 202.1L286.395 203.7C290.795 206 300.495 205.8 305.995 203.3C308.495 202.2 313.195 198.5 316.695 194.8C321.495 189.7 323.195 187.1 324.495 182.6C326.295 176.6 325.895 170.7 323.395 165.9C322.195 163.5 322.295 163.3 325.595 162.1C330.495 160.3 335.995 155.3 338.095 150.5C339.495 147.4 339.995 144 339.995 136C339.995 128 339.495 124.6 338.095 121.5C335.995 116.7 330.495 111.7 325.595 109.9C322.295 108.7 322.195 108.5 323.395 106.1C325.895 101.3 326.295 95.4 324.495 89.4C323.195 84.9 321.495 82.3 316.695 77.2C313.195 73.5 308.495 69.8 305.995 68.7C300.495 66.2 290.795 66 286.395 68.3L283.395 69.9L282.095 66.4C280.295 61.5 275.295 56 270.495 53.9C267.395 52.5 263.995 52 255.995 52C247.995 52 244.595 52.5 241.495 53.9ZM261.895 69.1C265.795 70.5 266.995 72.6 266.995 78.2C266.995 80.6 267.395 83 267.795 83.6C268.195 84.2 271.995 86.2 276.195 87.9C284.195 91.3 285.895 91.2 288.995 87.5C289.695 86.6 291.595 85.2 293.195 84.4C295.595 83.1 296.395 83.1 298.795 84.4C301.895 86 306.195 90.4 307.895 93.7C309.295 96.4 308.395 98.6 303.795 103.9C302.095 105.8 301.095 108 301.295 108.9C302.795 113.6 307.395 123.6 308.395 124.2C308.995 124.6 311.595 125 314.295 125C319.895 125 322.595 127.1 323.595 132.4C325.195 141.5 321.695 147 314.295 147C311.595 147 308.995 147.4 308.395 147.8C307.795 148.2 305.795 152 304.095 156.2C300.695 164.2 300.795 165.9 304.495 169C307.595 171.6 309.195 175.8 307.895 178.3C306.195 181.6 301.895 186 298.795 187.6C296.395 188.9 295.595 188.9 293.195 187.6C291.595 186.8 289.695 185.4 288.995 184.5C285.895 180.8 284.195 180.7 276.195 184.1C271.995 185.8 268.195 187.8 267.795 188.4C267.395 189 266.995 191.6 266.995 194.2C266.995 201.7 261.495 205.2 252.395 203.6C247.095 202.6 244.995 199.9 244.995 194.2C244.995 191.6 244.595 189 244.195 188.4C243.795 187.8 239.995 185.8 235.795 184.1C227.795 180.7 226.095 180.8 222.995 184.5C222.295 185.4 220.395 186.8 218.795 187.6C216.395 188.9 215.595 188.9 213.295 187.6C210.095 186 205.795 181.6 204.095 178.3C202.795 175.8 204.395 171.6 207.495 169C211.195 165.9 211.295 164.2 207.895 156.2C206.195 152 204.195 148.2 203.595 147.8C202.995 147.4 200.395 147 197.795 147C190.295 147 186.795 141.5 188.395 132.4C189.395 127.1 192.095 125 197.795 125C200.395 125 202.995 124.6 203.595 124.2C204.195 123.8 206.195 120 207.895 115.8C211.295 107.8 211.195 106.1 207.495 103C206.595 102.3 205.195 100.4 204.395 98.8C203.095 96.4 203.095 95.6 204.395 93.2C206.295 89.6 210.795 85.4 214.195 84.1C216.895 83.1 216.695 83 225.695 89.6C227.795 91.1 228.395 91 235.695 88C239.995 86.2 243.795 84.2 244.195 83.6C244.595 83 244.995 80.6 244.995 78.3C244.995 72.6 245.795 71 249.395 69.4C253.195 67.8 257.695 67.6 261.895 69.1Z" fill="#137AB6"/>
<path d="M242.2 109.1C231.4 114.4 226 123.5 226 136C226 148.5 231.4 157.6 242.2 162.9C247.4 165.6 249.4 166 256 166C262.6 166 264.6 165.6 269.8 162.9C280.6 157.6 286 148.6 286 135.9C286 118.2 273.7 106 255.9 106C249.4 106 247.4 106.4 242.2 109.1ZM265.1 126.9C268.6 130.4 269 131.3 269 136C269 140.7 268.6 141.6 265.1 145.1C261.6 148.6 260.7 149 256 149C251.3 149 250.4 148.6 246.9 145.1C243.4 141.6 243 140.7 243 136C243 131.3 243.4 130.4 246.9 126.9C250.4 123.4 251.3 123 256 123C260.7 123 261.6 123.4 265.1 126.9Z" fill="#137AB6"/>
<path d="M138 94C136.6 95.4 136 97.3 136 100.1C136 103.6 136.6 104.9 139.9 108.1C143.1 111.4 144.4 112 147.9 112C153.4 112 156 109.4 156 103.9C156 100.4 155.4 99.1 152.1 95.9C148.9 92.6 147.6 92 144.1 92C141.3 92 139.4 92.6 138 94Z" fill="#137AB6"/>
<path d="M359.9 95.9C356.6 99.1 356 100.4 356 103.9C356 106.7 356.6 108.6 358 110C359.4 111.4 361.3 112 364.1 112C367.6 112 368.9 111.4 372.1 108.1C375.4 104.9 376 103.6 376 100.1C376 97.3 375.4 95.4 374 94C372.6 92.6 370.7 92 367.9 92C364.4 92 363.1 92.6 359.9 95.9Z" fill="#137AB6"/>
<path d="M134 130C132.7 131.3 132 133.3 132 136C132 142.4 134.4 144 144 144C153.6 144 156 142.4 156 136C156 129.6 153.6 128 144 128C137.3 128 135.7 128.3 134 130Z" fill="#137AB6"/>
<path d="M358 130C356.7 131.3 356 133.3 356 136C356 142.4 358.4 144 368 144C377.6 144 380 142.4 380 136C380 129.6 377.6 128 368 128C361.3 128 359.7 128.3 358 130Z" fill="#137AB6"/>
<path d="M139.9 163.9C136.6 167.1 136 168.4 136 171.9C136 174.7 136.6 176.6 138 178C139.4 179.4 141.3 180 144.1 180C147.6 180 148.9 179.4 152.1 176.1C155.4 172.9 156 171.6 156 168.1C156 165.3 155.4 163.4 154 162C152.6 160.6 150.7 160 147.9 160C144.4 160 143.1 160.6 139.9 163.9Z" fill="#137AB6"/>
<path d="M358 162C356.6 163.4 356 165.3 356 168.1C356 171.6 356.6 172.9 359.9 176.1C363.1 179.4 364.4 180 367.9 180C370.7 180 372.6 179.4 374 178C375.4 176.6 376 174.7 376 171.9C376 168.4 375.4 167.1 372.1 163.9C368.9 160.6 367.6 160 364.1 160C361.3 160 359.4 160.6 358 162Z" fill="#137AB6"/>
<path d="M185.2 242.3C183.8 243.8 183 245.9 183 248.2C183 251.3 184.1 252.7 193.3 261.7C204.7 272.8 207.3 274 219.5 274H226.1L234.6 266.2C239.2 262 243 258.2 243 257.7C243 257.3 236.3 257 228.1 257H213.1L204.2 248.5C196.1 240.8 194.9 240 191.3 240C188.5 240 186.7 240.7 185.2 242.3Z" fill="#137AB6"/>
<path d="M304.305 255.3L295.505 263.6L287.005 262.9C273.205 261.7 264.205 261.9 260.605 263.4C255.605 265.5 211.505 308.4 209.705 312.9C207.005 319.5 200.705 356.1 201.405 361C202.505 368.7 208.605 375.2 216.705 377.1C220.605 378 233.805 376.8 239.605 374.9C247.105 372.6 255.705 359.7 259.105 345.9L261.205 337.5L274.805 324.4C288.205 311.6 288.505 311.3 288.505 307.1C288.505 301.7 285.605 299 279.905 299C276.205 299 275.105 299.8 260.105 314.5L244.305 330L243.705 336.2C243.005 343.9 236.805 356.9 233.005 358.6C229.205 360.4 221.305 360.9 219.505 359.6C218.005 358.6 218.205 356.6 221.305 339.5L224.805 320.5L246.105 299.7L267.505 278.9L280.005 279.6C302.405 281 303.205 280.8 315.705 268.6C324.405 260.1 325.005 259.3 325.005 255.4C325.005 250.1 321.905 247 316.705 247C313.505 247 312.005 248 304.305 255.3Z" fill="#137AB6"/>
<path d="M302.1 315.3C301.4 317.2 299.4 320.5 297.6 322.7L294.2 326.6L329.8 361C349.4 379.9 366.4 396.8 367.5 398.6C369.4 401.7 369.4 402 367.8 405.3C365.8 409.6 360.8 411.6 356.6 410C355.1 409.5 341.1 396.6 325.5 381.5C305.9 362.4 296.4 354 294.8 353.9C287.7 353.5 284.5 356 284.5 362C284.5 365.9 285.1 366.5 305.5 386.2C344.1 423.3 343 422.2 343 426.3C343 432.3 337.3 436.3 331.6 434.3C330.2 433.9 316.2 421.1 300.5 406C284.7 390.9 270.7 378.2 269.4 377.8C266.2 377 261.3 378.7 260 381C259.4 382 259 384.4 259 386.3C259 389.6 260.9 391.7 286 416.1C300.9 430.6 313.3 443.4 313.6 444.6C315 450 310.7 455 304.7 455C301.2 455 300 454.2 290.2 444.7C236.9 393.2 240 396 235.8 396C230.8 396 227 399.5 227 404.2C227 407.2 229.3 409.8 253 433L279 458.5V463.1C279 466.2 278.3 468.6 277 470.3C275.7 472 275 474.3 275 477.4C275 479.9 274.3 484 273.4 486.6C272.6 489.1 272.1 491.4 272.4 491.7C273.5 492.8 283 488.7 286.8 485.4C289 483.5 292.1 479.5 293.5 476.6L296.1 471.3L303.1 471.8C314.9 472.6 324.5 467.2 328.8 457.1L330.9 452.3L336.8 451.8C343.6 451.1 349.2 448.5 353.7 443.8C357.2 440.1 360 434.4 360 430.6C360 428.5 360.7 428 365 427.1C371.5 425.7 374.7 424 378.6 419.8C383.9 414.3 385.4 410.3 385.5 402.5C385.5 390.8 385.3 390.5 343.2 349.9C322.5 329.8 305 313.1 304.3 312.7C303.6 312.2 302.8 313.2 302.1 315.3Z" fill="#137AB6"/>
<path d="M98 330C96.7 331.3 96 333.3 96 336C96 340.4 96 340.4 110.2 354L118.9 362.3L123.7 359.2C126.3 357.5 129.7 355.8 131.3 355.5C132.8 355.1 134.2 354.4 134.5 354C134.7 353.6 128.9 347.6 121.5 340.6C108.9 328.8 107.8 328 104 328C101.3 328 99.3 328.7 98 330Z" fill="#137AB6"/>
<path d="M390.2 342.9C384.3 348.3 378.2 354.2 376.5 356L373.5 359.1L379.5 364.5C382.8 367.5 385.9 369.9 386.3 370C386.8 370 392.8 364.5 399.6 357.8C411.6 346 412 345.5 412 341.4C412 338 411.5 336.7 409.4 335.1C404.3 331.1 401.9 332.1 390.2 342.9Z" fill="#137AB6"/>
<path d="M136.799 369C129.799 371.1 113.499 386.5 109.899 394.4C107.299 400.2 107.299 412 109.999 417.5C114.099 426 122.299 431.9 131.199 432.8L135.899 433.2L136.999 438.3C139.499 450 149.299 458.6 161.999 460.2C163.999 460.4 164.599 461.2 165.199 464.7C166.099 470.2 168.199 474.2 172.599 478.4C177.299 482.9 182.299 485.3 188.699 485.8L193.899 486.2L194.799 490.5C196.799 499.8 204.099 508.2 212.699 511.1C214.799 511.8 219.499 512.1 223.999 511.8C233.599 511.2 238.499 508.4 248.999 497.3C258.399 487.5 260.299 483.1 259.799 473.1C259.399 464.4 257.499 459.9 252.299 454.7C247.699 450.1 242.699 447.7 236.199 447.2C231.499 446.8 230.899 446.5 230.399 444.1C227.399 430.7 219.399 422.6 207.699 421.1C202.599 420.5 202.599 420.5 201.799 416.3C199.899 405 190.299 396 178.499 394.3C174.299 393.8 173.999 393.5 173.399 390.1C171.899 381.7 166.299 374.3 158.799 370.6C154.599 368.5 152.199 368 146.599 368.1C142.699 368.1 138.299 368.5 136.799 369ZM152.799 387.5C159.399 393 157.699 399.4 146.899 409.4C139.499 416.3 136.199 417.5 131.399 415.5C127.199 413.8 124.999 410.4 124.999 405.6C124.999 402 125.699 400.9 133.299 393.3C140.999 385.6 141.899 385 145.699 385C148.699 385 150.699 385.7 152.799 387.5ZM182.299 415C184.299 417.3 184.999 419.1 184.999 422.1C184.999 425.8 184.299 426.9 178.299 433.2C168.699 443.1 165.099 444.7 158.899 441.4C154.799 439.3 152.499 433.9 153.999 429.6C155.099 426 167.199 413.6 170.999 412.1C174.799 410.5 179.199 411.7 182.299 415ZM208.899 439.6C210.199 440.5 211.799 442.8 212.599 444.6C214.599 449.5 212.799 453 203.699 461.7C196.999 468.3 195.799 469 192.199 469C185.099 469 179.999 462.3 182.199 455.9C182.699 454.4 186.599 449.8 190.899 445.6C197.999 438.8 199.199 438 202.699 438C204.799 438 207.599 438.7 208.899 439.6ZM240.099 466.9C242.399 469.2 242.999 470.7 242.999 474.1C242.999 478.1 242.499 478.9 234.699 486.7C226.999 494.4 226.099 495 222.299 495C217.299 495 212.499 491.4 211.499 487C210.499 482.5 213.399 477.7 221.699 470.5C228.199 464.8 229.599 464 233.099 464C236.199 464 237.799 464.7 240.099 466.9Z" fill="#137AB6"/>
</g>
<defs>
<clipPath id="clip0_363_3861">
<rect width="512" height="512" fill="white"/>
</clipPath>
</defs>
</svg>
