<svg width="512" height="512" viewBox="0 0 512 512" fill="none" xmlns="http://www.w3.org/2000/svg">
<path d="M42 10C40.2 11.8 40 13.3 40 26V40H26C13.3 40 11.8 40.2 10 42C8 44 8 45.3 8 272C8 498.7 8 500 10 502C12 504 13.3 504 177.3 504C336 504 342.7 503.9 346.5 502.1C348.7 501.1 351.8 498.9 353.4 497.2C355.8 494.6 356.6 494.3 358.7 495.1C360 495.6 364.1 496 367.8 496C375.5 496 381 493.8 385.4 489.2C387.8 486.6 388.6 486.3 390.7 487.1C394.9 488.7 406.1 488.1 410.5 486.1C414.8 484.2 421.4 477.6 422.5 474.1C423 472.5 424 472 426.4 472C428.2 472 431.8 470.9 434.5 469.5L439.4 467.1L441.6 469.5L443.9 472H472C498.7 472 500.1 471.9 502 470C504 468 504 466.7 504 392C504 317.3 504 316 502 314C500.1 312.1 498.7 312 472.2 312C440.7 312 441 311.9 440.1 319.2L439.5 323.7L415.8 315.1L392 306.5V159.2C392 13.3 392 12 390 10C388 8 386.7 8 216 8C45.3 8 44 8 42 10ZM376 162.1C376 293.2 375.9 300.2 374.3 299.7C373.3 299.4 370.3 298.7 367.5 298C364.8 297.3 361.9 296.6 361.3 296.4C360.3 296.1 360 277.2 360 205.8V115.5L322.2 77.8L284.5 40H170.2H56V32V24H216H376V162.1ZM272 90C272 122.7 272.1 124.1 274 126C275.9 127.9 277.3 128 310 128H344V212V296L341.3 296.5C335.8 297.7 326.4 301.3 322.6 303.8C320.4 305.1 308.6 313.8 296.3 323L274 339.8L269.2 338.6L264.5 337.4L264 326.1C263.6 316.4 263.2 314.6 261.6 313.4C260 312.3 254.2 312 231.8 312C205.3 312 203.9 312.1 202 314C200.1 315.9 200 317.3 200 346V376H140H80V384V392H140H200V430C200 466.7 200.1 468.1 202 470C203.9 471.9 205.3 472 232 472C266.2 472 264 473 264 458C264 449.1 264.2 448 265.8 448C266.7 448 276.5 457 287.5 468L307.5 488H165.7H24V272V56H148H272V90ZM310 90.5L331.5 112H309.7H288V90.5C288 78.7 288.1 69 288.3 69C288.4 69 298.2 78.7 310 90.5ZM399.4 327.4C420.2 335 437.9 341.4 438.6 341.7C439.8 342.1 440 349.9 440 384.9V427.5L395 382.5L350 337.5L343.8 343.7L337.6 349.9L339.8 352.2L341.9 354.6L338.3 357.5C324.1 369 320.9 371.3 316.1 373.1C304.6 377.4 290.6 374.8 284 367.3C280.5 363.4 280 358.4 282.8 355.2C284.8 352.9 327.6 320.8 332.6 317.8C338.7 314.2 344.1 313 353 313.3C361.1 313.6 363.1 314.2 399.4 327.4ZM248 392V456H232H216V392V328H232H248V392ZM488 392V456H472H456V392V328H472H488V392ZM392.7 405.2C428.8 441.3 431 443.7 431 447.1C431 451.1 428.2 454.3 423.8 455.4C421.2 456 420.6 455.4 414 445.5C409.4 438.6 406.5 435.2 405.7 435.6C402.1 437.8 393 444.1 393 444.6C393 444.8 396.2 449.8 400 455.5C405.8 464.1 406.9 466.4 406.1 467.9C404.1 471.6 397.7 472.1 393.6 468.9C392.1 467.7 387.3 461.4 382.9 454.8C377.7 447 374.5 443.2 373.7 443.6C370.1 445.8 361 452.1 361 452.6C361 452.8 364.2 457.8 368 463.5C373.8 472.1 374.9 474.4 374.1 475.9C372.1 479.6 365.7 480.1 361.6 476.9C360.1 475.7 355.3 469.4 350.9 462.8C345.7 455 342.5 451.2 341.7 451.6C338.1 453.8 329 460.1 329 460.6C329 460.8 332.2 465.8 336 471.5C341.8 480.1 342.9 482.4 342.1 483.9C340.8 486.2 338.9 487 334.7 487C332 487 328.3 483.7 304 459.5L276.4 432H270.2H264V399.7C264.1 370.2 264.2 367.8 265.6 371C268 376.5 271.5 380.5 277.6 384.5C285.5 389.8 293.3 392 303.9 392C319 392 329.1 387.8 344 375.2C349.2 370.8 353.7 367.1 354 367.1C354.3 367 371.7 384.2 392.7 405.2Z" fill="#137AB6"/>
<path d="M72 92.3C72 95.9 71.6 96.9 69.6 97.8C65.4 99.7 59.7 105.4 57.9 109.5C55.4 114.8 55.4 125.2 57.9 130.5C61.4 138.3 68.3 142.8 79.3 144.5C84.1 145.3 87 148.1 87 152C87 155.8 83.8 159 80 159C76.8 159 73 156 73 153.5C73 152.3 71.4 152 64.5 152H56V155.2C56.1 162 62.5 171 69.6 174.2C71.6 175.1 72 176.1 72 179.7V184H80H88L88.1 179.7C88.1 175.8 88.4 175.3 92.8 172.5C100.1 167.8 103.4 162.3 103.8 153.9C104.3 144.9 102.3 139.5 96.5 134.1C92.3 130.3 88.7 128.7 80.7 127.5C75.9 126.7 73 123.9 73 120C73 116.2 76.2 113 80 113C83.2 113 87 116 87 118.5C87 119.7 88.6 120 95.5 120H104V116.7C103.9 110 97.5 101 90.4 97.8C88.4 96.9 88 95.9 88 92.3V88H80H72V92.3Z" fill="#137AB6"/>
<path d="M136 96V104H176H216V96V88H176H136V96Z" fill="#137AB6"/>
<path d="M136 128V136H192H248V128V120H192H136V128Z" fill="#137AB6"/>
<path d="M136 160V168H232H328V160V152H232H136V160Z" fill="#137AB6"/>
<path d="M138 186C136.1 187.9 136 189.3 136 208C136 226.7 136.1 228.1 138 230C140 232 141.3 232 232 232C322.7 232 324 232 326 230C327.9 228.1 328 226.7 328 208C328 189.3 327.9 187.9 326 186C324 184 322.7 184 232 184C141.3 184 140 184 138 186ZM312 208V216H232H152V208V200H232H312V208Z" fill="#137AB6"/>
<path d="M40 256V264H104H168V256V248H104H40V256Z" fill="#137AB6"/>
<path d="M40 288V296H92H144V288V280H92H40V288Z" fill="#137AB6"/>
<path d="M40 320V328H112H184V320V312H112H40V320Z" fill="#137AB6"/>
<path d="M40 352V360H104H168V352V344H104H40V352Z" fill="#137AB6"/>
<path d="M53.5 417.9C51.3 418.9 48.1 421.3 46.3 423.1C40.6 429.2 40 431.9 40 453V472H48H56V456.5C56 439 57.1 434.5 61.4 433.4C62.8 433.1 65.2 433.1 66.6 433.4C70.8 434.5 72 439.1 72 454.5C72 466.7 72.2 468.2 74 470C75.3 471.3 77.3 472 80.1 472C83.7 472 84.9 471.3 90.1 466.3L96 460.7V464.3C96 472.6 101.9 473.9 116.7 468.9L125.8 465.9L131.2 468.7C135.9 471.1 137.8 471.5 148.3 471.8L160 472.2V464.1V456H154.5C146.3 456 139.5 454.2 135.4 450.9C130.9 447.4 126.8 447.2 118.5 450C115.3 451.1 112.5 452 112.3 452C112.2 452 112 448.4 112 444C112 434.3 110.4 432 103.9 432C100.3 432 99.1 432.7 93.9 437.7L88 443.3V438.4C87.9 429.6 82.1 421 73.8 417.6C68.6 415.4 58.5 415.6 53.5 417.9Z" fill="#137AB6"/>
</svg>
