<svg width="512" height="512" viewBox="0 0 512 512" fill="none" xmlns="http://www.w3.org/2000/svg">
<path d="M101 27.1002C96.2 29.1002 91.7 33.3002 89.4 38.4002C87.1 43.4002 87 44.2002 87 70.2002V97.0002H67.2C45.6 97.0002 43 97.6002 43 102.6C43 104.1 48.4 113.2 56.9 125.8L70.7 146.6L56.9 168C48 181.8 43.1 190.5 43 192.2C43 197.4 45.4 198 67.2 198H87V333.3V468.6L89.8 474.1C91.6 477.6 94 480.5 96.8 482.5L101.2 485.5H256H410.8L415.2 482.5C418 480.5 420.4 477.6 422.3 474.1L425 468.6V333.3V198H444.8C466.6 198 469 197.4 469 192.2C468.9 190.5 464 181.8 455.1 168L441.2 146.6L455.1 125.9C463.8 112.9 469 104.2 469 102.6C469 97.6002 466.5 97.0002 444.8 97.0002H425V70.2002V43.4002L422.3 37.9002C420.4 34.4002 418 31.5002 415.2 29.5002L410.8 26.5002L257.2 26.3002C157.5 26.2002 102.6 26.5002 101 27.1002ZM408.1 39.3002C413.4 42.8002 413.9 45.7002 413.9 72.7002L414 97.0002H398.5H383V79.3002C383 64.3002 382.8 61.4002 381.3 59.8002C379.8 58.1002 374.6 58.0002 256.2 58.0002C142.6 58.0002 132.5 58.1002 130.8 59.7002C129.2 61.1002 129 63.1002 129 79.2002V97.0002H113.5H98L98.1 72.7002C98.1 45.7002 98.6 42.8002 103.9 39.3002L107.3 37.0002H256H404.7L408.1 39.3002ZM371 108.5V147H256H141V108.5V70.0002H256H371V108.5ZM129 131.7C129 151.4 129.2 154.6 130.7 156.2C132.1 157.8 134 158 144.7 158H157V172V186H108.4C81.7 186 60 185.6 60.2 185.2C60.4 184.7 65.6 176.5 71.8 166.8C78.9 155.7 83 148.3 83 146.6C83 144.9 79.2 138.2 72.2 127.7C66.2 118.8 61 110.9 60.6 110.2C60 109.3 67.1 109 94.4 109H129V131.7ZM451.4 110.2C451 110.9 445.8 118.8 439.8 127.7C432.8 138.3 429 144.9 429 146.6C429 148.4 433.1 155.7 440.5 167.2C446.8 177 452 185.3 452 185.5C452 185.8 430.2 186 403.5 186H355V172V158H367.2C377.1 158 379.7 157.7 381.2 156.3C382.8 154.8 383 152.7 383 131.8V109H417.6C444.9 109 452 109.3 451.4 110.2ZM343 176C343 192.7 343.1 194.1 345 196C346.9 197.9 348.3 198 380.5 198H414L413.9 330.7C413.9 430.9 413.6 464.4 412.7 467C412 468.9 410 471.4 408.1 472.7L404.7 475H256H107.3L103.9 472.7C102 471.4 100 468.9 99.3 467C98.4 464.4 98.1 430.9 98.1 330.7L98 198H131.5C163.7 198 165.1 197.9 167 196C168.9 194.1 169 192.7 169 176V158H256H343V176Z" fill="#137AB6"/>
<path d="M185.799 80.7003C184.799 80.9003 182.399 83.9003 180.399 87.3003C178.299 90.7003 176.599 93.6003 176.399 93.8003C176.299 94.0003 172.999 95.0003 169.099 96.0003C165.099 97.0003 161.299 98.4003 160.499 99.0003C157.699 101.3 158.799 105.3 163.999 111.3L168.899 117.1L168.299 124.8C167.399 136.6 170.099 138.3 181.999 133.4L188.299 130.9L194.199 133.4C201.099 136.4 204.199 136.6 206.599 134.3C207.999 132.9 208.199 131.3 207.699 124.9L207.199 117.2L212.099 111.4C217.099 105.3 218.299 101.3 215.499 99.0003C214.699 98.4003 210.899 97.0003 206.899 96.0003C202.999 95.0003 199.699 94.0003 199.599 93.8003C199.399 93.6003 197.699 90.7003 195.599 87.2003C193.499 83.8003 191.499 81.0003 190.999 81.0003C190.499 81.0003 189.599 80.8003 188.799 80.6003C188.099 80.4003 186.699 80.4003 185.799 80.7003ZM190.799 101.5C192.499 104.2 193.899 105.1 197.099 105.6L201.099 106.3L198.299 109.2C196.099 111.6 195.599 112.9 195.799 116.6C195.999 120.9 195.799 121.1 193.699 120.3C192.499 119.9 189.899 119.5 187.999 119.5C186.099 119.5 183.499 119.9 182.299 120.3C180.199 121.1 179.999 120.9 180.199 116.6C180.399 112.8 179.999 111.5 177.699 109.3L174.999 106.5L179.199 105.5C182.299 104.8 183.999 103.6 185.499 101.3C186.599 99.5003 187.699 98.1003 187.999 98.1003C188.299 98.0003 189.499 99.6003 190.799 101.5Z" fill="#137AB6"/>
<path d="M253.795 80.7003C252.795 80.9003 250.395 83.9003 248.395 87.3003C246.295 90.7003 244.595 93.6003 244.395 93.8003C244.295 94.0003 240.995 95.0003 237.095 96.0003C233.095 97.0003 229.295 98.4003 228.495 99.0003C225.695 101.3 226.795 105.3 231.895 111.2L236.795 116.9L236.295 124.8C235.795 131.3 235.995 132.9 237.395 134.3C239.795 136.7 242.895 136.4 249.895 133.4L255.995 130.7L262.095 133.4C269.095 136.4 272.195 136.7 274.595 134.3C275.995 132.9 276.195 131.3 275.695 124.8L275.195 116.9L280.095 111.2C285.195 105.3 286.295 101.3 283.495 99.0003C282.695 98.4003 278.895 97.0003 274.895 96.0003C270.995 95.0003 267.695 94.0003 267.595 93.8003C267.395 93.6003 265.695 90.7003 263.595 87.2003C261.495 83.8003 259.495 81.0003 258.995 81.0003C258.495 81.0003 257.595 80.8003 256.795 80.6003C256.095 80.4003 254.695 80.4003 253.795 80.7003ZM258.495 101.3C259.995 103.6 261.695 104.8 264.795 105.5L268.995 106.5L266.295 109.3C263.995 111.5 263.595 112.8 263.795 116.6C263.995 120.9 263.795 121.1 261.695 120.3C260.495 119.9 257.895 119.5 255.995 119.5C254.095 119.5 251.495 119.9 250.295 120.3C248.195 121.1 247.995 120.9 248.195 116.6C248.395 112.8 247.995 111.5 245.695 109.3L242.995 106.5L247.195 105.5C250.295 104.8 251.995 103.6 253.495 101.3C254.595 99.5003 255.695 98.1003 255.995 98.1003C256.295 98.1003 257.395 99.5003 258.495 101.3Z" fill="#137AB6"/>
<path d="M321.794 80.7003C320.794 80.9003 318.394 83.9003 316.394 87.3003C314.294 90.7003 312.594 93.6003 312.394 93.8003C312.294 94.0003 308.994 95.0003 305.094 96.0003C301.094 97.0003 297.294 98.4003 296.494 99.0003C293.694 101.3 294.894 105.3 299.894 111.4L304.794 117.2L304.294 124.9C303.794 131.3 303.994 132.9 305.394 134.3C307.794 136.6 310.894 136.4 317.794 133.4L323.694 130.9L329.994 133.4C341.894 138.3 344.594 136.6 343.694 124.8L343.094 117.1L347.994 111.3C353.194 105.3 354.294 101.3 351.494 99.0003C350.694 98.4003 346.894 97.0003 342.894 96.0003C338.994 95.0003 335.694 94.0003 335.594 93.8003C335.394 93.6003 333.694 90.7003 331.594 87.2003C329.494 83.8003 327.494 81.0003 326.994 81.0003C326.494 81.0003 325.594 80.8003 324.794 80.6003C324.094 80.4003 322.694 80.4003 321.794 80.7003ZM326.494 101.3C327.994 103.6 329.694 104.8 332.794 105.5L336.994 106.5L334.294 109.3C331.994 111.5 331.594 112.8 331.794 116.6C331.994 120.9 331.794 121.1 329.694 120.3C328.494 119.9 325.894 119.5 323.994 119.5C322.094 119.5 319.494 119.9 318.294 120.3C316.194 121.1 315.994 120.9 316.194 116.6C316.394 112.8 315.994 111.6 313.594 109.1L310.794 106.2L314.994 105.5C318.194 105 319.594 104.1 321.294 101.4C322.494 99.6003 323.694 98.0003 323.994 98.1003C324.294 98.1003 325.394 99.5003 326.494 101.3Z" fill="#137AB6"/>
<path d="M188.995 179.3C185.795 180.9 184.895 186.7 187.595 188.7C190.195 190.6 321.795 190.6 324.395 188.7C327.095 186.7 326.195 180.9 322.995 179.3C321.095 178.3 305.795 178 255.995 178C206.195 178 190.895 178.3 188.995 179.3Z" fill="#137AB6"/>
<path d="M130.198 210.2C128.498 211.9 128.698 216.6 130.598 218.4C131.998 219.8 144.698 220 255.998 220C367.298 220 379.998 219.8 381.398 218.4C383.298 216.6 383.498 211.9 381.798 210.2C380.098 208.5 131.898 208.5 130.198 210.2Z" fill="#137AB6"/>
<path d="M130.198 240.2C128.498 241.9 128.698 246.6 130.598 248.4C131.998 249.8 144.698 250 255.998 250C367.298 250 379.998 249.8 381.398 248.4C383.298 246.6 383.498 241.9 381.798 240.2C380.098 238.5 131.898 238.5 130.198 240.2Z" fill="#137AB6"/>
<path d="M130.198 270.2C128.498 271.9 128.698 276.6 130.598 278.4C131.998 279.8 144.698 280 255.998 280C367.298 280 379.998 279.8 381.398 278.4C383.298 276.6 383.498 271.9 381.798 270.2C380.098 268.5 131.898 268.5 130.198 270.2Z" fill="#137AB6"/>
<path d="M253.7 301C241.7 302.5 227.9 307.5 218.5 313.9C215.7 315.8 214 316 193.8 316H172V312.7C172 310.9 171.5 308.9 170.8 308.2C170 307.4 164.1 307 150.9 307C135.2 307 131.9 307.3 130.6 308.6C129.2 310 129 316.1 129 360.9C129 399 129.3 411.9 130.2 412.8C131.9 414.5 169.1 414.5 170.8 412.8C171.5 412.1 172 410.1 172 408.3V405H177.4H182.9L209.5 428.3C239.8 455 241.6 456 252.3 452.8C257.5 451.2 262.7 446 263.6 441.5C264.1 438.6 264.6 438 266.9 438C271.8 438 277.3 433.9 279.9 428.4C282.1 423.9 282.9 423.2 286.8 422.1C292.1 420.7 297.8 415.5 298.6 411.1C299.1 408.8 299.9 407.8 301.9 407.4C310 405.7 315.8 400.1 316.7 393L317.3 389H328.6H340V394.5C340 398.8 340.4 400.1 341.9 401C343.1 401.6 351.4 402 361.9 402C376.9 402 380.1 401.7 381.4 400.4C382.8 399 383 393.3 383 352.6C383 310.7 382.8 306.1 381.3 304.9C380.1 303.9 375.3 303.4 362.6 303.2C341.3 302.9 340.6 303.1 340.2 311.3L339.9 317.1L333.2 316.5C323.1 315.5 315.1 313.5 300.1 308.1C280.7 301.2 268.3 299.3 253.7 301ZM291.1 317.5C311.2 324.6 320.5 327 330.8 327.7L340 328.3V353.2V378H325.3H310.5L294.9 364.2C286.4 356.7 273.9 345.7 267.2 339.7C260.5 333.8 254.1 329 253.1 329C252 329 247.4 332.1 242.8 335.8C227.4 348.5 215.2 355.6 208 356.2C204.7 356.5 204.5 356.3 204.2 353.2C203.5 345.8 213.5 331.8 225.3 323.8C237.8 315.3 250.2 311.9 266.6 312.4C276.7 312.7 278.7 313.1 291.1 317.5ZM372 353V391H361.5H351V353V315H361.5H372V353ZM161 360.5V403H150.5H140V360.5V318H150.5H161V360.5ZM200.6 331.3C192.7 341.6 190 356 194.7 362.6C202.4 373.4 221.5 368.1 246.2 348.3L253 342.9L278.7 365.8C299 383.7 304.5 389.1 304.5 391C304.5 394 300.4 396.6 296.9 395.6C295.6 395.3 288.4 389.6 281 383C273.6 376.4 266.5 370.7 265.3 370.4C260.9 369.2 256.5 374.5 258.7 378.3C259.1 379.1 265.9 385.4 273.8 392.4C281.6 399.4 288 405.4 288 405.8C288 408.3 284.6 411 281.5 411C278 411 276.5 409.8 253.1 389.3C249.3 385.9 244.4 385 242.2 387.2C240.9 388.5 240.6 392.9 241.8 394.6C242.2 395.2 248.7 401.1 256.3 407.9C264.8 415.5 270 420.8 270 422C270 424.3 266.4 427 263.3 427C261.8 427 256.8 423.3 249.3 416.7C232.1 401.8 231.1 401 228.4 401C225.2 401 222.3 405.3 223.6 408.4C224.1 409.7 230.8 416.3 238.4 423.1C246.1 429.9 252.5 436 252.7 436.7C253.4 438.7 249.2 442 246 442C243.5 442 238.8 438.4 218.7 420.7C205.4 409.1 192.8 398 190.7 396.2C187.2 393.2 186.4 393 179.5 393H172V360.5V328H187.6H203.1L200.6 331.3Z" fill="#137AB6"/>
</svg>
