<svg width="512" height="512" viewBox="0 0 512 512" fill="none" xmlns="http://www.w3.org/2000/svg">
<path d="M116.1 10.6L114 13.3V186.4V359.5L71.5 402C40.4 433.1 29 445.2 29 446.8C29 448.1 29.6 450.3 30.4 451.8C31.2 453.3 43 465.6 56.7 479.2C81.6 504 81.6 504 86 504C90.2 504 90.7 503.6 102.2 492.3L114 480.6V489.7C114 497.3 114.3 499.1 116.1 501.4L118.1 504H298C473.5 504 477.8 504 480.1 502.1L482.5 500.2L482.8 296.3C482.9 184.2 482.8 91.5 482.5 90.3C482.2 89.1 462.6 70.3 438.5 48.1L395 8H256.6H118.1L116.1 10.6ZM382 58.4C382 93.7 382.4 98.1 386 100C387.1 100.6 403.4 101 426.9 101H466V294.5V488H298.5H131V475.8V463.5L158 436.5C183.8 410.7 185 409.2 185 405.6C185 402.6 184.2 401 180.5 397.2L176.1 392.5L195.1 373.4L214.2 354.3L222.1 359C244.7 372.7 269.8 378.8 298 377.7C318.2 376.8 332.9 373.3 350.9 364.9C390.1 346.6 419.2 308.1 426.4 265.1C428.5 252.9 428.5 230 426.5 218.4C418.9 174.5 390.7 137.3 350.9 118.6C330.9 109.2 315.2 105.7 292.5 105.6C274.7 105.6 265.2 107 249 112.2C223.4 120.4 199 137.9 182.5 159.8C149.7 203.5 146.5 264.2 174.5 311.6L179.1 319.4L160.1 338.3L141.2 357.3L136.1 352.9L131.1 348.5L131 186.2V24H256.5H382V58.4ZM426.7 60.8C440.1 73.1 451 83.4 451 83.6C451 83.8 439.3 84 425 84H399V59.9C399 37.1 399.1 35.8 400.7 37.1C401.7 37.9 413.4 48.6 426.7 60.8ZM305 123C351.6 128.3 390 159.4 405.2 204C409.3 216.1 411.1 227.6 411.1 242.2C411.1 322.6 332.8 379.7 255.8 355.4C195.5 336.3 160.3 272.6 176.5 211.5C187.6 169.4 220.8 136.6 263 125.9C277.7 122.2 290.3 121.3 305 123ZM182.4 362L164 380.5L158.8 375.2L153.5 370L171.9 351.6L190.3 333.1L195.6 338.3L200.9 343.5L182.4 362ZM125.3 444.2L86 483.5L68 465.5L50 447.5L89.2 408.3L128.5 369L146.5 387L164.5 405L125.3 444.2Z" fill="#137AB6"/>
<path d="M152.494 51.3998C148.894 54.9998 148.994 61.0998 152.594 63.8998C154.894 65.6998 156.694 65.9998 164.694 65.9998C173.294 65.9998 174.294 65.7998 176.494 63.4998C179.594 60.4998 179.794 55.1998 177.094 51.8998C175.394 49.6998 174.294 49.4998 165.094 49.1998C155.494 48.7998 154.994 48.8998 152.494 51.3998Z" fill="#137AB6"/>
<path d="M201.299 49.9999C196.499 51.8999 195.499 59.4999 199.499 63.4999L201.899 65.9999H227.899C253.499 65.9999 253.899 65.9999 256.499 63.6999C260.299 60.4999 260.299 54.4999 256.499 51.2999C253.899 48.9999 253.499 48.9999 228.699 49.0999C214.799 49.0999 202.499 49.4999 201.299 49.9999Z" fill="#137AB6"/>
<path d="M281.299 50.2C278.399 51.6 276.599 56.1 277.499 59.9C278.799 66 278.599 66 320.699 66H358.899L361.499 63.7C365.299 60.5 365.299 54.5 361.499 51.3L358.899 49L321.199 49.1C296.999 49.1 282.699 49.5 281.299 50.2Z" fill="#137AB6"/>
<path d="M223.504 407.3C219.504 410.7 219.404 416.3 223.404 419.6C225.804 421.8 227.104 422 235.604 422C244.304 422 245.304 421.8 247.504 419.5C250.604 416.5 250.804 411.2 248.104 407.9C246.404 405.7 245.304 405.5 236.204 405.2C226.904 404.8 226.204 405 223.504 407.3Z" fill="#137AB6"/>
<path d="M270.6 407.1C268.5 408.7 268 410 268 413.5C268 417 268.5 418.3 270.6 419.9C273.1 421.9 274.5 422 299 422C323.5 422 324.9 421.9 327.4 419.9C331 417.1 331.1 411 327.5 407.5L325.1 405H299.2C274.5 405 273.1 405.1 270.6 407.1Z" fill="#137AB6"/>
<path d="M350.5 407.5C348.8 409.1 348 411 348 413.5C348 416 348.8 417.9 350.5 419.5L352.9 422H391.5H430.1L432.5 419.5C434.2 417.9 435 416 435 413.5C435 411 434.2 409.1 432.5 407.5L430.1 405H391.5H352.9L350.5 407.5Z" fill="#137AB6"/>
<path d="M223.005 448.5C219.605 452.2 219.705 457.5 223.405 460.6C225.805 462.7 227.105 463 234.505 463C239.105 463 244.005 462.5 245.305 461.9C250.305 459.6 251.505 452.4 247.505 448.5C245.305 446.2 244.405 446 235.205 446C226.005 446 225.205 446.2 223.005 448.5Z" fill="#137AB6"/>
<path d="M270.199 448.299C266.899 451.799 267.199 458.199 270.699 460.999C273.299 462.999 274.199 463.099 299.799 462.799C326.199 462.499 326.199 462.499 328.099 460.099C330.999 456.499 330.599 450.699 327.399 448.099C324.899 446.099 323.499 445.999 298.499 445.999C272.499 445.999 272.299 445.999 270.199 448.299Z" fill="#137AB6"/>
<path d="M350.499 448.5C345.799 453.1 347.999 461 354.199 462.5C355.499 462.8 373.299 463 393.799 462.8L431.199 462.5L433.099 460.1C435.999 456.5 435.599 450.7 432.399 448.1C429.799 446.1 428.699 446 391.299 446H352.899L350.499 448.5Z" fill="#137AB6"/>
<path d="M272.102 146.501C241.302 153.401 216.402 173.301 203.602 201.101C197.202 214.901 195.602 223.401 195.602 242.001C195.602 255.801 196.002 259.801 197.802 266.501C207.202 300.601 233.402 326.601 267.602 335.701C276.102 337.901 279.502 338.301 292.002 338.301C304.502 338.301 307.902 337.901 316.402 335.701C350.902 326.501 376.802 300.601 386.102 266.001C389.102 255.001 389.402 230.501 386.702 219.801C379.502 191.001 360.902 167.501 335.302 154.601C321.802 147.901 312.602 145.801 294.502 145.401C283.102 145.101 276.702 145.501 272.102 146.501ZM314.502 164.701C347.302 175.301 369.502 203.301 371.702 236.701C373.702 268.601 356.402 298.801 327.802 312.901C314.102 319.601 306.502 321.401 291.502 321.301C270.402 321.201 253.002 314.401 238.002 300.301C219.502 282.901 211.102 262.301 212.302 237.601C214.002 201.001 240.102 170.701 276.502 163.001C283.602 161.401 307.802 162.601 314.502 164.701Z" fill="#137AB6"/>
<path d="M265.2 190.699C263.4 191.599 260.9 193.699 259.7 195.399C257.5 198.499 257.5 198.699 257.5 241.699C257.5 283.999 257.5 284.899 259.6 287.699C262.8 291.999 267.4 294.199 272.9 294.199C277.4 294.199 280.4 292.799 311.5 274.899C330 264.199 346.5 254.199 348.1 252.699C353.9 246.999 354.1 237.199 348.6 231.399C346.9 229.599 330.2 219.299 311.5 208.599C280.9 190.899 277.1 188.999 273 188.999C270.5 188.999 267 189.799 265.2 190.699ZM304.5 224.499C320.5 233.699 333.6 241.399 333.8 241.499C334.1 241.799 275.2 275.999 274.4 275.999C274.2 275.999 274 260.399 274 241.399C274 222.399 274.3 207.099 274.8 207.299C275.2 207.599 288.6 215.299 304.5 224.499Z" fill="#137AB6"/>
</svg>
