<svg width="512" height="512" viewBox="0 0 512 512" fill="none" xmlns="http://www.w3.org/2000/svg">
<path d="M350 56.6C345.2 64.2 343.5 66 342.2 65.5C324.9 58.3 309.2 53.6 292.3 50.4C278.7 47.9 242.7 47.3 227.5 49.5C181.7 55.8 141.3 75.9 108.9 108.3C101.2 116 89 130 89 131.2C89 131.4 92 133.8 95.7 136.5L102.3 141.4L106.9 135.9C137.5 99.6 176.2 76.3 220 68C255.3 61.2 298.1 65.5 329.7 79.1L334.2 81L331.9 84.7C330.6 86.8 327.9 91.1 325.7 94.3C323.6 97.5 322.1 100.4 322.4 100.7C323.2 101.5 384.8 104.5 385.5 103.9C386.1 103.3 357.8 47 356.8 47C356.5 47 353.4 51.3 350 56.6Z" fill="#137AB6"/>
<path d="M283.9 122.8C280 124.8 277.7 126.9 275.5 130.5L272.5 135.3L272.2 255L272 374.7L274.8 380.1C276.8 384 278.9 386.3 282.5 388.5L287.3 391.5H384H480.7L485.5 388.5C489.1 386.3 491.2 384 493.2 380.1L496 374.8V256V137.2L493.2 131.9C491.2 128 489.1 125.7 485.5 123.5L480.7 120.5L385 120.2L289.3 120L283.9 122.8ZM477.2 138.8L479.5 141.1V256V370.9L477.2 373.2L474.9 375.5H384H293.1L290.8 373.2L288.5 370.9V256.1C288.5 145.6 288.6 141.1 290.4 139.2C291.4 138 293.2 136.9 294.4 136.7C295.5 136.4 336.7 136.3 385.7 136.4L474.9 136.5L477.2 138.8Z" fill="#137AB6"/>
<path d="M304 256V360H376H448V344V328H456H464V320V312H456H448V256V200H456H464V192V184H456H448V168V152H376H304V256ZM432 176V184H424H416V192V200H424H432V256V312H424H416V320V328H424H432V336V344H376H320V256V168H376H432V176Z" fill="#137AB6"/>
<path d="M367.8 220.2C367.5 224 367.2 224.4 363.6 225.7C359.7 227 359.5 226.9 356.5 224L353.4 221L347.5 227L341.6 233L344.7 236.2C347.6 239.3 347.7 239.7 346.5 243C345.4 246.3 345 246.5 340.7 246.8L336 247.1V255.6V264H340.3C344.3 264 344.6 264.2 345.7 267.7C346.8 271.3 346.7 271.7 343.9 274.5L341 277.6L347 283.5L353 289.4L356.1 286.3C359.2 283.3 359.2 283.3 363.1 284.8C366.9 286.3 367 286.4 367 291.2V296H375.5H384V291.7C384 287.7 384.2 287.4 387.8 286.3C391.3 285.2 391.7 285.3 394.5 288.1L397.6 291L403.4 285.1C409.4 279 409.5 278.6 405.9 274.4C404.1 272.5 404.1 272.2 405.7 268.2C407.2 264.2 407.5 264 411.7 264H416V256.1V248.1L411.8 247.8C408 247.5 407.6 247.2 406.3 243.6C405 239.7 405.1 239.5 408 236.5L411 233.4L405.1 227.6L399.1 221.7L395.6 224.8C392.1 227.9 392.1 227.9 388 226.3C384.2 224.8 384 224.5 384 220.3V216H376.1H368.1L367.8 220.2ZM383.8 243C393.4 248.9 393.4 263.1 383.8 269C379.5 271.6 372.5 271.6 368.2 269C355.2 261.1 360.8 241 376 241C378.7 241 381.8 241.8 383.8 243Z" fill="#137AB6"/>
<path d="M99.1016 153.5C59.4016 162.4 31.2016 188.6 19.3016 227.5C16.7016 236 16.6016 237.6 16.6016 256C16.6016 274.3 16.8016 276 19.3016 284.5C29.9016 319.7 56.1016 345.9 91.5016 356.7C100.002 359.3 101.602 359.4 120.002 359.4C138.302 359.4 140.002 359.2 148.502 356.7C183.702 346.1 210.102 319.7 220.702 284.5C223.202 276 223.402 274.3 223.402 256C223.402 237.7 223.202 236 220.702 227.5C210.102 192.3 183.402 165.6 148.502 155.4C140.602 153.1 137.302 152.7 122.502 152.4C110.302 152.1 103.702 152.5 99.1016 153.5ZM137.802 170.6C170.802 177 198.502 204.5 205.502 238C207.902 249.2 207.502 265.9 204.602 277.3C196.402 309.7 170.502 334.6 137.802 341.5C124.202 344.4 104.202 343.2 91.4016 338.7C62.7016 328.5 40.7016 303.4 34.5016 274C32.6016 264.8 32.6016 247.2 34.5016 238C39.2016 215.7 53.4016 195.1 72.7016 182.6C92.0016 170.1 114.402 166 137.802 170.6Z" fill="#137AB6"/>
<path d="M112.003 191.9V199.7L107.103 200.2C96.4031 201.2 85.8031 209.5 82.0031 219.8C79.1031 227.5 79.5031 239.3 82.8031 246.2C87.5031 255.7 97.4031 262.9 107.103 263.8L112.003 264.3V279.6C112.003 294.9 112.003 295 109.803 295C104.503 295 97.0031 287.5 97.0031 282.2C97.0031 280.1 96.7031 280 88.4031 280H79.7031L80.2031 284.9C81.5031 298.2 93.8031 310.5 107.103 311.8L112.003 312.3V320.1V328H120.003H128.003V320.1V312.3L132.903 311.8C142.603 310.9 152.503 303.7 157.203 294.2C160.503 287.4 160.503 272.6 157.203 265.8C152.503 256.3 142.603 249.1 132.903 248.2L128.003 247.7V232.4C128.003 217.1 128.003 217 130.303 217C135.503 217 143.003 224.5 143.003 229.7C143.003 231.9 143.303 232 151.603 232H160.303L159.803 227.1C158.503 213.4 144.503 200 131.503 200H128.003V192V184H120.003H112.003V191.9ZM112.003 232C112.003 246.9 112.003 247 109.803 247C103.403 247 97.0031 239.4 97.0031 232C97.0031 224.6 103.403 217 109.803 217C112.003 217 112.003 217.1 112.003 232ZM135.803 267C145.403 272.9 145.403 287.1 135.803 293C134.003 294.1 131.503 295 130.303 295C128.003 295 128.003 294.9 128.003 280C128.003 265.1 128.003 265 130.303 265C131.503 265 134.003 265.9 135.803 267Z" fill="#137AB6"/>
<path d="M96 377.1C96 378.5 111.2 437.3 111.7 437.9C111.9 438.2 115.8 434.7 120.4 430.1L128.7 421.8L139.6 429.1C166.7 447 198.9 459 231 462.9C243.2 464.5 271.1 464.2 284.2 462.5C320.1 457.8 354.3 443.5 383.3 421.3C386.4 418.9 389 416.5 389 416C389 414.8 379.9 404.6 378.5 404.2C377.9 404.1 374.8 406 371.5 408.5C339.7 433.2 298.2 447.1 256 447.1C217.5 447.1 181.8 436.4 150.2 415.3L141.8 409.7L150.1 401.4C154.7 396.8 158.2 392.9 157.9 392.6C157.4 392.1 98.6 376 97.1 376C96.5 376 96 376.5 96 377.1Z" fill="#137AB6"/>
</svg>
