<svg width="512" height="512" viewBox="0 0 512 512" fill="none" xmlns="http://www.w3.org/2000/svg">
<path d="M241.902 6.6C241.102 7.6 240.402 11.4 240.202 15.6L239.802 22.8L233.602 23.5C124.002 35 38.7016 117.4 24.5016 225.4C23.7016 231.8 23.0016 237.7 23.0016 238.4C23.0016 239.3 20.8016 239.9 15.5016 240.2C11.4016 240.5 7.40156 241.3 6.50156 242C4.30156 243.8 4.30156 268.2 6.50156 270C7.40156 270.7 11.4016 271.5 15.5016 271.8L22.8016 272.3L23.5016 278.4C26.3016 304.9 32.6016 328.7 42.9016 351.7C75.8016 425.3 145.402 477.1 225.302 487.5C231.802 488.3 237.702 489 238.402 489C239.402 489 239.902 491.1 240.202 496.4C240.702 507 240.702 507 256.002 507C271.302 507 271.302 507 271.802 496.4C272.102 491.1 272.602 489 273.602 489C278.202 489 300.202 485.5 309.502 483.3C342.102 475.6 371.902 461.4 398.702 440.9L406.402 435L407.602 437.8C409.202 441.5 453.602 485.3 457.902 487.5C465.102 491.1 476.502 489.4 482.802 483.6C489.002 478 491.302 465.5 487.502 457.9C485.302 453.6 441.502 409.2 437.802 407.6L435.002 406.4L440.902 398.7C466.202 365.7 482.202 327.2 487.502 286.7C488.302 280.2 489.002 274.3 489.002 273.6C489.002 272.7 491.202 272.1 496.502 271.8C500.602 271.5 504.602 270.7 505.502 270C507.702 268.2 507.702 243.8 505.502 242C504.602 241.3 500.602 240.5 496.502 240.2C491.202 239.9 489.002 239.3 489.002 238.4C489.002 233.9 485.502 211.8 483.402 203C462.802 116 397.102 49.9 310.502 29C300.502 26.5 278.602 23 273.602 23C272.602 23 272.102 20.9 271.802 15.6C271.302 5 271.302 5 256.002 5C245.402 5 243.002 5.3 241.902 6.6ZM259.002 46V75H256.002H253.002V46V17H256.002H259.002V46ZM240.002 40.4V44.7L232.802 45.4C195.002 49 154.802 65.7 123.002 91C113.402 98.7 95.7016 116.5 88.9016 125.5C64.9016 156.9 48.9016 196.5 45.4016 232.7L44.7016 240H40.4016C38.0016 240 36.0016 239.6 36.0016 239C36.0016 235.1 39.6016 213.6 41.6016 205.1C46.9016 183.5 57.2016 158.9 68.8016 140.2C86.0016 112.5 112.502 86 140.202 68.8C165.902 52.8 199.402 40.9 229.002 37.1C240.602 35.6 240.002 35.4 240.002 40.4ZM294.702 39.1C314.102 42.4 334.902 49.4 354.202 59.1C419.602 91.9 464.102 154.2 474.502 227.5C476.502 240.9 476.702 240 471.602 240H467.302L466.602 232.7C463.002 195 446.302 154.8 421.002 123C413.302 113.4 395.502 95.7 386.502 88.9C355.102 64.9 315.502 48.9 279.302 45.4L272.002 44.7V40.3V35.9L277.802 36.5C280.902 36.9 288.502 38 294.702 39.1ZM240.202 71.3C240.402 80.8 240.902 85.2 241.902 86.3C243.002 87.7 245.402 88 256.002 88C266.602 88 269.002 87.7 270.102 86.3C271.102 85.2 271.602 80.8 271.802 71.3C272.202 55.7 270.502 56.9 288.202 60C320.002 65.4 349.302 78.2 375.802 97.9C387.102 106.4 405.802 125.1 414.202 136.5C434.102 163.4 446.502 192 452.002 223.8C455.102 241.5 456.302 239.7 440.702 240.2C431.202 240.4 426.802 240.9 425.702 241.9C424.302 243 424.002 245.4 424.002 256C424.002 266.6 424.302 269 425.702 270.1C426.802 271.1 431.202 271.6 440.702 271.8C456.202 272.3 454.902 270.8 452.502 286C450.502 298.5 446.902 312.4 443.002 323.2C439.702 332.3 438.002 334.2 438.002 328.9C438.002 320.4 432.002 302.2 425.302 290.9C413.402 270.5 393.602 254.5 371.502 247.4L364.502 245.2L364.202 228.7L364.002 212.1L381.102 211.8L398.202 211.5L401.702 207.6C405.102 204 405.202 203.5 404.802 197.8C404.502 193.2 403.802 191.4 401.902 189.5C397.902 185.5 266.702 114.1 261.002 112.8C257.202 111.9 254.802 111.9 251.002 112.8C245.302 114.1 114.102 185.5 110.102 189.5C108.202 191.4 107.502 193.2 107.202 197.8C106.802 203.5 106.902 204 110.302 207.6L113.802 211.5L130.902 211.8L148.002 212.1V267.6V323H136.802C127.402 323 125.002 323.3 122.302 325C116.502 328.5 115.502 331.1 115.502 343.5C115.502 353.4 115.702 354.8 117.802 357.8C119.102 359.5 121.102 361.6 122.302 362.3C124.002 363.2 139.202 363.6 184.802 364L245.202 364.5L247.402 371.5C254.502 393.6 270.502 413.4 290.902 425.3C302.202 432 320.402 438 328.902 438C334.202 438 332.302 439.7 323.802 442.8C311.602 447.2 301.902 449.7 288.702 452C270.402 455.1 272.202 456.3 271.802 440.7C271.602 431.2 271.102 426.8 270.102 425.7C268.102 423.2 243.902 423.2 241.902 425.7C240.902 426.8 240.402 431.2 240.202 440.7C239.802 456.3 241.502 455.1 223.802 452C182.502 444.9 145.802 425.8 116.002 396C86.2016 366.2 67.1016 329.5 60.0016 288.2C56.9016 270.5 55.7016 272.3 71.3016 271.8C80.8016 271.6 85.2016 271.1 86.3016 270.1C88.8016 268.1 88.8016 243.9 86.3016 241.9C85.2016 240.9 80.8016 240.4 71.3016 240.2C55.7016 239.7 56.9016 241.5 60.0016 223.8C65.4016 192.2 78.2016 162.6 97.8016 136.3C106.302 125 125.002 106.3 136.202 97.9C162.402 78.4 191.702 65.6 223.002 60C228.802 59 234.902 58.1 236.702 58.1L239.802 58L240.202 71.3ZM325.002 161.4C361.002 181.1 390.902 197.6 391.502 198.1C392.002 198.6 384.602 199 373.902 199C358.802 199 355.002 199.3 353.202 200.6C351.002 202.1 351.002 202.6 351.002 222.7V243.3L345.802 242.7C338.402 242 323.002 243.6 314.202 246C281.102 255.1 253.802 283 245.502 316.3C243.902 322.6 243.602 323 240.902 323H238.002V285.5V248H240.402C243.402 248 245.102 245.9 245.202 242C245.402 235.5 245.602 235.5 207.702 235.2C170.702 235 169.402 235.1 167.602 240.2C166.402 243.7 169.002 248 172.502 248H175.002V285.5V323H168.002H161.002V262.6V202.1L158.802 200.6C157.002 199.3 153.202 199 138.102 199C127.402 199 120.002 198.6 120.502 198.1C121.102 197.6 151.202 181 187.502 161.1C239.902 132.4 254.102 125 256.502 125.2C258.202 125.4 289.002 141.7 325.002 161.4ZM225.002 285.5V323H206.502H188.002V285.5V248H206.502H225.002V285.5ZM75.0016 256V259H46.0016H17.0016V256V253H46.0016H75.0016V256ZM495.002 256V259H466.002H437.002V256V253H466.002H495.002V256ZM358.602 257.5C406.602 268.4 435.902 317.1 422.402 363.6C414.102 392.2 392.202 414.2 363.702 422.4C320.502 434.9 274.402 410.4 260.102 367.4C246.602 326.9 264.702 283.8 303.502 264.2C320.202 255.8 340.202 253.4 358.602 257.5ZM45.4016 279.2C46.5016 291.1 50.8016 310.3 55.1016 323.3C70.3016 368.8 100.302 407.4 141.702 434.4C167.302 451.1 203.002 463.8 232.802 466.6L240.002 467.3V471.6C240.002 474 239.602 476 239.002 476C238.502 476 233.002 475.3 226.802 474.4C179.202 467.9 134.802 445.8 100.502 411.5C66.2016 377.2 44.1016 332.8 37.6016 285.2C36.7016 279 36.0016 273.5 36.0016 273C36.0016 272.4 38.0016 272 40.4016 272H44.7016L45.4016 279.2ZM476.002 273C476.002 276.6 472.502 298.3 470.502 306.5C465.702 326.8 455.202 352.3 444.302 370C437.602 380.8 423.902 399 422.902 398.4C421.502 397.6 421.802 396.4 425.202 390.8C426.902 387.9 429.702 382.1 431.402 378C433.202 373.9 436.502 367.1 439.002 363C453.302 338.6 464.002 306 466.602 279.2L467.302 272H471.602C474.002 272 476.002 272.4 476.002 273ZM242.702 343.5L243.002 351L185.702 350.8L128.502 350.5L128.202 344.6C128.002 341.4 128.102 338.1 128.402 337.4C128.802 336.2 138.702 336 185.702 336H242.502L242.702 343.5ZM414.002 408.8C414.002 410.2 409.102 414.4 408.302 413.7C408.002 413.3 408.702 411.9 410.002 410.5C412.402 408 414.002 407.3 414.002 408.8ZM475.902 465C478.002 471.1 471.002 478.1 465.002 475.8C463.602 475.3 452.702 465.1 440.802 453.2L419.002 431.5L425.202 425.3L431.502 419L453.202 440.7C465.202 452.7 475.402 463.6 475.902 465ZM398.402 422.9C398.702 423.3 394.102 427.3 388.202 431.7C354.302 456.9 320.202 470.4 277.302 475.6L272.002 476.2V471.7V467.3L279.302 466.6C306.002 464 338.602 453.3 363.002 439C367.102 436.5 373.902 433.2 378.002 431.4C382.102 429.7 387.802 426.9 390.502 425.2C395.802 422 397.502 421.5 398.402 422.9ZM259.002 466V495H256.002H253.002V466V437H256.002H259.002V466Z" fill="#137AB6"/>
<path d="M247.099 144.4C242.299 146.1 236.299 151.5 233.799 156.3C230.699 162.1 230.699 172.8 233.699 178.5C238.499 187.6 245.699 192 255.999 192C266.299 192 274.299 187.1 278.699 178.1C281.299 172.8 281.099 161.7 278.299 156.4C275.499 151.1 269.199 145.7 264.099 144.2C259.199 142.7 251.499 142.8 247.099 144.4ZM263.399 159.1C269.199 164.1 269.199 171.2 263.399 176.5C260.299 179.4 254.499 179.8 250.099 177.5C246.299 175.6 243.599 169.8 244.399 165.5C245.399 160.6 250.999 156 255.999 156C258.999 156 260.799 156.8 263.399 159.1Z" fill="#137AB6"/>
<path d="M263.2 200.6C261.1 202.1 261 202.7 261 219.4C261 232.7 261.3 237.1 262.4 238.6C263.8 240.4 265.3 240.5 299 240.5C332.7 240.5 334.2 240.4 335.6 238.6C336.7 237.1 337 232.7 337 219.4C337 202.7 336.9 202.1 334.8 200.6C332.9 199.2 327.8 199 299 199C270.2 199 265.1 199.2 263.2 200.6ZM293 220V228H283.5H274V220V212H283.5H293V220ZM324 220V228H315H306V220V212H315H324V220Z" fill="#137AB6"/>
<path d="M325.998 265.4C293.698 272.3 270.198 296.9 264.998 329.3C259.898 360.9 276.398 393.4 304.998 408.4C317.098 414.8 324.698 416.5 340.498 416.5C352.398 416.5 355.598 416.1 361.998 414.2C375.598 409.9 384.598 404.5 394.598 394.5C402.598 386.5 404.398 384.1 408.798 375C415.498 361.3 417.498 351.6 416.698 336.6C415.898 319.7 410.798 305.8 400.498 292.8C391.298 281.1 374.998 270.4 360.498 266.5C352.098 264.3 334.098 263.7 325.998 265.4ZM353.498 278.5C382.098 284.5 403.998 311.4 403.998 340.5C403.998 358.2 398.098 372 384.998 385C371.998 398.1 358.198 404 340.598 404C317.198 404 294.498 389.9 284.098 369C277.198 355 275.598 342.8 278.598 328.3C285.698 293.6 319.298 271.3 353.498 278.5Z" fill="#137AB6"/>
<path d="M325.001 311.5C309.701 314.6 296.301 321.9 285.201 333C278.201 340 279.001 343.7 289.801 352.6C298.301 359.6 306.301 364.1 316.501 367.6C326.801 371.1 345.501 372 356.701 369.7C371.401 366.5 383.501 360.2 394.201 350C403.001 341.5 403.201 339.7 395.501 332.3C377.101 314.5 349.801 306.4 325.001 311.5ZM335.001 329.4C335.001 334.3 331.201 336.7 327.001 334.5L324.601 333.2L328.701 329C333.401 324.4 335.001 324.5 335.001 329.4ZM352.701 329.2C354.401 331 356.401 334.3 357.001 336.5C360.501 348.3 348.301 360.5 336.501 357C332.901 355.9 326.001 350.6 326.001 348.9C326.001 348.6 328.001 348.2 330.601 348.2C340.101 348 348.001 340.1 348.201 330.6C348.201 328.1 348.601 326 348.901 326C349.301 326 351.001 327.5 352.701 329.2ZM311.501 340.5C311.501 346.3 311.301 351 311.101 351C310.301 351 303.401 346.6 299.701 343.7L296.001 340.8L300.701 337C303.401 335 306.901 332.6 308.501 331.7C310.201 330.8 311.501 330.1 311.501 330C311.501 330 311.501 334.7 311.501 340.5ZM377.901 335.1L385.201 340.2L383.101 342.3C380.801 344.9 370.101 351.5 369.501 350.8C369.301 350.6 369.501 348.6 370.101 346.5C371.201 342.7 370.901 335.3 369.501 331.7C368.401 328.9 370.201 329.7 377.901 335.1Z" fill="#137AB6"/>
</svg>
