<svg width="512" height="512" viewBox="0 0 512 512" fill="none" xmlns="http://www.w3.org/2000/svg">
<path d="M109.5 23.2008C105.7 25.4008 105.1 27.3008 105 37.2008V46.9008L78.4 47.2008L51.8 47.5008L49.4 50.3008C47.1 53.0008 47 53.7008 47 68.6008V84.0008H33.7C20.6 84.0008 20.3 84.1008 17.9 86.6008L15.5 89.2008V255.701V422.201L18.3 424.601L21.1 427.001H142.4H263.7L266.7 431.801C295.3 477.401 353.5 499.501 405.9 484.401C427.2 478.201 442.5 469.301 458.6 453.501C485.1 427.501 497 397.301 495.7 359.601C494.8 331.701 486.8 309.801 469.4 287.401C451.7 264.501 424.8 248.201 395.3 242.301C383.2 239.901 359.6 240.001 348.1 242.401C340.8 244.001 329.6 247.201 323.8 249.501C322.1 250.201 322 247.001 322 191.801C322 126.901 322.3 130.001 315.2 128.001C313.2 127.501 309.4 127.001 306.8 127.001H302V112.901C302 92.6008 301.6 92.1008 284.8 92.0008H273V84.6008C273 77.5008 272.8 77.1008 269.9 74.6008C266 71.3008 262 71.3008 258.1 74.6008C255.2 77.1008 255 77.5008 255 84.6008V92.0008H243.1C231.9 92.0008 230.9 92.2008 228.3 94.4008L225.5 96.8008L225.2 111.901L224.8 127.001H220H215.1L214.8 108.101C214.5 89.6008 214.4 89.1008 212.1 86.6008C209.7 84.1008 209.4 84.0008 196.3 84.0008H183V68.6008C183 53.7008 182.9 53.0008 180.6 50.3008L178.2 47.5008L150.6 47.2008L123 46.9008V37.0008C123 27.3008 123 27.2008 119.9 24.6008C116.7 21.8008 112.8 21.3008 109.5 23.2008ZM164 75.0008V84.0008H115H66V75.0008V66.0008H115H164V75.0008ZM196 255.501V409.001H178H160V375.501V341.901L157.5 339.501L155.1 337.001H115H74.9L72.5 339.501L70 341.901V375.501V409.001H52H34V255.501V102.001H115H196V255.501ZM283 118.501V127.001H263.5H244V118.501V110.001H263.5H283V118.501ZM303 203.401V260.801L300.6 262.301C299.3 263.201 295.5 266.201 292.1 269.001L286 274.001L258.4 274.301L230.8 274.501L228.4 277.301C225 281.301 225.2 286.301 228.9 290.101L231.8 293.001H250.4C260.6 293.001 269 293.101 269 293.301C269 293.501 267 297.101 264.6 301.401C262.2 305.601 259.7 310.401 259 312.001L257.8 315.001H244.8H231.8L228.9 317.901C225.2 321.701 225 326.701 228.4 330.701C230.7 333.401 231.3 333.501 241 333.801C248.4 334.101 251 334.501 250.7 335.401C250.4 336.101 249.7 340.201 249 344.601C248.4 348.901 247.7 354.001 247.4 355.701L246.9 359.001H239.4C232.4 359.001 231.6 359.201 228.9 361.901C225.2 365.701 225 370.701 228.4 374.701C230.6 377.301 231.5 377.501 239.3 377.801L247.8 378.201L248.9 385.601C249.6 389.601 251.2 396.401 252.6 400.701C253.9 405.001 255 408.601 255 408.701C255 408.901 246 409.001 235 409.001H215V277.501V146.001H259H303V203.401ZM398 262.301C444.8 274.601 477.2 316.301 477.3 364.501C477.4 419.301 436.3 464.301 381 470.001C336.3 474.501 290.8 446.801 274 404.701C267.8 389.101 266.7 383.101 266.7 365.001C266.6 350.401 266.9 347.401 269.3 338.801C274.4 319.501 284 303.201 298.3 289.301C311.7 276.301 326.6 267.601 343.4 263.001C356.1 259.501 359.7 259.101 374.5 259.501C385.4 259.701 390.6 260.401 398 262.301ZM105 382.001V409.001H96.5H88V382.001V355.001H96.5H105V382.001ZM142 382.001V409.001H132.5H123V382.001V355.001H132.5H142V382.001Z" fill="#137AB6"/>
<path d="M57.3986 128C51.4986 130.4 50.1986 138.4 54.8986 143.1L57.7986 146H114.999H172.199L175.099 143.1C179.799 138.3 178.899 131.5 172.999 128.5C170.499 127.2 162.299 127 114.799 127.1C84.3986 127.1 58.4986 127.5 57.3986 128Z" fill="#137AB6"/>
<path d="M55.2 179C51.1 182.9 51.1 189.1 55.2 193C57.3 195 58.5 195 115 195C171.5 195 172.7 195 174.8 193C178.9 189.1 178.9 182.9 174.8 179C172.7 177 171.5 177 115 177C58.5 177 57.3 177 55.2 179Z" fill="#137AB6"/>
<path d="M54.895 228.902C50.195 233.702 51.095 240.502 56.995 243.502C61.395 245.802 168.595 245.802 172.995 243.502C178.895 240.502 179.795 233.702 175.095 228.902L172.195 226.002H114.995H57.795L54.895 228.902Z" fill="#137AB6"/>
<path d="M57.2986 276.5C51.1986 279.1 50.0987 286.2 54.8987 291.1L57.7986 294H114.999H172.199L175.099 291.1C179.799 286.3 178.599 279 172.499 276.5C167.499 274.4 62.0986 274.4 57.2986 276.5Z" fill="#137AB6"/>
<path d="M231.299 188.4C225.199 191.1 224.099 198.2 228.899 203.1L231.799 206H257.999C273.999 206 284.899 205.6 286.099 205C288.899 203.4 291.199 198.3 290.499 195.1C290.199 193.5 288.799 191.2 287.399 189.9C284.899 187.5 284.599 187.5 259.699 187.3C239.799 187.1 233.799 187.3 231.299 188.4Z" fill="#137AB6"/>
<path d="M231.399 231C225.499 233.4 224.199 241.4 228.899 246.1L231.799 249H258.199C286.999 249 287.599 248.9 289.999 243.1C290.899 240.8 290.899 239.3 289.999 236.5C287.999 230.4 285.699 230 257.799 230.1C244.399 230.1 232.499 230.5 231.399 231Z" fill="#137AB6"/>
<path d="M325.001 289.7C320.201 291.5 318.001 297.1 320.001 302.1C322.201 307.2 325.201 308 342.301 308C359.101 308 363.601 308.9 369.701 313.6C373.101 316.2 379.001 323.5 379.001 325.2C379.001 325.6 367.301 326 353.001 326C324.201 326 322.301 326.3 320.001 331.9C318.601 335.4 319.201 338.8 321.901 342.1L323.801 344.5L351.401 344.8C366.601 345 379.001 345.5 379.001 345.9C379.001 347.5 373.001 354.9 369.601 357.5C363.501 362.2 359.801 362.9 342.701 363C325.101 363 322.201 363.8 320.001 368.9C317.501 375.1 318.201 376 353.101 408.9C384.501 438.5 386.301 440 389.901 440C396.801 440 401.401 433.9 399.101 427.8C398.601 426.4 388.001 415.7 375.501 403.9L352.901 382.5L360.201 381.3C378.101 378.3 392.601 365.9 397.501 349.5L398.701 345.5L408.801 345C417.701 344.6 419.101 344.2 421.401 342.1C423.401 340.2 424.001 338.7 424.001 335.5C424.001 332.3 423.401 330.8 421.401 328.9C419.101 326.8 417.701 326.4 408.801 326L398.701 325.5L397.501 321.3C396.801 319 395.101 315.1 393.701 312.6L391.201 308.1L405.001 307.8C418.101 307.5 419.001 307.4 421.401 305.1C425.301 301.4 425.101 295.1 420.901 291.6L417.801 289L372.201 289.1C347.101 289.1 325.801 289.4 325.001 289.7Z" fill="#137AB6"/>
</svg>
