<svg width="512" height="512" viewBox="0 0 512 512" fill="none" xmlns="http://www.w3.org/2000/svg">
<path d="M224.5 17.5997C171.7 24.6997 123.3 48.5997 86 85.9997C48.3 123.6 24.5 172 17.5 225.3C15.5 240.8 15.5 271.2 17.5 286.7C23.3 330.5 40.3 370.7 68 406.2C76.3 416.8 95.2 435.7 105.8 444C128.2 461.5 153.8 475.3 179.5 483.9C206.4 492.8 226.7 496 256 496C285.3 496 305.2 492.8 332.8 483.8C367.5 472.4 399.8 452.3 426.5 425.5C464 387.9 487.5 339.8 494.5 286.7C496.5 271.2 496.5 240.8 494.5 225.3C487.5 172 463.8 123.7 426 85.9997C388.3 48.1997 340 24.4997 286.7 17.4997C272.1 15.5997 238.6 15.5997 224.5 17.5997ZM290 26.4997C382.5 40.8997 457.5 108.6 480.5 198.5C486.1 220.2 487.4 231.7 487.4 256.5C487.4 280.9 485.7 294.2 479.9 315.8C463.1 379.2 419.3 433 360.1 462.9C329.3 478.5 299.1 486.3 264 487.7C199.1 490.2 135.5 464.4 89.4 416.8C55.5 381.7 34 338.1 26.4 289C23.9 272.9 23.9 238.9 26.3 223C34.1 173.7 55.5 130.3 89.4 95.1997C128 55.2997 177.3 31.2997 233.5 24.9997C245 23.6997 277.7 24.5997 290 26.4997Z" fill="#137AB6"/>
<path d="M139 95.2004C132.7 99.6004 131.5 102.1 131.2 113L130.8 122.9L116 123.2L101.2 123.5L97.4 126.6C95.3 128.2 92.7 131.4 91.6 133.6C89.5 137.5 89.5 138 89.5 262V386.5L91.8 390.7C93 393.1 95.9 396.2 98.2 397.7L102.4 400.5L255 400.8L407.6 401L412.1 398.7C415 397.1 417.5 394.7 419.5 391.5L422.5 386.7V262.1C422.5 138 422.5 137.5 420.4 133.6C419.3 131.4 416.7 128.2 414.6 126.6L410.8 123.5L396 123.2L381.2 122.9L380.8 113.1C380.5 104.2 380.2 103 377.7 99.7004C373.6 94.3004 369.9 92.7004 362.6 93.2004C350.9 93.9004 346 100.2 346 114.5V123H327.5H309V113.6C309 103.1 307.5 99.6004 301.1 95.3004C296.7 92.3004 288.5 92.2004 283.1 95.0004C276.8 98.1004 274.6 102.8 274.2 113.7L273.8 123H256H238.2L237.8 113.6C237.5 105.6 237 103.7 234.8 100.3C228 90.0004 212.4 90.4004 205.3 100.9C203.3 103.8 203 105.6 203 113.6V123H184.5H166V114.5C166 104.3 164 99.4004 158.3 95.5004C153.2 92.1004 143.9 91.9004 139 95.2004ZM153.9 103.6L157 106.2V124.5V142.8L153.9 145.4C149.9 148.8 146.8 148.7 142.8 145.1L139.5 142.2V124.5V106.8L142.8 103.9C146.8 100.3 149.9 100.2 153.9 103.6ZM226.8 104.6C228.9 107 229 107.9 229 124.6V142.2L226.1 145.1C221.5 149.7 215.5 148.8 212.5 143C210.5 139.1 210.4 109.7 212.4 106.1C215.5 100.6 222.6 99.8004 226.8 104.6ZM295.9 102.5C300.5 104.8 301.2 108 300.8 126.5L300.5 143.2L297.7 145.6C293.8 148.9 289.6 148.7 285.9 145.1L283 142.2V124.8C283 106.2 283.5 103.9 288.4 102C291.5 100.7 292.8 100.8 295.9 102.5ZM369.2 103.9L372.5 106.8V124.5V142.2L369.2 145.1C365.2 148.7 362.1 148.8 358.1 145.4L355 142.8V124.5V106.2L358.1 103.6C362.1 100.2 365.2 100.3 369.2 103.9ZM131 137C131 144.4 132.7 148.7 136.9 152.3C145 159.1 156.3 157.8 162.7 149.3C165 146.3 165.5 144.5 165.8 138.3L166.2 131H184.6H203V137.7C203 148 207.2 153.8 216.1 156C228.5 159 238 150.2 238 135.7V131H255.9H273.7L274.2 137.9C275.1 149.7 281.4 156.4 291.5 156.4C302.4 156.4 309 149.3 309 137.6V131H327.4H345.8L346.2 138.3C346.5 144.5 347 146.3 349.3 149.3C355.7 157.8 367 159.1 375.1 152.3C379.3 148.7 381 144.4 381 137V131H392.6C413.5 131 414 131.8 414 162.9V185H284.4H154.9L150.9 181.8C147.5 179.1 145.9 178.5 140.5 178.2C134.9 177.8 133.5 178.1 129.5 180.4C127 181.9 125 183.5 125 184C125 184.6 119.4 185 111.5 185H98V162.9C98 131.8 98.5 131.1 119.3 131H131V137ZM143.5 187.6C152.4 191.8 154.3 206.6 146.9 214C141 219.8 133.8 218.4 129.3 210.4C124.8 202.5 127.6 191.5 135 187.8C139.3 185.6 139.4 185.6 143.5 187.6ZM118.6 201.3C118.6 215.8 126.9 226 138.7 226C145.5 226 149.7 224.2 153.6 219.8C158.3 214.5 160.2 208.4 159.8 200.6L159.5 194H286.8H414V288.5C414 390.8 414.2 386.6 408.8 390.4C406.8 391.8 393.8 392 287.5 392H168.5L168.8 329.3L169 266.5L191.6 243.9C210.7 224.8 214.3 220.7 215 217.4C216.3 211.9 214.7 206.8 210.5 203.1C207.5 200.5 206.1 200 201.9 200C199.1 200 195.9 200.5 194.7 201.1C193.5 201.8 186.4 208.3 178.8 215.6C171.2 223.1 163.6 229.7 161.6 230.5C158.6 231.8 153.4 232 132.2 231.8C107.1 231.5 106.4 231.6 102.3 233.8L98 236V215V194H108.3H118.6V201.3ZM205 210C206.1 211.1 207 213 207 214.2C207 215.6 199.6 223.7 183.5 240L160 263.6V326.2C160 394.4 160.2 392 154.5 392C149.1 392 149 391.3 149 360C149 326.5 149.4 328 139.9 328C129.3 328 130 325.8 130 358.8C130 390.6 129.8 392 124 392C117.8 392 118 394.1 118 323.3C118 260 118 259.1 116 258.5C114.9 258.2 113.1 258.2 112 258.5C110.1 259.1 110 260 110 278.4C110 296.4 109.9 297.9 107.9 300.4C105.4 303.5 102.7 303.7 99.9 300.9C97.9 298.9 97.9 298 98.2 274.2C98.5 250.5 98.6 249.4 100.7 246.4C105.2 240.1 107.7 239.6 134 240.3C149.8 240.7 158.9 240.6 161.5 239.9C167.4 238.2 172.4 234.4 186.6 220.6C193.7 213.7 200.3 208.1 201.3 208C202.2 208 203.9 208.9 205 210ZM110 351.6V392H107.7C104.7 392 101.3 389.5 99.5 386C98.2 383.6 98 377.1 98 347.1V311.2H104H110V351.6ZM140 362.9C140 377.2 140.3 389.5 140.6 390.4C141 391.5 140.7 392 139.6 392C138.2 392 138 389.1 138 364.5C138 346.8 138.4 337 139 337C139.6 337 140 346.3 140 362.9Z" fill="#137AB6"/>
<path d="M345.5 203.2C333.2 205.5 319.7 215.5 313.8 226.6C303.7 245.5 307 268.1 322.2 283.2C344.8 305.7 383.2 299.4 397.5 270.8C406.6 252.6 403.4 231.7 389.3 216.9C378 205 362 200 345.5 203.2ZM367.3 212.9C378.3 216.7 385.2 223 390.3 233.8C400 254.5 388.7 279.5 366.5 286.5C358.5 289 347.4 288.2 339.8 284.7C331.8 281.1 324.7 274.1 320.7 266.1C317.7 260 317.5 258.8 317.5 249.5C317.5 240.8 317.8 238.8 320.2 233.8C328.7 215.7 349.1 206.7 367.3 212.9Z" fill="#137AB6"/>
<path d="M352.196 218.2C351.596 218.8 350.996 220.3 350.996 221.4C350.896 222.6 349.596 224.4 347.796 225.5C340.496 230.2 338.296 237.8 341.896 245.4C344.296 250.2 350.096 254 355.096 254C358.096 254 361.996 257.8 361.996 260.6C361.996 261.7 360.996 263.6 359.696 264.8C355.396 268.8 350.596 267.1 348.996 261C348.196 258 347.296 256.9 345.496 256.4C341.596 255.4 339.696 257.7 340.296 262.4C340.896 267 343.396 270.7 347.796 273.5C349.696 274.7 350.896 276.4 350.996 277.6C351.096 282.8 357.796 283.5 359.496 278.5C359.996 276.8 361.196 275.1 361.996 274.6C374.996 266.6 372.096 247.6 357.596 245.5C352.096 244.6 348.996 242.1 348.996 238.5C348.996 235.3 352.296 232 355.396 232C358.096 232 361.996 236.2 361.996 238.9C361.996 242.7 366.596 244.3 369.396 241.5C372.396 238.5 368.996 229.2 363.796 226C361.996 224.9 360.196 222.7 359.596 220.8C358.396 217.2 354.596 215.8 352.196 218.2Z" fill="#137AB6"/>
<path d="M206.2 240.3C202.3 244.3 199 248.4 199 249.4C199 250.4 202 254.3 205.7 258.1C210.8 263.4 213 265 215.1 265C216.9 265 218.3 264.3 219 263.1C220.4 260.4 220.4 260.5 216.9 256.5L213.8 253H250.1H286.4L283.2 256.3C281.4 258.1 280 260.3 280 261.1C280 263.2 282 265 284.4 265C286.8 265 301 251.3 301 249C301 246.7 286.8 233 284.4 233C282 233 280 234.8 280 236.9C280 237.7 281.4 239.9 283.2 241.7L286.4 245H250.1H213.8L216.9 241.5C220.4 237.5 220.4 237.6 219 234.9C217 231.3 213.8 232.7 206.2 240.3Z" fill="#137AB6"/>
<path d="M297.197 268.2C296.297 269.1 295.997 281.9 295.997 319.7C295.997 369.3 295.997 370 293.997 370C291.997 370 291.997 369.3 291.997 324.1C291.997 283.7 291.797 278 290.397 276.6C289.197 275.3 286.497 275 277.097 275C269.297 275 264.997 275.4 264.197 276.2C263.297 277.1 262.997 289 262.997 323.7V370H258.997H254.997V342.7C254.997 322.8 254.697 315.1 253.797 314.2C252.097 312.5 228.897 312.5 227.197 314.2C226.297 315.1 225.997 322.8 225.997 342.7V370H221.997H218.097L217.797 356.2L217.497 342.5L204.597 342.2C195.997 342 191.297 342.3 190.397 343.1C188.197 344.9 188.397 375.2 190.597 377.4C191.997 378.8 198.497 379 246.997 379H301.897L303.397 376.8C304.797 374.8 304.997 368.1 304.997 323.3C304.997 292.5 304.597 271.1 303.997 269.6C302.997 266.8 299.297 266.1 297.197 268.2ZM282.997 327V370H276.997H270.997V327V284H276.997H282.997V327ZM245.997 345.5V370H239.997H233.997V345.5V321H239.997H245.997V345.5ZM209.997 360V370H203.997H197.997V360V350H203.997H209.997V360Z" fill="#137AB6"/>
<path d="M338 319.9C337.4 321.1 337 329.7 337 341C337 352.3 337.4 360.9 338 362.1C339 363.9 340.3 364 360.3 364C375.5 364 381.9 363.7 382.8 362.8C384.1 361.5 384.6 322.7 383.4 319.6C382.9 318.2 379.9 318 360.9 318C340.3 318 339 318.1 338 319.9ZM375 341V356H360.5H346V341V326H360.5H375V341Z" fill="#137AB6"/>
</svg>
