<svg width="512" height="512" viewBox="0 0 512 512" fill="none" xmlns="http://www.w3.org/2000/svg">
<path d="M162.8 9.2C160.9 10.7 154.3 18.6 134.7 42.3L120 60.1V136C120 210.7 120 212 122 214C124 216 125.3 216 186 216H248V228V240H162C77.3 240 76 240 74 242C72.1 243.9 72 245.3 72 262V280H80H88V268V256H256H424V268V280H432H440V262C440 245.3 439.9 243.9 438 242C436 240 434.7 240 350 240H264V228V216H326C386.7 216 388 216 390 214C392 212 392 210.7 392 136.1V60.2L373.3 37.4C362.9 24.9 353.1 13.1 351.4 11.3L348.3 8H256.3C184.3 8 164 8.3 162.8 9.2ZM342.8 28L346.1 32H256H165.9L169.2 28L172.5 24H256H339.5L342.8 28ZM362.9 52.1L366.2 56H256H145.8L149.1 52.1L152.5 48.2H256H359.5L362.9 52.1ZM376 136V200H256H136V136V72H256H376V136Z" fill="#137AB6"/>
<path d="M178.1 89.9C177 91 175.8 93.9 175.5 96.3C174.2 105 169 110.2 160.3 111.5C152.2 112.7 152 113.2 152 136C152 158.8 152.2 159.3 160.3 160.5C169 161.8 174.2 167 175.5 175.7C175.8 178.1 177 181 178.1 182.1C179.9 183.9 182.3 184 256 184C329.7 184 332.1 183.9 333.9 182.1C335 181 336.2 178.1 336.5 175.7C337.8 167 343 161.8 351.7 160.5C359.8 159.3 360 158.8 360 136C360 113.2 359.8 112.7 351.7 111.5C343 110.2 337.8 105 336.5 96.3C336.2 93.9 335 91 333.9 89.9C332.1 88.1 329.7 88 256 88C182.3 88 179.9 88.1 178.1 89.9ZM215.5 109.4C205.2 125.5 205.2 146.5 215.5 162.6L219 168H205.1H191.2L190.5 165.1C189 158.1 177.9 147 170.9 145.5L168 144.8V136V127.2L170.9 126.5C177.9 125 189 113.9 190.5 106.9L191.2 104H205.1H219L215.5 109.4ZM321.5 106.9C322.4 111.3 328.2 118.8 333.5 122.5C336.1 124.4 339.5 126.2 341.1 126.5L344 127.2V136V144.8L341.1 145.5C334.1 147 323 158.1 321.5 165.1L320.8 168H306.9H293L296.3 162.7C301.9 154 303.2 149.4 303.7 138C304.3 125.9 302.5 118.8 296.5 109.4L293 104H306.9H320.8L321.5 106.9ZM270.8 108.5C276.7 111.7 280.9 116 284.2 122.3C286.1 125.8 286.5 128.1 286.5 136C286.5 144.6 286.2 146 283.6 150.8C273.6 168.8 250.3 172.7 234.8 159.1C232.7 157.3 229.7 153.1 228 149.8C225.4 144.6 225 142.6 225 136.1C225 123.3 230.9 113.7 242.3 108C248.1 105.1 249.1 104.9 257 105.2C264 105.5 266.4 106.1 270.8 108.5Z" fill="#137AB6"/>
<path d="M63.6026 297.5C45.5026 302.5 29.9026 317.2 25.5026 333.4C24.1026 338.4 23.8026 342.3 24.2026 349.9L24.7026 359.9L21.2026 361.1C16.2026 362.7 8.70258 370.6 7.20258 375.6C4.50258 384.8 6.30258 393.7 12.2026 400.4C16.6026 405.5 22.3026 408.1 29.2026 408.2C34.0026 408.3 34.1026 408.4 36.6026 413.4C38.0026 416.2 40.2026 419.9 41.5026 421.6L43.9026 424.8L39.2026 426.5C25.2026 431.7 13.7026 443.9 9.60258 457.9C8.40258 462 8.00258 467.9 8.00258 481.7C8.00258 498.7 8.10258 500.1 10.0026 502C12.0026 504 13.3026 504 80.0026 504C146.703 504 148.003 504 150.003 502C151.903 500.1 152.003 498.7 152.003 481.5C152.003 465.4 151.703 462.1 149.903 456.7C145.203 442.6 134.603 431.7 120.803 426.5L116.103 424.8L118.503 421.6C119.803 419.9 122.003 416.1 123.503 413.2C126.003 408.2 126.303 408 130.203 408C138.603 408 148.303 400.6 150.803 392.1C154.503 379.9 149.403 367.3 138.603 362C134.303 360 134.203 359.8 135.103 356.7C136.703 350.9 136.203 338.4 133.903 331.7C128.603 315.9 115.203 303.5 97.6026 298.1C89.5026 295.6 71.6026 295.3 63.6026 297.5ZM93.4026 314.6C108.503 319.3 119.003 332 119.003 345.9V352.2L113.303 351.5C101.603 350.1 93.1026 344.2 89.1026 334.7C86.8026 329.3 84.9026 327.8 80.5026 327.8C76.1026 327.8 74.5026 329.1 71.5026 335C66.3026 345.2 58.9026 350.3 47.3026 351.5L41.0026 352.2V345.8C41.0026 322.9 68.1026 306.9 93.4026 314.6ZM85.3026 358.2C92.1026 363.6 99.7026 367 106.503 367.7L112.003 368.3V378.9C112.003 402.8 107.403 412.9 93.0026 420.6C87.6026 423.5 72.0026 423.3 66.3026 420.2C52.6026 412.9 48.0026 402.6 48.0026 378.9V368.3L53.7026 367.7C60.2026 367 69.6026 362.6 75.5026 357.6C77.7026 355.6 79.6026 354.1 79.8026 354C79.9026 354 82.4026 355.9 85.3026 358.2ZM32.0026 384C32.0026 391.7 30.8026 392.8 27.0026 389C23.3026 385.3 25.7026 377 30.5026 377C31.7026 377 32.0026 378.4 32.0026 384ZM133.003 379C136.703 382.7 134.303 391 129.503 391C128.303 391 128.003 389.6 128.003 384C128.003 376.3 129.203 375.2 133.003 379ZM83.9026 444.5C82.1026 447 80.4026 449 80.0026 449C79.6026 449 77.9026 447 76.1026 444.5L72.9026 440H80.0026H87.1026L83.9026 444.5ZM62.0026 454.1C74.7026 471.6 75.1026 472 79.8026 472C81.9026 472 84.3026 471.4 85.2026 470.7C86.0026 470.1 91.6026 463 97.5026 455.2C107.503 441.8 108.403 440.9 110.803 441.5C119.103 443.5 128.203 450.5 131.903 457.8C134.303 462.6 136.003 472.1 136.003 481.2V488H79.8026H23.7026L24.3026 476.5C25.0026 464.2 26.6026 458.9 31.6026 452.3C35.8026 446.8 45.2026 441.2 50.5026 441.1C51.9026 441.1 55.2026 444.7 62.0026 454.1Z" fill="#137AB6"/>
<path d="M240.103 297.6C224.803 301.7 210.703 312.8 204.303 325.8L200.503 333.4V346.7V360L197.103 361.1C192.203 362.7 184.703 370.6 183.203 375.6C180.503 384.8 182.303 393.7 188.203 400.4C192.603 405.5 198.303 408.1 205.203 408.2C210.003 408.3 210.103 408.4 212.603 413.4C214.003 416.2 216.203 419.9 217.503 421.6L219.903 424.8L215.203 426.5C201.203 431.7 189.703 443.9 185.603 457.9C184.403 462 184.003 467.9 184.003 481.7C184.003 498.7 184.103 500.1 186.003 502C188.003 504 189.303 504 256.003 504C322.703 504 324.003 504 326.003 502C327.903 500.1 328.003 498.7 328.003 481.5C328.003 465.4 327.703 462.1 325.903 456.7C321.203 442.6 310.603 431.7 296.803 426.5L292.103 424.8L294.503 421.6C295.803 419.9 298.003 416.1 299.503 413.2C302.003 408.2 302.303 408 306.203 408C314.603 408 324.303 400.6 326.803 392.1C330.503 379.9 325.403 367.3 314.603 362C310.303 360 310.203 359.8 311.103 356.7C312.903 350.5 312.103 338 309.603 330.7C304.103 315.2 289.103 302.2 271.303 297.6C263.703 295.6 247.403 295.6 240.103 297.6ZM265.303 313.5C283.403 318.2 295.003 330.8 295.003 345.8V352.2L289.303 351.5C277.603 350.1 269.103 344.2 265.103 334.7C262.803 329.3 260.903 327.8 256.503 327.8C252.103 327.8 250.503 329.1 247.503 335C242.303 345.2 234.903 350.3 223.303 351.5L217.003 352.2V345.8C217.003 331 228.503 318.3 246.303 313.5C253.203 311.7 258.303 311.7 265.303 313.5ZM261.303 358.2C268.103 363.6 275.703 367 282.503 367.7L288.003 368.3V378.9C288.003 402.8 283.403 412.9 269.003 420.6C263.603 423.5 248.003 423.3 242.303 420.2C228.603 412.9 224.003 402.6 224.003 378.9V368.3L229.703 367.7C236.203 367 245.603 362.6 251.503 357.6C253.703 355.6 255.603 354.1 255.803 354C255.903 354 258.403 355.9 261.303 358.2ZM208.003 384C208.003 391.7 206.803 392.8 203.003 389C199.303 385.3 201.703 377 206.503 377C207.703 377 208.003 378.4 208.003 384ZM309.003 379C312.703 382.7 310.303 391 305.503 391C304.303 391 304.003 389.6 304.003 384C304.003 376.3 305.203 375.2 309.003 379ZM259.903 444.5C258.103 447 256.403 449 256.003 449C255.603 449 253.903 447 252.103 444.5L248.903 440H256.003H263.103L259.903 444.5ZM238.003 454.1C250.703 471.6 251.103 472 255.803 472C257.903 472 260.303 471.4 261.203 470.7C262.003 470.1 267.603 463 273.503 455.2C283.503 441.8 284.403 440.9 286.803 441.5C295.103 443.5 304.203 450.5 307.903 457.8C310.303 462.6 312.003 472.1 312.003 481.2V488H255.803H199.703L200.303 476.5C201.003 464.2 202.603 458.9 207.603 452.3C211.803 446.8 221.203 441.2 226.503 441.1C227.903 441.1 231.203 444.7 238.003 454.1Z" fill="#137AB6"/>
<path d="M416.103 297.6C400.803 301.7 386.703 312.8 380.303 325.8L376.503 333.4V346.7V360L373.103 361.1C368.203 362.7 360.703 370.6 359.203 375.6C356.503 384.8 358.303 393.7 364.203 400.4C368.603 405.5 374.303 408.1 381.203 408.2C386.003 408.3 386.103 408.4 388.603 413.4C390.003 416.2 392.203 419.9 393.503 421.6L395.903 424.8L391.203 426.5C377.203 431.7 365.703 443.9 361.603 457.9C360.403 462 360.003 467.9 360.003 481.7C360.003 498.7 360.103 500.1 362.003 502C364.003 504 365.303 504 432.003 504C498.703 504 500.003 504 502.003 502C503.903 500.1 504.003 498.7 504.003 481.5C504.003 465.4 503.703 462.1 501.903 456.7C497.203 442.6 486.603 431.7 472.803 426.5L468.103 424.8L470.503 421.6C471.803 419.9 474.003 416.1 475.503 413.2C478.003 408.2 478.303 408 482.203 408C490.603 408 500.303 400.6 502.803 392.1C506.503 379.9 501.403 367.3 490.603 362C486.303 360 486.203 359.8 487.103 356.7C488.903 350.5 488.103 338 485.603 330.7C480.103 315.2 465.103 302.2 447.303 297.6C439.703 295.6 423.403 295.6 416.103 297.6ZM441.303 313.5C459.403 318.2 471.003 330.8 471.003 345.8V352.2L465.303 351.5C453.603 350.1 445.103 344.2 441.103 334.7C438.803 329.3 436.903 327.8 432.503 327.8C428.103 327.8 426.503 329.1 423.503 335C418.303 345.2 410.903 350.3 399.303 351.5L393.003 352.2V345.8C393.003 331 404.503 318.3 422.303 313.5C429.203 311.7 434.303 311.7 441.303 313.5ZM437.303 358.2C444.103 363.6 451.703 367 458.503 367.7L464.003 368.3V378.9C464.003 402.8 459.403 412.9 445.003 420.6C439.603 423.5 424.003 423.3 418.303 420.2C404.603 412.9 400.003 402.6 400.003 378.9V368.3L405.703 367.7C412.203 367 421.603 362.6 427.503 357.6C429.703 355.6 431.603 354.1 431.803 354C431.903 354 434.403 355.9 437.303 358.2ZM384.003 384C384.003 391.7 382.803 392.8 379.003 389C375.303 385.3 377.703 377 382.503 377C383.703 377 384.003 378.4 384.003 384ZM485.003 379C488.703 382.7 486.303 391 481.503 391C480.303 391 480.003 389.6 480.003 384C480.003 376.3 481.203 375.2 485.003 379ZM435.903 444.5C434.103 447 432.403 449 432.003 449C431.603 449 429.903 447 428.103 444.5L424.903 440H432.003H439.103L435.903 444.5ZM414.003 454.1C426.703 471.6 427.103 472 431.803 472C433.903 472 436.303 471.4 437.203 470.7C438.003 470.1 443.603 463 449.503 455.2C459.503 441.8 460.403 440.9 462.803 441.5C471.103 443.5 480.203 450.5 483.903 457.8C486.303 462.6 488.003 472.1 488.003 481.2V488H431.803H375.703L376.303 476.5C377.003 464.2 378.603 458.9 383.603 452.3C387.803 446.8 397.203 441.2 402.503 441.1C403.903 441.1 407.203 444.7 414.003 454.1Z" fill="#137AB6"/>
</svg>
