<svg width="512" height="512" viewBox="0 0 512 512" fill="none" xmlns="http://www.w3.org/2000/svg">
<path d="M242 18C240 20 240 21.3 240 168.1V316.2L235.1 310.3C226.6 300.1 212.9 290.4 200.1 285.5C186.5 280.3 182.9 280 135.5 280C85.1 280 82.1 280.4 65.3 288.5C41.9 299.9 24 322 18 347C16.1 355.1 16 358.7 16 423.7C16 490.7 16 492 18 494C20 496 21.3 496 256 496C490.7 496 492 496 494 494C496 492 496 490.7 496 256C496 21.3 496 20 494 18C492 16 490.7 16 368 16C245.3 16 244 16 242 18ZM480 256V480H468H456V442C456 405.3 455.9 403.9 454 402C452.1 400.1 450.7 400 424 400C397.3 400 395.9 400.1 394 402C392.1 403.9 392 405.3 392 442V480H324H256V452V424H278C298.7 424 300.1 423.9 302 422C304.7 419.3 304.7 412.7 302 410C300.1 408.1 298.7 408 278 408H256V400V392H286C314.7 392 316.1 391.9 318 390C319.4 388.6 320 386.7 320 383.8C320 379.6 319.6 379.2 302.2 361.8C284.8 344.4 284.4 344 280.2 344C274.6 344 272 346.6 272 352.1C272 356 272.6 356.9 281.7 366.1L291.4 376H273.7H256V204V32H368H480V256ZM174.1 296.9C197 299.3 217.5 312.2 229.3 331.6C235.6 342 239.8 358.5 240 373.7V376H218C197.3 376 195.9 376.1 194 378C191.3 380.7 191.3 387.3 194 390C195.9 391.9 197.3 392 218 392H240V400V408H210C181.3 408 179.9 408.1 178 410C176.6 411.4 176 413.3 176 416.2C176 420.4 176.4 420.8 193.8 438.2C211.2 455.6 211.6 456 215.8 456C221.4 456 224 453.4 224 447.9C224 444 223.4 443.1 214.3 433.9L204.6 424H222.3H240V452V480H136H32V425.7C32 395.9 32.4 367.4 32.9 362.5C35.7 334 53.8 310.5 80.4 300.8C84.8 299.2 91.8 297.5 96 297.1C106.5 295.9 163.7 295.8 174.1 296.9ZM440 448V480H424H408V448V416H424H440V448Z" fill="#137AB6"/>
<path d="M282 74C280.1 75.9 280 77.3 280 104C280 130.7 280.1 132.1 282 134C283.9 135.9 285.3 136 312 136C338.7 136 340.1 135.9 342 134C343.9 132.1 344 130.7 344 104C344 77.3 343.9 75.9 342 74C340.1 72.1 338.7 72 312 72C285.3 72 283.9 72.1 282 74ZM328 104V120H312H296V104V88H312H328V104Z" fill="#137AB6"/>
<path d="M394 74C392.1 75.9 392 77.3 392 104C392 130.7 392.1 132.1 394 134C395.9 135.9 397.3 136 424 136C450.7 136 452.1 135.9 454 134C455.9 132.1 456 130.7 456 104C456 77.3 455.9 75.9 454 74C452.1 72.1 450.7 72 424 72C397.3 72 395.9 72.1 394 74ZM440 104V120H424H408V104V88H424H440V104Z" fill="#137AB6"/>
<path d="M282 170C280.1 171.9 280 173.3 280 200C280 226.7 280.1 228.1 282 230C283.9 231.9 285.3 232 312 232C338.7 232 340.1 231.9 342 230C343.9 228.1 344 226.7 344 200C344 173.3 343.9 171.9 342 170C340.1 168.1 338.7 168 312 168C285.3 168 283.9 168.1 282 170ZM328 200V216H312H296V200V184H312H328V200Z" fill="#137AB6"/>
<path d="M394 170C392.1 171.9 392 173.3 392 200C392 226.7 392.1 228.1 394 230C395.9 231.9 397.3 232 424 232C450.7 232 452.1 231.9 454 230C455.9 228.1 456 226.7 456 200C456 173.3 455.9 171.9 454 170C452.1 168.1 450.7 168 424 168C397.3 168 395.9 168.1 394 170ZM440 200V216H424H408V200V184H424H440V200Z" fill="#137AB6"/>
<path d="M282 266C280.1 267.9 280 269.3 280 296C280 322.7 280.1 324.1 282 326C283.9 327.9 285.3 328 312 328C338.7 328 340.1 327.9 342 326C343.9 324.1 344 322.7 344 296C344 269.3 343.9 267.9 342 266C340.1 264.1 338.7 264 312 264C285.3 264 283.9 264.1 282 266ZM328 296V312H312H296V296V280H312H328V296Z" fill="#137AB6"/>
<path d="M394 266C392.1 267.9 392 269.3 392 296C392 322.7 392.1 324.1 394 326C395.9 327.9 397.3 328 424 328C450.7 328 452.1 327.9 454 326C455.9 324.1 456 322.7 456 296C456 269.3 455.9 267.9 454 266C452.1 264.1 450.7 264 424 264C397.3 264 395.9 264.1 394 266ZM440 296V312H424H408V296V280H424H440V296Z" fill="#137AB6"/>
<path d="M116 106C93.8 111.8 74.5 127.3 64.5 147.5C58.2 160.1 56 169.6 56 184C56 198.6 58.2 208 64.7 221C68.7 229.1 70.9 231.9 79.5 240.5C88.1 249.1 90.9 251.3 99 255.3C112 261.8 121.4 264 136 264C150.6 264 160 261.8 173 255.3C181.1 251.3 183.9 249.1 192.5 240.5C201.1 231.9 203.3 229.1 207.3 221C213.8 208 216 198.6 216 184C216 169.5 213.8 160.2 207.4 147C203.3 138.8 201.3 136.1 192.6 127.4C183.9 118.7 181.2 116.7 173 112.6C159.6 106.1 150.5 104 135.6 104.1C127 104.1 121.3 104.7 116 106ZM151.4 122.6C170.5 127.2 187.7 142.6 195.2 161.5C197.9 168.4 198.4 171.1 198.8 181C199.3 194.1 197.9 201.4 192.8 211.7C183.6 230.6 163.9 244.6 143.5 246.8C114.2 249.9 87.8 233.9 76.6 206.2C73.6 198.8 73.5 197.9 73.5 184C73.5 170.1 73.6 169.2 76.6 161.8C89 131.3 120.1 115 151.4 122.6Z" fill="#137AB6"/>
</svg>
