<svg width="512" height="512" viewBox="0 0 512 512" fill="none" xmlns="http://www.w3.org/2000/svg">
<path d="M126.4 9.40026C122.1 11.3002 116.7 16.2002 114.5 20.4002L112.6 23.9002L74.5 24.2002L36.5 24.5002L30.5 27.4002C22.8 31.2002 15.2 38.8002 11.4 46.5002L8.5 52.5002V248V443.5L11.5 449.5C15.3 457.2 22.9 464.8 30.5 468.6L36.5 471.5L173.3 471.8L310.1 472L317.4 478.3C329.9 488.9 344.8 496.7 360.9 501.1C367 502.8 372.4 503.3 388 503.7C405.2 504.1 408.7 503.9 417.8 502.1C468.6 491.6 504 448.1 504 396.1C504 372.3 498.1 352.5 485.6 334.5C482.4 329.9 446.4 285.2 438.3 275.9C437.1 274.4 438.8 273.2 454.5 263.9L472.1 253.5L471.8 244.5C471.5 236.9 470.9 234.4 468.3 228.7C462.5 216.5 451.4 207.1 438.4 203.5C432.7 201.9 432.4 201.6 432.8 199C433.1 196.7 432.2 195.5 426.3 190.6C422.6 187.5 415.7 183 411.1 180.7C402.8 176.6 402.5 176.5 392.1 176.5C382.3 176.5 381 176.7 374.8 179.7C371.2 181.4 366.4 184 364.3 185.4L360.5 188L360 120.3L359.5 52.5002L356.6 46.5002C352.8 38.8002 345.2 31.2002 337.5 27.4002L331.5 24.5002L293.4 24.2002L255.3 23.9002L254.2 21.6002C252.3 17.4002 246.6 11.7002 242.5 9.90026C238.8 8.20026 234.6 8.00026 184 8.10026C140.7 8.10026 128.9 8.40026 126.4 9.40026ZM234 24.9002C238.5 26.1002 240 31.0002 240 44.2002V56.0002H184H128V44.6002C128 38.4002 128.5 31.8002 129.1 30.0002C131.2 24.1002 131.5 24.1002 184 24.1002C210.1 24.2002 232.6 24.5002 234 24.9002ZM112 48.0002V56.0002H81.3C52.3 56.0002 50.3 56.1002 47.2 58.0002C45.4 59.1002 43.1 61.4002 42 63.2002C40 66.5002 40 68.7002 40 248C40 427.3 40 429.5 42 432.8C43.1 434.6 45.4 436.9 47.2 438C50.4 440 52.5 440 169.7 440H288.9L292 446.2C293.8 449.7 295.6 452.9 296.1 453.5C296.6 454 297 454.8 297 455.2C297 455.7 240 455.9 170.3 455.8C43.8 455.5 43.5 455.5 39 453.4C33.3 450.7 29.3 446.7 26.6 441L24.5 436.5V247.9V59.4002L27.5 53.5002C30.9 46.8002 37.2 42.1002 44.3 40.9002C46.6 40.6002 62.8 40.2002 80.3 40.1002L112 40.0002V48.0002ZM328.5 42.3002C333.5 44.6002 338.5 49.3002 341.3 54.5002C343.5 58.5002 343.5 58.9002 343.8 131.1L344.1 203.7L339.3 205.8C336.7 206.9 333 208.8 331.3 210L328 212.2V139.3C328 68.4002 327.9 66.4002 326 63.2002C324.9 61.4002 322.6 59.1002 320.8 58.0002C317.7 56.1002 315.7 56.0002 286.8 56.0002H256V47.9002V39.9002L290.3 40.2002C320.6 40.5002 325 40.7002 328.5 42.3002ZM312 194.5V316.9L305.3 325.4C294 339.5 287.2 352.6 282.9 368.6C279.3 382.2 279.1 407.4 282.7 421.7L283.2 424H169.6H56V248V72.0002H184H312V194.5ZM400.5 194.4C406.2 196.8 414 202.4 414 204C414 205.5 402.5 258.3 401.4 262.2C400.9 263.7 399.6 264 392 264C384.4 264 383.1 263.7 382.6 262.2C381.5 258.4 370 205.4 370 204C370 202.4 377.7 196.9 383.3 194.5C387.5 192.6 396.2 192.6 400.5 194.4ZM360.4 241.1C363 253.2 364.9 263.4 364.6 263.7C364.2 264.1 331.9 245.7 329.1 243.4C329 243.3 329.5 240.9 330.4 238.2C332.7 231.4 337.9 225.7 345.2 222.1C355.7 216.8 354.9 215.8 360.4 241.1ZM438.7 221.6C444.8 224.5 451.5 231.9 453.5 237.9C454.4 240.8 455 243.3 454.9 243.4C451.9 245.8 419.8 264.1 419.3 263.7C419 263.3 420.9 253.1 423.6 240.9L428.5 218.8L431.7 219.3C433.5 219.6 436.6 220.7 438.7 221.6ZM339.7 269.9L347 274.2L338.3 284.9C333.6 290.7 329.3 295.9 328.8 296.4C328.4 297 328 289.6 328 280.1V262.8L330.3 264.2C331.5 265 335.8 267.6 339.7 269.9ZM444.5 310.6C470.9 343 476.2 350.5 481 362.4C485.8 374.6 487.3 384.3 486.8 399.9C486.3 411.6 485.8 414.8 483.2 423C469 466.4 428.9 491.5 381.3 487C368.3 485.8 359.2 483.3 348.5 478.1C325.4 466.9 308.7 447.4 300.5 422C298.2 414.9 297.7 411.2 297.2 399.4C296.7 383 298.1 374.7 303.6 361.2C308.6 349.1 311.8 344.5 339.5 310.7L364.5 280.1H392H419.5L444.5 310.6Z" fill="#137AB6"/>
<path d="M88 184V264H80H72V272V280H184H296V272V264H288H280V216V168H240H200V136V104H144H88V184ZM184 144V168H168H152V176V184H160H168V192V200H160H152V208V216H160H168V224V232H160H152V240V248H160H168V256V264H136H104V192V120H144H184V144ZM264 224V264H224H184V224V184H224H264V224Z" fill="#137AB6"/>
<path d="M120 144V152H128H136V144V136H128H120V144Z" fill="#137AB6"/>
<path d="M152 144V152H160H168V144V136H160H152V144Z" fill="#137AB6"/>
<path d="M120 176V184H128H136V176V168H128H120V176Z" fill="#137AB6"/>
<path d="M120 208V216H128H136V208V200H128H120V208Z" fill="#137AB6"/>
<path d="M120 240V248H128H136V240V232H128H120V240Z" fill="#137AB6"/>
<path d="M200 208V216H208H216V208V200H208H200V208Z" fill="#137AB6"/>
<path d="M232 208V216H240H248V208V200H240H232V208Z" fill="#137AB6"/>
<path d="M200 240V248H208H216V240V232H208H200V240Z" fill="#137AB6"/>
<path d="M232 240V248H240H248V240V232H240H232V240Z" fill="#137AB6"/>
<path d="M72 304V312H96H120V304V296H96H72V304Z" fill="#137AB6"/>
<path d="M136 304V312H192H248V304V296H192H136V304Z" fill="#137AB6"/>
<path d="M264 304V312H280H296V304V296H280H264V304Z" fill="#137AB6"/>
<path d="M72 336V344H168H264V336V328H168H72V336Z" fill="#137AB6"/>
<path d="M72 368V376H168H264V368V360H168H72V368Z" fill="#137AB6"/>
<path d="M399.5 319.2C398.7 321.4 368 444.9 368 445.8C368 447 383 450.4 384 449.4C384.9 448.3 416.4 322.1 415.9 321.6C415.3 321.2 402.3 318 401 318C400.4 318 399.7 318.6 399.5 319.2Z" fill="#137AB6"/>
<path d="M341.5 337.9C332.8 341.9 328 349.9 328 360.2C328 368 330.3 373.3 335.5 377.9C340.8 382.5 344.9 384 352 384C362.1 384 370.1 379.1 374.1 370.5C376.3 365.7 376.6 355.4 374.6 350.6C372.6 345.8 367.1 339.9 362.5 337.9C357.1 335.4 346.8 335.4 341.5 337.9ZM357 355C358.1 356.1 359 358.3 359 360C359 361.7 358.1 363.9 357 365C355.9 366.1 353.7 367 352 367C350.3 367 348.1 366.1 347 365C345.9 363.9 345 361.7 345 360C345 358.3 345.9 356.1 347 355C348.1 353.9 350.3 353 352 353C353.7 353 355.9 353.9 357 355Z" fill="#137AB6"/>
<path d="M421.5 385.9C412.8 389.9 408 397.9 408 408.2C408.1 422.4 417.7 432 432 432C446.4 432 456 422.4 456 408C456 397.6 450.7 389.3 441.8 385.6C436.6 383.4 426.5 383.6 421.5 385.9ZM437 403C438.1 404.1 439 406.3 439 408C439 409.7 438.1 411.9 437 413C432.7 417.3 425 414.1 425 408C425 404.2 428.2 401 432 401C433.7 401 435.9 401.9 437 403Z" fill="#137AB6"/>
</svg>
