<svg width="512" height="512" viewBox="0 0 512 512" fill="none" xmlns="http://www.w3.org/2000/svg">
<path d="M121.698 38.0998C112.498 40.2998 104.098 47.0998 99.7981 55.7998C97.5981 60.2998 97.4981 61.6998 97.1981 86.5998L96.8981 112.7L90.8981 113.3C81.6981 114.3 77.4981 117.1 74.4981 124.3C72.6981 128.6 72.2981 157.1 73.9981 163C75.0981 167.1 80.0981 172.4 84.2981 173.9C85.8981 174.5 89.3981 175 92.0981 175H96.9981V181.4V187.7L90.9981 188.3C81.6981 189.3 77.4981 192.1 74.4981 199.3C72.6981 203.6 72.2981 232.1 73.9981 238C75.0981 242.1 80.0981 247.4 84.2981 248.9C85.8981 249.5 89.2981 250 92.0981 250H96.9981L97.1981 350.7L97.4981 451.5L99.7981 456.2C102.998 462.7 109.198 468.7 115.798 471.8L121.498 474.5H255.998H390.498L396.198 471.8C402.798 468.7 408.998 462.7 412.198 456.2L414.498 451.5L414.798 331.7L414.998 212H421.398C429.198 212 433.498 209.5 436.798 203C438.798 199 438.998 197.2 438.998 182.5C438.998 164.2 438.298 160.6 433.798 156.3C429.698 152.3 426.198 151 419.998 151H415.098L414.798 105.7C414.498 60.7998 414.498 60.4998 412.198 55.7998C408.998 49.2998 402.798 43.2998 396.198 40.1998L390.498 37.4998L257.998 37.2998C182.698 37.2998 123.898 37.5998 121.698 38.0998ZM160.998 59.9998C160.998 69.7998 161.398 72.9998 163.198 77.6998C165.998 85.2998 173.798 92.9998 181.498 95.8998C186.998 97.9998 188.498 97.9998 255.998 97.9998C323.498 97.9998 324.998 97.9998 330.498 95.8998C338.198 92.9998 345.998 85.2998 348.798 77.6998C350.598 72.9998 350.998 69.7998 350.998 59.8998V47.7998L369.298 48.1998C389.298 48.5998 392.198 49.2998 398.198 55.6998C404.398 62.1998 403.998 47.4998 403.998 256C403.998 425.6 403.798 446.5 402.398 449.8C400.498 454.5 396.598 458.6 391.498 461.3L387.498 463.5H255.998H124.498L120.498 461.3C115.398 458.6 111.498 454.5 109.598 449.8C108.198 446.5 107.998 425.6 107.998 256C107.998 47.4998 107.598 62.1998 113.798 55.6998C119.898 49.1998 123.998 48.1998 144.798 48.0998L160.998 47.9998V59.9998ZM339.998 58.3998C339.998 64.1998 339.498 70.0998 338.898 71.6998C336.798 77.2998 332.798 81.8998 327.698 84.4998L322.598 86.9998H255.898H189.198L183.898 84.1998C179.998 82.1998 177.698 80.0998 175.498 76.4998C172.698 71.9998 172.498 70.9998 172.198 59.7998L171.798 47.9998H255.898H339.998V58.3998ZM96.9981 144.6V164.3L92.3981 163.7C85.0981 162.9 84.5981 161.8 84.0981 147.4C83.5981 127.9 84.6981 125 92.5981 125H96.9981V144.6ZM425.898 164.4C427.198 165.7 427.598 168.6 427.798 178.7C428.398 198.2 427.298 201 419.398 201H414.998V181.4V161.7L419.598 162.3C422.098 162.5 424.898 163.5 425.898 164.4ZM96.9981 219.6V239.3L92.2981 238.6C84.9981 237.6 84.5981 236.8 84.0981 222.4C83.5981 202.9 84.6981 200 92.5981 200H96.9981V219.6Z" fill="#137AB6"/>
<path d="M252 128C250.4 129.6 250 131.3 250 136.7C250 145.7 251.5 148.5 256 148.5C260.5 148.5 262 145.7 262 136.7C262 129.4 260.1 126 256 126C254.9 126 253.1 126.9 252 128Z" fill="#137AB6"/>
<path d="M205.2 147.2C204.5 147.9 204 149.8 204 151.6C204 154.1 205.1 155.7 209.4 159.9C215.3 165.4 218.5 166.3 221.3 163.2C224.2 160 223.3 157.2 217.6 151.4C212 145.8 207.9 144.5 205.2 147.2Z" fill="#137AB6"/>
<path d="M294.297 151.5C288.597 157.4 287.697 160.5 290.797 163.3C293.997 166.3 296.997 165.3 302.697 159.7C308.197 154.1 309.597 150 306.797 147.2C303.997 144.4 299.797 145.8 294.297 151.5Z" fill="#137AB6"/>
<path d="M245.7 157C227.4 161.7 214 178.9 214 197.8C214 214.8 223 228.9 238.8 236.3C245 239.3 246.3 239.5 256 239.5C265.7 239.5 267 239.3 273.2 236.3C305.9 220.8 306 175.1 273.4 159.8C268 157.3 265.3 156.7 258.2 156.4C253.4 156.2 247.8 156.5 245.7 157ZM268.3 170C275.3 173.3 279.7 177.6 283.2 184.7C285.9 190.1 286.4 192.4 286.4 198C286.4 210.1 279.6 220.6 268 226.2C261.1 229.5 250.3 229.3 242.8 225.7C221.4 215.2 219.1 186.8 238.7 172.7C246.9 166.8 259.1 165.7 268.3 170Z" fill="#137AB6"/>
<path d="M187.799 193.1C182.999 194.9 182.899 201.3 187.699 203.1C191.699 204.6 202.299 204.2 204.799 202.4C207.199 200.7 207.699 197.3 205.699 194.7C204.199 192.5 191.899 191.5 187.799 193.1Z" fill="#137AB6"/>
<path d="M309.3 192.6C306.2 193.3 304.8 195.4 305.2 198.7C305.6 202.5 309 204 317.3 204C324.5 204 328 202.1 328 198.2C328 194.3 325.8 192.9 318.5 192.5C314.6 192.3 310.5 192.4 309.3 192.6Z" fill="#137AB6"/>
<path d="M209.5 236.3C205.2 240.4 204 242.3 204 244.6C204 248.4 205.6 250 209.6 250C212.1 250 213.7 248.9 217.9 244.6C223.4 238.7 224.3 235.5 221.2 232.7C218.1 229.8 215.3 230.7 209.5 236.3Z" fill="#137AB6"/>
<path d="M290.696 232.799C287.696 235.999 288.696 238.999 294.296 244.699C299.896 250.199 303.996 251.599 306.796 248.799C309.596 245.999 308.196 241.899 302.696 236.299C296.896 230.599 293.596 229.599 290.696 232.799Z" fill="#137AB6"/>
<path d="M251.895 249.1C249.995 251 249.795 252.1 250.195 259.2C250.495 267.5 251.895 270 255.995 270C260.095 270 261.495 267.5 261.795 259.2C262.195 252.1 261.995 251 260.095 249.1C258.895 247.9 257.095 247 255.995 247C254.895 247 253.095 247.9 251.895 249.1Z" fill="#137AB6"/>
<path d="M324.997 281.6C324.397 283 323.997 285.7 323.997 287.6V291H236.997C150.097 291 149.997 291 147.897 293.1C145.797 295.2 145.897 299.2 148.097 301.5C148.797 302.1 179.897 302.6 236.497 302.8L323.997 303V306.8C323.997 311.8 326.297 315 329.897 315C333.597 315 335.097 313 335.697 307.6L336.197 303.2L349.597 302.8C364.097 302.5 365.297 302 365.297 296.9C365.297 291.7 363.297 291 348.797 291H335.997V288.1C335.997 286.6 335.497 283.9 334.897 282.1C333.897 279.3 333.397 279 329.897 279C326.597 279 325.797 279.4 324.997 281.6Z" fill="#137AB6"/>
<path d="M171.598 340.599C169.698 342.399 169.498 347.099 171.198 348.799C172.898 350.499 339.098 350.499 340.798 348.799C342.498 347.099 342.298 342.399 340.398 340.599C338.998 339.199 329.998 338.999 255.998 338.999C181.998 338.999 172.998 339.199 171.598 340.599Z" fill="#137AB6"/>
<path d="M144.596 367.199C142.396 367.799 139.096 369.899 136.996 371.999C126.796 382.199 131.496 400.399 145.296 403.799C151.796 405.499 360.196 405.499 366.696 403.799C372.896 402.299 378.296 396.799 379.896 390.499C382.496 380.099 376.596 369.599 366.696 367.199C360.596 365.599 150.396 365.699 144.596 367.199ZM366.696 380.199C371.196 384.399 369.296 391.299 363.196 392.999C358.096 394.399 153.896 394.399 148.796 392.999C146.696 392.399 144.596 391.099 143.996 389.999C142.396 386.899 142.796 382.199 144.996 379.999C146.996 377.999 148.296 377.999 255.696 377.999H364.396L366.696 380.199Z" fill="#137AB6"/>
<path d="M219.602 64.2C217.602 67.1 217.602 69.4 219.602 71.4C220.902 72.8 225.602 73 256.002 73C286.402 73 291.102 72.8 292.402 71.4C294.402 69.4 294.402 67.1 292.402 64.2L290.902 62H256.002H221.102L219.602 64.2Z" fill="#137AB6"/>
</svg>
