<svg width="512" height="512" viewBox="0 0 512 512" fill="none" xmlns="http://www.w3.org/2000/svg">
<path d="M228.5 11.9004C186 19.7004 150.5 41.3004 125.3 74.8004C117.6 85.1004 109 100 109 103.2C109 108.2 114.8 111.7 118.8 109.2C119.5 108.7 122.3 104.4 125.1 99.5004C129.4 92.0004 136.3 81.8004 139.1 78.6004C139.6 78.1004 142.8 80.4004 146.4 83.8004C150 87.2004 157 92.7004 162 96.2004C168.5 100.7 170.9 102.9 170.4 104C166.7 113.5 161.6 140.3 160.4 156.7L159.7 166H132.8H105.8L106.5 157.5C107.1 150.1 107 148.7 105.5 147C102.7 144 97.4995 144.3 95.2995 147.7C93.6995 150.1 93.4995 153 93.5995 173C93.5995 192.4 93.8995 196.9 95.7995 205.4C103.3 239 118.8 267.3 142.3 290.1L149.1 296.8L126.4 339.6C97.2995 394.7 97.5995 391.8 119.6 404.2C129.1 409.5 132.4 410.9 135.8 411C141.1 411 145.2 409 147.7 405C149.5 402.2 149.7 402.1 151.8 403.6C153 404.4 154 405.6 154 406.1C154 406.7 151.3 410.9 148 415.4C141.1 424.9 139 429.5 139 434.7C139.1 445 149.1 455 159.6 455C161 455 162.1 456.2 163.4 459C164.3 461.2 166.7 464.3 168.7 465.9C172.2 468.8 181.5 471.9 182.7 470.6C183.1 470.3 184.5 472.4 185.9 475.2C189 481.4 195.2 485.7 201.8 486.3C205.8 486.6 206.3 487 208 490.6C211.5 498.4 217.4 502 226.6 502C234.9 502 239.3 499.3 245.7 490.1C245.9 489.9 247.7 491 249.8 492.7C257.7 499.1 265.1 501.1 272.8 499C278.3 497.6 284.4 492 286.5 486.7L288.1 482.5L293.9 482.4C303.3 482.4 311.4 476.3 313.5 468C314 465.7 314.5 465.5 317.6 465.8C326.1 466.8 337.8 459.6 339.4 452.4C340 449.6 340.2 449.5 345.6 449.8C352.9 450.3 358.9 448 363.4 443C371.3 434.3 370.6 421 361.8 413L358.6 410L361.4 407.1L364.2 404.2L367.6 406.2C372.7 409.2 378.4 408.2 392.4 401.9C413.2 392.5 413.3 392 395.1 354C387.9 338.9 381.1 325.7 379.8 324.7C375.9 321.5 370 324.5 370 329.7C370 330.9 375.6 343.9 382.5 358.4C389.4 373 395 385.3 395 385.7C395 386.6 375 395.4 374.5 394.8C374.4 394.6 364 372.9 351.5 346.5C339 320.1 327.5 296 325.9 292.9L323.1 287.3L332.3 283.7C337.4 281.7 342.3 279.8 343.3 279.4C344.7 278.9 345.5 279.9 347.4 284.3C349.8 289.6 351.3 291 355 291C356 291 358 292.4 359.4 294.1L362 297.2L366.3 293.4C385 276.9 402.3 250.3 410.5 225.6C417.1 205.8 418.4 197.1 418.4 172.5C418.4 153.5 418.1 149.1 416.2 140.4C405.2 89.7004 372.6 47.7004 327.5 26.0004C314.4 19.7004 306 16.8004 291.5 13.4004C280.9 11.0004 277.2 10.6004 259 10.4004C242.4 10.1004 236.6 10.4004 228.5 11.9004ZM250 68.5004V112H245.8C239.3 112 224.5 109.4 214.5 106.5C202.6 103 188 96.8004 188 95.2004C188 93.1004 195.9 78.0004 201.5 69.5004C208.5 58.8004 218.6 47.2004 226.8 40.4004C233.7 34.7004 247.8 25.0004 249.2 25.0004C249.6 25.0004 250 44.6004 250 68.5004ZM271.9 30.5004C292.5 44.2004 308.5 62.7004 320.1 86.3004C325.3 96.8004 325.9 96.0004 310.6 101.9C295.8 107.6 276.7 111.9 265.8 112H262V68.4004C262 28.2004 262.1 24.8004 263.7 25.4004C264.6 25.8004 268.3 28.0004 271.9 30.5004ZM210.8 37.3004C198.6 49.5004 189.2 62.3004 181.3 77.7004C178.2 83.9004 175.3 89.0004 175 89.0004C173.8 89.0004 157.2 75.8004 153.2 71.7004L148.8 67.3004L155.5 61.4004C171.2 47.5004 189.3 36.9004 208.1 30.5004C213.8 28.6004 219.1 27.0004 219.8 27.0004C220.5 27.0004 216.5 31.6004 210.8 37.3004ZM301.2 29.6004C319.8 35.4004 341.9 48.1004 356.9 61.8004L363.4 67.6004L355.4 74.4004C351.1 78.2004 345 82.9004 341.9 85.0004L336.4 88.8004L330.6 77.7004C322.8 62.3004 313.4 49.4004 301.2 37.3004C295.5 31.6004 291.4 27.0004 291.9 27.0004C292.5 27.0004 296.6 28.2004 301.2 29.6004ZM377.2 84.2004C387.4 98.2004 395.8 115.4 400.5 131.9C402.9 140.3 406 157.8 406 163.2V166H379H352V163.7C352 151.7 347.7 125.2 343.4 110.2C341.7 104.4 341.2 101.4 342 101.2C344 100.5 359.4 88.8004 365.4 83.3004C368.7 80.4004 371.6 78.0004 372 78.0004C372.3 78.0004 374.7 80.8004 377.2 84.2004ZM192 112.6C207.5 119.1 232.7 125 245.1 125H250V145.5V166H211.5H173V163.2C173 156.7 176.2 134.6 178.6 124.5C180 118.4 181.4 112.5 181.7 111.2C182 110 182.5 109 182.9 109C183.3 109 187.4 110.6 192 112.6ZM330.3 111.2C330.6 112.5 332 118.4 333.4 124.5C335.8 134.6 339 156.7 339 163.2V166H300.5H262V145.6V125.3L270.7 124.6C286.8 123.4 308.8 117.7 323 111.1C328.7 108.5 329.6 108.5 330.3 111.2ZM160.4 188.2C161.7 205.9 166.7 232.3 170.5 242.1C170.9 243.2 169.5 244.6 165.3 247.2C162.1 249.2 155 254.6 149.4 259.3C142 265.5 139.1 267.4 138.4 266.5C124 246.9 116 230.7 110.7 210.5C108.1 200.6 106 187.6 106 181.9V179H132.9H159.7L160.4 188.2ZM250 199.5V219.9L246.8 220.4C245 220.6 239.2 221.4 233.8 222C220.8 223.5 206.7 227.2 193.7 232.4C187.8 234.8 182.8 236.5 182.6 236.1C180.1 231.9 174.6 203.3 173.5 188.2L172.8 179H211.4H250V199.5ZM338.5 188.2C337.3 204.6 331.6 233.6 329.1 236.3C328.7 236.7 325.5 235.7 321.9 234.1C308 227.9 288 222.6 273.9 221.5C260.6 220.4 262 223 262 199.5V179H300.6H339.2L338.5 188.2ZM405.6 186.7C403.1 214.3 391.3 243.7 373.6 266.3C372.3 268 371.6 267.7 363.3 260.5C358.5 256.4 351.4 250.9 347.7 248.4C342.6 244.9 341 243.4 341.5 242.1C345.3 232.3 350.3 205.9 351.6 188.2L352.3 179H379.3H406.3L405.6 186.7ZM250 261.3V289.6L236.3 294.3C228.7 296.9 222 299.1 221.4 299.3C219.8 299.6 208.9 287.2 202.7 278C197.4 270.2 188 252.6 188 250.5C188 249.8 191 247.9 194.8 246.3C207.9 240.4 225.8 235.6 240.5 234.1C244.9 233.6 248.8 233.2 249.3 233.1C249.7 233.1 250 245.7 250 261.3ZM278 235.1C293.4 237.2 324 247.4 324 250.4C324 255.2 307.8 281.7 299.2 291.1L294.5 296.2L283.5 293.2C277.4 291.4 270.1 289.6 267.3 288.9L262 287.8V260.5V233.2L266.3 233.6C268.6 233.9 273.9 234.5 278 235.1ZM179.9 264.7L184 272.9L179.3 270.5C173.8 267.5 171.8 267.4 166.5 269.9C163.3 271.3 161.7 273 159.2 277.9C155.6 284.5 154.7 284.7 150.5 280L148.5 277.8L153.5 273.3C158.4 268.8 175.3 255.9 175.6 256.3C175.7 256.4 177.6 260.2 179.9 264.7ZM344.3 262.3C347.4 264.5 350 266.3 350 266.4C350 266.5 348.1 266.4 345.7 266.2C342.8 265.9 339.4 266.6 335.2 268.3L329.1 270.8L332.6 263.9C334.9 259.3 336.5 257.2 337.3 257.6C338 258 341.1 260.1 344.3 262.3ZM361.8 279.7C360.5 281.3 360.8 281.6 358 276L355.8 271.5L359.4 274.9C362.2 277.6 362.7 278.6 361.8 279.7ZM182.6 287.7C187.7 290.9 191.7 293.7 191.5 294C191.4 294.3 179 317.7 164 346C149 374.3 136.6 397.7 136.4 397.9C135.9 398.4 117 387.7 117 386.8C117 386.1 164.6 295.2 169.7 286.2C171 283.9 172.4 282 172.7 282C173 282 177.4 284.6 182.6 287.7ZM279.4 305.6C295.8 310 296.8 310.2 307.8 309.9L319.3 309.5L338.7 350.5L358.2 391.4L353.1 396.3L348 401.1L340.3 394.4C336 390.7 319.1 374.6 302.7 358.6C286.3 342.6 271.2 328.5 269.2 327.3C267.2 326.1 261.9 324.1 257.5 322.9C247.3 320.2 242.4 321.2 236.8 327.1C233.3 330.8 232.3 333.1 229 345.8C226.8 354.2 218.1 360.9 209.3 361C206.9 361 205 360.8 205 360.6C205 359.1 211.9 339.9 215.7 330.5C220.8 318.2 222.7 315.1 227.1 311.9C230.4 309.6 255.9 301.1 259.9 301.1C261.3 301 270 303.1 279.4 305.6ZM208 314.4C208 314.6 205.8 320.1 203.1 326.6C200.4 333.2 196.3 344.5 193.9 351.8C189.8 364.2 189.6 365.3 191 367.7C194.3 373.6 210.8 375.9 221.4 372C227.8 369.6 235.1 363.5 238.5 357.6C239.8 355.3 241.6 350.5 242.3 347C244.9 334.6 246.7 333.2 256.4 336.4C263.9 339 261.7 337 301.5 376.1C313.6 388 330.3 403.5 338.5 410.5C353.5 423.2 355.9 425.9 356 429.3C356 432.3 350.6 437 347.1 437C343.9 437 342.5 436 320.9 417.3C312.9 410.4 310.7 409 307.8 409C303.4 409 302 410.5 302 415.1C302 418.5 302.7 419.4 314.5 429.4C322.6 436.3 327.2 441.1 327.7 442.7C328.9 447.9 323 454 317.9 452.7C316.6 452.4 309.9 447.3 303.1 441.5C290.2 430.6 287.5 429.3 283.8 432.7C282.8 433.6 282 435.7 282 437.6C282 440.5 283 441.8 291 448.6C295.9 452.9 300.3 457.5 300.8 459C302.8 464.6 296.6 471.3 291.1 469.5C289.9 469.1 285 465.5 280.2 461.4C270.9 453.6 267.5 452.3 263.8 455.7C261.5 457.8 261.5 462.5 263.8 464.7C264.9 465.7 267.8 468.5 270.3 470.8C274.1 474.3 275 475.8 275 478.5C275 482.3 270.4 487 266.6 487C265.3 487 261.5 484.9 258.1 482.3C252.4 477.9 252 477.3 252 473.6C252 467.5 248.5 461.3 243.2 457.9C240.7 456.3 237.6 455 236.3 455C234.3 455 234 454.5 234 451C234 448.8 233.4 445.5 232.6 443.7C231 439.6 225.3 434.6 220.7 433.1C217.5 432 217.2 431.5 216.6 427.1C215.7 420.4 211.2 414.4 204.9 411.7C200.3 409.6 200 409.3 200 405.7C199.9 388 178.4 379.5 165.4 392.1L162.2 395.2L159.1 392.3L155.9 389.5L175.7 352.3C186.5 331.8 196.1 314.9 197 314.7C198.9 314.1 208 313.9 208 314.4ZM184.7 401.2C188.7 404.9 187.7 407.5 176.1 423.5C163.1 441.3 161.4 442.8 157 441C153.7 439.7 152 437.3 152 434.3C152 432.6 170.4 406.4 175.2 401.3C177.9 398.4 181.7 398.3 184.7 401.2ZM201.9 425.6C203.1 427.1 204 429 204 429.9C204 432.2 188.3 453.7 184.7 456.4C182.1 458.3 181.7 458.3 179.2 456.9C175.7 455 173.9 451.4 175 448.4C176.1 445.5 189.5 427.1 192.2 424.7C195.2 422.1 199.5 422.5 201.9 425.6ZM218.8 447C222.4 450.4 221.6 453.8 215 463C211.7 467.6 207.9 472 206.6 472.7C202.1 475 197 471.5 197 466C197 463.7 208.2 447.6 210.9 446C213.5 444.5 216.5 444.9 218.8 447ZM237.3 470.2C240 473.4 239.4 476.3 234.5 482.9C230.6 488.2 229.6 489 226.8 489C223 489 219 485.6 219 482.5C219 479.7 226.6 469.1 229.4 468C232.2 466.9 235.1 467.7 237.3 470.2Z" fill="#137AB6"/>
</svg>
