<svg width="512" height="512" viewBox="0 0 512 512" fill="none" xmlns="http://www.w3.org/2000/svg">
<path d="M66 18C64 20 64 21.3 64 256C64 490.7 64 492 66 494C68 496 69.3 496 256 496C442.7 496 444 496 446 494C448 492 448 490.7 448 303.8V115.5L398.2 65.8L348.5 16H208.2C69.3 16 68 16 66 18ZM141 32.8C141 33.3 140.3 35.9 139.5 38.7C137 47.2 136.4 47.4 116.4 48C104.1 48.4 98.7 48.9 97.8 49.8C96.9 50.7 96.4 56.1 96 68.4C95.4 88.4 95.2 89 86.7 91.5C83.9 92.3 81.3 93 80.8 93C80.4 93 80 79.3 80 62.5V32H110.5C127.3 32 141 32.4 141 32.8ZM336 78C336 122.7 336.1 124.1 338 126C339.9 127.9 341.3 128 386 128H432V304V480L295.3 479.8L158.6 479.5L156.8 472.5C155.9 468.6 155 465.2 155 464.7C155 464.3 161.5 464 169.5 464H184V456V448H148H112V412V376H104H96V390.5C96 398.5 95.7 405 95.3 405C94.8 405 91.4 404.1 87.5 403.2L80.5 401.4V256V110.6L87.5 108.8C91.4 107.9 94.8 107 95.3 107C95.7 107 96 113.5 96 121.5V136H104H112V100V64H148H184V56V48H169.5C161.5 48 155 47.7 155 47.4C155 46.7 157.9 35.1 158.5 33.2C158.8 32.3 177.5 32 247.5 32H336V78ZM386 78.5L419.5 112H385.7H352V78.5C352 60.1 352.1 45 352.3 45C352.4 45 367.6 60.1 386 78.5ZM86.7 420.5C95.2 423 95.4 423.6 96 443.6C96.4 455.9 96.9 461.3 97.8 462.2C98.7 463.1 104.1 463.6 116.4 464C136.4 464.6 137 464.8 139.5 473.3C140.3 476.1 141 478.7 141 479.2C141 479.6 127.3 480 110.5 480H80V449.5C80 432.7 80.4 419 80.8 419C81.3 419 83.9 419.7 86.7 420.5Z" fill="#137AB6"/>
<path d="M225.8 81.8C200.2 107.3 200 107.6 200 111.8C200 118 202.4 120 210 120H216V142C216 162.7 216.1 164.1 218 166C219.9 167.9 221.3 168 256 168C290.7 168 292.1 167.9 294 166C295.9 164.1 296 162.7 296 142V120H302C309.6 120 312 118 312 111.8C312 107.6 311.8 107.3 286.2 81.8L260.5 56H256H251.5L225.8 81.8ZM270 90.5L283.5 104H256H228.5L242 90.5C249.4 83.1 255.7 77 256 77C256.3 77 262.6 83.1 270 90.5ZM280 136V152H272H264V144V136H256H248V144V152H240H232V136V120H256H280V136Z" fill="#137AB6"/>
<path d="M226 186C224.1 187.9 224 189.3 224 215.6V243.3L220.3 242.6C218.2 242.3 215.8 242 214.9 242C213.6 242 213.4 241.1 213.7 237.2L214.2 232.5L200.1 218.6C186.2 204.8 186 204.7 182.3 205.3C178.9 205.9 173.9 210.5 137.3 247.3L96 288.5V292.9C96 297.2 96.4 297.7 107.7 309.2C120.8 322.5 123.7 324.5 128.7 323.7C130.5 323.4 132 323.3 132 323.5C132 327.6 137.5 358.1 138.6 360.3C141.9 366.9 148.4 371.9 155.6 373.4C158.3 374 158.8 374.6 159.4 378C160.6 385.5 169.6 394.4 177.3 395.7C179.4 396 181.3 396.8 181.5 397.4C181.6 398 182.3 400.5 183 403C184.7 409.4 192 416.3 198.9 418.1C202.3 418.9 204 419.9 204 420.9C204.1 423.6 208 431.4 210.8 434.3C214.3 438 219.4 440.6 225 441.5C228.7 442.1 230.7 443.4 236.7 449.1C242.5 454.6 245 456.2 249.6 457.6C256 459.4 262.4 458.9 268 456C269.9 455 288.4 437.1 309.1 416.3C343.6 381.6 346.8 378.1 348 373.7C350.1 365.8 348.6 357.7 343.7 350.8C342.7 349.2 344.5 347 359 332.5C369.7 321.8 375.8 316.4 376.4 317C377 317.6 379.2 318 381.4 318C385.2 318 386.1 317.3 398.7 304.7C411.3 292.1 412 291.2 412 287.5C412 283.6 411.2 282.7 370.2 241.7C329.1 200.6 328.4 200 324.5 200C320.7 200 319.8 200.7 307.1 213.4L293.8 226.7L294.1 231.8C294.5 236.4 294.2 237.2 291.2 240.3L287.9 243.7L266.8 238.5C251.1 234.6 244.9 233.4 242.8 234L240 234.9V217.4V200H264H288V192V184H258C229.3 184 227.9 184.1 226 186ZM386.2 292.2L381 297.5L347.5 264L314 230.5L319.2 225.3L324.5 220L358 253.5L391.5 287L386.2 292.2ZM160 269.5L126.5 303L121.5 298L116.5 293L150 259.5L183.5 226L188.5 231L193.5 236L160 269.5ZM336 276.5L363.5 304L347 320.5L330.5 337L319.8 326.3L309 315.5L317 307.5C321.4 303.1 325 299 325 298.5C325 297.2 314.8 287 313.5 287C312.9 287 308.9 290.6 304.5 295L296.6 303L279.5 286.1C270.2 276.8 261.3 268.7 259.9 268.1C258.4 267.6 256.2 267.4 254.9 267.7C253.6 268 247.7 272.9 241.9 278.6C230.2 290 227.9 291 223.5 286.5C218.8 281.8 219.7 279.9 234.5 265L248 251.4L269.2 256.8C282.3 260.1 291.3 261.9 292.8 261.5C294.2 261.2 298.1 258.2 301.4 255C304.8 251.7 307.7 249 308 249C308.3 249 320.9 261.4 336 276.5ZM208.2 258.2L215.9 259.3L211.1 264.5C206.1 270 204 275.1 204 281.7C204 294.7 215.3 306 228.3 306C236 306 240.1 304 248.6 295.8L256.6 288.1L294.3 325.8C325.4 356.9 332 364 332 366.3C332 368 330.7 370.5 328.3 373.1L324.7 377.1L313.3 365.8L302 354.5L296 360.5L290 366.5L301.2 377.7L312.5 389L307.2 394.2L302 399.5L290.7 388.2L279.5 377L273.5 383L267.5 389L278.8 400.3L290 411.5L284.7 416.8L279.4 422L271.7 414.2C266.5 408.9 264 405.7 264 404.1C264 399.7 261.7 394 258.3 390.1C254.8 386 247.9 382 244.2 382C242.9 382 241.8 381.4 241.6 380.7C241.4 380.1 240.7 377.6 240.1 375.2C239.4 372.9 237.5 369.3 235.7 367.3C232.6 363.8 224.1 359 220.8 359C219.8 359 218.9 357.8 218.5 355.7C216.3 345.8 209.2 338.8 198.9 336.6C196.9 336.2 196.2 335.1 195.1 331.1C192.5 320.9 183.3 314 172.2 314C164.4 314 159.7 315.9 154.3 321.2C151.9 323.5 149.9 325.2 149.7 324.9C149.5 324.7 148.8 320.7 148.1 316L147 307.5L172.2 282.3C186.1 268.4 198.2 257 199 257C199.8 257 204 257.5 208.2 258.2ZM177 333C178.2 334.2 179 336.3 179 338.2C179 340.8 177.7 342.7 171.2 349.2C162.5 357.9 159.7 358.8 155.5 354.5C151.2 350.3 152.1 347.5 160.8 338.8C167.3 332.3 169.2 331 171.8 331C173.7 331 175.8 331.8 177 333ZM200.3 356.2C203.6 360.1 202.5 362.7 194.3 371.1C187.8 377.8 186.2 379 183.3 379C179.1 379 176 376 176 371.9C176 369.6 177.3 367.5 181.8 362.8C191.3 352.7 195.9 351.1 200.3 356.2ZM220.5 376.6C222.1 377.3 225 382 225 384.1C225 384.7 221.3 389 216.8 393.6C210.5 400.1 208 402 205.9 402C202.5 402 199.3 399.3 198.4 395.7C197.9 393.3 198.7 392.1 206.1 384.5C214.2 376.1 216.3 375 220.5 376.6ZM242.9 399.5C246 401.1 247 402.8 247 406.7C247 409.5 236.4 421.2 231.6 423.7C226.7 426.2 221 422.6 221 417C221 413.6 235.6 399 239.8 398.1C240 398 241.4 398.7 242.9 399.5ZM263.8 437.7C258.5 442.8 255.9 442.9 250.8 438.1L246.5 434.1L251.5 429.1L256.4 424L261.7 429.2L267 434.4L263.8 437.7Z" fill="#137AB6"/>
<path d="M336 416V424H376H416V416V408H376H336V416Z" fill="#137AB6"/>
<path d="M352 448V456H376H400V448V440H376H352V448Z" fill="#137AB6"/>
</svg>
