<svg width="512" height="512" viewBox="0 0 512 512" fill="none" xmlns="http://www.w3.org/2000/svg">
<path d="M257.9 3.30024C247.7 7.60024 240.7 14.3003 236.1 23.9003C233.8 28.8003 233.5 30.7003 233.5 40.1003C233.5 50.1003 233.7 51.0003 237 57.7003L240.5 64.7003L235.6 67.6003C225.8 73.4003 215.7 87.5003 213.1 99.0003C212.5 101.5 212 111.7 212 121.6C212 139.6 212 139.7 214.5 142.2C215.9 143.6 218.4 145 220.1 145.4C226.2 146.6 323.3 146 327 144.7C332.8 142.7 334 139 334 122.5C334 106.6 332.4 97.7003 328.2 88.5003C324.7 81.2003 314.8 70.2003 308.6 66.9003L304.2 64.6003L306.1 61.9003C313.4 51.6003 314.4 34.6003 308.4 22.5003C304.8 15.4003 296.9 7.70024 289.6 4.30024C284.4 2.00024 282 1.50024 273.5 1.20024C264.9 1.00024 262.7 1.30024 257.9 3.30024ZM283.7 19.4003C291.1 23.2003 296.2 31.7003 296.2 40.0003C296.2 53.0003 285.7 63.3003 272.5 63.3003C265.3 63.3003 259.9 60.9003 254.8 55.2003C250.2 50.2003 248.7 45.3003 249.2 37.9003C250.4 21.8003 269.1 11.7003 283.7 19.4003ZM262 78.3003C267.4 79.9003 279.8 79.5003 285.4 77.6003L290.2 75.8003L296.5 78.9003C304.6 82.9003 312.1 90.9003 315.1 98.8003C316.8 103.2 317.4 107.4 317.8 117.2L318.3 130H273H227.8L228.2 115.7C228.5 101.7 228.6 101.4 231.9 95.2003C233.9 91.5003 237.5 86.9003 240.4 84.4003C245.7 79.8003 254.4 75.7003 257 76.7003C257.8 77.0003 260.1 77.7003 262 78.3003Z" fill="#137AB6"/>
<path d="M210.804 47.9999C206.204 49.3999 193.304 56.9 184.704 63.2C157.704 83.2 137.904 111.6 129.104 143.2C126.204 153.6 126.304 158.3 129.604 160.9C135.204 165.3 141.004 162.2 143.004 153.8C151.704 116.9 177.504 83.4 210.104 66.5C219.704 61.6 220.704 60.5999 221.604 56.2999C222.004 53.9999 221.604 52.6999 219.804 50.6999C217.104 47.6999 214.504 46.8999 210.804 47.9999Z" fill="#137AB6"/>
<path d="M328.502 47.9996C327.302 48.3996 325.802 49.4996 325.102 50.3996C323.802 51.9996 323.302 58.0996 324.402 59.7996C324.702 60.3996 328.502 62.6996 332.802 65.0996C368.102 84.3996 391.902 114 401.202 150.2C404.102 161.6 407.802 164.9 414.402 161.9C418.402 160 419.302 156.4 417.502 148.8C415.302 139.4 410.402 125.8 406.002 116.9C392.202 89.4996 365.002 62.2996 339.002 50.0996C332.002 46.7996 331.602 46.6996 328.502 47.9996Z" fill="#137AB6"/>
<path d="M144.699 174C102.799 181.6 73.999 215.4 73.899 257.1C73.799 285.9 86.599 311.1 109.199 326.7C118.599 333.2 122.599 335.2 132.999 338.5C144.399 342.2 162.599 343.1 175.099 340.5C207.199 334 231.999 310.1 240.699 277C243.199 267.3 242.999 247 240.099 236.5C235.499 219.4 225.299 203.2 212.099 192.3C204.599 186.1 188.599 178 178.999 175.5C171.399 173.6 151.599 172.7 144.699 174ZM178.499 192.4C214.199 203.8 234.599 241.8 223.799 276.9C220.299 288.5 215.199 296.8 206.499 305.5C192.699 319.2 180.199 324.9 161.899 325.7C148.799 326.4 139.599 324.5 128.299 319.1C109.899 310.2 95.999 292.9 91.399 273.2C89.399 264.7 89.499 249.3 91.499 241.5C96.699 221 113.099 202.1 132.299 194.3C147.099 188.3 163.599 187.6 178.499 192.4Z" fill="#137AB6"/>
<path d="M144.199 197.5C122.899 202.1 103.999 220.5 98.2994 242.1C95.6994 252.3 96.0994 266.6 99.4994 276.5C106.499 297.3 122.199 312.1 143.099 317.5C152.099 319.9 169.999 319.1 178.899 316C204.399 307 221.399 280.9 219.599 253.7C218.499 237.4 212.399 224.5 200.399 213C185.399 198.8 164.699 193.1 144.199 197.5ZM170.199 213.8C186.099 218.2 198.099 230.9 202.499 247.7C207.699 267.7 196.999 289.4 177.099 298.9C169.699 302.4 169.199 302.5 157.899 302.5C146.599 302.5 146.199 302.4 138.899 298.8C129.599 294.2 121.199 285.7 116.999 276.8C100.699 242 133.199 203.6 170.199 213.8Z" fill="#137AB6"/>
<path d="M152.503 217.499C151.103 218.799 150.003 220.899 150.003 222.199C150.003 223.799 148.803 225.199 146.003 226.799C134.403 233.399 132.603 251.199 142.603 259.999C146.003 262.899 146.003 262.999 143.603 262.999C140.503 262.999 137.003 267.299 137.003 270.999C137.003 277.499 141.803 285.799 147.103 288.499C149.003 289.499 150.003 290.799 150.003 292.299C150.003 293.499 150.703 295.599 151.603 296.799C156.003 303.099 166.003 300.499 166.003 293.199C166.003 292.199 167.603 290.299 169.703 288.899C171.703 287.599 174.703 284.799 176.403 282.699C179.003 279.499 179.503 277.899 179.803 272.099C180.203 264.699 178.903 260.799 174.203 255.799L171.703 253.099L174.303 252.099C182.203 249.099 179.803 234.299 170.303 227.699C167.103 225.399 166.003 223.999 166.003 221.999C166.003 215.699 157.203 212.699 152.503 217.499ZM163.103 245.199L164.803 249.999H160.603C153.703 249.999 150.503 246.599 153.103 241.899C153.903 240.299 155.003 239.999 157.803 240.199C161.103 240.499 161.603 240.899 163.103 245.199ZM162.803 267.299C164.603 268.799 164.203 272.499 162.003 274.499C159.103 277.099 154.903 275.499 153.703 271.499C153.203 269.799 152.403 267.699 151.903 266.799C151.103 265.299 151.603 265.199 156.303 265.699C159.103 265.999 162.103 266.699 162.803 267.299Z" fill="#137AB6"/>
<path d="M371.498 174.5C338.298 180.8 312.798 205 304.798 238C301.898 249.7 301.998 267.4 304.898 278.5C311.998 305.2 331.898 327.6 357.098 337C375.798 343.9 400.598 343.7 418.498 336.4C443.498 326.2 461.998 305.1 469.098 278.5C472.098 267.2 472.098 247.8 469.098 236.6C457.498 193.3 414.998 166.3 371.498 174.5ZM407.498 192.4C418.298 195.8 426.998 201.2 435.098 209.2C461.698 235.6 462.498 276 437.198 304C417.198 326.2 383.698 332.4 356.398 318.8C323.498 302.4 309.498 262.5 324.998 229.3C334.298 209.3 351.598 195.4 373.498 190.4C382.498 188.3 397.598 189.2 407.498 192.4Z" fill="#137AB6"/>
<path d="M383.5 199.1C379.2 201.5 379 202.7 379 221.1C379 237.7 378.9 238.9 377.1 239.5C374 240.4 368.2 247.5 367.1 251.7C365.8 256.1 365.8 260.7 367 263.5C367.6 265.2 366.1 267.2 358.4 275.1C352.6 281 349 285.5 349 286.8C349 293 354.6 297.2 359.8 295.1C361.4 294.4 366.4 290.2 370.9 285.6C379.1 277.4 379.2 277.3 382.9 278.1C392.8 280.4 404.3 273.8 407 264.2C407.5 262.2 408 258.9 408 256.9C408 251.7 403.6 243.7 399 240.5L395 237.7V220.5C395 205.5 394.8 202.9 393.3 201.1C391.1 198.6 386.2 197.6 383.5 199.1ZM390.4 254.6C392.7 256.9 392.4 259.7 389.6 261.5C385 264.6 379.9 259 383.6 254.9C385.7 252.6 388.3 252.5 390.4 254.6Z" fill="#137AB6"/>
<path d="M239.295 314C234.095 316.2 232.695 323.6 236.795 327.4C241.795 331.9 278.195 333.8 296.995 330.6C304.695 329.3 306.895 328.5 308.795 326.4C311.195 323.6 311.495 321.3 309.895 317.7C307.995 313.4 304.995 312.8 294.695 314.7C280.195 317.2 259.595 316.8 243.495 313.5C242.395 313.3 240.495 313.5 239.295 314Z" fill="#137AB6"/>
<path d="M132.505 349.5C129.205 350.2 120.005 353.1 112.005 356C104.005 358.8 94.5049 362 90.8049 363C84.8049 364.6 84.0049 364.7 84.0049 363.3C84.0049 362.5 82.5049 360.3 80.6049 358.4C77.7049 355.5 76.6049 355 72.4049 355C65.4049 355.1 47.4049 360.2 44.4049 363.1C43.1049 364.3 41.5049 367 40.9049 369C39.9049 372.3 41.4049 378.7 57.4049 438.4C67.1049 474.6 75.7049 505.2 76.6049 506.4C80.1049 511.8 86.8049 512.2 102.005 508C114.005 504.7 118.005 501.6 118.005 495.6V492.3L126.305 491.2C143.305 488.8 154.505 490.1 183.005 498.1C198.905 502.5 202.805 503.3 210.505 503.3C217.905 503.4 220.605 502.9 225.705 500.8C236.205 496.5 376.905 414.9 381.305 410.6C387.105 404.9 389.505 399 389.505 390C389.505 372.8 377.705 360.8 360.705 360.8C356.605 360.8 352.005 361.4 350.005 362.2C348.105 363 333.505 371.2 317.605 380.4C301.705 389.6 288.205 397.4 287.505 397.6C286.705 397.9 286.005 396.7 285.505 394.4C282.805 379.9 270.505 369.2 255.605 368.2C249.505 367.8 246.205 368.4 233.005 372C214.705 376.9 209.005 377.7 202.205 376C199.205 375.3 188.705 370 176.405 362.9C150.305 347.9 145.905 346.5 132.505 349.5ZM167.405 376.5C191.705 390.4 195.805 392.1 207.005 392.7C214.705 393.1 217.105 392.8 233.205 388.6C243.005 386.1 252.305 384 254.105 384C262.005 384 270.005 392.6 270.005 401C270.005 406.3 266.705 412.4 262.305 415.1C260.505 416.2 249.005 419.8 236.805 423.1C215.005 428.9 214.305 429.1 205.405 428.4C196.405 427.8 196.305 427.8 194.205 430.5C189.505 436.4 192.805 442.2 201.805 444.1C210.405 445.8 218.405 444.7 242.005 438.4C264.305 432.5 273.305 428.8 277.405 423.9C279.705 421.3 346.505 381.9 355.505 377.9C368.305 372.2 380.005 388.9 370.105 398.8C368.505 400.3 355.405 408.3 340.905 416.6C326.405 425 293.405 444 267.605 458.9C233.105 478.8 219.405 486.2 215.305 487.1C209.405 488.5 211.705 488.9 176.405 479.6C155.105 474 140.105 472.8 123.005 475.4C118.305 476.1 114.505 476.7 114.405 476.6C113.805 475.8 88.9049 380.8 89.2049 380.4C89.5049 380.2 93.5049 378.9 98.1049 377.6C102.705 376.3 112.405 373.2 119.505 370.6C134.405 365.1 139.105 364 143.905 364.5C145.905 364.8 155.805 369.8 167.405 376.5ZM101.005 490C101.005 491.1 99.1049 492.1 95.1049 493.1L89.3049 494.7L73.5049 435.6C64.8049 403.1 57.7049 376.1 57.6049 375.6C57.5049 375.1 60.2049 374 63.5049 373L69.5049 371.3L85.2049 429.9C93.9049 462.1 101.005 489.2 101.005 490Z" fill="#137AB6"/>
</svg>
