<svg width="512" height="512" viewBox="0 0 512 512" fill="none" xmlns="http://www.w3.org/2000/svg">
<path d="M82.0008 9.99981C80.3008 11.6998 80.0008 13.2999 80.0008 20.9999C80.0008 32.0999 79.2008 32.3999 70.9008 24.4999C65.8008 19.5999 64.7008 18.9999 60.9008 18.9999C56.7008 18.9999 56.3008 19.2999 37.8008 37.7999C19.3008 56.2999 19.0008 56.6999 19.0008 60.8999C19.0008 64.6999 19.6008 65.7999 24.5008 70.8999C32.4008 79.1999 32.1008 79.9999 21.0008 79.9999C7.20082 79.9999 8.00082 77.9999 8.00082 112C8.00082 146 7.20082 144 21.0008 144C32.1008 144 32.4008 144.8 24.5008 153.1C19.6008 158.2 19.0008 159.3 19.0008 163.1C19.0008 167.3 19.3008 167.7 37.8008 186.2C56.3008 204.7 56.7008 205 60.9008 205C64.7008 205 65.8008 204.4 70.9008 199.5C79.2008 191.6 80.0008 191.9 80.0008 203C80.0008 216.8 78.0008 216 112.001 216C146.001 216 144.001 216.8 144.001 203C144.001 191.9 144.801 191.6 153.101 199.5C158.201 204.4 159.301 205 163.101 205C167.301 205 167.701 204.7 186.201 186.2C204.701 167.7 205.001 167.3 205.001 163.1C205.001 159.3 204.401 158.2 199.501 153.1C191.601 144.8 191.901 144 203.001 144C216.801 144 216.001 146 216.001 112C216.001 77.9999 216.801 79.9999 203.001 79.9999C191.901 79.9999 191.601 79.1999 199.501 70.8999C204.401 65.7999 205.001 64.6999 205.001 60.8999C205.001 56.6999 204.701 56.2999 186.201 37.7999C167.701 19.2999 167.301 18.9999 163.101 18.9999C159.301 18.9999 158.201 19.5999 153.101 24.4999C144.801 32.3999 144.001 32.0999 144.001 20.9999C144.001 7.19987 146.001 7.99985 112.001 7.99985C85.3008 7.99985 83.9008 8.09985 82.0008 9.99981ZM128.001 31.7999C128.001 40.9999 128.601 41.8999 137.701 45.6999C150.001 50.8999 151.601 50.6999 158.801 43.6999L163.001 39.4999L173.701 50.1999L184.401 60.8999L179.701 65.8999C173.501 72.4999 173.201 74.2999 176.901 82.7999C178.601 86.6999 180.001 90.1999 180.001 90.5999C180.001 90.9999 181.001 92.3999 182.201 93.6999C184.101 95.6999 185.301 95.9999 192.201 95.9999H200.001V112V128H192.301C185.801 128 184.301 128.3 182.301 130.2C181.001 131.4 180.001 132.8 180.001 133.3C180.001 133.8 178.601 137.3 176.901 141.2C173.201 149.7 173.501 151.5 179.701 158.1L184.401 163.1L173.701 173.8L163.001 184.5L158.801 180.3C151.601 173.3 150.001 173.1 137.701 178.3C128.601 182.1 128.001 183 128.001 192.2V200H112.001H96.0008V192.2C96.0008 183 95.4008 182.1 86.3008 178.3C74.0008 173.1 72.4008 173.3 65.2008 180.3L61.0008 184.5L50.3008 173.7L39.5008 163L43.7008 158.8C50.7008 151.6 50.9008 150 45.7008 137.7C41.9008 128.6 41.0008 128 31.8008 128H24.0008V112V95.9999H31.8008C41.0008 95.9999 41.9008 95.3999 45.7008 86.2999C50.9008 73.9999 50.7008 72.3999 43.7008 65.1999L39.5008 60.9999L50.3008 50.2999L61.0008 39.4999L65.2008 43.6999C72.4008 50.6999 74.0008 50.8999 86.3008 45.6999C95.4008 41.8999 96.0008 40.9999 96.0008 31.7999V23.9999H112.001H128.001V31.7999Z" fill="#137AB6"/>
<path d="M94.2 58.5998C76.8 64.4998 64.8 76.2998 58.8 93.3998C56.5 100.2 56 103.1 56 111.6C56 123.1 57.5 129.2 62.7 139.2C69.2 151.6 82.4 162.1 96.9 166.4C105.7 169 120.5 168.6 129.7 165.5C142.5 161.2 152.5 153.5 159.5 142.5C171 124.6 171 99.3998 159.5 81.3998C152.4 70.3998 141.3 61.9998 128.6 58.0998C118.5 54.9998 104 55.1998 94.2 58.5998ZM129.1 76.6998C137.1 80.5998 144.1 87.7998 147.8 95.7998C150.2 100.8 150.5 102.7 150.5 112C150.5 121.3 150.2 123.2 147.8 128.2C133.8 158.2 91.3 158.8 76.7 129.1C73.7 123 73.5 121.9 73.5 112C73.5 102.7 73.8 100.9 76.1 95.9998C80.9 85.8998 89.2 78.3998 99.3 74.7998C103.2 73.3998 106.8 72.9998 113.5 73.1998C121.4 73.4998 123.4 73.8998 129.1 76.6998Z" fill="#137AB6"/>
<path d="M333.4 9.60016C327.1 11.8001 321.1 17.6001 317.9 24.4001C316.3 27.8001 315 31.0001 315 31.6001C315 33.6001 309.2 38.2001 305.4 39.1001C303.2 39.5001 295.1 40.0001 287.3 40.0001C275.4 40.0001 272.2 40.3001 267.5 42.1001C260.1 44.9001 252.9 52.1001 250.1 59.5001C245.4 71.9001 248.5 101.4 256.6 122.2L258.8 127.9L255.6 129C250.8 130.5 244.5 136.3 242.1 141.3C237.6 150.6 240.2 163.4 247.8 170.1C252.9 174.6 257 176 265 176H272V181.3C272 189.1 275.3 200.9 280.1 210C284.4 218.3 294.1 229.8 300.4 234.1L304 236.5V246.6V256.6L275.8 260.9C242 266 237.8 267 229 271.6C216.7 278 207.2 289.4 202.5 303.3C200.2 310.3 200 312.3 200 328.9V347L178.3 361.5L156.5 376H150.3H144V370C144 359.7 145 360 112 360C79 360 80 359.7 80 370V376H46C13.3 376 11.9 376.1 10 378C8.1 379.9 8 381.3 8 432C8 482.7 8.1 484.1 10 486C11.9 487.9 13.3 488 46 488H80V494C80 504.3 79 504 112 504C145 504 144 504.3 144 494V488H150.5C156.7 488 157.9 488.5 173 496L189 504H344.5C498.7 504 500 504 502 502C504 500 504 498.7 504 424C504 349.3 504 348 502 346C500.4 344.4 498.7 344 494 344H488V327.4C488 312.4 487.8 310.2 485.5 303.3C480.8 289.4 471.3 278 459 271.6C450.1 266.9 446.3 266 412.8 260.9L384 256.6V246.5V236.5L387.6 234.1C393.9 229.8 403.6 218.3 407.9 210C412.7 200.9 416 189.1 416 181.3V176H423C427.1 176 431.6 175.4 433.8 174.4C438.7 172.4 443.8 167.4 446.1 162.5C448.6 157.2 448.6 146.9 446.1 141.5C443.7 136.2 437.2 130.4 431.8 128.9C429.4 128.2 427.4 127.6 427.2 127.5C427.1 127.4 429.2 118.2 432 107C436.3 89.7002 437 85.3001 437 77.0001C437 45.2001 416.7 18.6001 385.8 10.0001C379.5 8.30016 375.7 8.00016 358 8.10016C342.7 8.10016 336.4 8.50016 333.4 9.60016ZM383.1 26.9001C399.9 32.2001 414 46.9001 418.5 64.1001C421.1 73.6001 420.4 82.8002 415.9 101.5C413.6 110.8 411.6 118.7 411.3 118.9C411.1 119.2 409.6 117.8 408 115.8C404.6 111.7 397.1 106.7 392 105.2C390.1 104.6 382.7 103.7 375.5 103.1C360.6 101.9 350.9 99.5001 339.3 94.0001C329.2 89.3001 322 84.6001 314 77.4001C308.9 72.9001 307.3 72.0001 304.2 72.0001C302.2 72.0001 300 72.4001 299.3 72.8001C298.6 73.2001 292.2 81.4001 285 91.0001C276.7 102.1 272 109.3 271.9 110.9C271.8 114.8 268.2 103.2 266.5 93.1001C265.7 88.5001 265 80.8001 265 76.0001C265 68.6001 265.3 66.8001 267.3 64.0001C271.7 57.4001 274.4 56.6001 294.5 56.0001C314.8 55.4001 318.9 54.3001 325.1 47.2001C328.1 43.8001 333 34.7001 333 32.4001C333 30.5001 338.8 25.8001 342.2 24.9001C344 24.4001 352.5 24.2001 361 24.5001C372.9 24.8001 378 25.4001 383.1 26.9001ZM326.5 107.1C341.4 114.9 354.9 118.6 373.6 120C388.5 121.1 393 123.1 397 130.2C399.5 134.5 399.5 134.8 399.5 158.5C399.5 184.6 398.9 189 393.9 199.5C387.7 212.7 374.8 224.2 361.5 228.5C353.1 231.3 334.9 231.3 326.5 228.5C313.6 224.3 300.6 212.9 294.4 200.4C289.1 189.7 288.8 186.9 288.3 150.2L287.8 116L296.4 104.5L305 93.1001L312.2 98.3002C316.2 101.2 322.7 105.1 326.5 107.1ZM272 152V160H268.5C263.1 160 258.2 157.6 257.4 154.6C255.8 148.2 260 144.1 268.3 144H272V152ZM426.5 145.4C430.2 147 431.7 150.2 430.6 154.6C429.8 157.6 424.9 160 419.5 160H416V152V144H419.5C421.5 144 424.6 144.6 426.5 145.4ZM327.5 246.5C330.8 247.3 338.2 248 344 248C349.8 248 357.2 247.3 360.5 246.5C363.8 245.7 366.8 245.1 367.3 245C367.7 245 368 248.1 368 251.8V258.6L356 264.5L344 270.4L332 264.5L320 258.6V251.8C320 248.1 320.3 245 320.8 245C321.2 245.1 324.2 245.7 327.5 246.5ZM327.4 281.2L344 289.4L360.8 281.1L377.5 272.8L407.5 277.5C442 282.8 446.6 283.9 453.6 288.5C467.1 297.3 471.9 309.3 472 333.7V344H448H424V332V320H416H408V332V344H344H280V332V320H272H264V332V344H240H216V333.7C216.1 312.7 219.1 302.8 228.2 293.7C237.1 284.8 240.7 283.6 276.3 278.1C293.4 275.4 308.3 273.2 309.2 273.1C310.1 273 318.3 276.7 327.4 281.2ZM488 424V488H352H216V464.5C216 441.4 216 440.9 218.4 437.2C219.7 435.1 221.5 431.4 222.3 428.9C223.7 424.7 224 424.5 227.9 424.2L232 423.9V445.9C232 466.7 232.1 468.1 234 470C235.9 471.9 237.3 472 270 472H304V464V456H276H248V440V424H258C272.2 424 272.2 424.1 271.8 405.9L271.5 392H287.8H304V384V376H260H216V368V360H352H488V424ZM200 372V376H196H192V384V392H219.4C237.2 392 247.8 392.4 250 393.1C253.7 394.4 256 398.8 256 404.5V408H234C208.8 408 208.7 408 207.4 416.7C206.5 423.3 204.5 427.9 200.7 431.9C195.6 437.2 190.2 439.2 178.3 439.8L168 440.3V448.1V456H180.3C187.8 455.9 193.9 455.4 196.3 454.6L200 453.2V470.6V488H197.5C196.1 488 187.8 484.4 179 480L163 472H153.5H144V432V392H153.8H163.5L181.5 380C191.4 373.4 199.6 368 199.8 368C199.9 368 200 369.8 200 372ZM128 432V488H112H96V432V376H112H128V432ZM80 432V472H52H24V432V392H52H80V432Z" fill="#137AB6"/>
<path d="M312 144V152H320H328V144V136H320H312V144Z" fill="#137AB6"/>
<path d="M360 144V152H368H376V144V136H368H360V144Z" fill="#137AB6"/>
<path d="M319.295 191.8L312.195 195.5L313.695 198.5C316.095 203.2 322.995 209.9 328.495 212.8C332.995 215.2 334.495 215.5 343.995 215.5C353.095 215.5 355.095 215.2 358.995 213.1C364.595 210.2 371.595 203.6 373.995 198.9L375.895 195.4L368.295 191.6C364.195 189.6 360.695 188 360.595 188.2C360.495 188.4 359.195 190.1 357.795 192.1C350.895 201.4 336.595 201.3 330.095 191.9C328.695 189.8 327.295 188.1 326.995 188.1C326.695 188.1 323.295 189.8 319.295 191.8Z" fill="#137AB6"/>
<path d="M344 372C344 375.8 343.8 376 341 376C333.9 376 325.4 382.1 321.9 389.5C320.5 392.6 320 395.9 320 404C320 412.1 320.5 415.4 321.9 418.5C325.4 425.9 333.9 432 341 432H344V443.5C344 451 343.6 455 342.9 455C339 455 336 449.9 336 443.4V440H328H320V447.2C320 452.2 320.6 455.8 321.9 458.5C325.4 465.9 333.9 472 341 472C343.8 472 344 472.2 344 476V480H352H360V476C360 472.2 360.2 472 363 472C370.1 472 378.6 465.9 382.1 458.5C384.7 452.8 384.7 435.2 382.1 429.5C378.6 422.1 370.1 416 363 416H360V404.5C360 397 360.4 393 361.1 393C365 393 368 398.1 368 404.6V408H376H384V401C384 396.9 383.4 392.4 382.4 390.2C379.3 382.6 370.4 376.1 363.3 376C360.1 376 360 375.8 360 372V368H352H344V372ZM344 404C344 413.1 343.7 415 342.5 415C338.3 415 335.1 407.4 336.4 400.4C337.2 396.6 340.1 393 342.5 393C343.7 393 344 394.9 344 404ZM364.9 434.9C370.2 440.2 367.7 455 361.5 455C360.3 455 360 453.1 360 444C360 434.9 360.3 433 361.5 433C362.3 433 363.9 433.9 364.9 434.9Z" fill="#137AB6"/>
<path d="M400 384V392H428H456V424V456H428H400V464V472H434C466.7 472 468.1 471.9 470 470C471.9 468.1 472 466.7 472 424C472 381.3 471.9 379.9 470 378C468.1 376.1 466.7 376 434 376H400V384Z" fill="#137AB6"/>
<path d="M288 424V432H296H304V424V416H296H288V424Z" fill="#137AB6"/>
<path d="M400 424V432H408H416V424V416H408H400V424Z" fill="#137AB6"/>
<path d="M81.8 249.8C56.2 275.3 56 275.6 56 279.8C56 286.8 58.1 288 70 288H80V314C80 338.7 80.1 340.1 82 342C83.9 343.9 85.3 344 112 344C138.7 344 140.1 343.9 142 342C143.9 340.1 144 338.7 144 314V288H154C165.9 288 168 286.8 168 279.8C168 275.6 167.8 275.3 142.2 249.8L116.5 224H112H107.5L81.8 249.8ZM126 258.5L139.5 272H135.7C133.3 272 131.3 272.7 130 274C128.1 275.9 128 277.3 128 302V328H112H96V302C96 277.3 95.9 275.9 94 274C92.7 272.7 90.7 272 88.3 272H84.5L98 258.5C105.4 251.1 111.7 245 112 245C112.3 245 118.6 251.1 126 258.5Z" fill="#137AB6"/>
</svg>
