<svg width="512" height="512" viewBox="0 0 512 512" fill="none" xmlns="http://www.w3.org/2000/svg">
<g clip-path="url(#clip0_363_4024)">
<mask id="mask0_363_4024" style="mask-type:luminance" maskUnits="userSpaceOnUse" x="0" y="0" width="512" height="512">
<path d="M512 0H0V512H512V0Z" fill="white"/>
</mask>
<g mask="url(#mask0_363_4024)">
<path d="M184.2 0.700245C182.1 1.50025 179.8 6.90025 180.6 9.30025C182.2 14.6002 210.4 67.1002 212 68.0002C213.2 68.6002 230.5 69.0002 256.2 69.0002C294.8 69.0002 298.7 68.8002 300.6 67.2002C301.8 66.3002 309.1 53.0002 316.9 37.8002C331 10.2002 332.4 6.40025 330 1.90025C329 0.000245094 327.1 0.000245169 257.2 0.100245C217.8 0.100245 184.9 0.400245 184.2 0.700245ZM310 16.5002C310 16.7002 305.6 25.3002 300.3 35.5002L290.6 54.0002H256.8H223.1L219.7 47.7002C217.8 44.3002 213.3 35.8002 209.6 28.7002L203 16.0002H256.5C285.9 16.0002 310 16.2002 310 16.5002Z" fill="#137AB6"/>
<path d="M193.295 82.6C192.595 82.9 181.595 94.1 168.695 107.4C144.095 133 136.995 142.1 128.495 159C122.995 170 117.795 184.9 114.795 198.2C111.495 213 111.495 237.6 114.795 249.9C122.595 278.6 140.895 297.7 169.795 307.6C189.295 314.3 192.095 314.5 255.495 314.5C306.295 314.5 313.595 314.3 322.895 312.7C356.695 306.7 379.195 291.6 391.595 266.5C398.695 252.1 400.295 244.4 400.395 225C400.495 212.6 399.995 206.4 398.695 200C393.095 174.2 381.695 149.9 366.295 131C363.795 128 352.195 115.7 340.395 103.7L318.995 82L256.795 82.1C222.495 82.1 193.995 82.4 193.295 82.6ZM332.495 119.2C360.195 147.8 369.495 161.5 377.595 185.6C382.395 199.9 384.095 209.5 384.095 222.6C384.095 263.6 361.895 288.5 317.995 296.7C309.695 298.2 301.895 298.4 257.495 298.5C205.595 298.5 200.095 298.2 184.495 294.4C161.595 288.8 144.195 275.5 135.595 256.8C121.995 227.5 129.495 184 153.995 149.1C156.895 145.1 168.695 131.9 180.395 119.9L201.495 98.1H256.695L311.795 98L332.495 119.2Z" fill="#137AB6"/>
<path d="M247.997 144.902C222.597 148.402 202.197 166.902 196.397 191.702C193.997 201.702 194.897 217.202 198.297 227.002C205.097 246.202 221.997 261.302 241.997 266.102C251.197 268.302 266.197 267.702 275.597 264.602C311.297 253.102 328.197 212.302 311.397 178.002C306.497 168.102 294.397 155.802 284.997 151.302C273.497 145.702 259.697 143.302 247.997 144.902ZM267.297 162.502C280.797 166.002 290.897 174.302 296.897 186.902C300.397 194.302 300.497 194.802 300.497 206.102C300.497 217.302 300.397 217.802 296.797 225.102C290.597 237.602 278.897 247.102 266.297 249.902L261.997 250.802V247.102C261.997 243.502 262.097 243.402 267.297 242.202C273.597 240.702 279.697 236.602 282.397 232.102C284.797 227.902 285.197 217.202 283.097 212.202C281.297 207.802 274.097 202.502 267.397 200.302L261.997 198.602V189.802C261.997 179.702 262.197 179.502 269.997 183.502C272.697 184.902 275.297 186.002 275.797 186.002C276.297 186.002 278.197 183.902 279.997 181.402L283.297 176.702L280.897 174.902C278.097 172.702 267.597 169.002 264.297 169.002C262.297 169.002 261.997 168.502 261.997 165.502C261.997 162.102 261.897 162.002 257.997 162.002C254.197 162.002 253.997 162.202 253.997 165.002C253.997 167.702 253.697 168.002 250.797 168.002C243.297 168.102 234.497 174.902 231.997 182.602C230.397 187.402 231.297 196.602 233.797 199.902C236.397 203.502 241.297 206.602 248.097 209.102L253.997 211.302V220.602C253.997 225.802 253.597 230.002 253.097 230.002C250.797 230.002 244.997 227.402 240.697 224.302L235.897 220.902L233.197 224.102C228.697 229.402 227.697 231.202 228.597 231.902C236.297 237.502 242.797 240.602 251.297 242.402C253.697 243.002 253.997 243.502 253.997 247.002C253.997 251.602 253.597 251.702 244.997 249.502C216.497 242.102 202.697 208.902 217.597 183.502C227.597 166.402 248.497 157.602 267.297 162.502ZM253.997 187.502C253.997 192.202 253.597 196.002 253.097 196.002C252.697 196.002 250.797 195.002 248.897 193.702C243.697 190.202 243.597 183.302 248.797 180.602C253.697 177.902 253.997 178.302 253.997 187.502ZM270.397 218.502C272.197 223.302 270.297 226.802 264.697 228.902L261.997 230.002V221.502V213.002L265.897 214.902C267.997 216.002 269.997 217.602 270.397 218.502Z" fill="#137AB6"/>
<path d="M475.501 214.3C469.701 217.1 466.101 220.7 462.801 227C460.501 231.5 460.501 231.7 460.201 273.4L459.901 315.3L455.201 320.8C451.001 325.8 450.501 326 449.301 324.3C444.001 316.5 442.001 314.7 436.301 311.8C430.801 309.1 429.301 308.8 423.201 309.2C411.501 309.8 409.901 311.2 382.801 345.5C369.701 362 358.201 377.3 357.301 379.5C355.801 382.9 355.501 387.4 355.201 411.1L354.901 438.7L349.301 439.3C345.101 439.7 343.001 440.5 341.101 442.5L338.501 445L338.201 473.7C338.001 494.1 338.301 503.2 339.101 505.2C341.501 511.1 340.301 511 406.501 511C471.401 511 471.301 511 474.001 506.1C474.601 504.9 475.001 493 475.001 474.7V445.3L472.501 442.8C469.801 440 466.201 439 459.401 439H455.001V432.7C455.001 429.3 455.401 424.8 455.901 422.8C456.501 420.4 465.501 407.1 482.601 383.8C496.801 364.4 509.101 347.1 509.901 345.5C511.301 342.9 511.501 335.2 511.801 291C512.001 262.7 511.901 237.2 511.501 234.4C510.601 227.1 505.701 219.3 499.601 215.5C492.701 211.3 482.801 210.8 475.501 214.3ZM493.301 233L496.001 236V287.3V338.5L469.601 374.7C452.901 397.6 442.601 412.6 441.601 415.6C440.801 418.1 439.701 424.9 439.401 430.6L438.701 441H405.401H372.001V416.7C372.101 399.4 372.501 391.5 373.401 388.8C375.201 383.8 418.601 328.1 421.701 326.9C425.701 325.4 427.801 325.8 431.401 329C437.801 334.7 437.001 341.1 428.501 351.5C425.301 355.4 423.001 359.1 423.001 360.5C423.001 367.3 428.701 371.3 434.401 368.4C436.901 367.2 458.801 342.9 472.501 326.3L475.501 322.6L476.001 278.9C476.501 237 476.601 235.1 478.501 233C482.901 228.1 488.801 228.1 493.301 233ZM459.001 476V495H407.001H355.001V476V457H407.001H459.001V476Z" fill="#137AB6"/>
<path d="M16.3984 214.9C10.5984 217.5 5.49844 222.4 2.79844 227.8L0.498438 232.5L0.198438 286.3L-0.101562 340.1L2.29844 345.4C3.59844 348.2 16.0984 366.3 29.9984 385.4C57.0984 422.6 56.8984 422.2 56.9984 434.6V440.8L49.3984 441.2C42.4984 441.5 41.4984 441.8 39.3984 444.3L36.9984 447.1V476.9V506.7L39.5984 509.4L42.2984 512H105.098H167.898L170.698 509.6L173.498 507.2V476.6C173.498 446.4 173.498 446 171.298 443.8C169.598 442.2 167.498 441.5 163.098 441.2L157.098 440.8L156.798 413.6L156.498 386.5L153.798 380.7C151.198 375.2 114.098 326.2 106.098 317.7C100.798 312 95.7984 309.8 88.0984 309.6C78.1984 309.4 71.2984 313.1 66.3984 321.1C64.2984 324.4 62.2984 326.7 61.8984 326.3C61.4984 325.9 59.2984 323.3 57.0984 320.5L52.9984 315.5V274.9C52.9984 241.2 52.6984 233.6 51.4984 229.9C47.8984 219.5 38.4984 213 27.0984 213C22.8984 213 18.9984 213.7 16.3984 214.9ZM32.9984 232.5L35.4984 235L35.9984 278.8L36.4984 322.5L55.2984 344C65.5984 355.8 75.2984 366.3 76.7984 367.2C80.5984 369.7 83.2984 369.4 86.3984 366.4C90.5984 362.1 89.8984 358.7 82.9984 350C75.5984 340.8 74.7984 335.7 79.5984 329.3C82.5984 325.3 86.1984 324.2 90.0984 326.1C92.5984 327.4 133.298 377.6 138.098 385.4C139.798 388.2 139.998 390.8 139.998 414.7V441H106.598H73.1984L72.7984 430.2C72.4984 423.1 71.7984 418.1 70.5984 415.3C69.5984 412.9 57.0984 394.9 42.8984 375.3L16.9984 339.6V287.6C16.9984 239.7 17.1984 235.3 18.7984 233.4C22.8984 228.4 28.4984 228 32.9984 232.5ZM157.998 476V495H105.998H53.9984V476V457H105.998H157.998V476Z" fill="#137AB6"/>
</g>
</g>
<defs>
<clipPath id="clip0_363_4024">
<rect width="512" height="512" fill="white"/>
</clipPath>
</defs>
</svg>
