<svg width="512" height="512" viewBox="0 0 512 512" fill="none" xmlns="http://www.w3.org/2000/svg">
<g clip-path="url(#clip0_363_4114)">
<mask id="mask0_363_4114" style="mask-type:luminance" maskUnits="userSpaceOnUse" x="0" y="0" width="512" height="512">
<path d="M512 0H0V512H512V0Z" fill="white"/>
</mask>
<g mask="url(#mask0_363_4114)">
<path d="M165.505 1.9004C163.305 2.9004 160.105 5.3004 158.305 7.1004C151.605 14.2004 152.005 5.80042 152.005 135.6V253.3L157.305 248.3C160.105 245.6 163.705 242.6 165.305 241.6L168.005 239.8V132.4C168.005 14.1004 167.705 19.3004 174.005 17.1004C176.405 16.3004 218.205 16.0004 328.205 16.0004C496.005 16.0004 484.905 15.5004 487.005 22.7004C487.805 25.4004 488.005 75.0004 487.805 199.4L487.505 372.3L458.505 400.7C442.605 416.3 428.105 429.8 426.305 430.6C423.505 431.8 405.405 432 303.005 432H183.005V437.7C183.005 440.9 182.705 444.5 182.405 445.8L181.805 448H306.105C424.505 448 430.705 447.9 434.505 446.1C440.405 443.4 497.705 387.4 501.305 380.8L504.005 375.8V196.6C504.005 24.3004 503.905 17.3004 502.105 13.5004C501.105 11.3004 498.705 8.1004 496.905 6.3004C489.705 -0.499594 502.605 0.000405784 327.805 0.000405784C175.705 0.000405784 169.305 0.100406 165.505 1.9004Z" fill="#137AB6"/>
<path d="M398.4 36.6C386.5 45.9 372.8 51 356.2 52.5C348.9 53.1 347.7 53.5 345.9 55.9C343.9 58.4 343.8 59.3 344.3 75.5C344.7 89.2 345.3 94.4 347.4 102.6C354.5 131 370.4 153.8 394.1 169.6C402.2 175 404.4 176 408 176C411.6 176 413.8 175 421.9 169.6C445.6 153.8 461.5 131 468.6 102.6C470.7 94.4 471.3 89.2 471.7 75.5C472.2 59.3 472.1 58.4 470.1 55.9C468.3 53.5 467.1 53.1 459.8 52.5C443.7 51.2 429.5 45.9 417.6 36.6C413 33.1 410.8 32 408 32C405.2 32 403 33.1 398.4 36.6ZM415.1 56C425 62.4 444.2 68.9 453.2 69H455.9L455.4 76.2C453.3 104.4 444.1 126 426.6 143.6C422.7 147.5 416.9 152.4 413.8 154.5L408 158.3L402.3 154.5C399.1 152.4 393.3 147.5 389.4 143.6C371.9 126 362.6 104.4 360.6 76.4L360.1 69.2L366.2 68.6C377.7 67.3 394.1 61 403 54.6C404.9 53.2 407 52.1 407.7 52C408.4 52 411.7 53.8 415.1 56Z" fill="#137AB6"/>
<path d="M113.505 41.902C111.305 42.902 108.105 45.302 106.305 47.102C99.6042 54.202 100.005 45.502 100.005 177.602V297.202L103.105 296.602C104.805 296.302 108.405 296.002 111.105 296.002H116.005V180.502C116.005 84.002 116.205 64.402 117.405 61.602C119.105 57.602 122.905 56.002 130.605 56.002H136.005V48.002V40.002H126.805C119.905 40.002 116.505 40.502 113.505 41.902Z" fill="#137AB6"/>
<path d="M186 66C184.7 67.3 184 69.3 184 72C184 74.7 184.7 76.7 186 78C188 80 189.3 80 248 80C306.7 80 308 80 310 78C311.3 76.7 312 74.7 312 72C312 69.3 311.3 67.3 310 66C308 64 306.7 64 248 64C189.3 64 188 64 186 66Z" fill="#137AB6"/>
<path d="M186 98C184.7 99.3 184 101.3 184 104C184 106.7 184.7 108.7 186 110C188 112 189.3 112 248 112C306.7 112 308 112 310 110C311.3 108.7 312 106.7 312 104C312 101.3 311.3 99.3 310 98C308 96 306.7 96 248 96C189.3 96 188 96 186 98Z" fill="#137AB6"/>
<path d="M186 130C184.7 131.3 184 133.3 184 136C184 138.7 184.7 140.7 186 142C187.9 143.9 189.3 144 228 144C266.7 144 268.1 143.9 270 142C271.3 140.7 272 138.7 272 136C272 133.3 271.3 131.3 270 130C268.1 128.1 266.7 128 228 128C189.3 128 187.9 128.1 186 130Z" fill="#137AB6"/>
<path d="M338.201 194.3C335.201 197.5 335.301 203 338.301 205.8L340.601 208H397.201H453.901L455.901 205.4C458.601 202 458.601 198 455.901 194.6L453.901 192H397.101H340.301L338.201 194.3Z" fill="#137AB6"/>
<path d="M338.201 226.3C335.201 229.5 335.301 235 338.301 237.8C340.501 239.9 341.601 240 356.701 240H372.901L374.901 237.4C376.101 235.9 377.001 233.5 377.001 232C377.001 230.5 376.101 228.1 374.901 226.6L372.901 224H356.601C340.901 224 340.301 224.1 338.201 226.3Z" fill="#137AB6"/>
<path d="M395.7 225.2C391.6 228.4 391.8 236.7 396 239C397.1 239.6 409.5 240 425.9 240H453.9L455.9 237.4C457.1 235.9 458 233.5 458 232C458 230.5 457.1 228.1 455.9 226.6L453.9 224H425.6C404.6 224 397 224.3 395.7 225.2Z" fill="#137AB6"/>
<path d="M202 240.001C197.9 241.101 190.2 244.101 185 246.701C176.8 250.701 174.1 252.801 165.5 261.501C157.6 269.401 154.6 273.301 151.1 280.001C148.6 284.701 145.4 289.701 143.8 291.201C139.9 294.801 138 299.901 138 306.501V312.001H117.8C95.1 312.001 92.4 312.601 86.3 319.101C81.4 324.301 80 328.701 80 339.001V348.001H75.5C69.8 348.001 64.6 350.101 61.2 353.801C59.7 355.401 54.7 358.601 50 361.101C43.3 364.601 39.4 367.601 31.5 375.501C22.8 384.101 20.7 386.801 16.7 395.001C10.2 408.001 8 417.401 8 432.001C8 446.401 10.2 455.901 16.5 468.501C26.5 488.801 46.1 504.401 68.4 510.001C79.3 512.701 96.7 512.701 107.6 510.001C129.9 504.401 149.5 488.801 159.5 468.501C165.8 455.901 168 446.401 168 432.001C168 417.401 165.8 408.001 159.3 395.001C155.3 386.801 153.2 384.101 144.5 375.501C136.6 367.601 132.7 364.601 126 361.101C121.3 358.601 116.3 355.401 114.8 353.801C111.4 350.101 106.2 348.001 100.5 348.001H96V342.501C96 334.901 98 330.601 102 329.101C104 328.501 112 328.001 121.6 328.001H138V331.501C138 336.201 140.3 341.601 143.8 344.801C145.4 346.301 148.6 351.301 151.1 356.001C154.6 362.701 157.6 366.601 165.5 374.501C174.1 383.201 176.8 385.301 185 389.301C198 395.801 207.4 398.001 222 398.001C230.4 398.001 235.9 397.401 241.6 396.001C277.7 386.801 302.2 355.301 302.2 318.001C302.2 293.101 291.5 270.601 272.4 255.201C264.2 248.601 250.2 241.801 240.3 239.601C230.1 237.301 211.7 237.601 202 240.001ZM237.5 256.601C258.9 261.701 277.8 280.501 283.6 302.501C285.6 310.301 285.6 325.701 283.6 333.501C277.6 356.301 258.4 374.901 235.3 380.001C228.3 381.601 214 381.301 206.9 379.501C193.6 376.001 180.7 367.701 172.5 357.201C170 354.101 168 351.201 168 350.701C168 350.301 171.9 350.001 176.6 350.001H185.2L189.8 354.101C192.4 356.401 197.9 359.901 202 361.901C208.8 365.101 210.5 365.501 219.6 365.801C236.1 366.501 246.4 362.501 257 351.401C275.2 332.501 275.3 303.701 257.3 284.901C247.2 274.201 237.1 270.001 221.9 270.001C208.7 270.001 195.6 275.201 188.1 283.401C185.8 285.801 185.1 286.001 176.8 286.001C172 286.001 168 285.701 168 285.401C168 283.901 175.5 274.701 179.8 271.001C195.9 256.801 216.6 251.601 237.5 256.601ZM237.1 290.601C247.2 296.101 253.3 306.501 253.3 318.101C253.3 338.701 233.5 353.501 213.3 348.101C207.3 346.501 199.7 341.101 200.7 339.101C202 336.501 202.3 302.201 201 298.701C200.1 295.901 200.2 295.301 202.2 293.701C212.2 285.801 226 284.601 237.1 290.601ZM184 304.001C185.8 305.801 186 307.301 186 318.001C186 328.701 185.8 330.201 184 332.001C182.2 333.801 180.7 334.001 170 334.001C159.3 334.001 157.8 333.801 156 332.001C154.2 330.201 154 328.701 154 318.001C154 307.301 154.2 305.801 156 304.001C157.8 302.201 159.3 302.001 170 302.001C180.7 302.001 182.2 302.201 184 304.001ZM102 366.001C103.8 367.801 104 369.301 104 380.001C104 390.701 103.8 392.201 102 394.001C100.2 395.801 98.7 396.001 88 396.001C77.3 396.001 75.8 395.801 74 394.001C72.2 392.201 72 390.701 72 380.001C72 369.301 72.2 367.801 74 366.001C75.8 364.201 77.3 364.001 88 364.001C98.7 364.001 100.2 364.201 102 366.001ZM56 386.801C56 395.101 55.8 395.801 53.4 398.101C38.9 411.401 35.6 439.001 46.3 457.201C50.1 463.701 60.1 472.701 67.2 476.001C85.6 484.601 106.8 481.001 121.4 467.001C132.5 456.401 136.5 446.101 135.8 429.601C135.5 420.501 135.1 418.801 131.9 412.001C129.9 407.901 126.4 402.401 124.1 399.801L120 395.201V386.601C120 381.901 120.3 378.001 120.8 378.001C122.6 378.001 133.4 387.501 137.4 392.601C146.6 404.301 151 417.101 151 432.001C151 448.101 145.5 462.701 135.2 474.101C109.6 502.301 66.4 502.301 40.8 474.101C30.5 462.701 25 448.101 25 432.001C25 417.101 29.4 404.301 38.6 392.601C42.6 387.501 53.4 378.001 55.3 378.001C55.7 378.001 56 382.001 56 386.801ZM86.3 411.801C97.5 412.001 105.4 411.701 107.3 411.001C110.1 410.101 110.7 410.201 112.3 412.201C116.7 417.801 118.3 422.501 118.8 430.801C119.2 438.501 119 439.501 116.1 445.401C104.4 469.201 71.8 469.401 60 445.801C55 435.701 56 423.401 62.6 413.901C64.6 411.001 65.8 410.101 66.9 410.701C67.8 411.101 76.5 411.601 86.3 411.801Z" fill="#137AB6"/>
<path d="M338.201 258.3C335.201 261.5 335.301 267 338.301 269.8L340.601 272H397.201H453.901L455.901 269.4C458.601 266 458.601 262 455.901 258.6L453.901 256H397.101H340.301L338.201 258.3Z" fill="#137AB6"/>
<path d="M338.201 290.3C335.201 293.5 335.301 299 338.301 301.8C340.501 303.9 341.601 304 356.701 304H372.901L374.901 301.4C376.101 299.9 377.001 297.5 377.001 296C377.001 294.5 376.101 292.1 374.901 290.6L372.901 288H356.601C340.901 288 340.301 288.1 338.201 290.3Z" fill="#137AB6"/>
<path d="M395.7 289.2C391.6 292.4 391.8 300.7 396 303C397.1 303.6 409.5 304 425.9 304H453.9L455.9 301.4C457.1 299.9 458 297.5 458 296C458 294.5 457.1 292.1 455.9 290.6L453.9 288H425.6C404.6 288 397 288.3 395.7 289.2Z" fill="#137AB6"/>
<path d="M338.201 322.3C335.201 325.5 335.301 331 338.301 333.8L340.601 336H397.201H453.901L455.901 333.4C458.601 330 458.601 326 455.901 322.6L453.901 320H397.101H340.301L338.201 322.3Z" fill="#137AB6"/>
<path d="M419.2 362.301C417.1 364.501 417 365.401 417 386.101C417 407.301 417 407.701 419.3 409.801C422.2 412.601 427.9 412.701 431.1 410.101C433.4 408.201 433.5 407.601 433.8 392.101L434.1 376.001H450H465.9L467.9 373.401C469.1 371.901 470 369.501 470 368.001C470 366.501 469.1 364.101 467.9 362.601L465.9 360.001H443.6C421.6 360.001 421.3 360.001 419.2 362.301Z" fill="#137AB6"/>
<path d="M379.902 466.6C374.802 472.2 379.102 472 272.702 472H174.402L172.602 475.7C171.602 477.8 169.502 481.4 167.902 483.8L165.102 488H271.802C374.702 488 378.602 487.9 382.502 486C384.702 485 391.202 479.6 397.002 474.1L407.502 464.1L394.902 464C382.602 464 382.302 464.1 379.902 466.6Z" fill="#137AB6"/>
</g>
</g>
<defs>
<clipPath id="clip0_363_4114">
<rect width="512" height="512" fill="white"/>
</clipPath>
</defs>
</svg>
