<svg width="512" height="512" viewBox="0 0 512 512" fill="none" xmlns="http://www.w3.org/2000/svg">
<path d="M283.604 51.1C278.204 55.3 281.304 65 288.104 65C295.404 65 299.004 55.5 293.404 51.1C291.904 49.9 289.704 49 288.504 49C287.304 49 285.104 49.9 283.604 51.1Z" fill="#137AB6"/>
<path d="M331.5 65.9C326.7 68.1 323.6 71.3 321.5 76.2C320.2 79.4 320 86.4 320 123.7C320 164.1 320.2 167.8 321.9 171.5C328.9 186.7 350.4 186.9 358.1 171.8C359.1 169.7 360 166.9 360 165.5C360 163.1 360.2 163 367 163H374V228.7C374 271 374.4 295.8 375 298.2C378.9 311.9 395.5 319.7 408.8 314C415 311.3 421.1 304.9 422.8 299.2C423.7 296.4 424 276.9 424 229.1V163H430.9H437.8L438.5 167C440.6 179.1 454.9 186.4 466.5 181.1C471.6 178.8 476.7 173 477.5 168.8C477.8 167 478 145.4 477.8 120.8L477.5 76.2L474.4 72.3C470.5 67.4 463.9 64 458.1 64C448.9 64 440 71.3 438.5 80L437.8 84H398.9H360V81.5C360 78.3 356.9 72.2 353.8 69.3C348.2 64 338.7 62.6 331.5 65.9ZM345.9 77.6L349 80.2V123.4V166.6L346.2 169.3C342.3 173 337.8 172.9 333.9 169.1L331 166.2V123.5V80.8L333.9 77.9C337.6 74.2 341.8 74.1 345.9 77.6ZM464.2 77.9L467.5 80.8L467.8 120.7C468 142.6 467.8 162 467.5 163.9C466 171.7 457.4 174.6 451.9 169.1L449 166.2V123.5V80.8L451.9 77.9C455.8 74 459.9 74 464.2 77.9ZM438 123.5V153H399H360V123.5V94H399H438V123.5ZM413 229.5V296.1L409.2 300.2C405.9 303.7 404.7 304.3 400.4 304.7C394.6 305.2 390.1 302.9 387 297.8C385.1 294.6 385 292.6 385 228.7V163H399H413V229.5Z" fill="#137AB6"/>
<path d="M80.9993 75.999C76.2993 80.699 79.7993 89.399 86.2993 89.399C91.2993 89.399 93.9993 86.699 93.9993 81.799C93.9993 76.899 91.1993 73.999 86.4993 73.999C84.2993 73.999 82.1993 74.799 80.9993 75.999Z" fill="#137AB6"/>
<path d="M127.398 80.7C125.998 82.2 125.798 83.9 126.298 92.5C127.098 108.8 132.898 123 143.498 134.8L147.998 139.8V179.2C147.998 215.4 148.198 219.3 149.998 226.6C153.998 242.3 163.498 256.8 175.998 266.1L182.998 271.3V281.4C182.998 291.2 182.898 291.6 180.798 291.7C179.498 291.8 177.098 293.7 175.098 296.2C167.298 305.9 153.398 317.2 142.498 322.7C139.798 324.1 124.498 330.9 108.498 337.7C92.5976 344.5 77.5976 351.2 75.2976 352.6C59.9976 361.5 44.3976 386.9 37.5976 414C33.1976 431.6 31.4976 462.9 34.7976 466.2C35.8976 467.3 70.2976 467.5 217.698 467.8C379.398 468 399.598 467.8 401.698 466.5C403.998 465 403.998 464.7 403.998 447.9C403.998 434.8 403.498 428.5 401.998 421.1C395.798 390.7 381.298 365.1 363.498 353.4C360.798 351.6 345.698 344.6 330.098 338C314.498 331.3 299.398 324.7 296.598 323.3C285.098 317.5 272.398 307.4 264.098 297.3C260.398 292.8 259.198 292 256.398 292H252.998V282.2V272.4L259.398 268.2C272.798 259.4 283.898 243.6 287.998 227.4C289.598 221.1 289.998 216.3 289.998 200.9V182.2L292.498 181.6C296.898 180.5 297.398 177.9 297.398 158.5C297.398 143.1 297.098 139.3 295.198 132.5C290.598 116 281.998 102.1 270.598 93.1C263.898 87.8 252.998 81.9 246.498 80.1C243.798 79.4 223.798 79 185.798 79C133.698 79 128.998 79.1 127.398 80.7ZM252.298 94.4C265.498 101.1 276.098 112.4 281.498 125.9C284.898 134.1 287.098 146.5 286.798 154.5L286.498 161.4L274.698 146.7C265.398 135.1 262.498 132 260.598 132C259.198 132 255.498 133.6 252.298 135.5C239.498 143.1 224.198 147 207.098 147C192.298 147 177.798 144.2 167.998 139.4C158.298 134.6 147.798 124.2 143.298 114.9C139.998 108.3 136.998 97.7 136.998 92.7V89.9L190.798 90.2L244.698 90.5L252.298 94.4ZM269.598 158.2L280.198 171.5L279.698 195C279.398 212.6 278.798 220 277.598 224.4C271.898 244.8 255.298 261.4 234.498 267.6C226.398 270 211.498 270 203.598 267.6C184.398 261.9 168.698 247.3 161.898 228.9C159.598 222.7 159.598 221.4 159.198 185.2C158.998 164.8 159.098 148 159.298 148C159.598 148 162.198 149.1 165.298 150.5C179.098 156.9 206.998 159.7 224.998 156.6C236.198 154.7 244.398 152.1 251.998 148.1C254.998 146.5 257.798 145.1 258.198 145.1C258.598 145 263.698 151 269.598 158.2ZM218.998 280.2C225.598 280.2 231.798 279.7 235.798 278.6C239.298 277.7 242.398 277 242.598 277C242.798 277 242.998 282.7 242.998 289.8V302.5L230.998 314.5L218.998 326.5L206.498 314L193.998 301.5V288.9V276.4L201.298 278.3C206.098 279.5 211.998 280.2 218.998 280.2ZM196.898 320.4C206.998 330.5 210.998 335.2 210.498 336.1C206.998 342 191.498 361.9 190.898 361.3C190.498 360.9 185.698 350.8 180.198 339L170.298 317.6L175.898 311.8C178.998 308.7 181.698 306.1 181.998 306.1C182.298 306 188.998 312.5 196.898 320.4ZM262.298 311.8L267.998 317.6L257.798 339.8C252.098 352 247.198 362 246.898 362C246.298 362 229.998 340.2 227.598 336.2C226.998 335.1 230.398 331.1 241.098 320.4C248.998 312.5 255.698 306 255.998 306C256.298 306 259.098 308.6 262.298 311.8ZM172.898 349.8C179.198 363.4 184.898 375.5 185.698 376.7C186.598 378.3 187.998 379 189.998 379C192.698 379 193.998 377.8 201.198 368C205.598 361.9 209.398 357.1 209.598 357.2C210.098 357.8 196.598 445 195.998 445C195.398 445 133.598 342.3 133.198 340.6C133.098 339.9 136.198 338 140.198 336.2C144.198 334.4 150.398 331.2 153.998 329C157.598 326.9 160.698 325.1 160.998 325C161.298 325 166.598 336.2 172.898 349.8ZM283.798 328.8C286.998 330.9 293.098 334.1 297.398 335.9C301.798 337.9 304.998 339.8 304.798 340.6C304.198 343.2 242.498 444.9 241.898 444.2C241.198 443.4 227.998 357.7 228.398 357.2C228.598 357.1 232.398 361.9 236.798 368C243.898 377.6 245.298 379 247.898 379C249.398 379 251.198 378.4 251.798 377.7C252.398 377 257.398 366.6 262.998 354.5C274.198 330.3 276.798 325 277.498 325C277.698 325 280.598 326.7 283.798 328.8ZM149.598 390.2C164.898 415.7 177.998 437.6 178.898 438.9C180.298 441.1 180.298 441.3 178.898 440.4C177.998 439.9 154.498 423.1 126.698 403L76.0976 366.5L79.1976 363.8C81.5976 361.7 93.2976 356.2 121.698 344.1C121.798 344 134.398 364.8 149.598 390.2ZM338.298 353.5C351.798 359.3 362.998 365.4 361.798 366.4C360.898 367.3 260.298 439.7 258.998 440.5C257.698 441.3 257.698 441.1 259.098 439C259.898 437.6 273.098 415.7 288.398 390.3L316.098 344L319.298 345.4C321.098 346.1 329.598 349.7 338.298 353.5ZM231.998 455.2C231.998 456.8 230.698 457 218.998 457C211.898 457 205.998 456.6 205.998 456.2C205.998 454.9 217.998 377.8 218.698 374.5C219.098 372.5 221.398 384.8 225.598 412.5C229.098 435.1 231.998 454.3 231.998 455.2ZM123.298 414.2C153.098 435.7 178.598 454.1 179.898 455.2C182.198 457 180.498 457 112.998 457H43.6976L44.3976 443.7C45.2976 424.6 49.3976 408.2 57.1976 392.5C60.8976 385.1 67.1976 375 68.2976 375C68.6976 375 93.3976 392.6 123.298 414.2ZM371.698 376.7C374.998 381 381.098 392.2 384.398 400.2C389.998 413.8 392.998 427.4 393.698 443.2L394.298 457H324.898H255.498L262.498 452C266.398 449.3 291.798 430.8 318.998 411.1C346.198 391.3 368.898 375.1 369.398 375.1C369.898 375 370.898 375.8 371.698 376.7Z" fill="#137AB6"/>
<path d="M200.297 221.099C197.897 221.999 196.597 225.099 197.497 227.899C198.397 230.799 206.597 235.799 211.697 236.599C218.097 237.499 224.697 236.399 229.697 233.499C235.797 229.899 237.897 224.799 234.497 221.999C232.097 219.999 228.797 220.499 224.497 223.499C221.097 225.699 219.697 226.099 215.697 225.699C212.997 225.499 209.697 224.399 208.197 223.299C204.497 220.599 202.797 220.099 200.297 221.099Z" fill="#137AB6"/>
<path d="M74.5011 119.3C54.1011 124.5 41.1011 144.4 44.9011 164.7C49.8011 191.2 77.2011 205.2 101.701 193.8C107.801 191 116.901 181.9 119.901 175.7C132.101 150.3 114.901 120.3 87.0011 118.5C82.6011 118.2 77.5011 118.6 74.5011 119.3ZM93.0011 130.6C100.101 132.7 108.901 141.3 111.301 148.4C115.101 159.5 112.601 169.5 104.101 178.1C98.0011 184.2 91.7011 187 84.4011 187C73.9011 187 63.3011 180.4 58.2011 170.6C54.6011 163.6 54.4011 152.7 57.9011 146C65.0011 132.3 78.6011 126.3 93.0011 130.6Z" fill="#137AB6"/>
<path d="M447.502 232.099C442.602 234.899 441.602 239.899 445.102 244.399C449.002 249.399 457.302 246.999 458.602 240.399C459.702 234.799 452.402 229.399 447.502 232.099Z" fill="#137AB6"/>
<path d="M319.301 242C312.101 244.9 314.901 257 322.701 257C331.001 257 333.801 245.5 326.401 242.1C323.501 240.8 322.301 240.8 319.301 242Z" fill="#137AB6"/>
<path d="M120.602 248.3C113.402 255.5 123.202 266.5 131.102 260.1C132.902 258.7 133.502 257.2 133.502 254.1C133.502 249.2 131.702 247.1 126.802 246.3C123.802 245.9 122.702 246.2 120.602 248.3Z" fill="#137AB6"/>
<path d="M66.5026 307.5C60.0026 313.9 67.9026 324.3 75.9026 320C76.9026 319.5 78.3026 317.7 79.0026 316C82.3026 308.1 72.5026 301.4 66.5026 307.5Z" fill="#137AB6"/>
<path d="M438.702 336.398C425.902 341.198 418.802 351.099 418.602 364.499C418.602 372.899 421.702 380.699 427.402 386.199C438.702 397.199 457.702 397.399 468.802 386.699C475.002 380.699 477.302 375.598 477.802 366.398C478.202 359.298 477.902 357.498 475.802 352.898C470.502 341.298 462.502 335.899 450.002 335.299C445.202 335.099 441.102 335.498 438.702 336.398ZM457.002 347.999C470.902 355.099 470.702 374.399 456.602 381.499C450.502 384.599 446.002 384.698 440.302 381.898C428.902 376.398 425.802 361.999 434.002 352.599C439.902 345.899 449.302 344.099 457.002 347.999Z" fill="#137AB6"/>
<path d="M462.3 429C457.6 430.9 456.5 438.2 460.3 441.8C463.3 444.6 468.3 444.7 471 442C474.1 438.9 473.7 432.7 470.4 430.1C467.5 427.8 465.8 427.6 462.3 429Z" fill="#137AB6"/>
</svg>
