<svg width="504" height="505" viewBox="0 0 504 505" fill="none" xmlns="http://www.w3.org/2000/svg">
<path d="M249.9 1.60019C248.9 2.90019 248.4 7.60019 248.2 20.2002L247.9 37.0002H240.5C229.4 37.0002 230 35.1002 230 73.2002V105H219.5H209V81.7002C209 60.3002 208.8 58.2002 207.2 56.7002C205.5 55.1002 198 55.0002 119.7 55.0002C43.3 55.0002 34 55.2002 32.6 56.6002C31.2 57.9002 31 61.6002 31 81.6002V105H17.2C5 105 3.1 105.2 1.7 106.8C0.2 108.4 0 111.4 0 127.7C0 149.1 0.3 150 7.3 150H11V304.5V459H7.7C5.9 459 3.4 459.7 2.2 460.6C0.1 462.1 0 462.6 0 481.9C0 495.9 0.3 501.9 1.2 502.8C2.9 504.5 501.1 504.5 502.8 502.8C503.7 501.9 504 495.9 504 481.9C504 462.6 503.9 462.1 501.8 460.6C499.9 459.3 496 459 478.8 459H458V437.1V415.2L464.6 414.8C475.1 414.1 475 414.4 475 387.6C475 360.5 475.2 361 464.9 361H458V299.7V238.5L465.2 233.5C474.4 227 479.6 220.9 485.3 210.2C494 193.6 498.9 175.6 500.9 153C502.8 132.4 504.2 96.9002 503.8 81.0002C503.5 66.0002 503.4 65.3002 500.3 58.8002C496.9 51.5002 490.8 44.4002 484.4 39.9002C482.1 38.4002 460.1 28.8002 435.4 18.8002L390.5 0.500188L320.9 0.200188C256.8 0.000187801 251.2 0.100188 249.9 1.60019ZM339.9 12.4002C339.7 12.6002 326 18.3002 309.6 24.9002L279.7 37.0002H270.3H261V24.5002V12.0002H300.7C322.5 12.0002 340.1 12.2002 339.9 12.4002ZM373 19.7002V25.5002L330.2 42.7002L287.5 59.9002L283.8 56.3002L280 52.6002L283.2 50.6002C286.1 48.7002 370.5 14.1002 372.3 14.0002C372.7 14.0002 373 16.6002 373 19.7002ZM430.1 31.1002C470.1 47.2002 479 51.2002 479 52.9002C479 53.3002 477.5 55.1002 475.6 56.9002L472.1 60.3002L464.8 57.1002C460.8 55.4002 441.5 47.5002 422 39.7002L386.5 25.3002L386.2 19.7002C386 16.6002 386.3 14.0002 386.8 14.0002C387.4 14.0002 406.9 21.7002 430.1 31.1002ZM421.2 53.6002C451.6 65.8002 463.1 70.8002 464.9 72.8002L467.3 75.5002L466.6 97.0002C464.9 155.2 462 173.8 452.2 192.5C448.8 199 447.7 200 438.5 206.3C414.3 222.8 387 237.3 380.2 237.3C372.7 237.3 349.8 225.5 325.4 209.2C310.9 199.4 308.2 196.2 303.1 183.2C297 167.4 294.9 149.5 293.1 100C292.5 82.8002 292.6 76.8002 293.5 74.4002C294.7 71.6002 296.6 70.6002 316.6 62.5002C328.7 57.6002 347.5 49.9002 358.5 45.4002C369.5 40.9002 378.8 37.1002 379.2 37.1002C379.6 37.0002 398.5 44.5002 421.2 53.6002ZM260.4 56.7002C255.6 66.3002 254.8 71.9002 255.5 89.7002L256.2 105H249.6H243V77.5002V50.0002H253.4H263.8L260.4 56.7002ZM276 67.5002L279.4 71.0002L279.7 86.7002C280.1 106.7 281.8 139.2 283.1 153.5C284.3 166.1 287.4 179 291.9 190.5C298.1 206.5 301.1 209.5 325.7 225.3C339.9 234.4 367.9 249 371.2 249C372.7 249 373 249.9 373 255V261L370.3 260.4C365.4 259.2 348.8 251.6 338.1 245.6C323.4 237.3 298.7 220.8 294.3 216.2C286.9 208.6 278.1 188.6 274.6 171.7C270.1 150.1 266.7 76.5002 269.8 67.7002C270.6 65.7002 271.5 64.0002 271.9 64.0002C272.3 64.0002 274.1 65.6002 276 67.5002ZM489.6 67.5002C492.8 75.2002 489.9 147.8 485.4 170C482 186.9 473.4 207.2 466.3 215.1C460.5 221.5 434.9 238.5 415 249.2C406.7 253.7 389.4 261 387.1 261C386.4 261 386 258.9 386 255.5C386 251.1 386.4 249.8 387.8 249.3C401.8 244.4 419.2 235 441.3 220.3C455.4 211 457.6 209.2 461 203.8C467.9 193.2 473.9 175.1 476 158.7C477.5 146.6 478.9 121.6 479.6 95.0002L480.2 71.5002L483.8 67.7002C485.8 65.7002 487.6 64.0002 487.8 64.0002C487.9 64.0002 488.8 65.6002 489.6 67.5002ZM196 86.5002V105H120H44V86.5002V68.0002H120H196V86.5002ZM257 127.5V137H134.5H12V127.5V118H134.5H257V127.5ZM259.2 158C261 176 266.2 194.3 274 209.5L279 219.3V296.2V373H151.5H24V261.5V150L141.3 150.2L258.5 150.5L259.2 158ZM317.5 249.1C318 249.6 312.8 250 305.2 250H292V241V232L304.3 240.1C311 244.6 316.9 248.7 317.5 249.1ZM445 304V361H368.5H292V352V343H354.3C406.5 343 416.9 342.8 418.6 341.6C420.4 340.3 420.5 338.6 420.8 319.1L421.1 298L418.6 295.5L416.1 293H354H292V278V263H316.9H341.8L352.1 267.5C377.6 278.4 387.5 277.6 418 262.3C426 258.3 435.2 253.3 438.5 251.1C441.8 248.9 444.6 247.1 444.8 247.1C444.9 247 445 272.6 445 304ZM408 318V330H350H292V318V306H350H408V318ZM462 388V402H377H292V388V374H377H462V388ZM279 394V402H151.5H24V394V386H151.5H279V394ZM101 437V459H62.5H24V437V415H62.5H101V437ZM145 437V459H129.5H114V437V415H129.5H145V437ZM189 437V459H173.5H158V437V415H173.5H189V437ZM279 437V459H240.5H202V437V415H240.5H279V437ZM305 437V459H298.5H292V437V415H298.5H305V437ZM338 437V459H328H318V437V415H328H338V437ZM371 437V459H361H351V437V415H361H371V437ZM445 437V459H414.5H384V437V415H414.5H445V437ZM492 482V492H252H12V482V472H252H492V482Z" fill="#137AB6"/>
<path d="M51.4985 171.4C50.0985 173.5 49.8985 177.1 50.1985 195.5C50.4985 215.6 50.5985 217.3 52.3985 218.6C53.9985 219.7 58.8985 220 76.0985 220H97.8985L99.8985 217.4C101.898 214.9 101.998 213.5 101.998 194.1C101.998 177 101.698 173.1 100.398 171.2C98.8985 169 98.4985 169 75.9985 169H52.9985L51.4985 171.4ZM88.9985 194V207H75.9985H62.9985V194V181H75.9985H88.9985V194Z" fill="#137AB6"/>
<path d="M127.6 170.6C126.2 171.9 126 175.5 126 194.5C126 216.5 126 216.9 128.2 218.4C130.1 219.7 134.1 220 151.5 220C168.9 220 172.9 219.7 174.8 218.4C177 216.9 177 216.5 177 194.5C177 175.5 176.8 171.9 175.4 170.6C174.1 169.2 170.5 169 151.5 169C132.5 169 128.9 169.2 127.6 170.6ZM164 194V207H151.5H139V194V181H151.5H164V194Z" fill="#137AB6"/>
<path d="M202.6 171.2C201.3 173.1 201 177 201 194.1C201 213.5 201.1 214.9 203.1 217.4L205.1 220H226.9C244.1 220 249 219.7 250.6 218.6C252.4 217.3 252.5 215.6 252.8 195.5C253.1 177.1 252.9 173.5 251.5 171.4L250 169H227C204.5 169 204.1 169 202.6 171.2ZM240 194V207H227H214V194V181H227H240V194Z" fill="#137AB6"/>
<path d="M52 238C50.1 239.9 50 241.3 50 261.3C50 278.9 50.3 282.9 51.6 284.8C53.1 287 53.5 287 76 287H99L100.5 284.6C101.9 282.5 102.1 278.9 101.8 260.5C101.5 240.4 101.4 238.7 99.6 237.4C98 236.3 93.1 236 75.8 236C55.3 236 53.9 236.1 52 238ZM89 261.5V274H76H63V261.5V249H76H89V261.5Z" fill="#137AB6"/>
<path d="M127.7 237.8C126.2 239.4 126 242.6 126 261.8C126 280.5 126.2 284.1 127.6 285.4C129.9 287.8 173.1 287.8 175.4 285.4C176.8 284.1 177 280.5 177 261.6C177 241.3 176.8 239.2 175.2 237.7C173.6 236.2 170.4 236 151.3 236C131.3 236 129.2 236.2 127.7 237.8ZM164 261.5V274H151.5H139V261.5V249H151.5H164V261.5Z" fill="#137AB6"/>
<path d="M203.398 237.4C201.598 238.7 201.498 240.4 201.198 260.5C200.898 278.9 201.098 282.5 202.498 284.6L203.998 287H226.998C249.498 287 249.898 287 251.398 284.8C252.698 282.9 252.998 278.9 252.998 261.3C252.998 241.3 252.898 239.9 250.998 238C249.098 236.1 247.698 236 227.198 236C209.898 236 204.998 236.3 203.398 237.4ZM239.998 261.5V274H226.998H213.998V261.5V249H226.998H239.998V261.5Z" fill="#137AB6"/>
<path d="M54.3 304C50.4 305.6 50 308 50 329C50 348.6 50.5 352.3 53.4 354.2C54 354.6 64.3 355 76.2 355H97.9L99.9 352.4C101.9 349.9 102 348.5 102 329C102 301.2 104.3 303.6 77.3 303.3C65.9 303.2 55.5 303.5 54.3 304ZM89 329V342H76H63V329V316H76H89V329Z" fill="#137AB6"/>
<path d="M130.5 303.7C126.3 304.7 126 306.3 126 329.6C126 351.5 126 351.9 128.2 353.4C130.1 354.7 134.1 355 151.5 355C168.9 355 172.9 354.7 174.8 353.4C177 351.9 177 351.5 177 329.6C177 312 176.7 307 175.6 305.4C174.3 303.6 172.7 303.5 153.3 303.3C141.9 303.2 131.6 303.4 130.5 303.7ZM164 329V342H151.5H139V329V316H151.5H164V329Z" fill="#137AB6"/>
<path d="M205.3 304C201.4 305.6 201 308 201 329.3C201 348.5 201.1 349.9 203.1 352.4L205.1 355H226.8C238.7 355 249 354.6 249.6 354.2C252.5 352.3 253 348.6 253 328.7C253 301.2 255.3 303.6 228.3 303.3C216.9 303.2 206.5 303.5 205.3 304ZM240 329V342H227H214V329V316H227H240V329Z" fill="#137AB6"/>
<path d="M378.102 60.3572C368.52 61.5805 359.141 68.4447 354.655 77.5517C351.733 83.4645 350.917 88.6297 350.917 101.814V111.737L347.451 112.145C342.966 112.688 338.48 115.339 336.101 118.873L334.267 121.727L334.063 152.311C333.859 186.972 333.859 186.768 338.888 191.117C340.383 192.409 342.83 193.836 344.257 194.176C345.888 194.651 360.432 194.855 384.423 194.719L422.006 194.516L424.861 192.613C426.424 191.593 428.531 189.486 429.55 187.923L431.453 185.069V153.398V121.727L429.618 118.873C427.239 115.339 422.754 112.688 418.268 112.145L414.802 111.737V101.814C414.802 96.3774 414.462 89.7171 414.123 87.1345C413.239 80.814 409.705 73.7458 405.22 69.2603C401.142 65.1825 393.802 61.2407 389.112 60.629C387.345 60.4252 385.171 60.1533 384.219 60.0174C383.268 59.9494 380.549 60.0853 378.102 60.3572ZM392.307 73.542C396.248 75.7168 399.103 78.6392 401.346 82.9208C402.773 85.5713 402.909 86.7947 403.113 98.8241L403.385 111.941H382.928H362.471V100.183C362.471 93.7948 362.811 87.3384 363.151 85.9791C364.782 80.2023 371.17 73.6779 377.015 71.8429C378.17 71.5031 381.297 71.2992 383.947 71.4351C387.685 71.571 389.52 72.0468 392.307 73.542ZM419.832 124.99C420.783 126.281 420.919 130.223 420.919 153.806V181.195L419.152 182.554C417.385 183.981 416.705 183.981 382.86 183.981C349.014 183.981 348.335 183.981 346.568 182.554L344.801 181.195V153.806C344.801 130.223 344.937 126.281 345.888 124.99L346.908 123.495H382.86H418.812L419.832 124.99Z" fill="#137AB6"/>
<path d="M374.848 132.67C369.751 135.252 366.42 140.01 365.537 146.059C364.517 152.719 368.663 160.535 374.848 163.661C377.362 164.952 377.43 165.02 377.43 168.894C377.43 173.719 379.129 175.826 382.935 175.826C386.605 175.826 388.304 173.651 388.304 168.826C388.304 165.02 388.372 164.952 390.887 163.661C397.14 160.467 401.149 152.787 400.198 145.923C399.518 141.097 396.12 135.864 392.11 133.349C389.256 131.65 387.965 131.311 383.615 131.107C379.129 130.903 377.974 131.107 374.848 132.67ZM387.489 144.291C391.635 148.981 386.537 156.457 380.828 154.078C378.178 152.991 376.751 150.952 376.751 148.301C376.751 142.524 383.615 139.942 387.489 144.291Z" fill="#137AB6"/>
</svg>
