<svg width="512" height="512" viewBox="0 0 512 512" fill="none" xmlns="http://www.w3.org/2000/svg">
<path d="M218.097 49.2C207.197 62 191.097 81 182.297 91.4L166.297 110.2L165.597 122.3C165.297 128.9 164.997 168.2 164.997 209.7C164.997 251.1 164.797 285 164.597 285C164.397 285 162.497 284.4 160.297 283.6C143.997 277.9 123.997 283 111.497 296.1C100.797 307.3 97.297 319.6 98.297 342.5C99.097 360.2 102.997 370.9 111.997 379.5C114.997 382.4 114.997 382.4 114.997 393.2V404H109.597C98.097 404 82.497 408.7 69.297 416.1C58.597 422.2 43.097 437.6 37.097 448.4C31.897 457.5 27.397 469.7 26.397 477C25.897 481.1 26.097 482.4 27.497 484C29.297 486 31.497 486 255.997 486C474.297 486 482.797 485.9 484.297 484.2C485.897 482.5 485.997 466.3 485.997 271.2C485.997 80.7 485.797 60 484.397 58.6C483.197 57.3 480.297 57 469.897 57H456.997V43.1C456.997 29.8 456.897 29 454.797 27.6C452.797 26.2 440.797 26 345.297 26H237.997L218.097 49.2ZM445.997 240.5V444H375.197C336.197 444 292.197 443.7 277.297 443.3L250.197 442.7L248.697 440.1C246.497 436.4 234.497 424.7 228.497 420.4C215.397 411 195.297 404 181.297 404H176.997V393V381.9L181.097 377.7C185.797 372.8 190.297 363.8 191.897 356.2C193.297 349.4 193.297 325.6 191.897 318.8C190.297 310.9 185.697 302.1 180.597 296.7L175.997 292V229.6C175.997 195.4 176.297 156.5 176.697 143.2L177.297 119H210.497C234.897 119 243.897 118.7 244.797 117.8C245.697 116.9 245.997 106.4 245.997 76.8V37H345.997H445.997V240.5ZM234.997 78V108H209.497C195.497 108 183.997 107.7 183.997 107.4C183.997 106.8 234.097 48 234.597 48C234.797 48 234.997 61.5 234.997 78ZM474.997 271.5V475H369.597H264.197L263.097 470.4C262.397 467.8 260.897 463.2 259.597 460.1L257.297 454.5L355.197 454.8C447.797 455.2 453.197 455.1 454.997 453.5C456.997 451.7 456.997 449.1 456.997 259.8V68H465.997H474.997V271.5ZM158.697 295.2C162.897 296.7 166.197 299 170.597 303.4C178.697 311.6 180.997 317.6 181.697 332.5C182.597 352.1 179.997 361.3 170.397 372L164.997 378.1V394.5C164.997 415 164.997 415 176.897 415C198.097 415 218.397 424 233.497 440.1C242.597 449.9 248.797 460.5 252.497 472.7L253.097 475H145.897H38.797L39.397 471.7C40.397 466.3 48.597 450.9 53.997 444.3C68.097 426.9 88.997 416.4 111.397 415.3C126.597 414.5 125.997 415.3 125.997 394.5V377.9L121.697 373.2C111.397 362 108.997 355.3 108.997 337.8C109.097 319.7 111.497 311.8 119.497 303.5C129.897 292.8 144.297 289.8 158.697 295.2Z" fill="#137AB6"/>
<path d="M293.999 75.9C292.399 79 292.799 81.8 295.199 83.4C297.199 84.8 304.399 85 353.199 85C407.699 85 408.999 85 410.999 83C413.199 80.8 413.499 78.8 411.999 75.9C410.999 74.1 409.199 74 352.999 74C296.799 74 294.999 74.1 293.999 75.9Z" fill="#137AB6"/>
<path d="M317.2 104.6C315.8 105.6 315 107.2 315 109C315 115 314.9 115 363.5 115C412.1 115 412 115 412 109C412 103 412.1 103 363.5 103C325.2 103 319.2 103.2 317.2 104.6Z" fill="#137AB6"/>
<path d="M337.005 139.999C321.105 141.999 306.605 149.299 295.005 160.899C286.205 169.899 281.905 176.699 277.705 188.699C274.705 196.999 274.505 198.299 274.605 211.999C274.605 224.999 274.905 227.299 277.305 234.499C281.105 245.999 286.405 254.299 295.505 263.599C302.005 270.099 305.205 272.499 312.605 276.099L321.705 280.499L321.205 284.199C320.505 289.599 321.805 294.599 324.605 297.899L327.105 300.899L327.005 347.399C327.005 391.899 327.105 394.199 328.905 397.899C336.205 411.999 356.805 412.099 364.005 397.899C366.005 394.199 366.005 392.199 366.005 347.499C365.905 302.499 366.005 300.799 367.905 298.399C370.805 294.699 372.305 289.399 371.805 284.599L371.405 280.499L380.405 276.099C387.805 272.499 391.005 270.099 397.505 263.599C406.805 254.199 411.005 247.499 415.305 235.299C418.305 226.999 418.505 225.699 418.505 211.999C418.505 198.299 418.305 196.999 415.305 188.699C411.005 176.399 406.705 169.699 397.505 160.499C381.605 144.699 359.405 137.199 337.005 139.999ZM361.405 152.599C377.405 156.499 393.705 169.899 401.005 185.199C408.405 200.599 409.505 215.299 404.305 230.999C398.605 248.299 385.305 262.599 368.805 269.099C364.005 270.999 363.405 270.999 359.805 269.499C354.605 267.399 337.405 267.399 332.205 269.499C328.605 270.999 328.005 270.999 323.105 268.999C314.905 265.799 308.005 260.899 301.005 253.299C290.105 241.599 284.705 227.799 284.705 211.999C284.805 195.199 290.705 181.199 303.005 168.999C319.105 152.899 339.205 147.199 361.405 152.599ZM357.105 280.299C359.705 282.299 361.105 285.799 360.405 288.499C359.305 292.899 356.505 293.999 346.105 293.999C337.805 293.999 336.405 293.699 334.305 291.799C331.005 288.699 331.305 284.799 335.105 281.599C337.905 279.199 338.905 278.999 346.805 278.999C352.105 279.099 356.105 279.499 357.105 280.299ZM355.005 347.499C355.005 375.699 354.605 389.699 353.905 391.299C351.505 396.499 345.205 397.299 340.905 393.099L338.005 390.199V348.099V305.999H346.505H355.005V347.499Z" fill="#137AB6"/>
<path d="M335.502 158C315.902 162 300.602 175.7 293.902 195C290.602 204.6 290.702 219.8 294.202 229.6C300.602 247.7 314.302 260.3 332.602 265C354.902 270.7 378.002 262.3 391.102 243.7C398.302 233.4 400.502 226 400.502 212C400.502 201.9 400.202 199.6 397.702 193C392.702 179.5 382.702 168.6 369.502 162.4C358.802 157.4 346.302 155.8 335.502 158ZM356.502 169.5C384.002 176.7 397.802 206.4 385.202 231.4C381.702 238.5 372.802 247.5 365.902 250.9C357.702 255 348.002 256.6 340.002 255.2C304.302 248.9 290.302 206.3 315.702 181.2C327.102 170 341.902 165.7 356.502 169.5Z" fill="#137AB6"/>
<path d="M342.803 184.099C341.803 184.599 341.003 186.099 341.003 187.399C341.003 188.899 340.103 190.099 338.503 190.799C331.203 194.099 329.803 206.799 336.003 212.999C337.903 214.899 337.903 214.999 336.103 214.999C333.003 214.999 331.703 217.599 332.303 222.699C332.703 226.499 333.503 228.099 336.403 230.699C338.303 232.499 340.203 235.099 340.603 236.499C342.103 242.499 348.403 242.599 351.503 236.699C352.603 234.699 354.503 232.299 355.603 231.499C356.803 230.699 358.503 228.199 359.403 225.899C361.303 221.199 360.903 217.399 357.903 212.199C356.203 209.299 356.203 208.899 357.603 208.299C362.303 206.499 361.103 196.999 355.503 192.099C353.603 190.399 352.003 188.399 352.003 187.699C352.003 184.099 346.403 181.899 342.803 184.099ZM348.303 200.699C348.503 201.199 349.003 202.699 349.303 204.099C349.903 206.499 349.703 206.599 346.903 206.199C343.703 205.699 342.403 203.999 343.403 201.499C344.003 199.999 347.603 199.399 348.303 200.699ZM347.403 217.599C349.303 218.299 349.503 221.299 347.703 222.899C346.003 224.299 343.503 222.399 342.703 219.199C342.203 216.899 344.003 216.299 347.403 217.599Z" fill="#137AB6"/>
<path d="M234.8 196.5C225.6 204.5 217.8 211 217.6 211C217.4 211 214.7 207.8 211.6 204C206.9 198.2 205.4 197 203 197C200.1 197 197 200 197 202.7C197 204.3 212.7 223.9 214.5 224.7C215.3 225 217 224.9 218.3 224.6C221.1 223.8 258.2 191.6 259.1 189.1C260.3 186.1 257.8 182.5 254.5 182.2C251.9 182 249.2 183.9 234.8 196.5Z" fill="#137AB6"/>
<path d="M233.798 295.099C231.698 296.299 231.398 301.999 233.198 303.799C234.898 305.499 312.098 305.499 313.798 303.799C315.498 302.099 315.298 297.399 313.398 295.599C312.098 294.199 307.098 293.999 273.698 293.999C249.598 293.999 234.898 294.399 233.798 295.099Z" fill="#137AB6"/>
<path d="M382.197 294.7C379.697 295.7 378.797 300 380.497 302.6L381.997 305H407.497C431.597 305 432.997 304.9 433.997 303.1C435.497 300.2 435.197 298.2 432.997 296C431.097 294.1 429.697 294 407.297 294.1C394.197 294.1 382.897 294.4 382.197 294.7Z" fill="#137AB6"/>
<path d="M233.202 341.2C231.202 343.2 231.702 348.8 233.902 350C235.202 350.6 249.602 351 273.902 351C307.102 351 312.102 350.8 313.402 349.4C315.302 347.6 315.502 342.9 313.802 341.2C312.102 339.5 234.902 339.5 233.202 341.2Z" fill="#137AB6"/>
<path d="M380.4 342.4C379.1 344.6 379 345.3 380.2 347.7L381.5 350.5L406.5 350.8C431 351 431.5 351 433.3 348.9C435.4 346.3 435.5 343.6 433.4 341.6C432.1 340.2 428.3 340 407 340H382L380.4 342.4Z" fill="#137AB6"/>
<path d="M233.798 386.099C231.698 387.299 231.398 392.999 233.198 394.799C234.898 396.499 312.098 396.499 313.798 394.799C315.798 392.799 315.298 387.199 313.098 385.999C310.398 384.599 236.198 384.699 233.798 386.099Z" fill="#137AB6"/>
<path d="M381.3 386.2C379.2 388.9 379 391.3 380.5 393.6L382 396H407C428.3 396 432.1 395.8 433.4 394.4C435.4 392.4 435.4 390.1 433.4 387.2C431.9 385 431.6 385 407.1 385C388.4 385 382 385.3 381.3 386.2Z" fill="#137AB6"/>
</svg>
