<svg width="512" height="512" viewBox="0 0 512 512" fill="none" xmlns="http://www.w3.org/2000/svg">
<path d="M122.9 7.3C121 8.5 118.5 11.5 117.3 14C115.1 18.1 115 19.7 115 38.3C115 56.3 114.8 58.2 113.4 57.6C112.5 57.2 107.8 56.7 103 56.3L94.2998 55.7L90.3998 59.3L86.4998 62.8L86.1998 245.4L85.9998 428L69.7998 428.2L53.5998 428.5L52.0998 431.1C50.7998 433.5 50.7998 434 52.2998 436.4L53.9998 439H179.3H304.5L305.8 445.5C311.1 473.6 334.5 497.8 363.4 505C374.2 507.7 389.6 507.7 401 505C428.8 498.3 450.8 476.5 458.1 448.5C460.9 437.5 460.9 420.6 458.1 409.6C450.7 381.4 428.8 359.7 400.8 353C391 350.7 375.7 350.4 366.3 352.4L360 353.7V225.2C360 108.8 359.8 96.6 358.4 94.1C357.5 92.6 355.8 90.8 354.7 90C353 89 336.9 86.1 332.3 86C331.3 86 331 80.7 331 63C331 37.6 330.6 35.4 325.1 30.7C321 27.3 317.6 26.4 301 24.5C293.6 23.7 253.8 18.9 212.7 14C171.6 9 135.3 5 132.1 5C127.7 5 125.4 5.6 122.9 7.3ZM225.5 27C310.6 37.2 316.6 38 318.3 40.1C319.8 42 320 44.7 320 63.1C320 80.5 319.8 84 318.6 84C316.9 84 134.2 60.3 129.2 59.5L125.9 58.9L126.2 38.9C126.5 20.4 126.7 18.7 128.4 17.4C129.5 16.6 131.3 16 132.4 16C133.6 16 175.5 20.9 225.5 27ZM110.5 68.6C113.8 68.9 117 69.6 117.5 70C118.1 70.4 120.8 70.8 123.5 70.8C127.9 70.8 341 98.2 346.8 99.5L349 99.9996V229V357.9L342.9 361.1C330.1 367.9 316.2 383.9 310 398.6C306.8 406.3 304 418.5 304 424.6V428H290H276V385.7C276 346.7 275.9 343.2 274.2 340.1C270.4 333 270.5 333 223.7 333C178.4 333 177.4 333.1 173.2 338.5C171 341.2 171 341.7 171 384.6V428H134H96.9998V248.2C96.9998 149.3 97.2998 68 97.6998 67.6C98.0998 67.2 99.7998 67.1 101.5 67.4C103.1 67.7 107.2 68.2 110.5 68.6ZM263.8 345.2C264.7 346.1 265 356.8 265 387.2V428H223.5H182V386.6C182 354.4 182.3 345.1 183.3 344.7C183.9 344.4 202.1 344.1 223.6 344.1C252.7 344 262.9 344.3 263.8 345.2ZM396.4 363.5C400.2 364.3 407.1 366.8 411.8 369.1C423 374.5 435.7 386.9 441.3 397.7C451.5 417.4 451.5 440.6 441.3 460.3C435.7 471.1 422.9 483.5 411.9 488.8C400.6 494.2 390.3 496.4 378.6 495.8C338.5 493.6 308.7 455.6 316.5 416.5C322.7 385.3 350.3 362.2 381.5 362.1C385.9 362.1 392.6 362.7 396.4 363.5Z" fill="#137AB6"/>
<path d="M135.3 128.5C129.1 131.2 128 134.6 128 151.5C128 174.7 129.4 176 154.2 176C167.7 176 169.9 175.8 172.8 174C179 170.2 180 167.2 180 151.5C180 135.8 179 132.8 172.8 129C169.9 127.2 167.7 127 154 127C143 127.1 137.6 127.5 135.3 128.5ZM167.8 139.2C169.5 140.9 169.5 162.1 167.8 163.8C166.1 165.5 141.9 165.5 140.2 163.8C139.4 163 139 158.8 139 151.5C139 144.2 139.4 140 140.2 139.2C141 138.4 145.5 138 154 138C162.5 138 167 138.4 167.8 139.2Z" fill="#137AB6"/>
<path d="M204.2 129C198 132.8 197 135.8 197 151.5C197 167.2 198 170.2 204.2 174C207.1 175.8 209.3 176 222.8 176C247.6 176 249 174.7 249 151.5C249 128.4 247.5 127 222.8 127C209.3 127 207.1 127.2 204.2 129ZM236.8 139.2C238.5 140.9 238.5 162.1 236.8 163.8C235.1 165.5 210.9 165.5 209.2 163.8C208.4 163 208 158.8 208 151.5C208 144.2 208.4 140 209.2 139.2C210 138.4 214.5 138 223 138C231.5 138 236 138.4 236.8 139.2Z" fill="#137AB6"/>
<path d="M274.4 128.4C272.7 129.2 270.2 131.3 268.9 133.1C266.6 136.3 266.5 137.3 266.5 151.5C266.5 165.7 266.6 166.7 268.9 169.9C272.7 175.2 275.9 176 293.3 176C307.6 176 308.9 175.8 312.1 173.7C318.2 169.7 319.1 166.4 318.8 150.3C318.5 137.8 318.3 135.8 316.4 133.3C312.4 127.9 309.1 127 292.5 127C282.2 127.1 276.5 127.5 274.4 128.4ZM307 139.9C307.5 141 308 146.2 308 151.5C308 165.4 308.4 165 293.5 165C286.7 165 280.5 164.7 279.6 164.4C278.3 163.9 278 161.8 278 151.5C278 142.6 278.3 139 279.3 138.7C279.9 138.4 286.2 138.1 293.2 138.1C304.8 138 306 138.2 307 139.9Z" fill="#137AB6"/>
<path d="M135.3 196.5C129.1 199.2 128 202.6 128 219.5C128 242.7 129.4 244 154.3 244C168.6 244 169.9 243.8 173.1 241.7C179.2 237.7 180.1 234.4 179.8 218.3C179.5 202.5 178.6 200.2 171.9 196.8C167.4 194.5 140.4 194.3 135.3 196.5ZM167.8 207.2C169.5 208.9 169.5 230.1 167.8 231.8C166.1 233.5 141.9 233.5 140.2 231.8C139.4 231 139 226.8 139 219.5C139 212.2 139.4 208 140.2 207.2C141 206.4 145.5 206 154 206C162.5 206 167 206.4 167.8 207.2Z" fill="#137AB6"/>
<path d="M204.2 197C198 200.8 197 203.8 197 219.5C197 235.2 198 238.2 204.2 242C207.1 243.8 209.3 244 222.8 244C247.6 244 249 242.7 249 219.5C249 196.4 247.5 195 222.8 195C209.3 195 207.1 195.2 204.2 197ZM236.8 207.2C238.5 208.9 238.5 230.1 236.8 231.8C235.1 233.5 210.9 233.5 209.2 231.8C208.4 231 208 226.8 208 219.5C208 212.2 208.4 208 209.2 207.2C210 206.4 214.5 206 223 206C231.5 206 236 206.4 236.8 207.2Z" fill="#137AB6"/>
<path d="M274.4 196.4C272.7 197.2 270.2 199.3 268.9 201.1C266.6 204.3 266.5 205.3 266.5 219.5C266.5 233.7 266.6 234.7 268.9 237.9C272.7 243.2 275.9 244 293.3 244C307.6 244 308.9 243.8 312.1 241.7C318.2 237.7 319.1 234.4 318.8 218.3C318.5 205.8 318.3 203.8 316.4 201.3C312.4 195.9 309.1 195 292.5 195C282.2 195.1 276.5 195.5 274.4 196.4ZM307 207.9C307.5 209 308 214.2 308 219.5C308 233.4 308.4 233 293.5 233C286.7 233 280.5 232.7 279.6 232.4C278.3 231.9 278 229.8 278 219.5C278 210.6 278.3 207 279.3 206.7C279.9 206.4 286.2 206.1 293.2 206.1C304.8 206 306 206.2 307 207.9Z" fill="#137AB6"/>
<path d="M135.3 264.5C129.1 267.2 128 270.6 128 287.5C128 310.7 129.4 312 154.3 312C168.6 312 169.9 311.8 173.1 309.7C179.2 305.7 180.1 302.4 179.8 286.3C179.5 270.5 178.6 268.2 171.9 264.8C167.4 262.5 140.4 262.3 135.3 264.5ZM167.8 275.2C169.5 276.9 169.5 298.1 167.8 299.8C166.1 301.5 141.9 301.5 140.2 299.8C139.4 299 139 294.8 139 287.5C139 280.2 139.4 276 140.2 275.2C141 274.4 145.5 274 154 274C162.5 274 167 274.4 167.8 275.2Z" fill="#137AB6"/>
<path d="M204.2 265C198 268.8 197 271.8 197 287.5C197 303.2 198 306.2 204.2 310C207.1 311.8 209.3 312 222.8 312C247.6 312 249 310.7 249 287.5C249 264.4 247.5 263 222.8 263C209.3 263 207.1 263.2 204.2 265ZM236.8 275.2C238.5 276.9 238.5 298.1 236.8 299.8C235.1 301.5 210.9 301.5 209.2 299.8C208.4 299 208 294.8 208 287.5C208 280.2 208.4 276 209.2 275.2C210 274.4 214.5 274 223 274C231.5 274 236 274.4 236.8 275.2Z" fill="#137AB6"/>
<path d="M274.4 264.4C272.7 265.2 270.2 267.3 268.9 269.1C266.6 272.3 266.5 273.3 266.5 287.5C266.5 301.7 266.6 302.7 268.9 305.9C272.7 311.2 275.9 312 293.3 312C307.6 312 308.9 311.8 312.1 309.7C318.2 305.7 319.1 302.4 318.8 286.3C318.5 273.8 318.3 271.8 316.4 269.3C312.4 263.9 309.1 263 292.5 263C282.2 263.1 276.5 263.5 274.4 264.4ZM307 275.9C307.5 277 308 282.2 308 287.5C308 301.4 308.4 301 293.5 301C286.7 301 280.5 300.7 279.6 300.4C278.3 299.9 278 297.8 278 287.5C278 278.6 278.3 275 279.3 274.7C279.9 274.4 286.2 274.1 293.2 274.1C304.8 274 306 274.2 307 275.9Z" fill="#137AB6"/>
<path d="M371.498 386.4C361.898 390.8 356.898 398.1 356.198 408.7C355.898 413.7 355.398 415.1 353.898 415.5C352.898 415.9 350.998 417.6 349.798 419.3C347.598 422.3 347.498 423.5 347.198 443C346.898 466 347.398 468.4 353.898 472.7C357.198 474.9 357.998 475 382.398 475C405.498 475 407.798 474.8 410.698 473C417.198 469.1 417.498 467.9 417.498 444.5C417.498 425.6 417.298 423.2 415.598 420.3C414.498 418.6 412.698 416.6 411.498 416C409.698 415 409.098 413.6 408.598 408.8C406.698 389.9 387.998 378.6 371.498 386.4ZM388.998 396.9C393.698 399.4 396.998 404.4 396.998 409.1V413H381.898H366.698L367.298 408.8C368.698 398.2 379.898 392 388.998 396.9ZM405.798 443.9C405.998 458 405.698 462.5 404.798 463.2C402.998 464.3 361.798 464.2 359.998 463C358.798 462.3 358.398 458.9 358.198 445.6C357.998 434.8 358.298 428.4 358.998 427C360.098 425 360.698 425 382.798 425.2L405.498 425.5L405.798 443.9Z" fill="#137AB6"/>
<path d="M388.5 433C387.4 433.5 385 435.4 383.1 437.4C380 440.6 379.3 440.9 375.8 440.4C371.1 439.6 369 441.1 369 445.5C369 448 369.9 449.6 373 452.4C375.2 454.4 378 456 379.1 456C380.4 456 384.2 453.1 388.6 448.8C394.8 442.9 396 441.1 396 438.5C396 434 392.5 431.5 388.5 433Z" fill="#137AB6"/>
</svg>
