<svg width="512" height="512" viewBox="0 0 512 512" fill="none" xmlns="http://www.w3.org/2000/svg">
<path d="M47.5017 47L7.50174 87L7.20174 294C7.00174 500.3 7.00174 501 9.00174 503C11.0017 505 11.6017 505 256.502 504.8C456.202 504.5 502.102 504.3 503.202 503.2C504.202 502.2 504.602 487.2 504.802 429.1C505.102 346.2 505.702 352.3 496.702 351.3L492.002 350.7V337.6C492.002 328.7 491.602 324 490.802 323.2C489.902 322.3 480.402 322 454.302 322H419.102L418.802 267.8L418.502 213.5L416.102 210.1C413.002 205.8 404.002 201.5 394.702 199.9C387.802 198.8 373.302 199.1 368.302 200.6L366.002 201.2V105.8C366.002 14.6 365.902 10.2 364.202 8.7C362.502 7.1 351.402 7 224.902 7H87.6017L47.5017 47ZM355.002 112V205.9L352.602 208.3C349.402 211.5 348.002 216.8 348.002 226V233.5H337.502C328.202 233.5 327.002 233.3 327.002 231.7C327.002 230.3 328.002 230 333.102 230C340.902 230 343.002 228.9 343.002 224.7C343.002 219.9 341.502 219 333.802 219H327.002V204.2C327.002 196.1 326.602 188 326.002 186.1C323.102 175.7 309.102 170.3 287.802 171.2C274.302 171.8 266.502 174.4 260.802 180L257.002 183.8V201.4V219H235.202C219.602 219 213.102 219.3 212.202 220.2C210.202 222.2 210.702 227.8 212.902 229C214.102 229.6 223.302 230 235.902 230H257.002V244.5V259H235.202C219.602 259 213.102 259.3 212.202 260.2C210.602 261.8 210.602 267.2 212.202 268.8C213.102 269.7 219.602 270 235.202 270H257.002V284.5V299H235.902C223.302 299 214.102 299.4 212.902 300C210.702 301.2 210.202 306.8 212.202 308.8C213.102 309.7 219.602 310 235.202 310H257.002V316V322H224.502H192.002V271.7C192.002 233.9 191.702 221.1 190.802 220.2C188.802 218.2 183.202 218.7 182.002 220.9C181.402 222.2 181.002 244.6 181.002 286.7V350.6L176.802 351.6C173.802 352.2 172.202 353.2 171.302 355C170.302 356.9 170.002 373 170.002 425.1V492.7L118.802 493.3C90.7017 493.7 56.7017 494 43.3017 494H19.0017V294.5V95H55.8017C83.1017 95 92.9017 94.7 93.8017 93.8C94.7017 92.9 95.0017 83 95.0017 55.3V18H225.002H355.002V112ZM84.0017 55.5V84H55.3017H26.5017L55.0017 55.5C70.7017 39.8 83.6017 27 83.7017 27C83.9017 27 84.0017 39.8 84.0017 55.5ZM306.302 184C309.802 185.1 313.402 186.7 314.102 187.6C315.202 189 315.002 189.5 313.002 191C308.802 194.2 302.002 195.5 290.502 195.5C280.702 195.5 278.902 195.2 273.802 192.8C270.602 191.3 268.002 189.7 268.002 189.2C268.002 188.7 269.102 187.5 270.402 186.7C277.802 181.8 295.002 180.5 306.302 184ZM291.502 206.4C303.102 206.4 307.502 206 310.802 204.8L315.002 203.1V219.8V236.5L310.402 239C301.802 243.5 302.002 242.4 302.002 284.7V322H285.002H268.002V262.5V203.1L272.302 204.8C275.502 206 279.902 206.4 291.502 206.4ZM398.502 212.5C401.302 213.3 404.402 214.7 405.402 215.5C407.302 216.9 407.302 217 405.502 219C399.702 225.4 374.902 226.5 364.602 220.7C359.902 218.1 359.702 217.3 363.002 214.8C369.202 210.2 387.302 209 398.502 212.5ZM366.102 233.7C375.402 236.6 396.202 235.9 405.602 232.3C406.802 231.9 407.002 238.1 407.002 276.9V322H389.502H372.002V286C372.002 245.1 372.002 245.1 364.602 239.8C361.402 237.6 360.002 235.9 360.002 234.3C360.002 233 360.102 232 360.302 232C360.502 232 363.102 232.8 366.102 233.7ZM352.002 246.5C354.502 247.4 357.402 248.7 358.402 249.5C360.302 250.9 360.302 251 358.502 253C353.602 258.4 331.702 260.2 320.802 256.1C317.702 254.9 314.702 253.3 314.102 252.6C312.402 250.5 316.202 247.9 323.802 245.8C331.702 243.6 344.902 244 352.002 246.5ZM324.202 268.6C333.602 270.5 346.202 270.1 354.502 267.5C357.302 266.7 359.602 266 359.802 266C359.902 266 360.002 278.6 360.002 294V322H336.502H313.002V293.9C313.002 269.3 313.202 265.9 314.502 266.4C315.302 266.7 319.702 267.7 324.202 268.6ZM481.002 342V351H474.002C466.202 351 465.002 350 465.002 343.6C465.002 341.1 464.402 339.8 463.102 339C460.002 337.4 214.902 337.6 212.702 339.3C211.702 340 210.702 342.4 210.402 345C210.102 347.4 209.702 349.8 209.402 350.2C209.102 350.6 205.502 351 201.402 351H194.002V342V333H337.502H481.002V342ZM454.002 350C454.002 350.7 414.502 351 337.402 351C260.002 351 221.102 350.7 221.502 350C222.402 348.6 454.002 348.6 454.002 350ZM493.002 428V493H337.502H182.002V428V363H337.502H493.002V428Z" fill="#137AB6"/>
<path d="M167.997 48.3009C137.497 57.4009 118.497 84.5009 120.297 116.401C121.197 134.101 127.097 147.001 139.997 160.001C153.697 173.801 169.497 179.701 190.297 178.801C208.797 178.001 220.497 172.701 233.997 159.101C243.397 149.701 248.497 140.901 251.597 129.001C253.897 120.301 253.897 105.601 251.597 96.3009C245.797 72.8009 225.997 53.0009 202.897 47.5009C193.197 45.2009 177.197 45.6009 167.997 48.3009ZM198.197 58.1009C207.997 60.1009 217.797 65.6009 225.597 73.4009C236.697 84.5009 241.997 97.2009 241.997 112.501C241.997 141.801 219.397 165.901 189.997 167.701C164.497 169.301 141.997 153.501 133.397 128.001C130.797 120.401 130.797 104.601 133.397 97.0009C138.897 81.0009 148.397 69.7009 162.597 62.6009C173.097 57.3009 186.397 55.7009 198.197 58.1009Z" fill="#137AB6"/>
<path d="M183 62.0003C181.1 63.9003 181 65.3003 181 86.4003V108.9L170.5 117.1C161.6 124 160 125.7 160 128.1C160 131.4 162.3 134 165.4 134C166.8 134 172.6 130.1 179.8 124.4L192 114.9V89.1003C192 65.4003 191.9 63.2003 190.2 61.7003C187.7 59.5003 185.4 59.6003 183 62.0003Z" fill="#137AB6"/>
<path d="M31.0074 220.9C29.5074 223.8 29.8074 226.5 31.8074 228.3C33.5074 229.8 39.4074 230 96.7074 230C156.507 230 159.807 229.9 161.307 228.2C163.207 226.1 163.407 223.7 162.007 220.9C161.007 219.1 159.207 219 96.5074 219C33.8074 219 32.0074 219.1 31.0074 220.9Z" fill="#137AB6"/>
<path d="M31.6962 260.8C29.5962 263.1 29.4962 266.4 31.5962 268.4C32.9962 269.8 40.1962 270 96.4962 270C152.796 270 159.996 269.8 161.396 268.4C163.496 266.3 163.396 262.7 161.196 260.7C159.496 259.2 153.596 259 96.2962 259C36.4962 259 33.1962 259.1 31.6962 260.8Z" fill="#137AB6"/>
<path d="M32.2069 300.6C29.8069 302.2 29.4069 305 31.0069 308.1C32.0069 309.9 33.8069 310 96.5069 310C159.207 310 161.007 309.9 162.007 308.1C163.607 305 163.207 302.2 160.807 300.6C158.807 299.2 151.007 299 96.5069 299C42.0069 299 34.2069 299.2 32.2069 300.6Z" fill="#137AB6"/>
<path d="M31.0069 341.9C29.4069 345 29.8069 347.8 32.2069 349.4C34.2069 350.8 42.0069 351 96.5069 351C151.007 351 158.807 350.8 160.807 349.4C163.207 347.8 163.607 345 162.007 341.9C161.007 340.1 159.207 340 96.5069 340C33.8069 340 32.0069 340.1 31.0069 341.9Z" fill="#137AB6"/>
<path d="M31.6004 381.6C29.5004 383.7 29.6004 387.3 31.8004 389.3C33.5004 390.8 39.4004 391 96.7004 391C156.5 391 159.8 390.9 161.3 389.2C163.4 386.9 163.5 383.6 161.4 381.6C160 380.2 152.8 380 96.5004 380C40.2004 380 33.0004 380.2 31.6004 381.6Z" fill="#137AB6"/>
<path d="M31.6962 421.8C29.5962 424.1 29.4962 427.4 31.5962 429.4C32.9962 430.8 40.1962 431 96.4962 431C152.796 431 159.996 430.8 161.396 429.4C163.496 427.3 163.396 423.7 161.196 421.7C159.496 420.2 153.596 420 96.2962 420C36.4962 420 33.1962 420.1 31.6962 421.8Z" fill="#137AB6"/>
<path d="M32.2064 461.6C29.0064 463.8 29.5064 468.9 33.0064 470.7C35.0064 471.7 49.0064 471.9 97.8064 471.7C158.206 471.5 160.206 471.4 161.606 469.6C163.706 466.7 163.306 463.3 160.806 461.6C158.806 460.2 151.006 460 96.5064 460C41.3064 460 34.2064 460.2 32.2064 461.6Z" fill="#137AB6"/>
<path d="M202.206 369.201C201.506 369.901 201.006 371.701 201.006 373.201C201.006 376.801 198.606 381.501 196.506 382.401C195.606 382.701 193.806 383.001 192.506 383.001C186.906 383.001 187.006 382.301 187.206 429.801L187.506 473.401L192.306 475.101C197.606 477.001 199.906 479.301 200.006 482.601C200.006 483.701 200.606 485.401 201.306 486.301C202.406 487.901 211.506 488.001 337.906 487.801C485.606 487.501 474.106 488.001 475.406 482.001C476.306 478.001 477.306 477.001 482.606 475.201L487.506 473.401L487.806 429.501C488.006 389.001 487.906 385.401 486.306 384.201C485.406 383.601 483.606 383.001 482.306 383.001C478.506 383.001 475.006 378.701 475.006 374.201C475.006 372.101 474.506 369.901 473.806 369.201C472.106 367.501 203.906 367.501 202.206 369.201ZM465.506 383.101C467.406 387.201 473.406 393.001 475.706 393.001C476.706 393.001 477.006 400.501 477.006 428.901C477.006 464.001 477.006 464.901 475.006 465.501C471.806 466.501 467.406 470.701 466.006 474.001L464.806 477.001H337.506H210.206L209.006 474.001C207.606 470.701 203.206 466.501 200.006 465.501C198.006 464.901 198.006 464.001 198.006 429.501V394.001L201.806 392.101C206.406 389.801 208.506 387.501 210.506 382.701L212.006 379.001H337.906H463.706L465.506 383.101Z" fill="#137AB6"/>
<path d="M324.305 389.9C310.105 395.2 300.605 406.4 297.905 421.4C294.705 438.7 304.405 457.2 320.805 464.8C325.905 467.2 327.705 467.5 337.505 467.5C347.405 467.5 349.105 467.2 354.305 464.8C365.705 459.4 374.405 448.4 377.105 435.9C380.805 418.8 371.305 399.7 355.205 391.8C349.405 388.9 347.505 388.5 339.105 388.3C331.605 388 328.405 388.4 324.305 389.9ZM349.705 401.9C360.405 407.3 366.405 416.7 366.405 428C366.405 439.3 360.605 448.5 349.705 454.2C346.405 456 343.805 456.5 337.505 456.5C330.505 456.5 328.805 456.1 324.105 453.5C301.605 441.1 304.405 409.5 328.705 400.4C334.005 398.4 344.405 399.1 349.705 401.9Z" fill="#137AB6"/>
<path d="M333.7 401.801C332.7 402.801 332 404.101 332 404.601C332 405.101 330.4 406.701 328.5 408.301C322.6 413.001 321.4 422.101 325.9 428.001C327.8 430.401 327.8 430.401 325.4 432.701C324.1 433.901 323 435.801 323 437.001C323 440.601 325.7 445.701 328.8 448.001C330.5 449.301 332.1 451.301 332.4 452.601C333.5 456.901 341.2 457.001 342.6 452.701C342.9 451.501 344.8 449.201 346.6 447.701C352.4 442.901 353.5 433.801 349.1 428.101C347.2 425.701 347.2 425.601 349.6 423.701C353.7 420.501 351.9 412.201 346.1 407.901C344.4 406.701 343 405.101 343 404.401C343 400.401 336.5 398.701 333.7 401.801ZM340.5 419.201C341.6 422.001 341.6 422.501 340.5 422.801C338.3 423.301 335 421.101 335 419.101C335 414.801 338.6 414.901 340.5 419.201ZM340 435.601C341.2 436.801 341.2 437.201 339.8 438.601C337.6 440.801 335.5 439.801 334.1 436.001C333 432.801 333.1 432.801 335.8 433.501C337.3 433.801 339.2 434.801 340 435.601Z" fill="#137AB6"/>
</svg>
