<svg width="512" height="512" viewBox="0 0 512 512" fill="none" xmlns="http://www.w3.org/2000/svg">
<path d="M8 256V504H256.1H504.2L503.8 474.8C503.4 446.2 503.3 445.3 500.6 436.5C492.3 409.4 475.2 388.7 450.9 376.6C439.8 371 433.5 369.1 410 364.5C399.8 362.5 391.4 360.7 391.2 360.5C390.6 360 387 345.6 387 343.9C387 343 389.4 340.4 392.4 338.1C401.2 331.5 409.8 319 413 308.2C414.3 304.1 414.4 304 418.6 304C429.8 304 441.8 295.3 446 284.3C449.1 276.1 448.6 264.5 444.9 257.3L442.2 252.3L444.7 243.4C447.6 232.8 448.8 214.7 447.1 208.3C444.5 198.9 434.8 189.3 425.2 186.7C421.6 185.8 419.9 184.3 415.5 178.9C405.6 166.6 391.4 158 376.3 155.1L368 153.5V122.5V91.5L326.2 49.7L284.5 8H146.2H8V256ZM272 48V72H164H56V144V216H156H256V222.7C256 227.1 257.1 233.5 259 240.7L262 251.8L259.2 257.1C255.4 264.5 254.9 276 258 284.2C262 294.9 272.8 303 284.1 303.8C289.7 304.2 289.8 304.2 291 308.4C294.1 318.9 303 331.6 311.9 338.2L317.6 342.6L315.4 351.4C314.2 356.2 313 360.3 312.8 360.5C312.7 360.7 304.2 362.5 294 364.5C271.7 368.9 264.8 370.9 255.3 375.4C229.7 387.7 211.8 408.8 203.4 436.5C200.9 444.8 200.6 447.2 200.2 466.8L199.8 488H111.9H24V256V24H148H272V48ZM314 62.5L339.5 88H313.7H288V62.5C288 48.5 288.1 37 288.3 37C288.4 37 300 48.5 314 62.5ZM272 96V104H288H304L303.8 137.1L303.5 170.3L292.2 174.5C285.9 176.9 278.3 180.5 275.2 182.6C270.2 186.1 261 196.8 261 199.1C261 199.6 221 200 166.5 200H72V144V88H172H272V96ZM352 129V154L349.3 154.5C347.1 155 329.1 160.9 321.3 163.8C320.3 164.1 320 157.8 320 134.1V104H336H352V129ZM370 171C383.9 173.2 395.8 181.2 406.1 195.2C410.2 200.7 411.7 202 413.9 202C420.4 202 426.8 205.7 429.6 211.2C431.5 214.8 431.4 224.3 429.3 233.6L427.7 241.2L424.7 240.6C423.1 240.3 420.3 240 418.6 240C415.8 240 415.3 239.6 413.7 235.1C410.3 225.3 401.4 216 391 211.2C386.6 209.1 383.6 208.5 375.8 208.2C367.1 207.8 365.6 208 360.7 210.3C357.6 211.7 351 215.9 345.8 219.6C333.8 228.2 322.9 233.3 309.4 236.6C298.9 239.1 278.1 241.4 276.9 240.1C275.6 238.8 273 225.8 273 220.7C273 217.8 273.7 213.3 274.6 210.7C276.5 205 283.6 196.9 288.7 194.5C296.3 190.9 349.7 171.9 354.5 171.1C361.6 169.9 362.7 169.9 370 171ZM385.7 227.9C390.8 230.5 394.4 234.5 397.2 240.5C399.4 245.3 399.5 246.5 399.5 270C399.5 290.8 399.2 295.4 397.7 300.5C386.8 336.1 342.8 347 317.8 320.2C307.1 308.8 305 301.7 304.3 275.5L303.8 255.5L314.6 252.9C320.6 251.5 329.3 248.6 334 246.6C341.8 243.3 345.2 241.1 361.4 229.6C364.4 227.5 368.3 225.5 370.2 225.1C374.4 224.2 380.8 225.4 385.7 227.9ZM288 272C288 286.9 288 287 285.8 287C279.4 287 273 279.4 273 272C273 264.6 279.4 257 285.8 257C288 257 288 257.1 288 272ZM423.8 259C433.4 264.9 433.4 279.1 423.8 285C422 286.1 419.5 287 418.3 287C416 287 416 286.9 416 272C416 257.1 416 257 418.3 257C419.5 257 422 257.9 423.8 259ZM352 351.5C358.3 351.5 365.1 351.1 367.2 350.7L370.8 349.9L372.6 357.5L374.4 365.1L363.2 376.3L352 387.5L340.8 376.3L329.6 365.1L331.4 357.5L333.2 349.9L336.8 350.7C338.9 351.1 345.7 351.5 352 351.5ZM328.2 404.2L318.5 410L316.2 394.3C314.2 381.5 314.1 378.6 315.2 377.9C316.1 377.3 319.7 380.2 327.2 387.7L337.9 398.4L328.2 404.2ZM389.9 379.9C389.9 380.8 388.9 387.9 387.7 395.7L385.5 410L375.8 404.2L366.1 398.4L376.7 387.8C386.7 377.8 390.1 375.7 389.9 379.9ZM301 408.2C303.2 422.9 305 435.4 305 436C305 436.5 305.5 437 306.1 437C306.7 437 317.3 430.9 329.6 423.5L352 410.1L374.4 423.5C386.7 430.9 397.3 437 397.9 437C398.5 437 399 436.5 399 436C399 435.4 400.8 423 403 408.5C405.2 394 407 381.9 407 381.7C407 380.7 429.7 386.1 436.2 388.6C453.8 395.3 470.1 410.5 479.2 428.5C485.1 440.2 488 456.4 488 478.2V488H464H440V472V456H432H424V472V488H352H280V472V456H272H264V472V488H240H216V478.2C216 456.4 218.9 440.2 224.8 428.5C233.9 410.5 250.2 395.3 267.9 388.5C273.5 386.4 295.9 380.9 296.7 381.4C296.8 381.5 298.7 393.6 301 408.2Z" fill="#137AB6"/>
<path d="M72 240V248H148H224V240V232H148H72V240Z" fill="#137AB6"/>
<path d="M72 272V280H80H88V272V264H80H72V272Z" fill="#137AB6"/>
<path d="M104 272V280H164H224V272V264H164H104V272Z" fill="#137AB6"/>
<path d="M72 304V312H148H224V304V296H148H72V304Z" fill="#137AB6"/>
<path d="M72 336V344H132H192V336V328H132H72V336Z" fill="#137AB6"/>
<path d="M208 336V344H216H224V336V328H216H208V336Z" fill="#137AB6"/>
<path d="M89.802 406.2C68.102 434.4 50.102 458 49.702 458.6C49.102 459.6 60.802 469 62.602 469C63.702 468.9 142.502 366.4 142.502 365.1C142.502 364 131.302 355 130.002 355C129.502 355 111.402 378.1 89.802 406.2Z" fill="#137AB6"/>
<path d="M53.5 369.9C44.8 373.9 40 381.9 40 392.2C40.1 406.4 49.7 416 64 416C78.4 416 88 406.4 88 392C88 381.6 82.7 373.3 73.8 369.6C68.6 367.4 58.5 367.6 53.5 369.9ZM69 387C70.1 388.1 71 390.3 71 392C71 393.7 70.1 395.9 69 397C64.7 401.3 57 398.1 57 392C57 388.2 60.2 385 64 385C65.7 385 67.9 385.9 69 387Z" fill="#137AB6"/>
<path d="M117.5 409.9C108.8 413.9 104 421.9 104 432.2C104.1 446.4 113.7 456 128 456C142.4 456 152 446.4 152 432C152 421.6 146.7 413.3 137.8 409.6C132.6 407.4 122.5 407.6 117.5 409.9ZM133 427C134.1 428.1 135 430.3 135 432C135 433.7 134.1 435.9 133 437C131.9 438.1 129.7 439 128 439C126.3 439 124.1 438.1 123 437C121.9 435.9 121 433.7 121 432C121 430.3 121.9 428.1 123 427C124.1 425.9 126.3 425 128 425C129.7 425 131.9 425.9 133 427Z" fill="#137AB6"/>
<path d="M96 112V120H104H112V152V184H120H128V152V120H136H144V112V104H120H96V112Z" fill="#137AB6"/>
<path d="M173.5 105.9C171.3 106.9 168.1 109.3 166.3 111.1C160.2 117.6 160 118.7 160 153V184H168H176V176V168H184H192V176V184H200H208V152.7C208 124.4 207.8 121.1 206.1 117.5C203.8 112.6 198.7 107.6 193.8 105.6C188.6 103.4 178.5 103.6 173.5 105.9ZM188 122C190.9 123.6 192 128.6 192 140.6V152H184H176V140.6C176 128.8 176.9 124.4 179.7 122.2C181.7 120.8 185.4 120.6 188 122Z" fill="#137AB6"/>
<path d="M224 113.8V123.5L230.5 133.2C234.1 138.6 237 143.4 237 144C237 144.6 234.1 149.4 230.5 154.8L224 164.5V174.2V184H232H240V177.8C240 172.4 240.5 171 243.8 165.8C245.8 162.6 247.7 160 248 160C248.3 160 250.2 162.6 252.3 165.8C255.5 171 256 172.4 256 177.8V184H264H272V174.2V164.5L265.5 154.8C261.9 149.4 259 144.6 259 144C259 143.4 261.9 138.6 265.5 133.2L272 123.5V113.8V104H264H256V110.2C256 115.6 255.5 117 252.3 122.2C250.2 125.4 248.3 128 248 128C247.7 128 245.8 125.4 243.8 122.2C240.5 117 240 115.6 240 110.2V104H232H224V113.8Z" fill="#137AB6"/>
</svg>
