<svg width="512" height="512" viewBox="0 0 512 512" fill="none" xmlns="http://www.w3.org/2000/svg">
<g clip-path="url(#clip0_363_4135)">
<path d="M58.1 2.6L56 5.3V256V506.7L58.1 509.4L60.1 512H256H451.9L453.9 509.4L456 506.7V286.6V66.6L422.8 33.3L389.5 0H224.8H60.1L58.1 2.6ZM377 44.7C377 72.8 377 73.4 379.2 75.7L381.3 78H410.2H439V287V496H256H73V256V16H225H377V44.7ZM411 45.5L427.5 62H410.7H394V45.5C394 36.4 394.1 29 394.3 29C394.4 29 401.9 36.4 411 45.5Z" fill="#137AB6"/>
<path d="M157.594 25.3C155.794 27.1 154.994 29.9 153.594 38.5L151.794 49.5L147.894 51.2L144.094 52.8L135.094 46.4C122.194 37.2 121.494 37.3 108.894 49.7C95.1945 63.1 95.1945 63.7 106.994 80L110.994 85.6L109.394 89.7L107.794 93.7L98.5945 95C87.1945 96.5 83.2945 98.1 81.8945 101.7C81.2945 103.4 80.9945 110.1 81.1945 118.2C81.5945 135.5 81.2945 135.2 96.4945 137.7L107.494 139.6L109.294 143.4L111.194 147.3L107.894 151.9C94.7945 170.2 94.7945 169.2 108.294 182.7C121.394 195.8 122.294 195.9 134.594 187C139.094 183.7 143.394 181 144.094 181C144.794 181 146.794 181.5 148.594 182.2C151.794 183.3 151.794 183.4 153.594 194.4C156.094 210.2 155.794 210 174.794 210C193.994 210 193.494 210.4 196.094 195.1C197.094 188.8 198.094 183.6 198.294 183.5C198.394 183.5 200.094 182.7 202.094 181.8L205.694 180.2L214.594 186.6C227.194 195.8 228.294 195.6 240.094 184.3C250.194 174.5 252.494 171.1 251.494 167.1C251.094 165.7 248.094 160.7 244.794 156.1L238.794 147.7L240.394 143.6L241.994 139.4L251.294 138.1C263.994 136.3 266.594 135.1 267.894 130.3C269.294 125.4 269.294 107.6 267.894 102.7C266.594 97.9 264.094 96.8 251.294 95L242.094 93.7L240.394 89.4L238.794 85.2L244.294 77.8C250.794 68.9 251.994 66.8 251.994 63.9C251.994 62.4 248.394 58.1 241.294 50.9C227.794 37.2 227.494 37.1 214.594 46.4L205.794 52.9L202.094 51.2C200.094 50.3 198.394 49.5 198.194 49.4C197.994 49.3 197.194 45 196.394 39.9C194.694 29 193.394 25.3 190.894 24C189.894 23.4 182.594 23 174.494 23C160.594 23 159.794 23.1 157.594 25.3ZM179.294 41.7C179.594 42.7 180.294 47.1 180.994 51.5C181.594 55.9 182.794 60.3 183.494 61.3C184.194 62.3 187.894 64.2 191.594 65.6C195.394 66.9 199.394 68.7 200.694 69.5C204.994 72.4 209.694 71.4 216.894 66.2C226.394 59.3 225.794 59.5 229.094 62.5L231.894 65.3L228.594 69.9C218.894 83.3 218.594 84.2 222.394 91.8C223.694 94.4 225.494 98.9 226.494 101.8C228.594 108.2 230.194 109.1 243.294 111L251.994 112.3V116.5V120.7L241.794 122.4C230.194 124.3 227.994 125.7 225.994 132.3C225.294 134.6 223.694 138.6 222.394 141.2C221.094 143.8 219.994 147 219.994 148.4C219.994 150.7 223.294 156.3 229.294 164.1L231.994 167.7L229.094 170.4C225.794 173.6 226.294 173.7 216.894 166.8C208.994 161.1 206.794 160.9 197.694 165C193.994 166.6 190.394 168 189.594 168C188.794 168 186.794 169.1 185.194 170.5C182.594 172.6 182.094 174.1 180.994 181.2C179.194 193.6 179.494 193.2 174.694 192.8L170.494 192.5L168.894 182.8C167.094 171.8 165.894 169.9 159.694 168C157.394 167.3 153.394 165.7 150.794 164.4C143.494 160.7 140.694 161.2 131.994 167.5C127.894 170.5 124.294 173 123.994 173C123.594 173 122.194 171.8 120.694 170.2L118.094 167.5L123.994 159.1C127.294 154.5 129.994 149.8 129.994 148.6C129.994 147.4 128.894 144.5 127.594 142C126.294 139.5 124.494 135.2 123.594 132.4C122.694 129.5 121.094 126.5 120.094 125.6C118.994 124.6 114.294 123.3 108.094 122.3L97.9945 120.7V116.5V112.3L108.094 110.7C119.194 109 121.294 107.8 123.094 102.1C123.694 100.1 125.594 95.7 127.094 92.3C128.694 88.9 129.994 85.2 129.994 84.2C129.994 83.2 127.294 78.5 123.994 73.9L117.994 65.5L120.894 62.6L123.894 59.7L131.694 65.3C140.694 71.9 143.394 72.3 150.794 68.6C153.394 67.3 157.394 65.7 159.694 65.1C165.694 63.5 167.394 60.7 168.894 50.3C169.694 45.5 170.394 41.2 170.694 40.7C170.894 40.3 172.894 40 174.994 40C177.794 40 178.994 40.5 179.294 41.7Z" fill="#137AB6"/>
<path d="M164.503 75.4001C153.103 78.2001 141.303 87.8001 136.503 98.2001C128.903 114.9 132.603 134.7 145.503 146.9C168.503 168.6 205.003 159.7 215.003 129.9C216.803 124.7 217.103 121.8 216.803 114.4C216.503 106.3 216.003 104.4 212.703 97.7001C203.803 79.6001 184.203 70.6001 164.503 75.4001ZM186.903 94.6001C195.503 99.2001 200.003 106.9 200.003 116.8C200.003 130.2 188.803 141.7 175.403 141.9C156.503 142.3 143.603 121.5 152.503 105.1C159.703 91.9001 174.003 87.5001 186.903 94.6001Z" fill="#137AB6"/>
<path d="M307.5 122.3C303.9 125.4 303.7 130.9 307 134.5L309.3 137H348.5H387.7L390 134.5C393.4 130.8 393.3 125.5 389.6 122.4L386.9 120H348.5H310.1L307.5 122.3Z" fill="#137AB6"/>
<path d="M284.505 158.5C281.005 161.9 281.205 166.3 284.905 170.1L287.805 173H336.705C389.305 173 389.305 173 391.805 167.7C393.405 164.3 391.905 158.5 389.005 157C387.805 156.4 368.305 156 337.005 156H286.905L284.505 158.5Z" fill="#137AB6"/>
<path d="M264.296 192C259.596 193.9 258.396 202.1 262.296 205.8L264.596 208H325.896C364.496 208 387.796 207.6 388.996 207C391.896 205.5 393.396 199.7 391.796 196.3C389.296 191 390.096 191 325.996 191.1C293.296 191.1 265.496 191.5 264.296 192Z" fill="#137AB6"/>
<path d="M352.401 224C346.201 224.9 339.501 229.4 336.301 234.8C333.901 238.9 333.501 240.6 333.401 247.9V256.3L316.501 271.6C303.801 283.2 299.301 286.7 298.101 286.1C292.401 283.1 282.101 284.3 275.801 288.6L272.201 291.1L259.301 285.7C248.601 281.1 246.401 279.8 246.201 277.8C244.901 268.5 239.901 261.2 232.501 257.9C227.501 255.6 218.301 255.5 213.201 257.5C204.301 261.2 198.501 271 199.201 280.9L199.501 285.8L183.701 297.8L167.901 309.8L164.801 308.3C160.301 306 150.301 306.3 145.501 308.8C131.401 316 127.701 333.3 137.801 345C142.701 350.8 147.801 353.1 155.601 353.1C164.201 353.1 171.201 349.4 175.501 342.5C178.101 338.3 178.501 336.7 178.501 330.6V323.5L193.001 312.5C201.001 306.4 208.001 301.1 208.701 300.7C209.301 300.3 212.601 300.7 215.901 301.6C221.001 303.1 222.801 303.1 227.301 302.1C230.201 301.5 234.301 299.8 236.201 298.5L239.901 296L252.901 301.6C265.701 307.1 266.001 307.3 266.001 310.4C266.101 314.5 269.001 320.8 272.601 324.4C277.401 329.1 282.201 331 289.501 331C297.401 331 302.001 328.9 307.301 323.1C311.701 318.2 313.401 312.4 312.601 304.8L312.001 299.1L328.601 284L345.101 268.9L349.801 269.7C356.601 270.8 362.601 270.2 366.801 268.1C380.601 261 384.201 243.6 374.201 232C368.601 225.4 361.401 222.8 352.401 224ZM362.001 244.3C365.101 249.9 358.201 256 353.101 252.2C348.601 248.9 349.401 242.9 354.501 241C357.301 240 360.201 241.2 362.001 244.3ZM227.601 275.4C229.701 278.7 229.101 281.9 225.701 284.4C223.101 286.3 222.701 286.3 220.201 284.9C213.901 281.4 215.501 273 222.501 273C225.101 273 226.401 273.6 227.601 275.4ZM293.501 303.5C298.001 307.9 295.601 314 289.501 314C283.301 314 280.801 306.9 285.601 303.1C289.001 300.4 290.601 300.5 293.501 303.5ZM159.401 325.1C164.301 328.9 161.701 336.2 155.301 336.2C152.501 336.2 149.001 333 149.001 330.3C149.001 327.9 151.001 324.9 153.301 324C156.401 322.8 156.401 322.8 159.401 325.1Z" fill="#137AB6"/>
<path d="M334.994 295.9L331.994 298.8V373.4V448H322.994H313.994V404.9V361.8L311.094 358.9L308.194 356H289.294C269.594 356.1 268.494 356.3 266.194 360.7C265.294 362.2 264.994 375 264.994 405.4V448H255.994H246.994L246.794 393.4L246.494 338.8L244.094 336.9C241.994 335.2 239.994 335 222.494 335C204.994 335 202.994 335.2 200.894 336.9L198.494 338.8L198.194 393.4L197.994 448H188.994H180.094L179.794 420.1C179.494 394.3 179.394 392 177.594 390.1C175.794 388.1 174.694 388 156.294 388C145.494 388 136.094 388.4 134.994 389C131.594 390.8 130.994 395.5 130.994 422.1V448H127.794C123.694 448.1 121.294 449.8 119.894 453.8C118.594 457.6 120.294 461.8 123.994 463.7C127.694 465.6 384.294 465.6 387.994 463.7C391.694 461.8 393.394 457.6 392.094 453.8C390.694 449.8 388.294 448.1 384.294 448H380.994L380.794 373L380.494 298.1L378.194 295.8C375.994 293.6 375.194 293.5 356.994 293.2L337.994 292.9L334.994 295.9ZM363.994 379V448H356.494H348.994V379V310H356.494H363.994V379ZM229.994 399.5V448H222.494H214.994V399.5V351H222.494H229.994V399.5ZM296.994 410.5V448H289.494H281.994V410.5V373H289.494H296.994V410.5ZM162.994 426V448H155.494H147.994V426V404H155.494H162.994V426Z" fill="#137AB6"/>
</g>
<defs>
<clipPath id="clip0_363_4135">
<rect width="512" height="512" fill="white"/>
</clipPath>
</defs>
</svg>
