<svg width="512" height="512" viewBox="0 0 512 512" fill="none" xmlns="http://www.w3.org/2000/svg">
<path d="M123 7.29902C116.1 11.899 115.5 14.099 115.2 37.299C114.9 55.699 114.7 58.099 113.3 57.599C112.4 57.199 107.8 56.699 103 56.299L94.2998 55.699L90.3998 59.299L86.4998 62.799L86.1998 245.4L85.9998 428L69.7998 428.2L53.5998 428.5L52.0998 431.1C50.7998 433.5 50.7998 434 52.2998 436.4L53.9998 439H179.3H304.5L305.8 445.6C311.2 474.1 334.2 497.6 364 505.1C376.1 508.2 395 507.5 406.5 503.6C432.1 494.9 449.8 476.5 457.6 450.5C461.1 438.6 461.3 421.7 458.1 409.5C450.7 381.4 428.8 359.7 401 353C391 350.7 375.8 350.4 366.3 352.4L360 353.7V225.4C360 130.6 359.7 96.399 358.8 94.599C357 90.499 353.4 88.899 343.1 87.399C337.8 86.699 332.9 85.999 332.3 85.999C331.3 85.999 331 80.699 331 63.099C331 49.199 330.6 38.999 329.9 37.299C328.6 33.699 325.3 30.199 321.6 28.299C318.3 26.599 143.2 5.09902 132.4 4.99902C127.7 4.99902 125.5 5.49902 123 7.29902ZM225.5 26.999C310.7 37.199 316.6 37.999 318.2 40.099C319.8 41.999 320 44.699 320 63.099C320 79.199 319.7 83.999 318.8 83.999C317 83.999 132 60.099 129.3 59.499C127 58.999 127 58.899 127 39.299C127 22.399 127.2 19.399 128.7 17.799C129.6 16.799 131.3 15.999 132.4 15.999C133.6 15.999 175.4 20.899 225.5 26.999ZM110.5 68.599C113.8 68.899 117 69.599 117.5 70.099C118.1 70.499 120.8 70.899 123.5 70.899C127.9 70.899 340.9 98.199 346.8 99.499L349 99.999V228.9V357.7L342.3 361.6C328.8 369.4 316.1 383.899 310.2 398.299C307 405.999 304 418.6 304 424.5V428H290H276V385.7C276 346.7 275.9 343.2 274.2 340.1C270.4 333 270.5 333 223.7 333C178.4 333 177.4 333.1 173.2 338.5C171 341.2 171 341.7 171 384.6V428H134H96.9998V248.2C96.9998 149.3 97.2998 67.999 97.6998 67.599C98.0998 67.199 99.7998 67.099 101.5 67.399C103.1 67.699 107.2 68.199 110.5 68.599ZM263.8 345.2C264.7 346.1 265 356.8 265 387.2V428H223.5H182V386.6C182 354.4 182.3 345.1 183.3 344.7C183.9 344.4 202.1 344.1 223.6 344.1C252.7 344 262.9 344.3 263.8 345.2ZM396.5 363.5C415 367.4 433.5 381.9 441.8 399C447.2 410.1 449 417.4 449 428.6C449 447.6 442.8 462.4 429.1 476C415.9 489.1 403.4 494.7 385.5 495.7C377.4 496.2 373.9 495.9 367.3 494.2C346.5 488.9 330.5 476 322 457.5C315.5 443.5 313.7 430.1 316.5 416.5C324.2 379.4 359.8 355.8 396.5 363.5Z" fill="#137AB6"/>
<path d="M135.3 128.5C129.1 131.2 128 134.6 128 151.5C128 174.7 129.4 176 154.2 176C167.7 176 169.9 175.8 172.8 174C179 170.2 180 167.2 180 151.5C180 135.8 179 132.8 172.8 129C169.9 127.2 167.7 127 154 127C143 127.1 137.6 127.5 135.3 128.5ZM167.8 139.2C169.5 140.9 169.5 162.1 167.8 163.8C166.1 165.5 141.9 165.5 140.2 163.8C139.4 163 139 158.8 139 151.5C139 144.2 139.4 140 140.2 139.2C141 138.4 145.5 138 154 138C162.5 138 167 138.4 167.8 139.2Z" fill="#137AB6"/>
<path d="M205.097 128.8C198.297 132.2 197.497 134.4 197.197 150.8C196.997 164.1 197.097 165.8 198.997 168.8C202.897 175.2 205.697 176 222.797 176C247.597 176 248.997 174.7 248.997 151.5C248.997 128.5 247.397 127 223.297 127C211.197 127 207.897 127.3 205.097 128.8ZM236.797 139.2C238.497 140.9 238.497 162.1 236.797 163.8C235.097 165.5 210.897 165.5 209.197 163.8C208.397 163 207.997 158.8 207.997 151.5C207.997 144.2 208.397 140 209.197 139.2C209.997 138.4 214.497 138 222.997 138C231.497 138 235.997 138.4 236.797 139.2Z" fill="#137AB6"/>
<path d="M274 128.8C267.6 132 266.5 135.5 266.5 152C266.5 165.7 266.6 166.7 268.9 169.9C272.7 175.2 275.9 176 293.3 176C307.6 176 308.9 175.8 312.1 173.7C318.2 169.7 319.1 166.4 318.8 150.3C318.5 137.8 318.3 135.8 316.4 133.3C312.4 127.9 309 127 292.5 127C280.2 127 276.9 127.3 274 128.8ZM307 139.9C307.5 141 308 146.2 308 151.5C308 165.4 308.4 165 293.5 165C286.7 165 280.5 164.7 279.6 164.4C278.3 163.9 278 161.8 278 151.5C278 142.6 278.3 139 279.3 138.7C279.9 138.4 286.2 138.1 293.2 138.1C304.8 138 306 138.2 307 139.9Z" fill="#137AB6"/>
<path d="M135.3 196.5C129.1 199.2 128 202.6 128 219.5C128 242.7 129.4 244 154.3 244C168.6 244 169.9 243.8 173.1 241.7C179.2 237.7 180.1 234.4 179.8 218.3C179.5 202.5 178.6 200.2 171.9 196.8C167.4 194.5 140.4 194.3 135.3 196.5ZM167.8 207.2C169.5 208.9 169.5 230.1 167.8 231.8C166.1 233.5 141.9 233.5 140.2 231.8C139.4 231 139 226.8 139 219.5C139 212.2 139.4 208 140.2 207.2C141 206.4 145.5 206 154 206C162.5 206 167 206.4 167.8 207.2Z" fill="#137AB6"/>
<path d="M205.097 196.8C198.297 200.2 197.497 202.4 197.197 218.8C196.997 232.1 197.097 233.8 198.997 236.8C202.897 243.2 205.697 244 222.797 244C247.597 244 248.997 242.7 248.997 219.5C248.997 196.5 247.397 195 223.297 195C211.197 195 207.897 195.3 205.097 196.8ZM236.797 207.2C238.497 208.9 238.497 230.1 236.797 231.8C235.097 233.5 210.897 233.5 209.197 231.8C208.397 231 207.997 226.8 207.997 219.5C207.997 212.2 208.397 208 209.197 207.2C209.997 206.4 214.497 206 222.997 206C231.497 206 235.997 206.4 236.797 207.2Z" fill="#137AB6"/>
<path d="M274 196.8C267.6 200 266.5 203.5 266.5 220C266.5 233.7 266.6 234.7 268.9 237.9C272.7 243.2 275.9 244 293.3 244C307.6 244 308.9 243.8 312.1 241.7C318.2 237.7 319.1 234.4 318.8 218.3C318.5 205.8 318.3 203.8 316.4 201.3C312.4 195.9 309 195 292.5 195C280.2 195 276.9 195.3 274 196.8ZM307 207.9C307.5 209 308 214.2 308 219.5C308 233.4 308.4 233 293.5 233C286.7 233 280.5 232.7 279.6 232.4C278.3 231.9 278 229.8 278 219.5C278 210.6 278.3 207 279.3 206.7C279.9 206.4 286.2 206.1 293.2 206.1C304.8 206 306 206.2 307 207.9Z" fill="#137AB6"/>
<path d="M135.3 264.5C129.1 267.2 128 270.6 128 287.5C128 310.7 129.4 312 154.3 312C168.6 312 169.9 311.8 173.1 309.7C179.2 305.7 180.1 302.4 179.8 286.3C179.5 270.5 178.6 268.2 171.9 264.8C167.4 262.5 140.4 262.3 135.3 264.5ZM167.8 275.2C169.5 276.9 169.5 298.1 167.8 299.8C166.1 301.5 141.9 301.5 140.2 299.8C139.4 299 139 294.8 139 287.5C139 280.2 139.4 276 140.2 275.2C141 274.4 145.5 274 154 274C162.5 274 167 274.4 167.8 275.2Z" fill="#137AB6"/>
<path d="M205.097 264.8C198.297 268.2 197.497 270.4 197.197 286.8C196.997 300.1 197.097 301.8 198.997 304.8C202.897 311.2 205.697 312 222.797 312C247.597 312 248.997 310.7 248.997 287.5C248.997 264.5 247.397 263 223.297 263C211.197 263 207.897 263.3 205.097 264.8ZM236.797 275.2C238.497 276.9 238.497 298.1 236.797 299.8C235.097 301.5 210.897 301.5 209.197 299.8C208.397 299 207.997 294.8 207.997 287.5C207.997 280.2 208.397 276 209.197 275.2C209.997 274.4 214.497 274 222.997 274C231.497 274 235.997 274.4 236.797 275.2Z" fill="#137AB6"/>
<path d="M274 264.8C267.6 268 266.5 271.5 266.5 288C266.5 301.7 266.6 302.7 268.9 305.9C272.7 311.2 275.9 312 293.3 312C307.6 312 308.9 311.8 312.1 309.7C318.2 305.7 319.1 302.4 318.8 286.3C318.5 273.8 318.3 271.8 316.4 269.3C312.4 263.9 309 263 292.5 263C280.2 263 276.9 263.3 274 264.8ZM307 275.9C307.5 277 308 282.2 308 287.5C308 301.4 308.4 301 293.5 301C286.7 301 280.5 300.7 279.6 300.4C278.3 299.9 278 297.8 278 287.5C278 278.6 278.3 275 279.3 274.7C279.9 274.4 286.2 274.1 293.2 274.1C304.8 274 306 274.2 307 275.9Z" fill="#137AB6"/>
<path d="M367.5 378C366.4 378.4 364.4 380 363 381.5C360.8 383.9 360.4 385.3 360 394C359.5 403.4 359.4 403.9 356.6 406.1C350.9 410.6 350 414.4 350 436C350 446.7 350.5 457.1 351 459.1C352.2 463.2 357.3 468.9 361.3 470.2C363.5 471 364 471.8 364 474.5C364 476.4 364.7 478.6 365.6 479.4C369.1 483 375 480 375 474.7C375 472 375 472 382.5 472H390V474.8C390 478.1 392.7 481 395.7 481C398.5 481 401 477.9 401 474.3C401 471.8 401.6 471 404 470C408 468.4 412.2 463.9 413.7 459.8C414.4 457.7 414.9 449.2 414.9 436.5C415 417.6 414.9 416.2 412.8 412C411.5 409.5 409.1 406.6 407.4 405.5C404.3 403.5 404.2 403.3 403.8 394.3C403.4 384.3 401.9 380.8 396.9 378.3C394.2 376.9 370.8 376.6 367.5 378ZM392 395V402H381.5H371V395.7C371 392.2 371.3 389 371.7 388.7C372 388.3 376.8 388 382.2 388H392V395ZM400.8 415C403.9 417.9 404.2 419.8 403.8 438.8C403.4 461.8 404.6 460.5 382.4 460.5H365.8L363.4 457.7C361.1 455 361 454.4 361 437.4C361 419.6 361.8 415 365.2 413.7C365.9 413.4 373.7 413.1 382.6 413.1C397.4 413 398.8 413.2 400.8 415Z" fill="#137AB6"/>
<path d="M378.2 423.2C377.4 424 377 428.5 377 436.6C377 449.9 377.8 452 382.5 452C387.2 452 388 449.9 388 436.6C388 428.5 387.6 424 386.8 423.2C385.2 421.6 379.8 421.6 378.2 423.2Z" fill="#137AB6"/>
</svg>
