<svg width="512" height="512" viewBox="0 0 512 512" fill="none" xmlns="http://www.w3.org/2000/svg">
<path d="M395.2 15.9996C391.2 17.0996 385.1 19.2996 381.7 20.8996C375.6 23.7996 375.6 23.7996 372.1 21.9996C361.7 16.7996 369.8 16.9996 205.9 16.9996C60.1 16.9996 53.9 17.0996 48.1 18.8996C39.7 21.4996 34.4 24.8996 28.2 31.3996C22.3 37.5996 18.5 44.8996 17 52.9996C16.4 55.9996 16 75.6996 16 98.5996C16 133.9 16.2 139.1 17.6 140.4C18.9 141.8 23.9 142 57.1 142H95V159.3C95 177.9 95.3 179 100.1 179C106.1 179 106 180.1 106 118C106 83.8996 105.6 58.8996 104.9 54.9996C103.7 46.8996 99.4 37.4996 94.5 32.0996L90.7 27.9996L225.1 28.1996C330.4 28.3996 360.1 28.7996 362.3 29.7996L365.2 30.9996L359.3 37.3996C352.7 44.6996 346.9 53.8996 343.8 62.1996L341.7 67.9996H240.6C150.7 67.9996 139.2 68.1996 137.2 69.5996C134.8 71.2996 134.2 75.7996 136.2 77.7996C137.1 78.6996 161.1 78.9996 238.1 78.9996H338.7L339.3 91.1996C339.6 99.8996 340.4 105.6 342 110.5C348.2 130.2 361.4 146.3 378.7 155.2L385 158.5V198.8V239.2L378.1 232.8C344.8 202 291 202.5 256.8 233.9C245.1 244.6 235.3 261.1 230.8 277.5C227.8 288.9 227.7 311 230.8 322.5C241 360.5 273.8 387.2 313.1 389.7C325.9 390.5 341.2 388.1 352.2 383.5C353.4 383 354.6 384.3 357.4 389.2C362.6 398.6 362.6 398.4 358.1 400.5C351.7 403.3 349.5 406.3 349.5 412.1V417H227.8H106V311.1C106 248.7 105.6 204.1 105.1 202.7C103.9 199.6 100.2 198.6 97.3 200.6L95 202V313.8C95 399.4 95.3 425.9 96.2 426.8C97.1 427.7 127.4 428 226.4 428H355.5L370.7 458L385.8 488H214.6C82.8 488 43.1 488.3 42.2 489.2C40.7 490.7 40.7 495.3 42.2 496.8C43.1 497.7 91.5 498 253.9 498C369.8 498 465 497.6 465.6 497.2C467.6 495.8 468.1 492.7 466.5 490.4C465 488 464.9 488 443.7 488L422.5 487.9L426.3 485.9C430.6 483.6 434 478.8 434 474.8C434 473.2 425.8 456 415 434.7L396 397.3V371.8V346.3L399.5 338.8C406.1 324.4 407.5 317.5 407.4 299.5C407.4 285.1 407.1 282.6 404.7 274.7C403.2 269.9 400.6 263.2 399 260L396 254.1V208.2V162.3L400.3 163.1C402.6 163.5 408.9 163.9 414.3 164C477 164.2 512.1 92.9996 474.1 42.7996C464.7 30.3996 448.8 19.8996 433.4 15.9996C423 13.2996 405.4 13.2996 395.2 15.9996ZM430.5 26.6996C438.8 28.6996 450.5 35.0996 457.3 41.0996C464.8 47.6996 472.4 59.4996 475.7 69.4996C477.9 76.2996 478.4 79.2996 478.4 88.9996C478.4 98.9996 478 101.5 475.6 108.5C468.7 128.3 454.9 142.5 435.2 149.8C427 152.8 411.3 153.9 401.8 152.1C398.3 151.4 391.3 148.8 386.1 146.3C347.6 127.8 338.1 77.2996 367.1 45.5996C383.5 27.6996 406.8 20.7996 430.5 26.6996ZM74.2 30.7996C81.2 33.8996 88.3 40.9996 91.6 48.2996L94.5 54.4996L94.8 92.6996L95.1 131H61.1H27V94.9996C27 72.8996 27.4 57.1996 28.1 53.9996C29.3 48.2996 34.8 39.5996 39.8 35.4996C41.6 33.9996 45.7 31.6996 48.8 30.2996C56 27.2996 66.9 27.4996 74.2 30.7996ZM335.7 223C351.8 226.8 364.7 234.5 376.1 246.8C390.2 262.1 396.9 279.2 397 299.7C397 334.3 375.3 364.1 341.8 375.3C333.3 378.1 331.4 378.4 319 378.4C303.7 378.5 297.1 377.1 285.3 371.5C263.3 361.2 248.5 343.7 241.8 320.3C238.6 309.2 238.6 290.8 241.8 279.6C248.7 255.7 266.2 235.8 288.5 226.7C303.1 220.8 320.8 219.4 335.7 223ZM385 375C385 388.4 384.9 389 383 389C381.8 389 379.2 389.9 377 391C374.8 392.1 372.9 393 372.6 393C371.6 393 364.1 377.5 364.9 377.2C366.7 376.6 378.5 367.3 381.4 364.1C383.1 362.4 384.5 361 384.7 361C384.9 361 385 367.3 385 375ZM394.5 419.2C399.9 429.8 408.5 446.7 413.7 456.7L423.1 474.8L411.3 480.9C404.8 484.3 399.1 486.9 398.5 486.6C397.8 486.4 363.4 420 360.2 412.8C359.9 412.2 382.4 400.2 384.2 400.1C384.5 400 389.2 408.7 394.5 419.2Z" fill="#137AB6"/>
<path d="M404.896 57.0994C391.496 58.9994 375.696 66.4994 362.596 77.0994C352.996 84.7994 351.196 87.5994 353.396 91.6994C356.696 97.9994 375.396 111.099 387.896 115.899C398.796 120.099 404.096 121.099 414.496 121.199C433.296 121.199 453.396 112.499 470.296 97.0994C477.796 90.0994 477.896 87.9994 470.796 81.3994C456.496 67.9994 440.296 59.7994 422.996 56.9994C415.696 55.8994 412.896 55.8994 404.896 57.0994ZM418.996 68.0994C429.996 70.5994 436.796 79.7994 435.696 90.7994C434.696 99.8994 427.996 107.599 418.696 110.099C406.696 113.299 393.096 101.999 392.996 88.6994C392.996 76.7994 400.396 69.1994 413.996 67.0994C414.296 67.0994 416.496 67.4994 418.996 68.0994ZM382.996 80.0994C381.696 84.3994 381.696 93.4994 382.896 97.7994C383.396 99.4994 383.496 100.999 383.096 100.999C381.996 100.999 368.296 91.2994 367.496 89.8994C367.096 89.2994 367.596 87.8994 368.696 86.7994C370.896 84.6994 383.296 75.9994 383.696 76.3994C383.896 76.4994 383.496 78.1994 382.996 80.0994ZM454.096 82.1994C458.096 85.0994 461.496 87.9994 461.696 88.5994C462.096 89.6994 451.096 98.3994 446.196 100.899C443.896 102.099 443.896 102.099 445.096 99.7994C446.496 97.1994 446.896 85.2994 445.796 80.1994C445.396 78.4994 445.396 76.9994 445.896 76.9994C446.396 76.9994 450.096 79.3994 454.096 82.1994Z" fill="#137AB6"/>
<path d="M304.502 235.4C284.602 240 269.102 251.7 260.102 269C254.502 279.7 252.602 287.5 252.602 300C252.602 326.5 266.202 348.1 289.802 359.2C326.202 376.4 368.302 358.3 381.002 320C384.002 311 384.702 295.9 382.602 286C377.802 263.2 360.202 244 337.502 237C328.602 234.2 312.902 233.5 304.502 235.4ZM331.402 247C342.102 249.7 348.302 253.3 356.602 261.5C364.302 269.1 368.802 277 371.502 287.5C378.902 316.3 359.102 347.2 329.302 353.5C316.502 356.2 306.802 354.9 294.202 348.9C278.702 341.4 268.102 327.6 264.402 310C260.002 289.1 270.002 265.7 288.302 254.2C302.502 245.3 316.002 243 331.402 247Z" fill="#137AB6"/>
<path d="M314.198 255.2C313.498 255.9 312.998 258 312.998 260C312.998 263.2 312.498 263.7 308.398 265.9C297.898 271.5 294.198 283.1 299.598 293.9C302.798 300.3 307.598 303.7 315.298 305C321.898 306 324.298 307.2 326.398 310.2C329.898 315.2 327.498 322.1 321.398 324.6C318.498 325.8 317.498 325.8 314.598 324.6C311.098 323.1 307.998 318.7 307.998 315.1C307.998 310.5 301.798 308.3 298.698 311.8C293.698 317.4 300.698 331.3 310.398 335C312.598 335.8 312.998 336.6 312.998 339.8C312.998 344.2 314.398 346 317.898 346C321.798 346 323.098 344.7 323.698 340.1C324.198 336.5 324.798 335.6 327.898 334C334.998 330.4 338.998 323.7 338.998 315.5C338.998 303.9 331.598 296.2 318.598 294.5C310.398 293.4 306.198 287.1 309.298 280.4C311.298 276.3 316.098 273.6 319.998 274.5C323.598 275.3 327.998 280.3 327.998 283.6C327.998 286.5 331.198 290 333.898 290C338.998 290 340.498 282.9 337.098 275.5C335.198 271.2 330.298 266.4 326.298 264.9C324.598 264.3 323.998 263.3 323.998 261C323.998 256.1 322.398 254 318.698 254C316.898 254 314.898 254.5 314.198 255.2Z" fill="#137AB6"/>
<path d="M136.196 129.2C134.396 131 134.796 135.5 136.796 137.3C138.496 138.9 147.196 139 241.696 139C340.196 139 344.796 138.9 346.296 137.2C348.296 135 348.496 130.9 346.796 129.2C345.096 127.5 137.896 127.5 136.196 129.2Z" fill="#137AB6"/>
<path d="M137.196 188.599C134.796 190.299 134.196 194.799 136.196 196.799C137.896 198.499 345.096 198.499 346.796 196.799C348.596 194.999 348.196 190.499 346.196 188.699C344.496 187.099 335.796 186.999 241.896 186.999C150.796 186.999 139.196 187.199 137.196 188.599Z" fill="#137AB6"/>
<path d="M136.196 248.2C134.196 250.2 134.796 254.7 137.196 256.4C139.096 257.8 144.896 258 180.296 258C206.496 258 221.796 257.6 223.096 257C225.296 255.8 225.796 250.2 223.796 248.2C222.096 246.5 137.896 246.5 136.196 248.2Z" fill="#137AB6"/>
<path d="M136.696 307.8C134.596 310.1 134.496 313.4 136.596 315.4C137.996 316.8 143.296 317 180.396 317C211.896 317 222.896 316.7 223.796 315.8C225.796 313.8 225.296 308.2 223.096 307C221.796 306.4 206.396 306 179.696 306C140.896 306 138.196 306.1 136.696 307.8Z" fill="#137AB6"/>
<path d="M136.196 367.2C134.196 369.2 134.796 373.7 137.196 375.4C139.096 376.8 144.896 377 179.996 377C215.096 377 220.896 376.8 222.796 375.4C225.196 373.7 225.796 369.2 223.796 367.2C222.096 365.5 137.896 365.5 136.196 367.2Z" fill="#137AB6"/>
<path d="M12.7953 490.5C11.9953 492.4 11.9953 493.6 12.7953 495.5C13.8953 497.8 14.3953 498 21.2953 498C29.2953 498 30.9953 497.1 30.9953 493C30.9953 488.9 29.2953 488 21.2953 488C14.3953 488 13.8953 488.2 12.7953 490.5Z" fill="#137AB6"/>
<path d="M476.795 490.5C475.995 492.4 475.995 493.6 476.795 495.5C477.895 497.9 478.295 498 487.995 498C497.695 498 498.095 497.9 499.195 495.5C499.995 493.6 499.995 492.4 499.195 490.5C498.095 488.1 497.695 488 487.995 488C478.295 488 477.895 488.1 476.795 490.5Z" fill="#137AB6"/>
</svg>
