<svg width="512" height="512" viewBox="0 0 512 512" fill="none" xmlns="http://www.w3.org/2000/svg">
<path d="M150 0.899544L44.5 1.49954L38.5 4.39954C30.8 8.19954 23.2 15.7995 19.4 23.4995L16.5 29.4995V256V482.5L19.4 488.5C25.4 500.6 37 509 50.5 511C60 512.3 342 512.3 351.5 511C365 509 376.6 500.6 382.6 488.5C385.4 482.6 385.5 482.1 386 462.8L386.5 443L403.9 456.9C413.9 464.9 422.4 471 423.9 471.2C428.2 471.7 430.7 471 433.4 468.3L436 465.7V411.6C436.1 370.6 436.4 357.1 437.3 356C439.8 352.8 445.8 349.2 455 345.5C462.7 342.3 465.6 340.5 470.1 336C476.9 329.3 478.6 324.7 480 309.5C481.3 296 481.3 296 486.2 288.1C493.9 275.9 496 270.3 496 262.4C496 253.6 494.4 249 487.4 237.3C482.8 229.7 481.7 227 481 221.3C480.5 217.6 479.6 211.2 479.1 207.1C477.1 191.8 470.6 184.4 453.1 177.4C443 173.3 441.6 172.2 427.9 157.4C424.8 154 420.1 150.2 417.4 148.9C411.3 145.9 400.9 145.3 392.3 147.3L386.2 148.7L386.7 131.1C387 121.4 387 109.4 386.5 104.5L385.8 95.4995L346.7 56.1995C325.1 34.4995 303.7 13.2995 299 8.99954L290.5 1.19954L273 0.799544C263.4 0.599544 208 0.599544 150 0.899544ZM276 63.8995V105.7L278.5 108.2C279.9 109.6 282.4 111 284.1 111.4C285.9 111.7 305 112 326.6 112H366V130.4V148.7L359.8 147.3C351.1 145.3 340.8 145.9 334.6 148.9C331.9 150.2 327.2 154 324.1 157.4C310.7 171.9 308.8 173.4 300 176.9C281.3 184.2 275.3 190.9 272.5 207.2L271.9 211H166.6H61.3L58.6 213.6L56 216.3V241V265.7L58.5 268.2C59.9 269.6 62.4 271 64.1 271.4C65.9 271.7 109.9 272 162.1 272H257L259.6 277.2C261.1 280.1 263.3 284.2 264.6 286.2C265.9 288.3 267 290.2 267 290.5C267 290.8 245.5 291 219.1 291H171.3L168.6 293.6C166.5 295.7 166 297.2 166 301C166 306.5 169 310.4 174.1 311.4C175.9 311.7 198.5 312 224.6 312H271.9L272.6 316.7C272.9 319.4 274.1 323.6 275 326.3L276.8 331H169H61.3L58.6 333.6C56.5 335.7 56 337.2 56 341C56 346.5 59 350.4 64.1 351.4C65.9 351.7 122.1 352 189.2 352H311.1L313.5 354.6C315.7 356.9 316 358.3 316 364.1V371H188.6H61.3L58.6 373.6C56.5 375.7 56 377.2 56 381C56 386.5 59 390.4 64.1 391.4C65.9 391.7 123.2 392 191.6 392H316V401.5V411H188.6H61.3L58.6 413.6C56.5 415.7 56 417.2 56 421C56 426.5 59 430.4 64.1 431.4C65.9 431.7 123.2 432 191.6 432H316V441.5V451H188.6H61.3L58.6 453.6C56.5 455.7 56 457.2 56 461C56 466.6 59.1 470.4 64.3 471.4C68.6 472.2 312.2 472.1 322.7 471.3L331 470.7L344.2 460.2C351.5 454.4 359.5 448.1 361.9 446.1L366.2 442.6L365.8 459C365.4 473.2 365.1 476 363.3 479.5C360.9 484.1 359 486 354 488.6C350.6 490.4 345.1 490.5 201 490.5C56.9 490.5 51.4 490.4 48 488.6C43.1 486 41.1 484.1 38.6 479.5L36.5 475.5V256V36.4995L39.3 31.7995C40.9 28.9995 43.7 26.0995 46.3 24.5995L50.5 21.9995H163.3H276V63.8995ZM323.5 63.9995L350.5 90.9995H323.2H296V63.9995C296 49.0995 296.1 36.9995 296.3 36.9995C296.4 36.9995 308.7 49.0995 323.5 63.9995ZM359.7 169.1C364.6 170.3 371.8 171.2 376 171.2C380.2 171.2 387.4 170.3 392.3 169.1C406.7 165.7 405.8 165.3 418.5 178.5C427.9 188.3 430.5 190.4 436.5 193.1C458.6 203 457.7 202 459.1 217.5C460.5 231.3 462.2 236.8 469.1 248.4C476.8 261.4 476.8 262.5 469 275.5C461.9 287.3 460.4 291.8 459.1 306.4C458.4 314.5 457.6 318 456.2 319.9C455 321.5 450.2 324.3 443.6 327.2C430.1 333.2 425.7 336.4 417.5 346.2C413.8 350.5 409.3 354.8 407.5 355.7C404.4 357.2 403.5 357.1 392.6 354.6C378.2 351.3 373.8 351.3 359.4 354.6C348.5 357.1 347.6 357.2 344.5 355.7C342.7 354.8 338.2 350.5 334.5 346.2C326.4 336.4 321.8 333.1 308.9 327.5C303.3 325.1 297.9 322.3 296.9 321.4C294.5 319.2 293.4 314.7 292.5 303.8C291.7 291.9 290.1 287.2 283 275.5C275.2 262.6 275.2 261.5 283 248.2C289.9 236.2 291.5 231.2 292.9 217.5C294.3 202 293.4 203 315.5 193.1C321.5 190.4 324.1 188.3 333.5 178.5C346.2 165.3 345.3 165.7 359.7 169.1ZM263 240.2C260.2 244.8 258 249.1 258 249.7C258 250.7 239.1 251 167 251H76V241.5V232H172H267.9L263 240.2ZM387.3 375.1C396 377.4 406.1 378 412.3 376.7L416 375.9V407.5C416 424.9 415.7 438.9 415.2 438.6C414.8 438.4 406.8 432.1 397.5 424.6C374.7 406.4 377.3 406.4 354.5 424.6C345.2 432.1 337.2 438.4 336.8 438.6C336.3 438.9 336 424.9 336 407.5V375.9L339.8 376.7C345.7 378 356.9 377.2 364.5 375.1C373.7 372.6 377.5 372.6 387.3 375.1Z" fill="#137AB6"/>
<path d="M111.799 68.4C91.699 83.5 74.499 96.9 73.599 98.1C70.899 102 71.499 107.7 74.899 111.1C77.299 113.4 78.699 114 82.199 114C84.599 114 87.599 113.3 88.799 112.4L90.999 110.9V148.3V185.7L93.499 188.2C94.899 189.6 97.399 191 99.099 191.4C103.199 192.2 208.799 192.2 212.899 191.4C214.599 191 217.099 189.6 218.499 188.2L220.999 185.7V147.8V109.9L223.999 112C227.599 114.6 233.999 114.9 237.399 112.7C240.899 110.4 242.499 104.9 240.999 100.5C239.799 96.8 239.999 96.9 177.199 54.7C158.999 42.4 156.499 41 152.599 41C148.599 41 146.399 42.5 111.799 68.4ZM200.999 133.7V171H183.499H165.999V152.9V134.8L163.099 131.9C158.999 127.8 152.999 127.8 148.899 131.9L145.999 134.8V152.9V171H128.499H110.999V133.2L111.099 95.5L132.199 79.8L153.199 64.1L177.099 80.3L200.999 96.4V133.7Z" fill="#137AB6"/>
<path d="M367.2 212.1C343 216.3 326 236.7 326 261.6C326 273 328.4 281.4 334.1 289.9C343.5 304 358.6 312 376 312C398.3 312 417.6 298 424 277.3C426.4 269.6 426.7 256.1 424.6 248.5C421.6 237 413.1 225.5 403.1 219.1C393.6 213 378.5 210.1 367.2 212.1ZM388.7 235.6C403.3 242.6 409.2 260.2 401.9 274.8C398.7 281.3 395.3 284.7 388.6 288.3C382.7 291.4 369.3 291.4 363.4 288.3C356.7 284.7 353.3 281.3 350.1 274.8C345.1 264.8 346 253.1 352.3 244.8C361.4 232.9 375.6 229.3 388.7 235.6Z" fill="#137AB6"/>
</svg>
