<svg width="512" height="512" viewBox="0 0 512 512" fill="none" xmlns="http://www.w3.org/2000/svg">
<path d="M189.9 18.3997C181.9 21.1997 176 25.0997 169.7 31.8997C164.9 36.9997 164.8 36.9997 160.1 36.3997C147.7 34.7997 131 40.9997 121.1 50.8997C115.5 56.4997 109.6 66.6997 108.4 72.9997C107.4 77.8997 77.6 107.5 72.7 108.4C66.5 109.6 56.8 115.2 51 121C41 131 34.8 147.6 36.4 160C37 164.8 37 164.8 31.6 170C20.7 180.3 16 191.1 16 205.9C16 215.5 18.2 224.7 22.1 230.9C24 234.1 24.2 235.7 24.2 256C24.2 276.3 24 277.9 22.1 281.1C18.2 287.3 16 296.5 16 306.1C16 320.9 20.7 331.7 31.6 342C37 347.2 37 347.2 36.4 352C34.8 364.4 41 381 51 391C56.8 396.8 66.5 402.4 72.7 403.6C77.8 404.6 107.4 434.2 108.4 439.3C109.6 445.5 115.2 455.2 121 461C131 471 147.6 477.2 160 475.6C164.8 475 164.8 475 170 480.4C180.3 491.3 191.1 496 205.9 496C215.5 496 224.7 493.8 230.9 489.9C234.2 487.9 235.7 487.8 256 487.8C276.3 487.8 277.8 487.9 281.1 489.9C287.3 493.8 296.5 496 306.1 496C320.9 496 331.7 491.3 342 480.4C347.2 475 347.2 475 352 475.6C364.4 477.2 381 471 391 461C396.8 455.2 402.4 445.5 403.6 439.3C404.6 434.2 434.2 404.6 439.3 403.6C445.5 402.4 455.2 396.8 461 391C471 381 477.2 364.4 475.6 352C475 347.2 475 347.2 480.4 342C491.3 331.7 496 320.9 496 306.1C496 296.5 493.8 287.3 489.9 281.1C488 277.9 487.8 276.3 487.8 256C487.8 235.7 488 234.1 489.9 230.9C493.8 224.7 496 215.5 496 205.9C496 191.1 491.3 180.3 480.4 170C475 164.8 475 164.8 475.6 160C477.2 147.6 471 131 461 121C455.2 115.2 445.5 109.6 439.3 108.4C434.2 107.4 404.6 77.7997 403.6 72.6997C402.4 66.4997 396.8 56.7997 391 50.9997C381 40.9997 364.4 34.7997 352 36.3997C347.2 36.9997 347.2 36.9997 342 31.5997C331.7 20.6997 320.9 15.9997 306.1 15.9997C296.5 15.9997 287.3 18.1997 281.1 22.0997C277.8 24.0997 276.3 24.1997 256 24.1997C235.7 24.1997 234.2 24.0997 230.9 22.0997C220.6 15.6997 202.2 13.9997 189.9 18.3997ZM220.1 35.9997C222.5 37.1997 225.3 38.8997 226.3 39.7997C227.8 41.0997 232.2 41.3997 255.7 41.3997C280.8 41.4997 283.6 41.2997 285.6 39.6997C290.3 35.9997 298.8 32.8997 304.3 32.8997C317.4 32.6997 326.6 37.6997 333.7 48.6997C337.7 55.0997 339.5 55.5997 349.8 53.9997C357.1 52.7997 358.2 52.8997 364.7 54.7997C376.9 58.4997 385.5 68.2997 387.8 80.9997C388.7 85.9997 389.3 86.7997 397.1 93.8997C407.6 103.4 410.9 106.7 419 115.8C425.1 122.7 425.9 123.3 431 124.2C438.5 125.5 444.8 129 449.8 134.4C457.7 142.9 459.7 151.4 457.6 166.7C456.6 173.6 456.7 173.7 466 180.3C478.1 189 482.6 205.5 476.5 218.8C475.1 221.9 473.2 225.2 472.3 226.2C470.9 227.8 470.7 231.7 470.6 255.7C470.5 280.8 470.7 283.6 472.3 285.6C473.3 286.9 475.2 290.4 476.7 293.5C478.9 298.5 479.2 300.2 478.8 307.4C478.1 319.4 473.6 327.1 463.3 333.7C456.9 337.7 456.4 339.5 458 349.8C459.2 357.1 459.1 358.2 457.2 364.7C453.5 376.9 443.7 385.5 431 387.8C426 388.7 425.2 389.3 417.6 397.6C413.1 402.4 406.4 409.4 402.5 413C388.1 426.5 388.4 426.1 387.6 431.5C386.1 442.8 376.5 453.6 364.7 457.2C358.2 459.1 357 459.2 349.8 458C339.5 456.4 337.7 456.9 333.7 463.3C327.1 473.6 319.4 478.1 307.4 478.8C300.1 479.2 298.6 478.9 293.4 476.6C290.2 475.1 286.7 473.2 285.8 472.3C284.2 470.9 280.3 470.7 256.3 470.6C231.2 470.5 228.4 470.7 226.4 472.3C225.1 473.3 221.6 475.2 218.5 476.7C213.5 478.9 211.8 479.2 204.6 478.8C192.4 478.2 185.1 473.7 177.7 462.4C175.9 459.7 173.6 457.4 172.5 457.1C171.4 456.9 166.8 457.3 162.4 458C154.9 459.2 153.7 459.1 147.3 457.2C135.5 453.6 125.8 442.8 124.4 431.5C123.7 426.1 123.5 425.9 109 412.5C105.4 409.1 98.9 402.5 94.4 397.6C86.8 389.3 86 388.7 81 387.8C67.8 385.4 58.3 376.7 54.4 363.4C52.9 358.3 52.9 356.6 54 349.5C54.7 345.1 55.1 340.6 54.9 339.5C54.6 338.4 52.3 336.1 49.6 334.3C38.3 326.9 33.8 319.6 33.2 307.4C32.8 300.1 33.1 298.5 35.4 293.4C36.9 290.2 38.8 286.7 39.7 285.8C41.1 284.2 41.3 280.3 41.4 256.3C41.5 231.2 41.3 228.4 39.7 226.4C38.7 225.1 36.8 221.6 35.3 218.5C33.1 213.5 32.8 211.8 33.2 204.6C33.8 192.4 38.3 185.1 49.6 177.7C52.3 175.9 54.6 173.6 54.9 172.5C55.1 171.4 54.7 166.8 54 162.4C52.8 154.9 52.9 153.7 54.8 147.3C58.4 135.5 69.2 125.8 80.5 124.4C85.9 123.7 86.3 123.3 99.5 109C102.8 105.4 109.5 98.8997 114.3 94.4997C122.8 86.7997 123.1 86.2997 124.3 80.3997C126.9 67.8997 135.4 58.4997 147.3 54.7997C153.8 52.8997 155 52.7997 162.2 53.9997C172.5 55.5997 174.3 55.0997 178.3 48.6997C187.8 33.8997 205.4 28.5997 220.1 35.9997Z" fill="#137AB6"/>
<path d="M238 58.0995C211.8 64.7995 190.9 86.2995 185.4 112L183.7 120H161.8C141.3 120 139.9 120.1 138 122C136 124 136 125.3 136 178V232H128H120V222C120 207 122.2 208 88 208C61.3 208 59.9 208.1 58 210C56.1 211.9 56 213.3 56 240C56 266.7 56.1 268.1 58 270C59.9 271.9 61.3 272 88 272C122.2 272 120 273 120 258V248H134C146.7 248 148.2 247.8 150 246C152 244 152 242.7 152 190V136H167.8H183.7L185.4 144C189.2 161.6 200.8 178.3 216.4 188.5L224 193.4V218.7C224 249.8 223.1 248 238 248H248V264V280H218C189.3 280 187.9 280.1 186 282C184.1 283.9 184 285.3 184 326V368H174C159 368 160 365.8 160 400C160 426.7 160.1 428.1 162 430C163.9 431.9 165.3 432 192 432C218.7 432 220.1 431.9 222 430C223.9 428.1 224 426.7 224 400C224 365.8 225 368 210 368H200V332V296H256H312V332V368H302C287 368 288 365.8 288 400C288 426.7 288.1 428.1 290 430C291.9 431.9 293.3 432 320 432C346.7 432 348.1 431.9 350 430C351.9 428.1 352 426.7 352 400C352 365.8 353 368 338 368H328V326C328 285.3 327.9 283.9 326 282C324.1 280.1 322.7 280 294 280H264V264V248H274C288.9 248 288 249.8 288 218.7V193.4L295.6 188.5C311.1 178.4 322.9 161.5 326.6 144.1L328.3 136H344.2H360V190C360 242.7 360 244 362 246C363.8 247.8 365.3 248 378 248H392V258C392 273 389.8 272 424 272C450.7 272 452.1 271.9 454 270C455.9 268.1 456 266.7 456 240C456 213.3 455.9 211.9 454 210C452.1 208.1 450.7 208 424 208C389.8 208 392 207 392 222V232H384H376V178C376 125.3 376 124 374 122C372.1 120.1 370.7 120 350.2 120H328.3L326.6 112C322.3 91.6995 307.3 72.6995 288.5 63.3995C273.4 55.9995 253.9 53.8995 238 58.0995ZM274.6 75.9995C291.7 81.8995 306.1 98.2995 310 116.1C311.8 124.1 310.8 139 308.2 146.5C302.7 161.6 289.6 174.7 274.5 180.2C267 182.8 252.1 183.8 244.1 182C230.8 179.1 218.1 170.4 210.3 158.8C203.3 148.3 201.5 142.1 201.5 128C201.5 113.8 203.3 107.6 210.5 96.9995C216.5 88.1995 226.1 80.3995 235.8 76.4995C247.3 71.8995 262.4 71.6995 274.6 75.9995ZM272 216V232H256H240V216V200H256H272V216ZM104 240V256H88H72V240V224H88H104V240ZM440 240V256H424H408V240V224H424H440V240ZM208 400V416H192H176V400V384H192H208V400ZM336 400V416H320H304V400V384H320H336V400Z" fill="#137AB6"/>
<path d="M247.995 92.2C247.995 96.4 247.795 96.6 242.995 98.7C239.295 100.3 237.295 102.1 234.995 105.7C232.195 110 231.895 111.1 232.195 116.7C232.895 128.3 240.795 135.4 254.295 136.7C261.495 137.3 264.095 139 261.995 141.5C261.195 142.4 258.995 143 255.995 143C252.995 143 250.795 142.4 249.995 141.5C249.095 140.4 246.595 140 240.195 140H231.695L232.295 143.6C233.295 149.4 237.295 154.5 242.895 157.1C247.795 159.4 247.895 159.6 247.995 163.7V168H255.995H263.995V163.7C263.995 159.6 264.195 159.4 268.895 157.4C276.195 154.2 279.495 148.7 279.495 139.9C279.495 134 279.095 132.6 276.495 128.9C272.595 123.3 266.295 120.1 257.695 119.3C250.495 118.7 247.895 117 249.995 114.5C250.795 113.6 252.995 113 255.995 113C258.995 113 261.195 113.6 261.995 114.5C262.895 115.6 265.395 116 271.595 116H279.995V113.2C279.995 108.3 274.595 101.1 268.995 98.7C264.195 96.6 263.995 96.4 263.995 92.2V88H255.995H247.995V92.2Z" fill="#137AB6"/>
</svg>
