<svg width="512" height="512" viewBox="0 0 512 512" fill="none" xmlns="http://www.w3.org/2000/svg">
<path d="M131.5 27.5995C129.9 28.3995 127.7 29.8995 126.6 30.7995C124 33.1995 121 39.8996 121 43.6996V46.9995H82.1C48 46.9995 42.9 47.1995 41.6 48.5995C40.2 49.9995 40 69.8995 40 253C40 436.1 40.2 456 41.6 457.4C43 458.8 59.5 459 208.9 459C368.2 459 374.8 458.9 376.3 457.2C377.7 455.7 378 453.1 378 442.9V430.5L406.8 459.3C432.7 485.1 435.9 488 438.8 488C443.7 488 446.6 486 456.6 475.8C466.8 465.5 468 463.6 468 458.8C468 455.8 464.7 452.2 430.6 418.1L393.2 380.7L388.5 381.2C385.1 381.6 383 382.6 380.6 384.9L377.4 388L372.2 382.7C369.3 379.8 367 377.1 367 376.6C367 376.2 368.3 374.1 369.8 372.1C374.6 366 377.8 359.6 381.2 349.8C384.4 340.8 384.5 340 384.5 324.5C384.5 309.1 384.4 308.2 381.2 299.2L378 289.9V170.1C378 55.2995 377.9 50.1996 376.2 48.6996C374.5 47.1996 370.3 46.9995 335.7 46.9995C299.5 46.9995 297 46.8996 297 45.1996C297 41.2996 294.7 35.6996 291.8 32.3996C285.8 25.5996 290.7 25.9995 208.8 25.9995C143.4 25.9995 134.1 26.1995 131.5 27.5995ZM278.7 38.9995C283.6 40.6995 284 42.9995 284 67.0995V89.0995L281.5 91.4995L279.1 93.9995H208.9H138.6L136.3 91.7996C134 89.6996 134 89.3996 134 66.7996C134 42.8996 134.4 40.5995 138.3 38.9995C141.5 37.6995 275 37.6995 278.7 38.9995ZM121 66.9995V73.9995H96C72.3 73.9995 70.9 74.0995 69 75.9995C67 77.9995 67 79.2995 67 252.7C67 348.9 67.4 428 67.8 428.6C70 432 71.6 432 209.3 432C342.1 432 345.8 431.9 348.1 430.1C350.4 428.2 350.5 427.8 350.8 409.4C351.1 391.6 351.2 390.6 353.3 388.9C354.5 387.9 355.9 387.1 356.5 387C357 387 359.8 389.3 362.7 392.2L368 397.4L364.9 400.6C360.7 404.9 359.9 411 362.9 415C364.8 417.7 365 419.2 365 432V446H208.5H52V253V59.9995H86.5H121V66.9995ZM365 165.1V270.3L360.3 265.9C357.6 263.4 354.5 260.7 353.3 259.9L351 258.3L350.8 168.1L350.5 77.7996L348.1 75.8996C346 74.0996 343.9 73.9995 321.4 73.9995H297V66.9995V59.9995H331H365V165.1ZM121 89.4995C121 92.6995 124.1 98.7995 127.2 101.7C133 107.1 131.2 107 208.2 107C255.3 107 280.8 106.6 283.3 105.9C289 104.4 294.5 98.3995 296 92.0995L297.2 86.9995H317.6H338V168.8V250.6L329.3 247.6C321 244.7 319.6 244.6 305 244.5C291.5 244.5 288.5 244.8 282 246.8C273.2 249.6 264.4 253.9 257.7 258.6L253 262H179H104.9L102.5 264.5C99.6 267.3 99.4 269.6 101.6 272.8L103.1 275H171.7H240.2L238 278.2C236.8 280 234.2 285 232.2 289.2L228.5 296.9L167.5 297C120.6 297 105.9 297.3 104 298.3C100.4 300.1 99.2 304.2 101.4 307.4L103 310H164.1H225.2L224.6 312.2C224.3 313.5 224 318.7 224 323.7V333H163.5H103L101.4 335.6C99.2 338.8 100.4 342.9 104 344.7C105.9 345.7 120.4 346 166.6 346H226.7L227.9 350.2C228.6 352.6 230.7 357.5 232.6 361.2L236 368H169.6H103.1L101.6 370.2C99.4 373.4 99.6 375.7 102.5 378.5L104.9 381H175.8H246.7L248.6 383.1C254.3 389.5 269.8 398.3 282 402.2C288.5 404.2 291.5 404.5 305 404.5C319.6 404.4 321 404.3 329.3 401.4L338 398.4V408.7V419H209H80V253V86.9995H100.5H121V89.4995ZM325.8 260.3C336.5 264 343.5 268.5 352 277C365.3 290.3 371 303.2 371.8 321.5C372.3 335 370.6 343.1 364.8 355C358.9 367 347 378.9 335 384.8C323.1 390.6 315 392.3 301.5 391.8C283.2 391 270.3 385.3 257 372C244 359 238.2 346.1 237.3 328C236.4 310.8 241.3 295.5 251.7 282.5C261 271.1 273.5 262.9 287.7 258.9C297.9 256.1 315.8 256.7 325.8 260.3ZM384.9 404.6C379.1 410.4 377.3 411.7 376.3 410.8C375.1 409.9 376.3 408.3 382.1 402.4C387.9 396.6 389.7 395.3 390.7 396.2C391.9 397.1 390.7 398.7 384.9 404.6ZM434.8 454.7L427.5 462L407.3 441.8L387 421.5L394.2 414.3L401.5 407L421.7 427.2L442 447.5L434.8 454.7ZM446.9 466.6C441.1 472.4 439.3 473.7 438.3 472.8C437.1 471.9 438.3 470.3 444.1 464.4C449.9 458.6 451.7 457.3 452.7 458.2C453.9 459.1 452.7 460.7 446.9 466.6Z" fill="#137AB6"/>
<path d="M154.594 62.199C152.394 65.399 152.594 67.699 155.494 70.499L157.894 72.999H208.694C265.294 72.999 263.994 73.199 263.994 66.599C263.994 59.699 266.194 59.999 208.194 59.999H156.094L154.594 62.199Z" fill="#137AB6"/>
<path d="M106.2 124.7C104.6 125.3 84 166.3 84 168.8C84 175.8 93.2 177.3 96.6 170.9L98.1 168H109.5H120.9L122.4 170.9C125.9 177.5 135 175.9 135 168.7C135 166 117.1 129 114.2 125.7C112.8 124.1 109 123.6 106.2 124.7ZM114 154.2C114 154.7 112 155 109.5 155C107 155 105 154.8 105 154.5C105 154.3 106 152 107.2 149.5L109.4 144.9L111.7 149.2C112.9 151.6 113.9 153.8 114 154.2Z" fill="#137AB6"/>
<path d="M147.6 126.2C146.3 128 146 131.5 146 143.5C146 160.6 147.1 164.2 153.3 169.7C163.4 178.6 179.5 175.8 185.7 164.1C187.8 160 188 158.5 188 143.5C188 129.1 187.8 127.1 186.2 125.7C183.9 123.6 180 123.5 177.4 125.4C175.7 126.7 175.4 128.5 175 142.5C174.5 157.5 174.4 158.3 172.1 160.1C169.5 162.2 165.3 162.5 162.9 160.7C159.6 158.2 159 155.2 159 141.2C159 129 158.8 127.1 157.2 125.7C154.5 123.2 149.4 123.5 147.6 126.2Z" fill="#137AB6"/>
<path d="M204.694 125.8C203.194 127.4 202.994 130.6 202.994 149.7C202.994 176.7 202.094 175 217.394 175C232.094 175 237.594 172.5 242.094 163.8C243.594 160.8 243.994 157.9 243.994 149.5C243.994 141.1 243.594 138.2 242.094 135.2C237.594 126.5 232.094 124 217.194 124C207.894 124 206.094 124.3 204.694 125.8ZM228.394 139.1C230.794 141 230.994 141.7 230.994 149.5C230.994 157.3 230.794 158 228.394 159.9C226.494 161.4 224.294 162 220.894 162H215.994V149.5V137H220.894C224.294 137 226.494 137.6 228.394 139.1Z" fill="#137AB6"/>
<path d="M260.7 125.8C259.2 127.4 259 130.6 259 149.7C259 169.7 259.2 171.8 260.8 173.3C263.3 175.6 267.6 175.4 270 173C271.9 171.1 272 169.7 272 149.5C272 129.3 271.9 127.9 270 126C267.5 123.5 262.8 123.4 260.7 125.8Z" fill="#137AB6"/>
<path d="M288.7 125.2C287.8 125.9 286.8 127.7 286.5 129.2C286 131.3 286.4 132.5 288.4 134.4C290.5 136.6 291.8 137 296.5 137H302V154.3C302 169.9 302.2 171.9 303.8 173.3C305.7 175.1 309.7 175.5 311.6 174.2C314.4 172.4 315 168.6 315 153.1V137H320.3C324.6 137 326.1 136.5 327.8 134.7C330.5 131.8 330.6 128.6 328 126C326.1 124.1 324.7 124 308.2 124C295.5 124 289.9 124.4 288.7 125.2Z" fill="#137AB6"/>
<path d="M101.896 194.1C99.4962 196.5 99.8962 201.6 102.696 203.7C103.996 204.7 126.496 205 207.196 205C308.696 205 309.996 205 311.996 203C313.096 201.9 313.996 199.9 313.996 198.5C313.996 197.1 313.096 195.1 311.996 194C309.996 192 308.696 192 206.996 192H103.996L101.896 194.1Z" fill="#137AB6"/>
<path d="M102.094 229.6C99.4946 232.9 99.3946 235.4 101.994 238C103.994 240 105.294 240 206.994 240C308.694 240 309.994 240 311.994 238C313.094 236.9 313.994 234.9 313.994 233.5C313.994 232.1 313.094 230.1 311.994 229C309.994 227 308.694 227 207.094 227H104.094L102.094 229.6Z" fill="#137AB6"/>
<path d="M292.295 269.5C281.595 271.8 273.295 276.5 264.995 284.9C247.295 302.7 243.195 326.9 254.095 349.7C258.395 358.8 269.895 370.4 278.995 374.8C315.695 392.7 357.695 368.7 360.595 328C361.795 311.7 356.195 297 344.095 284.9C329.895 270.7 311.695 265.3 292.295 269.5ZM319.195 284C339.395 291.5 351.695 313.9 346.595 333.7C341.995 351.9 328.795 364.2 310.595 367.3C283.395 371.9 257.295 345.8 261.795 318.4C264.695 300.6 278.895 285.6 295.995 282C302.495 280.7 312.595 281.5 319.195 284Z" fill="#137AB6"/>
</svg>
