<svg width="512" height="512" viewBox="0 0 512 512" fill="none" xmlns="http://www.w3.org/2000/svg">
<g clip-path="url(#clip0_363_4177)">
<mask id="mask0_363_4177" style="mask-type:luminance" maskUnits="userSpaceOnUse" x="0" y="0" width="512" height="512">
<path d="M512 0H0V512H512V0Z" fill="white"/>
</mask>
<g mask="url(#mask0_363_4177)">
<path d="M192.497 1.79943C181.797 5.49943 177.797 8.89943 140.897 45.8994C110.197 76.4994 103.697 83.4994 101.197 88.4994C95.3967 100.199 95.5967 96.2994 94.9967 181.999L94.3967 261.499L91.5967 268.499C86.1967 281.999 84.8967 289.299 84.2967 307.499C83.8967 322.299 84.0967 325.899 85.9967 334.899C88.2967 346.399 93.3967 360.399 98.1967 368.799L101.297 374.199L95.6967 379.799L90.0967 385.399L82.2967 385.499C76.1967 385.499 73.4967 386.099 69.9967 387.899C63.7967 391.099 6.99669 447.899 3.89669 453.999C0.796696 460.099 0.696696 470.799 3.69669 476.499C6.69669 482.099 33.5967 508.499 38.1967 510.499C43.5967 512.699 53.9967 512.499 59.2967 509.999C61.8967 508.799 69.2967 502.199 78.8967 492.599C93.0967 478.399 94.1967 476.999 94.1967 473.599C94.1967 468.499 91.6967 465.999 86.5967 465.999C82.6967 465.999 81.9967 466.599 67.4967 480.999C47.3967 500.899 49.2967 500.799 30.9967 482.499C18.7967 470.199 17.5967 468.799 17.5967 465.499C17.5967 462.099 19.3967 460.099 48.1967 431.299L78.8967 400.699L82.5967 401.299C85.7967 401.799 88.3967 403.899 98.2967 413.699C111.097 426.399 113.497 429.799 112.497 433.699C112.197 434.999 109.197 438.999 105.997 442.499C101.097 447.699 99.9971 449.599 99.9971 452.299C99.9971 456.699 103.397 459.999 107.997 459.999C110.897 459.999 112.497 458.899 118.597 452.599C127.097 443.999 129.697 437.699 128.497 428.799L127.797 423.799L133.397 418.099L139.097 412.299L147.297 416.599C155.197 420.799 162.397 423.499 177.797 427.899C181.997 429.199 184.997 430.599 184.997 431.399C184.997 432.099 186.397 435.399 187.997 438.699C193.797 450.199 205.297 458.199 218.897 460.099C222.897 460.699 276.597 460.899 352.097 460.799C466.497 460.499 478.997 460.299 483.297 458.799C494.597 454.899 503.697 446.299 508.197 435.299L510.497 429.499V273.999V118.499L508.197 112.699C504.997 104.899 496.597 95.9994 488.797 91.9994C485.397 90.3994 482.097 88.9994 481.297 88.9994C480.597 88.9994 479.997 88.3994 479.997 87.6994C479.997 84.6994 474.597 75.4994 470.097 70.5994C465.397 65.6994 456.097 59.9994 452.697 59.9994C451.897 59.9994 450.397 57.4994 449.097 53.9994C445.497 43.9994 434.397 33.5994 424.497 30.8994C422.597 30.2994 420.997 29.3994 420.997 28.6994C420.997 27.9994 419.897 25.0994 418.497 22.1994C414.997 14.5994 407.197 6.79943 399.697 3.39943L393.497 0.499425L295.497 0.299425C204.597 0.0994254 197.097 0.199425 192.497 1.79943ZM391.497 17.2994C396.797 19.6994 401.797 24.4994 404.097 29.4994C405.897 33.2994 405.997 39.5994 405.997 185.899V338.399L403.897 342.699C401.397 347.999 395.297 353.299 390.097 354.799C387.497 355.599 374.597 355.999 349.697 355.999H313.097L315.097 350.199C329.797 307.999 318.897 259.399 287.597 227.799C252.997 192.899 202.297 182.699 156.297 201.399C143.697 206.599 132.097 214.299 120.897 224.899L110.897 234.299L111.197 174.399C111.597 96.8994 108.297 103.799 144.797 102.899C169.997 102.299 172.597 101.899 180.597 96.6994C185.297 93.6994 190.897 87.7994 193.797 82.8994C197.997 75.8994 198.997 68.9994 198.997 46.9994C198.997 28.3994 199.197 26.1994 200.997 23.2994C203.197 19.5994 206.797 16.9994 211.297 15.9994C212.997 15.4994 253.397 15.1994 300.997 15.2994C381.997 15.4994 387.797 15.5994 391.497 17.2994ZM182.797 52.4994C182.497 71.0994 181.597 74.2994 175.297 80.1994C168.997 86.1994 165.497 86.9994 142.997 86.9994H122.497L152.497 56.9994L182.497 26.9994L182.797 31.1994C182.997 33.5994 182.997 43.0994 182.797 52.4994ZM428.297 51.8994C429.897 53.3994 432.197 56.2994 433.297 58.4994L435.497 62.4994V215.499V368.499L432.697 373.299C429.097 379.299 423.297 383.599 416.697 384.999C413.097 385.799 393.397 385.999 353.797 385.799L296.097 385.499L300.597 378.999L305.097 372.499L349.297 371.999L393.497 371.499L399.197 368.699C407.597 364.599 414.397 357.999 418.197 350.199L421.497 343.499L421.797 195.199C421.997 54.4994 422.097 46.7994 423.797 48.0994C424.697 48.7994 426.797 50.4994 428.297 51.8994ZM458.697 82.1994C464.697 88.3994 464.997 90.1994 464.997 119.399C464.997 147.499 465.297 149.899 469.697 151.899C473.197 153.499 475.397 153.299 478.297 150.899L480.997 148.899L481.197 127.199L481.497 105.599L485.797 109.499C488.197 111.599 491.097 115.199 492.297 117.399L494.497 121.499L494.797 270.999C494.997 377.999 494.797 421.999 493.997 425.699C492.497 432.599 488.497 437.899 481.897 441.499L476.497 444.499H347.997C202.097 444.499 213.897 445.199 205.897 436.199L201.797 431.499L326.697 430.999L451.597 430.499L459.197 426.699C467.897 422.399 473.397 416.899 477.697 408.099L480.497 402.499L480.797 286.799C480.997 171.899 480.997 170.999 478.997 168.999C476.397 166.399 470.997 166.399 467.897 168.899L465.497 170.799L464.997 284.699L464.497 398.699L461.497 403.599C459.597 406.599 456.597 409.599 453.597 411.499L448.697 414.499L355.097 414.799L261.597 414.999L268.497 410.399C272.397 407.899 276.397 404.899 277.597 403.899C279.497 402.099 282.297 401.999 346.097 401.999C383.397 401.999 414.997 401.599 418.297 400.999C434.897 398.299 447.497 386.299 450.897 370.199C451.697 366.499 451.997 322.499 451.997 220.899C451.997 84.0994 452.097 76.9994 453.797 77.8994C454.697 78.3994 456.897 80.2994 458.697 82.1994ZM227.497 211.399C239.197 214.399 254.897 221.799 263.597 228.299C271.297 234.199 283.397 246.899 288.297 254.299C301.197 273.799 307.397 298.699 304.997 321.099C301.097 356.099 281.497 385.499 250.897 401.899C207.497 425.199 153.397 414.199 122.297 375.599C114.697 366.099 106.097 349.099 102.897 337.499C99.8967 326.099 99.0967 303.399 101.497 291.899C106.497 266.999 120.797 243.999 140.797 228.899C153.497 219.299 171.897 211.599 188.497 208.999C198.497 207.499 216.197 208.599 227.497 211.399ZM118.297 395.399L125.697 402.799L121.897 406.599L117.997 410.399L110.497 402.999L102.997 395.599L106.697 391.799C108.697 389.699 110.497 387.999 110.697 387.999C110.797 387.999 114.197 391.299 118.297 395.399Z" fill="#137AB6"/>
<path d="M156.3 117.2C153.7 120.1 135 169.2 135 173.1C135 177.2 138.2 180 142.8 180C147.3 180 149.1 178.4 151.5 172.2L153.2 168H162.5H171.8L173.5 172.2C175.9 178.4 177.7 180 182.2 180C186.8 180 190 177.2 190 173.1C190 169.1 171.3 120 168.8 117.2C167.2 115.6 165.5 115 162.5 115C159.5 115 157.8 115.6 156.3 117.2ZM164.3 148.2L165.9 152H162.5H159.2L160.7 148C161.6 145.8 162.4 144.1 162.6 144.2C162.7 144.4 163.5 146.2 164.3 148.2Z" fill="#137AB6"/>
<path d="M197.9 116.9C195.5 118.8 195.5 118.9 195.5 140.2C195.5 164.7 196 166.9 202.6 173C208.6 178.5 212.5 180 220.8 180C232.3 180 242 173.6 244.9 164.1C245.6 161.8 246 152.2 246 139.8C246 119.7 246 119.3 243.7 117.2C240.3 114 234.8 114.2 232.1 117.6C230.1 120.1 230 121.6 230 139.5C230 156.4 229.8 159 228.3 160.9C225.5 164.2 220.8 165.1 216.8 163.2C211.5 160.5 211 158.5 211 137.7C211 120.3 210.9 118.9 209 117C206.4 114.4 201 114.4 197.9 116.9Z" fill="#137AB6"/>
<path d="M257.096 117.6C255.096 120.2 254.996 121.5 254.996 147.5C254.996 182 253.996 180 270.696 180C284.796 180 288.796 178.9 294.996 173.3C301.496 167.5 304.196 160.9 304.796 149.9C305.496 136.1 301.296 125.3 293.096 119.6C287.596 115.8 283.896 115 270.796 115C259.396 115 259.096 115.1 257.096 117.6ZM283.496 133.2C287.196 136.1 288.996 140.8 288.996 147.5C288.996 158.2 284.396 164 275.896 164H270.996V147.5V131H275.896C279.296 131 281.496 131.6 283.496 133.2Z" fill="#137AB6"/>
<path d="M315.1 117.6C313.1 120.2 313 121.5 313 147.2C313 179 313.2 180 321.2 180C323.8 180 325.6 179.3 327 177.8C328.9 175.7 329 174.4 329 147.9C329 121.5 328.9 120.2 326.9 117.6C325.3 115.6 324 115 321 115C318 115 316.7 115.6 315.1 117.6Z" fill="#137AB6"/>
<path d="M341.997 116.799C340.397 118.099 339.797 119.699 339.797 122.399C339.797 127.499 342.497 130.099 348.397 130.699L352.997 131.299V152.999C352.997 173.499 353.097 174.899 355.097 177.399C357.697 180.699 363.897 181.099 366.997 177.999C368.897 176.099 368.997 174.699 368.997 153.499V130.999H372.497C381.597 130.999 385.997 123.999 380.897 117.599L378.897 114.999H361.497C346.397 114.999 343.897 115.199 341.997 116.799Z" fill="#137AB6"/>
<path d="M186.098 226.1C170.498 229.1 154.998 237.2 143.298 248.3C134.498 256.7 129.198 264.1 123.998 275.4C119.098 286 117.098 294.2 116.298 306.5C113.898 348.8 142.098 386.1 183.698 395.6C194.998 398.2 211.898 398 223.498 395.1C253.098 387.9 276.498 365.4 285.598 335.5C287.998 327.5 288.298 324.9 288.398 311.5C288.498 294.6 286.798 286.6 280.498 273.5C269.098 249.8 246.098 231.8 220.798 226.6C212.498 224.9 193.598 224.6 186.098 226.1ZM219.498 243C232.898 246.4 241.298 251.3 251.598 261.5C259.398 269.2 261.398 271.9 265.298 280C286.298 323.1 261.098 372.1 213.598 380.7C199.598 383.2 185.598 381 171.498 374C156.398 366.6 146.498 356.3 138.898 340.5C126.798 315.1 131.498 284.8 150.698 264C157.198 257 167.298 249.6 174.498 246.5C188.098 240.8 205.498 239.4 219.498 243Z" fill="#137AB6"/>
<path d="M221.002 264.5C216.902 266.4 212.602 270.3 210.102 274.5C209.102 276.1 204.802 283.7 200.502 291.3L192.802 305.1L189.802 301.3C185.302 295.6 182.002 293.2 176.202 291.4C162.502 287.3 148.702 295.6 146.102 309.6C145.102 314.7 146.002 321.2 148.202 325.4C150.502 329.7 179.202 366 181.802 367.8C191.602 374.6 207.702 372.7 214.302 363.9C215.602 362 225.102 345.7 235.302 327.6C250.502 300.6 254.002 293.7 254.502 289.5C255.702 280.2 252.002 272.1 244.202 266.5C240.402 263.9 238.902 263.5 232.202 263.2C226.902 263.1 223.402 263.5 221.002 264.5ZM236.702 281.6C238.602 283.5 239.102 284.8 238.702 286.8C238.402 288.3 229.902 304.1 219.702 322C200.402 356.2 199.702 357.1 193.802 355.7C192.102 355.2 187.002 349.6 177.902 337.8C160.702 315.8 161.702 317.2 161.802 313.8C161.902 308.3 167.702 304.7 172.402 307.2C173.802 307.9 178.002 312.6 181.902 317.6C186.602 323.8 189.802 327 191.602 327.4C197.402 328.9 199.002 327.1 212.302 303.7C219.202 291.5 225.402 280.9 226.102 280.2C228.302 278.1 233.802 278.8 236.702 281.6Z" fill="#137AB6"/>
</g>
</g>
<defs>
<clipPath id="clip0_363_4177">
<rect width="512" height="512" fill="white"/>
</clipPath>
</defs>
</svg>
