<svg width="512" height="512" viewBox="0 0 512 512" fill="none" xmlns="http://www.w3.org/2000/svg">
<path d="M325.804 32.0991C324.204 32.9991 324.004 34.8991 324.004 49.4991V65.9991H290.704C259.604 65.9991 257.204 66.0991 255.704 67.7991C254.304 69.2991 254.004 71.8991 254.004 81.1991C254.004 94.0991 254.904 95.9991 260.804 95.9991H264.004V112.999V129.999H221.704C181.904 129.999 179.204 130.099 177.704 131.799C176.304 133.299 176.004 135.899 176.004 145.299C176.004 158.799 176.604 159.999 183.604 159.999H188.104L187.804 172.699L187.504 185.299L178.704 187.599C117.904 203.799 69.8042 254.599 57.0042 316.199C55.0042 326.199 53.0042 343.199 53.0042 351.099C53.0042 355.899 53.0042 355.999 48.1042 358.399C31.6042 366.799 27.9042 389.699 40.9042 402.999L45.5042 407.699L41.3042 409.399C34.2042 412.299 24.6042 422.099 20.3042 430.799L16.5042 438.399L16.2042 458.399C15.9042 476.599 16.0042 478.499 17.6042 479.699C20.4042 481.699 426.804 481.599 429.604 479.599C431.204 478.299 431.504 476.699 431.804 466.699C432.304 449.699 430.804 438.999 426.604 430.499C422.604 422.399 415.004 414.399 407.304 410.199L402.004 407.399L405.604 403.899C410.904 398.799 413.204 393.599 413.804 385.499C414.104 380.099 413.704 377.299 412.204 373.299L410.204 367.999H450.904C486.104 367.999 491.904 367.799 493.804 366.399C495.904 364.899 496.004 364.299 496.004 349.499C496.004 334.699 495.904 334.099 493.804 332.599C492.604 331.699 489.604 330.999 487.304 330.999H483.004V320.899C483.004 308.099 482.404 306.999 476.004 306.999H471.004V233.499V159.999H475.404C482.404 159.999 483.004 158.799 483.004 145.099C483.004 134.899 482.704 133.099 481.204 131.699C479.504 130.199 475.004 129.999 437.204 129.999H395.004V112.999V95.9991H398.304C404.104 95.9991 405.004 93.8991 405.004 80.7991C405.004 70.8991 404.704 69.0991 403.204 67.6991C401.504 66.1991 397.704 65.9991 368.804 65.9991H336.204L335.804 49.8991C335.504 35.3991 335.304 33.6991 333.604 32.3991C331.304 30.7991 328.204 30.5991 325.804 32.0991ZM393.004 80.9991V83.9991H329.504H266.004V80.9991V77.9991H329.504H393.004V80.9991ZM383.004 193.699V291.499L379.604 283.799C370.904 263.899 359.804 247.799 343.504 231.499C325.904 213.899 308.004 201.999 286.804 193.799L276.004 189.599V142.799V95.9991H329.504H383.004V193.699ZM264.004 144.999V147.999H226.004H188.004V144.999V141.999H226.004H264.004V144.999ZM471.004 144.999V147.999H433.004H395.004V144.999V141.999H433.004H471.004V144.999ZM264.004 173.099V186.199L260.804 185.599C246.704 182.699 236.304 181.799 218.804 182.199L200.004 182.599V171.299V159.999H232.004H264.004V173.099ZM459.004 233.499V306.999H427.004H395.004V233.499V159.999H427.004H459.004V233.499ZM253.204 196.399C256.904 197.199 263.604 198.899 268.104 200.099L276.304 202.299L270.404 204.999C263.204 208.299 257.704 214.199 256.004 220.799C253.304 230.899 251.104 234.599 244.904 239.399C235.104 246.999 232.704 253.199 237.404 258.699C239.704 261.399 240.204 261.499 248.704 261.499C253.504 261.499 263.104 261.099 270.004 260.599L282.504 259.799L287.504 263.099C295.104 268.299 294.704 269.699 285.304 270.499C277.104 271.199 251.204 276.199 243.004 278.599C232.104 281.799 223.504 293.799 220.504 309.799C219.004 317.399 219.004 318.599 220.504 323.799C224.104 335.999 231.704 347.799 238.204 351.099C242.004 352.999 243.504 353.199 251.604 352.699L260.704 352.099L263.904 359.299C268.904 370.599 269.304 371.299 273.004 373.799C276.404 376.099 276.504 376.299 276.204 381.599C275.604 389.699 278.404 397.499 284.004 402.999L288.504 407.599L283.504 409.999C278.704 412.299 267.504 422.399 265.104 426.499L264.004 428.499L262.904 426.499C260.604 422.399 248.104 411.199 243.804 409.499L239.404 407.699L243.704 403.699C251.304 396.699 254.004 384.299 250.304 373.399C247.904 366.299 240.204 358.899 232.604 356.599C210.104 349.499 189.804 369.599 196.404 392.399C197.704 396.599 199.304 399.299 202.804 402.899L207.504 407.599L202.504 409.999C197.704 412.299 186.504 422.399 184.104 426.499L183.004 428.499L181.904 426.499C179.604 422.399 167.104 411.199 162.904 409.499L158.504 407.699L163.104 402.999C167.804 398.199 171.004 391.199 171.004 385.799C171.004 383.999 172.304 381.299 174.304 378.799C177.404 374.899 177.504 374.599 177.504 364.599C177.504 356.199 177.104 353.799 175.304 350.499C172.604 345.299 164.504 337.699 154.904 331.299C143.604 323.599 137.804 315.899 134.904 304.599C133.304 298.099 134.304 295.599 141.404 288.099C144.904 284.499 150.204 278.099 153.204 273.899C156.304 269.699 161.604 263.899 165.004 260.899C174.404 252.599 175.504 250.399 175.504 238.499C175.504 228.999 175.604 228.499 177.704 228.199C178.904 227.999 183.004 229.299 186.904 230.899C196.604 235.199 201.204 235.699 208.004 233.099C218.804 228.999 229.004 216.899 229.004 208.099C229.004 203.599 226.004 198.599 221.804 195.899L218.504 193.799L232.504 194.399C240.204 194.699 249.504 195.599 253.204 196.399ZM206.104 201.599C212.104 204.699 217.004 207.699 217.004 208.399C217.004 210.399 212.404 215.999 208.304 218.999C202.104 223.599 200.204 223.599 191.204 219.599C181.004 214.999 172.804 214.599 168.204 218.499C164.304 221.699 162.504 228.899 163.304 237.899L163.904 244.499L156.604 251.499C152.504 255.299 146.604 262.099 143.404 266.499C140.204 270.899 134.604 277.699 130.904 281.599C126.204 286.799 124.004 290.099 123.004 293.399C120.504 302.299 123.804 314.899 131.604 326.299C135.404 331.799 138.404 334.599 147.504 341.099C153.604 345.499 159.904 350.399 161.504 351.999C164.104 354.699 167.704 364.699 166.504 365.899C166.204 366.099 164.504 364.999 162.704 363.299C156.304 357.199 151.504 355.499 140.904 355.499C129.504 355.499 127.904 354.599 125.604 346.599C122.304 335.499 114.404 327.299 98.5042 318.599C87.5042 312.499 85.2042 309.699 79.9042 295.399L77.8042 289.799L81.8042 281.599C102.104 240.699 140.804 209.499 185.004 198.499C190.204 197.199 194.604 196.099 194.804 196.099C195.004 195.999 200.104 198.499 206.104 201.599ZM300.204 213.799C319.304 224.099 339.304 241.899 352.204 260.099C359.904 270.799 369.604 289.699 373.404 301.399C374.804 305.699 376.004 309.399 376.004 309.699C376.004 309.899 373.604 307.699 370.704 304.699C362.004 295.699 349.304 289.899 345.504 292.999C344.704 293.699 344.004 295.899 344.004 297.899C344.004 306.799 343.004 309.099 335.904 316.099C328.404 323.599 327.204 326.299 328.904 331.999C329.804 334.999 329.704 336.599 328.504 339.999C327.704 342.299 327.004 346.899 327.004 350.099C327.004 355.599 326.804 356.199 323.904 357.899C320.904 359.699 320.804 359.699 316.704 357.599C313.504 355.999 310.604 355.499 304.504 355.499C295.904 355.499 291.604 357.099 285.204 362.499C282.604 364.699 281.704 364.899 280.004 363.999C278.904 363.399 278.004 362.399 278.004 361.599C278.004 360.899 276.004 356.199 273.504 351.199C268.104 339.999 267.304 339.599 253.904 340.499L244.404 341.199L241.204 337.599C237.804 333.699 234.604 327.999 232.404 321.799C229.304 312.999 236.104 295.599 244.104 291.399C248.504 289.199 272.404 284.099 286.304 282.499C299.904 280.899 303.304 279.199 305.104 272.999C307.404 265.499 301.604 256.599 290.804 250.799C287.004 248.799 285.104 248.499 275.004 248.499C268.704 248.499 260.904 248.899 257.804 249.299L252.104 249.999L257.304 244.799C262.504 239.599 264.604 235.499 267.004 226.099C268.504 220.299 272.504 216.499 279.104 214.599C282.104 213.699 285.904 212.099 287.504 210.999C289.204 209.899 290.704 208.999 291.004 208.999C291.304 208.999 295.404 211.199 300.204 213.799ZM74.1042 312.699C77.3042 319.299 82.2042 323.799 92.0042 328.999C101.204 333.899 111.104 342.399 112.804 346.699C113.404 348.299 114.404 351.299 114.904 353.499C115.504 355.699 117.304 358.999 118.904 360.699C120.504 362.499 121.404 364.199 120.904 364.599C118.704 365.899 114.704 375.799 114.304 380.999C113.504 389.599 116.004 396.999 121.804 402.899L126.504 407.699L122.104 409.499C117.904 411.199 105.404 422.399 103.104 426.499L102.004 428.499L100.904 426.499C98.5042 422.399 87.3042 412.299 82.5042 409.999L77.5042 407.599L82.1042 402.999C97.5042 387.399 89.4042 360.799 67.6042 355.599L64.7042 354.899L65.4042 344.699C66.3042 331.199 70.2042 307.999 71.5042 307.999C71.7042 307.999 72.8042 310.099 74.1042 312.699ZM363.404 314.699C368.104 319.199 372.104 321.999 375.004 322.999C380.204 324.699 380.204 324.899 381.504 344.199L382.304 354.799L378.204 355.899C364.404 359.699 354.904 374.799 357.504 388.699C358.504 394.099 362.404 401.299 366.204 404.599L369.504 407.499L364.504 409.899C359.704 412.299 350.104 420.899 346.604 425.999C345.004 428.399 344.904 428.399 343.804 426.499C341.804 422.699 329.404 411.499 325.204 409.599L320.904 407.699L324.904 403.599C327.004 401.299 329.604 397.899 330.504 395.999C333.104 390.799 333.604 380.399 331.504 374.099L329.804 368.999L333.104 366.299C337.204 362.899 339.004 358.399 339.004 351.999C339.004 349.199 339.704 344.599 340.604 341.899C341.604 338.799 342.004 335.299 341.704 332.799C341.204 328.799 341.404 328.299 347.004 322.299C350.604 318.499 353.404 314.499 354.104 311.999C354.804 309.799 355.504 307.999 355.804 307.999C356.104 307.999 359.504 310.999 363.404 314.699ZM471.004 324.499V330.999H432.104C410.604 330.999 392.904 330.699 392.704 330.199C392.404 329.799 391.904 326.899 391.504 323.699L390.804 317.999H430.904H471.004V324.499ZM485.004 349.499V355.999H439.504H394.004V349.499V342.999H439.504H485.004V349.499ZM69.0042 369.299C74.0042 371.899 78.0042 378.299 78.0042 383.699C78.0042 388.299 74.8042 394.299 70.8042 397.199C68.2042 398.999 66.2042 399.499 61.5042 399.499C54.3042 399.499 50.0042 396.999 47.0042 390.999C44.4042 385.899 44.5042 381.299 47.3042 375.999C49.9042 370.999 56.3042 366.999 61.5042 366.999C63.3042 366.999 66.6042 367.999 69.0042 369.299ZM149.704 369.099C157.904 373.099 161.204 382.799 157.004 390.999C151.004 402.799 134.204 402.899 128.304 390.999C127.004 388.599 126.004 385.199 126.004 383.399C126.004 378.299 130.004 371.899 135.004 369.299C140.404 366.399 144.104 366.399 149.704 369.099ZM231.104 369.299C245.404 376.899 241.304 398.199 225.104 399.799C210.404 401.199 201.604 384.299 211.304 373.299C217.104 366.699 223.704 365.399 231.104 369.299ZM312.104 369.299C326.404 376.899 322.304 398.199 306.104 399.799C291.504 401.199 282.704 384.299 292.304 373.299C298.104 366.699 304.704 365.399 312.104 369.299ZM393.004 369.199C403.704 374.699 405.104 389.299 395.604 396.499C380.204 408.199 360.604 387.799 373.304 373.299C379.004 366.799 385.504 365.399 393.004 369.199ZM76.9042 420.999C83.8042 424.699 88.7042 429.799 92.2042 436.899C94.1042 440.799 94.5042 443.499 94.8042 455.299L95.2042 468.999H60.9042H26.7042L27.3042 456.699C27.9042 442.499 29.8042 436.399 35.5042 429.499C42.3042 421.099 52.0042 416.799 63.0042 417.299C69.3042 417.599 71.6042 418.199 76.9042 420.999ZM157.904 420.999C164.804 424.699 169.804 429.899 173.204 436.899C175.204 440.899 175.504 443.399 175.804 455.199L176.204 468.999H142.604H109.004V456.699C109.004 442.399 110.204 437.999 115.804 430.499C119.504 425.599 127.604 419.799 133.504 417.999C135.204 417.499 139.904 417.199 144.004 417.399C150.304 417.599 152.604 418.199 157.904 420.999ZM238.904 420.999C245.804 424.699 250.804 429.899 254.204 436.899C256.204 440.899 256.504 443.399 256.804 455.199L257.204 468.999H223.604H190.004V456.699C190.004 442.399 191.204 437.999 196.804 430.499C200.504 425.599 208.604 419.799 214.504 417.999C216.204 417.499 220.904 417.199 225.004 417.399C231.304 417.599 233.604 418.199 238.904 420.999ZM319.004 420.399C326.304 424.099 333.404 431.699 336.004 438.599C337.604 442.999 338.004 446.399 338.004 456.499V468.999H304.504H271.004V457.199C271.004 443.099 272.404 437.499 277.804 430.499C281.504 425.599 289.704 419.799 295.504 417.999C297.204 417.499 301.904 417.199 306.004 417.399C311.804 417.599 314.704 418.299 319.004 420.399ZM399.504 420.099C402.304 421.399 406.804 424.699 409.604 427.499C416.804 434.699 419.004 441.099 419.704 456.699L420.304 468.999H386.004H351.804L352.204 455.199C352.504 442.699 352.804 441.099 355.204 436.399C360.104 427.099 365.804 422.099 375.804 418.299C381.404 416.299 393.304 417.099 399.504 420.099Z" fill="#137AB6"/>
<path d="M297.802 131.1C296.202 132 296.002 134.2 296.002 153V174H291.602C288.102 174 286.802 174.5 285.602 176.2C283.402 179.3 283.602 180.7 286.502 183.5L288.902 186H329.502H370.102L372.502 183.5C375.402 180.7 375.602 179.3 373.402 176.2C372.302 174.7 370.902 174 368.402 174H365.002V153.7C365.002 135.2 364.802 133.2 363.202 131.7C361.602 130.2 357.802 130 330.402 130C311.302 130 298.802 130.4 297.802 131.1ZM324.002 158V174H316.002H308.002V158V142H316.002H324.002V158ZM353.002 158V174H344.502H336.002V158V142H344.502H353.002V158Z" fill="#137AB6"/>
<path d="M414.2 170.6C412.1 172 412 172.8 412 184.4C412 200.3 411.7 200 427.1 200C443.3 200 443 200.3 443 184.5C443 168.8 443.2 169 427.5 169C419.1 169 415.9 169.4 414.2 170.6ZM431 184.5C431 187.8 430.8 188 427.5 188C424.2 188 424 187.8 424 184.5C424 181.2 424.2 181 427.5 181C430.8 181 431 181.2 431 184.5Z" fill="#137AB6"/>
<path d="M413.6 210.599C412.3 211.799 412 214.599 412 224.399C412 232.499 412.4 236.999 413.2 237.799C414.9 239.499 440.1 239.499 441.8 237.799C442.6 236.999 443 232.499 443 224.399C443 214.599 442.7 211.799 441.4 210.599C440.2 209.299 437.4 208.999 427.5 208.999C417.6 208.999 414.8 209.299 413.6 210.599ZM431 223.999C431 226.799 430.7 226.999 427.5 226.999C424.3 226.999 424 226.799 424 223.999C424 221.199 424.3 220.999 427.5 220.999C430.7 220.999 431 221.199 431 223.999Z" fill="#137AB6"/>
<path d="M414.2 249.6C412.1 251 412 251.8 412 263.5C412 279.2 411.8 279 427.5 279C443.2 279 443 279.2 443 263.5C443 247.8 443.2 248 427.5 248C419.1 248 415.9 248.4 414.2 249.6ZM431 263.5C431 266.8 430.8 267 427.5 267C424.2 267 424 266.8 424 263.5C424 260.2 424.2 260 427.5 260C430.8 260 431 260.2 431 263.5Z" fill="#137AB6"/>
</svg>
