<svg width="512" height="512" viewBox="0 0 512 512" fill="none" xmlns="http://www.w3.org/2000/svg">
<path d="M75.9985 7.99949C44.3985 12.9995 19.6985 34.6995 10.3985 65.4995C6.7985 77.4995 6.5985 96.1995 9.8985 108.4C17.5985 137.2 39.7985 158.9 68.8985 166.1C80.9985 169.1 100.998 168.5 112.499 164.7C119.599 162.3 130.899 156.6 136.499 152.5C138.499 151.1 139.599 152 157.299 169.8L175.999 188.5L171.499 194.5C165.599 202.4 158.699 216.3 155.299 227.5C152.699 236 152.599 237.6 152.599 256C152.599 274.4 152.699 276 155.299 284.5C158.699 295.7 165.599 309.6 171.499 317.5L175.999 323.5L157.299 342.2C139.599 360 138.499 360.9 136.499 359.5C130.899 355.4 119.599 349.7 112.499 347.3C105.999 345.2 101.998 344.6 91.2985 344.2C74.5985 343.6 66.2985 345.3 52.4985 352C30.8985 362.5 16.1985 380.3 9.79849 403.6C6.49849 415.7 6.7985 434.4 10.3985 446.5C18.7985 474.3 39.7985 494.8 67.4985 502.1C78.7985 505.1 97.2985 505.1 108.398 502.1C136.998 494.4 158.899 472.1 166.099 443.1C169.099 431 168.499 411 164.699 399.5C162.299 392.4 156.599 381.1 152.499 375.5C151.099 373.5 151.999 372.4 169.799 354.7L188.499 336L193.899 340C211.599 353.3 231.898 359.9 255.098 360C279.698 360 300.098 353.5 318.098 340L323.498 336L342.198 354.7C359.898 372.4 360.898 373.5 359.498 375.5C355.498 381.1 350.298 391.2 347.698 398.9C345.098 406.3 344.598 409.4 344.198 420.5C343.898 431.3 344.098 435 345.898 442.2C354.698 479.2 385.898 504 423.698 504C447.198 504 466.698 495.7 482.498 478.9C497.498 462.8 503.898 446.2 503.998 423.4C503.998 409.6 501.698 399.9 495.498 387.5C485.298 366.9 466.098 351.6 443.098 345.9C430.998 342.9 410.998 343.5 399.498 347.3C392.398 349.7 381.098 355.4 375.498 359.5C373.498 360.9 372.398 360 354.698 342.2L335.998 323.5L339.998 318.1C348.998 306.2 355.298 291.7 358.498 276C361.098 263.1 360.198 239.7 356.598 227.5C353.298 216.4 346.498 202.5 340.498 194.5L335.998 188.5L354.698 169.8C372.398 152 373.498 151.1 375.498 152.5C381.098 156.6 392.398 162.3 399.498 164.7C410.998 168.5 430.998 169.1 443.098 166.1C472.098 158.9 494.398 137 502.098 108.4C505.098 97.1995 505.098 78.6995 502.198 67.4995C494.798 39.7995 474.298 18.7995 446.498 10.3995C434.498 6.79949 415.798 6.59949 403.598 9.89949C380.398 16.0995 362.498 30.8995 351.998 52.4995C345.298 66.2995 343.598 74.5995 344.198 91.2995C344.598 102 345.198 106 347.298 112.5C349.698 119.6 355.398 130.9 359.498 136.5C360.898 138.5 359.998 139.6 342.198 157.3L323.498 176L318.098 172C306.198 163 291.698 156.7 275.998 153.5C263.098 150.9 239.698 151.8 227.498 155.4C216.398 158.7 202.499 165.5 194.499 171.5L188.499 176L169.799 157.3C151.999 139.6 151.099 138.5 152.499 136.5C156.599 130.9 162.299 119.6 164.699 112.5C168.499 101 169.099 80.9995 166.099 68.8995C157.299 33.3995 127.698 9.19949 91.0985 7.49949C85.7985 7.29949 78.9985 7.49949 75.9985 7.99949ZM105.998 27.1995C116.798 30.4995 123.899 34.8995 132.499 43.4995C141.299 52.1995 146.499 61.1995 149.499 72.4995C151.499 80.1995 151.399 95.4995 149.399 103.3C147.699 109.8 142.599 120.6 138.699 125.8L136.199 129L135.099 124.3C132.299 113.4 123.899 101.2 115.499 95.9995L112.099 93.8995L114.899 89.9995C118.899 84.4995 120.299 78.3995 119.799 69.2995C119.099 56.8995 113.398 48.2995 102.398 42.8995C86.6985 35.0995 67.7985 40.9995 59.4985 56.0995C54.1985 65.9995 54.8985 81.3995 61.0985 89.9995L63.8985 93.8995L60.5985 95.8995C52.4985 100.9 44.3985 112.2 41.3985 122.5L39.6985 128.4L36.9985 125.2C33.2985 120.7 28.4985 110.6 26.5985 103.3C24.5985 95.5995 24.4985 80.1995 26.4985 72.4995C31.6985 51.9995 48.5985 34.0995 68.8985 27.4995C80.7985 23.5995 93.9985 23.4995 105.998 27.1995ZM439.198 26.5995C459.998 31.7995 476.498 46.7995 483.798 67.1995C487.198 76.7995 487.998 93.2995 485.498 102.9C483.698 109.8 478.698 120.5 474.698 125.8L472.198 129L471.098 124.3C468.298 113.4 459.898 101.2 451.498 95.9995L448.098 93.8995L450.898 89.9995C454.898 84.4995 456.298 78.3995 455.798 69.2995C455.098 56.8995 449.398 48.2995 438.398 42.8995C422.698 35.0995 403.798 40.9995 395.498 56.0995C390.198 65.9995 390.898 81.3995 397.098 89.9995L399.898 93.8995L396.598 95.8995C392.198 98.6995 384.998 106.5 381.698 112C380.298 114.5 378.398 119.3 377.398 122.7L375.698 129L372.898 125.2C368.698 119.4 364.298 110.1 362.498 103C359.998 93.2995 360.798 76.7995 364.198 67.1995C375.298 36.2995 407.598 18.6995 439.198 26.5995ZM95.7985 58.9995C108.798 66.8995 103.198 86.9995 87.9985 86.9995C85.2985 86.9995 82.1985 86.1995 80.1985 84.9995C67.1985 77.0995 72.7985 56.9995 87.9985 56.9995C90.6985 56.9995 93.7985 57.7995 95.7985 58.9995ZM431.798 58.9995C444.798 66.8995 439.198 86.9995 423.998 86.9995C415.498 86.9995 408.998 80.4995 408.998 71.9995C408.998 63.4995 415.498 56.9995 423.998 56.9995C426.698 56.9995 429.798 57.7995 431.798 58.9995ZM97.1985 106C102.898 107.6 110.199 113 113.699 118.3C117.299 123.7 118.599 127.6 119.599 136.6L120.199 142.7L114.699 145.3C98.0985 153.2 77.8985 153.2 61.2985 145.3L55.7985 142.7L56.3985 136.6C57.3985 127.6 58.6985 123.7 62.2985 118.3C65.6985 113.3 73.0985 107.6 78.3985 106.1C82.6985 104.8 92.7985 104.8 97.1985 106ZM433.198 106C438.898 107.6 446.198 113 449.698 118.3C453.298 123.7 454.598 127.6 455.598 136.6L456.198 142.7L450.698 145.3C434.098 153.2 413.898 153.2 397.298 145.3L391.798 142.7L392.398 136.6C393.398 127.6 394.698 123.7 398.298 118.3C401.698 113.3 409.098 107.6 414.398 106.1C418.698 104.8 428.798 104.8 433.198 106ZM277.998 171.5C287.898 174 303.598 182 311.498 188.7C350.698 221.7 353.898 279.7 318.598 316.8C292.798 343.9 249.398 351 216.198 333.5C193.298 321.4 176.899 300.5 170.999 276C168.299 264.4 168.299 247.6 170.999 236C175.299 218.2 186.499 200.3 200.799 188.4C208.399 182.1 224.398 173.9 233.998 171.4C247.098 168 264.598 168 277.998 171.5ZM105.998 363.2C116.798 366.5 123.899 370.9 132.499 379.5C141.299 388.2 146.499 397.2 149.399 408.6C151.399 416.5 151.399 431.5 149.399 439.3C147.699 445.8 142.599 456.6 138.699 461.8L136.199 465L135.099 460.3C132.299 449.4 123.899 437.2 115.499 432L112.099 429.9L114.899 426C118.899 420.5 120.299 414.4 119.799 405.3C119.099 392.9 113.398 384.3 102.398 378.9C86.6985 371.1 67.7985 377 59.4985 392.1C54.1985 402 54.8985 417.4 61.0985 426L63.8985 429.9L60.5985 431.9C56.1985 434.7 48.9985 442.5 45.6985 448C44.2985 450.5 42.3985 455.3 41.3985 458.7L39.6985 465L37.2985 461.7C33.3985 456.5 28.2985 445.8 26.5985 439.3C24.5985 431.5 24.4985 416.2 26.4985 408.5C32.8985 384 54.1985 364.9 79.3985 361C86.4985 359.8 98.2985 360.8 105.998 363.2ZM441.998 363.2C452.798 366.5 459.898 370.9 468.498 379.5C477.298 388.2 482.498 397.2 485.398 408.6C487.398 416.5 487.398 431.5 485.398 439.3C483.698 445.8 478.598 456.6 474.698 461.8L472.198 465L471.098 460.3C468.298 449.4 459.898 437.2 451.498 432L448.098 429.9L450.898 426C454.898 420.5 456.298 414.4 455.798 405.3C455.098 392.9 449.398 384.3 438.398 378.9C422.698 371.1 403.798 377 395.498 392.1C390.198 402 390.898 417.4 397.098 426L399.898 429.9L396.598 431.9C392.198 434.7 384.998 442.5 381.698 448C380.298 450.5 378.398 455.3 377.398 458.7L375.698 465L373.298 461.7C369.398 456.5 364.298 445.8 362.598 439.3C360.598 431.5 360.498 416.2 362.498 408.5C368.898 384 390.198 364.9 415.398 361C422.498 359.8 434.298 360.8 441.998 363.2ZM95.7985 395C108.798 402.9 103.198 423 87.9985 423C79.4985 423 72.9985 416.5 72.9985 408C72.9985 399.5 79.4985 393 87.9985 393C90.6985 393 93.7985 393.8 95.7985 395ZM431.798 395C444.798 402.9 439.198 423 423.998 423C415.498 423 408.998 416.5 408.998 408C408.998 399.5 415.498 393 423.998 393C426.698 393 429.798 393.8 431.798 395ZM97.1985 442C102.898 443.6 110.199 449 113.699 454.3C117.299 459.7 118.599 463.6 119.599 472.6L120.199 478.7L114.699 481.3C98.0985 489.2 77.8985 489.2 61.2985 481.3L55.7985 478.7L56.3985 472.6C57.3985 463.6 58.6985 459.7 62.2985 454.3C65.6985 449.3 73.0985 443.6 78.3985 442.1C82.6985 440.8 92.7985 440.8 97.1985 442ZM433.198 442C438.898 443.6 446.198 449 449.698 454.3C453.298 459.7 454.598 463.6 455.598 472.6L456.198 478.7L450.698 481.3C434.098 489.2 413.898 489.2 397.298 481.3L391.798 478.7L392.398 472.6C393.398 463.6 394.698 459.7 398.298 454.3C401.698 449.3 409.098 443.6 414.398 442.1C418.698 440.8 428.798 440.8 433.198 442Z" fill="#137AB6"/>
<path d="M269.5 193.899C261.5 197.599 256 205.899 256 214.299V218.699L242.5 226.799L229 234.899L225.5 233.499C221 231.499 210.9 231.599 206.2 233.599C197.3 237.299 192 245.599 192 255.999C192 266.399 197.3 274.699 206.2 278.399C210.9 280.399 221 280.499 225.5 278.499L229 277.099L242.5 285.199L256 293.299V297.899C256 304.599 260.1 312.299 265.5 315.999C284.3 328.899 308.8 313.299 304.2 291.299C301.7 279.299 292.5 271.999 280.1 271.999C273.7 271.999 266.1 274.399 264.6 276.799C264.2 277.499 259.2 275.099 252 270.699L240 263.499V255.999V248.499L252 241.299C259.2 236.899 264.2 234.499 264.6 235.199C266.1 237.499 273.7 239.999 279.8 239.999C294.4 239.999 304 230.499 304 215.999C304 205.599 298.7 197.299 289.8 193.599C284.6 191.399 274.5 191.599 269.5 193.899ZM285 210.999C286.1 212.099 287 214.299 287 215.999C287 217.699 286.1 219.899 285 220.999C283.9 222.099 281.7 222.999 280 222.999C278.3 222.999 276.1 222.099 275 220.999C273.9 219.899 273 217.699 273 215.999C273 214.299 273.9 212.099 275 210.999C276.1 209.899 278.3 208.999 280 208.999C281.7 208.999 283.9 209.899 285 210.999ZM221 250.999C222.1 252.099 223 254.299 223 255.999C223 257.699 222.1 259.899 221 260.999C219.9 262.099 217.7 262.999 216 262.999C214.3 262.999 212.1 262.099 211 260.999C209.9 259.899 209 257.699 209 255.999C209 254.299 209.9 252.099 211 250.999C212.1 249.899 214.3 248.999 216 248.999C217.7 248.999 219.9 249.899 221 250.999ZM285 290.999C286.1 292.099 287 294.299 287 295.999C287 297.699 286.1 299.899 285 300.999C283.9 302.099 281.7 302.999 280 302.999C278.3 302.999 276.1 302.099 275 300.999C273.9 299.899 273 297.699 273 295.999C273 294.299 273.9 292.099 275 290.999C276.1 289.899 278.3 288.999 280 288.999C281.7 288.999 283.9 289.899 285 290.999Z" fill="#137AB6"/>
<path d="M247 48.399V56.799H256H265V48.399V39.999H256H247V48.399Z" fill="#137AB6"/>
<path d="M224.997 41.6996C223.597 41.8996 220.097 42.5996 217.197 43.0996L211.797 44.1996L212.497 47.7996C214.397 57.9996 215.197 60.8996 216.297 60.4996C216.997 60.2996 220.797 59.5996 224.897 58.9996L232.197 57.7996L231.597 52.0997C230.597 43.3997 229.897 40.9996 228.697 41.0996C227.997 41.1996 226.397 41.4996 224.997 41.6996Z" fill="#137AB6"/>
<path d="M281.597 42.6993C281.397 43.6993 280.797 47.4993 280.497 51.0993L279.797 57.7993L287.097 58.9993C291.197 59.5993 294.997 60.2993 295.597 60.4993C296.697 60.7993 300.497 45.1993 299.497 44.1993C299.097 43.6993 285.797 41.1993 283.297 41.0993C282.697 40.9993 281.897 41.7993 281.597 42.6993Z" fill="#137AB6"/>
<path d="M186.496 50.8992C177.396 53.9992 177.596 53.5992 181.696 63.5992L184.096 69.7992L192.096 67.1992C196.396 65.6992 199.996 64.0992 199.996 63.4992C199.996 61.5992 195.696 47.9992 195.096 48.0992C194.796 48.0992 190.896 49.3992 186.496 50.8992Z" fill="#137AB6"/>
<path d="M314 54.899C312.9 58.599 312 62.399 312 63.099C312 63.999 314.9 65.499 319.9 67.199L327.8 69.699L330.3 63.099C331.8 59.499 333 55.899 333.2 55.099C333.4 54.199 330.9 52.799 325.5 50.899C321.1 49.399 317.2 48.099 316.8 48.099C316.4 47.999 315.2 51.099 314 54.899Z" fill="#137AB6"/>
<path d="M53 180.5C52 183.2 48 195.2 48 195.6C48 196 61.8 200 63.2 200C64 200 65.6 196.9 67.2 192L69.8 184.1L64.6 182.1C61.8 181.1 58.2 179.7 56.7 179.1C54.2 178.1 53.8 178.3 53 180.5Z" fill="#137AB6"/>
<path d="M449.895 181.1L442.195 184.1L444.795 192C446.195 196.4 447.895 200 448.495 200C449.795 200 463.095 196.2 463.595 195.7C464.095 195.2 459.095 179.7 458.195 178.8C457.795 178.4 454.095 179.5 449.895 181.1Z" fill="#137AB6"/>
<path d="M43.5984 214.2C41.7984 221.9 41.0984 229.5 42.0984 230.1C43.4984 230.9 56.9984 232.3 57.5984 231.7C57.8984 231.5 58.4984 228.4 59.0984 224.9C59.5984 221.4 60.2984 217.8 60.5984 216.9C60.9984 215.6 59.7984 215 54.7984 214.1C51.2984 213.4 47.4984 212.6 46.2984 212.3C44.5984 211.9 43.9984 212.3 43.5984 214.2Z" fill="#137AB6"/>
<path d="M463.497 212.501C462.997 212.701 459.997 213.401 456.897 214.001L451.297 215.101L452.697 223.301C453.497 227.801 454.297 231.601 454.397 231.801C454.797 232.201 469.997 230.301 470.597 229.801C470.897 229.401 469.497 218.901 468.497 214.201C467.997 212.201 466.197 211.501 463.497 212.501Z" fill="#137AB6"/>
<path d="M40 256V265H48.5H57V256V247H48.5H40V256Z" fill="#137AB6"/>
<path d="M455 256V265H463.5H472V256V247H463.5H455V256Z" fill="#137AB6"/>
<path d="M47.6957 281C44.4957 281.4 41.6957 281.9 41.4957 282.2C41.0957 282.6 42.3957 292.9 43.5957 297.9C43.9957 300 44.4957 300.1 47.7957 299.5C57.9957 297.6 60.8957 296.8 60.4957 295.7C60.2957 295 59.5957 291.2 58.9957 287.2C57.6957 279.1 58.5957 279.6 47.6957 281Z" fill="#137AB6"/>
<path d="M452.996 287.1C452.396 291.2 451.696 295 451.496 295.6C451.196 296.6 466.896 300.4 467.796 299.5C468.296 299.1 470.796 285.8 470.896 283.3C470.996 281.8 469.096 281.3 460.896 280.5L454.196 279.8L452.996 287.1Z" fill="#137AB6"/>
<path d="M55.0016 314.199C51.4016 315.299 48.4016 316.299 48.2016 316.399C47.8016 316.799 53.0016 332.399 53.8016 333.199C54.2016 333.599 57.9016 332.499 62.1016 330.899L69.8016 327.899L67.2016 319.999C65.4016 314.499 64.1016 311.999 63.0016 312.099C62.2016 312.099 58.6016 313.099 55.0016 314.199Z" fill="#137AB6"/>
<path d="M444.797 319.9L442.297 327.8L448.897 330.3C452.497 331.8 456.097 333 456.897 333.2C457.797 333.4 459.197 330.9 461.097 325.5C462.597 321.1 463.897 317.2 463.897 316.8C463.997 316 451.297 312 448.897 312C447.997 312 446.497 314.9 444.797 319.9Z" fill="#137AB6"/>
<path d="M181.704 448.9C180.204 452.5 179.004 456.1 178.804 456.9C178.504 458.1 182.804 459.9 193.904 463.5C195.604 464 196.104 463.3 197.904 457.2C199.104 453.4 200.004 449.6 200.004 448.9C200.004 448 197.104 446.5 192.104 444.8L184.204 442.3L181.704 448.9Z" fill="#137AB6"/>
<path d="M319.8 444.899C315.5 446.299 312 447.899 312 448.599C312 449.699 316 463.199 316.4 463.799C316.7 463.999 326.6 460.899 331.5 458.999L334 457.999L331.5 451.499C327.8 441.499 328.6 441.999 319.8 444.899Z" fill="#137AB6"/>
<path d="M213.593 459.299C212.693 463.699 212.193 467.599 212.493 467.799C212.693 468.099 216.593 468.899 221.093 469.699C227.393 470.799 229.493 470.799 229.993 469.899C230.793 468.699 232.393 454.999 231.793 454.499C231.593 454.299 227.793 453.499 223.293 452.699L215.193 451.299L213.593 459.299Z" fill="#137AB6"/>
<path d="M288.5 452.699C284.2 453.499 280.4 454.299 280.2 454.499C279.7 454.899 281.6 469.999 282.2 470.599C282.8 471.099 298.8 468.499 299.6 467.699C300.1 467.199 297.4 451.899 296.7 451.499C296.6 451.399 292.9 451.999 288.5 452.699Z" fill="#137AB6"/>
<path d="M247 463.6V472H256H265V463.6V455.1H256H247V463.6Z" fill="#137AB6"/>
</svg>
