<svg width="512" height="512" viewBox="0 0 512 512" fill="none" xmlns="http://www.w3.org/2000/svg">
<path d="M64.4988 5.50044C36.2988 11.6005 12.2988 35.6005 5.49883 64.2005C3.29883 73.6005 3.49883 91.9005 5.99883 101.6C12.7988 128.3 31.3988 148 57.9988 157.1C66.8988 160.2 68.3988 160.4 81.4988 160.4C97.9988 160.5 104.099 159.2 117.499 152.6C133.399 144.7 144.699 133.4 152.599 117.5C158.999 104.5 160.499 98.0005 160.499 82.5005C160.499 68.5005 159.499 62.9005 154.899 51.9005C145.499 29.1005 125.999 12.3005 101.599 6.00044C92.2988 3.60044 74.0988 3.40044 64.4988 5.50044ZM97.4988 20.6005C108.899 23.3005 117.699 28.5005 126.999 37.9005C136.599 47.6005 140.799 54.9005 143.999 67.6005C147.499 81.3005 145.999 96.0005 139.699 109.3L136.499 116.3L132.599 110C127.699 102.1 119.999 94.5005 112.199 89.9005L106.099 86.3005L108.499 83.0005C117.199 71.2005 115.299 52.3005 104.299 41.9005C98.4988 36.3005 92.5988 33.8005 84.3988 33.2005C70.7988 32.3005 59.7988 38.6005 53.8988 50.5005C51.0988 56.2005 50.6988 58.2005 50.6988 64.3005C50.7988 72.2005 52.6988 78.6005 56.3988 83.5005L58.7988 86.6005L53.0988 89.5005C46.1988 93.1005 34.2988 104.8 31.1988 111.3C29.8988 113.9 28.5988 116 28.3988 116C27.3988 116 21.9988 103.3 20.4988 97.5005C18.4988 89.8005 18.5988 74.5005 20.5988 66.6005C23.1988 56.4005 29.5988 45.4005 37.4988 37.5005C53.5988 21.4005 75.2988 15.3005 97.4988 20.6005ZM90.4988 50.3005C103.599 57.7005 100.799 77.0005 85.9988 81.0005C77.6988 83.2005 68.3988 77.5005 66.1988 68.8005C62.5988 54.6005 77.6988 43.1005 90.4988 50.3005ZM97.9988 99.8005C108.799 104.1 118.799 113.9 122.799 124.4L124.799 129.5L121.599 132.2C116.599 136.6 103.099 142.9 94.9988 144.6C79.3988 147.9 61.7988 144.5 47.9988 135.6C44.2988 133.2 40.8988 130.7 40.4988 130.1C39.2988 128.1 45.6988 116.2 50.9988 110.6C56.2988 105 64.9988 99.7005 71.5988 98.1005C77.8988 96.5005 91.7988 97.4005 97.9988 99.8005Z" fill="#137AB6"/>
<path d="M319.7 5.8C317.4 8.4 317.6 13.6 320.2 17.7C322.2 21 322.2 21.2 320.4 20.7C293.5 12.8 254.9 10.1 225.2 14.1C205.8 16.6 178.3 23.5 174.8 26.7C172.6 28.7 172.5 33.8 174.6 36.8C176.4 39.4 181.6 39.8 187.8 37.6C210.2 29.7 247.7 25.5 274.5 27.9C286.9 29.1 310.6 33.1 315.3 34.9C317.3 35.7 317.1 36 312.9 37.8C310.4 38.9 308 40.6 307.6 41.5C305.6 46.9 308.6 53 313.4 53C316.9 53 345.3 42.1 346.8 40.2C349.6 36.5 348.2 32.4 339.9 19.8C335.5 13 331.1 6.7 330.3 5.7C328.1 3.4 321.8 3.4 319.7 5.8Z" fill="#137AB6"/>
<path d="M410.004 6.10037C373.104 15.7004 349.104 48.9004 351.304 87.0004C352.004 99.2004 353.904 106.3 359.504 117.5C367.304 133.4 378.604 144.7 394.504 152.6C407.904 159.2 414.004 160.5 430.504 160.4C443.604 160.4 445.104 160.2 454.004 157.1C480.904 148 499.204 128.2 506.104 101C507.904 93.8004 508.204 90.7004 507.704 79.0004C507.204 64.8004 505.804 58.7004 500.704 48.0004C490.804 27.2004 469.304 10.1004 447.104 5.40037C437.304 3.40037 419.104 3.70037 410.004 6.10037ZM445.504 20.7004C461.804 24.7004 477.904 37.5004 485.704 52.6004C491.104 63.0004 493.004 70.6004 493.004 82.2004C493.004 92.8004 491.304 100.5 486.904 110L483.904 116.5L480.704 111C476.504 103.6 465.804 93.1004 458.904 89.5004L453.204 86.6004L455.604 83.5004C459.304 78.6004 461.204 72.2004 461.304 64.3004C461.404 54.7004 457.204 45.8004 449.904 40.0004C437.204 30.0004 419.404 30.7004 407.704 41.9004C396.704 52.3004 394.804 71.2004 403.504 83.0004L405.904 86.3004L399.804 89.9004C392.404 94.3004 383.504 102.9 379.504 109.8C377.904 112.7 376.104 115 375.704 115C374.304 115 369.004 102.5 367.504 95.4004C364.504 81.4004 366.504 66.9004 373.204 53.3004C377.104 45.2004 388.604 32.8004 396.404 28.1004C411.304 19.1004 428.704 16.5004 445.504 20.7004ZM436.304 49.4004C446.904 53.8004 449.704 68.3004 441.504 76.4004C427.904 90.0004 405.804 73.3004 415.304 56.5004C419.404 49.3004 428.604 46.1004 436.304 49.4004ZM448.404 101.3C453.204 103.7 457.404 106.8 460.904 110.5C466.304 116.2 472.704 128.1 471.504 130.1C469.904 132.7 456.704 140.1 449.404 142.6C430.204 149.1 407.804 145.5 391.904 133.3L387.104 129.7L389.104 124.7C394.004 112.3 403.804 103.2 416.804 98.9004C421.204 97.4004 424.604 97.1004 431.804 97.4004C440.004 97.7004 441.904 98.1004 448.404 101.3Z" fill="#137AB6"/>
<path d="M245.5 74.2003C244.4 74.8003 241.6 77.1003 239.3 79.2003L235.2 83.2003L230.8 80.3003C218.9 72.1003 205.6 73.3003 200.8 83.0003C197 90.5003 199.2 102.7 206.9 117.6C210.3 124.2 211.3 127.1 210.4 127.4C208.1 128.3 205 135.8 205 140.3C205 143.3 205.8 145.8 207.3 148.2L209.7 151.6L202.5 161.6L195.4 171.5L167.9 172C141.6 172.5 140.4 172.6 137.4 174.7C135.7 175.9 133.4 178.2 132.4 179.7C130.6 182.4 130.5 185.8 130.5 262.5V342.5L132.9 345.9C137.9 352.8 138.7 353 183.8 353H224V359.9V366.8L211.8 367.2C198.4 367.7 195.2 368.7 189.2 374.4C184.1 379.1 181.7 384.5 181.2 392.5C180.8 398.5 181.1 399.9 182.8 402L184.8 404.5H256H327.2L329.2 402C330.9 399.9 331.2 398.5 330.8 392.5C330.3 384.5 327.9 379.1 322.8 374.4C316.8 368.7 313.6 367.7 300.3 367.2L288 366.8V359.9V353H328.3C373.3 353 374.1 352.8 379.1 345.9L381.5 342.5V262.5V182.5L379.3 179.4C374.4 172.5 374.7 172.6 340.6 172L309.8 171.5L302.5 161.6L295.3 151.7L297.6 148.2C301.5 142.4 300.1 130.9 295 127.8C293.6 126.9 293.9 125.9 297.7 118.6C305.7 103.4 308.1 90.6003 304.2 83.0003C299.4 73.3003 286.1 72.1003 274.2 80.3003L269.8 83.2003L265.7 79.2003C263.4 77.0003 260.5 74.7003 259.3 74.1003C256.5 72.7003 248.1 72.7003 245.5 74.2003ZM258.5 93.5003C263.4 98.8003 263.8 99.0003 268.6 99.0003C273 99.0003 274.7 98.3003 280.6 94.5003C284.3 92.0003 288.3 90.0003 289.3 90.0003C291.1 90.0003 291.2 90.5003 290.6 94.7003C290 99.6003 284.5 112.1 279.6 119.8L277 124H252.5H228L225.3 119.7C220.7 112.5 215 99.4003 214.4 94.6003C213.8 90.5003 213.9 90.0003 215.7 90.0003C216.7 90.0003 220.7 92.0003 224.4 94.5003C230.3 98.3003 232 99.0003 236.4 99.0003C241.3 99.0003 241.7 98.8003 246.5 93.5003C249.2 90.5003 251.9 88.0003 252.4 88.0003C252.9 88.0003 255.6 90.5003 258.5 93.5003ZM285 140C285 140.6 273.5 141 252.5 141C231.5 141 220 140.6 220 140C220 139.4 231.5 139 252.5 139C273.5 139 285 139.4 285 140ZM281.7 158.2C282.3 159.5 286.7 165.9 291.6 172.5C311.5 199.6 315.8 207.1 319.1 219.8C321.4 229 321.6 244.1 319.5 252.3C312.2 280.2 282.8 298.6 248.5 296.7C216.2 294.8 192.2 277.9 185.6 252.3C183.6 244.7 183.6 230.7 185.5 221.5C187.4 212.5 194.2 198.9 202.5 187.5C206.2 182.5 212.8 173.4 217.2 167.2L225.2 156H252.9H280.7L281.7 158.2ZM179 196.2C171.2 211.1 169.5 218.5 169.5 237.5C169.6 252.2 169.8 254.1 172.2 261.1C181 286.2 201.4 303.2 230.5 309.8C240.1 312 264.9 312 274.5 309.8C303.4 303.2 323.7 286.5 332.4 262.1C335.4 253.8 335.5 252.9 335.5 237.5C335.5 218.2 334.4 213.1 326.6 197.7L321.3 187L343.9 187.2L366.5 187.5V262.5V337.5H256H145.5L145.2 263.5C145.1 222.8 145.2 188.9 145.5 188.2C145.8 187.3 150.6 187 164.9 187H183.8L179 196.2ZM273 360V367H256H239V360V353H256H273V360ZM309.5 383.4C312.4 384.6 315 387.5 315 389.4C315 389.7 288.5 390 256 390C223.6 390 197 389.7 197 389.4C197 387.6 199.6 384.6 202.3 383.5C207.1 381.4 304.5 381.4 309.5 383.4Z" fill="#137AB6"/>
<path d="M242.603 181.2C228.203 183.9 213.003 195.9 207.303 208.9C203.103 218.7 201.803 232 204.103 242C209.003 263.2 230.303 280 252.503 280C274.303 280 295.103 264.2 300.503 243.5C302.203 236.7 302.403 224.6 300.903 218C295.103 192.9 268.703 176.2 242.603 181.2ZM267.703 199C274.603 202.4 280.503 208.5 284.103 215.8C287.503 222.6 287.503 237.4 284.203 244.2C280.503 251.6 274.603 257.6 267.203 261.2C261.303 264.1 259.603 264.5 252.503 264.5C245.403 264.5 243.703 264.1 237.803 261.2C230.403 257.6 224.603 251.7 220.903 244.2C218.903 240.3 218.503 237.9 218.503 230C218.503 221.1 218.703 220.1 221.903 214.2C231.203 197 250.603 190.6 267.703 199Z" fill="#137AB6"/>
<path d="M257.5 220L245.3 232.1L242.5 226.9C241 224 238.9 220.9 237.9 219.9C235.5 217.5 230.9 217.5 227.9 219.9C224 223 224.9 227.2 232 239.3C238.1 249.8 240.2 252 244.7 252C246.7 252 277.8 221.4 279.1 218.3C280.9 213.7 276.6 208 271.3 208C270.4 208 264.2 213.4 257.5 220Z" fill="#137AB6"/>
<path d="M19.4004 172.3C3.70041 182.9 4.00041 182.6 4.00041 187C4.00041 193.8 10.7004 196.2 17.7004 191.8C21.0004 189.8 21.2004 189.8 20.6004 191.6C18.9004 197.1 15.9004 211.8 14.4004 222C12.2004 236.3 11.9004 272 13.9004 286C16.8004 307.1 23.4004 333.5 26.8004 337.2C28.7004 339.4 33.8004 339.5 36.8004 337.4C39.8004 335.4 39.7004 331 36.5004 320.4C29.2004 296.7 25.9004 265.8 27.8004 240.7C28.8004 226.7 32.8004 202.2 34.9004 196.7C35.7004 194.7 36.0004 194.9 37.8004 199.1C38.9004 201.6 40.6004 204 41.5004 204.4C46.9004 206.4 53.0004 203.4 53.0004 198.6C53.0004 195.1 42.1004 166.7 40.2004 165.2C36.4004 162.3 31.9004 163.9 19.4004 172.3Z" fill="#137AB6"/>
<path d="M475.2 174.6C472.2 176.7 472.3 180.7 475.9 193.2C483.2 218.7 486.2 246.2 484.2 271.3C483.2 285.3 479.2 309.8 477.1 315.3C476.3 317.3 476 317.1 474.2 312.9C473.1 310.4 471.4 308 470.5 307.6C465.1 305.6 459 308.6 459 313.4C459 316.9 469.9 345.3 471.8 346.7C475.5 349.6 479.6 348.2 492.2 339.9C507.9 329.6 508 329.5 508 325C508 318.2 501.3 315.8 494.3 320.2C491 322.2 490.8 322.2 491.3 320.4C499.2 293.4 501.9 255 498 225.3C495.4 205.8 488.5 178.3 485.3 174.7C483.3 172.6 478.2 172.5 475.2 174.6Z" fill="#137AB6"/>
<path d="M71.4988 351.6C70.3988 351.8 67.0988 352.5 64.1988 353.1C36.7988 358.6 13.3988 381.7 5.99883 410.4C3.49883 420.1 3.29883 438.4 5.49883 447.8C10.6988 470 26.2988 489.6 46.8988 500C57.8988 505.6 64.1988 507.1 78.9988 507.7C90.6988 508.2 93.7988 507.9 100.999 506.1C128.199 499.2 147.999 480.9 157.099 454C160.199 445.1 160.399 443.6 160.399 430.5C160.499 414 159.199 407.9 152.599 394.5C144.699 378.6 133.399 367.3 117.499 359.5C112.599 357 105.799 354.3 102.499 353.4C96.6988 351.9 75.5988 350.6 71.4988 351.6ZM97.3988 368C125.799 375.2 145.899 400.9 145.999 430.1C145.999 433.7 145.099 440.1 144.099 444.3C142.199 451.6 137.299 463 136.099 463C135.799 463 134.399 460.9 132.999 458.3C129.299 451.3 120.099 442 112.599 437.6C106.699 434.1 106.099 433.5 107.399 432.1C113.199 425.4 115.699 411.5 112.599 402.2C109.099 391.9 101.399 384.6 90.4988 381.5C68.5988 375.1 46.6988 394.9 50.8988 417.4C51.8988 423 55.0988 430.3 56.9988 431.5C59.1988 432.8 57.7988 434.6 52.3988 437.4C45.2988 441.1 35.0988 451.3 31.3988 458.5L28.4988 464L25.1988 457.5C20.8988 448.9 18.9988 440.4 18.9988 429.5C18.9988 418.7 20.7988 411.1 25.5988 401.2C29.6988 392.7 39.2988 382 47.4988 376.5C53.1988 372.7 63.7988 368.4 70.4988 367C77.9988 365.5 89.3988 365.9 97.3988 368ZM88.4988 396.9C93.0988 399 96.3988 402.3 97.8988 406.3C100.899 414.1 97.1988 423.3 89.6988 426.9C84.2988 429.5 79.9988 429.6 75.0988 427C64.3988 421.6 62.2988 408.8 70.4988 400.5C75.9988 395.1 81.9988 393.9 88.4988 396.9ZM97.3988 447.1C108.799 451.3 119.999 462.7 123.199 473.2C124.399 477.2 124.299 477.3 120.999 480.2C116.299 484.1 104.899 489.6 97.4988 491.5C89.5988 493.5 74.7988 493.5 66.8988 491.5C56.8988 488.9 40.0988 479.5 39.9988 476.5C39.9988 473.9 46.1988 463 50.3988 458.3C55.5988 452.6 66.0988 446.7 73.9988 445C80.2988 443.7 90.9988 444.6 97.3988 447.1Z" fill="#137AB6"/>
<path d="M413.999 352.4C395.999 356.3 380.299 365.7 368.799 379.6C362.999 386.6 355.699 400.9 353.299 410C351.099 418.3 350.899 440 352.899 448C360.399 477.3 381.799 498.7 410.999 506.1C418.199 507.9 421.299 508.2 432.999 507.7C447.799 507.1 453.999 505.6 465.099 500C479.999 492.5 492.499 480 499.999 465.1C505.599 454 507.099 447.8 507.699 433C508.199 421.3 507.899 418.2 506.099 411C498.899 382.6 477.999 361.1 450.099 353.5C442.099 351.3 422.099 350.7 413.999 352.4ZM450.699 369.8C461.199 373.7 468.199 378.4 476.299 387C487.299 398.6 492.999 413 492.999 429.2C492.999 440.4 491.699 446.7 487.299 456.3L483.699 464L480.399 458.3C478.599 455.1 474.899 450.1 472.199 447.3C467.399 442.3 457.199 435 454.999 435C453.699 435 453.699 432.3 454.999 431.5C456.799 430.4 459.999 423.1 460.999 417.8C463.699 404 455.699 388.7 442.899 383.1C425.499 375.4 405.399 384.3 399.399 402.2C396.299 411.5 398.799 425.4 404.599 432.1C405.899 433.5 405.299 434.1 399.399 437.6C391.899 442 382.699 451.3 378.999 458.3C377.599 460.9 376.199 463 375.899 463C375.099 463 371.199 455 368.899 448.4C365.899 439.8 365.299 426.2 367.499 416.6C372.599 393.3 390.899 374.3 414.199 368C425.099 365 439.599 365.7 450.699 369.8ZM434.299 396.1C439.199 397.4 444.599 403 445.999 408C447.299 412.8 446.099 418.4 442.899 422.4C440.199 425.8 433.899 429 429.899 429C424.499 429 418.299 425.3 415.499 420.6C410.199 411.5 413.599 401.5 423.499 396.9C428.199 394.7 429.199 394.7 434.299 396.1ZM437.099 445C445.699 446.6 456.199 452.3 461.599 458.3C465.799 463 471.999 473.9 471.999 476.5C471.899 479.5 455.099 488.9 445.099 491.5C437.199 493.5 422.299 493.5 414.499 491.5C402.699 488.4 387.999 479.9 387.999 476.2C387.999 472.6 394.299 461.8 399.199 456.9C409.499 446.9 423.499 442.5 437.099 445Z" fill="#137AB6"/>
<path d="M181.002 464.6C173.002 467.6 165.902 470.8 165.302 471.7C162.402 475.5 163.802 479.6 172.102 492.2C182.402 507.9 182.502 508 187.002 508C193.802 508 196.202 501.3 191.802 494.3C189.802 491 189.802 490.8 191.602 491.3C231.602 503 283.002 502.4 325.502 489.8C336.902 486.4 339.002 485 339.002 480.6C339.002 472.6 334.302 471.3 320.402 475.5C296.702 482.8 265.802 486.1 240.702 484.2C226.702 483.2 202.202 479.2 196.702 477.1C194.702 476.3 194.902 476 199.102 474.2C201.602 473.1 204.002 471.4 204.402 470.5C206.502 464.9 203.402 458.9 198.302 459.1C196.702 459.1 189.002 461.6 181.002 464.6Z" fill="#137AB6"/>
</svg>
