<svg width="512" height="512" viewBox="0 0 512 512" fill="none" xmlns="http://www.w3.org/2000/svg">
<path d="M198.497 2.89951C196.897 3.89951 183.497 16.8995 168.797 31.5995C146.997 53.6995 141.997 59.1995 140.997 62.4995C140.197 65.3995 139.997 98.3995 140.197 183.6L140.497 300.6L143.297 304.799C148.497 312.699 149.997 313 181.997 313H209.997V333.799V354.6L195.097 364.299C186.997 369.599 180.097 374 179.697 374C179.397 374 179.397 372.2 179.697 370.1C180.497 364 179.397 361.1 175.497 359.5C171.497 357.8 166.597 359 164.897 362.2C163.497 364.7 156.997 391.5 156.997 394.5C156.997 395.8 157.997 398.1 159.297 399.5C161.397 402.1 162.397 402.299 177.497 403.799C186.297 404.699 194.697 405 196.197 404.7C199.697 403.8 202.397 398.8 201.497 395.1C200.497 391.3 198.197 389.1 194.297 388.4C190.797 387.7 190.997 387.699 207.597 376.799C216.897 370.699 224.997 365.1 225.697 364.2C226.597 362.9 226.897 356 226.997 337.7V313H255.997H284.997V337.7C285.097 356 285.397 362.9 286.297 364.2C286.997 365.1 295.097 370.699 304.397 376.799C320.997 387.699 321.197 387.7 317.697 388.4C313.797 389.1 311.497 391.3 310.497 395.1C309.597 398.8 312.297 403.8 315.797 404.7C317.297 405 325.697 404.699 334.497 403.799C349.597 402.299 350.597 402.1 352.697 399.5C353.997 398.1 354.997 395.8 354.997 394.5C354.997 391.5 348.497 364.7 347.097 362.2C345.397 359 340.497 357.8 336.497 359.5C332.597 361.1 331.497 364 332.297 370.1C332.597 372.2 332.597 374 332.297 374C331.897 374 324.997 369.599 316.897 364.299L301.997 354.6V333.799V313H329.997C361.997 313 363.497 312.699 368.697 304.799L371.497 300.6L371.797 158.2C371.997 20.3995 371.997 15.6995 370.097 11.5995C369.097 9.19951 366.497 5.99951 364.397 4.39951L360.697 1.49951L281.097 1.19951C204.397 0.999512 201.397 1.09951 198.497 2.89951ZM353.897 18.3995C354.697 19.3995 354.897 56.4995 354.797 157.6L354.497 295.5H255.997H157.497L157.197 183.7L156.997 71.9995H177.397C198.597 71.9995 201.697 71.4995 205.897 67.6995C211.197 62.7995 211.997 59.1995 211.997 37.1995V16.9995H282.397C340.397 16.9995 352.997 17.1995 353.897 18.3995ZM194.997 42.4995V54.9995H182.297H169.497L181.997 42.4995C188.897 35.5995 194.597 29.9995 194.697 29.9995C194.897 29.9995 194.997 35.5995 194.997 42.4995Z" fill="#137AB6"/>
<path d="M228.6 40.1C226.5 41.7 226 43 226 46.5C226 50 226.5 51.3 228.6 52.9C231.2 55 232.2 55 283.1 55C311.5 55 335.6 54.7 336.5 54.4C338.4 53.6 341 48.9 341 46C341 44.8 339.7 42.5 338.1 40.9L335.2 38H283.2C232.2 38 231.2 38 228.6 40.1Z" fill="#137AB6"/>
<path d="M228.6 72.1C226.5 73.7 226 75 226 78.5C226 82 226.5 83.3 228.6 84.9C231.2 87 232.2 87 282.6 87C318.1 87 334.7 86.7 336.3 85.9C338.8 84.8 341 81.2 341 78.5C341 75.8 338.8 72.2 336.3 71.1C334.7 70.3 318.1 70 282.6 70C232.2 70 231.2 70 228.6 72.1Z" fill="#137AB6"/>
<path d="M186.106 79.6C184.906 81.1 184.006 83.6 184.006 85.1C184.006 86.7 183.606 88 183.006 88C181.006 88 174.606 94.6 172.906 98.5C168.706 107.7 172.506 119.1 181.406 123.7C183.106 124.6 187.006 125.6 190.006 125.9C195.006 126.5 195.506 126.7 195.506 129C195.506 132.4 190.706 133.1 187.506 130C184.006 126.7 178.906 126.3 175.706 129.1C170.006 134.1 172.106 142.1 180.306 146.3C183.106 147.7 184.006 148.8 184.006 150.8C184.106 154.2 185.906 156.6 189.406 158C194.906 160.1 201.006 155.8 201.006 149.9C201.006 148.3 201.406 147 202.006 147C203.806 147 210.306 140.5 211.606 137.3C212.406 135.5 213.006 131.8 213.006 129C213.006 126.2 212.406 122.5 211.606 120.7C209.006 114.3 200.506 109 192.906 109C191.406 109 189.606 108.3 188.906 107.4C187.806 106 187.906 105.6 189.506 104.4C192.206 102.4 194.506 102.7 197.806 105.5C203.906 110.6 212.006 107.3 212.006 99.8C212.006 96.3 211.406 95.1 208.006 91.8C205.706 89.7 203.306 88 202.606 88C201.806 88 201.006 86.4 200.606 84.1C199.906 79.3 197.006 77 191.906 77C189.006 77 187.606 77.6 186.106 79.6Z" fill="#137AB6"/>
<path d="M228.6 104.1C226.5 105.7 226 107 226 110.5C226 114 226.5 115.3 228.6 116.9C231.2 119 232.2 119 283.2 119H335.2L338.1 116.1C339.7 114.5 341 112.2 341 111C341 108.1 338.4 103.4 336.5 102.6C335.6 102.3 311.5 102 283.1 102C232.2 102 231.2 102 228.6 104.1Z" fill="#137AB6"/>
<path d="M228.201 136.3C225.401 139.2 225.301 144.9 227.901 148.1L229.801 150.5L282.501 150.8L335.101 151.1L338.201 148C340.801 145.3 341.201 144.4 340.701 141.2C339.401 133.7 342.101 134 283.101 134H230.301L228.201 136.3Z" fill="#137AB6"/>
<path d="M174.098 167.7C172.898 168.7 171.698 171.1 171.398 173.1C170.898 176 171.298 177.2 173.298 179.6L175.798 182.5H255.998H336.198L338.698 179.6C340.698 177.2 341.098 176 340.598 173.1C339.398 165.5 345.198 166 255.998 166C181.498 166 176.098 166.1 174.098 167.7Z" fill="#137AB6"/>
<path d="M172.999 200.7C170.499 203.9 170.799 209 173.599 212.1C175.199 213.9 178.399 214 255.699 214H336.099L338.499 211.5C341.599 208.5 341.699 204.2 338.899 200.6L336.899 198H255.999H175.099L172.999 200.7Z" fill="#137AB6"/>
<path d="M224 232.2C219.7 233.4 216.1 235.9 208.4 243C202 249 198.5 250.4 187.6 251.9C180.8 252.8 178 255.3 178 260.2C178 264.1 182.8 269 186.7 269C192.4 269 202.7 266.8 207.6 264.6C210.4 263.3 216.4 259.1 220.9 255.1C231.9 245.6 233.6 245.7 236 256C239.4 270.5 243.8 276.9 252.2 279.1C261.4 281.6 268.6 278.5 284 265.2C287.4 262.4 290.5 260 291 260C291.4 260 293.8 261.6 296.2 263.6C298.5 265.6 301.9 267.9 303.7 268.6C307.4 270.2 319.5 270.4 325.5 269C333.3 267.2 336.5 259.4 331.5 254.4C329 252 328.7 251.9 319.7 252.6L310.5 253.2L305.5 249.1C294.3 239.9 284.7 241.2 270.5 254C266.6 257.4 262 260.9 260.2 261.8C256.3 263.7 255.7 263.2 253.9 256.5C249.6 240 247.7 236.6 241 233.2C236.3 230.8 230.1 230.4 224 232.2Z" fill="#137AB6"/>
<path d="M80 315.5C72.3 317.6 63.3 322.3 57.7 327.1C46.7 336.6 39 353.6 39 368.4C39 375.1 41.8 386.1 45.1 392.8C48.3 399.4 57 409.6 61.4 411.9C62.8 412.7 64 413.6 64 414C64 414.4 60.9 415.9 57.2 417.4C42.8 423 25.4 437.1 16.8 450.1C7.2 464.6 1 482.6 1 496.2C1 503 1.1 503.3 4.9 507.1L8.8 511H92.6C174 511 176.6 510.9 179.7 509C181.5 508 183.6 505.7 184.5 504.1C189.4 494.5 182.3 468.1 169.9 449.9C160.8 436.5 144.2 423 129.8 417.4C123.9 415 121.1 413 123.9 413C125.7 413 135 403.8 138.6 398.3C144.7 389.1 147.3 380.2 147.4 368.5C147.4 358.2 146 352.1 141.7 343.5C136.1 332 124.5 321.8 112.1 317.2C103.6 314.1 88.2 313.3 80 315.5ZM108.2 334.3C119.9 339.6 128 350.3 130.2 363.1C132.7 378.2 123.7 394.6 109 401.8C104.1 404.2 102.3 404.5 93.5 404.5C84.6 404.5 82.9 404.2 77.8 401.7C67 396.4 59.5 386.6 57 374.6C53.4 357 64.9 338.4 83.3 332.4C89.9 330.2 101.4 331.1 108.2 334.3ZM114.5 430C127.8 434.2 136.7 439.6 146.5 449.5C151.5 454.5 157.2 461.4 159.3 465C163.1 471.6 167.5 483.7 168.6 491L169.3 495H93.6C22.3 495 18 494.9 18 493.2C18 489.5 21.1 478.7 23.9 472.6C34.2 449.9 55.1 433.3 80.1 428C87.7 426.4 106.6 427.5 114.5 430Z" fill="#137AB6"/>
<path d="M409.001 314.7C397.301 316.6 383.301 325 376.301 334.1C367.801 345.3 364.601 354.7 364.601 368.5C364.701 380.2 367.301 389.1 373.401 398.3C377.001 403.8 386.301 413 388.101 413C390.901 413 388.101 415 382.201 417.4C367.801 423 351.201 436.5 342.101 449.9C329.701 468.1 322.601 494.5 327.501 504.1C328.401 505.7 330.501 508 332.301 509C335.401 510.9 338.001 511 419.401 511H503.201L507.101 507.1C510.901 503.3 511.001 503 511.001 496.2C511.001 474.6 496.701 446.6 478.101 431.5C470.301 425.2 459.601 418.8 453.001 416.4L448.301 414.7L456.001 407.1C467.001 396.2 473.001 382.5 473.001 368C473.001 354.7 466.401 339.4 456.501 329.5C444.601 317.6 426.101 311.8 409.001 314.7ZM434.401 334.9C449.501 342.3 458.201 359 455.001 374.6C452.501 386.6 445.001 396.4 434.201 401.7C429.101 404.2 427.401 404.5 418.501 404.5C409.601 404.5 407.901 404.2 403.001 401.8C388.101 394.5 378.801 376.9 381.901 361.8C384.801 347.9 394.701 336.8 408.301 332.4C410.901 331.6 415.501 331.1 420.201 331.3C426.401 331.6 429.101 332.3 434.401 334.9ZM439.501 430C461.201 436.8 478.901 452.4 488.101 472.6C490.901 478.7 494.001 489.5 494.001 493.2C494.001 494.9 489.701 495 418.401 495H342.801L343.501 490.3C344.501 483.6 349.101 471.1 353.101 464.3C355.001 461.1 360.601 454.4 365.501 449.5C376.901 438 389.101 431.4 405.101 428C412.701 426.4 431.601 427.5 439.501 430Z" fill="#137AB6"/>
</svg>
