<svg width="512" height="512" viewBox="0 0 512 512" fill="none" xmlns="http://www.w3.org/2000/svg">
<g clip-path="url(#clip0_363_4208)">
<mask id="mask0_363_4208" style="mask-type:luminance" maskUnits="userSpaceOnUse" x="0" y="0" width="512" height="512">
<path d="M512 0H0V512H512V0Z" fill="white"/>
</mask>
<g mask="url(#mask0_363_4208)">
<path d="M2 1.99969C0 3.99969 0 5.2997 0 248C0 490.7 0 492 2 494C4 496 5.3 496 246 496C486.7 496 488 496 490 494C492 492 492 490.7 492 434V376H496C498.7 376 500.7 375.3 502 374C503.9 372.1 504 370.7 504 352.2V332.3L486 308.4L468 284.5V260.2C468 237.4 467.9 235.9 466 234C464.1 232.1 462.7 232 416 232H368V210.3V188.7L373.9 194.3C379.1 199.3 380.3 200 383.9 200C386.7 200 388.7 199.3 390 198C391.9 196.1 392 194.7 392 158.2V120.5L398.2 116C409.8 107.5 420 91.8997 422.9 78.1997C424.5 70.4997 424.3 54.7997 422.4 47.5997C418.1 30.8997 405.6 15.0997 390.5 7.29969C375.2 -0.600308 391.8 -0.000308692 187.1 -0.000308692C5.3 -0.000308692 4 -0.000308752 2 1.99969ZM311 22.0997C304.8 29.4997 299.5 39.8997 297.5 48.1997C295.5 56.5997 295.6 72.5997 297.6 80.3997C301.1 94.0997 311.2 108.8 322.4 116.5L328 120.3V158.2C328 194.7 328.1 196.1 330 198C331.3 199.3 333.3 200 336.1 200C339.7 200 340.9 199.3 346.1 194.3L352 188.7V210.3V232H332C313.3 232 311.9 232.1 310 234C308.1 235.9 308 237.4 308 260.2V284.5L290 308.4L272 332.3V352.2C272 370.7 272.1 372.1 274 374C275.3 375.3 277.3 376 280 376H284V428V480H150H16V248V15.9997H166H316.1L311 22.0997ZM373.9 18.8997C382.3 21.4997 387.6 24.7997 394.1 31.6997C403.1 41.0997 407 50.7997 407 63.9997C407 77.3997 402.4 88.3997 392.8 97.5997C383.2 106.9 373.2 111 360 111C347.2 111 337.2 107.1 328.4 98.7997C317.9 88.8997 313 77.7997 313 64.0997C313 47.4997 321 32.9997 335.1 23.8997C345.8 17.0997 361.5 14.9997 373.9 18.8997ZM376 149.4V171.3L370.1 165.7C364.8 160.6 363.7 160 360 160C356.3 160 355.2 160.6 349.9 165.7L344 171.3V149.4V127.5H360H376V149.4ZM452 264V280H388H324V264V248H388H452V264ZM353 296.7C353 297.2 351.2 304.2 349.2 312.5L345.4 327.5L321.1 327.8L296.8 328L299.7 324.2C301.2 322.1 306.6 314.9 311.5 308.2L320.5 296.1L336.8 296C345.7 296 353 296.3 353 296.7ZM409.2 311.5C411.2 319.7 413 326.8 413 327.2C413 327.7 401.8 328 388 328C374.3 328 363 327.8 363 327.4C363 326.8 369.9 299 370.5 297.2C370.9 296.2 374.9 296 388.2 296.2L405.4 296.5L409.2 311.5ZM464.5 308.2C469.5 314.9 474.8 322.1 476.3 324.2L479.2 328L454.9 327.8L430.6 327.5L426.8 312.5C424.8 304.2 423 297.2 423 296.7C423 296.3 430.3 296 439.3 296L455.5 296.1L464.5 308.2ZM344 352V360H316H288V352V344H316H344V352ZM416 352V360H388H360V352V344H388H416V352ZM488 352V360H460H432V352V344H460H488V352ZM476 388V400H458C441.3 400 439.9 400.1 438 402C436.1 403.9 436 405.3 436 428C436 450.7 436.1 452.1 438 454C439.9 455.9 441.3 456 458 456H476V468V480H448H420V442C420 405.3 419.9 403.9 418 402C416.1 400.1 414.7 400 388 400C361.3 400 359.9 400.1 358 402C356.1 403.9 356 405.3 356 442V480H328H300V468V456H318C334.7 456 336.1 455.9 338 454C339.9 452.1 340 450.7 340 428C340 405.3 339.9 403.9 338 402C336.1 400.1 334.7 400 318 400H300V388V376H388H476V388ZM324 428V440H312H300V428V416H312H324V428ZM404 448V480H388H372V448V416H388H404V448ZM476 428V440H464H452V428V416H464H476V428Z" fill="#137AB6"/>
<path d="M42 42C40.7 43.3 40 45.3 40 48C40 50.7 40.7 52.7 42 54C43.9 55.9 45.3 56 96 56C146.7 56 148.1 55.9 150 54C151.3 52.7 152 50.7 152 48C152 45.3 151.3 43.3 150 42C148.1 40.1 146.7 40 96 40C45.3 40 43.9 40.1 42 42Z" fill="#137AB6"/>
<path d="M42 82C40.7 83.3 40 85.3 40 88C40 90.7 40.7 92.7 42 94C44 96 45.3 96 148 96C250.7 96 252 96 254 94C255.3 92.7 256 90.7 256 88C256 85.3 255.3 83.3 254 82C252 80 250.7 80 148 80C45.3 80 44 80 42 82Z" fill="#137AB6"/>
<path d="M42 122C40.7 123.3 40 125.3 40 128C40 130.7 40.7 132.7 42 134C44 136 45.3 136 148 136C250.7 136 252 136 254 134C255.3 132.7 256 130.7 256 128C256 125.3 255.3 123.3 254 122C252 120 250.7 120 148 120C45.3 120 44 120 42 122Z" fill="#137AB6"/>
<path d="M42 162C40.7 163.3 40 165.3 40 168C40 170.7 40.7 172.7 42 174C44 176 45.3 176 148 176C250.7 176 252 176 254 174C255.3 172.7 256 170.7 256 168C256 165.3 255.3 163.3 254 162C252 160 250.7 160 148 160C45.3 160 44 160 42 162Z" fill="#137AB6"/>
<path d="M42 202C40.7 203.3 40 205.3 40 208C40 210.7 40.7 212.7 42 214C44 216 45.3 216 148 216C250.7 216 252 216 254 214C255.3 212.7 256 210.7 256 208C256 205.3 255.3 203.3 254 202C252 200 250.7 200 148 200C45.3 200 44 200 42 202Z" fill="#137AB6"/>
<path d="M42 282C40.7 283.3 40 285.3 40 288C40 290.7 40.7 292.7 42 294C43.9 295.9 45.3 296 92 296C138.7 296 140.1 295.9 142 294C143.3 292.7 144 290.7 144 288C144 285.3 143.3 283.3 142 282C140.1 280.1 138.7 280 92 280C45.3 280 43.9 280.1 42 282Z" fill="#137AB6"/>
<path d="M42 322C40.7 323.3 40 325.3 40 328C40 330.7 40.7 332.7 42 334C43.9 335.9 45.3 336 92 336C138.7 336 140.1 335.9 142 334C143.3 332.7 144 330.7 144 328C144 325.3 143.3 323.3 142 322C140.1 320.1 138.7 320 92 320C45.3 320 43.9 320.1 42 322Z" fill="#137AB6"/>
<path d="M42 362C40.7 363.3 40 365.3 40 368C40 370.7 40.7 372.7 42 374C43.9 375.9 45.3 376 92 376C138.7 376 140.1 375.9 142 374C143.3 372.7 144 370.7 144 368C144 365.3 143.3 363.3 142 362C140.1 360.1 138.7 360 92 360C45.3 360 43.9 360.1 42 362Z" fill="#137AB6"/>
<path d="M162 402C160.7 403.3 160 405.3 160 408C160 410.7 160.7 412.7 162 414C163.9 415.9 165.3 416 200 416C234.7 416 236.1 415.9 238 414C239.3 412.7 240 410.7 240 408C240 405.3 239.3 403.3 238 402C236.1 400.1 234.7 400 200 400C165.3 400 163.9 400.1 162 402Z" fill="#137AB6"/>
<path d="M162 442C160.7 443.3 160 445.3 160 448C160 450.7 160.7 452.7 162 454C163.9 455.9 165.3 456 200 456C234.7 456 236.1 455.9 238 454C239.3 452.7 240 450.7 240 448C240 445.3 239.3 443.3 238 442C236.1 440.1 234.7 440 200 440C165.3 440 163.9 440.1 162 442Z" fill="#137AB6"/>
<path d="M347.3 34.0994C341.2 36.4994 334.1 42.9994 330.9 49.0994C327.5 55.6994 327.1 68.4994 330 76.2994C337.9 97.1994 366.9 103 383 86.9994C395 74.8994 395.2 53.5994 383.6 41.5994C376.8 34.6994 372.1 32.6994 361.5 32.2994C354.2 32.0994 351.5 32.3994 347.3 34.0994ZM367.8 50.9994C380.8 58.8994 375.2 78.9994 360 78.9994C351.5 78.9994 345 72.4994 345 63.9994C345 55.4994 351.5 48.9994 360 48.9994C362.7 48.9994 365.8 49.7994 367.8 50.9994Z" fill="#137AB6"/>
</g>
</g>
<defs>
<clipPath id="clip0_363_4208">
<rect width="512" height="512" fill="white"/>
</clipPath>
</defs>
</svg>
