<svg width="512" height="512" viewBox="0 0 512 512" fill="none" xmlns="http://www.w3.org/2000/svg">
<path d="M238.2 18.6003C220.6 24.5003 208.4 36.8003 202.5 54.3003C200.5 60.4003 200 63.8003 200 71.9003C200 89.0003 205.5 101.9 217.7 113.5L223 118.6L217.7 121.2C210.6 124.7 200.8 132.7 194.3 140.3C184.2 152.2 176 172.6 176 186.2V192H184.4H192.7L193.3 184.7C193.9 176.5 197.5 166.1 202.3 158.5C221.3 128.5 260.9 119.7 290.2 138.9C306.4 149.5 317.4 167.2 318.7 184.7L319.3 192H327.6H336V186.2C336 172.6 327.8 152.2 317.7 140.3C311.2 132.7 301.4 124.7 294.3 121.2L289 118.6L294.4 113.4C306.3 102.2 312 88.6003 312 72.0003C312 63.8003 311.5 60.4003 309.5 54.3003C303.5 36.7003 291.3 24.5003 273.7 18.5003C263.1 15.0003 248.7 15.0003 238.2 18.6003ZM266 34.1003C276.5 36.5003 286.8 45.1003 291.8 55.8003C294.2 60.8003 294.5 62.7003 294.5 72.0003C294.5 81.3003 294.2 83.2003 291.8 88.2003C288.1 96.2003 281.1 103.4 273.1 107.3C267 110.3 265.9 110.5 256 110.5C246.7 110.5 244.9 110.2 239.7 107.8C232.3 104.3 223.7 95.7003 220.2 88.3003C217.8 83.1003 217.5 81.3003 217.5 72.0003C217.5 62.7003 217.8 60.8003 220.2 55.8003C225.7 44.1003 238 34.7003 250.2 33.1003C255.8 32.3003 258.7 32.5003 266 34.1003Z" fill="#137AB6"/>
<path d="M78.2 66.6003C60.6 72.5003 48.4 84.8003 42.5 102.3C40.5 108.4 40 111.8 40 119.9C40 137 45.5 149.9 57.7 161.5L63 166.6L57.7 169.2C44.9 175.5 31.8 189 24.5 203.5C16.8 218.7 16 223.9 16 256.2C16 282.7 16.1 284.1 18 286C19.9 287.9 21.3 288 38 288H56V280V272H44H32V257.7C32 238.7 33.4 226.6 36.5 218.3C46.9 190.7 73.9 174 103.1 177.1C126.5 179.6 147 195.8 155.5 218.3C158.6 226.6 160 238.7 160 257.7V272H148H136V280V288H154C170.7 288 172.1 287.9 174 286C175.9 284.1 176 282.7 176 256.2C176 223.9 175.2 218.7 167.5 203.5C160.2 189 147.1 175.5 134.3 169.2L129 166.6L134.4 161.4C146.3 150.2 152 136.6 152 120C152 111.8 151.5 108.4 149.5 102.3C143.5 84.7003 131.3 72.5003 113.7 66.5003C103.1 63.0003 88.7 63.0003 78.2 66.6003ZM106 82.1003C116.5 84.5003 126.8 93.1003 131.8 103.8C134.2 108.8 134.5 110.7 134.5 120C134.5 129.3 134.2 131.2 131.8 136.2C128.1 144.2 121.1 151.4 113.1 155.3C107 158.3 105.9 158.5 96 158.5C86.7 158.5 84.9 158.2 79.7 155.8C72.3 152.3 63.7 143.7 60.2 136.3C57.8 131.1 57.5 129.3 57.5 120C57.5 110.7 57.8 108.8 60.2 103.8C65.7 92.1003 78 82.7003 90.2 81.1003C95.8 80.3003 98.7 80.5003 106 82.1003Z" fill="#137AB6"/>
<path d="M398.2 66.6003C380.6 72.5003 368.4 84.8003 362.5 102.3C360.5 108.4 360 111.8 360 119.9C360 137 365.5 149.9 377.7 161.5L383 166.6L377.7 169.2C364.9 175.5 351.8 189 344.5 203.5C336.8 218.7 336 223.9 336 256.2C336 282.7 336.1 284.1 338 286C339.9 287.9 341.3 288 358 288H376V280V272H364H352V257.7C352 238.7 353.4 226.6 356.5 218.3C366.9 190.7 393.9 174 423.1 177.1C446.5 179.6 467 195.8 475.5 218.3C478.6 226.6 480 238.7 480 257.7V272H468H456V280V288H474C490.7 288 492.1 287.9 494 286C495.9 284.1 496 282.7 496 256.2C496 223.9 495.2 218.7 487.5 203.5C480.2 189 467.1 175.5 454.3 169.2L449 166.6L454.4 161.4C457.4 158.6 461.5 153.8 463.4 150.7C475 132.6 475 107.5 463.5 89.5003C456.5 78.5003 446.5 70.8003 433.7 66.5003C423.1 63.0003 408.7 63.0003 398.2 66.6003ZM426 82.1003C436.5 84.5003 446.8 93.1003 451.8 103.8C454.2 108.8 454.5 110.7 454.5 120C454.5 129.3 454.2 131.2 451.8 136.2C448.1 144.2 441.1 151.4 433.1 155.3C427 158.3 425.9 158.5 416 158.5C406.7 158.5 404.9 158.2 399.7 155.8C392.3 152.3 383.7 143.7 380.2 136.3C377.8 131.1 377.5 129.3 377.5 120C377.5 110.7 377.8 108.8 380.2 103.8C385.7 92.1003 398 82.7003 410.2 81.1003C415.8 80.3003 418.7 80.5003 426 82.1003Z" fill="#137AB6"/>
<path d="M238.2 202.6C220.6 208.5 208.4 220.8 202.5 238.3C200.5 244.4 200 247.8 200 255.9C200 273 205.5 285.9 217.7 297.5L223 302.6L217.7 305.2C204.9 311.5 191.8 325 184.5 339.5C176.8 354.7 176 359.9 176 392.2C176 418.7 176.1 420.1 178 422C179.9 423.9 181.3 424 198 424H216V416V408H204H192V393.7C192 374.7 193.4 362.6 196.5 354.3C206.9 326.7 233.9 310 263.1 313.1C286.5 315.6 307 331.8 315.5 354.3C318.6 362.6 320 374.7 320 393.7V408H308H296V416V424H314C330.7 424 332.1 423.9 334 422C335.9 420.1 336 418.7 336 392.2C336 359.9 335.2 354.7 327.5 339.5C320.2 325 307.1 311.5 294.3 305.2L289 302.6L294.4 297.4C297.4 294.6 301.5 289.8 303.4 286.7C315 268.6 315 243.5 303.5 225.5C296.5 214.5 286.5 206.8 273.7 202.5C263.1 199 248.7 199 238.2 202.6ZM266 218.1C276.5 220.5 286.8 229.1 291.8 239.8C294.2 244.8 294.5 246.7 294.5 256C294.5 265.3 294.2 267.2 291.8 272.2C288.1 280.2 281.1 287.4 273.1 291.3C267 294.3 265.9 294.5 256 294.5C246.7 294.5 244.9 294.2 239.7 291.8C232.3 288.3 223.7 279.7 220.2 272.3C217.8 267.1 217.5 265.3 217.5 256C217.5 246.7 217.8 244.8 220.2 239.8C225.7 228.1 238 218.7 250.2 217.1C255.8 216.3 258.7 216.5 266 218.1Z" fill="#137AB6"/>
<path d="M89.9 280C80.8 281.6 72 287.9 67.5 296.1C64.1 302.4 62.9 314.1 65 321.5C67.5 330.3 77.6 340.9 85.1 342.5L88 343.2V391.6V440H52H16V448V456H104H192V448V440H148H104V391.6V343.2L106.9 342.5C114.4 340.9 124.5 330.3 127 321.5C129.1 314.1 127.9 302.4 124.5 296.1C118 284.2 103.9 277.6 89.9 280ZM103.8 299C116.8 306.9 111.2 327 96 327C80.8 327 75.2 306.9 88.2 299C92.5 296.4 99.5 296.4 103.8 299Z" fill="#137AB6"/>
<path d="M409.9 280C400.8 281.6 392 287.9 387.5 296.1C384.1 302.4 382.9 314.1 385 321.5C387.5 330.3 397.6 340.9 405.1 342.5L408 343.2V391.6V440H364H320V448V456H408H496V448V440H460H424V391.6V343.2L426.9 342.5C434.4 340.9 444.5 330.3 447 321.5C449.1 314.1 447.9 302.4 444.5 296.1C438 284.2 423.9 277.6 409.9 280ZM423.8 299C436.8 306.9 431.2 327 416 327C400.8 327 395.2 306.9 408.2 299C412.5 296.4 419.5 296.4 423.8 299Z" fill="#137AB6"/>
<path d="M248 408.3V416.7L243.8 417.9C241 418.8 237.6 421.2 233.4 425.4C229.2 429.6 226.8 433 225.9 435.8L224.7 440H216.3H208V448V456H216.3H224.7L225.9 460.2C227.7 465.9 238.1 476.3 243.8 478.1L248 479.3V487.7V496H256H264V487.7V479.3L268.2 478.1C273.9 476.3 284.3 465.9 286.1 460.2L287.3 456H295.7H304V448V440H295.7H287.3L286.1 435.8C284.3 430.1 273.9 419.7 268.2 417.9L264 416.7V408.3V400H256H248V408.3ZM263.8 435C276.8 442.9 271.2 463 256 463C247.5 463 241 456.5 241 448C241 439.5 247.5 433 256 433C258.7 433 261.8 433.8 263.8 435Z" fill="#137AB6"/>
</svg>
