<svg width="512" height="512" viewBox="0 0 512 512" fill="none" xmlns="http://www.w3.org/2000/svg">
<path d="M96.7 5.80046C95.3 7.40046 95 10.3005 95 24.8005V42.0005H78.1C55 42.0005 56.6 40.4005 56.2 64.4005L55.9 83.0005H36.6C19.2 83.0005 17.1 83.2005 15.7 84.8005C14.3 86.4005 14 89.2005 14 102.8C14 118.3 14.1 118.9 16.2 120.4C17.4 121.3 20.4 122 22.7 122H27V227V332H22.9C18.8 332 15.1 333.4 13.8 335.4C13.4 336 13 343.3 13 351.5C13 363.5 13.3 367 14.6 368.8L16.1 371H150.5H284.9L286.4 368.8C287.7 367 288 363.5 288 351.5C288 343.3 287.6 336 287.2 335.4C285.9 333.4 282.2 332 278.1 332H274V258V184H276.3C277.5 184 279.6 183.3 280.8 182.4C282.9 180.9 283 180.3 283 164.6C283 150.1 282.8 148.1 281.2 146.7C279.6 145.2 276.1 145 253.2 145H227V122.7C227 104.2 226.7 100.1 225.4 98.2005C223.9 96.1005 223.3 96.0005 206.4 96.0005H189V91.2005C189 83.2005 188.5 83.0005 166.2 83.0005H147.1L146.8 64.4005C146.4 40.4005 148 42.0005 124.9 42.0005H108V24.7005C108 9.10046 107.8 7.10046 106.2 5.70046C103.7 3.50046 98.7 3.60046 96.7 5.80046ZM134 69.0005V83.0005H101.5H69V69.0005V55.0005H101.5H134V69.0005ZM176 102.5V109H101.5H27V102.5V96.0005H101.5H176V102.5ZM214 127V145H197H180V133.5C180 122.2 180 122 182.3 122C186.8 122 189 119.3 189 113.9V109H201.5H214V127ZM167 227V332H103.5H40V227V122H103.5H167V227ZM270 164.5V171H225H180V164.5V158H225H270V164.5ZM261 258V332H220.5H180V258V184H220.5H261V258ZM275 351.5V358H150.5H26V351.5V345H150.5H275V351.5Z" fill="#137AB6"/>
<path d="M61.6025 146.2C59.3025 149.5 59.7025 152.6 62.6025 154.9C65.0025 156.7 66.7025 157 76.7025 157C87.5025 157 88.2025 156.9 90.5025 154.5C93.4025 151.7 93.6025 149.4 91.4025 146.2C90.0025 144.1 89.2025 144 76.5025 144C63.8025 144 63.0025 144.1 61.6025 146.2Z" fill="#137AB6"/>
<path d="M115.602 146.2C113.302 149.5 113.702 152.6 116.602 154.9C118.902 156.7 120.702 157 130.502 157C140.302 157 142.102 156.7 144.402 154.9C147.302 152.6 147.702 149.5 145.402 146.2C144.002 144.1 143.202 144 130.502 144C117.802 144 117.002 144.1 115.602 146.2Z" fill="#137AB6"/>
<path d="M61.6 185.2C60.7 186.4 60 188.4 60 189.5C60.1 194.6 63.6 196 76.8 196C86.3 196 88.1 195.7 90.4 193.9C93.3 191.6 93.7 188.5 91.4 185.2C90 183.1 89.2 183 76.5 183C63.8 183 63 183.1 61.6 185.2Z" fill="#137AB6"/>
<path d="M115.602 185.2C113.302 188.5 113.702 191.6 116.602 193.9C118.902 195.7 120.702 196 130.502 196C140.302 196 142.102 195.7 144.402 193.9C147.302 191.6 147.702 188.5 145.402 185.2C144.002 183.1 143.202 183 130.502 183C117.802 183 117.002 183.1 115.602 185.2Z" fill="#137AB6"/>
<path d="M61.5948 224.2C59.3948 227.3 59.5948 230.6 61.9948 233C63.7948 234.8 65.2948 235 75.8948 235C86.3948 235 87.9948 234.8 90.3948 232.9C93.4948 230.4 93.7948 226.8 90.9948 224C89.1948 222.2 87.6948 222 76.0948 222C63.7948 222 62.9948 222.1 61.5948 224.2Z" fill="#137AB6"/>
<path d="M115.605 224.2C113.405 227.4 113.605 230.3 116.305 232.8C118.405 234.8 119.705 235 130.805 235C141.705 235 143.205 234.8 145.005 233C147.405 230.6 147.605 227.3 145.405 224.2C144.005 222.1 143.205 222 130.505 222C117.805 222 117.005 222.1 115.605 224.2Z" fill="#137AB6"/>
<path d="M61.5948 263.2C59.3948 266.3 59.5948 269.6 61.9948 272C63.7948 273.8 65.2948 274 76.2948 274C87.8948 274 88.7948 273.9 90.7948 271.7C93.4948 268.8 93.5948 265.6 90.9948 263C89.1948 261.2 87.6948 261 76.0948 261C63.7948 261 62.9948 261.1 61.5948 263.2Z" fill="#137AB6"/>
<path d="M116 263C114.9 264.1 114 266.1 114 267.5C114 268.9 114.9 270.9 116 272C117.8 273.8 119.3 274 130.5 274C141.7 274 143.2 273.8 145 272C146.1 270.9 147 268.9 147 267.5C147 266.1 146.1 264.1 145 263C143.2 261.2 141.7 261 130.5 261C119.3 261 117.8 261.2 116 263Z" fill="#137AB6"/>
<path d="M62 302C60.9 303.1 60 305.1 60 306.5C60 307.9 60.9 309.9 62 311C63.8 312.8 65.3 313 76.5 313C87.7 313 89.2 312.8 91 311C92.1 309.9 93 307.9 93 306.5C93 305.1 92.1 303.1 91 302C89.2 300.2 87.7 300 76.5 300C65.3 300 63.8 300.2 62 302Z" fill="#137AB6"/>
<path d="M116 302C114.9 303.1 114 305.1 114 306.5C114 307.9 114.9 309.9 116 311C117.8 312.8 119.3 313 130.5 313C141.7 313 143.2 312.8 145 311C146.1 309.9 147 307.9 147 306.5C147 305.1 146.1 303.1 145 302C143.2 300.2 141.7 300 130.5 300C119.3 300 117.8 300.2 116 302Z" fill="#137AB6"/>
<path d="M205.594 198.2C203.394 201.4 203.594 203.7 206.494 206.5C208.794 208.9 209.494 209 220.294 209C230.294 209 231.994 208.7 234.394 206.9C237.494 204.5 237.894 200.1 235.194 197.7C233.694 196.3 230.994 196 220.194 196C207.794 196 206.994 196.1 205.594 198.2Z" fill="#137AB6"/>
<path d="M206.494 232.5C203.594 235.3 203.394 237.6 205.594 240.8C206.994 242.9 207.794 243 220.394 243C231.994 243 233.894 242.8 235.294 241.2C237.094 239.3 237.494 235.3 236.194 233.4C234.494 230.8 230.594 230 219.994 230C209.594 230 208.794 230.1 206.494 232.5Z" fill="#137AB6"/>
<path d="M206 267C204.9 268.1 204 270.1 204 271.5C204 272.9 204.9 274.9 206 276C207.8 277.8 209.3 278 220.5 278C231.7 278 233.2 277.8 235 276C236.1 274.9 237 272.9 237 271.5C237 270.1 236.1 268.1 235 267C233.2 265.2 231.7 265 220.5 265C209.3 265 207.8 265.2 206 267Z" fill="#137AB6"/>
<path d="M205.594 302.2C203.394 305.4 203.594 307.7 206.494 310.5C208.794 312.9 209.494 313 220.294 313C230.294 313 231.994 312.7 234.394 310.9C237.494 308.5 237.894 304.1 235.194 301.7C233.694 300.3 230.994 300 220.194 300C207.794 300 206.994 300.1 205.594 302.2Z" fill="#137AB6"/>
<path d="M277.098 113.9C274.498 116.5 274.398 121.1 276.798 123.3C278.398 124.8 282.198 125 309.098 125C342.498 125 347.398 125.6 357.798 130.9C369.398 136.8 378.098 147.2 381.998 159.8C383.798 165.4 383.998 169.1 383.998 189.3V212.4L380.198 208.7C377.498 206 375.498 205 373.298 205C369.798 205 366.998 207.9 366.998 211.5C366.998 214.5 387.898 235 390.998 235C392.598 235 396.598 231.8 403.598 224.8C412.598 216 413.998 214.2 413.998 211.4C413.998 204.2 406.698 202.6 400.898 208.6L397.498 212.1L396.898 185.8C396.398 161.6 396.198 159 394.098 153.1C388.998 139.2 376.998 125.6 364.198 119.1C351.898 112.9 350.498 112.7 313.298 112.2C279.698 111.8 279.098 111.9 277.098 113.9Z" fill="#137AB6"/>
<path d="M374.5 283.9C354 289.9 337.8 306.3 332.5 326.5C330.5 334.2 330.6 349.5 332.6 357.4C334.6 365.3 339.9 375.3 345.3 381.5L349.6 386.4L339.6 389.7C315.1 397.9 297.5 411.8 289 429.5C286.9 433.9 284.7 439.9 284.1 442.8C283.5 445.9 283 459.9 283 476.5C283 500.9 283.2 505.1 284.6 506.4C286 507.8 297 508 390.9 508C491.1 508 495.8 507.9 497.3 506.2C498.8 504.6 499 501.1 499 477.4C499 447.7 498.1 441.1 493.2 430.6C487.2 417.9 476.7 407 462.5 398.7C455.5 394.7 440.2 388.5 434.8 387.5L431 386.8L436.1 381.2C441.4 375.4 445.5 368.2 448.6 359C451.5 350.4 451.3 332.8 448.1 323.1C445.1 314 437.7 302.6 430.7 296.5C424.8 291.3 414.1 285.6 406 283.5C398.4 281.5 382.1 281.7 374.5 283.9ZM410.3 299.2C424.9 306.2 434.9 319.4 437.3 335C442.3 367.5 411.2 395.7 379.5 387.5C365.8 383.9 354.5 374.4 348.3 361.3C345 354.5 344.5 352.4 344.2 344.4C343.5 329.5 347.9 318.3 358.2 308.4C368.8 298.2 377.5 294.9 392.5 295.3C401.7 295.5 403.1 295.8 410.3 299.2ZM376 400C385.8 402.8 399.2 402.4 409.7 399L416.9 396.7L426.2 398.9C445.6 403.7 464.1 413.6 473.4 424.2C478.7 430.3 483.4 439.4 484.9 446.8C485.5 449.7 486 461.7 486 473.5V495L437.8 495.2C411.2 495.4 368.5 495.4 342.8 495.2L296 495V471.5C296 450.4 296.2 447.3 298 441.9C304.7 422.2 323.4 407.7 352.7 399.5C362.4 396.8 365 396.9 376 400Z" fill="#137AB6"/>
<path d="M125.604 397C115.804 406.9 114.804 408.2 115.404 410.7C117.004 417.2 122.804 417.8 128.504 411.9L132.504 407.9L133.104 434.7C133.604 459.5 133.804 462 136.004 467.9C141.104 482.1 153.104 495.5 166.504 502C178.004 507.6 181.304 508 218.104 508C249.404 508 251.804 507.9 253.304 506.2C255.504 503.8 255.404 499.7 253.204 497.7C251.604 496.2 248.104 496 224.404 496C209.604 496 193.804 495.6 189.204 495C172.004 493.1 158.004 483.1 150.404 467.5L146.504 459.5L146.204 434L145.904 408.5L149.704 412.2C155.404 417.7 161.004 417.1 162.604 410.7C163.204 408.2 162.204 406.9 152.404 397C144.104 388.6 141.004 386 139.004 386C137.004 386 133.904 388.6 125.604 397Z" fill="#137AB6"/>
</svg>
