<svg width="512" height="512" viewBox="0 0 512 512" fill="none" xmlns="http://www.w3.org/2000/svg">
<path d="M68 241.5V452H172.6C262.7 452 277.1 451.8 276.7 450.6C276.4 449.8 275 447.3 273.5 445.1L271 441H175H79V241.5V42H227H375L375.2 169.6L375.5 297.3L380.5 298.6C383.3 299.3 385.6 299.9 385.8 300C385.9 300 386 239.5 386 165.5V31H227H68V241.5Z" fill="#137AB6"/>
<path d="M213.502 117.4C188.602 123.2 169.902 141.1 163.502 165.5C161.402 173.4 161.402 188.6 163.402 197.4C168.702 220 187.602 239.2 210.602 245C233.502 250.9 256.602 244.4 273.502 227.5C286.602 214.4 292.302 200.4 292.302 181.5C292.302 169.5 290.302 161.4 284.902 151C277.102 136 263.502 124.5 247.702 119.4C237.602 116.2 222.602 115.3 213.502 117.4ZM234.702 152.1C240.302 154.8 244.302 161.4 244.202 167.5C244.102 179.3 231.902 187.9 221.402 183.5C213.902 180.4 210.002 175 210.002 167.5C210.002 162.2 211.602 158.7 215.702 154.8C221.102 149.6 227.602 148.7 234.702 152.1ZM206.002 193V204H227.002H248.002V193V182H252.502H257.002V197.5V213H227.002H197.002V197.5V182H201.502H206.002V193Z" fill="#137AB6"/>
<path d="M223.299 159.999C219.599 161.499 217.899 166.899 219.599 171.499C221.399 176.099 230.499 176.899 233.499 172.699C238.499 165.499 231.499 156.699 223.299 159.999Z" fill="#137AB6"/>
<path d="M145 281.5V287H227H309V281.5V276H227H145V281.5Z" fill="#137AB6"/>
<path d="M340.998 309.5C313.798 315.3 292.398 331.6 280.598 355.5C256.898 403.3 280.698 460.3 331.098 476.4C372.298 489.7 416.498 471 434.998 432.5C440.998 420.1 442.998 412.4 443.698 399C444.998 374.1 437.098 352.5 420.198 334.8C408.698 322.8 396.598 315.5 380.498 310.9C371.298 308.2 350.198 307.5 340.998 309.5ZM391.598 347.6C391.198 348.5 390.498 351.2 389.898 353.6L388.798 358H376.998H365.198L367.098 361.7C368.098 363.8 368.998 366 368.998 366.7C368.998 367.7 371.798 368 380.498 368C389.198 368 391.798 368.3 391.498 369.2C391.298 369.9 390.598 372.4 389.998 374.7L388.898 379H379.198H369.498L367.698 383.4C366.698 385.9 363.698 389.9 360.998 392.4C356.598 396.5 353.498 397.9 343.798 400.3C343.398 400.4 349.598 409.6 357.498 420.8C365.498 432 371.998 441.3 371.998 441.6C371.998 441.9 369.698 442 366.898 441.8L361.698 441.5L342.898 415.2L323.998 389H334.998C347.598 389 351.198 387.9 355.398 382.9L358.298 379.5L341.098 379.2C330.998 379.1 323.998 378.6 323.998 378C323.998 377.5 324.498 375 325.198 372.5L326.398 368H342.198C350.898 368 357.998 367.6 357.998 367.1C357.998 365.5 353.798 361 350.998 359.5C348.898 358.4 344.698 358 335.998 358C329.298 358 323.998 357.6 323.998 357.1C323.998 356.6 324.498 353.9 325.198 351.1L326.298 346H359.298C389.298 346 392.198 346.1 391.598 347.6Z" fill="#137AB6"/>
<path d="M145 321.5V327H215.8H286.6L292 321.5L297.4 316H221.2H145V321.5Z" fill="#137AB6"/>
<path d="M145 361.5V367L204.2 366.8L263.3 366.5L265.1 361.2L266.9 356H205.9H145V361.5Z" fill="#137AB6"/>
</svg>
