<svg width="512" height="512" viewBox="0 0 512 512" fill="none" xmlns="http://www.w3.org/2000/svg">
<path d="M1.2 9.2C0.3 10.1 0 66.3 0 256.2C0 498.1 0 501.9 1.9 503C3 503.5 10.1 504 17.9 504C29.3 504 32.1 503.7 33.4 502.4C34.7 501.1 35 498 35 484.4V468H178H321V485C321 500.7 321.1 502 322.9 503C325.5 504.3 351.5 504.3 354.1 503C355.9 502 356 500.5 356 463.5V425H426.5C493.9 425 497.2 424.9 500.8 423.1C505.1 420.9 508.1 417.8 510.4 413.3C511.9 410.4 512 396.1 512 258.3V106.5L509.7 102.5C508.5 100.4 505.5 97.2 503.2 95.5L498.8 92.5L463.4 92.2L428 91.9V89C428 83.1 427.7 83 415.9 83H405L403.5 79.2C400.2 71.4 392.3 66.1 383.9 66C375.3 66 365.9 72.8 363.5 80.7C363 82.5 362.1 83 359.4 83H356V46.5C356 11.5 355.9 10 354.1 9C351.5 7.7 325.5 7.7 322.9 9C321.1 10 321 11.6 321 51V92H296.3C274.3 92 271 92.3 267.4 93.9C259.3 97.6 255 105.8 255 117.4V123H220.5H186V78.7C186 45.6 185.7 34.1 184.8 33.2C183.1 31.5 87.9 31.5 86.2 33.2C85.3 34.1 85 45.6 85 78.7V123H60H35V67.1C35 17.6 34.8 11 33.4 9.6C32.1 8.3 29.2 8 17.1 8C7 8 2 8.4 1.2 9.2ZM26 256V495H17H8V256V17H17H26V256ZM347 49.9V82.9L343.8 83.2C340.7 83.5 340.5 83.8 340.2 87.7L339.9 92H334.9H330V54.5V17H338.5H347V49.9ZM119 52.2C119 59 119.4 65 119.8 65.6C121.5 68.1 124.3 67.9 129.9 64.8L135.6 61.6L141.2 64.8C146.7 68 149.5 68.2 151.2 65.6C151.6 65 152 59 152 52.2V40H164.5H177V81.5V123H135.5H94V81.5V40H106.5H119V52.2ZM143 47.6V55.2L140.5 53.6C137.5 51.6 134.7 51.6 131 53.5L128 55.1V47.5V40H135.5H143V47.6ZM389.8 77C393 78.9 395.3 82.9 396.4 88.1C397.1 91.4 399.1 92 410.3 92H419V106.5V121H384H349V106.5V92H358.3C369 92 372 90.7 372 86C372 82.9 376.1 77.3 379.4 76C382.9 74.6 386.3 74.9 389.8 77ZM340 106.5V112H307.7C283.9 112 275.1 112.3 274.2 113.2C273.3 114.1 273 147.9 273 259.1C273 390.1 273.1 403.8 274.6 404.4C275.5 404.7 324.9 405 384.4 405C467.2 405 492.9 404.7 493.8 403.8C495.5 402.1 495.5 114.9 493.8 113.2C492.9 112.3 484.1 112 460.3 112H428V106.5V101H461C497.6 101 498.4 101.1 501.7 107.3C503.4 110.3 503.5 118.9 503.5 259C503.5 399.3 503.4 407.7 501.7 410.3C500.8 411.8 498.8 413.8 497.3 414.7C494.7 416.4 488 416.5 383.9 416.5C273.5 416.5 273.1 416.5 270.3 414.4C268.8 413.3 266.7 410.8 265.8 408.9C264.1 405.7 264 396.5 264 258.7C264 97.1 263.6 107 270.2 103C273.3 101.1 275.2 101 306.8 101H340V106.5ZM340 124.3C340 126.1 340.5 128.1 341.2 128.8C342.9 130.5 425.1 130.5 426.8 128.8C427.5 128.1 428 126.1 428 124.3V121H457H486V258.5V396H384H282V258.5V121H311H340V124.3ZM255 141V150H145H35V141V132H145H255V141ZM255 172.5V186H171.6C97.1 186 88 186.2 86.6 187.6C85.2 189 85 194.5 85 233.6V278H60H35V218.5V159H145H255V172.5ZM119 207.3C119 223.4 120.4 224.8 130.5 219.1L135.7 216.2L140.6 219.1C150.5 224.9 152 223.4 152 207.3V195H164.5H177V236.5V278H135.5H94V236.5V195H106.5H119V207.3ZM143 202C143 205.8 142.8 209 142.5 209C142.3 209 140.5 208.3 138.6 207.4C135.3 205.8 135 205.8 131.6 207.8L128 209.9V202.5V195H135.5H143V202ZM211 207.3C211 223.4 212.3 224.7 222.2 219.1L227.2 216.2L232.2 219.1C237.9 222.5 241.5 222.8 243 220.1C243.5 219 244 212.9 244 206.6V195H249.5H255V236.5V278H220.5H186V236.5V195H198.5H211V207.3ZM235 202.4V209.8L231.1 207.7C227.2 205.6 227 205.6 224.1 207.3C222.5 208.2 220.9 209 220.6 209C220.3 209 220 205.8 220 202V195H227.5H235V202.4ZM255 295.5V304H145H35V295.5V287H145H255V295.5ZM255 327V341H171C89 341 87 341 86 342.9C85.4 344.2 85 360.3 85 388.4V432H60H35V372.5V313H145H255V327ZM119 361.9C119 371.4 119.3 374.2 120.6 375.4C122.8 377.6 124.2 377.4 130.2 373.9C136.1 370.4 134.8 370.3 144.2 375.8C146.4 377.1 147.4 377.1 149.4 376.2C152 375 152 375 152 362.5V350H164.5H177V391V432H135.5H94V391V350H106.5H119V361.9ZM143 357V364.1L140 362.5C136.3 360.6 133.9 360.6 131.4 362.5C130.4 363.3 129.2 364 128.8 364C128.3 364 128 360.8 128 357V350H135.5H143V357ZM211.2 362.6C211.6 378.5 212.1 379.1 221.2 374.2L227.2 370.9L232.7 374C238.9 377.5 242.4 377.4 243.4 373.8C243.7 372.5 244 366.7 244 360.7V350H249.5H255V378.2C255 395.5 255.4 408.1 256.1 410.5C256.8 413.2 259 416.2 262.6 419.8C267.1 424.2 268 425.6 268 428.5V432H227H186V391V350H198.5H210.9L211.2 362.6ZM235 357C235 360.8 234.6 364 234.2 364C233.7 364 232.5 363.3 231.4 362.5C228.9 360.6 226.6 360.6 223 362.5L220 364.1V357V350H227.5H235V357ZM321 428.5V432H299H277V428.5V425H299H321V428.5ZM347 460V495H338.5H330V460V425H338.5H347V460ZM321 450V459H178H35V450V441H178H321V450Z" fill="#137AB6"/>
<path d="M302.6 146.6C301.3 147.8 301 150.6 301 160.5C301 170.4 301.3 173.2 302.6 174.4C303.8 175.7 306.6 176 316.9 176C325.4 176 330 175.6 330.8 174.8C332.5 173.1 332.5 147.9 330.8 146.2C330 145.4 325.4 145 316.9 145C306.6 145 303.8 145.3 302.6 146.6ZM323 160.5V167H316.5H310V160.5V154H316.5H323V160.5Z" fill="#137AB6"/>
<path d="M343.2 157.2C342.5 157.9 342 159.3 342 160.5C342 165 341.5 165 398.6 165C446.6 165 453 164.8 454.4 163.4C456.4 161.4 456.4 159.6 454.4 157.6C453 156.2 446.6 156 398.6 156C357.8 156 344.1 156.3 343.2 157.2Z" fill="#137AB6"/>
<path d="M302.201 187.2C301.401 188 301.001 192.6 301.001 201.1C301.001 217.3 300.601 217 317.201 217C326.501 217 329.201 216.7 330.401 215.4C331.701 214.2 332.001 211.4 332.001 201.1C332.001 192.6 331.601 188 330.801 187.2C329.101 185.5 303.901 185.5 302.201 187.2ZM323.001 201.5V208H316.501H310.001V201.5V195H316.501H323.001V201.5Z" fill="#137AB6"/>
<path d="M343.198 198.2C341.498 199.9 341.698 202.6 343.598 204.4C344.998 205.8 351.298 206 398.098 206C430.498 206 451.798 205.6 452.898 205C455.398 203.7 456.198 201.3 454.998 198.9C453.998 197.1 452.198 197 399.198 197C357.898 197 344.098 197.3 343.198 198.2Z" fill="#137AB6"/>
<path d="M302.6 227.6C301.3 228.8 301 231.6 301 241.9C301 250.4 301.4 255 302.2 255.8C303.9 257.5 329.1 257.5 330.8 255.8C331.6 255 332 250.3 332 241.3C332 229.2 331.8 228 330.1 227C329 226.5 322.7 226 316.1 226C306.6 226 303.8 226.3 302.6 227.6ZM323 241.5V248H316.5H310V241.5V235H316.5H323V241.5Z" fill="#137AB6"/>
<path d="M437.8 236.1C436.1 237 436 240.7 436 291.4C436 340.1 436.2 345.8 437.6 346.4C438.5 346.7 445 347 452.1 347H465L466 344.4C466.6 342.9 467 321.4 467 290.4C467 240.3 466.9 238.9 465 237C463.2 235.2 461.7 235 451.3 235C444.8 235 438.7 235.5 437.8 236.1ZM458 291V338H451.5H445V291V244H451.5H458V291Z" fill="#137AB6"/>
<path d="M343.598 238.6C341.698 240.4 341.498 243.1 343.198 244.8C344.898 246.5 408.098 246.5 409.798 244.8C411.498 243.1 411.298 240.4 409.398 238.6C408.098 237.2 403.698 237 376.498 237C349.298 237 344.898 237.2 343.598 238.6Z" fill="#137AB6"/>
<path d="M349 269.7C348.2 270 347.2 270.8 346.8 271.4C346.4 272 346 288.7 346 308.6C346 335.3 346.3 344.9 347.2 345.8C348.9 347.5 374.1 347.5 375.8 345.8C377.3 344.3 377.5 273.3 376 271C375.3 269.8 372.5 269.5 362.8 269.3C356 269.2 349.8 269.4 349 269.7ZM368 308V338H361.5H355V308V278H361.5H368V308Z" fill="#137AB6"/>
<path d="M392.205 276.2C390.505 277.9 390.505 344.1 392.205 345.8C393.005 346.6 397.705 347 406.705 347C418.805 347 420.005 346.8 421.005 345.1C421.605 343.8 422.005 331.1 422.005 310.6C422.005 282.4 421.805 277.9 420.405 276.6C419.205 275.3 416.405 275 406.105 275C397.605 275 393.005 275.4 392.205 276.2ZM413.005 311V338H406.505H400.005V311V284H406.505H413.005V311Z" fill="#137AB6"/>
<path d="M302.205 289.2C300.505 290.9 300.505 344.1 302.205 345.8C303.905 347.5 329.105 347.5 330.805 345.8C332.505 344.1 332.505 290.9 330.805 289.2C330.005 288.4 325.405 288 316.505 288C307.605 288 303.005 288.4 302.205 289.2ZM323.005 317.5V338H316.505H310.005V317.5V297H316.505H323.005V317.5Z" fill="#137AB6"/>
<path d="M291.1 364.4C290.4 365.2 290 367.1 290.2 368.7L290.5 371.5L382.9 371.8C450.3 371.9 475.6 371.7 476.6 370.9C478.3 369.5 478.4 365.8 476.8 364.2C475.9 363.3 453.9 363 383.9 363C305.4 363 292.1 363.2 291.1 364.4Z" fill="#137AB6"/>
</svg>
