<svg width="512" height="512" viewBox="0 0 512 512" fill="none" xmlns="http://www.w3.org/2000/svg">
<g clip-path="url(#clip0_363_4299)">
<mask id="mask0_363_4299" style="mask-type:luminance" maskUnits="userSpaceOnUse" x="0" y="0" width="512" height="512">
<path d="M512 0H0V512H512V0Z" fill="white"/>
</mask>
<g mask="url(#mask0_363_4299)">
<path d="M173.602 10.2C172.202 12.1 172.002 16.4 172.002 37.2V62H160.602C151.502 62 148.802 62.3 147.602 63.6C146.202 64.9 146.002 70.1 146.002 104.6V144H87.0023C29.3023 144 28.0023 144 26.0023 146C24.0023 148 24.0023 149.3 24.0023 255C24.0023 360.7 24.0023 362 26.0023 364C28.5023 366.5 32.2023 366.6 34.3023 364.2C35.9023 362.5 36.0023 353.8 36.0023 259.2V156H91.0023H146.002V284.5V413H74.9023C27.9023 413 3.20227 413.3 1.90227 414C0.602263 414.7 0.00226296 416.1 0.00226296 418.5C0.00226296 425.5 -6.49773 425 92.1023 425H181.002V434.2C181.002 450 185.802 464 195.302 476.6C204.502 488.7 220.402 499 235.002 502.4C244.302 504.6 260.902 504.5 270.202 502.1C292.302 496.4 309.802 480.9 318.802 459C321.702 451.9 324.302 436.9 323.802 430.3L323.302 425H416.102C518.902 425 512.002 425.5 512.002 418.5C512.002 416.1 511.402 414.7 510.102 414C508.802 413.3 484.302 413 437.602 413H367.002V284.5V156H421.502H476.002L476.202 259.6C476.502 360.8 476.502 363.2 478.402 364.6C481.002 366.4 484.502 366.4 486.402 364.4C487.802 363 488.002 351.7 488.002 255C488.002 158.3 487.802 147 486.402 145.6C485.002 144.2 478.202 144 425.902 144H367.002V104.7C367.002 67.8 366.902 65.2 365.202 63.7C363.502 62.1 355.702 62 273.702 62H184.002V40.5V19H256.002H328.002V27.8C328.002 38 329.402 41 334.002 41C339.402 41 340.002 39.3 340.002 24.1C340.002 14.8 339.602 9.99996 338.802 9.2C337.902 8.3 318.202 8 256.402 8H175.102L173.602 10.2ZM355.002 243.5V413H338.102H321.202L319.002 407C313.902 393.3 301.602 379 288.202 371.1C258.202 353.4 217.902 360.8 196.502 387.8C192.602 392.7 185.602 405.4 183.702 411.2C183.102 412.8 181.602 413 170.502 413H158.002V243.5V74H256.502H355.002V243.5ZM263.502 374.5C270.902 376.1 282.802 381.3 287.002 384.8L289.502 386.9L248.002 428.4C225.202 451.3 206.302 470 206.002 470C204.502 470 198.202 458.5 195.802 451.3C188.702 430.8 194.402 406.7 210.102 391.1C224.802 376.5 244.302 370.5 263.502 374.5ZM301.002 398.9C306.902 407.3 312.002 423 312.002 433C312.002 444.9 306.102 460.7 298.102 470.3C289.702 480.4 277.302 488.2 265.002 491.1C249.402 494.7 229.402 490.3 216.502 480.5C214.602 479 216.502 477 256.002 437.5C278.802 414.7 297.802 396 298.202 396C298.602 396 299.802 397.3 301.002 398.9Z" fill="#137AB6"/>
<path d="M187.2 101.6C185 103.1 185 103.4 185 127.9C185 150.6 185.2 152.8 186.8 154.3C188.4 155.8 191.7 156 212.8 156C233.3 156 237.1 155.8 238.4 154.4C239.8 153.1 240 149.3 240 128C240 103.4 240 103.1 237.8 101.6C235.9 100.3 231.7 100 212.5 100C193.3 100 189.1 100.3 187.2 101.6ZM228 128V144H212.5H197V128V112H212.5H228V128Z" fill="#137AB6"/>
<path d="M274 102C272.1 103.9 272 105.3 272 128C272 150.7 272.1 152.1 274 154C275.9 155.9 277.3 156 299.8 156C319.7 156 323.9 155.7 325.8 154.4C328 152.9 328 152.6 328 128.4C328 105.3 327.9 103.9 326 102C324.1 100.1 322.7 100 300 100C277.3 100 275.9 100.1 274 102ZM316 128V144H300H284V128V112H300H316V128Z" fill="#137AB6"/>
<path d="M187.2 183.6C185 185.1 185 185.4 185 209.9C185 232.6 185.2 234.8 186.8 236.3C188.4 237.8 191.7 238 212.8 238C233.3 238 237.1 237.8 238.4 236.4C239.8 235.1 240 231.3 240 210C240 185.4 240 185.1 237.8 183.6C235.9 182.3 231.7 182 212.5 182C193.3 182 189.1 182.3 187.2 183.6ZM228 210V226H212.5H197V210V194H212.5H228V210Z" fill="#137AB6"/>
<path d="M274 184C272.1 185.9 272 187.3 272 210C272 232.7 272.1 234.1 274 236C275.9 237.9 277.3 238 300.3 238C322.7 238 324.8 237.8 326.3 236.2C327.8 234.6 328 231.3 328 210.2C328 187.3 327.9 185.9 326 184C324.1 182.1 322.7 182 300 182C277.3 182 275.9 182.1 274 184ZM316 210V226H300H284V210V194H300H316V210Z" fill="#137AB6"/>
<path d="M187.2 265.6C185 267.1 185 267.4 185 292C185 313.3 185.2 317.1 186.6 318.4C187.9 319.8 191.7 320 212.1 320C226.8 320 236.9 319.6 238.1 319C239.9 318 240 316.6 240 292.5C240 267.4 240 267.1 237.8 265.6C235.9 264.3 231.7 264 212.5 264C193.3 264 189.1 264.3 187.2 265.6ZM228 292V308H212.5H197V292V276H212.5H228V292Z" fill="#137AB6"/>
<path d="M276 264.699C272.3 265.999 272 267.799 272 291.999C272 311.699 272.3 315.899 273.6 317.799C275.1 319.999 275.4 319.999 299.9 319.999C322.6 319.999 324.8 319.799 326.3 318.199C327.8 316.599 328 313.299 328 292.199C328 269.299 327.9 267.899 326 265.999C324.1 264.099 322.7 263.999 300.8 264.099C288 264.099 276.8 264.399 276 264.699ZM316 291.999V307.999H300H284V291.999V275.999H300H316V291.999Z" fill="#137AB6"/>
<path d="M65 184C63.1 185.9 63 187.3 63 210C63 232.7 63.1 234.1 65 236C66.9 237.9 68.3 238 91.3 238C113.7 238 115.8 237.8 117.3 236.2C118.8 234.6 119 231.3 119 210.2C119 187.3 118.9 185.9 117 184C115.1 182.1 113.7 182 91 182C68.3 182 66.9 182.1 65 184ZM107 210V226H91H75V210V194H91H107V210Z" fill="#137AB6"/>
<path d="M396.2 183.6C394 185.1 394 185.4 394 210C394 231.3 394.2 235.1 395.6 236.4C397.9 238.8 445.1 238.8 447.4 236.4C448.8 235.1 449 231.3 449 210C449 185.4 449 185.1 446.8 183.6C444.9 182.3 440.7 182 421.5 182C402.3 182 398.1 182.3 396.2 183.6ZM437 210V226H421.5H406V210V194H421.5H437V210Z" fill="#137AB6"/>
<path d="M67 264.699C63.3 265.999 63 267.799 63 292.199C63 314.699 63.1 316.099 65 317.999C66.9 319.899 68.3 319.999 91.3 319.999C113.7 319.999 115.8 319.799 117.3 318.199C118.8 316.599 119 313.299 119 292.199C119 269.299 118.9 267.899 117 265.999C115.1 264.099 113.7 263.999 91.8 264.099C79 264.099 67.8 264.399 67 264.699ZM107 291.999V307.999H91H75V291.999V275.999H91H107V291.999Z" fill="#137AB6"/>
<path d="M396.2 265.6C394 267.1 394 267.4 394 292C394 313.3 394.2 317.1 395.6 318.4C397.9 320.8 445.1 320.8 447.4 318.4C448.8 317.1 449 313.3 449 292C449 267.4 449 267.1 446.8 265.6C444.9 264.3 440.7 264 421.5 264C402.3 264 398.1 264.3 396.2 265.6ZM437 292V308H421.5H406V292V276H421.5H437V292Z" fill="#137AB6"/>
<path d="M27.2985 384C22.8985 385.8 21.5985 392.1 24.8985 396.1C29.0985 401.3 37.9985 397.8 37.9985 391C37.9985 385.7 32.2985 381.9 27.2985 384Z" fill="#137AB6"/>
<path d="M480 383.7C476.7 384.9 475 387.4 475 391C475 396.6 479.5 399.8 484.9 397.9C491.3 395.7 491.2 386.3 484.8 384.1C483.1 383.5 481.7 383 481.6 383.1C481.5 383.1 480.8 383.4 480 383.7Z" fill="#137AB6"/>
</g>
</g>
<defs>
<clipPath id="clip0_363_4299">
<rect width="512" height="512" fill="white"/>
</clipPath>
</defs>
</svg>
