<svg width="512" height="512" viewBox="0 0 512 512" fill="none" xmlns="http://www.w3.org/2000/svg">
<path d="M124.697 56.7C92.0972 83.6 85.8972 89 84.9972 92C83.6972 96.7 83.5972 446.1 84.9972 450.9C86.4972 456.3 88.1972 456.9 100.797 457H111.997V468.5C111.997 480.8 112.897 484.2 116.697 485.9C118.397 486.7 160.697 487 266.997 487H414.897L417.697 484.6L420.497 482.2L420.797 369.8C420.897 308.1 420.797 256 420.497 254.2C419.697 249.7 416.697 247 412.797 247C408.597 247.1 406.197 248.9 404.997 253.1C404.397 255.2 403.997 298 403.997 363.7V471H265.997H127.997V464V457H257.997H388.097L390.497 454.5L392.997 452.1V358.3C392.997 284.9 392.697 264 391.697 262C390.897 260.4 389.097 259.2 386.697 258.6C383.597 257.8 382.497 258 380.197 259.7L377.497 261.7L377.197 351.4L376.997 441H238.997H100.997V271.5V102H134.997H169.097L171.497 99.5L173.997 97.1V69V41H275.497H376.997V53.9C376.997 66.7 376.997 66.9 379.597 68.9C381.897 70.7 383.697 71 393.097 71H403.897L404.497 75.4C405.397 80.9 407.697 83.2 412.597 83.2C418.197 83.2 420.297 80.4 420.797 72.5C421.297 64.4 420.397 59.4 417.897 56.9C416.197 55.2 414.597 55 404.597 55H393.197L392.797 42C392.597 31.2 392.197 28.8 390.697 27.3C388.997 25.6 382.797 25.5 276.097 25.2L163.297 25L124.697 56.7ZM157.697 85.7C157.497 85.9 147.897 85.9 136.497 85.8L115.697 85.5L136.597 68.3L157.497 51.1L157.797 68.2C157.897 77.6 157.897 85.5 157.697 85.7Z" fill="#137AB6"/>
<path d="M207.5 63.5C204.2 66.7 204.1 71.8 207.3 74.8C209.6 77 209.8 77 256.1 77H302.7L304.8 74.7C308 71.3 307.8 65.8 304.4 63.1C301.8 61 300.8 61 255.8 61H209.9L207.5 63.5Z" fill="#137AB6"/>
<path d="M345.995 74.5996C332.095 77.1996 319.995 83.7996 309.295 94.4996C302.595 101.3 300.395 104.4 296.695 112.1C291.595 122.9 290.095 128.1 289.395 138.8C288.795 147.6 290.595 159.4 293.995 168.3C296.595 175.1 304.395 187.1 309.395 191.9L312.995 195.4V218.7V242.1L315.495 244.5C316.795 245.9 318.795 247 319.795 247C320.895 247 329.995 244.5 339.995 241.4L358.395 235.8L376.895 241.5C404.795 250 403.995 250.7 403.995 218.8V196L410.095 188.8C416.895 180.6 423.195 168.6 425.595 159C427.895 149.7 427.095 129.9 424.095 121C417.095 100.7 401.295 84.6996 381.095 77.6996C373.695 75.0996 370.895 74.5996 360.495 74.3996C353.895 74.2996 347.395 74.3996 345.995 74.5996ZM369.195 91.0996C378.095 92.8996 388.595 98.6996 395.395 105.5C405.795 115.9 410.995 128.4 410.995 143C410.995 157.7 406.195 168.9 395.395 179.7C376.195 199.1 349.095 201.2 326.895 185C304.495 168.7 298.895 137 314.395 113.7C326.195 95.8996 348.295 86.7996 369.195 91.0996ZM335.095 207.9C351.195 213.6 369.095 213 386.595 206.3C387.695 205.9 387.995 207.8 387.995 216.8V227.7L373.095 223.2L358.295 218.7L343.595 223.2L328.995 227.7V216.9C328.995 210.9 329.095 206 329.295 206C329.395 206 331.995 206.9 335.095 207.9Z" fill="#137AB6"/>
<path d="M354.301 106.2C349.601 108.5 349.001 116.7 353.401 119.4C354.501 120.2 357.501 121.1 359.801 121.4C371.401 123.1 380.001 132.6 380.001 143.7C380.001 148.5 375.001 157.1 370.301 160.4C365.401 163.8 357.401 164.9 351.501 163C343.601 160.4 337.101 151.7 337.001 143.7C337.001 136 328.201 132 323.001 137.5C321.001 139.7 320.801 140.6 321.201 146.7C321.901 155.6 325.701 163.5 332.701 170.1C340.901 177.9 345.301 179.5 358.501 179.5C369.101 179.5 369.701 179.4 375.801 176.1C383.401 172 389.301 165.8 392.801 158.2C395.101 153.3 395.501 151.2 395.501 143C395.501 134.7 395.101 132.7 392.601 127.3C387.801 116.7 377.601 108.5 366.201 106.1C359.801 104.8 357.201 104.8 354.301 106.2Z" fill="#137AB6"/>
<path d="M123.9 111.9L121 114.9L121.2 177L121.5 239.2L123.9 241.1C126.1 242.9 128.7 243 188.6 243C249.7 243 251 243 253 241C255 239 255 237.7 255 176.2C255 113.5 255 113.3 252.9 111.4C250.9 109.6 248.1 109.5 188.8 109.2L126.9 109L123.9 111.9ZM239 176V227H188H137V176V125H188H239V176Z" fill="#137AB6"/>
<path d="M185.301 134C180.001 136.2 166.401 157.3 161.801 170.7C155.601 188.6 157.101 200.2 167.001 210.1C174.001 217.2 180.101 219.5 190.401 218.8C202.001 218 210.701 212.3 215.701 202.2C222.601 188 216.601 165.4 199.801 142.8C196.601 138.5 192.801 134.5 191.401 134C188.401 132.8 188.201 132.8 185.301 134ZM192.901 162C197.801 170.1 201.501 179.6 202.501 186C203.801 195.4 196.201 203.6 187.101 202.7C181.701 202.1 178.101 199.5 175.601 194.5C173.901 191.1 173.801 189.9 174.701 184.3C175.901 177.6 180.101 167.6 185.201 159.7C186.801 157.1 188.301 155 188.501 155C188.601 155 190.601 158.2 192.901 162Z" fill="#137AB6"/>
<path d="M124.303 264.5C120.203 267.4 120.503 274.3 124.903 277.7C126.103 278.7 151.003 278.9 233.603 279C337.303 279 340.903 278.9 343.103 277.1C346.403 274.4 346.403 267.6 343.103 264.9C340.903 263.1 337.303 263 233.603 263C139.903 263 126.203 263.2 124.303 264.5Z" fill="#137AB6"/>
<path d="M124.298 293.5C119.898 296.6 120.598 304.6 125.598 306.9C129.098 308.5 337.898 308.5 341.298 306.9C346.198 304.7 347.398 298.3 343.498 294.5L341.098 292H233.798C140.698 292 126.198 292.2 124.298 293.5Z" fill="#137AB6"/>
<path d="M124.107 322.7C123.007 323.7 121.707 325.9 121.407 327.7C120.907 330.4 121.307 331.4 123.807 334L126.807 337H232.907C308.507 337 339.607 336.7 341.307 335.9C346.007 333.8 347.307 327.9 343.907 323.6L341.907 321H234.007C132.807 321 126.107 321.1 124.107 322.7Z" fill="#137AB6"/>
<path d="M290.995 352.099C271.295 357.199 266.695 358.699 263.595 361.099C260.495 363.599 259.295 368.899 260.995 373.099C262.795 377.299 274.995 388.199 281.595 391.399C286.395 393.799 286.895 394.299 285.995 395.999C285.395 397.099 283.495 399.099 281.595 400.499C275.195 405.399 268.895 403.399 255.495 392.199C245.895 384.199 242.395 382.099 236.895 381.399C230.295 380.599 224.395 383.899 220.295 390.999C215.995 398.099 215.795 403.899 219.595 406.899C222.395 409.099 226.495 409.599 228.995 407.999C229.795 407.499 231.395 405.199 232.495 402.899C233.595 400.599 234.995 398.499 235.595 398.299C236.195 398.099 240.495 401.099 245.095 404.999C261.795 418.999 274.295 422.499 286.495 416.599C291.795 413.999 299.295 406.699 302.695 400.899C304.995 396.999 305.995 397.299 305.995 401.499C305.995 403.999 306.795 405.899 308.495 407.499C312.795 411.899 318.895 410.099 321.395 403.799C324.395 396.399 322.895 389.099 317.595 385.599L314.995 383.999L318.495 379.199C331.595 360.899 329.095 347.999 312.495 347.999C308.795 348.099 300.395 349.599 290.995 352.099ZM307.395 366.199C305.195 369.999 297.495 379.999 296.695 379.999C294.995 379.999 285.195 374.899 283.595 373.199C281.995 371.399 282.395 371.199 293.195 368.199C305.995 364.799 308.495 364.399 307.395 366.199Z" fill="#137AB6"/>
</svg>
