<svg width="512" height="512" viewBox="0 0 512 512" fill="none" xmlns="http://www.w3.org/2000/svg">
<path d="M59.4949 9.39956C34.0949 15.8995 15.5949 34.5995 9.39489 59.9995C7.39489 68.1995 7.59489 83.2995 9.99489 92.3995C15.1949 112.999 31.2949 130.999 50.9949 138.299C76.1949 147.799 104.095 141.799 122.895 122.899C130.795 115.099 136.095 106.399 139.695 95.4995C141.995 88.5995 142.295 85.7995 142.395 74.9995C142.395 63.8995 142.095 61.5995 139.595 54.4995C135.495 42.6995 131.595 36.3995 122.595 27.4995C108.895 13.8995 94.0949 7.89956 74.5949 8.09956C68.9949 8.09956 62.2949 8.69956 59.4949 9.39956ZM92.4949 23.3995C106.695 28.5995 117.695 37.8995 123.795 50.2995C134.895 72.3995 131.095 96.0995 113.595 113.599C91.6949 135.499 58.6949 135.599 36.8949 113.899C18.4949 95.6995 15.1949 67.3995 28.7949 46.3995C43.2949 24.2995 69.1949 14.8995 92.4949 23.3995Z" fill="#137AB6"/>
<path d="M72 45C72 48 71.5 49.2 70.3 49.6C63.3 51.8 59.6 57 60.3 63.8C60.9 69.3 64.4 73.1 72.5 77.2C80.7 81.3 83 83.6 83 87.7C83 90.4 82.4 91.4 79.8 93C75.6 95.5 71.7 95.5 66.1 93C63.7 91.9 61.6 91.1 61.6 91.2C61.1 92.1 59 97.1 59 97.4C59 98.2 67.2 101 69.5 101C71.8 101 72 101.4 72 105.5C72 109.8 72.1 110 75 110C77.9 110 78 109.8 78 105.7C78 101.7 78.3 101.3 81.3 100.2C83.1 99.5 85.9 97.6 87.6 95.9C90.2 93.2 90.5 92.2 90.5 86.5C90.5 80.8 90.2 79.8 87.5 77C85.9 75.3 81.3 72.4 77.3 70.5C73.4 68.7 69.7 66.2 69 65C67.5 62.1 68.5 58.4 71.2 56.9C73.3 55.8 83 56.1 86 57.4C87.1 57.9 87.9 57.1 88.8 54.8C89.4 53.1 89.8 51.4 89.5 51.2C89.2 50.9 86.9 50.2 84.3 49.5C79.8 48.4 79.5 48.1 79.2 44.6C78.9 41.2 78.7 41 75.4 41C72.1 41 72 41.1 72 45Z" fill="#137AB6"/>
<path d="M185.905 9.59927C175.905 12.5992 166.205 21.7992 162.305 31.9992C160.605 36.1992 160.505 46.1992 160.205 188.4L160.005 340.3L94.7044 339.9L29.4044 339.5L24.5044 342.5C19.0044 345.9 14.2044 352.4 10.9044 360.8C7.7044 368.6 7.5044 389.4 10.4044 398.3C13.2044 406.7 18.6044 413.9 25.0044 417.7L30.4044 421H95.2044H160.005V431.5V442H112.305C86.0044 442 64.0044 442.4 63.4044 442.8C60.7044 444.6 60.0044 447.8 61.0044 455.3C64.0044 479.3 81.2044 498.4 104.304 503.5C110.804 504.9 130.404 505 295.004 504.8L478.504 504.5L483.004 502.4C490.204 498.9 495.704 494.4 499.504 488.8C506.504 478.1 506.104 495.2 505.804 253.4L505.504 35.4992L502.304 28.8992C498.404 20.9992 492.104 14.8992 484.204 11.1992L478.504 8.49927L334.504 8.29927C212.004 8.19927 189.805 8.29927 185.905 9.59927ZM479.904 23.4992C485.604 26.6992 489.004 30.3992 491.504 36.2992C492.804 39.4992 493.004 64.1992 493.004 255.7C493.004 405.9 492.704 472.7 491.904 475.4C490.504 480.4 483.704 487.8 478.004 490.4L473.504 492.5L313.004 492.8L152.605 493L156.905 488.8C163.005 482.8 168.605 473.9 171.205 466.1C173.105 460.1 173.305 457.6 173.105 440.3L172.905 421H210.805H248.704L257.604 416.2C262.504 413.5 277.404 405.6 290.804 398.5C310.104 388.4 315.404 385.2 316.104 383.1C317.704 378.9 315.804 376.5 306.804 371.7C302.204 369.2 287.304 361 273.504 353.6L248.604 340H210.805H173.005V190.6C173.005 29.5992 172.805 37.3992 178.005 29.8992C180.405 26.5992 187.605 22.0992 192.305 20.9992C194.105 20.4992 258.304 20.2992 335.004 20.2992L474.504 20.4992L479.904 23.4992ZM65.0044 380.1V409.1L49.3044 408.8C31.9044 408.5 30.7044 408.1 26.0044 401.3C20.6044 393.5 19.0044 377.5 22.4044 366.8C24.6044 359.9 29.9044 353.4 34.3044 352.1C36.1044 351.6 43.7044 351.1 51.3044 351.1L65.0044 351V380.1ZM240.004 380.5V409H159.005H78.0044V380.5V352H159.005H240.004V380.5ZM295.404 381.1C295.204 381.5 288.304 385.3 280.204 389.5C272.104 393.8 262.704 398.8 259.304 400.7L253.004 404.2V380.7V357.2L274.404 368.8C286.204 375.2 295.704 380.7 295.404 381.1ZM159.705 458.5C157.905 469.7 148.105 481.9 136.205 487.7C128.705 491.4 128.405 491.5 117.005 491.5C105.905 491.5 105.204 491.4 98.5044 488.1C86.8044 482.3 76.6044 469.8 74.5044 458.7L73.8044 455H117.005H160.305L159.705 458.5Z" fill="#137AB6"/>
<path d="M317.7 49.7C316.8 50.7 315.3 54.9 314.3 59.1L312.7 66.8L308.1 68.6C302.9 70.5 294.9 75.1 290.7 78.6L287.9 80.9L281.3 78.5C273.6 75.5 270.9 75.4 268.8 77.7C265.5 81.4 256 99.6 256 102.2C256 104.2 257.4 106.1 261.8 109.9L267.5 114.9L267.4 129.5V144.1L261.7 149.4C257.9 152.9 256 155.4 256 157C256 159.4 263.6 174.2 267.7 179.7C270.6 183.7 273.1 183.8 281.5 180.6L287.4 178.3L295.1 183.5C299.3 186.4 304.9 189.5 307.7 190.4L312.7 192.1L314.4 199.9C316.7 210.9 316.8 211 333.3 211C349.3 211 349.2 211.1 351.1 199.4L352.2 192.2L357.7 190.1C362.4 188.3 366.2 186 375.5 179.5C377.3 178.3 378.2 178.4 383.4 180.6C390.4 183.4 394.1 183.6 396.2 181.2C399.2 177.7 409 159.3 409 157.1C409 155.6 407 153 403.3 149.5L397.5 144.2L397.6 129.5V114.8L403.3 109.6C407 106.2 409 103.5 409 102C409 99.8 399.2 81.2 396.2 77.7C394.2 75.4 391.4 75.5 383.6 78.5L377 81L371.8 77C368.9 74.8 363.3 71.6 359.4 69.8L352.2 66.6L351 59.2C349.2 48.2 348.8 48 332.7 48C321.5 48 319.2 48.3 317.7 49.7ZM339.7 68.4C340.4 72.2 341.5 75.9 342.2 76.5C342.9 77.2 346.4 78.7 350 80C357.5 82.6 361.8 85.2 368.4 90.9C371 93.2 373.9 95 374.9 95C375.8 95 379.4 93.9 382.8 92.6L389 90.1L391.6 95.2L394.2 100.3L388.5 105.6L382.7 110.9L383.6 115.2C384.7 120.8 384.7 138.2 383.6 143.8L382.7 148.2L388.4 153.4C391.5 156.3 394 158.9 394 159.2C394 159.5 392.9 161.8 391.5 164.3L388.9 168.9L382.3 166.4C378.7 165 374.9 164.2 373.9 164.5C372.9 164.9 369.6 167.2 366.8 169.6C361.3 174.3 351.9 179.3 346.3 180.5C342.1 181.4 341.2 182.7 339.9 189.6C338.2 199.4 338.5 199 332.5 199H327.2L325.4 191C323.5 182.2 323.2 181.9 315.1 179.4C310.5 178.1 303.2 173.7 294.3 166.9L290.1 163.7L283.1 166.3L276.1 168.8L273.5 164.5C272.1 162.1 271 159.8 271 159.3C271 158.9 273.5 156.2 276.6 153.3C281.6 148.8 282.2 147.8 281.7 145.3C278.8 131.8 278.8 127.5 281.6 114.2C282.2 111.2 281.9 110.6 276.4 105.5L270.5 100L273.2 95.3C274.7 92.6 276.3 90.6 276.7 90.7C277.1 90.8 280.3 91.9 283.7 93.1L290 95.4L294.2 92.2C304.2 84.8 310.1 81.2 315.6 79.5C318.9 78.5 322 77.3 322.7 76.8C323.4 76.3 324.4 73.3 325 70.2C327 60.3 326.5 60.9 332.8 61.2L338.4 61.5L339.7 68.4Z" fill="#137AB6"/>
<path d="M321.998 102.7C319.298 103.7 315.498 106.3 312.498 109.4C295.198 126.8 305.898 156 330.098 157.8C338.798 158.4 344.298 156.9 350.598 152.1C357.698 146.7 361.298 139.2 361.298 129.7C361.298 117.6 356.198 109.3 345.798 104.1C340.698 101.5 338.498 101 333.098 101.1C329.498 101.1 324.498 101.9 321.998 102.7ZM337.198 114.2C339.398 114.8 342.498 117 344.498 119.1C350.698 126 350.198 134.9 343.098 141.3C337.998 145.9 332.698 146.9 326.698 144.2C312.898 138.1 314.298 118.4 328.798 114C332.598 112.9 332.798 112.9 337.198 114.2Z" fill="#137AB6"/>
<path d="M203.598 240.6C201.698 242.4 201.498 248.1 203.198 249.8C204.098 250.7 234.198 251 332.498 251C455.398 251 460.798 250.9 462.298 249.2C464.498 246.8 464.398 242.7 462.198 240.7C460.498 239.1 450.098 239 332.698 239C218.098 239 204.998 239.2 203.598 240.6Z" fill="#137AB6"/>
<path d="M203.198 283.2C201.498 284.9 201.698 290.6 203.598 292.4C204.998 293.8 218.098 294 332.898 294C455.398 294 460.798 293.9 462.298 292.2C464.398 289.9 464.498 285.6 462.398 283.6C460.998 282.2 447.898 282 332.598 282C234.198 282 204.098 282.3 203.198 283.2Z" fill="#137AB6"/>
<path d="M293.196 325.6C291.696 326.6 290.996 328.1 290.996 330.5C290.996 337.4 286.196 337 377.696 337C458.696 337 459.996 337 461.996 335C463.096 333.9 463.996 331.9 463.996 330.5C463.996 329.1 463.096 327.1 461.996 326C459.996 324 458.696 324 377.696 324C304.896 324 295.196 324.2 293.196 325.6Z" fill="#137AB6"/>
<path d="M342.098 368.699C339.698 371.699 340.098 374.499 343.198 377.299C345.098 378.899 348.998 378.999 403.198 378.799C459.298 378.499 461.198 378.399 462.598 376.599C464.598 373.799 464.298 370.299 461.998 367.999C459.998 365.999 458.698 365.999 402.098 365.999H344.098L342.098 368.699Z" fill="#137AB6"/>
<path d="M292.696 410.8C290.596 413.1 290.496 417.4 292.596 419.4C293.996 420.8 302.996 421 377.396 421C456.796 421 460.796 420.9 462.296 419.2C464.496 416.8 464.396 412.7 462.196 410.7C460.496 409.1 453.196 409 377.296 409C298.196 409 294.196 409.1 292.696 410.8Z" fill="#137AB6"/>
<path d="M204.999 452.3C201.799 453.9 200.999 459.3 203.599 462.1C205.299 463.9 208.699 464 332.699 464C458.699 464 459.999 464 461.999 462C464.299 459.7 464.599 456.2 462.599 453.4C461.199 451.5 458.599 451.5 334.299 451.3C233.699 451.1 206.999 451.3 204.999 452.3Z" fill="#137AB6"/>
<path d="M63.4015 175.9C49.3015 178.2 37.4015 184.4 27.0015 194.9C18.3015 203.6 13.2015 212.5 9.90147 224.5C7.10147 234.9 7.50147 252.1 10.9015 262C17.6015 281.6 33.5015 297.5 53.0015 304C62.2015 307.1 78.3015 307.8 88.5015 305.5C112.102 300.3 131.002 282 137.602 258C140.402 247.8 140.002 231.7 136.702 221.5C129.602 199.8 112.402 183.2 90.7015 177.4C84.1015 175.6 70.0015 174.9 63.4015 175.9ZM86.3015 189.6C105.202 194.5 120.602 209.8 125.402 228.6C133.802 261.2 107.902 294.4 74.0015 294.4C42.0015 294.4 16.5015 265.7 20.9015 234.6C25.2015 203.3 56.4015 181.8 86.3015 189.6Z" fill="#137AB6"/>
<path d="M51.3 209.499C46.5 211.599 44 216.299 44 223.299C44 233.299 49 238.399 58.6 238.399C67.8 238.399 72.5 233.399 72.5 223.399C72.5 218.699 72 216.499 70.4 214.299C66.2 208.599 58.1 206.499 51.3 209.499ZM62.1 217.099C63.8 218.799 64.1 220.099 63.7 223.699C63.2 228.699 62.6 229.599 59 230.499C54.9 231.499 52.7 228.999 52.7 223.499C52.7 219.699 53.1 218.299 54.9 216.799C57.9 214.499 59.5 214.499 62.1 217.099Z" fill="#137AB6"/>
<path d="M83.6 217.8C73.2 234.4 55 264.4 55 265C55 265.4 56.2 266.6 57.7 267.5C60.2 269.2 60.4 269.2 61.7 267.4C63.8 264.5 91 220.3 91.5 218.8C91.8 218.1 90.7 216.7 89 215.8L86 214.1L83.6 217.8Z" fill="#137AB6"/>
<path d="M82.3 245.499C77.5 247.599 75 252.299 75 259.499C75 270.199 80.9 275.699 91.3 274.699C99.8 273.899 105 266.199 103.5 256.399C102 246.399 92 241.199 82.3 245.499ZM94 253.899C95.7 257.199 95.2 262.799 93 264.999C90.8 267.199 87 267.599 85.2 265.799C83.4 263.999 83.7 255.499 85.6 253.599C87.8 251.299 92.7 251.599 94 253.899Z" fill="#137AB6"/>
</svg>
