<svg width="512" height="512" viewBox="0 0 512 512" fill="none" xmlns="http://www.w3.org/2000/svg">
<g clip-path="url(#clip0_363_4328)">
<mask id="mask0_363_4328" style="mask-type:luminance" maskUnits="userSpaceOnUse" x="0" y="0" width="512" height="512">
<path d="M512 0H0V512H512V0Z" fill="white"/>
</mask>
<g mask="url(#mask0_363_4328)">
<path d="M17.4 2.4C10.9 5.4 5.4 10.9 2.4 17.4L0 22.5V256V489.5L2.4 494.6C5.4 501.1 10.9 506.6 17.4 509.6L22.5 512H257H491.5L496.5 509.6C502.8 506.7 506.7 502.8 509.6 496.5L512 491.5V370.4C512 281.4 511.7 248.4 510.8 245.9C507.8 236.9 499.3 229.8 489.6 228.1C481.4 226.6 330.6 226.6 322.4 228.1C312.7 229.8 304.2 236.9 301.2 245.9C300.3 248.4 300 281.5 300 370.7V492L163.8 491.8C15.9 491.5 24.9 491.8 21.8 486.1C19.9 482.5 19.9 29.5 21.8 25.9C24.9 20.2 15.4 20.5 170.3 20.2L313 20V54.2C313 88.2 313 88.5 315.4 93.6C318.5 100.2 323.9 105.6 330.9 108.9L336.5 111.5L370.3 111.8L404 112.2V155.1V198.1L406.4 200.5C410.9 205 417.1 205 421.6 200.5L424 198.1V147.3V96.5L375.7 48.3L327.5 0H175H22.5L17.4 2.4ZM367.8 90.8C343.8 91.2 340 90.7 336.7 87.4C333.3 84 333 81.7 333 57.1V35.5L360.5 63L388 90.5L367.8 90.8ZM486.8 249.1C489.2 249.9 490.2 251.1 491 253.8C491.8 256.3 492 293.6 491.8 372.2L491.5 486.9L489.2 489.2L486.9 491.5H406H325.1L322.8 489.2L320.5 486.9L320.2 372.2C320 293.3 320.2 256.4 321 253.8C321.7 251.2 322.8 249.9 324.8 249.2C328.7 247.7 482.7 247.6 486.8 249.1Z" fill="#137AB6"/>
<path d="M347.3 267.7C346.1 267.9 344 269.3 342.6 270.7L340 273.3V297.9V322.6L342.8 325.3L345.6 328H406.1H466.6L469.3 325.2L472 322.4V297.8V273.3L469.5 270.8C468.1 269.4 465.6 268 463.9 267.6C460.5 266.9 350.8 267 347.3 267.7ZM452 297.5V307H406H360V297.5V288H406H452V297.5Z" fill="#137AB6"/>
<path d="M347.298 355.7C340.198 357.1 337.397 367.7 342.697 373.2C345.297 375.9 345.698 376 355.998 376C366.298 376 366.698 375.9 369.298 373.2C374.998 367.3 371.798 357.2 363.898 355.6C360.498 355 350.898 355 347.298 355.7Z" fill="#137AB6"/>
<path d="M397.298 355.7C390.198 357.1 387.397 367.7 392.697 373.2C395.297 375.9 395.698 376 405.998 376C416.298 376 416.698 375.9 419.298 373.2C424.998 367.3 421.798 357.2 413.898 355.6C410.498 355 400.898 355 397.298 355.7Z" fill="#137AB6"/>
<path d="M447.298 355.7C440.198 357.1 437.397 367.7 442.697 373.2C445.297 375.9 445.698 376 455.998 376C466.298 376 466.698 375.9 469.298 373.2C474.998 367.3 471.798 357.2 463.898 355.6C460.498 355 450.898 355 447.298 355.7Z" fill="#137AB6"/>
<path d="M347.298 403.7C340.198 405.1 337.397 415.7 342.697 421.2C345.297 423.9 345.698 424 355.998 424C366.298 424 366.698 423.9 369.298 421.2C374.998 415.3 371.798 405.2 363.898 403.6C360.498 403 350.898 403 347.298 403.7Z" fill="#137AB6"/>
<path d="M397.298 403.7C390.198 405.1 387.397 415.7 392.697 421.2C395.297 423.9 395.698 424 405.998 424C416.298 424 416.698 423.9 419.298 421.2C424.998 415.3 421.798 405.2 413.898 403.6C410.498 403 400.898 403 397.298 403.7Z" fill="#137AB6"/>
<path d="M447.298 403.7C440.198 405.1 437.397 415.7 442.697 421.2C445.297 423.9 445.698 424 455.998 424C466.298 424 466.698 423.9 469.298 421.2C474.998 415.3 471.798 405.2 463.898 403.6C460.498 403 450.898 403 447.298 403.7Z" fill="#137AB6"/>
<path d="M347.298 451.7C340.198 453.1 337.397 463.7 342.697 469.2C345.297 471.9 345.698 472 355.998 472C366.298 472 366.698 471.9 369.298 469.2C374.998 463.3 371.798 453.2 363.898 451.6C360.498 451 350.898 451 347.298 451.7Z" fill="#137AB6"/>
<path d="M397.298 451.7C390.198 453.1 387.397 463.7 392.697 469.2C395.297 471.9 395.698 472 405.998 472C416.298 472 416.698 471.9 419.298 469.2C424.998 463.3 421.798 453.2 413.898 451.6C410.498 451 400.898 451 397.298 451.7Z" fill="#137AB6"/>
<path d="M447.298 451.7C440.198 453.1 437.397 463.7 442.697 469.2C445.297 471.9 445.698 472 455.998 472C466.298 472 466.698 471.9 469.298 469.2C474.998 463.3 471.798 453.2 463.898 451.6C460.498 451 450.898 451 447.298 451.7Z" fill="#137AB6"/>
<path d="M61.3038 119.701C54.0038 121.101 51.4038 131.601 56.9038 137.101C59.8038 139.901 60.1038 140.001 69.9038 140.001H79.9038L80.2038 179.601L80.5038 219.201L83.8038 222.101C87.4038 225.301 91.5038 225.801 95.9038 223.601C100.904 221.001 101.004 219.801 101.004 178.501V140.001H111.404C120.904 140.001 121.904 139.801 124.304 137.601C127.704 134.401 128.704 129.201 126.504 125.001C123.604 119.401 121.204 119.001 90.8038 119.101C75.8038 119.201 62.5038 119.501 61.3038 119.701Z" fill="#137AB6"/>
<path d="M232.205 121C228.405 123.3 226.605 127.2 227.305 131.5C227.605 133.1 233.005 142.7 239.405 152.8C245.805 162.8 251.105 171.4 251.305 171.8C251.405 172.3 246.205 180.9 239.805 191.1C233.305 201.3 227.705 211.1 227.405 212.8C225.305 223.2 239.205 229.4 245.705 221.1C246.405 220.2 250.905 213.3 255.705 205.7L264.305 191.9L268.605 198.7C285.005 224.9 285.105 225 292.005 225C295.905 225 300.805 220.7 301.605 216.6C302.305 212.4 301.705 211.3 287.805 189.4L276.905 172.2L288.905 153.3C295.605 142.9 301.205 133 301.605 131.3C303.005 124.3 295.505 117.7 288.605 120C284.205 121.4 282.605 123.3 273.505 138C269.205 144.9 265.405 150.9 265.005 151.3C264.605 151.8 260.005 145.5 254.905 137.5C249.805 129.4 244.705 122.2 243.505 121.5C239.605 119 235.705 118.9 232.205 121Z" fill="#137AB6"/>
<path d="M167.202 121.6C164.202 123.7 164.002 124.1 144.402 170.4C127.102 210.9 125.602 215.6 128.002 220.1C129.402 222.6 134.202 225 137.902 225C142.302 225 145.602 221.5 149.502 212.5L152.902 204.5L172.802 204.2L192.602 204L195.902 212C198.002 216.9 200.402 221 202.202 222.5C208.902 228.2 219.002 223.3 219.002 214.5C219.002 213.2 210.602 192.2 200.302 167.9C183.902 129.3 181.102 123.4 178.502 121.8C174.802 119.6 170.202 119.5 167.202 121.6ZM178.502 170.8C181.102 177 183.002 182.3 182.702 182.6C182.502 182.9 177.802 182.9 172.302 182.8L162.402 182.5L167.402 170.3C170.202 163.6 172.802 158.4 173.102 158.8C173.502 159.2 175.902 164.6 178.502 170.8Z" fill="#137AB6"/>
<path d="M57.6 272.6C55.5 274.7 55 276.2 55 280C55 286.6 58.4 290 65 290C68.8 290 70.3 289.5 72.4 287.4C76.1 283.6 76.1 276.4 72.4 272.6C70.3 270.5 68.8 270 65 270C61.2 270 59.7 270.5 57.6 272.6Z" fill="#137AB6"/>
<path d="M101.595 272.6C97.8954 276.4 97.8954 283.6 101.595 287.4L104.295 290H187.995H271.695L274.395 287.4C278.095 283.6 278.095 276.4 274.395 272.6L271.695 270H187.995H104.295L101.595 272.6Z" fill="#137AB6"/>
<path d="M56.6 328.6C54.5 330.7 54 332.2 54 336C54 339.8 54.5 341.3 56.6 343.4L59.3 346H165.5H271.7L274.4 343.4C276.5 341.3 277 339.8 277 336C277 332.2 276.5 330.7 274.4 328.6L271.7 326H165.5H59.3L56.6 328.6Z" fill="#137AB6"/>
<path d="M57.6 384.6C55.5 386.7 55 388.2 55 392C55 398.6 58.4 402 65 402C68.8 402 70.3 401.5 72.4 399.4C74.5 397.3 75 395.8 75 392C75 385.4 71.6 382 65 382C61.2 382 59.7 382.5 57.6 384.6Z" fill="#137AB6"/>
<path d="M101.595 384.6C97.8954 388.4 97.8954 395.6 101.595 399.4L104.295 402H187.995H271.695L274.395 399.4C278.095 395.6 278.095 388.4 274.395 384.6L271.695 382H187.995H104.295L101.595 384.6Z" fill="#137AB6"/>
<path d="M57.6 440.6C55.5 442.7 55 444.2 55 448C55 451.8 55.5 453.3 57.6 455.4L60.3 458H166H271.7L274.4 455.4C278.1 451.6 278.1 444.4 274.4 440.6L271.7 438H166H60.3L57.6 440.6Z" fill="#137AB6"/>
</g>
</g>
<defs>
<clipPath id="clip0_363_4328">
<rect width="512" height="512" fill="white"/>
</clipPath>
</defs>
</svg>
