<svg width="389" height="389" viewBox="0 0 389 389" fill="none" xmlns="http://www.w3.org/2000/svg">
<g clip-path="url(#clip0_363_4424)">
<mask id="mask0_363_4424" style="mask-type:luminance" maskUnits="userSpaceOnUse" x="0" y="0" width="389" height="389">
<path d="M389 0H0V389H389V0Z" fill="white"/>
</mask>
<g mask="url(#mask0_363_4424)">
<path d="M56.071 0.759765C55.919 1.21563 55.7671 2.43125 55.6151 3.34297C55.6151 4.40665 54.5515 5.31836 53.4878 5.31836C51.9682 5.31836 51.6643 36.9246 51.6643 164.413V323.66H27.8077C14.5878 323.66 2.88739 324.268 1.82371 325.028C-1.21535 326.851 -0.151676 374.564 2.88739 374.564C4.10301 374.564 5.31864 375.476 5.77449 376.692C6.23035 377.907 5.7745 378.363 4.71082 377.755C1.67176 375.78 2.88739 377.755 7.90184 382.314C10.485 384.745 12.1565 385.809 11.3968 384.593C10.637 383.226 10.9409 382.77 12.3085 383.226C13.5241 383.682 14.4358 384.897 14.4358 386.113C14.4358 387.936 35.1015 388.24 158.032 388.24C280.962 388.24 301.627 387.936 301.627 386.113C301.627 384.897 302.539 383.682 303.755 383.226C305.122 382.77 305.426 383.226 304.818 384.593C304.21 385.809 306.186 383.986 309.073 380.795C312.112 377.452 314.543 374.109 314.543 373.197C314.543 372.285 312.872 374.109 310.744 377.3C308.617 380.339 306.49 382.922 306.034 382.922C305.73 382.922 307.25 380.035 309.529 376.54L313.783 370.31L314.239 329.738L314.695 289.319L323.508 287.647C342.958 284 366.815 267.589 376.388 251.179C378.364 247.532 380.795 244.948 381.555 245.556C382.314 246.012 382.466 245.1 381.858 243.733C381.099 241.757 381.403 241.454 382.922 242.365C384.29 243.125 384.594 242.973 383.834 241.757C383.226 240.846 383.53 237.655 384.594 234.768C385.657 231.729 387.025 230.209 387.633 231.121C388.089 232.032 388.696 220.636 388.696 205.896C388.696 191.157 388.089 179.761 387.633 180.672C387.025 181.584 385.657 180.064 384.594 177.025C383.53 174.138 383.226 170.947 383.834 170.036C384.594 168.82 384.29 168.668 382.922 169.428C381.403 170.339 381.099 170.036 381.858 168.06C382.466 166.693 382.314 165.781 381.555 166.237C380.795 166.845 378.364 164.261 376.388 160.614C370.766 151.041 354.203 136.302 342.958 130.68C337.64 128.096 328.979 125.209 323.964 124.146L314.543 122.322V66.7074C314.543 36.0129 314.087 9.72501 313.48 8.20547C312.72 6.23008 313.024 5.92618 314.695 6.8379C315.911 7.59766 315.151 6.23008 313.176 4.10274C309.377 0 307.553 -1.21562 309.225 1.51954C310.137 3.03907 306.034 2.58321 299.652 0.607812C298.436 0.303906 294.637 2.12735 290.991 4.5586C287.344 7.1418 283.849 9.11719 283.089 9.11719C282.329 9.11719 279.138 7.29376 275.947 5.01446C271.692 2.2793 267.438 0.911719 261.208 0.455859C253.002 -0.303906 251.939 0 242.973 6.23008C233.552 12.6121 233.552 12.6121 228.842 10.0289C226.258 8.66133 222.46 6.07813 220.332 4.40665C216.837 1.36758 216.837 1.36758 221.852 4.40665C233.096 11.3965 232.944 11.3965 241.758 5.47032C246.316 2.43125 249.355 0 248.748 0C247.988 0 244.493 1.9754 240.846 4.5586C237.199 6.98985 233.704 9.11719 232.944 9.11719C232.185 9.11719 228.994 7.29376 225.803 5.01446C217.293 -0.607813 204.073 -1.67148 197.539 3.03907C195.108 4.8625 192.373 5.92618 191.613 5.31836C190.853 4.8625 189.638 5.31836 189.03 6.23008C188.27 7.44571 188.574 7.59766 190.094 6.8379C191.917 5.62227 191.917 5.92618 190.246 8.05352C186.295 12.764 182.648 12.6121 174.746 7.59766C170.492 4.8625 167.149 2.43125 167.149 1.9754C167.149 1.51954 169.428 2.73516 172.163 4.5586C180.976 10.3328 183.712 11.3965 185.839 9.26915C187.207 7.74961 187.055 7.59766 184.927 8.50938C183.256 9.11719 179.913 7.90157 175.81 5.16641C170.492 1.51954 167.757 0.759765 158.487 0.607812C151.801 0.455859 147.699 0.911719 147.851 1.82344C148.003 2.73516 147.243 3.79883 146.027 4.25469C144.66 4.71055 144.356 4.25469 145.116 3.03907C145.875 1.67149 145.723 1.36758 144.508 2.12735C143.596 2.73516 143.14 3.79883 143.596 4.5586C144.052 5.16641 141.924 7.29376 138.885 9.11719C134.327 12.0043 132.807 12.3082 129.768 10.7887C127.641 9.87696 126.273 8.50938 126.881 7.74961C127.337 6.98985 126.881 5.77422 125.969 5.16641C124.754 4.40665 124.602 4.71055 125.362 6.07813C126.121 7.29376 125.817 7.74961 124.45 7.29376C123.234 6.8379 122.323 5.77422 122.323 4.8625C122.323 4.10274 121.715 2.73516 120.955 1.9754C120.195 1.21563 120.043 1.67149 120.803 2.88711C121.563 4.25469 121.259 4.71055 119.891 4.25469C118.676 3.79883 117.916 2.73516 118.068 1.82344C118.22 0.911719 114.117 0.455859 107.431 0.607812C98.162 0.759765 95.4268 1.51954 90.1085 5.16641C86.0057 7.90157 82.6628 9.11719 80.9913 8.50938C78.8639 7.59766 78.712 7.74961 80.0796 9.26915C82.2069 11.3965 84.9421 10.3328 93.9073 4.5586C96.4905 2.73516 98.7698 1.51954 98.7698 1.9754C98.7698 2.43125 95.4268 4.8625 91.1722 7.59766C83.2706 12.6121 79.6237 12.764 75.6729 8.05352C74.0015 5.92618 74.0015 5.62227 75.8249 6.8379C77.1925 7.59766 77.6483 7.44571 76.8886 6.38204C76.2807 5.47032 74.9132 5.01446 73.8495 5.47032C72.6339 5.92618 71.2663 5.47032 70.5065 4.40665C69.7468 3.19102 70.0507 2.88711 71.4182 3.79883C72.6339 4.5586 73.0897 4.40665 72.33 3.34297C71.7222 2.43125 70.2026 2.12735 68.835 2.58321C67.1636 3.19102 66.7077 3.03907 67.4675 1.82344C68.0753 0.759765 67.7714 0.303906 66.5557 0.607812C60.1737 2.58321 56.071 3.03907 56.9827 1.51954C57.4386 0.759765 57.5905 0 57.1347 0C56.6788 0 56.071 0.303906 56.071 0.759765ZM280.658 9.42109C283.241 10.6367 285.064 10.1808 290.687 6.23008C294.485 3.64688 298.132 1.51954 298.892 1.51954C299.5 1.51954 296.309 3.95079 291.902 6.98985C283.697 12.4601 283.545 12.6121 278.986 10.0289C276.403 8.66133 272.604 6.07813 270.477 4.40665C266.982 1.36758 266.982 1.36758 271.996 4.40665C274.883 6.23008 278.834 8.50937 280.658 9.42109ZM118.22 18.9941C131.288 27.8074 134.631 27.8074 147.851 18.9941L158.032 12.0043L167.453 18.5383C173.227 22.3371 179.609 25.2242 183.408 25.832C187.055 26.4398 189.638 26.5918 189.182 26.1359C187.966 24.9203 198.907 17.9305 200.426 18.9941C201.338 19.45 202.402 18.9941 203.01 18.0824C203.617 16.8668 203.466 16.7148 202.402 17.3226C198.907 19.45 200.73 16.7148 204.225 14.2836C207.872 12.0043 208.328 12.1562 217.597 18.3863C226.562 24.4644 240.39 28.8711 239.63 25.3762C239.478 24.6164 240.238 23.5527 241.454 23.0969C242.821 22.641 243.125 23.0969 242.366 24.4644C241.606 25.6801 241.758 26.1359 242.517 25.3762C243.277 24.6164 243.885 23.2488 243.885 22.489C243.885 21.5773 244.797 20.5137 246.012 20.0578C247.38 19.6019 247.684 20.0578 246.924 21.4254C246.164 22.641 246.316 23.0969 247.076 22.3371C247.836 21.5773 248.444 20.2098 248.444 19.45C248.444 18.5383 249.355 17.4746 250.571 17.0187C251.939 16.5629 252.242 17.0187 251.483 18.2344C250.723 19.6019 250.875 19.9058 252.091 19.1461C253.002 18.5383 253.458 17.4746 253.002 16.7148C251.939 14.8914 257.865 11.7004 259.84 12.916C260.752 13.5238 261.056 14.4355 260.6 15.1953C260.144 15.9551 260.6 17.0187 261.512 17.6265C262.727 18.3863 262.879 18.0824 262.119 16.7148C261.36 15.4992 261.664 15.0433 263.031 15.4992C264.247 15.9551 265.158 17.0187 265.158 17.7785C265.158 18.6902 265.766 20.0578 266.526 20.8176C267.286 21.5773 267.438 21.1215 266.678 19.9058C265.918 18.5383 266.222 18.0824 267.59 18.5383C268.805 18.9941 269.717 20.0578 269.717 20.8176C269.717 21.7293 270.325 23.0969 271.085 23.8566C271.844 24.6164 271.996 24.3125 271.389 23.0969C270.021 20.8176 272.3 20.6656 274.732 23.0969C276.555 24.9203 290.535 27.5035 289.471 25.832C289.015 25.2242 291.446 22.9449 294.789 20.6656L300.867 16.7148V69.1387V121.562L296.765 122.322C282.937 125.209 273.212 128.248 266.07 132.199C261.664 134.63 257.409 136.454 256.801 135.998C256.193 135.542 254.674 136.454 253.61 137.973C251.635 140.405 251.787 140.405 254.522 138.277C256.801 136.606 256.649 137.214 253.914 140.253C250.115 144.507 245.86 146.179 249.203 142.076C253.002 137.518 249.659 139.949 244.493 145.419C241.758 148.458 240.542 150.13 242.062 149.066C246.164 145.875 245.101 148.762 240.086 154.536C228.994 167.148 222.612 185.687 222.612 205.896C222.612 226.106 228.994 244.645 240.086 257.257C244.949 262.727 246.164 266.07 242.366 262.879C237.807 259.08 240.238 262.423 245.708 267.589C248.748 270.325 250.419 271.54 249.355 270.021C246.012 265.766 249.811 266.982 253.914 271.54C256.649 274.579 256.801 275.187 254.522 273.516C251.787 271.388 251.635 271.388 253.61 273.82C254.674 275.339 256.193 276.099 256.953 275.795C257.561 275.339 261.816 277.011 266.222 279.442C273.364 283.393 283.393 286.736 296.765 289.471L300.867 290.23V328.067C300.867 363.32 300.716 366.055 297.828 369.55C290.991 378.363 278.226 378.819 271.237 370.462C267.286 365.903 267.286 365.295 267.59 346.149C267.894 328.979 267.59 326.243 265.158 323.964C263.487 322.293 262.879 322.141 263.639 323.508C264.551 325.18 264.247 325.484 262.271 324.724C260.752 324.116 215.318 323.508 161.375 323.356L63.0608 322.9L162.59 322.141L262.119 321.381L163.806 320.925L65.3401 320.621L65.0362 168.668C64.7323 85.0937 64.7323 16.7148 65.0362 16.7148C66.2518 16.7148 77.1925 25.5281 76.7366 26.1359C76.2807 26.5918 78.8639 26.4398 82.5108 25.832C86.4616 25.2242 92.5397 22.489 98.01 18.5383C103.024 15.1953 107.279 12.3082 107.583 12.3082C107.735 12.1562 112.598 15.1953 118.22 18.9941ZM322.901 137.518C350.708 144.811 370.918 166.996 375.628 195.26C380.339 223.219 365.144 254.066 340.527 267.134C312.112 282.329 281.417 278.682 258.321 257.257C243.277 243.429 235.528 225.802 235.528 205.896C235.528 186.143 243.125 168.82 257.865 154.84C275.643 137.973 299.804 131.591 322.901 137.518ZM253.762 351.316C253.762 359.369 254.37 367.727 255.282 369.854C256.041 371.981 256.193 373.653 255.585 373.653C254.978 373.501 203.617 373.653 141.317 373.957L28.1116 374.564L143.596 375.324L259.08 376.084L143.596 376.54C34.1897 376.844 27.8077 376.692 22.9452 374.109C15.0436 369.854 12.1565 363.168 12.1565 348.732V336.576H132.959H253.762V351.316Z" fill="#137AB6"/>
<path d="M97.252 20.6662C91.6297 24.465 85.5516 27.5041 82.8164 27.5041L78.2578 27.808L82.6645 28.4158C85.8555 28.8717 89.5023 27.3522 97.4039 22.1858L107.889 15.1959L118.07 22.0338C131.289 30.8471 134.632 30.8471 147.852 22.0338L158.033 15.1959L168.214 22.0338C175.204 26.5924 180.066 28.8717 183.105 28.7197C187.512 28.5678 187.512 28.5678 182.346 27.5041C179.307 26.8963 172.773 23.5533 167.454 20.0584L158.033 13.5244L147.852 20.5143C134.632 29.3275 131.289 29.3275 118.221 20.5143C112.599 16.7154 107.737 13.6764 107.585 13.8283C107.281 13.8283 102.722 16.8674 97.252 20.6662Z" fill="#137AB6"/>
<path d="M205.746 15.4997C205.138 16.5634 205.29 16.7153 206.354 16.1075C207.266 15.4997 212.736 18.235 218.358 22.0338C225.348 26.5924 230.059 28.8717 233.25 28.7197C237.656 28.5678 237.656 28.5677 232.49 27.504C229.451 26.8962 222.917 23.5532 217.75 20.0583C207.266 12.9165 207.266 12.9165 205.746 15.4997Z" fill="#137AB6"/>
<path d="M295.241 22.3371C293.722 23.8566 293.114 24.6164 293.874 23.8566C294.786 23.2488 296.001 22.793 296.609 22.793C297.217 22.793 297.977 44.8262 298.281 71.7219L298.584 120.803L299.04 70.2023C299.192 42.5469 299.04 19.7539 298.736 19.7539C298.432 19.7539 296.913 20.9695 295.241 22.3371Z" fill="#137AB6"/>
<path d="M275.647 26.4395C277.319 27.807 280.813 28.7188 283.245 28.7188C287.955 28.5668 287.955 28.5668 282.637 27.5031C279.598 26.8953 276.255 25.8316 275.039 25.2238C273.824 24.616 274.128 25.2238 275.647 26.4395Z" fill="#137AB6"/>
<path d="M120.955 45.1306C143.596 45.5864 147.395 46.0423 149.066 48.3216C150.889 50.6009 150.889 50.6009 148.762 49.0814C147.243 47.8657 137.973 47.106 119.283 47.106C94.8188 46.8021 91.9316 47.106 90.1082 49.5372C89.0445 51.0568 88.1328 53.0321 88.1328 53.7919C88.2848 54.7036 89.3484 53.64 90.5641 51.2087C93.6031 45.4345 94.5148 46.0423 91.9316 52.2724C89.9563 56.9829 89.9563 57.5907 92.9953 60.1739C94.8188 61.8454 95.7305 62.1493 94.9707 60.9337C94.059 59.2622 94.3629 58.9583 96.3383 59.7181C97.8578 60.3259 102.416 60.7818 106.519 60.7818H114.117L113.965 92.8439C113.813 121.411 113.965 125.361 116.396 127.489C117.764 128.856 118.523 129.008 117.916 127.945C116.548 125.665 117.764 125.665 121.866 127.793C123.69 128.704 124.602 128.856 123.994 127.945C123.082 126.425 127.337 122.018 129.008 122.778C129.464 122.93 129.92 109.254 129.92 92.388L130.072 61.5415L129.16 92.6919L128.248 123.842L127.945 91.9322L127.641 60.022L137.366 60.7818C142.684 61.2376 146.787 61.0857 146.483 60.4779C145.723 59.4142 148.762 56.9829 151.193 56.9829C151.953 56.9829 152.865 55.6154 153.017 53.9439L153.473 50.9048L151.953 53.9439C150.586 56.679 150.586 56.5271 150.889 53.0321C151.497 44.6747 149.522 44.0669 120.955 44.3708L94.9707 44.6747L120.955 45.1306Z" fill="#137AB6"/>
<path d="M161.22 46.1937C159.852 47.7132 159.244 59.5656 159.092 86.1574L158.941 123.842L158.029 87.373L157.117 50.9042L157.269 87.373C157.269 107.431 157.725 123.538 158.181 123.082C159.396 122.17 164.259 126.121 163.499 127.489C163.195 127.945 169.881 128.097 178.391 127.641C194.801 126.881 199.816 124.906 204.375 117.916C206.35 114.877 206.654 109.558 206.35 86.4613C206.046 71.114 205.286 57.1343 204.526 55.6148C203.463 53.3355 203.615 52.8796 205.286 53.9433C206.502 54.7031 206.046 53.6394 204.375 51.816C198.904 45.4339 194.042 44.0664 178.087 44.0664C166.842 44.0664 162.435 44.6742 161.22 46.1937ZM198.752 48.6249C201.335 50.2964 203.615 51.9679 203.615 52.4238C203.615 52.7277 201.335 51.816 198.752 50.1445C194.65 47.7132 191.003 47.1054 178.542 47.1054C168.362 47.1054 162.435 47.7132 161.068 48.9289C159.244 50.6003 159.244 50.4484 160.916 48.1691C164.107 44.0664 191.762 44.3703 198.752 48.6249ZM192.674 86.9171L192.218 113.205L182.797 113.661L173.224 114.117V87.373V60.7812H183.101H192.978L192.674 86.9171Z" fill="#137AB6"/>
<path d="M175.046 86.9172L174.742 112.445H183.1C187.658 112.445 191.457 111.989 191.457 111.23C191.457 110.622 188.114 110.47 183.859 110.622L176.414 111.23L175.806 86.3094L175.35 61.541L175.046 86.9172Z" fill="#137AB6"/>
<path d="M240.537 45.1297C244.488 45.4336 250.718 45.4336 254.213 45.1297C257.708 44.8258 254.517 44.6738 246.919 44.6738C239.473 44.6738 236.586 44.8258 240.537 45.1297Z" fill="#137AB6"/>
<path d="M246.928 47.4089C226.87 48.7765 225.502 49.0804 221.704 52.5753C218.057 55.7663 214.258 62.6042 214.258 65.6433C214.258 66.7069 215.625 64.8835 217.145 61.5405C218.665 58.1976 221.552 54.0948 223.527 52.4233C226.718 49.6882 226.566 49.9921 223.071 54.3987C214.106 65.3394 214.714 77.6476 224.743 86.9167C229.453 91.3233 232.34 92.8429 238.418 93.6026C249.967 95.1222 254.677 103.935 247.688 110.925C245.104 113.508 242.825 113.964 232.188 113.66L219.576 113.356L231.733 112.445L243.889 111.381L231.733 111.533C225.047 111.685 219.88 111.989 220.336 112.445C220.792 112.9 219.424 115.484 217.449 118.219C214.258 122.777 214.106 123.537 216.233 125.664C217.905 127.488 222.311 127.944 234.772 128.096C248.599 128.096 251.486 127.64 254.981 125.057C259.388 121.714 265.922 113.052 265.922 110.317C265.922 109.405 264.402 111.381 262.427 114.724C258.932 120.954 250.575 127.64 246.32 127.64C245.104 127.64 247.08 126.12 250.727 124.145C263.187 117.915 267.897 101.656 260.148 91.3233C255.741 85.2452 247.84 80.5347 242.065 80.5347C234.924 80.5347 228.693 74.4565 230.213 68.6823C230.669 66.403 232.036 63.8198 232.948 62.7562C235.227 60.6288 261.515 59.4132 260.148 61.5405C259.692 62.3003 260.756 61.8444 262.579 60.173C265.618 57.5898 265.618 56.9819 263.643 52.2714C261.059 46.0413 261.971 45.4335 265.01 51.2077C266.226 53.639 267.29 54.7026 267.442 53.7909C267.442 52.7273 266.226 50.7519 264.858 49.0804C262.427 46.4972 260.604 46.3452 246.928 47.4089Z" fill="#137AB6"/>
<path d="M208.176 87.0691C208.176 109.71 207.72 115.484 205.745 118.523L203.312 122.322L206.505 118.675C209.544 115.332 209.696 113.357 209.696 87.2211C209.696 71.8738 209.392 59.2617 208.936 59.2617C208.48 59.2617 208.176 71.7219 208.176 87.0691Z" fill="#137AB6"/>
<path d="M111.531 91.9313C111.531 108.646 111.835 115.636 111.987 107.582C112.291 99.5289 112.291 85.8532 111.987 77.1918C111.835 68.5305 111.531 75.2164 111.531 91.9313Z" fill="#137AB6"/>
<path d="M234.01 63.8213C230.364 66.1006 232.947 66.5565 237.049 64.2772C239.177 63.2135 239.785 62.3018 238.569 62.3018C237.353 62.3018 235.226 62.9096 234.01 63.8213Z" fill="#137AB6"/>
<path d="M239.017 78.5596C240.385 78.8635 242.816 78.8635 244.336 78.5596C245.703 78.1037 244.488 77.7998 241.6 77.7998C238.713 77.7998 237.498 78.1037 239.017 78.5596Z" fill="#137AB6"/>
<path d="M249.965 80.839C255.283 83.7261 261.665 90.2601 263.792 94.9707C265.16 98.1617 265.768 98.6175 265.92 96.6422C265.92 93.2992 252.244 79.0156 249.053 79.0156C247.685 79.0156 248.141 79.7754 249.965 80.839Z" fill="#137AB6"/>
<path d="M224.129 90.2604C226.712 92.3877 229.295 94.2111 230.055 94.2111C231.726 94.2111 231.726 94.2111 224.889 89.8045L219.57 86.3096L224.129 90.2604Z" fill="#137AB6"/>
<path d="M247.835 103.328C247.835 105.608 247.227 107.887 246.619 108.799C245.86 109.558 246.316 109.407 247.379 108.495C248.595 107.583 249.203 105.152 248.747 103.176C248.139 99.5297 248.139 99.5297 247.835 103.328Z" fill="#137AB6"/>
<path d="M196.781 126.273C194.349 127.793 192.982 129.16 193.893 129.16C194.957 129.16 197.236 127.793 199.212 126.121C203.77 122.474 202.707 122.474 196.781 126.273Z" fill="#137AB6"/>
<path d="M270.936 126.88C266.53 128.856 262.883 130.831 262.883 131.287C262.883 131.895 279.446 124.905 280.965 123.689C282.941 122.018 277.774 123.537 270.936 126.88Z" fill="#137AB6"/>
<path d="M86.3094 148.458C84.6379 150.282 84.334 152.257 85.0938 154.232C87.2211 159.247 86.6133 160.614 84.334 156.512C83.1184 154.384 82.2066 153.473 82.0547 154.384C82.0547 155.448 83.4223 157.727 85.2457 159.703C86.9172 161.678 87.8289 162.438 87.2211 161.222C86.4613 159.551 86.7652 159.247 88.7406 160.007C90.2602 160.614 119.587 161.222 153.929 161.374L216.533 161.83L152.713 162.59L88.8926 163.35H152.713C208.48 163.35 216.533 163.046 216.533 161.07C216.533 159.855 217.445 158.791 218.661 158.791C219.876 158.791 221.092 157.727 221.396 156.512C222.004 154.536 221.852 154.536 220.484 156.512C219.116 158.335 218.813 158.031 218.813 154.688C218.813 152.409 217.597 149.826 216.229 149.066C214.71 148.154 214.254 147.395 215.318 147.395C216.229 147.395 218.205 148.914 219.42 150.738C220.788 152.561 221.852 153.321 221.852 152.409C221.852 147.546 217.749 147.243 155.144 147.395C120.803 147.395 91.6277 147.85 90.1082 148.458C88.4367 149.066 87.9809 148.914 88.7406 147.698C90.4121 144.963 88.8926 145.571 86.3094 148.458Z" fill="#137AB6"/>
<path d="M235.071 156.815C231.121 162.133 224.891 173.834 224.891 175.809C224.891 176.417 227.322 172.618 230.209 167.3C233.096 161.981 236.591 156.359 237.959 154.84C239.326 153.168 240.086 151.953 239.63 151.953C239.174 151.953 237.047 154.232 235.071 156.815Z" fill="#137AB6"/>
<path d="M118.221 180.368C134.328 180.672 160.312 180.672 175.963 180.368C191.614 180.216 178.394 180.064 146.636 180.064C114.878 180.064 102.114 180.216 118.221 180.368Z" fill="#137AB6"/>
<path d="M84.4859 184.168C83.1184 185.991 82.0547 188.27 82.0547 189.182C82.2066 189.942 83.1184 189.03 84.334 186.903C86.9172 182.496 87.2211 183.56 85.2457 188.878C84.0301 191.917 84.334 193.285 86.9172 195.564C88.7406 197.084 89.8043 197.539 89.3484 196.78C88.4367 195.412 110.926 195.26 181.888 196.476C194.5 196.628 204.529 196.324 204.225 195.716C203.465 194.652 206.656 192.221 208.936 192.221C209.695 192.221 210.607 190.854 210.759 189.182L211.215 186.143L209.847 189.182C209.088 190.854 208.328 191.461 208.328 190.398C208.176 189.486 207.72 187.511 207.112 185.991C206.352 184.016 206.656 183.712 208.328 184.623C209.847 185.535 209.999 185.383 208.784 184.016C207.568 182.648 192.221 182.192 149.218 182.344C117.308 182.344 90.1082 182.8 88.7406 183.408C86.9172 184.016 86.4613 183.864 87.2211 182.648C89.1965 179.457 86.9172 180.673 84.4859 184.168Z" fill="#137AB6"/>
<path d="M219.273 205.896C219.273 209.998 219.576 211.67 219.88 209.239C220.184 206.959 220.184 203.616 219.88 201.641C219.576 199.818 219.273 201.641 219.273 205.896Z" fill="#137AB6"/>
<path d="M86.3094 216.838C84.6379 218.661 84.334 220.637 85.0938 222.612C87.2211 227.627 86.6133 228.994 84.334 224.892C83.1184 222.764 82.2066 221.852 82.0547 222.764C82.0547 223.828 83.4223 226.107 85.2457 228.083C86.9172 230.058 87.8289 230.818 87.2211 229.602C86.4613 227.931 86.7652 227.627 88.7406 228.386C90.1082 228.994 117.612 229.45 149.978 229.45C193.588 229.602 209.088 229.146 210.303 227.779C211.519 226.411 211.367 226.259 209.847 227.171C208.176 228.083 207.872 227.779 208.632 225.803C209.239 224.284 209.695 222.308 209.847 221.397C209.847 220.333 210.607 220.941 211.367 222.612L212.734 225.651L212.279 222.612C212.127 220.941 211.215 219.573 210.455 219.573C208.176 219.573 204.985 217.142 205.745 216.078C206.048 215.47 195.716 215.167 182.648 215.318C116.548 216.382 88.4367 216.382 89.1965 215.318C90.4121 213.343 88.5887 214.255 86.3094 216.838Z" fill="#137AB6"/>
<path d="M118.217 232.032C134.172 232.336 160.612 232.336 176.719 232.032C192.674 231.88 179.606 231.728 147.392 231.728C115.178 231.728 102.11 231.88 118.217 232.032Z" fill="#137AB6"/>
<path d="M224.891 236.135C224.891 237.807 230.969 249.203 231.729 249.203C232.184 249.203 231.121 246.316 229.297 242.669C225.802 235.831 224.891 234.464 224.891 236.135Z" fill="#137AB6"/>
<path d="M121.259 248.747C138.885 249.051 168.06 249.051 185.839 248.747C203.465 248.595 189.03 248.443 153.473 248.443C117.916 248.443 103.48 248.595 121.259 248.747Z" fill="#137AB6"/>
<path d="M84.4859 252.547C83.1184 254.37 82.0547 256.649 82.0547 257.561C82.2066 258.321 83.1184 257.409 84.334 255.282C86.9172 250.875 87.2211 251.939 85.2457 257.257C84.0301 260.296 84.334 261.664 86.9172 263.943C88.7406 265.463 89.8043 265.918 89.3484 265.159C88.4367 263.791 112.293 263.639 192.525 264.855C206.808 265.007 218.205 264.703 217.901 264.095C217.141 263.031 220.332 260.6 222.611 260.6C223.371 260.6 224.283 259.232 224.435 257.561L224.891 254.522L223.523 257.561C222.763 259.232 222.004 259.84 222.004 258.777C221.852 257.865 221.396 255.889 220.788 254.37C220.028 252.395 220.332 252.091 222.004 253.002C223.523 253.914 223.675 253.762 222.459 252.395C221.244 251.027 204.225 250.571 156.056 250.723C120.347 250.723 90.1082 251.179 88.7406 251.787C86.9172 252.395 86.4613 252.243 87.2211 251.027C89.1965 247.836 86.9172 249.052 84.4859 252.547Z" fill="#137AB6"/>
<path d="M233.855 253.458C234.615 254.978 236.59 257.257 237.958 258.473C239.629 259.84 239.325 258.777 237.046 255.586C233.095 250.267 231.576 249.204 233.855 253.458Z" fill="#137AB6"/>
<path d="M262.883 280.354C262.883 281.418 272.152 285.976 272.912 285.368C273.216 284.912 271.088 283.545 268.201 282.177C265.314 280.81 262.883 279.898 262.883 280.354Z" fill="#137AB6"/>
<path d="M86.3094 285.216C84.6379 287.039 84.334 289.015 85.0938 290.99C87.2211 296.005 86.6133 297.372 84.334 293.27C83.1184 291.142 82.2066 290.23 82.0547 291.142C82.0547 292.206 83.4223 294.485 85.2457 296.461C86.9172 298.436 87.8289 299.197 87.2211 297.981C86.4613 296.31 86.7652 296.005 88.7406 296.764C90.2602 297.372 127.793 297.98 172.163 298.132L253.002 298.589L170.947 299.348L88.8926 300.107H170.947C242.821 300.107 253.002 299.804 253.002 297.828C253.002 296.613 253.914 295.55 255.129 295.55C256.345 295.55 257.561 294.485 257.864 293.27C258.472 291.294 258.32 291.294 256.953 293.27C255.585 295.093 255.281 294.79 255.281 291.447C255.281 289.168 254.066 286.584 252.698 285.824C251.179 284.912 250.723 284.152 251.786 284.152C252.698 284.152 254.673 285.672 255.889 287.495C257.257 289.319 258.32 290.079 258.32 289.167C258.32 284.152 254.521 284 173.379 284.152C129.008 284.152 91.6277 284.608 90.2602 285.216C88.4367 285.824 87.9809 285.672 88.7406 284.456C90.4121 281.721 88.8926 282.329 86.3094 285.216Z" fill="#137AB6"/>
<path d="M298.438 328.22C298.438 348.733 298.741 357.091 298.893 346.758C299.197 336.577 299.197 319.862 298.893 309.529C298.741 299.349 298.438 307.706 298.438 328.22Z" fill="#137AB6"/>
<path d="M268.953 363.319C268.953 366.814 274.879 373.804 277.766 373.652C279.59 373.652 279.286 373.196 276.855 372.284C274.879 371.373 272.448 368.637 271.232 365.902C270.017 363.167 269.105 361.951 268.953 363.319Z" fill="#137AB6"/>
<path d="M296.314 367.423C296.314 368.334 294.491 370.158 292.211 371.373C289.78 372.589 288.717 373.653 289.628 373.805C292.363 373.805 298.745 368.182 297.53 366.815C296.77 366.207 296.314 366.511 296.314 367.423Z" fill="#137AB6"/>
<path d="M302.083 137.821C304.818 138.125 308.921 138.125 311.2 137.821C313.479 137.517 311.2 137.213 306.186 137.213C301.171 137.213 299.348 137.517 302.083 137.821Z" fill="#137AB6"/>
<path d="M265.008 150.281C261.817 152.712 257.107 156.967 254.524 159.702C251.333 163.349 252.244 162.893 257.563 158.031C261.817 154.232 266.832 149.977 268.959 148.61C271.087 147.242 272.302 146.026 271.846 146.026C271.39 145.874 268.199 147.85 265.008 150.281Z" fill="#137AB6"/>
<path d="M343.412 148.458C345.539 149.977 350.25 153.928 354.049 157.271L360.887 163.197L355.264 157.119C352.073 153.776 347.363 149.977 344.628 148.458C339.765 145.875 339.765 145.875 343.412 148.458Z" fill="#137AB6"/>
<path d="M279.287 162.133C281.111 162.437 283.846 162.437 285.365 162.133C286.733 161.678 285.213 161.374 281.87 161.526C278.527 161.526 277.312 161.829 279.287 162.133Z" fill="#137AB6"/>
<path d="M274.735 164.718C275.191 165.477 274.431 165.781 273.216 165.173C270.936 164.414 262.883 171.1 262.883 173.683C262.883 174.291 265.01 172.619 267.593 169.884L272.304 164.869L268.353 169.884C257.565 183.712 270.025 203.314 286.74 198.755C298.744 195.564 303.302 180.065 295.401 169.884L291.45 164.869L296.161 169.884C298.744 172.619 300.871 174.291 300.871 173.683C300.871 171.1 292.818 164.414 290.538 165.173C289.323 165.781 288.563 165.477 289.019 164.718C289.627 163.958 286.436 163.35 281.877 163.35C277.318 163.35 274.127 163.958 274.735 164.718ZM286.132 179.609C287.043 182.344 284.46 186.903 282.029 186.903C278.99 186.903 276.407 183.104 277.47 180.217C278.534 177.33 285.068 176.874 286.132 179.609Z" fill="#137AB6"/>
<path d="M278.833 180.824C277.617 182.952 279.288 185.383 282.024 185.383C283.239 185.383 284.151 184.623 284.151 183.863C284.151 182.952 283.239 182.496 282.327 182.648C281.264 182.952 280.504 182.192 280.808 181.128C281.264 178.849 280.2 178.697 278.833 180.824Z" fill="#137AB6"/>
<path d="M365.297 173.227C367.88 178.09 370.159 181.888 370.463 181.585C371.223 180.977 363.473 165.933 361.954 165.022C361.194 164.566 362.714 168.213 365.297 173.227Z" fill="#137AB6"/>
<path d="M298.896 200.274C280.813 218.509 265.922 234.464 265.922 235.679C266.074 237.047 266.53 236.743 267.593 234.768C269.417 231.577 331.414 168.668 332.781 168.668C333.389 168.668 319.561 182.8 302.087 200.122C283.7 218.509 269.873 233.4 268.961 236.135C268.201 238.566 267.897 240.238 268.353 239.63C269.569 238.414 273.824 241.454 272.912 242.973C272.608 243.429 273.824 243.885 275.799 243.885C277.774 243.885 279.142 243.429 278.838 242.973C278.078 241.909 342.658 177.481 343.418 178.393C343.874 178.697 344.33 177.481 344.33 175.506C344.482 173.53 343.266 170.643 341.443 169.124C339.619 167.604 338.859 167.3 339.619 168.516C340.835 170.643 340.835 170.643 333.845 167.908C332.781 167.452 317.89 181.28 298.896 200.274Z" fill="#137AB6"/>
<path d="M300.87 182.192C300.87 189.182 295.399 196.779 287.954 199.97C284.915 201.338 284.307 201.946 286.282 202.098C287.802 202.098 292.057 199.059 295.703 195.412C301.478 189.789 302.389 187.966 302.389 182.496C302.389 179.153 302.085 176.266 301.63 176.266C301.174 176.266 300.87 179.001 300.87 182.192Z" fill="#137AB6"/>
<path d="M311.503 212.279L280.352 243.885L311.959 212.734C329.281 195.564 343.413 181.432 343.413 181.28C343.413 180.064 340.374 183.104 311.503 212.279Z" fill="#137AB6"/>
<path d="M261.509 185.231C261.357 189.637 273.21 202.098 277.464 202.098C279.44 201.946 278.984 201.338 275.793 199.97C270.019 197.387 264.548 191.461 262.877 185.991C261.661 181.888 261.661 181.888 261.509 185.231Z" fill="#137AB6"/>
<path d="M237.508 205.897C237.508 211.671 237.812 213.951 238.116 210.76C238.42 207.721 238.42 202.858 238.116 200.123C237.812 197.54 237.508 199.971 237.508 205.897Z" fill="#137AB6"/>
<path d="M374.266 205.896C374.266 209.998 374.57 211.67 374.874 209.239C375.177 206.959 375.177 203.616 374.874 201.641C374.57 199.818 374.266 201.641 374.266 205.896Z" fill="#137AB6"/>
<path d="M336.578 211.822C339.161 212.886 342.504 215.469 344.175 217.445C346.759 220.484 346.455 220.484 342.2 216.837C337.945 213.342 335.362 212.43 329.74 212.43C329.284 212.278 327.005 212.734 324.725 213.342C321.382 214.102 320.623 213.95 321.534 212.43C322.142 211.367 322.142 210.911 321.534 211.519C320.927 211.974 320.623 212.734 320.927 213.19C321.686 214.406 315.76 220.332 314.393 219.572C313.785 219.116 312.721 219.572 312.113 220.484C311.506 221.699 311.657 221.851 312.721 221.244C315 219.876 315 220.484 313.025 225.802C310.898 231.424 313.481 239.022 319.407 244.036C323.358 247.227 325.333 247.835 330.348 247.379C333.843 246.924 337.945 246.164 339.465 245.404C341.744 244.34 342.048 244.644 341.136 246.316C340.377 247.531 341.744 246.772 343.872 244.796C348.126 240.845 349.19 239.174 346.151 240.997C344.935 241.757 344.783 241.301 345.695 239.174C346.455 237.654 347.214 232.336 347.214 227.474C347.366 219.268 346.911 218.204 342.2 214.102C339.465 211.67 336.122 209.695 334.602 209.695C333.083 209.847 333.843 210.607 336.578 211.822ZM331.867 225.802C333.235 226.258 334.298 228.385 334.298 230.361C334.298 233.248 333.539 234.008 330.5 234.008C325.941 234.008 323.966 230.361 326.701 227.17C328.828 224.586 328.676 224.586 331.867 225.802Z" fill="#137AB6"/>
<path d="M327.759 227.474C326.239 228.993 326.543 232.488 328.215 232.488C328.975 232.488 329.126 231.273 328.671 229.905C327.911 227.93 328.367 227.626 330.342 228.386C331.862 228.993 332.621 228.841 332.014 227.93C330.95 226.106 329.126 225.954 327.759 227.474Z" fill="#137AB6"/>
<path d="M349.954 230.21C349.954 233.552 350.258 234.768 350.561 232.793C350.865 230.969 350.865 228.234 350.561 226.715C350.106 225.347 349.802 226.867 349.954 230.21Z" fill="#137AB6"/>
<path d="M365.902 237.503C363.775 241.909 359.064 248.747 355.57 253.002L349.188 260.6L356.329 253.154C362.711 246.316 371.829 231.577 370.461 230.057C370.157 229.753 368.03 233.096 365.902 237.503Z" fill="#137AB6"/>
<path d="M309.984 235.376C309.984 236.439 313.023 240.39 316.67 244.037C322.596 249.963 323.964 250.723 329.89 250.571L336.576 250.267L329.434 249.355C321.837 248.292 317.278 245.101 312.871 237.807C311.2 235.224 309.984 234.16 309.984 235.376Z" fill="#137AB6"/>
<path d="M256.351 253.913C259.998 257.56 265.012 261.967 267.747 263.334C272.61 265.917 272.61 265.917 268.963 263.334C266.836 261.815 261.821 257.56 257.567 253.761L249.969 247.075L256.351 253.913Z" fill="#137AB6"/>
<path d="M342.954 262.726C336.724 266.677 335.965 268.197 341.435 265.31C344.018 263.942 346.753 262.27 347.209 261.359C348.425 259.383 348.121 259.535 342.954 262.726Z" fill="#137AB6"/>
<path d="M302.083 274.579C304.818 274.883 308.921 274.883 311.2 274.579C313.479 274.275 311.2 273.971 306.186 273.971C301.171 273.971 299.348 274.275 302.083 274.579Z" fill="#137AB6"/>
<path d="M14.1328 349.493C14.1328 355.723 14.4367 358.306 14.7406 355.115C15.0445 352.076 15.0445 346.91 14.7406 343.719C14.4367 340.679 14.1328 343.263 14.1328 349.493Z" fill="#137AB6"/>
<path d="M250.413 348.277C251.173 365.448 251.781 367.271 251.933 352.836C252.085 345.238 251.781 338.856 251.173 338.856C250.413 338.856 250.109 343.111 250.413 348.277Z" fill="#137AB6"/>
<path d="M15.3458 363.321C15.1938 366.512 23.5513 374.413 26.1345 373.35C27.502 372.742 27.502 372.438 25.6786 372.438C23.0954 372.286 17.6251 366.816 16.2575 363.169C15.4977 361.193 15.3458 361.193 15.3458 363.321Z" fill="#137AB6"/>
<path d="M137.521 6.99061C135.849 8.20624 133.266 8.96601 131.746 8.51015C130.379 8.20625 129.467 8.51014 130.075 9.26991C131.442 11.5492 134.633 10.7895 138.432 7.59842C142.687 4.1035 141.927 3.64764 137.521 6.99061Z" fill="#137AB6"/>
<path d="M48.627 164.869V320.469L25.5301 321.077L2.28125 321.533L26.2898 321.837L50.1465 322.141V165.629C50.1465 79.4715 49.8426 9.11719 49.3867 9.11719C48.9309 9.11719 48.627 79.1676 48.627 164.869Z" fill="#137AB6"/>
<path d="M316.366 64.884L316.062 121.562L319.557 121.411C321.989 121.259 322.293 121.107 320.317 120.499C317.886 119.891 317.582 115.484 317.126 64.1242L316.822 8.35742L316.366 64.884Z" fill="#137AB6"/>
<path d="M350.862 133.263C362.41 141.62 370.464 149.674 378.821 161.222C381.405 164.717 381.405 164.717 378.821 159.854C375.326 153.169 358.915 136.758 352.23 133.263C347.367 130.679 347.367 130.679 350.862 133.263Z" fill="#137AB6"/>
<path d="M376.541 253.306C371.678 260.752 361.041 271.389 353.748 276.251C346.758 280.81 346.15 282.329 352.684 278.531C358.762 275.036 375.325 258.473 378.82 252.395C382.619 245.861 381.099 246.468 376.541 253.306Z" fill="#137AB6"/>
<path d="M316.366 328.523L316.822 366.967L317.126 329.434C317.582 295.397 317.886 291.902 320.317 291.294C322.293 290.686 321.989 290.534 319.557 290.382L316.062 290.23L316.366 328.523Z" fill="#137AB6"/>
</g>
</g>
<defs>
<clipPath id="clip0_363_4424">
<rect width="389" height="389" fill="white"/>
</clipPath>
</defs>
</svg>
