<svg width="512" height="512" viewBox="0 0 512 512" fill="none" xmlns="http://www.w3.org/2000/svg">
<path d="M235.002 15.5996C233.602 15.7996 228.202 16.7996 223.002 17.5996C186.802 23.6996 152.102 41.9996 125.302 69.1996C114.102 80.4996 109.802 85.6996 102.302 96.9996C82.1018 127.2 72.0018 160.9 72.0018 198C71.9018 216 72.8018 224.3 76.0018 239.4C82.0018 266.9 96.8018 296.7 114.802 317.7L120.802 324.7L92.4018 378.9C61.8018 437.1 61.5018 437.8 67.1018 440.9C69.5018 442.2 72.2018 441.6 106.802 431.7C127.102 425.8 144.302 421 144.802 421C145.402 421 151.302 437.5 158.102 457.8C164.802 478 170.702 495.1 171.302 495.8C172.502 497.4 179.502 497.4 180.802 495.7C181.302 495.1 195.002 469.4 211.102 438.7L240.402 383H256.002H271.602L300.902 438.7C317.102 469.4 330.702 495.1 331.202 495.7C331.802 496.4 334.002 497 336.102 497C339.302 497 340.202 496.5 341.302 494.2C342.102 492.7 348.002 475.5 354.502 456L366.302 420.4L404.302 431.4C439.802 441.6 442.502 442.2 444.902 440.9C450.502 437.7 450.302 437.1 419.602 378.9L391.102 324.7L397.202 317.7C419.202 292.1 434.602 257 439.102 222C441.802 200.5 439.502 169.2 433.502 148.5C416.702 90.3997 372.902 44.0996 316.102 24.4996C296.502 17.7996 284.402 15.7996 259.502 15.4996C247.402 15.2996 236.402 15.3996 235.002 15.5996ZM270.802 28.4996C308.202 30.5996 348.202 49.2996 377.002 77.9996C400.902 102 416.902 131.6 424.202 165.7C426.202 175.2 426.502 179.2 426.502 199C426.502 218.8 426.202 222.8 424.202 232.3C412.502 286.8 377.602 331.1 328.002 354.3C263.102 384.7 185.502 370.8 134.802 319.8C110.802 295.7 95.1018 266.4 87.8018 232.4C85.8018 222.8 85.5018 218.8 85.5018 199C85.5018 179.2 85.8018 175.2 87.8018 165.6C102.502 96.9997 154.602 44.8996 222.402 30.9996C232.502 28.8996 252.102 27.0996 258.502 27.6996C260.202 27.7996 265.702 28.1996 270.802 28.4996ZM137.802 340.6C141.402 343.7 146.102 347.4 148.202 348.7C150.302 350.1 152.002 351.7 152.002 352.2C152.002 353.4 121.002 412.3 119.602 413.6C119.002 414.2 113.302 416.2 107.002 418C100.702 419.8 92.8018 422 89.4018 423L83.3018 424.8L89.4018 413.1C108.802 376 130.502 335 130.802 335C131.002 335 134.102 337.5 137.802 340.6ZM399.002 368.2C408.602 386.5 419.202 406.7 422.602 413L428.702 424.7L410.902 419.5C401.102 416.7 392.602 414 392.102 413.5C390.902 412.1 360.002 353.3 360.002 352.2C360.002 351.7 362.402 349.7 365.302 347.7C368.102 345.7 372.802 342 375.502 339.5C378.302 337.1 380.702 335.1 381.002 335C381.302 335 389.402 349.9 399.002 368.2ZM177.602 386.4C172.902 395.2 166.902 406.7 164.202 411.7L159.402 421L157.602 415.2C154.602 405.7 152.702 404.7 143.502 407.5C140.802 408.3 138.402 408.8 138.302 408.6C138.002 408.3 156.502 372.3 161.602 363.4L163.902 359.3L175.002 364.8L186.002 370.2L177.602 386.4ZM361.602 384.4C368.502 397.5 373.902 408.4 373.802 408.6C373.602 408.8 371.202 408.3 368.502 407.5C359.302 404.7 357.402 405.7 354.402 415.2L352.602 421L348.002 412.2C345.502 407.4 339.502 396 334.702 386.8L326.002 370.2L336.702 364.8C342.702 361.8 347.802 359.7 348.302 360C348.702 360.3 354.602 371.3 361.602 384.4ZM214.002 378.5C220.302 380 225.602 381.3 225.802 381.4C225.902 381.6 215.102 402.5 201.802 427.8L177.502 474L171.802 457.2C168.702 448 166.102 439.7 166.102 438.7C166.002 437.7 173.302 422.9 182.302 405.9C196.302 379.2 198.802 375 200.502 375.4C201.602 375.6 207.702 377 214.002 378.5ZM321.302 389.7C325.502 397.9 333.002 412.1 337.902 421.5L346.702 438.5L340.602 456.2L334.402 473.9L310.502 428.4C297.302 403.3 286.402 382.4 286.202 382C286.002 381.5 288.502 380.6 291.702 380C294.902 379.4 300.402 378 304.002 377C307.602 376 311.202 375.2 312.002 375.1C313.002 375 316.302 380.2 321.302 389.7Z" fill="#137AB6"/>
<path d="M238.602 56.0004C184.302 62.9004 138.302 99.9004 120.102 151.3C114.202 168 112.602 178.4 112.602 199C112.702 219.6 114.302 230.2 120.102 246.7C134.502 287.6 167.402 320.5 208.302 334.9C224.602 340.6 235.402 342.3 255.502 342.4C275.702 342.4 284.302 341.1 301.402 335.5C322.702 328.6 340.902 317.2 357.602 300.6C378.202 279.9 391.002 256.4 397.202 227.7C400.302 213 400.302 185 397.202 170.3C384.902 113.2 341.202 69.5004 284.702 57.9004C273.202 55.6004 249.702 54.6004 238.602 56.0004ZM274.802 69.6004C294.002 72.4004 312.802 79.8004 329.802 91.2004C339.702 97.8004 357.202 115.3 363.802 125.2C394.502 171.1 394.502 226.9 363.802 272.9C357.202 282.7 339.702 300.2 329.902 306.8C314.802 316.9 298.402 323.8 280.802 327.6C269.202 330.1 242.802 330.1 231.202 327.6C213.802 323.9 197.002 316.7 182.002 306.7C172.302 300.2 154.702 282.6 148.202 272.8C117.402 226.9 117.502 171.1 148.302 125C154.702 115.4 172.402 97.7004 182.002 91.3004C210.402 72.3004 242.502 64.8004 274.802 69.6004Z" fill="#137AB6"/>
<path d="M162.2 145.6C159.4 147.5 159.2 153 161.8 155.3C163.3 156.7 165.9 157 175.3 157H187V203.5C187 248.7 187.1 250.1 189 252C190.1 253.1 192.1 254 193.5 254C194.9 254 196.9 253.1 198 252C199.9 250.1 200 248.7 200 203.5V157H211.8C225.1 157 227 156.2 227 150.2C227 144.2 225.9 144 193.5 144C168.8 144 164.1 144.2 162.2 145.6Z" fill="#137AB6"/>
<path d="M259.5 145.999C258.3 147.399 255 161.799 247.9 196.699C242.5 223.499 238 246.499 238 247.699C238 252.899 245.1 255.899 248.8 252.199C250 250.999 252.6 239.899 258 213.599C262 193.299 265.5 177.099 265.7 177.599C277.9 216.799 289.5 250.799 291.2 252.199C294 254.699 297.5 254.399 299.7 251.699C300.7 250.399 306.6 233.299 312.9 213.699C319.2 194.099 324.6 178.199 324.8 178.399C325 178.699 328.5 194.899 332.5 214.399C337.6 239.599 340.2 250.599 341.5 251.999C345.2 256.099 352 253.299 352 247.699C352 245.899 347.5 222.499 342.1 195.599C331.7 144.199 331.6 143.999 326.4 143.999C321.7 143.999 320.5 146.699 307.9 186.199C301.1 207.499 295.2 224.599 294.9 224.199C294.5 223.799 288.8 206.399 282.1 185.499C273.5 158.899 269.3 146.999 267.8 145.699C265.1 143.399 261.7 143.499 259.5 145.999Z" fill="#137AB6"/>
</svg>
