<svg width="512" height="512" viewBox="0 0 512 512" fill="none" xmlns="http://www.w3.org/2000/svg">
<g clip-path="url(#clip0_363_4382)">
<mask id="mask0_363_4382" style="mask-type:luminance" maskUnits="userSpaceOnUse" x="0" y="0" width="512" height="512">
<path d="M512 0H0V512H512V0Z" fill="white"/>
</mask>
<g mask="url(#mask0_363_4382)">
<path d="M140 8V16H131.5H123V25V34H131.5H140V42V50H148.5H157V42V34H165.5H174V25V16H165.5H157V8V0H148.5H140V8ZM156 25V33H148.5H141V25V17H148.5H156V25Z" fill="#137AB6"/>
<path d="M264.6 0.699842C260.7 1.79985 254.9 6.09985 252.1 10.0998C248.1 15.5998 246.6 22.7998 248.1 29.7998L249.2 35.2998L220.9 63.6998L192.5 91.9998L188 91.2998C178.6 89.6998 170.2 91.7998 164.3 97.1998L162.1 99.2998L127.8 86.9998C108.9 80.2998 92.9 74.4998 92.3 74.2998C91.6 73.9998 91 72.5998 91 71.0998C90.9 67.2998 87.4 59.9998 83.7 56.1998C80.1 52.4998 71.6 48.9998 66.1 48.9998C44.8 48.9998 33.1 74.4998 47.1 90.3998L50.9 94.6998L36.9 142.1C29.3 168.2 23 189.5 23 189.6C23 189.7 21.3 190 19.1 190.4C8.5 192.1 0 202.8 0 214.6C0 222.1 1.5 226.2 6 231.4C15.5 242.2 32.3 242.7 42.5 232.5C52.2 222.9 52.3 207.4 42.9 197.4L40 194.4L53 149.9C69.5 93.6998 67.7 98.9998 70.3 98.9998C73.4 98.8998 80.1 95.6998 82.4 93.0998C83.5 91.9998 84.8 90.9998 85.4 90.9998C87.1 90.9998 154.4 115.2 155.8 116.3C156.4 116.8 157 118.4 157 119.9C157.1 127.7 165.3 136.9 174.6 139.6C193.1 145 210.2 129 206.1 110.4L204.8 104.7L233.1 76.2998C255.9 53.4998 261.9 47.9998 263.5 48.4998C276.5 52.1998 288.6 47.6998 294.5 36.7998C299.3 27.8998 298.1 15.0998 291.7 8.09985C286.7 2.79985 281.9 0.699842 274 0.399842C269.9 0.199842 265.6 0.399842 264.6 0.699842ZM278.3 20.1998C284.1 27.0998 274 36.0998 267.3 29.7998C264.8 27.4998 264.4 24.0998 266.1 20.8998C268.3 16.6998 275 16.2998 278.3 20.1998ZM69.9 67.9998C70.9 68.4998 72.3 70.1998 72.9 71.8998C75.9 78.9998 66.5 85.3998 61.3 79.6998C55.1 73.0998 62 63.6998 69.9 67.9998ZM186.4 110.1C191.5 114.1 188.3 123 181.8 123C178.2 123 174 119 174 115.5C174 112.2 178.1 108 181.3 108C182.6 108 184.9 108.9 186.4 110.1ZM29.4 209.1C35 213.5 31.5 222.4 24.3 221.8C17.3 221.2 15 213.9 20.2 209C23 206.4 26 206.5 29.4 209.1Z" fill="#137AB6"/>
<path d="M314.2 74.301C292.1 110.301 274 140.001 274 140.301C274 140.701 282.8 141.001 293.5 141.001H313V169.501V198.001H307.6H302.2L291.3 184.801C283.3 175.001 278.7 170.401 273.7 167.001C260.5 158.001 250.9 156.101 218.8 156.001H198V164.801C198 181.701 203.1 194.101 215 206.101C227.7 218.901 238.5 223.001 259.8 223.001H273V214.501V206.001H263C257.6 206.001 250.7 205.501 247.8 204.901C234.2 202.001 223 192.301 218 179.101L216 174.001H230.9C256.6 174.001 262.7 177.201 281 200.401L292.5 214.901H311.8L331 215.001V169.001V123.101L318.2 122.801L305.4 122.501L327.2 87.001C339.3 67.501 350.5 49.301 352.1 46.601L355.1 41.801L379.9 82.101L404.8 122.501L391.9 122.801L379 123.101V218.501V314.001H398.3H417.7L428.4 300.501C448.1 275.801 453.2 273.101 479.7 273.001H493.9L493.1 275.801C490.5 284.801 482.4 294.801 473.9 299.401C466.3 303.601 459.7 305.001 447.8 305.001H437V314.201V323.301L450.8 322.701C469.8 321.801 479.5 318.601 490.6 309.601C504.7 298.201 512 282.801 512 264.501V256.001H486.4C458.7 256.001 453.6 256.701 443.6 261.701C434.3 266.301 428.5 271.801 416.2 287.201L408.5 297.001H402.8H397V219.001V141.001H416.6C432.3 141.001 436.1 140.701 435.8 139.701C435.3 137.501 355.9 9.00098 355.1 9.00098C354.7 9.00098 336.3 38.401 314.2 74.301Z" fill="#137AB6"/>
<path d="M346 132V141H355H364V132V123H355H346V132Z" fill="#137AB6"/>
<path d="M99 156.5V165H90.5H82V173.5V182H90.5H99V190.5V199H107.5H116V190.5V182H124.5H133V173.5V165H124.5H116V156.5V148H107.5H99V156.5ZM115 173.5V181H107.5H100V173.5V166H107.5H115V173.5Z" fill="#137AB6"/>
<path d="M346 165V174H355H364V165V156H355H346V165Z" fill="#137AB6"/>
<path d="M478 173V181H470H462V190V199H470H478V207V215H487H496V207V199H504H512V190V181H504H496V173V165H487H478V173ZM495 190V198H487H479V190V182H487H495V190Z" fill="#137AB6"/>
<path d="M346 198V207H355H364V198V189H355H346V198Z" fill="#137AB6"/>
<path d="M181 230.5V239H173H165V247.5V256H173H181V264.5V273H190H199V264.5V256H207H215V247.5V239H207H199V230.5V222H190H181V230.5ZM198 248V256H190H182V248V240H190H198V248Z" fill="#137AB6"/>
<path d="M346 231V240H355H364V231V222H355H346V231Z" fill="#137AB6"/>
<path d="M313 363V495H305.5H298V400V305H289H280V400V495H264H248V400V305H242.3H236.5L253.8 287.7L271 270.5L264.5 264L258 257.5L226 289.5C208.4 307.1 194 321.8 194 322.2C194 322.7 202.3 323 212.5 323H231V409V495H200.3H169.5L184.9 479.6L200.4 464.1L194.7 455.6C191.6 450.9 189 446.6 189 446.1C189 445.7 190.3 442.4 191.9 438.8L194.9 432.4L204.9 430.5L215 428.7V404.9C215 383.1 214.9 381.1 213.3 380.6C212.3 380.3 207.7 379.4 203 378.5L194.5 376.8L191.6 369.8L188.8 362.9L194.4 354.4C197.5 349.8 200 345.7 200 345.2C200 344.3 167.7 312 166.7 312C166.3 312 162.2 314.5 157.6 317.6L149.1 323.2L142.2 320.4L135.2 317.5L133.5 309C132.6 304.3 131.7 299.7 131.4 298.7C130.9 297.1 128.9 297 107.1 297H83.4L81.4 307.2L79.5 317.4L72.4 320.3L65.3 323.2L56.6 317.4L47.9 311.6L31.4 328.1C22.4 337.1 15 344.9 15 345.5C15 346.1 17.4 350.2 20.4 354.6L25.9 362.8L23.1 369.6L20.3 376.5L12.4 378.3C8.1 379.2 3.5 380.3 2.3 380.5L0 381V404.8V428.6L10.1 430.6L20.1 432.5L23.1 439.5L26 446.4L20.5 454.7C17.5 459.3 15 463.6 15 464.3C15 465.9 46.1 497 47.8 497C48.5 497 52.7 494.5 57.3 491.5L65.6 486L72.5 488.9L79.5 491.9L81.4 501.9L83.4 512H240.2H397V421V330H388H379V412.5V495H355H331V363V231H322H313V363ZM117.4 318C117.7 320.2 118.5 324.2 119.1 326.8L120.1 331.6L127.3 333.9C131.3 335.2 138 338 142.3 340.1L150 344L157.4 339.1L164.7 334.2L171.3 340.7L177.8 347.3L172.9 354.6L168 362L171.9 369.7C174 374 176.8 380.7 178.1 384.7L180.4 391.9L185.2 392.9C187.8 393.5 191.8 394.3 194 394.6L198 395.3V404.5V413.8L193 414.9C190.3 415.5 186.3 416.2 184.1 416.6C180.3 417.2 180.2 417.3 178.5 423.9C177.5 427.5 174.7 434.3 172.3 438.9L167.9 447.3L172.5 454.1C175 457.9 177 461.3 177 461.8C177 462.2 174.2 465.4 170.7 468.8L164.5 475L157.2 470.1L149.9 465.3L141.7 469.5C137.2 471.8 130.5 474.5 126.8 475.5L120.2 477.4L118.5 486.2L116.8 495H107.5H98.2L97.1 490C96.5 487.3 95.8 483.3 95.4 481.2C94.8 477.5 94.7 477.4 88.2 475.5C84.5 474.5 77.7 471.7 73.1 469.4L64.6 465.2L57.5 470L50.3 474.8L43.7 468.3L37.2 461.7L42 454.5L46.8 447.4L42.6 438.9C40.3 434.3 37.5 427.5 36.5 423.8C34.6 417.3 34.5 417.2 30.8 416.6C28.7 416.2 24.7 415.5 22 414.9L17 413.8V404.5V395.2L25.8 393.5L34.6 391.8L36.5 385.2C37.5 381.5 40.2 374.8 42.5 370.3L46.7 362.1L41.9 354.8L37 347.5L43.2 341.3C46.6 337.8 49.8 335 50.2 335C50.7 335 54.1 337.1 57.9 339.6L64.8 344.2L72.2 340.2C76.2 338 82.9 335.2 87.1 334C94.8 331.8 94.8 331.7 95.4 327.9C95.8 325.7 96.5 321.7 97.1 319L98.2 314H107.5H116.7L117.4 318ZM155.8 490.5L162.5 495H148.7C136.3 495 134.9 494.8 135.2 493.3C135.4 492 140.1 489.5 148.8 486.1C148.9 486 152.1 488 155.8 490.5Z" fill="#137AB6"/>
<path d="M99.5038 347C88.3038 348.5 72.1038 355.7 73.7038 358.4C76.6038 363 82.6038 371 83.4038 371C83.8038 371 87.1038 369.6 90.7038 367.9C124.004 352 160.004 388 144.104 421.3C142.404 424.9 141.004 428.2 141.004 428.6C141.104 429.8 154.204 439 155.004 438.5C156.504 437.6 162.804 423.2 164.004 418C168.304 399.8 163.004 379.4 150.004 364.7C139.104 352.2 117.304 344.6 99.5038 347Z" fill="#137AB6"/>
<path d="M55.703 378.2C47.103 395.8 46.903 412.5 55.003 429.8C66.703 454.7 95.503 468 122.503 460.9C127.803 459.5 141.003 453 141.003 451.8C141.003 450.8 132.103 438 131.403 438C131.103 438 128.103 439.4 124.703 441.1C116.603 445.2 104.303 446.2 95.903 443.5C82.503 439.1 73.003 429.5 68.503 416.1C65.803 407.7 66.803 395.4 70.903 387.3C72.603 383.9 74.003 380.9 74.003 380.6C74.003 379.9 61.203 371 60.203 371C59.703 371 57.603 374.3 55.703 378.2Z" fill="#137AB6"/>
<path d="M346 371.5V380H355H364V371.5V363H355H346V371.5Z" fill="#137AB6"/>
<path d="M346 404.5V413H355H364V404.5V396H355H346V404.5Z" fill="#137AB6"/>
<path d="M346 437.5V446H355H364V437.5V429H355H346V437.5Z" fill="#137AB6"/>
<path d="M346 470.5V479H355H364V470.5V462H355H346V470.5Z" fill="#137AB6"/>
</g>
</g>
<defs>
<clipPath id="clip0_363_4382">
<rect width="512" height="512" fill="white"/>
</clipPath>
</defs>
</svg>
