<svg width="512" height="512" viewBox="0 0 512 512" fill="none" xmlns="http://www.w3.org/2000/svg">
<g clip-path="url(#clip0_363_4404)">
<mask id="mask0_363_4404" style="mask-type:luminance" maskUnits="userSpaceOnUse" x="0" y="0" width="512" height="512">
<path d="M512 0H0V512H512V0Z" fill="white"/>
</mask>
<g mask="url(#mask0_363_4404)">
<path d="M78 1.49981C48.1 8.19981 23.3 27.4998 10 54.4998C1.9 70.9998 0.5 77.2998 0.5 98.4998C0.5 119.7 1.9 126 10 142.5C19.6 161.9 35.1 177.4 54.5 187C71 195.1 77.3 196.5 98.5 196.5C119.7 196.5 126 195.1 142.5 187C161.9 177.4 177.4 161.9 187 142.5C195.1 126 196.5 119.7 196.5 98.4998C196.5 77.2998 195.1 70.9998 187 54.4998C174.8 29.7998 151.7 10.5998 125 2.89981C115.2 0.099812 88 -0.700188 78 1.49981ZM120 18.4998C141.6 23.9998 162.6 41.4998 173 62.4998C183.8 84.3998 183.8 112.6 173 134.5C149.4 182.2 88.4 196.1 47.1 163.1C27.1 147.2 16 124.2 16 98.4998C16 75.5998 24 56.0998 40.1 40.0998C61 19.0998 90.9 10.9998 120 18.4998Z" fill="#137AB6"/>
<path d="M91 49V60H79.6C69.1 60 67.8 60.2 62.9 62.8C59.5 64.5 56.4 67.2 54.5 69.9C51.7 73.9 51.5 74.8 51.5 83C51.5 91.2 51.7 92.1 54.5 96.1C56.4 98.8 59.5 101.5 62.9 103.2L68.2 106H97.1C124.7 106 126.1 106.1 128 108C129.1 109.1 130 111.3 130 113C130 114.7 129.1 116.9 128 118C126.1 119.9 124.7 120 92 120H58V128V136H74.5H91V147.5V159H98.5H106V147.5V136H117.4C127.9 136 129.2 135.8 134.1 133.2C137.5 131.5 140.6 128.8 142.5 126.1C145.3 122.1 145.5 121.2 145.5 113C145.5 104.8 145.3 103.9 142.5 99.9C140.6 97.2 137.5 94.5 134.1 92.8L128.8 90H99.9C72.3 90 70.9 89.9 69 88C66.4 85.4 66.4 80.6 69 78C70.9 76.1 72.3 76 105 76H139V68V60H122.5H106V49V38H98.5H91V49Z" fill="#137AB6"/>
<path d="M354 107.5V215H433H512V139.2V63.5L480.2 31.7L448.5 0H401.2H354V107.5ZM437 45V75H467H497V137V199H433.5H370V107V15H403.5H437V45ZM469 43.5L485.5 60H468.7H452V43.5C452 34.4 452.1 27 452.3 27C452.4 27 459.9 34.4 469 43.5Z" fill="#137AB6"/>
<path d="M410 107V115H418H426V107V99H418H410V107Z" fill="#137AB6"/>
<path d="M440 107V115H448H456V107V99H448H440V107Z" fill="#137AB6"/>
<path d="M271 18.8998V32.9998H239.5H208V55.4998V77.9998H239.5H270.9L271.2 91.8998L271.5 105.8L304.9 81.4998C323.2 68.0998 338.6 56.7998 339.2 56.1998C339.8 55.5998 329.3 47.2998 308.8 32.4998C291.6 19.8998 276 8.5998 274.3 7.1998L271 4.7998V18.8998ZM303.1 48.4998L312.8 55.4998L300.1 64.6998L287.5 73.8998L287.2 68.3998L286.9 62.9998H255.5H224V55.4998V47.9998H255.5H287V42.3998V36.8998L290.3 39.0998C292 40.3998 297.8 44.5998 303.1 48.4998Z" fill="#137AB6"/>
<path d="M229.302 148.7C210.502 162.4 195.102 173.7 195.102 174C195.102 174.6 262.202 223.2 263.802 223.8C264.702 224.1 265.002 220.5 265.002 210.6V197H296.002H327.002V174V151H296.002H265.002V137.5C265.002 130.1 264.702 124 264.202 124C263.802 124 248.102 135.1 229.302 148.7ZM280.002 167H311.002V174V181H280.002H249.102L248.802 186.9L248.502 192.9L236.002 183.8C229.102 178.9 223.502 174.4 223.502 174C223.502 173.5 229.102 169.1 236.002 164.1L248.502 155.1L248.802 161.1L249.102 167H280.002Z" fill="#137AB6"/>
<path d="M79.1 233C64.7 236.1 50.7 247.1 44.5 260.2C39.9 269.9 38.7 278.9 39.3 297.5C39.8 314.3 41 319.3 46.5 328.4C48.4 331.6 50 334.4 50 334.5C50 334.7 38.8 341.4 25 349.5L0 364.2V390.1V416H7.5H15V395.1V374.3L39.1 360.1L63.2 345.8L69.3 348.6C81.9 354.2 97.2 354.2 109.8 348.5L115.8 345.8L139.4 359.7L163 373.5V442.7V512H171H179V438.1V364.2L154.8 350C141.4 342.1 130.1 335.4 129.7 335C129.3 334.6 130.5 331.7 132.5 328.4C138 319.3 139.2 314.3 139.7 297.5C140.3 279 139.1 269.9 134.6 260.5C128.8 248.4 119.4 239.8 106.5 235.1C99.7 232.5 86.1 231.5 79.1 233ZM103.6 251.4C111.1 254.8 118.1 262.2 121.2 269.8C123.2 275 123.5 277.1 123.5 292.5C123.5 307.9 123.3 310 121.2 315.3C118.2 322.7 110.9 330.3 103.3 333.8C95.6 337.3 84 337.5 76.7 334.2C66.1 329.4 59.3 321.4 56.4 310C54 300.7 54.8 277.6 57.8 270.2C65.1 251.7 85.7 243.2 103.6 251.4Z" fill="#137AB6"/>
<path d="M412.1 233C397.7 236.1 383.7 247.1 377.5 260.2C372.9 269.9 371.7 278.9 372.3 297.5C372.8 314.3 374 319.3 379.5 328.4C381.4 331.6 383 334.4 383 334.5C383 334.7 371.8 341.4 358 349.5L333 364.2V438.1V512H340.5H348V443.1V374.3L372.1 360.1L396.2 345.8L402.3 348.6C414.9 354.2 430.2 354.2 442.8 348.5L448.8 345.8L472.9 360L497 374.2V415.6V457H504.5H512V410.6V364.2L487.8 350C474.4 342.1 463.1 335.4 462.7 335C462.3 334.6 463.5 331.7 465.5 328.4C471 319.3 472.2 314.3 472.7 297.5C473.3 279 472.1 269.9 467.6 260.5C461.8 248.4 452.4 239.8 439.5 235.1C432.7 232.5 419.1 231.5 412.1 233ZM436.6 251.4C444.1 254.8 451.1 262.2 454.2 269.8C456.2 275 456.5 277.1 456.5 292.5C456.5 307.9 456.3 310 454.2 315.3C451.2 322.7 443.9 330.3 436.3 333.8C428.6 337.3 417 337.5 409.7 334.2C399.1 329.4 392.3 321.4 389.4 310C387 300.7 387.8 277.6 390.8 270.2C398.1 251.7 418.7 243.2 436.6 251.4Z" fill="#137AB6"/>
<path d="M36 450.5V512H44H52V450.5V389H44H36V450.5Z" fill="#137AB6"/>
<path d="M127 450.5V512H135H143V450.5V389H135H127V450.5Z" fill="#137AB6"/>
<path d="M369 450.5V512H377H385V450.5V389H377H369V450.5Z" fill="#137AB6"/>
<path d="M460 450.5V512H468H476V450.5V389H468H460V450.5Z" fill="#137AB6"/>
<path d="M0 471V512H7.5H15V471V430H7.5H0V471Z" fill="#137AB6"/>
<path d="M497 491.5V512H504.5H512V491.5V471H504.5H497V491.5Z" fill="#137AB6"/>
</g>
</g>
<defs>
<clipPath id="clip0_363_4404">
<rect width="512" height="512" fill="white"/>
</clipPath>
</defs>
</svg>
