<svg width="512" height="512" viewBox="0 0 512 512" fill="none" xmlns="http://www.w3.org/2000/svg">
<path d="M228.5 2.90037C210.8 6.10037 193.9 11.7004 172.5 21.4004C159.6 27.3004 136.9 40.3004 135.3 42.6004C134.1 44.5004 133.9 53.7004 134.2 103.7L134.6 162.5L137.3 172.5C142.3 190.8 150.8 205.8 164 219.2L171.6 227H148.3H125L123.9 224.2C122.6 220.7 118.5 216.4 115.1 215.1C113.7 214.6 101.8 212 88.7 209.4C67.9 205.3 64.5 204.8 61.1 205.8C56.4 207.3 52.4 210.3 50.6 213.9C49.1 216.6 15 385.7 15 390C15 394 18.9 400.8 22.6 403.1C25 404.6 33.8 406.8 50.4 410.1C75 415 78.1 415.2 83.7 412.2C86.6 410.6 91 405.2 91 403.2C91 402.3 114.5 425 143.3 453.7C178.3 488.6 197 506.6 200 508.2C203.9 510.2 205.9 510.5 215 510.5C224.8 510.5 225.9 510.3 230.9 507.5C237.1 504.1 242.2 498.5 244.7 492.5L246.5 488.2L255 496.4C266.5 507.5 270.8 509.5 283 509.5C291.3 509.5 293.1 509.2 297.5 506.8C303.4 503.8 310.3 496.7 312.7 491.3C313.7 489.2 314.5 487.3 314.7 487.1C314.8 486.9 316.1 487.7 317.5 488.8C324.8 494.5 341.9 495.7 350.8 491.1C360.9 485.9 367.6 476.4 368.7 465.7L369.3 460.2L374.5 459.6C386.3 458.2 395.7 451.4 400.6 440.7C403 435.4 403.4 433.3 403.3 425.9L403.2 417.2L411.6 408.9L419.9 400.6L421 403.6C423.1 409.1 428.2 413.1 434.7 414.3C439.4 415.2 484.8 405.9 489.3 403.1C493.1 400.8 497 394.1 497 390C497 385.7 462.9 216.6 461.4 213.9C459.6 210.3 455.6 207.3 450.9 205.9C447.6 204.9 444 205.3 422.3 209.6C405.6 212.9 396.6 215.1 394.6 216.5C389.7 219.8 387.6 223.6 387 229.8L386.5 235.5L380 237.4C370.6 240.1 346.3 240.3 336.8 237.6C333 236.6 330 235.5 330 235.1C330 234.8 333.1 232.1 336.9 229.2C359.4 212 373.5 187.4 377 159C377.6 154.2 378 127.9 378 97.2004V43.9004L375.7 41.7004C374.5 40.4004 367.6 36.2004 360.5 32.2004C335.6 18.5004 310.5 8.50037 289.5 4.00037C275.1 0.900372 242.7 0.300372 228.5 2.90037ZM280.4 19.6004C300.3 23.3004 319.9 30.6004 344.5 43.3004L360.5 51.6004L360.8 100.1C361.1 153.1 360.6 160.3 355.9 174.4C349.7 193 339.7 205.7 319.2 220.9C311.2 226.8 310.1 226.8 303.7 221.7L300.9 219.5L312.1 211.5C326.7 201.1 334.8 192.3 340.5 180.6C348.5 164.4 348.3 165.6 348.8 110.7C349.1 66.4004 349 61.6004 347.5 59.3004C345.4 56.2004 319.9 43.7004 305.5 38.7004C284.6 31.5004 278.7 30.5004 256 30.5004C233.3 30.5004 227.4 31.5004 206.5 38.7004C192.9 43.4004 166.7 56.1004 164.7 59.1004C163.2 61.2004 163 66.2004 163 107C163.1 156.4 163.5 161.9 168.5 174.5C174.7 190.3 183.2 199.7 205.3 215.4C212.8 220.8 219 225.6 219 226.1C219 226.6 215 227 210.1 227H201.2L192.8 220.9C172.2 205.6 162.4 193.2 156.1 174.4C151.4 160.2 150.9 153.1 151.2 100L151.5 51.5004L172.5 41.0004C200.4 27.0004 220 20.5004 242.4 18.0004C251.6 16.9004 270.1 17.7004 280.4 19.6004ZM276.1 48.6004C291.9 51.5004 305.5 56.2004 322.6 64.8004L332.1 69.5004L331.8 113.5C331.4 155.6 331.3 157.8 329.2 164.1C326.6 172 320.7 181.4 314.8 187.1C312.4 189.4 305 195.2 298.3 200.1L286.2 208.9L282.3 207C275.6 203.8 269.4 202.7 260.2 203.2C250.9 203.6 243.5 206.2 236.6 211.5L233.1 214.2L216.8 202.4C207.9 195.9 198.8 188.8 196.7 186.7C191.2 181.2 185.3 171.6 182.8 164.1C180.7 157.8 180.6 155.6 180.2 113.4L179.9 69.4004L192.7 63.2004C209.4 55.2004 224.9 50.1004 240 47.7004C246.7 46.6004 268.5 47.1004 276.1 48.6004ZM273 221.9C275.7 222.9 280.9 226.1 284.5 228.9C302.4 243 320 251.7 338.2 255.5C348.1 257.6 367.4 257.4 378.5 255.1C383.5 254 388.2 252.9 389 252.6C390.3 252.1 392.6 262.1 403.3 315.7L416 379.5L404.2 391.3L392.3 403.1L341.4 351.5C308.6 318.2 287.5 297.5 282 293.4C262.3 278.6 245.3 274.4 236.3 282.3C234.5 283.9 232.5 286.1 232 287.1C231.4 288.1 230.3 295.6 229.4 303.7C226.7 329.5 223.6 339.2 215.2 347.8C210.5 352.5 199.7 359 198.5 357.8C197.8 357.2 197.2 354.2 187.5 309.6C182.2 285.3 182.2 284.7 183.7 280.8C185 277.5 190.7 272.3 216.4 250.8C234 236 249.7 223.7 252.5 222.4C258.7 219.5 266.1 219.3 273 221.9ZM87.5 226.6C98 228.6 106.8 230.6 107.2 230.9C108 231.6 75.8 395.6 74.7 396.6C74.1 397.3 36.8 390.4 33.9 389.2C32.6 388.6 34.6 377.4 48.9 305.3C62.7 235.7 65.7 222.1 67 222.4C67.8 222.7 77.1 224.6 87.5 226.6ZM463.1 305.2C477.4 377.4 479.4 388.6 478.1 389.2C475.2 390.4 437.9 397.3 437.3 396.7C436.4 395.7 404 231.7 404.6 231C405 230.6 432.9 224.6 446 222.1C446.3 222 454 259.5 463.1 305.2ZM196 245.3C195.2 246.1 190.4 250.1 185.4 254.3C169.4 267.6 165.6 273.6 165.7 285C165.8 289.3 168.9 305.6 174.8 332.5C183.1 369.9 184.1 373.7 186.5 375.7C189.9 378.6 192.4 378.6 201.8 375.4C212.6 371.8 219.5 367.6 227.1 360.1C238.5 348.7 243.6 334.7 246.2 307.7L247.4 294.9L250.4 295.6C255 296.6 263.7 301.2 270.5 306.2C275.7 310.1 311.6 345.8 370.9 406.2L386.4 422V426.8C386.4 433.2 383.3 438.2 377.6 440.9C372.5 443.4 369 443.5 364.7 441.4C362.9 440.5 344.2 422.5 323 401.4C287.9 366.4 284.1 363 281.1 363C277.1 363 272 367.6 272 371.3C272 372.6 273.3 375.5 274.9 377.6C276.5 379.7 293.8 397.5 313.5 417C333.1 436.5 349.8 453.7 350.6 455.2C354 461.6 350.7 471.6 344 475.1C339.9 477.4 332.9 477.6 329.2 475.6C327.7 474.8 309 456.5 287.5 435C266.1 413.4 247.2 395.2 245.6 394.5C242.2 393 237.2 394.1 235.3 396.7C234.6 397.6 234 400.2 234 402.4C234 406.3 234.7 407.1 265.9 438.4C295.3 468 297.8 470.8 298.5 474.7C299.3 480 296.5 486.8 292.1 489.9C288.5 492.5 282.6 493.6 278.3 492.6C276.4 492.1 264.2 480.6 241.5 457.9C208.9 425.4 207.2 424 203.7 424C198.6 424 195 427.5 195 432.6C195 436.1 196.2 437.5 212.4 453.9C230.9 472.6 232.1 474.5 230.5 481.9C229.7 485.7 225.8 490.6 221.9 492.5C218.3 494.4 211.7 494.4 208.2 492.6C206.7 491.8 180.8 466.4 150.6 436.2L95.7 381.2L108.9 314.8C116.1 278.4 122.3 247.5 122.5 246.2L123 244H160.2C191.3 244 197.2 244.2 196 245.3Z" fill="#137AB6"/>
<path d="M284.999 92.2999C282.499 92.9999 275.899 98.7999 262.299 112.3L243.099 131.3L236.999 125.7C232.399 121.4 229.499 119.6 225.199 118.4C204.999 112.5 188.299 133.1 197.999 152C200.599 157.2 228.099 183.7 233.199 186C238.799 188.6 248.099 188.6 253.499 186.1C258.299 183.9 311.799 130.3 314.599 125C317.299 119.9 317.099 108.8 314.299 103.5C311.599 98.3999 308.599 95.5999 302.999 93.0999C298.099 90.7999 290.699 90.4999 284.999 92.2999ZM297.899 110.4C299.599 112.2 300.099 113.6 299.599 115.2C299.299 116.5 287.199 129.5 272.699 144.3C249.799 167.6 246.099 171 243.499 171C240.999 171 238.099 168.6 226.299 156.9C217.299 148.1 211.999 142.2 211.999 140.9C211.999 138.6 216.199 134 218.399 134C219.299 134 224.399 138 229.699 143C244.499 156.6 242.399 157.3 268.999 130C292.199 106.3 293.299 105.5 297.899 110.4Z" fill="#137AB6"/>
<path d="M58.9017 25.4997C56.3017 26.8997 18.9017 66.2997 15.8017 70.8997C12.1017 76.3997 14.6017 85.0997 20.5017 87.5997C22.4017 88.3997 26.0017 88.9997 28.5017 88.9997H33.0017V126V163L36.4017 166.8L39.8017 170.5L63.6017 170.8C89.4017 171.1 91.3017 170.8 95.5017 165.8L98.0017 162.8V125.9V88.9997H102.602C113.202 88.9997 119.402 81.5997 116.102 72.7997C114.902 69.4997 74.7017 26.5997 71.5017 25.1997C68.0017 23.5997 62.1017 23.6997 58.9017 25.4997ZM90.7017 71.7997C80.7017 73.0997 81.0017 71.7997 81.0017 116.5V154H65.5017H50.0017V117.1C50.0017 93.9997 49.6017 79.1997 49.0017 77.2997C47.8017 74.0997 45.1017 72.1997 40.8017 71.7997C38.4017 71.4997 39.2017 70.4997 51.8017 57.0997L65.5017 42.7997L79.1017 57.0997C90.5017 69.0997 92.5017 71.4997 90.7017 71.7997Z" fill="#137AB6"/>
<path d="M440.196 25.2C437.196 26.7 396.996 69.8 395.896 72.8C392.596 81.6 398.796 89 409.396 89H413.996V125.9V162.8L416.496 165.8C420.696 170.8 422.596 171.1 448.396 170.8L472.196 170.5L475.596 166.8L478.996 163V126V89H483.496C485.996 89 489.596 88.4 491.496 87.6C497.396 85.1 499.896 76.4 496.196 70.9C492.896 66 455.596 26.9 452.896 25.4C449.596 23.8 443.496 23.7 440.196 25.2ZM471.196 71.8C466.896 72.2 464.196 74.1 462.996 77.3C462.396 79.2 461.996 94 461.996 117.1V154H446.496H430.996V116.5C430.996 72.2 430.996 72 421.796 72C418.896 72 419.496 71.3 432.596 57.4L446.496 42.7L460.196 57.1C472.896 70.5 473.696 71.5 471.196 71.8Z" fill="#137AB6"/>
</svg>
