<svg width="512" height="512" viewBox="0 0 512 512" fill="none" xmlns="http://www.w3.org/2000/svg">
<path d="M176.3 10.5011C162.7 13.5011 148.5 23.3011 141 35.0011C134.9 44.5011 132.8 52.8011 132.2 69.1011L131.7 83.8011L127.5 84.3011C118.6 85.3011 113 92.4012 113 102.901V108.901L89.3 109.201C66.2 109.501 65.4 109.601 62.2 111.801C60.4 113.101 58.2 115.601 57.2 117.301C55.6 120.301 55.5 131.701 55.5 304.001C55.5 487.301 55.5 487.501 57.6 491.001C58.7 492.901 61.1 495.501 63 496.701L66.3 499.001H204.1C320.9 499.001 342.8 499.201 348.2 500.401C381.9 508.201 418 495.101 438.6 467.701C458.4 441.301 461.9 405.101 447.5 375.301C433.1 345.601 403.1 326.301 370.6 325.801L361 325.701V246.101C361 191.901 360.6 165.201 359.9 162.501C359 159.201 354.7 154.401 335.7 135.301C323 122.501 311.2 111.401 309.4 110.501C306.9 109.301 301.9 109.001 285.2 109.001H264.3L263.8 102.101C263.2 93.8012 260.8 89.4011 255.2 86.2011C253 85.0011 249.6 84.0011 247.6 84.0011H244V70.2011C244 49.1011 240 38.1011 228.1 26.0011C214.6 12.3011 195.1 6.4011 176.3 10.5011ZM197.5 27.6011C209.1 30.6011 218.1 38.1011 223.4 49.0011C226.4 55.2011 226.5 56.2011 226.8 69.7011C227.1 83.3011 227 84.0011 225.2 84.0011C223.4 84.0011 223.2 83.0011 222.8 70.7011C222.3 58.9011 221.9 56.6011 219.5 51.2011C216.3 44.0011 209.3 36.9011 202.2 33.7011C195 30.4011 181.4 30.6011 174 34.1011C167 37.4011 160.4 44.0011 157.1 51.0011C154.9 55.9011 154.5 58.1011 154.2 70.2011C153.8 84.0011 153.8 84.0011 151.4 84.0011C149 84.0011 149 83.9011 149 73.2011C149 56.2011 152.2 46.7011 161 38.0011C166.3 32.6011 171.5 29.6011 179.3 27.5011C186.2 25.7011 190.3 25.7011 197.5 27.6011ZM197.8 51.3011C203.7 55.2011 205.4 59.6011 205.8 72.7011L206.2 84.0011H188.6H171V73.2011C171 65.0011 171.5 61.6011 172.9 58.5011C177.5 48.5011 188.7 45.2011 197.8 51.3011ZM174 102.401C154.7 109.501 143.2 124.201 141.4 143.801C139.5 164.701 153.5 185.601 173.8 192.101L179.5 193.901H154.8L130 194.001V147.501V101.001L153.8 101.101C174.4 101.101 177 101.301 174 102.401ZM247 147.501V194.001L222.3 193.901C200.7 193.901 198 193.701 201.5 192.601C214.7 188.401 224.9 179.601 230.7 167.301C234 160.501 234.5 158.501 234.8 150.201C235.3 138.601 233.3 130.401 228 122.201C221.7 112.501 213 105.701 202.5 102.401C199 101.301 201.7 101.101 222.8 101.101L247 101.001V147.501ZM180.3 119.701C180.1 120.701 178.4 122.401 176.7 123.501C169.3 128.201 166.7 138.301 170.8 146.001C172.7 149.401 172.7 149.401 170.2 151.501C164.9 156.001 168.5 167.201 176.5 171.601C178.4 172.601 180.2 174.001 180.4 174.701C182.1 178.901 169 171.401 164.9 165.701C160.1 159.101 158.7 155.101 158.7 147.501C158.6 135.801 164.8 125.801 175.3 120.601C181.4 117.501 180.9 117.601 180.3 119.701ZM206.8 124.001C210 126.401 212.6 129.601 214.8 134.001C218 140.101 218.2 141.001 217.8 148.601C217.5 155.001 216.8 157.601 214.7 161.201C211.7 166.401 205.4 172.401 200.5 174.701C196.8 176.501 194.2 175.501 197.4 173.601C206.5 168.101 209 164.501 209 157.201C209 153.201 206.2 145.801 204.1 144.501C203.6 144.201 204.2 142.901 205.6 141.501C209.9 137.201 208.3 129.801 201.8 124.601C200 123.201 197.9 121.501 197.3 120.901C196.6 120.401 196 119.501 196 119.001C196 117.601 201.8 120.301 206.8 124.001ZM113 161.701C113 195.201 113.1 197.601 115 201.401C116.1 203.701 118.6 206.601 120.7 208.001L124.4 210.501L185.9 210.801C227.1 211.001 248.7 210.801 251.1 210.101C256.2 208.601 259.9 205.301 262.1 200.601C263.8 196.901 264 193.401 264 161.201V126.001H280.5H297V144.901C297 162.801 297.1 163.901 299.3 167.101C302.7 172.101 306.1 172.901 326.3 172.901L344 173.001V250.801V328.701L339.8 330.001C329.7 333.001 312.8 343.301 306.1 350.401L303.7 353.001H235.8H167.9L165.5 355.501C162 358.901 162.2 363.301 165.9 367.101L168.8 370.001H229.9H291L289.5 372.301C287.3 375.701 282.4 389.501 281 396.201L279.9 402.001H223.9H167.9L165.5 404.501C163.8 406.101 163 408.001 163 410.501C163 413.001 163.8 414.901 165.5 416.501L167.9 419.001H223.4H279L279.4 421.201C279.7 422.501 280.1 425.401 280.4 427.701L281 432.001H224.1H167.1L165.1 434.601C162.3 438.101 162.5 442.301 165.4 445.701L167.8 448.501L226.8 448.801L285.8 449.101L290.6 457.701C293.5 462.801 298.5 469.601 302.9 474.201L310.2 482.001H191.1H72V304.001V126.001H92.5H113V161.701ZM190.5 138.001C191.2 139.201 190.3 139.201 187.5 138.001C185.6 137.201 185.6 137.101 187.7 137.101C188.9 137.001 190.2 137.401 190.5 138.001ZM323 147.501L331.5 156.001H322.7H314V147.501C314 142.801 314.1 139.001 314.3 139.001C314.4 139.001 318.3 142.801 323 147.501ZM188.6 156.001C189.4 156.001 190 156.401 190 157.001C190 158.501 187.6 158.201 185.4 156.401C183.7 155.001 183.7 154.901 185.3 155.401C186.3 155.701 187.8 156.001 188.6 156.001ZM375.8 343.001C414.9 347.901 443.2 383.301 438.9 421.701C435.6 451.301 414 476.101 385 483.701C376.2 486.001 359.6 486.001 351 483.701C342.3 481.401 329.8 475.101 322.8 469.501C311.9 460.901 302.1 445.601 298.3 431.001C296 422.401 296 405.801 298.3 397.001C303.6 376.501 318.4 358.601 337.4 349.501C346.8 345.101 350.6 344.101 366.5 342.101C367.1 342.101 371.3 342.501 375.8 343.001Z" fill="#137AB6"/>
<path d="M96.1 235.401C91.4 238.001 91.1 239.801 91 266.801V292.201L94.4 295.601L97.8 299.001H122H146.2L149.6 295.601L153 292.201V266.501V240.801L149.6 237.401L146.2 234.001H122.4C104.5 234.101 97.9 234.401 96.1 235.401ZM136 266.501V282.001H122H108V266.501V251.001H122H136V266.501Z" fill="#137AB6"/>
<path d="M165.905 246.901C162.205 250.701 162.005 255.101 165.505 258.501L167.905 261.001H237.805H307.705L309.805 258.701C312.005 256.401 312.705 251.901 311.405 248.501C309.605 244.001 309.105 244.001 237.005 244.001H168.805L165.905 246.901Z" fill="#137AB6"/>
<path d="M165.505 276.501C161.405 280.501 162.805 287.801 167.905 290.001C169.705 290.701 191.405 291.001 239.305 290.801L308.205 290.501L310.105 288.101C313.005 284.501 312.605 278.701 309.405 276.101C306.805 274.001 306.005 274.001 237.305 274.001H167.905L165.505 276.501Z" fill="#137AB6"/>
<path d="M94.1 316.101L91 319.201V345.101V371.001L93.9 374.201L96.8 377.501H122H147.2L150.1 374.201L153 371.001V346.001C153 328.801 152.6 320.301 151.8 318.501C149.5 313.401 147.2 313.001 121.1 313.001H97.2L94.1 316.101ZM136 345.501V361.001H122H108V345.501V330.001H122H136V345.501Z" fill="#137AB6"/>
<path d="M167.401 324.201C162.701 326.401 161.701 333.701 165.501 337.501L167.901 340.001H237.501H307.101L309.501 337.501C312.601 334.501 312.801 329.201 310.101 325.901L308.201 323.501L238.801 323.301C192.301 323.201 168.801 323.501 167.401 324.201Z" fill="#137AB6"/>
<path d="M93.9 394.9L91 397.8V423.7C91 452 91.1 452.4 97 455.5C101.2 457.7 142.8 457.7 147 455.5C152.9 452.5 153 451.9 153 424.7C153 398.4 152.5 395.4 148.1 393C146.9 392.4 136.5 392 121.5 392H96.8L93.9 394.9ZM136 424V440H122H108V424V408H122H136V424Z" fill="#137AB6"/>
<path d="M402.5 381.901C401.4 382.401 389.8 392.501 376.6 404.401L352.8 426.101L343.4 417.001C335.4 409.201 333.6 408.001 330.7 408.001C325.4 408.001 322 411.201 322 416.201C322 420.101 322.6 420.901 334.7 433.201C348.3 446.901 351.6 448.801 356.3 445.701C359.1 443.901 404.1 403.301 409.8 397.501C412.8 394.301 414 392.301 414 390.101C414 384.501 407.4 379.801 402.5 381.901Z" fill="#137AB6"/>
</svg>
