<svg width="512" height="512" viewBox="0 0 512 512" fill="none" xmlns="http://www.w3.org/2000/svg">
<g clip-path="url(#clip0_363_4508)">
<mask id="mask0_363_4508" style="mask-type:luminance" maskUnits="userSpaceOnUse" x="0" y="0" width="512" height="512">
<path d="M512 0H0V512H512V0Z" fill="white"/>
</mask>
<g mask="url(#mask0_363_4508)">
<path d="M209.001 8.39909C159.501 18.1991 162.901 17.3991 158.901 20.6991C152.201 26.3991 152.001 27.1991 152.101 69.4991C152.101 90.3991 152.501 110.899 153.001 114.999C157.801 151.799 179.001 183.299 211.901 202.499C219.301 206.799 247.601 217.799 253.501 218.599C261.201 219.699 291.801 207.699 306.801 197.699C329.801 182.399 346.701 159.299 354.401 132.599C357.601 121.599 357.601 119.499 354.501 116.499C349.101 110.999 342.101 114.399 340.101 123.699C336.601 139.299 327.401 156.399 315.601 168.799C302.301 182.799 291.401 189.599 269.001 197.999L255.601 202.999L243.001 198.399C220.101 189.999 208.201 182.499 194.901 168.099C183.501 155.899 175.901 141.699 170.801 123.199C168.801 116.099 168.601 112.499 168.201 74.8991C167.901 42.0991 168.101 34.1991 169.201 33.2991C169.901 32.7991 189.801 28.5991 213.301 23.9991L256.101 15.6991L298.301 23.9991C321.501 28.4991 341.101 32.6991 341.801 33.2991C342.701 33.9991 343.001 41.2991 343.001 63.6991V93.0991L345.501 95.4991C347.001 97.0991 349.101 97.9991 351.001 97.9991C352.901 97.9991 355.001 97.0991 356.501 95.4991L359.001 93.0991V62.4991C359.001 37.1991 358.701 31.2991 357.501 28.1991C355.601 23.8991 352.501 20.3991 348.901 18.3991C345.101 16.4991 260.801 -0.000914489 255.201 0.0990855C252.601 0.199085 231.801 3.89909 209.001 8.39909Z" fill="#137AB6"/>
<path d="M247.5 31.4991C244.2 32.1991 229.1 35.1991 214 38.0991C191 42.4991 186.2 43.7991 184.3 45.5991C182 47.8991 182 48.0991 182 77.2991C182 110.2 182.9 118.7 188.1 132C189.7 136.4 193.3 143.3 196.1 147.5C207.9 165.6 221.7 175.9 245.9 184.7L255.3 188.1L261.9 185.9C291.2 176.2 309.4 161.2 320.5 137.7C327.7 122.7 328.3 118.3 328.8 81.2991L329.2 48.0991L326.8 45.6991C324.8 43.6991 319.8 42.3991 290.8 36.6991C272.4 32.9991 256.4 29.9991 255.4 30.0991C254.3 30.1991 250.8 30.7991 247.5 31.4991ZM285.8 52.0991L313 57.3991V81.5991C313 108.6 312 116.4 307.2 127.9C299.4 146.5 284.8 159.9 263.3 168.1L255.7 171.1L246.4 167.5C222.5 158.2 207.3 141.9 200.4 118.1C199.1 113.7 198.6 106.4 198.3 84.9991L197.8 57.4991L226.7 51.8991C242.5 48.6991 256.2 46.3991 257 46.4991C257.8 46.6991 270.8 49.1991 285.8 52.0991Z" fill="#137AB6"/>
<path d="M276.707 78.199C275.507 79.499 267.307 89.199 258.607 99.799C244.807 116.599 242.607 118.899 241.107 117.799C240.207 117.099 238.207 115.499 236.707 114.299C232.907 111.299 228.607 111.299 225.507 114.499C220.707 119.199 222.407 123.399 232.507 132.199C238.807 137.899 240.707 138.999 243.607 138.999C247.807 138.999 245.907 140.999 271.407 109.999C288.107 89.699 290.007 87.099 290.007 83.699C290.007 78.899 287.207 75.999 282.507 75.999C280.107 75.999 278.207 76.799 276.707 78.199Z" fill="#137AB6"/>
<path d="M2.60547 176.1C-0.694537 178.7 -1.09453 184.7 1.90547 187.4C2.90547 188.3 35.0055 203.8 73.1055 221.7L142.506 254.3L171.506 249.6C206.206 244 215.606 243.7 230.406 247.4C240.706 250.1 253.306 255.8 260.906 261.4C266.406 265.5 313.906 313 315.706 316.2C319.806 323.6 313.806 333 305.006 333C300.906 333 300.706 332.9 278.606 317.2C268.106 309.8 258.206 302.8 256.506 301.8C253.206 299.8 246.606 299.4 242.606 301C239.706 302.1 208.506 330.1 207.006 333C205.506 335.9 205.806 338.5 208.106 341.4C209.706 343.4 211.006 344 214.106 344C217.706 344 219.006 343.1 229.306 333.8C235.506 328.2 242.306 321.9 244.606 319.8L248.606 316L270.006 331.1C281.706 339.4 293.106 346.8 295.306 347.6C297.506 348.4 302.306 349 305.906 349C325.206 349 337.706 330.5 331.306 311.4C329.906 307.2 326.906 303.7 311.306 287.8C296.506 272.9 293.206 269.1 294.706 268.6C300.106 266.9 315.206 266.1 323.506 267.1C334.106 268.3 336.706 268.9 352.506 274.2C372.206 280.7 364.406 283.8 442.006 238.5C478.606 217.2 509.006 199 509.706 198.1C511.206 196.2 511.406 191.5 510.006 189C508.806 186.8 503.606 184.8 501.206 185.7C500.306 186 470.106 203.4 434.206 224.3L368.906 262.3L354.206 257.7C336.306 252.1 335.906 252.1 324.106 251.1C312.506 250.1 297.206 251.3 287.106 253.9L279.706 255.9L275.106 252C263.206 242.1 246.806 234.3 230.506 230.9C215.506 227.8 201.906 228.3 171.406 233.3L145.206 237.6L77.5055 205.8C40.2055 188.3 8.80547 174 7.50547 174C6.30547 174 4.10547 174.9 2.60547 176.1Z" fill="#137AB6"/>
<path d="M4.40305 314.4C2.70305 315.2 1.00305 316.5 0.603053 317.5C-0.396947 320.2 -0.0969465 324.5 1.20305 326.3C1.90305 327.2 22.8031 337.8 47.5031 349.9L92.5031 371.9L99.6031 380.2C110.103 392.4 122.903 402.6 139.103 411.8C142.303 413.6 145.903 416.7 147.403 418.9C150.603 423.5 156.003 427.3 161.703 429C165.703 430.2 165.803 430.4 166.303 435.6C167.703 449 179.003 460 191.603 460C194.503 460 194.803 460.3 195.403 464.1C197.303 476.1 206.703 484.8 219.603 486.5C224.603 487.2 224.803 487.4 225.303 490.7C226.803 499.5 233.503 507.6 241.803 510.6C248.003 512.8 258.703 512.3 264.503 509.6C267.303 508.4 270.103 506.6 270.903 505.7C272.703 503.5 273.703 503.6 279.103 506.2C288.203 510.6 300.803 508.5 309.203 501.1C313.103 497.7 318.003 489 318.003 485.4C318.003 483.6 318.703 483.2 322.903 482.7C334.603 481.3 344.203 472.9 347.103 461.6C348.203 457.3 348.503 457 351.503 457C356.403 457 362.803 454.4 367.603 450.5C372.203 446.7 377.003 438.2 377.003 433.8C377.003 431.2 377.203 431 381.403 431C392.703 431 403.403 421.9 406.203 410C407.103 405.8 408.003 404.6 410.403 403.3C415.103 400.9 426.003 392.6 430.203 388.3C432.203 386.2 436.203 381.4 439.203 377.6L444.503 370.7L476.003 355.4C493.303 347 508.503 339.2 509.703 338.1C512.703 335.6 512.803 329.8 510.003 327C506.103 323.1 503.003 324.1 466.903 341.9L432.503 358.8L426.303 367.3C420.503 375.2 414.003 381.5 406.403 386.8L403.303 389L393.903 378.2C381.703 364.3 377.103 361.7 365.903 362.2C359.903 362.6 357.303 363.2 353.703 365.3C347.203 369.2 342.203 375.5 340.303 382.2L338.703 388H334.503C329.203 388 321.003 392.1 316.903 396.8C313.303 400.8 310.103 407.4 310.003 410.6C310.003 412.4 309.203 412.8 304.803 413.4C293.703 414.9 284.103 422.9 281.303 433.2C279.703 438.9 279.603 439 276.003 439C271.203 439 260.903 444.2 257.403 448.3C250.103 456.9 248.503 469.3 253.403 478.5C254.803 481.2 257.503 485.2 259.203 487.3L262.503 491.2L259.703 493.6C254.603 497.9 244.803 496.2 242.203 490.5C240.403 486.7 240.803 481.9 243.003 478.5C245.603 474.6 245.603 469.6 243.003 467C240.303 464.3 234.003 464.3 231.503 467C228.803 470 223.503 471.4 219.803 470.1C211.603 467.2 209.303 460.9 213.403 453C216.503 447 216.603 445.1 213.903 441.6C211.203 438.2 206.203 438.1 201.203 441.5C194.103 446.3 185.203 443.7 182.903 436.1C181.803 432.4 181.903 431.6 184.303 426.9C187.703 420.4 187.703 418.5 184.003 414.8C181.503 412.4 180.403 411.9 178.203 412.4C170.303 414.2 167.703 414.3 164.503 412.6C159.403 409.8 157.403 402.5 160.303 397.4C161.003 396.2 169.603 387.8 179.503 378.8C196.003 363.8 197.503 362.2 197.803 358.7C198.403 352.2 192.003 348 186.403 351.3C182.303 353.7 148.503 384.9 146.603 388C145.603 389.8 144.503 392.2 144.103 393.5C143.503 395.9 143.503 395.9 137.303 391.7C127.003 384.7 118.303 377 110.103 367.5L102.303 358.5L56.9031 336.4C31.9031 324.2 10.6031 314 9.50305 313.7C8.40305 313.4 6.10305 313.7 4.40305 314.4ZM375.903 382.7C385.903 393.1 391.003 400 391.003 403.1C391.003 409.7 385.303 415 378.403 415C374.903 415 373.903 414.3 367.703 407.7C359.903 399.4 355.003 392.5 355.003 389.8C355.003 384.1 361.703 378 367.903 378C370.703 378 372.203 378.9 375.903 382.7ZM343.603 405C343.703 405 347.603 409.5 352.403 415.1C360.103 424.1 361.003 425.6 361.003 429.1C361.003 436 355.903 441 348.803 441C346.003 441 344.403 439.9 338.703 433.9C328.603 423.4 326.003 419.4 326.003 414.7C326.003 411.5 326.603 410.1 329.503 407.4C333.403 403.8 336.003 403 340.503 404.2C342.103 404.6 343.503 405 343.603 405ZM314.303 431.8C320.403 437.1 331.003 450.5 331.603 453.5C332.403 457.7 330.003 462.4 325.703 465C322.103 467.3 319.203 467.5 315.603 465.9C313.203 464.8 299.803 449.9 297.303 445.6C291.803 436.1 306.103 424.5 314.303 431.8ZM288.903 461.7C299.503 473.1 302.003 476.9 302.003 481C302.003 488.6 293.603 494.5 286.803 491.7C283.303 490.2 269.403 474.9 267.303 470.2C264.203 463.1 271.403 454.4 279.503 455.4C282.803 455.8 284.403 456.8 288.903 461.7Z" fill="#137AB6"/>
</g>
</g>
<defs>
<clipPath id="clip0_363_4508">
<rect width="512" height="512" fill="white"/>
</clipPath>
</defs>
</svg>
