<svg width="512" height="512" viewBox="0 0 512 512" fill="none" xmlns="http://www.w3.org/2000/svg">
<path d="M101.499 17.5L98.9994 19.9V69.5V119H83.2994C68.7994 119 67.0994 119.2 62.4994 121.4C55.8994 124.4 49.3994 131.8 47.4994 138.5C46.1994 143 45.9994 158.6 46.1994 256.6L46.4994 369.5L49.1994 374.6C50.6994 377.5 53.7994 381.4 56.0994 383.3C64.1994 390.2 60.7994 390 146.699 390H223.999V392.5C223.999 396.4 219.699 407.1 215.799 413C209.399 422.7 199.599 433.2 187.599 443.4C176.599 452.7 175.999 453.5 175.999 457C175.999 459.2 176.799 461.8 177.899 463.1L179.799 465.5H262.499H345.199L347.599 462.7C351.599 458 350.599 454.3 343.699 448.3C335.299 441.1 319.099 424.1 314.699 417.8C309.599 410.6 303.399 398.3 302.399 393.2L301.799 390H372.199C450.399 390 447.899 390.2 455.899 383.3C458.199 381.4 461.299 377.5 462.799 374.6L465.499 369.5L465.799 256.6C465.999 158.6 465.799 143 464.499 138.5C462.599 131.8 456.099 124.4 449.499 121.4C444.899 119.2 443.199 119 428.799 119H412.999V69.5V19.9L410.499 17.5L408.099 15H255.999H103.899L101.499 17.5ZM396.999 183.5V336H255.999H114.999V183.5V31H255.999H396.999V183.5ZM98.9994 236V337H80.4994H61.9994L62.1994 240.2C62.3994 162.6 62.7994 143 63.7994 141.2C66.6994 136.1 70.3994 135 85.2994 135H98.9994V236ZM443.699 137C445.399 138 447.499 139.9 448.199 141.2C449.199 143 449.599 162.6 449.799 240.2L449.999 337H431.499H412.999V236V135H426.799C438.599 135 440.899 135.3 443.699 137ZM449.699 358.9C449.399 362.2 448.399 366.2 447.399 367.9C443.499 374.5 457.699 374 255.999 374C54.2994 374 68.4994 374.5 64.5994 367.9C63.5994 366.2 62.5994 362.2 62.2994 358.9L61.6994 353H255.999H450.299L449.699 358.9ZM285.599 392.7C287.399 401 288.499 404.1 291.999 411C296.699 420.2 303.499 429.9 312.899 440.7L320.099 449H262.999H205.799L214.199 440C229.799 423.5 237.099 410.4 240.499 392.7L240.999 390H262.999H284.999L285.599 392.7Z" fill="#137AB6"/>
<path d="M232.2 57.0014C202.6 64.8014 182 91.3014 182 121.601C182 137.801 189 154.801 200.5 166.801C213.8 180.801 228.4 187.201 247.5 187.401C260.9 187.501 266.7 186.201 278.8 180.301C285.9 176.801 289.8 174.101 294.9 169.101C301.5 162.601 308.6 152.001 311 144.901C313.8 136.901 308 130.101 300.8 132.901C298.8 133.601 297.1 136.001 294.4 141.401C289.3 152.001 289.2 152.001 282.3 146.701C271.3 138.201 261.2 134.701 248 134.801C234.4 134.901 222.2 139.701 212.8 148.701L209.1 152.301L206.1 147.501C197.4 133.701 196.3 115.301 203.4 100.501C215.9 74.2014 246.9 63.7014 272.2 77.2014C275.5 78.9014 281.3 83.4014 285 87.2014C292.9 95.0014 296.2 95.9014 300.5 91.5014C305.4 86.7014 303.4 81.3014 293.3 72.0014C277.3 57.4014 253.3 51.5014 232.2 57.0014ZM262.3 152.001C265.4 153.201 270.1 156.101 272.7 158.401L277.5 162.701L272.4 165.301C256.6 173.301 237.4 173.101 223.7 164.701L219.8 162.401L223.5 159.201C227.7 155.501 235.4 151.401 240.7 150.001C246.1 148.701 255.7 149.601 262.3 152.001Z" fill="#137AB6"/>
<path d="M240.996 80.7003C237.196 82.0003 231.696 86.7003 229.496 90.4003C224.196 99.6003 225.596 110.9 233.196 119.5C238.196 125.2 242.096 127 249.396 127C256.496 127 263.096 122.7 267.196 115.4C276.696 98.4003 266.796 79.8003 248.396 80.1003C245.196 80.1003 241.796 80.4003 240.996 80.7003ZM254.996 98.0003C257.096 101.8 256.196 106 252.496 109.7C249.596 112.6 248.796 113 246.996 112C244.396 110.6 240.996 105.2 240.996 102.5C240.996 99.8003 243.696 96.0003 246.396 95.1003C249.096 94.1003 253.696 95.7003 254.996 98.0003Z" fill="#137AB6"/>
<path d="M317.8 84.1003C316.8 84.6003 312.2 89.8003 307.4 95.6003C299 105.8 298.7 106 296.6 104.5C295.5 103.7 293.2 102 291.5 100.9C285.9 97.1003 279 100.7 279 107.4C279 111.5 279.8 112.5 289 119.9C298.2 127.3 301.5 127.9 306.4 122.7C314 114.7 330 93.8003 330 91.9003C330 89.1003 327.4 84.4003 325.5 83.6003C323.1 82.7003 319.8 82.9003 317.8 84.1003Z" fill="#137AB6"/>
<path d="M154.201 223.3C151.201 226.5 151.301 231.4 154.501 234.5L156.901 237H256.001H355.101L357.501 234.5C360.801 231.3 360.901 226.2 357.701 223.2L355.401 221H255.901H156.301L154.201 223.3Z" fill="#137AB6"/>
<path d="M204.797 257.7C200.997 262.1 201.897 268.7 206.597 270.9C210.097 272.5 301.897 272.5 305.397 270.9C310.097 268.7 310.997 262.1 307.197 257.7C305.797 256.1 302.097 256 255.997 256C209.897 256 206.197 256.1 204.797 257.7Z" fill="#137AB6"/>
<path d="M237.3 289C232.8 290.9 231.5 298.5 235 302C236.9 303.9 238.3 304 256 304C274.2 304 275 303.9 277 301.8C279.5 299 279.6 294 277.1 290.9C275.2 288.6 274.8 288.5 257.3 288.3C247.5 288.2 238.5 288.5 237.3 289Z" fill="#137AB6"/>
<path d="M118 483C116.7 484.3 116 486.3 116 488.9C116 494.8 119.3 497 128.2 497C134.2 497 135.4 496.7 137.5 494.5C140.8 491.3 140.9 486.2 137.7 483.2C135.7 481.3 134.2 481 127.7 481C121.3 481 119.7 481.3 118 483Z" fill="#137AB6"/>
<path d="M151.298 483.6C149.198 485.7 148.898 486.8 149.398 489.8C149.698 491.8 150.898 494.3 152.098 495.2C154.098 496.9 160.798 497 262.398 497C349.498 496.9 370.798 496.7 372.198 495.6C376.398 492.5 376.198 484.3 371.998 482C370.798 481.4 330.598 481 261.998 481H153.898L151.298 483.6Z" fill="#137AB6"/>
<path d="M386.997 483C383.897 486.1 384.297 492.3 387.597 494.9C391.397 497.9 402.597 497.9 406.397 494.9C409.897 492.2 409.997 486.3 406.697 483.2C404.697 481.3 403.197 481 396.697 481C390.297 481 388.697 481.3 386.997 483Z" fill="#137AB6"/>
</svg>
