<svg width="512" height="512" viewBox="0 0 512 512" fill="none" xmlns="http://www.w3.org/2000/svg">
<path d="M42 10C40.2 11.8 40 13.3 40 26V40H34C24.5 40 24 40.9 24 58V72H18C13.3 72 11.6 72.4 10 74C8 76 8 77.3 8 288C8 498.7 8 500 10 502C12 504 13.3 504 176 504C338.7 504 340 504 342 502C344 500 344 498.7 344 288C344 77.3 344 76 342 74C340.4 72.4 338.7 72 334 72H328V58C328 40.9 327.5 40 318 40H312V26C312 13.3 311.8 11.8 310 10C308 8 306.7 8 176 8C45.3 8 44 8 42 10ZM296 32V40H176H56V32V24H176H296V32ZM312 64V72H176H40V64V56H176H312V64ZM328 288V488H176H24V288V88H176H328V288Z" fill="#137AB6"/>
<path d="M42 106C40 108 40 109.3 40 176C40 242.7 40 244 42 246C43.9 247.9 45.3 248 96 248C146.7 248 148.1 247.9 150 246C152 244 152 242.7 152 176C152 109.3 152 108 150 106C148.1 104.1 146.7 104 96 104C45.3 104 43.9 104.1 42 106ZM136 176V232H96H56V176V120H96H136V176Z" fill="#137AB6"/>
<path d="M168 112V120H240H312V112V104H240H168V112Z" fill="#137AB6"/>
<path d="M168 144V152H240H312V144V136H240H168V144Z" fill="#137AB6"/>
<path d="M168 176V184H240H312V176V168H240H168V176Z" fill="#137AB6"/>
<path d="M170 202C168.1 203.9 168 205.3 168 224C168 242.7 168.1 244.1 170 246C172 248 173.3 248 240 248C306.7 248 308 248 310 246C311.9 244.1 312 242.7 312 224C312 205.3 311.9 203.9 310 202C308 200 306.7 200 240 200C173.3 200 172 200 170 202ZM296 224V232H240H184V224V216H240H296V224Z" fill="#137AB6"/>
<path d="M58 298C56 300 56 301.3 56 370V440H48H40V448V456H176H312V448V440H304H296V402C296 365.3 295.9 363.9 294 362C292.1 360.1 290.7 360 272 360C253.3 360 251.9 360.1 250 362C248.1 363.9 248 365.3 248 402V440H240H232V370C232 301.3 232 300 230 298C228.1 296.1 226.7 296 208 296C189.3 296 187.9 296.1 186 298C184 300 184 301.3 184 370V440H176H168V386C168 333.3 168 332 166 330C164.1 328.1 162.7 328 144 328C125.3 328 123.9 328.1 122 330C120 332 120 333.3 120 386V440H112H104V370C104 301.3 104 300 102 298C100.1 296.1 98.7 296 80 296C61.3 296 59.9 296.1 58 298ZM88 376V440H80H72V376V312H80H88V376ZM216 376V440H208H200V376V312H208H216V376ZM152 392V440H144H136V392V344H144H152V392ZM280 408V440H272H264V408V376H272H280V408Z" fill="#137AB6"/>
<path d="M413.2 10.0004C388.7 16.5004 368.3 37.0004 362 61.6004C360.6 66.9004 360 72.7004 360 80.0004C360 100.8 366.5 116.5 381 131C395.5 145.5 411.2 152 432 152C452.8 152 468.5 145.5 483 131C497.5 116.5 504 100.8 504 80.0004C504 72.7004 503.4 66.9004 502 61.6004C495.7 36.8004 475.2 16.3004 450.4 10.0004C440.1 7.30037 423.4 7.40037 413.2 10.0004ZM424 32.8004C424 40.1004 423.8 40.8004 421.6 41.8004C417.4 43.7004 411.7 49.4004 409.9 53.5004C407.4 58.9004 407.4 69.2004 409.9 74.5004C413.2 81.7004 421.9 88.0004 428.5 88.0004C433 88.0004 437.9 90.6004 438.6 93.4004C440.6 101.5 436.1 104 419.5 104H408V112V120H416H424V127.5C424 131.6 423.8 135 423.6 135C421.8 135 409 130.4 405.9 128.7C398 124.3 391 117.9 386.3 110.7C379.3 100.3 377.5 94.0004 377.5 80.0004C377.5 66.0004 379.3 59.7004 386.2 49.4004C393.3 38.7004 403 31.4004 415.2 27.5004C419.2 26.2004 422.8 25.1004 423.3 25.0004C423.7 25.0004 424 28.5004 424 32.8004ZM450.9 28.1004C465.3 33.0004 478.7 46.5004 484.2 61.5004C487.5 70.7004 487.9 85.7004 485 95.2004C482.6 103.2 480.6 107.1 475.2 114.3C469 122.5 456 131.1 446.5 133.4C444.9 133.8 442.7 134.3 441.8 134.6C440.2 135.1 440 134.3 440.1 127.3V119.5L444.8 116.5C452.1 111.8 455.4 106.3 455.8 98.0004C456 94.2004 455.7 89.6004 455 87.5004C452.5 79.9004 442.7 72.1004 435.7 72.0004C431 72.0004 426.1 69.4004 425.4 66.6004C423.4 58.5004 427.9 56.0004 444.5 56.0004H456V48.0004V40.0004H448H440V32.5004V25.0004L442.8 25.6004C444.3 26.0004 447.9 27.1004 450.9 28.1004Z" fill="#137AB6"/>
<path d="M413.2 186C388.7 192.5 368.3 213 362 237.6C360.6 242.9 360 248.7 360 256C360 276.8 366.5 292.5 381 307C395.5 321.5 411.2 328 432 328C452.8 328 468.5 321.5 483 307C497.5 292.5 504 276.8 504 256C504 248.7 503.4 242.9 502 237.6C495.7 212.8 475.2 192.3 450.4 186C440.1 183.3 423.4 183.4 413.2 186ZM424 208.8C424 216.1 423.8 216.8 421.6 217.8C417.4 219.7 411.7 225.4 409.9 229.5C407.4 234.9 407.4 245.2 409.9 250.5C413.2 257.7 421.9 264 428.5 264C433 264 437.9 266.6 438.6 269.4C440.6 277.5 436.1 280 419.5 280H408V288V296H416H424V303.5C424 307.6 423.8 311 423.6 311C421.8 311 409 306.4 405.9 304.7C398 300.3 391 293.9 386.3 286.7C379.3 276.3 377.5 270 377.5 256C377.5 242 379.3 235.7 386.2 225.4C393.3 214.7 403 207.4 415.2 203.5C419.2 202.2 422.8 201.1 423.3 201C423.7 201 424 204.5 424 208.8ZM450.9 204.1C465.3 209 478.7 222.5 484.2 237.5C487.5 246.7 487.9 261.7 485 271.2C482.6 279.2 480.6 283.1 475.2 290.3C469 298.5 456 307.1 446.5 309.4C444.9 309.8 442.7 310.3 441.8 310.6C440.2 311.1 440 310.3 440.1 303.3V295.5L444.8 292.5C452.1 287.8 455.4 282.3 455.8 274C456 270.2 455.7 265.6 455 263.5C452.5 255.9 442.7 248.1 435.7 248C431 248 426.1 245.4 425.4 242.6C423.4 234.5 427.9 232 444.5 232H456V224V216H448H440V208.5V201L442.8 201.6C444.3 202 447.9 203.1 450.9 204.1Z" fill="#137AB6"/>
<path d="M413.2 362C388.7 368.5 368.3 389 362 413.6C360.6 418.9 360 424.7 360 432C360 452.8 366.5 468.5 381 483C395.5 497.5 411.2 504 432 504C452.8 504 468.5 497.5 483 483C497.5 468.5 504 452.8 504 432C504 424.7 503.4 418.9 502 413.6C495.7 388.8 475.2 368.3 450.4 362C440.1 359.3 423.4 359.4 413.2 362ZM424 384.8C424 392.1 423.8 392.8 421.6 393.8C417.4 395.7 411.7 401.4 409.9 405.5C407.4 410.9 407.4 421.2 409.9 426.5C413.2 433.7 421.9 440 428.5 440C433 440 437.9 442.6 438.6 445.4C440.6 453.5 436.1 456 419.5 456H408V464V472H416H424V479.5C424 483.6 423.8 487 423.6 487C421.8 487 409 482.4 405.9 480.7C398 476.3 391 469.9 386.3 462.7C379.3 452.3 377.5 446 377.5 432C377.5 418 379.3 411.7 386.2 401.4C393.3 390.7 403 383.4 415.2 379.5C419.2 378.2 422.8 377.1 423.3 377C423.7 377 424 380.5 424 384.8ZM450.9 380.1C465.3 385 478.7 398.5 484.2 413.5C487.5 422.7 487.9 437.7 485 447.2C482.6 455.2 480.6 459.1 475.2 466.3C469 474.5 456 483.1 446.5 485.4C444.9 485.8 442.7 486.3 441.8 486.6C440.2 487.1 440 486.3 440.1 479.3V471.5L444.8 468.5C452.1 463.8 455.4 458.3 455.8 450C456 446.2 455.7 441.6 455 439.5C452.5 431.9 442.7 424.1 435.7 424C431 424 426.1 421.4 425.4 418.6C423.4 410.5 427.9 408 444.5 408H456V400V392H448H440V384.5V377L442.8 377.6C444.3 378 447.9 379.1 450.9 380.1Z" fill="#137AB6"/>
</svg>
