<svg width="512" height="512" viewBox="0 0 512 512" fill="none" xmlns="http://www.w3.org/2000/svg">
<path d="M235.502 9.6002C208.902 15.5002 185.702 32.6002 172.202 56.2002C167.602 64.3002 162.602 77.8002 161.502 85.2002L160.802 89.8002L153.702 85.4002C144.802 79.9002 133.902 75.7002 123.102 73.5002C111.502 71.1002 88.7018 71.9002 78.1018 74.9002C45.3018 84.5002 20.5018 109.3 10.9018 142.1C7.90175 152.7 7.10175 175.5 9.50175 187.1C17.4018 226.4 48.9018 256.7 88.3018 263L96.0018 264.3V279.2C96.0018 295.8 96.8018 299.1 102.302 304.9C108.702 311.7 110.402 312 140.702 312H167.802L168.502 317.2C170.102 329.2 175.702 343.3 183.302 354.4C191.502 366.5 207.802 380.1 219.502 384.6C223.702 386.2 224.002 386.5 224.002 389.9V393.5L196.002 401.9C180.602 406.5 165.902 411.5 163.302 413C156.902 416.7 150.402 423.8 147.202 430.8L144.502 436.5L144.202 470.3L143.902 504H256.002H368.102L367.802 470.3L367.502 436.5L364.802 430.8C361.302 423.2 354.102 415.7 347.102 412.2C344.002 410.7 329.502 405.8 314.802 401.5L288.002 393.5V389.9C288.002 386.6 288.302 386.1 292.302 384.6C304.102 380.1 320.502 366.5 328.702 354.4C336.302 343.3 341.902 329.2 343.502 317.2L344.202 312H371.302C401.602 312 403.302 311.7 409.702 304.9C415.202 299.1 416.002 295.8 416.002 279.2V264.3L423.802 263C463.102 256.7 494.602 226.4 502.502 187.1C504.902 175.5 504.102 152.7 501.102 142.1C491.502 109.3 466.702 84.5002 433.902 74.9002C423.302 71.9002 400.502 71.1002 388.902 73.5002C378.002 75.7002 367.202 79.9002 358.202 85.4002C352.702 88.8002 351.002 89.5002 351.002 88.3002C351.002 84.9002 347.602 73.3002 344.502 65.9002C335.602 44.7002 317.602 26.2002 296.602 16.4002C283.302 10.3002 276.202 8.8002 258.502 8.4002C246.602 8.1002 240.702 8.4002 235.502 9.6002ZM273.002 26.6002C277.402 27.5002 284.602 30.2002 290.502 33.0002C307.702 41.4002 318.602 52.3002 327.002 69.5002C332.902 81.7002 335.002 90.7002 335.002 104C335.002 116.8 332.902 126.1 327.602 137.5C319.402 154.8 306.302 167.8 289.002 175.8C278.102 180.9 268.002 183.1 256.002 183.1C243.302 183.1 233.602 180.8 221.502 175C204.302 166.6 193.402 155.7 185.002 138.5C179.102 126.3 177.002 117.3 177.002 104C177.002 90.7002 179.102 81.7002 185.002 69.5002C193.402 52.3002 204.302 41.4002 221.502 33.0002C238.702 24.6002 253.802 22.8002 273.002 26.6002ZM121.002 90.6002C131.002 92.7002 147.002 100.5 154.102 106.8L159.602 111.8L161.302 121.7C162.302 127.1 164.502 135.1 166.302 139.6C169.802 148.2 177.502 161.4 180.902 164.4C185.302 168.4 182.702 186.3 175.602 201.5C167.402 218.8 154.302 231.8 137.002 239.8C126.102 244.9 116.002 247.1 104.002 247.1C91.3018 247.1 81.6018 244.8 69.5018 239C52.3018 230.6 41.4018 219.7 33.0018 202.5C27.1018 190.3 25.0018 181.3 25.0018 168C25.0018 154.7 27.1018 145.7 33.0018 133.5C41.4018 116.3 52.3018 105.4 69.5018 97.0002C86.7018 88.6002 101.802 86.8002 121.002 90.6002ZM425.002 90.6002C429.402 91.5002 436.602 94.2002 442.502 97.0002C459.702 105.4 470.602 116.3 479.002 133.5C484.902 145.7 487.002 154.7 487.002 168C487.002 180.8 484.902 190.1 479.602 201.5C471.402 218.8 458.302 231.8 441.002 239.8C430.102 244.9 420.002 247.1 408.002 247.1C395.302 247.1 385.602 244.8 373.502 239C356.302 230.6 345.402 219.7 337.002 202.5C329.302 186.6 326.502 168.6 331.102 164.4C334.202 161.6 341.602 149.2 344.802 141.4C347.902 133.9 350.402 124.7 351.602 116.7C352.202 112.5 352.902 111.3 357.902 106.9C365.002 100.5 380.902 92.7002 391.002 90.6002C403.502 88.0002 412.002 88.0002 425.002 90.6002ZM218.002 192.6C225.802 195.8 235.002 198.4 243.302 199.6L248.002 200.2V208V215.8L242.802 216.5C230.802 218.1 216.802 223.7 205.502 231.3C186.402 244.2 171.602 268 168.502 290.7L167.802 296H144.402C117.802 296 115.102 295.5 113.102 290C112.502 288.2 112.002 281.6 112.002 275.4V264.2L117.302 263.5C150.402 259 179.602 236.6 192.502 206.1C195.602 198.7 199.002 187.1 199.002 183.7C199.002 182.4 200.202 182.8 204.802 185.7C207.902 187.7 213.902 190.8 218.002 192.6ZM314.502 190.9C323.002 227.9 354.302 256.9 392.302 263L400.002 264.3V275.5C400.002 281.7 399.502 288.2 398.902 290C396.902 295.5 394.202 296 367.602 296H344.202L343.502 290.7C341.902 278.8 336.302 264.7 328.702 253.6C315.702 234.3 292.002 219.6 269.302 216.5L264.002 215.8V208V200.2L269.302 199.5C282.402 197.7 299.502 191.3 309.002 184.7C310.902 183.3 312.602 182.5 312.602 182.9C312.702 183.2 313.602 186.8 314.502 190.9ZM266.202 233.5C269.402 233.8 275.602 235.3 280.002 236.9C300.202 244.3 316.402 260.8 323.702 281.5C326.302 288.9 326.502 290.6 326.502 304C326.502 317.2 326.302 319.2 323.802 326.1C319.802 337.3 314.602 345.6 306.102 354.1C290.402 369.8 270.502 377 248.702 374.9C222.002 372.3 197.902 353.2 188.602 327.1C185.702 319 185.502 317.7 185.502 304C185.502 290.6 185.702 288.9 188.302 281.5C195.802 260.4 212.102 243.9 233.002 236.5C240.202 234 252.702 232 258.002 232.6C259.402 232.8 263.102 233.2 266.202 233.5ZM272.002 393.5C272.002 394.7 268.702 398.8 264.002 403.5L256.002 411.5L248.002 403.5C243.302 398.8 240.002 394.7 240.002 393.5C240.002 391.6 240.602 391.5 256.002 391.5C271.402 391.5 272.002 391.6 272.002 393.5ZM235.702 416.2C239.202 419.6 242.002 422.8 242.002 423.1C242.002 424 228.002 434.4 227.602 433.9C227.202 433.3 220.002 415.1 219.702 413.8C219.502 412.9 225.302 410.4 228.502 410.1C229.002 410 232.302 412.8 235.702 416.2ZM287.102 411.1C289.002 411.7 291.002 412.3 291.702 412.5C292.502 412.8 291.602 416.2 288.802 423.2C286.502 428.9 284.502 433.7 284.402 433.9C284.002 434.4 270.002 424 270.002 423.2C270.002 422.4 282.302 410 283.102 410C283.402 410 285.202 410.5 287.102 411.1ZM211.002 438.7C215.602 450.2 219.602 459.9 220.102 460.4C220.602 461 232.602 452.7 246.802 441.7C247.702 441 248.002 445.6 248.002 464.4V488H228.002H208.002V472V456H200.002H192.002V472V488H175.902H159.802L160.202 465.2L160.502 442.5L163.502 437.1C165.102 434.2 167.902 430.6 169.702 429.3C172.402 427.2 197.402 418.5 201.602 418.1C202.302 418 206.502 427.3 211.002 438.7ZM324.802 422.4C332.802 424.9 340.402 427.9 342.302 429.3C344.102 430.6 346.902 434.2 348.502 437.1L351.502 442.5L351.802 465.2L352.202 488H336.102H320.002V472V456H312.002H304.002V472V488H284.002H264.002V464.4C264.002 445.6 264.302 441 265.302 441.7C279.402 452.7 291.402 461 291.902 460.4C292.402 459.9 296.402 450.2 301.002 438.7C305.502 427.3 309.502 418 309.902 418C310.202 418 316.902 420 324.802 422.4Z" fill="#137AB6"/>
<path d="M204.606 67.5C196.606 78.2 189.906 87.4 189.806 88C189.506 88.9 254.906 164.9 256.006 164.9C257.106 164.9 322.506 88.9 322.206 88C322.106 87.4 315.406 78.2 307.406 67.5L292.806 48H256.006H219.206L204.606 67.5ZM289.206 71.8L294.806 79.5L275.406 79.8C264.706 79.9 247.306 79.9 236.606 79.8L217.206 79.5L222.806 71.8L228.506 64.1H256.006H283.506L289.206 71.8ZM291.306 98.3C286.106 104.9 256.706 138 256.006 138C255.306 138 225.906 104.9 220.706 98.3L218.906 96H256.006H293.106L291.306 98.3Z" fill="#137AB6"/>
<path d="M70.0061 134.6C52.1061 148.1 36.9061 159.7 36.1061 160.5C34.9061 161.6 35.4061 162.8 39.6061 168.4C42.2061 172 44.6061 175 44.8061 175C45.0061 175 47.5061 173.2 50.3061 171L55.5061 167.1L55.8061 191.5L56.0061 216H104.006H152.006L152.206 191.5L152.506 167.1L157.706 171C160.506 173.2 163.006 175 163.206 175C163.806 175 173.006 162.3 173.006 161.6C173.006 160.6 105.106 110 103.806 110.1C103.106 110.1 87.9061 121.2 70.0061 134.6ZM120.106 142.7L135.906 154.5L136.006 177.2V200H104.006H72.0061V177.2L72.1061 154.5L87.8061 142.8C96.4061 136.3 103.706 131 103.906 131C104.106 131 111.406 136.3 120.106 142.7Z" fill="#137AB6"/>
<path d="M360 172V216H408H456V208V200H448H440V172V144H432H424V172V200H416H408V180V160H400H392V180V200H384H376V164V128H368H360V172Z" fill="#137AB6"/>
<path d="M248 256.3C248 264.1 247.8 264.7 245.6 265.8C241.4 267.7 235.7 273.4 233.9 277.5C231.4 282.8 231.4 293.2 233.9 298.5C237.4 306.3 244.3 310.8 255.3 312.5C260.1 313.3 263 316.1 263 320C263 323.8 259.8 327 256 327C252.8 327 249 324 249 321.5C249 320.3 247.4 320 240.5 320H232V323.2C232.1 330 238.5 339 245.6 342.2C247.8 343.3 248 343.9 248 351.7V360H256H264L264.1 351.7V343.5L268.8 340.5C276.1 335.8 279.4 330.3 279.8 321.9C280.3 312.9 278.3 307.5 272.5 302.1C268.3 298.3 264.7 296.7 256.7 295.5C254.6 295.2 252 294 250.9 292.9C248.4 290.4 248.5 285.5 251 283C254.7 279.3 263 281.7 263 286.5C263 287.7 264.6 288 271.5 288H280V284.7C279.9 278 273.5 269 266.4 265.8C264.2 264.7 264 264.1 264 256.3V248H256H248V256.3Z" fill="#137AB6"/>
</svg>
