<svg width="512" height="512" viewBox="0 0 512 512" fill="none" xmlns="http://www.w3.org/2000/svg">
<path d="M218.005 28.2C211.305 32.8 210.505 34.8 210.205 48.6L209.805 61H188.805C169.005 61 167.505 61.1 163.905 63.2C161.405 64.6 159.305 66.9 158.005 69.5C156.105 73.4 156.005 75.7 156.005 114.9C156.005 155.9 156.205 159.1 159.405 161.2C160.005 161.6 181.105 162 206.305 162H252.005V175V188H248.005C242.405 188 239.605 191.1 236.905 200.2L234.705 207.6L228.505 210.9L222.405 214.2L213.705 212.4C205.205 210.6 205.005 210.6 202.405 212.6C199.105 215 186.005 237.6 186.005 240.8C186.005 244.2 187.605 246.9 192.805 252.2L197.405 257H177.705C166.905 257 158.005 256.8 158.005 256.6C158.005 256.3 162.705 248.5 168.505 239.2C174.605 229.4 179.005 221.3 179.005 219.8C179.005 216.9 148.105 171.7 145.005 170C143.805 169.4 127.605 169 101.705 169C63.6049 169 60.1049 169.1 58.2049 170.7C55.3049 173.2 26.1049 215.9 25.4049 218.6C25.1049 219.8 25.4049 221.9 26.1049 223.2C29.2049 229.2 95.4049 335.7 97.0049 337.4C99.3049 339.8 104.305 339.9 106.905 337.6C107.905 336.6 117.705 321.5 128.505 303.9L148.205 272H172.105C185.305 272 196.005 272.4 196.005 272.8C196.005 273.2 194.405 275.2 192.405 277.1C188.205 281.1 186.005 285 186.005 288.2C186.005 289.5 189.305 296.2 193.305 303C202.305 318.5 203.005 318.9 214.305 316.5L222.305 314.8L228.505 318.1L234.705 321.4L236.905 328.8C238.105 333 240.105 337.2 241.505 338.6C243.805 340.9 244.305 341 259.305 341C278.005 341 278.205 340.9 282.005 329.4C284.605 321.7 284.805 321.5 290.405 318.2L296.205 314.8L304.505 316.4C316.805 318.9 317.105 318.7 326.805 301.8C334.405 288.6 334.705 285.9 329.205 279.7C321.605 271.3 320.705 272 338.905 272H355.005V296.5C355.005 319.7 355.105 321.1 357.005 323C359.005 325 360.305 325 420.905 325H482.905L484.905 322.4C487.005 319.8 487.005 318.8 487.005 272.1V224.6L479.805 217.5C475.805 213.7 461.605 200.5 448.305 188.2C420.505 162.8 421.205 163.1 413.205 170.2C398.805 183.3 357.305 221.7 356.305 223C355.405 224 355.105 229.5 355.005 240.7V257H338.905C320.705 257 321.605 257.7 329.205 249.3C334.805 243 334.505 240.1 326.205 226.1C322.505 219.8 318.305 213.8 316.805 212.7C314.205 210.8 314.005 210.8 305.205 212.5L296.205 214.2L290.405 210.8C284.805 207.5 284.605 207.3 282.005 199.6C279.005 190.5 276.605 188 270.905 188H267.005V175V162H313.005C357.705 162 359.105 161.9 361.005 160C362.905 158.1 363.005 156.7 363.005 115.4C363.005 68.3 363.005 68.3 356.605 63.7C353.705 61.6 352.405 61.5 331.305 61.2L309.005 60.9V49.3C309.005 35.9 307.405 31.7 301.005 28.1C297.305 26.1 296.105 26 259.305 26C221.505 26 221.305 26 218.005 28.2ZM294.005 94.5V148H259.505H225.005V94.5V41H259.505H294.005V94.5ZM210.005 112V148H190.505H171.005V112V76H190.505H210.005V112ZM348.005 112V148H328.505H309.005V112V76H328.505H348.005V112ZM79.6049 185.7C79.2049 186.7 76.8049 193 74.2049 199.7L69.5049 212H58.7049H47.8049L49.7049 209C50.8049 207.3 55.1049 201 59.3049 195L67.0049 184H73.6049C79.5049 184 80.1049 184.2 79.6049 185.7ZM112.805 197C115.705 204.2 118.005 210.5 118.005 211C118.005 211.6 111.505 212 101.905 212C87.0049 212 85.8049 211.9 86.4049 210.2C86.8049 209.3 89.2049 203 91.8049 196.2L96.5049 184H102.105H107.705L112.805 197ZM146.505 197.1C151.505 204.3 155.705 210.6 155.805 211.1C156.105 211.7 151.905 212 145.505 211.8L134.805 211.5L131.805 204C130.205 199.9 127.705 193.7 126.405 190.2L124.105 184H130.805L137.505 184.1L146.505 197.1ZM446.805 207.5L471.805 230.5L471.905 270.7L472.005 311H460.505H449.005V286.4C449.005 252.7 449.705 253.8 425.705 253.2C404.905 252.7 399.505 253.4 395.805 257L393.005 259.8V285.4V311H381.505H370.005V270.7V230.5L395.305 207.3C409.105 194.5 420.805 184.2 421.105 184.3C421.405 184.4 433.005 194.8 446.805 207.5ZM270.005 210.8C272.305 218 272.805 218.6 277.005 220.9C279.505 222.2 283.905 224.8 286.905 226.7L292.305 230.2L299.905 228.9C304.105 228.1 307.905 227.5 308.405 227.5C309.005 227.5 311.105 230.4 313.105 233.9L316.805 240.4L311.505 246.2L306.105 252V264.4V276.7L311.505 282.7L316.905 288.7L312.805 295.4C310.605 299.1 308.305 301.9 307.705 301.7C307.005 301.5 303.305 300.7 299.305 300L292.105 298.7L286.805 302.2C283.905 304.2 279.505 306.8 277.005 308.1C272.905 310.3 272.305 311.1 269.905 318L267.305 325.5H259.405H251.605L249.505 318.9C247.105 310.9 246.005 309.6 240.305 307C237.905 306 233.905 303.6 231.505 301.9L227.005 298.7L219.805 300C215.805 300.7 212.005 301.5 211.305 301.7C210.405 302.1 203.005 290.6 203.005 288.7C203.005 288.3 205.305 285.5 208.005 282.5L213.005 277V264.5V252L208.005 246.5C205.305 243.5 203.005 240.7 203.005 240.3C203.005 240 204.605 236.8 206.605 233.3C209.705 227.8 210.505 226.9 212.305 227.4C213.505 227.7 217.305 228.5 220.705 229.2C227.005 230.3 227.005 230.3 231.505 227.1C233.905 225.4 238.005 223 240.505 221.9C245.605 219.6 247.105 217.8 249.505 210C250.505 207 251.505 204.2 251.705 203.7C251.905 203.3 255.605 203 259.805 203H267.505L270.005 210.8ZM75.7049 256.3C79.6049 272.3 82.8049 285.6 82.7049 285.7C82.6049 285.8 74.3049 272.6 64.3049 256.4L46.1049 227H57.3049H68.5049L75.7049 256.3ZM119.705 229.2C113.605 255.4 102.405 298.8 101.905 298.2C101.505 297.8 97.6049 282.4 93.1049 264C88.6049 245.6 84.7049 229.7 84.4049 228.7C83.9049 227.1 85.2049 227 102.005 227H120.205L119.705 229.2ZM156.805 229.2C156.005 230.5 148.005 243.4 139.005 258C130.105 272.6 122.405 284.9 122.005 285.4C121.305 286 130.005 250 135.105 230.7L136.105 227H147.205H158.205L156.805 229.2ZM434.005 289.5V311H421.005H408.005V289.5V268H421.005H434.005V289.5Z" fill="#137AB6"/>
<path d="M240.7 55.0001C238.2 57.0001 238 57.6001 238 65.0001C238 72.4001 238.2 73.0001 240.7 75.0001C244.1 77.6001 248.6 77.1001 251.3 73.8001C252.9 71.9001 253.1 70.2001 252.8 64.3001C252.4 56.3001 251.3 54.4001 246.5 53.4001C244.3 53.0001 242.7 53.4001 240.7 55.0001Z" fill="#137AB6"/>
<path d="M270.307 54.2018C264.407 57.0018 264.607 73.1019 270.607 75.9019C274.107 77.5019 275.307 77.3019 278.407 74.9019C280.807 73.0019 281.007 72.3019 281.007 65.0019C281.007 57.7019 280.807 57.0018 278.407 55.1018C275.507 52.8018 273.607 52.6018 270.307 54.2018Z" fill="#137AB6"/>
<path d="M240.6 87.1009C238.2 89.0009 238 89.7009 238 96.5009C238 106.601 240.8 109.601 248.3 107.701C251.8 106.801 253 103.701 253 95.9009C253 90.9009 252.6 89.5009 250.5 87.5009C247.5 84.5009 244.1 84.3009 240.6 87.1009Z" fill="#137AB6"/>
<path d="M269.106 86.8995C265.206 90.7995 265.106 102.5 268.906 106.3C271.306 108.8 276.406 108.8 279.106 106.4C280.706 105 281.006 103.3 281.006 97.0995C281.006 88.8995 280.606 87.8995 277.306 86.0995C274.106 84.4995 271.306 84.6995 269.106 86.8995Z" fill="#137AB6"/>
<path d="M239.6 118.2C238.5 119.7 238 122.7 238 127.6C238 134.2 238.2 135 240.6 136.9C244.1 139.7 247.5 139.5 250.5 136.5C252.6 134.5 253 133.1 253 128C253 118.8 251.1 116 244.8 116C242.1 116 240.7 116.6 239.6 118.2Z" fill="#137AB6"/>
<path d="M268.4 118.1C266.9 119.8 266.5 121.7 266.5 127.7C266.5 134.4 266.8 135.4 268.9 137.1C271.9 139.6 276.5 139.5 279 137C281.8 134.2 281.9 120.2 279.2 117.7C276.5 115.3 270.7 115.5 268.4 118.1Z" fill="#137AB6"/>
<path d="M186.6 87.1019C184.2 89.0019 184 89.7019 184 96.5019C184 104.301 185.6 107.701 189.5 108.101C196.9 108.701 199 106.201 199 97.0019C199 90.8019 198.7 89.6019 196.5 87.5019C193.5 84.5019 190.1 84.3019 186.6 87.1019Z" fill="#137AB6"/>
<path d="M185.6 118.2C184.5 119.7 184 122.7 184 127.6C184 134.2 184.2 135 186.6 136.9C190.1 139.7 193.5 139.5 196.5 136.5C198.7 134.4 199 133.2 199 127C199 121.3 198.6 119.6 197 118C194.1 115.1 187.6 115.3 185.6 118.2Z" fill="#137AB6"/>
<path d="M322.898 86.9011C321.098 88.3011 320.598 90.0011 320.198 94.9011C319.498 104.701 322.598 109.101 329.498 108.101C333.898 107.501 334.998 105.201 334.998 96.9011C334.998 89.7011 334.798 89.0011 332.398 87.1011C329.098 84.5011 325.898 84.4011 322.898 86.9011Z" fill="#137AB6"/>
<path d="M322.007 118.7C320.107 121.1 319.907 122.5 320.207 128.4C320.507 134.1 321.007 135.6 322.907 137.1C325.907 139.6 330.107 139.5 332.807 137C334.707 135.2 335.007 133.9 335.007 127.1C335.007 118.1 333.607 116 327.707 116C325.007 116 323.607 116.7 322.007 118.7Z" fill="#137AB6"/>
<path d="M254.096 225.6C252.896 227.1 251.996 229 251.996 230C251.996 231.1 250.396 232.3 247.596 233.4C242.096 235.5 236.296 241.7 235.396 246.5C232.796 260.3 240.996 269.5 257.796 271.8C269.496 273.5 273.096 277.1 266.796 281.1C264.096 282.7 262.296 283 257.496 282.7C254.096 282.5 249.996 281.5 248.296 280.6C243.396 278.1 238.496 278.5 236.096 281.6C233.696 284.6 233.496 285.9 235.096 289.4C236.296 291.9 243.096 295.5 248.996 296.6C250.996 297 251.996 297.9 251.996 299C251.996 302.3 255.896 306 259.396 306C263.096 306 266.996 302.6 266.996 299.4C266.996 298.1 268.396 296.9 271.596 295.6C284.696 290.2 288.996 275.5 280.196 265.8C275.596 260.7 270.196 258.2 260.996 257.1C253.496 256.1 249.996 254.1 249.996 250.8C249.996 248.4 255.496 246 260.696 246C262.796 246.1 266.996 246.9 269.996 248C277.596 250.7 280.396 250.5 282.896 247.4C287.196 242 284.796 237.2 276.496 234.1C273.396 232.9 269.996 232 268.996 232C267.596 232 266.996 231.3 266.996 229.7C266.996 223.6 257.896 220.8 254.096 225.6Z" fill="#137AB6"/>
<path d="M168 345.901C157.9 348.501 149.1 352.601 139.2 359.401C130.4 365.301 127.5 366.201 126.5 363.101C125.5 359.801 121.9 356.001 117.9 354.001C114.5 352.201 112 352.001 96.5 352.001C81.2 352.001 78.4 352.201 75.2 353.901C70.6 356.201 68.5 358.501 66.5 363.301C65.2 366.401 65 374.401 65 419.201C65 470.301 65 471.501 67.1 475.801C68.4 478.401 70.9 481.201 73.3 482.801C77.3 485.401 77.7 485.501 95.2 485.801C111.9 486.101 113.4 486.001 117.6 483.901C120.3 482.601 123.2 480.201 124.7 477.901C126.1 475.801 128 473.901 128.9 473.601C129.8 473.401 136.9 472.401 144.7 471.401C158.8 469.701 159.2 469.701 187.7 472.101C209.9 473.901 223.2 474.501 246 474.501C287.8 474.501 303.8 472.101 321.3 463.401C339.4 454.401 430.7 401.301 434.3 397.701C448.4 383.601 444.3 358.201 426.6 349.501C419.7 346.101 410.5 345.201 403.8 347.301C401.3 348.101 384.5 357.101 366.6 367.401C348.7 377.601 333.8 386.001 333.5 386.001C333.2 386.001 333 384.501 333 382.701C333 377.901 327.5 367.601 323.2 364.201C314.4 357.301 316.2 357.601 275.5 357.001L238.5 356.501L231 353.201C216.8 346.901 207.2 344.801 190.5 344.401C178.1 344.101 174.2 344.401 168 345.901ZM208.5 362.501C213.5 363.801 221.3 366.501 226 368.601L234.5 372.401L271.5 373.001C313.5 373.601 312.5 373.401 316.2 381.601C318.3 386.401 318 390.601 315.4 394.801L314 397.001H272.6C232.3 397.001 231.2 397.101 228.6 399.101C225.2 401.801 225 407.301 228.2 410.701L230.3 413.001H274.8H319.2L364.1 387.401C407.8 362.401 409.1 361.801 413.5 362.201C425.5 363.601 431 376.901 423.2 385.701C420.6 388.701 325.4 443.601 311.9 449.901C308.4 451.601 302.1 453.801 297.9 454.901C279 459.701 236.6 460.101 186.3 455.901L158.1 453.601L143.1 455.601L128 457.601V419.301V381.001H132.6C136.7 381.001 138.2 380.301 144.4 375.601C165.4 359.701 183.2 356.101 208.5 362.501ZM111.8 368.201C113.5 369.901 113.5 468.101 111.8 469.801C110.1 471.501 82.9 471.501 81.2 469.801C79.5 468.101 79.5 369.901 81.2 368.201C82 367.401 86.9 367.001 96.5 367.001C106.1 367.001 111 367.401 111.8 368.201Z" fill="#137AB6"/>
</svg>
