<svg width="512" height="512" viewBox="0 0 512 512" fill="none" xmlns="http://www.w3.org/2000/svg">
<path d="M81.3 22.6C78.9 24 75.9 27 74.5 29.4L72 33.7V256V478.3L74.5 482.6C76 485.2 78.8 488 81.4 489.5L85.7 492L220.1 491.8L354.5 491.5V488V484.5L222 484C97.5 483.5 89.2 483.4 86.7 481.7C85.2 480.8 83.2 478.8 82.3 477.3C80.6 474.7 80.5 463.2 80.5 256C80.5 48.8 80.6 37.3 82.3 34.7C83.2 33.2 85.2 31.2 86.7 30.3C89.3 28.6 98.5 28.5 256 28.5C413.5 28.5 422.7 28.6 425.3 30.3C426.8 31.2 428.8 33.2 429.7 34.7C431.4 37.3 431.5 47 432 204.5L432.5 371.5H436H439.5L439.8 202.6L440 33.7L437.5 29.4C436 26.8 433.2 24 430.6 22.5L426.3 20H255.9H85.5L81.3 22.6Z" fill="#137AB6"/>
<path d="M104.406 53.4004C104.106 54.2004 104.006 55.9004 104.206 57.2004L104.506 59.5004H132.006H159.506V56.0004V52.5004L132.206 52.2004C109.206 52.0004 104.906 52.2004 104.406 53.4004Z" fill="#137AB6"/>
<path d="M176.406 53.4004C176.106 54.2004 176.006 55.9004 176.206 57.2004C176.506 59.5004 176.706 59.5004 188.006 59.5004H199.506V56.0004V52.5004L188.206 52.2004C179.106 52.0004 176.906 52.2004 176.406 53.4004Z" fill="#137AB6"/>
<path d="M384.406 53.4004C384.106 54.2004 384.006 55.9004 384.206 57.2004C384.506 59.5004 384.706 59.5004 396.006 59.5004H407.506V56.0004V52.5004L396.206 52.2004C387.106 52.0004 384.906 52.2004 384.406 53.4004Z" fill="#137AB6"/>
<path d="M104.406 125.4C104.106 126.2 104.006 127.9 104.206 129.2L104.506 131.5H232.006H359.506V128V124.5L232.206 124.2C122.606 124 104.906 124.2 104.406 125.4Z" fill="#137AB6"/>
<path d="M104.406 149.4C104.106 150.2 104.006 151.9 104.206 153.2L104.506 155.5H248.006H391.506V152V148.5L248.206 148.2C124.706 148 104.906 148.2 104.406 149.4Z" fill="#137AB6"/>
<path d="M104.406 173.4C104.106 174.2 104.006 175.9 104.206 177.2L104.506 179.5H220.006H335.506V176V172.5L220.206 172.2C121.006 172 104.906 172.2 104.406 173.4Z" fill="#137AB6"/>
<path d="M232.7 204.6C232.3 205 232 219.4 232 236.6V267.9L226.3 268.2L220.5 268.5L220.2 300.2L220 332H214H208.1L207.8 324.2L207.5 316.5H204H200.5L200.2 324.2L199.9 332H196H192.1L191.8 324.2L191.5 316.5H188H184.5L184.2 324.2L183.9 331.9L178.2 332.2L172.5 332.5V384V435.5H256H339.5V352V268.5L333.8 268.2L328 267.9L327.8 236.2L327.5 204.5H324C320.7 204.5 320.5 204.7 320.2 208.2C319.9 211.9 319.8 212 316 212C312.2 212 312.1 211.9 311.8 208.2C311.5 204.7 311.3 204.5 308 204.5H304.5L304.2 218.2L303.9 232H280H256.1L255.8 218.2L255.5 204.5H252C248.7 204.5 248.5 204.7 248.2 208.2C247.9 211.9 247.8 212 244 212C240.2 212 240.1 211.9 239.8 208.2C239.5 204.9 239.2 204.5 236.5 204.2C234.8 204 233.1 204.2 232.7 204.6ZM248 244V268H244H240V244V220H244H248V244ZM320 244V268H316H312V244V220H316H320V244ZM304 244V248H280H256V244V240H280H304V244ZM304 262V268H280H256V262V256H280H304V262ZM332 352V428H320H308.1L307.8 420.2L307.5 412.5L301.8 412.2L296 411.9L295.8 384.2L295.5 356.5H256H216.5L216.2 384.2L216 411.9L210.2 412.2L204.5 412.5L204.2 420.2L203.9 428H192H180V384V340L203.8 339.8L227.5 339.5L227.8 307.7L228 276H280H332V352ZM252 388V412H238H224V388V364H238H252V388ZM288 388V412H274H260V388V364H274H288V388ZM300 424V428H256H212V424V420H256H300V424Z" fill="#137AB6"/>
<path d="M240.502 293.2C240.202 294 240.102 304.7 240.202 317L240.502 339.5H256.002H271.502V316V292.5L256.202 292.2C244.402 292 240.802 292.2 240.502 293.2ZM264.002 306V312H256.002H248.002V306V300H256.002H264.002V306ZM264.002 326V332H256.002H248.002V326V320H256.002H264.002V326Z" fill="#137AB6"/>
<path d="M288.502 293.2C288.202 294 288.102 304.7 288.202 317L288.502 339.5H304.002H319.502V316V292.5L304.202 292.2C292.402 292 288.802 292.2 288.502 293.2ZM312.002 306V312H304.002H296.002V306V300H304.002H312.002V306ZM312.002 326V332H304.002H296.002V326V320H304.002H312.002V326Z" fill="#137AB6"/>
<path d="M236.502 377.3C236.202 378 236.102 383.3 236.202 389.1L236.502 399.5H240.002H243.502V388V376.5L240.202 376.2C238.202 376 236.802 376.4 236.502 377.3Z" fill="#137AB6"/>
<path d="M268.502 377.3C268.202 378 268.102 383.3 268.202 389.1L268.502 399.5H272.002H275.502V388V376.5L272.202 376.2C270.202 376 268.802 376.4 268.502 377.3Z" fill="#137AB6"/>
<path d="M407.799 385.501C385.799 391.001 367.299 409.401 361.599 431.701C359.599 439.401 359.599 455.501 361.499 463.901C366.699 485.801 386.199 505.301 408.099 510.501C416.299 512.401 431.699 512.401 439.899 510.501C461.799 505.301 481.299 485.801 486.499 463.901C488.499 455.401 488.399 439.401 486.399 431.601C482.599 417.101 472.499 402.801 459.899 394.401C448.699 387.001 440.899 384.601 425.999 384.301C417.699 384.201 411.599 384.501 407.799 385.501ZM442.599 396.001C459.699 401.901 474.099 418.301 477.999 436.101C479.799 444.101 478.799 459.001 476.199 466.501C469.899 483.801 453.699 498.101 435.899 502.001C427.899 503.801 412.999 502.801 405.499 500.201C388.199 493.901 373.899 477.701 369.999 459.901C368.399 452.601 369.199 437.101 371.599 430.001C376.199 416.201 389.799 402.101 403.799 396.501C415.299 391.901 430.399 391.701 442.599 396.001Z" fill="#137AB6"/>
<path d="M420.502 413.2C420.202 414 420.102 423.8 420.202 435L420.502 455.5H424.002H427.502V434V412.5L424.202 412.2C422.202 412 420.802 412.4 420.502 413.2Z" fill="#137AB6"/>
<path d="M420.406 469.3C420.106 470.1 420.006 472.7 420.206 475.1C420.506 479.4 420.606 479.5 424.006 479.5H427.506V474C427.506 468.5 427.506 468.5 424.206 468.2C422.106 468 420.806 468.4 420.406 469.3Z" fill="#137AB6"/>
</svg>
