<svg width="512" height="512" viewBox="0 0 512 512" fill="none" xmlns="http://www.w3.org/2000/svg">
<path d="M148.002 10.3008C142.202 13.4008 140.202 15.3008 137.602 19.9008C135.402 24.1008 135.002 26.0008 135.002 33.2008V41.6008L128.302 44.2008L121.602 46.9008L115.502 41.2008C107.202 33.4008 100.202 31.4008 90.6024 34.1008C85.6024 35.5008 62.7024 57.4008 59.9024 63.5008C57.6024 68.4008 57.4024 77.7008 59.5024 82.5008C60.3024 84.5008 63.3024 88.5008 66.2024 91.6008C71.3024 97.0008 71.4024 97.2008 70.1024 100.301C69.4024 102.101 68.3024 105.001 67.7024 106.701L66.7024 110.001H58.6024C49.5024 110.001 44.4024 111.801 39.7024 116.601C34.0024 122.301 33.5024 124.101 33.2024 142.701C32.8024 162.901 33.8024 167.401 39.8024 173.301C45.1024 178.401 49.5024 180.001 59.0024 180.001C64.7024 180.001 67.0024 180.401 67.0024 181.201C67.0024 181.901 68.1024 184.801 69.4024 187.601L71.8024 192.801L66.9024 197.601C60.3024 204.101 58.0024 209.101 58.0024 216.601C58.1024 225.501 60.3024 229.101 74.1024 242.501C83.5024 251.701 87.5024 254.901 90.6024 255.801C100.202 258.601 108.202 256.201 116.502 248.001L121.502 243.101L128.302 245.701L135.002 248.401V256.701C135.002 266.001 136.602 270.501 141.702 275.101C147.802 280.801 149.402 281.101 171.002 280.801L190.802 280.501L195.202 277.401C201.402 272.801 204.202 266.901 204.902 256.401L205.502 247.901L211.402 245.501L217.402 243.101L222.502 247.901C228.802 253.901 232.702 255.901 238.902 256.701C245.602 257.501 252.702 255.001 257.402 250.101L261.202 246.201L268.402 252.201C281.802 263.501 296.902 270.801 317.402 276.001C333.702 280.101 346.302 281.301 368.302 280.701C389.602 280.201 402.302 278.201 418.402 272.801C458.602 259.401 480.702 232.501 478.602 199.501C477.002 173.401 462.902 147.001 433.202 114.401C424.702 105.101 417.802 98.6008 395.202 78.4008L391.802 75.4008L394.002 70.9008C397.802 63.5008 404.702 54.2008 413.802 44.3008C423.902 33.4008 424.902 31.8008 425.002 26.7008C425.002 21.6008 423.002 17.9008 418.302 14.7008C408.502 8.00079 399.902 7.30079 380.802 12.0008C365.402 15.8008 358.402 15.8008 343.202 12.3008C335.502 10.5008 328.602 9.50079 323.002 9.50079C315.402 9.50079 314.002 9.80079 309.802 12.3008C300.702 17.8008 297.402 24.3008 300.402 31.3008C301.202 33.3008 305.502 38.8008 309.902 43.4008C319.602 53.7008 324.702 60.4008 329.402 69.0008L333.002 75.6008L325.302 82.0008C321.002 85.6008 312.102 93.8008 305.302 100.301C296.902 108.401 292.702 111.901 291.802 111.301C291.102 110.901 286.502 110.301 281.602 110.001L272.802 109.501L270.302 103.201L267.802 96.9008L272.902 91.5008C279.202 84.9008 281.302 80.2008 281.302 73.0008C281.302 65.0008 278.902 61.2008 264.802 47.4008C255.302 38.0008 251.602 35.0008 248.502 34.1008C238.802 31.4008 231.402 33.7008 222.602 42.0008L217.302 47.0008L211.302 44.4008L205.202 41.8008L204.802 33.5008C204.302 23.2008 201.402 16.9008 195.102 12.5008L190.802 9.50079L170.702 9.20079C155.302 9.00079 149.902 9.30079 148.002 10.3008ZM187.202 25.8008C189.302 27.8008 189.502 29.2008 189.802 39.3008C190.102 47.3008 190.602 51.0008 191.602 52.1008C192.402 53.0008 195.902 54.8008 199.302 56.0008C202.702 57.2008 208.102 59.6008 211.202 61.1008C219.902 65.5008 220.902 65.2008 230.502 56.0008C236.702 50.0008 239.502 48.0008 241.602 48.0008C243.602 48.0008 246.602 50.3008 254.302 57.7008C264.102 67.4008 267.302 71.9008 266.202 74.9008C265.902 75.8008 262.402 79.9008 258.302 84.1008C249.602 93.2008 249.402 94.3008 254.402 105.101C256.302 109.201 258.402 114.401 259.102 116.801C261.002 123.401 263.802 125.001 273.102 125.001C277.502 125.001 281.002 125.201 281.002 125.501C281.002 125.801 279.002 128.501 276.502 131.501C262.402 148.801 252.102 168.401 247.902 185.501C244.502 199.901 245.802 218.801 251.102 229.101L253.202 233.201L250.302 236.201C247.202 239.501 243.002 242.001 240.502 242.001C239.602 242.001 235.102 238.401 230.502 234.001C221.002 224.901 219.802 224.501 211.702 228.701C208.802 230.101 203.802 232.301 200.502 233.501C190.002 237.201 190.602 236.201 190.002 250.001C189.302 266.501 189.902 266.001 169.402 266.001C149.802 266.001 150.002 266.201 150.002 252.501C150.002 238.801 149.002 236.801 140.302 234.001C136.602 232.701 130.902 230.401 127.802 228.901C119.102 224.501 118.102 224.801 108.502 234.001C103.202 239.101 99.3024 242.001 97.9024 242.001C96.4024 242.001 92.0024 238.301 84.3024 230.801C70.0024 216.601 70.0024 216.501 80.4024 206.101C84.5024 202.001 88.1024 197.601 88.5024 196.301C88.9024 194.601 87.8024 191.101 85.2024 185.201C83.0024 180.401 80.5024 174.401 79.6024 171.701C78.6024 169.101 77.0024 166.501 76.0024 166.001C75.0024 165.401 69.4024 165.001 63.7024 165.001C48.2024 165.001 48.5024 165.401 48.5024 145.001C48.5024 124.601 48.2024 125.001 63.7024 125.001C69.4024 125.001 75.0024 124.601 76.0024 124.001C77.0024 123.501 78.6024 120.901 79.6024 118.301C80.5024 115.601 83.0024 109.601 85.2024 104.801C87.9024 98.7008 88.9024 95.3008 88.5024 93.8008C88.1024 92.5008 84.4024 88.1008 80.4024 83.9008C70.2024 73.3008 70.2024 73.4008 84.2024 59.3008C92.2024 51.3008 96.2024 48.0008 97.8024 48.0008C99.4024 48.0008 102.902 50.7008 108.502 56.0008C114.302 61.5008 117.602 64.0008 119.302 64.0008C120.602 64.0008 125.502 62.2008 130.102 60.1008C134.702 57.9008 140.402 55.7008 142.802 55.0008C148.602 53.5008 150.002 50.1008 150.002 38.1008C150.002 33.2008 150.302 28.4008 150.602 27.5008C152.002 24.0008 156.802 23.0008 171.202 23.2008C184.002 23.5008 185.102 23.7008 187.202 25.8008ZM342.002 27.6008C352.002 29.9008 354.902 30.1008 364.502 29.7008C371.502 29.3008 378.902 28.2008 385.002 26.6008C397.402 23.3008 405.102 23.3008 408.902 26.6008C409.102 26.8008 405.702 30.7008 401.302 35.3008C392.702 44.2008 385.202 54.7008 380.102 64.7008L377.002 71.0008H362.202H347.402L344.602 65.2008C340.202 56.2008 333.702 47.0008 324.402 36.6008C319.602 31.3008 315.902 26.8008 316.102 26.6008C320.002 23.4008 324.402 23.6008 342.002 27.6008ZM388.802 93.4008C432.902 130.801 458.602 166.201 463.202 195.701C467.502 223.101 448.602 246.801 413.502 258.301C396.102 264.001 382.302 266.101 361.502 266.101C314.902 266.001 277.702 249.501 265.302 223.401C261.902 216.401 261.502 214.501 261.202 205.901C260.902 198.601 261.302 194.401 262.802 188.201C269.602 161.501 294.002 129.301 333.402 95.4008L344.302 86.0008H362.202H380.202L388.802 93.4008Z" fill="#137AB6"/>
<path d="M152.5 77.9004C142.9 80.6004 138.6 82.5004 130.8 87.7004C109.4 101.8 97.6006 128.1 101 153.7C104 176.8 117.7 196.2 138.2 206.5C150 212.4 159.3 214.4 172.9 213.8C198.4 212.7 220.7 198.2 231.5 175.5C237.2 163.6 238.5 157.7 238.4 144.5C238.3 124.8 232.3 110.3 218.5 96.4004C204.6 82.4004 192.1 77.0004 172 76.4004C161.8 76.1004 158.2 76.3004 152.5 77.9004ZM162.5 106.7C163.7 112 171 114 175 110C176.7 108.3 177 106.7 177 99.6004V91.2004L181 92.1004C197 95.7004 210.9 106.8 218 121.5C220.1 125.9 222.2 131.2 222.5 133.2L223.2 137H216.8C213.2 137 208.9 137.5 207.2 138.1C203.8 139.3 201.4 143.7 202.5 146.9C203.8 151.2 205.7 152 214.6 152C224.3 152 224.3 152 221 161.4C217.8 170.9 214 176.8 206.6 183.8C199.1 190.8 191.6 195.1 182.8 197.4L177.5 198.7L177 189.8C176.4 179.7 175.3 178 169.3 178C163.6 178 162 180.7 162 190.4V198.8L156.3 197.3C147.8 195.1 139.9 190.7 133.2 184.5C125.9 177.8 121.6 171.3 118.4 162.3C114.7 151.8 114.6 152 124.5 152C134 152 137 150.4 137 145.4C137 139.3 132.9 137 122.3 137H115.8L116.5 133.7C120.6 114.6 137.1 97.5004 156.3 92.6004L161.5 91.3004L161.8 97.9004C161.9 101.5 162.2 105.5 162.5 106.7Z" fill="#137AB6"/>
<path d="M164.1 118.6C162.2 121 162 122.6 162 134.6C162 152.1 161.9 152 176.5 152C188.3 152 191 150.7 191 145.1C191 140.5 188.2 138 182.3 137.3L177 136.7V128.4C177 121.3 176.7 119.7 175 118C172 115 166.7 115.3 164.1 118.6Z" fill="#137AB6"/>
<path d="M357 124C355.4 125.6 355 127.3 355 132.3V138.6L350.4 139.8C336.9 143.4 327.7 153.9 327.7 165.5C327.7 179.4 335.8 186.5 359 193C376.8 198 382 201.1 382 206.6C382 209.6 378.5 213.7 373.9 216C364.2 221 354 219.1 345.8 210.9C343.2 208.3 341 205.7 341 205.2C341 203.6 335.4 201.9 332.5 202.6C330.7 203 329.3 204.4 328.4 206.7C327.1 209.7 327.1 210.5 328.5 213.4C331.9 220.5 343.4 229.9 351.2 232.1L355 233.1V239.5C355 247.2 357 250 362.4 250C367.5 250 370 246.4 370 238.9C370 233.9 370.3 233 371.8 233C375 233 385.7 227.3 389.3 223.6C395 217.9 396.4 214.4 396.4 206.5C396.4 192 389.4 185.8 365 178.9C347.9 174.1 342.8 171 342.8 165.5C342.8 161.5 348.5 156.2 354.9 154.4C364.7 151.5 372.2 154.2 381.1 163.9C385.3 168.5 387.3 170 389.4 170C392.8 170 397 165.9 397 162.5C397 156.3 386 145.3 375.6 140.9L370 138.6V133C370 125.6 367.5 122 362.4 122C360.3 122 358.2 122.8 357 124Z" fill="#137AB6"/>
<path d="M174.8 291C156.7 293.1 139.5 298.8 124.6 307.8C115.8 313.1 114.5 313.6 87.2 321C84.5 321.7 83.8 321.6 83.3 320.2C79.4 307.9 69.8 300 58.6 300C52.7 300 13.2 310.5 10.8 312.7C9.7 313.7 9 315.7 9 317.7C9 320.4 52 483.8 56.1 496.8C57.6 501.3 59.6 503 63.5 503C68.2 503 103.6 493.5 108.8 490.9C117.5 486.4 122.3 477.1 121.8 465.5L121.5 458.5L137 454.3C155.3 449.3 150.5 448.8 192.7 459.6C246.9 473.3 268.9 476.5 294.3 474.2C319 471.9 336.8 466.7 362.5 454C391.7 439.5 422.2 418.7 466.5 382.9C482.3 370.1 495 356.9 499.2 348.9C502.4 342.8 502.5 342 502.5 331.5C502.5 321.5 502.3 320 499.8 315.5C496.1 308.5 488.6 301.8 481.4 299.1C476.4 297.1 474.1 296.9 466 297.2C459.5 297.5 454.7 298.4 451 299.8C448 301 433.4 309.4 418.5 318.4L391.6 334.9L389.2 330C384.3 319.7 373.7 312 361.9 310C358.1 309.4 335 309 305.3 309H255.2L247.7 305C227 293.8 198.3 288.3 174.8 291ZM201.5 306.1C214.6 307.7 225.9 311.3 239.5 318L251.5 324L306.5 324.2L361.5 324.5L366.2 327.3C380.1 335.5 382 352.5 370.2 363.2C368 365.2 364.4 367.3 362.3 367.9C359.9 368.6 341.9 369 312.6 369C271.3 369 266.5 369.2 264.8 370.7C262.2 373 262.4 379.1 265.1 381.6C267.1 383.4 269.4 383.5 316.4 383.5H365.5L371.1 380.9C381.3 376.1 387.4 369.2 391.6 357.6L393.8 351.5L423.6 333.3C440.1 323.2 455.7 314.3 458.3 313.4C465.5 311 474.6 311.8 479.9 315.3C488 320.7 490.5 332.2 485.6 341.8C482.1 348.7 469.8 360.8 450.5 376.1C359.3 448.9 312.5 467.6 248.6 456.9C241.9 455.7 220.7 450.9 201.5 446C182.2 441.2 163.1 436.6 159 436L151.5 434.7L134.2 439.4C124.6 442 116.7 444 116.6 443.8C116 443.1 87.8 336.8 88.2 336.5C88.3 336.4 96.2 334.2 105.5 331.7C120.7 327.7 123.4 326.6 131.3 321.6C152.1 308.6 177 303.1 201.5 306.1ZM63.6 316.9C65.3 317.9 67.2 320.1 67.8 321.6C68.4 323.2 77.5 356.7 88 396C101.7 447.3 107 468.4 106.6 470.6C105.5 476 102.5 477.6 85.5 482.3C71.3 486.2 69.4 486.5 68.8 485.1C68.4 484.2 58.6 447.9 47 404.5C35.4 361 25.8 325 25.6 324.4C25.2 323.3 53.4 315.2 58 315.1C59.4 315 61.9 315.9 63.6 316.9Z" fill="#137AB6"/>
</svg>
