<svg width="512" height="512" viewBox="0 0 512 512" fill="none" xmlns="http://www.w3.org/2000/svg">
<path d="M224.299 9.50046C125.099 22.3005 42.7988 93.5005 16.5988 189.4C10.5988 211 8.79876 224 8.29876 248.8C7.59876 280.2 9.89876 299.7 17.4988 325.9C23.0988 345.2 33.1988 368.6 41.5988 381.7C44.2988 386 45.5988 387 48.4988 387.6C52.9988 388.4 56.9988 385.9 58.1988 381.5C58.7988 379 57.5988 375.8 49.9988 360.5C37.9988 336.2 32.0988 318.7 27.2988 292.5C25.8988 284.5 25.4988 277.3 25.4988 256C25.4988 232.8 25.7988 228 27.7988 217.3C36.7988 168.3 58.8988 126.1 93.6988 91.8005C112.599 73.0005 130.599 60.3005 154.499 48.5005C182.199 34.9005 211.299 26.9005 238.399 25.5005C243.999 25.2005 250.499 24.7005 252.999 24.5005C257.499 24.1005 257.499 24.1005 254.799 25.6005C250.999 27.6005 249.999 29.9005 249.999 36.4005V41.8005L232.399 42.2005L214.799 42.5005L212.399 45.3005C210.199 47.9005 209.999 48.9005 209.999 59.6005V71.0005H199.799C193.299 71.1005 188.899 71.5005 187.899 72.3005C184.299 75.1005 183.999 77.4005 183.999 104.4V131H134.999C87.2988 131 85.8988 131.1 83.9988 133C81.9988 135 81.9988 136.3 81.9988 269.9V404.9L84.5988 406.9C87.1988 409 88.1988 409 140.899 409H194.499L234.399 398.5C256.299 392.7 274.999 387.5 275.999 387C276.999 386.5 284.499 373 292.599 357L307.499 328H312.999C315.999 328 328.999 328.7 341.899 329.5C362.399 330.8 365.599 330.8 368.099 329.5C371.399 327.7 371.299 328.1 377.899 300L382.699 279.5H390.099C394.199 279.5 403.599 279.9 410.999 280.3C423.999 281.1 424.699 281 427.299 279L429.999 276.9V258.4V240H435.799C463.299 239.9 490.099 220.1 500.599 192C503.299 184.9 503.399 183.6 503.499 168.5C503.499 152.9 503.399 152.3 500.199 144.1C493.499 126.4 481.099 112.6 464.799 104.6C452.499 98.5005 443.699 96.7005 429.499 97.3005C402.399 98.5005 381.099 112.2 368.699 136.5L365.099 143.5L348.799 150.6L332.499 157.7L331.999 116.3L331.499 74.8005L329.099 72.9005C327.199 71.3005 325.099 71.0005 316.399 71.0005H305.999V59.6005C305.999 48.9005 305.799 47.9005 303.599 45.3005L301.199 42.5005L284.199 42.2005L267.199 41.9005L266.799 35.8005C266.399 30.6005 265.899 29.3005 263.399 27.2005L260.499 24.7005L271.999 25.3005C309.399 27.3005 350.999 41.5005 383.499 63.2005L394.499 70.5005L381.899 71.0005C368.499 71.5005 366.599 72.2005 364.899 76.9005C363.699 80.0005 365.299 85.1005 368.099 86.9005C369.899 87.9005 374.999 88.1005 394.599 87.5005C409.399 87.0005 419.799 86.3005 421.199 85.6005C422.499 85.0005 424.099 83.2005 424.799 81.7005C425.999 79.1005 425.599 76.8005 419.499 55.2005C414.199 36.2005 412.399 31.1005 410.399 29.2005C407.299 26.4005 403.099 26.4005 399.599 29.1005C396.299 31.7005 396.099 36.6005 398.999 46.0005C400.099 49.6005 400.999 52.8005 400.999 53.2005C400.999 53.6005 396.199 50.8005 390.299 46.9005C359.999 27.2005 323.799 14.1005 285.999 9.40046C271.899 7.70046 238.399 7.70046 224.299 9.50046ZM288.999 65.0005V71.0005H257.999H226.999V65.0005V59.0005H257.999H288.999V65.0005ZM314.999 199.6V311.3L309.799 310.6C306.899 310.3 303.499 310 302.299 310C300.599 310 299.999 309.4 299.999 307.7C299.999 303.4 294.999 295.1 290.499 292C283.799 287.4 279.599 286.8 255.399 287.2C234.999 287.5 233.199 287.7 229.399 289.7C224.099 292.5 218.699 298.8 217.199 303.9C216.399 306.5 215.999 320 215.999 346.7V385.6L209.599 387.3C206.099 388.2 202.699 389 202.099 389C201.299 389 200.999 346.1 200.999 238.5V88.0005H257.999H314.999V199.6ZM444.199 115.1C453.399 117 463.799 122.8 470.999 130C481.899 140.9 486.999 153.2 486.999 168.5C486.999 183.8 481.899 196.1 470.999 207C454.099 223.9 428.599 227.8 407.599 216.8C399.299 212.4 388.199 201.2 384.199 193.2C373.099 170.7 377.699 145.6 396.199 128.5C409.199 116.5 426.899 111.5 444.199 115.1ZM183.999 269.5V392H141.499H98.9988V269.5V147H141.499H183.999V269.5ZM349.799 177C333.799 177.7 334.499 176.8 334.499 197.1V213.2L337.299 215.6C340.099 218 340.399 218 360.099 218H380.099L385.899 222.9C392.799 228.6 400.499 233.1 407.799 235.6L412.999 237.5V250.2V263H404.999H396.999V250.5C396.999 238.5 396.899 237.8 394.499 235.5C391.399 232.3 386.999 232.3 383.299 235.4C380.599 237.8 380.499 238.1 380.199 249.4C379.799 261 379.799 261 377.399 261C375.999 261 373.599 261.7 371.999 262.5C369.099 264 368.799 264.7 366.099 275C365.499 277.5 365.199 272.5 365.099 258.2C364.999 238 364.999 237.9 362.499 235.5C360.899 233.8 358.999 233 356.499 233C353.999 233 352.099 233.8 350.499 235.5L347.999 237.9V275.6V313.3L344.299 312.6C342.199 312.3 338.599 312 336.199 312H331.999L332.199 244.3L332.499 176.5L346.499 170.4L360.499 164.3L360.999 170.4L361.499 176.5L349.799 177ZM366.999 197L368.999 201H359.999H350.999V197V193H357.999H364.999L366.999 197ZM280.399 306.1L282.999 308.1V323.3V338.5L273.999 355.6L265.099 372.7L250.799 376.4C242.899 378.4 235.699 380.3 234.799 380.6C233.099 381.1 232.999 378.9 232.999 345V308.9L235.499 306.5C237.899 304 237.999 304 257.799 304C276.399 304 277.899 304.1 280.399 306.1Z" fill="#137AB6"/>
<path d="M214.5 102.2C210.3 104.6 210.1 105.8 210 124.6C210 142.2 210.1 142.7 212.3 144.8C214.6 147 214.8 147 258.3 147C300.7 147 302.1 146.9 304 145C305.9 143.1 306 141.7 306 125.1C306 115.2 305.7 106.4 305.4 105.5C303.7 101.2 301.2 101 257.8 101C228.6 101.1 215.9 101.4 214.5 102.2ZM289 124.5V131H258H227V124.5V118H258H289V124.5Z" fill="#137AB6"/>
<path d="M214.5 169.2C210.3 171.6 210.1 172.8 210 192.1V210.7L212.6 213.1C215.1 215.5 215.5 215.5 233.5 215.5C251.5 215.5 251.9 215.5 254.4 213.1L257 210.7V192.4C257 182.4 256.7 173.4 256.4 172.5C254.9 168.8 250.8 168 233.3 168C222.5 168 215.8 168.5 214.5 169.2ZM240 192V199H233.5H227V192V185H233.5H240V192Z" fill="#137AB6"/>
<path d="M262 170.9L259 173.8V191.9C259 209.5 259.1 210 261.4 212.7L263.8 215.5L279.6 215.8C297.4 216.2 301.3 215.7 304.1 212.9C305.8 211.2 306 209.5 306 192.1C306 166.7 307.8 168.6 283.6 168.2L265 167.9L262 170.9ZM289 192V199H282.5H276V192V185H282.5H289V192Z" fill="#137AB6"/>
<path d="M212.2 220.3C210.1 222.5 210 223.5 210 240.7C210 250.7 210.3 259.6 210.6 260.5C212 264.2 216.3 265 233.5 265C250.7 265 255 264.2 256.4 260.5C256.7 259.6 257 250.6 257 240.6C257 216.3 258.8 218 233.4 218C214.8 218 214.3 218.1 212.2 220.3ZM240 241V248H233.5H227V241V234H233.5H240V241Z" fill="#137AB6"/>
<path d="M261.1 220.6C259.2 223.1 259 224.6 259 241.2V259.2L262 262.1L265 265.1L283.6 264.8C307.8 264.4 306 266.3 306 240.9C306 223.3 305.9 221.9 304 220C302.1 218.1 300.7 218 282.6 218H263.1L261.1 220.6ZM289 241V248H282.5H276V241V234H282.5H289V241Z" fill="#137AB6"/>
<path d="M430.398 122.7C429.198 122.9 427.398 124 426.398 125.2C424.698 127 424.498 129.4 424.198 149L423.898 170.8L426.698 173.8C428.198 175.4 435.598 180.3 442.998 184.6C453.298 190.5 457.398 192.4 460.398 192.4C465.198 192.5 467.998 189.4 467.998 184C467.998 179.2 466.198 177.7 451.698 169.5L441.098 163.5L440.998 145.4C440.998 128.7 440.898 127.2 438.998 125.2C437.798 124 436.498 123 435.998 123C435.598 123 434.598 122.8 433.798 122.6C433.098 122.4 431.498 122.5 430.398 122.7Z" fill="#137AB6"/>
<path d="M122.497 173.2C118.197 175.5 117.997 176.6 117.997 196C117.997 221.3 116.997 220.4 144.197 219.8C159.197 219.5 159.997 219.4 162.397 217.1L164.997 214.7V196.1C164.897 176.7 164.697 175.5 160.297 173.2C157.397 171.6 125.297 171.6 122.497 173.2ZM147.997 196V203H141.497H134.997V196V189H141.497H147.997V196Z" fill="#137AB6"/>
<path d="M120.197 224.3C118.097 226.5 117.997 227.5 117.997 245.2C117.997 270.1 116.497 268.4 139.097 268.8C157.897 269.2 160.097 268.9 162.997 266C164.897 264.1 164.997 262.6 164.997 245.2C164.997 220.2 166.797 222 141.397 222C122.797 222 122.297 222.1 120.197 224.3ZM147.997 245V252H141.497H134.997V245V238H141.497H147.997V245Z" fill="#137AB6"/>
<path d="M120.097 273.6C118.097 276.1 117.997 277.6 117.997 294.7C117.997 319.5 116.397 318 141.497 318C166.597 318 164.997 319.6 164.997 294.5C164.997 269.4 166.597 271 141.097 271H122.097L120.097 273.6ZM147.997 294.5V301H141.497H134.997V294.5V288H141.497H147.997V294.5Z" fill="#137AB6"/>
<path d="M120.497 322.5C117.997 324.9 117.997 325.1 117.997 343.5C117.997 368.6 116.397 367 141.497 367C166.597 367 164.997 368.6 164.997 343.5C164.997 318.4 166.597 320 141.497 320C123.097 320 122.897 320 120.497 322.5ZM147.997 343.5V350H141.497H134.997V343.5V337H141.497H147.997V343.5Z" fill="#137AB6"/>
<path d="M470.198 259.3C467.998 261.6 467.998 261.7 467.998 311.5V361.4L464.498 357.3C460.598 352.7 456.398 351.2 452.798 353.1C446.198 356.6 446.298 361.6 453.298 370.7C476.598 401.4 475.398 401.1 492.798 379C502.498 366.6 503.998 364.2 503.998 361C503.998 355.4 501.198 352.5 495.998 352.5C492.298 352.5 491.298 353 488.398 356.5L484.998 360.5V312.2C484.998 261.3 484.798 259.3 480.498 257.6C476.898 256.3 472.298 257 470.198 259.3Z" fill="#137AB6"/>
<path d="M410.394 311.8C409.194 312 407.394 313 406.394 314.2C404.594 316.1 404.494 319.3 403.994 365.8L403.494 415.3L400.694 411.7C395.694 405.1 386.794 406 384.894 413.5C383.794 417.6 385.594 420.8 397.194 435.4C412.494 454.6 413.494 454.5 429.894 433.2C438.694 421.7 440.994 418.2 440.994 415.7C440.894 412.1 439.494 409.9 436.294 408.2C432.394 406.1 429.794 406.8 425.294 411.5L420.994 416V366.3C420.894 326 420.694 316.2 419.594 314.7C417.994 312.7 413.494 311.3 410.394 311.8Z" fill="#137AB6"/>
<path d="M346.996 366.7C346.196 367 344.496 368.2 343.296 369.3L340.996 371.3V421.4V471.5L338.396 467.8C332.896 460.1 323.396 460.5 321.396 468.6C320.396 472.7 321.696 475.1 333.296 489.5L344.496 503.5H349.496H354.396L364.696 490.5C370.396 483.3 375.696 476.2 376.596 474.7C379.696 469.1 375.296 462 368.696 462C366.496 462 364.696 463 361.796 466.2L357.996 470.3V421.2V372.1L355.796 369.6C353.396 367 349.596 365.7 346.996 366.7Z" fill="#137AB6"/>
<path d="M105.398 424.9C90.098 425.5 87.898 426.3 86.598 431.5C86.198 432.9 88.598 443 92.598 457.2C97.798 475.8 99.598 480.9 101.598 482.8C104.698 485.6 108.898 485.6 112.398 482.9C115.698 480.3 115.898 475.4 112.998 466C111.898 462.4 110.998 459.2 110.998 458.8C110.998 458.4 115.798 461.2 121.798 465.1C137.198 475.2 157.898 485 176.998 491.4C204.898 500.6 226.198 504 256.298 504C280.398 504 295.698 502.1 298.198 499C300.798 495.8 300.498 490.4 297.498 487.5C294.798 484.7 292.598 484.5 280.998 486.1C270.798 487.4 241.498 487.3 229.898 486C194.698 481.8 157.198 468 128.498 448.8L117.498 441.5L130.098 441C143.798 440.5 146.098 439.6 147.398 434.5C148.098 431.6 146.498 427.1 144.198 425.4C142.398 424 132.098 423.9 105.398 424.9Z" fill="#137AB6"/>
</svg>
