<svg width="442" height="453" viewBox="0 0 442 453" fill="none" xmlns="http://www.w3.org/2000/svg">
<path d="M48.3649 237.521C48.5505 235.743 49.2291 234.052 50.3243 232.639C50.5375 232.408 50.7718 232.197 51.0241 232.009C49.5022 228.824 49.0206 226.881 49.4051 224.716C49.7317 219.975 59.7443 217.946 68.9184 219.627C69.8643 219.797 70.7987 220.026 71.7163 220.312C72.2635 218.451 72.5989 217.317 72.5989 217.317C73.0667 215.742 74.1498 213.067 77.655 213.272C82.9431 213.584 85.5872 220.116 86.6766 225.094C87.6588 229.587 90.2826 232.407 93.16 235.533C95.0432 237.472 96.7512 239.574 98.264 241.815C101.56 246.915 102.231 264.914 103.63 283.424C103.63 283.424 103.727 284.703 103.869 286.495C94.3452 290.943 78.2136 297.049 70.3419 299.972L70.0028 299.382L69.0256 297.69C67.1977 294.764 64.9326 292.135 62.3089 289.894C60.7189 288.538 59.0079 287.332 57.3625 286.042C50.8126 280.902 45.3917 274.467 41.4377 267.139C41.2738 267.013 41.1111 266.887 40.9497 266.761C38.7634 265.026 36.6451 262.535 36.403 259.862C36.089 256.38 41.3809 253.018 45.1913 254.34H45.3073C44.4625 253.648 43.5837 252.933 42.5926 252.226C40.3231 250.604 41.7554 246.158 43.6379 244.097C44.457 243.197 45.5221 242.558 46.7012 242.257C47.8803 241.957 49.1216 242.009 50.2713 242.407L48.844 239.855C48.593 239.528 48.4195 239.148 48.3365 238.743C48.2536 238.339 48.2633 237.921 48.3649 237.521Z" fill="white"/>
<path d="M52.9824 199.123C55.1057 204.959 57.5997 211.837 59.4292 216.481C59.4292 216.481 59.8365 217.616 60.3711 219.11C63.2307 218.939 66.1006 219.113 68.9185 219.628C70.3138 219.874 71.6813 220.256 73.0013 220.771C72.0619 218.06 71.0809 215.223 71.0809 215.223C69.3851 210.566 64.7211 198.453 61.584 190.498C61.1731 189.45 60.3628 188.608 59.3313 188.157C58.2998 187.706 57.1314 187.683 56.0828 188.093C55.1082 188.477 54.1373 188.892 53.1967 189.289C52.3052 189.665 51.5929 190.37 51.2078 191.257C50.8226 192.145 50.7944 193.146 51.1289 194.054C51.69 195.572 52.3204 197.297 52.9824 199.123Z" fill="#211715"/>
<path d="M3.52442 65.1032C3.68077 65.4815 4.49277 67.4863 5.8293 70.7709C6.16571 71.6053 6.81873 72.2726 7.64564 72.627C8.47256 72.9813 9.40613 72.994 10.2424 72.6622L14.0805 71.1239C14.9148 70.7875 15.5822 70.1345 15.9365 69.3076C16.2909 68.4807 16.3036 67.5471 15.9718 66.7109C14.6705 63.42 14.2469 62.3634 13.7173 61.047C12.5371 58.1067 8.63726 55.4891 6.10669 56.3213C3.92412 57.0412 2.13746 61.6875 3.52442 65.1032Z" fill="#B3B3B3"/>
<path d="M52.6901 263.407C52.7468 263.487 52.7998 263.567 52.854 263.648C53.0293 263.909 52.854 263.963 52.9171 263.735C52.9524 263.609 52.8641 263.49 52.8969 263.763C52.9133 263.904 53.0633 264.104 52.9234 263.782C52.7658 263.421 52.9234 263.749 52.9234 263.93C52.9234 264.045 52.9297 264.16 52.9234 264.273C52.9106 264.39 52.9047 264.507 52.9057 264.624C52.9385 264.962 53.0406 264.094 52.9057 264.648C52.8477 264.884 52.8036 265.121 52.7355 265.355C52.6914 265.51 52.6359 265.66 52.588 265.814C52.5691 265.876 52.4115 266.245 52.564 265.896C52.7166 265.547 52.3572 266.274 52.3118 266.361C52.2438 266.449 52.1846 266.542 52.1353 266.641C52.0458 266.933 52.4468 266.347 52.2286 266.529C51.9336 266.774 51.7344 266.893 52.1605 266.664C51.9084 266.799 51.6259 266.96 51.3939 267.118C51.1291 267.297 51.4444 267.118 51.5099 267.085C51.3838 267.137 51.2578 267.181 51.1317 267.225C50.7796 267.344 50.4204 267.44 50.0561 267.514C49.9174 267.543 49.7788 267.569 49.6401 267.589C49.7813 267.569 50.1873 267.557 49.6022 267.574C49.3223 267.582 49.0449 267.596 48.765 267.586C48.5809 267.586 48.3981 267.565 48.2165 267.548C48.2846 267.548 48.6704 267.659 48.3565 267.548C47.9959 267.422 47.6201 267.355 47.2583 267.221C46.9355 267.103 47.1498 267.186 47.2192 267.221C47.0679 267.157 46.9191 267.083 46.7716 267.009C46.4261 266.841 46.0865 266.657 45.7528 266.457C45.082 266.063 44.439 265.622 43.811 265.164C43.632 265.037 43.4529 264.897 43.2764 264.763C43.3344 264.807 43.4958 264.934 43.2298 264.723C42.9637 264.513 42.6699 264.273 42.4014 264.036C41.8595 263.554 41.3463 263.04 40.8644 262.498C40.8719 262.506 40.5403 262.12 40.7068 262.322C40.8732 262.523 40.5655 262.129 40.5693 262.135C40.3651 261.842 40.1709 261.544 39.9944 261.233C39.925 261.107 39.5531 260.278 39.7271 260.744C39.5935 260.38 39.4877 260.006 39.4106 259.626C39.4963 260.041 39.4383 259.659 39.427 259.452C39.4018 258.98 39.2315 260.003 39.4699 259.35C39.5052 259.254 39.5417 259.15 39.5695 259.053C39.5518 259.115 39.2933 259.517 39.4837 259.293C39.5556 259.208 40.0372 258.482 39.7901 258.771C39.543 259.06 39.7989 258.771 39.8443 258.728C39.9818 258.593 40.1192 258.452 40.2554 258.314C40.3386 258.231 40.4332 258.158 40.5202 258.079C40.2201 258.352 40.3172 258.217 40.5832 258.046C40.824 257.891 41.0649 257.738 41.3183 257.602C41.4645 257.525 41.6159 257.458 41.7621 257.383C41.5301 257.509 41.4192 257.509 41.7281 257.407C42.037 257.305 42.3585 257.204 42.6788 257.133C42.8049 257.107 42.9221 257.093 43.0406 257.062C43.4277 256.964 42.3648 257.062 43.0835 257.078C43.3622 257.078 43.6484 257.1 43.9245 257.096C44.3028 257.096 43.5122 256.895 43.8262 257.096C44.0103 257.169 44.2012 257.222 44.3961 257.257C45.1699 257.464 45.994 257.358 46.6906 256.963C47.3872 256.567 47.9004 255.914 48.1194 255.143C48.315 254.37 48.2042 253.551 47.8102 252.857C47.4161 252.164 46.7694 251.649 46.005 251.421C44.2303 250.948 42.3626 250.947 40.5878 251.42C38.813 251.893 37.193 252.822 35.889 254.116C34.5024 255.411 33.6242 257.16 33.4126 259.046C33.3232 261.046 33.8808 263.021 35.0026 264.679C36.0985 266.378 37.4783 267.875 39.0815 269.106C40.6772 270.455 42.4355 271.599 44.3154 272.511C48.0829 274.184 52.8755 274.059 56.102 271.213C58.799 268.833 60.1482 263.429 57.924 260.353C57.5066 259.674 56.8432 259.182 56.0721 258.98C55.301 258.778 54.4816 258.881 53.7845 259.268C53.0983 259.679 52.6003 260.342 52.3974 261.116C52.1944 261.89 52.3027 262.712 52.6989 263.407H52.6901Z" fill="#211715"/>
<path d="M53.9521 240.681C51.5161 239.275 48.6523 238.8 45.8926 239.345C43.6065 239.963 41.6348 241.415 40.3662 243.415C39.0398 245.345 38.3591 247.646 38.422 249.988C38.4636 251.146 38.8192 252.272 39.4508 253.245C40.3666 254.326 41.4358 255.266 42.6245 256.037C45.6896 258.52 48.9376 260.756 52.1125 263.098C53.4141 264.132 54.8161 265.033 56.2974 265.788C58.4406 266.714 60.8457 266.836 63.072 266.133C64.4194 265.786 65.6657 265.126 66.7092 264.205C67.7526 263.285 68.5637 262.131 69.0763 260.838C69.6339 259.375 69.8156 257.795 69.6048 256.244C69.394 254.693 68.7974 253.219 67.8697 251.958C67.4499 251.282 66.7866 250.792 66.0164 250.59C65.2463 250.388 64.428 250.489 63.7302 250.873C63.0421 251.282 62.5426 251.946 62.3395 252.721C62.1364 253.496 62.246 254.319 62.6446 255.014C62.9901 255.452 63.2782 255.933 63.502 256.445C63.449 256.302 63.7 257.4 63.647 257.001C63.7928 257.668 63.6878 258.366 63.352 258.961C63.5587 258.483 63.1515 259.232 63.0796 259.361C62.8501 259.77 63.3734 259.007 63.0796 259.38C63.0355 259.437 62.6295 259.843 62.8741 259.625C62.4148 259.979 61.8804 260.224 61.3119 260.341C61.1076 260.395 60.9008 260.439 60.6928 260.482C60.1809 260.587 61.071 260.462 60.5667 260.502C60.2099 260.53 59.8619 260.517 59.5063 260.525C58.925 260.537 59.3045 260.501 59.4634 260.54C59.37 260.525 59.278 260.503 59.1885 260.472C58.4951 260.167 59.6412 260.752 59.0057 260.395C57.8757 259.756 56.7837 259.052 55.735 258.287C53.6167 256.755 51.496 255.232 49.3726 253.717C47.7335 252.543 46.1347 250.851 44.5107 249.904C44.488 249.891 44.3998 249.588 44.454 249.882C44.5082 250.176 44.5574 249.868 44.4225 249.788C44.4666 249.815 44.7137 250.206 44.4716 249.823C44.2548 249.478 44.4653 249.598 44.4716 249.859C44.4716 249.655 44.5536 248.732 44.459 249.278C44.5278 248.89 44.6248 248.507 44.749 248.133C44.8095 247.945 44.8751 247.755 44.9533 247.568C44.7679 248.007 45.0428 247.418 45.0857 247.342C45.2884 246.964 45.5137 246.597 45.7602 246.245C45.4223 246.703 46.1599 245.867 46.2785 245.757C46.6139 245.438 45.9254 245.972 46.3175 245.725C46.513 245.599 46.7097 245.486 46.9102 245.37C47.0211 245.307 47.4208 245.196 46.9606 245.345C47.1422 245.286 47.3288 245.242 47.5103 245.184C48.026 245.02 47.7524 245.133 47.5822 245.15C47.8408 245.127 48.1007 245.12 48.3602 245.13C48.7158 245.124 49.0694 245.185 49.4029 245.309C49.924 245.455 50.4278 245.657 50.9059 245.911C51.6031 246.298 52.4226 246.401 53.1939 246.199C53.9651 245.996 54.6287 245.505 55.0466 244.826C55.4435 244.131 55.5522 243.308 55.3492 242.534C55.1463 241.759 54.6478 241.096 53.961 240.685L53.9521 240.681Z" fill="#211715"/>
<path d="M64.3643 248.931C60.7897 246.031 57.3173 243.016 53.8032 240.047C53.1433 239.489 52.4793 238.936 51.811 238.388C51.6254 238.214 51.4283 238.054 51.2209 237.907C50.9234 237.728 50.9486 237.453 51.2436 238.086C51.5664 238.782 51.3823 238.5 51.3382 238.294C51.5034 239.051 51.3521 238.42 51.3521 238.187C51.3521 238.011 51.3659 237.837 51.3773 237.66C51.3395 238.253 51.3773 237.629 51.4201 237.471C51.5261 237.025 51.632 236.582 51.7808 236.147C51.8451 235.954 51.9068 235.757 51.9926 235.571C51.8123 235.992 52.0241 235.542 52.0581 235.48C52.1678 235.272 52.2876 235.074 52.4062 234.871C52.5322 234.687 52.4982 234.716 52.3078 234.959C52.3935 234.853 52.4857 234.753 52.5839 234.658C53.1571 234.177 53.8545 233.867 54.5959 233.764C55.3374 233.661 56.0927 233.77 56.7751 234.078C56.649 234.03 56.2115 233.784 57.0827 234.227C57.3349 234.353 57.5871 234.49 57.8393 234.626C58.3882 234.921 58.9286 235.23 59.4607 235.551C60.5237 236.182 61.5489 236.876 62.531 237.627C64.1919 238.945 65.7344 240.406 67.1407 241.992C68.4272 243.419 69.4253 245.081 70.0798 246.887C70.1252 247.013 70.221 247.644 70.1706 247.129C70.202 247.44 70.196 247.754 70.153 248.064C70.2387 247.499 69.7848 249.095 69.9474 248.708C69.8581 248.91 69.7562 249.106 69.6423 249.295C69.6486 249.283 69.1468 250.037 69.3611 249.763C69.2241 249.932 69.0771 250.092 68.9211 250.244C68.8996 250.265 68.2175 250.797 68.5504 250.575C68.381 250.693 68.2022 250.797 68.0158 250.885C68.3688 250.729 67.524 250.872 67.8897 250.895C67.6073 250.876 67.3285 250.821 67.06 250.732C66.0705 250.275 65.1581 249.668 64.3554 248.931C63.7762 248.383 63.0092 248.078 62.212 248.078C61.4147 248.078 60.6477 248.383 60.0685 248.931C59.5065 249.501 59.1915 250.27 59.1915 251.071C59.1915 251.871 59.5065 252.64 60.0685 253.21C62.3973 255.102 65.0401 257.153 68.2276 256.925C69.7834 256.72 71.257 256.106 72.4986 255.147C73.7402 254.187 74.7054 252.915 75.2961 251.462C78.0006 245.393 73.5308 239.589 69.3006 235.539C67.0874 233.414 64.6296 231.559 61.9787 230.013C59.0535 228.314 56.1081 227.247 52.6962 227.972C51.2315 228.31 49.8749 229.01 48.7505 230.008C47.6261 231.006 46.7696 232.269 46.2594 233.683C45.3453 235.913 44.6846 238.934 46.0072 241.141C46.8665 242.225 47.8911 243.166 49.0434 243.93C50.0975 244.813 51.1402 245.711 52.1842 246.605C54.7892 248.838 57.4093 251.051 60.0735 253.21C60.6525 253.759 61.4196 254.064 62.217 254.064C63.0144 254.064 63.7816 253.759 64.3605 253.21C64.9227 252.64 65.2381 251.872 65.2389 251.072C65.2396 250.271 64.9254 249.502 64.3643 248.931Z" fill="#211715"/>
<path d="M75.5203 218.123C75.5821 217.92 75.6464 217.718 75.717 217.519C75.8746 217.08 75.519 217.897 75.7422 217.453C75.9944 216.949 76.007 216.871 76.2466 216.649C76.4934 216.461 76.7825 216.337 77.0886 216.287C77.3946 216.238 77.7082 216.264 78.0017 216.364C79.8527 216.757 81.082 218.688 81.947 220.399C82.8644 222.638 83.5981 224.948 84.1409 227.306C85.0818 230.052 86.5458 232.59 88.4518 234.78C90.2246 236.933 92.2433 238.868 93.9997 241.038C94.6973 241.872 95.3249 242.762 95.8759 243.7C95.954 243.837 96.3361 244.659 96.2302 244.402C96.1507 244.212 96.5101 245.215 96.5857 245.457C97.8429 250.171 98.6007 255.004 98.8465 259.877C99.5652 267.714 100.009 275.576 100.599 283.425C100.619 284.221 100.944 284.98 101.507 285.543C102.07 286.106 102.829 286.431 103.625 286.451C104.426 286.445 105.192 286.124 105.758 285.558C106.324 284.991 106.645 284.225 106.651 283.425C106.067 275.663 105.626 267.888 104.923 260.135C104.418 254.576 104.065 248.623 102.228 243.305C100.348 237.858 95.6022 234.373 92.2471 229.906C90.4301 227.487 89.8779 225.003 89.0482 222.169C88.2594 219.189 86.8592 216.406 84.9365 213.996C83.8721 212.665 82.4814 211.631 80.8995 210.996C79.3175 210.361 77.5982 210.146 75.9087 210.372C72.6039 210.901 70.613 213.47 69.6762 216.514C68.5338 220.246 74.3729 221.842 75.5127 218.123H75.5203Z" fill="#211715"/>
<path d="M67.451 232.484C68.0171 237.264 69.6777 241.657 71.1592 246.204C72.5235 250.392 73.6419 254.778 72.3722 259.132C71.279 262.878 77.1181 264.478 78.2087 260.74C79.6272 255.877 78.8921 250.82 77.4522 246.052C76.1018 241.574 74.0567 237.165 73.5019 232.484C73.4782 231.689 73.1517 230.933 72.5893 230.371C72.0268 229.808 71.2709 229.482 70.4758 229.458C69.6747 229.463 68.9077 229.783 68.3412 230.35C67.7746 230.916 67.4556 231.683 67.451 232.484Z" fill="#211715"/>
<path d="M64.8191 234.6C69.1741 235.29 75.0448 235.861 78.6887 232.772C79.5412 232.007 80.2215 231.07 80.6844 230.023C81.1474 228.976 81.3823 227.842 81.3737 226.697C81.3651 225.552 81.1132 224.422 80.6347 223.382C80.1561 222.342 79.4618 221.415 78.5979 220.664C74.5908 217.108 68.7101 216.194 63.538 216.039C59.0455 215.905 53.6313 216.363 49.8323 219.034C48.8518 219.689 48.0131 220.534 47.3661 221.52C47.0564 222.012 46.8146 222.545 46.6474 223.102C46.5818 223.325 46.3334 224.993 46.4318 224.265C46.1391 227.381 46.7822 230.513 48.2789 233.262C48.6883 233.95 49.3519 234.45 50.1263 234.653C50.9008 234.856 51.724 234.746 52.4184 234.348C53.0979 233.93 53.59 233.267 53.7923 232.495C53.9945 231.724 53.8913 230.904 53.504 230.207C52.7686 228.837 52.3612 227.314 52.3137 225.76C52.3137 225.624 52.5319 224.417 52.4095 224.887C52.2721 225.417 52.6781 224.273 52.4638 224.742C52.2494 225.211 52.8496 224.225 52.5772 224.58C52.3352 224.894 53.2228 223.993 52.9732 224.202C53.1574 224.099 53.3355 223.986 53.5065 223.862C53.7776 223.702 54.0563 223.555 54.3412 223.422C54.9745 223.173 55.6215 222.961 56.2792 222.786C57.9081 222.374 59.5776 222.145 61.2571 222.102C64.9653 221.969 69.2006 222.228 72.5835 223.885C72.9202 224.05 73.2505 224.232 73.5708 224.427C73.6628 224.484 74.2819 224.9 74.0751 224.741C74.3545 224.967 74.6167 225.214 74.8594 225.479C75.099 225.731 74.8796 225.471 74.8392 225.416C74.945 225.56 75.0423 225.71 75.1305 225.866C75.2767 226.134 75.3628 226.431 75.3827 226.736C75.4113 226.961 75.3916 227.191 75.3249 227.408C75.2581 227.625 75.1459 227.826 74.9956 227.997C74.6658 228.317 74.2629 228.553 73.8217 228.683C73.6376 228.739 73.4434 228.775 73.2594 228.809C73.0954 228.842 72.2355 228.963 72.7764 228.898C70.6657 229.146 68.531 229.103 66.4317 228.772C65.6587 228.584 64.8428 228.698 64.151 229.091C63.4591 229.484 62.9435 230.126 62.7096 230.887C62.5024 231.66 62.6079 232.484 63.0033 233.181C63.3987 233.877 64.0523 234.39 64.8229 234.609L64.8191 234.6Z" fill="#211715"/>
<path d="M40.2161 271.124C43.5385 276.625 47.6666 281.598 52.4629 285.876C54.9305 288.061 57.6691 289.897 60.1719 292.034C62.602 294.103 64.7069 296.526 66.4158 299.221C68.4975 302.499 73.7376 299.473 71.6421 296.166C69.849 293.303 67.6789 290.694 65.1902 288.409C62.7441 286.194 59.9689 284.374 57.4661 282.231C52.7349 278.176 48.6766 273.397 45.4424 268.071C43.425 264.746 38.186 267.784 40.2161 271.124Z" fill="#211715"/>
<path d="M9.37778 72.6017C14.1905 85.2911 18.8444 98.0423 23.516 110.785C30.1759 128.952 36.7627 147.147 43.2764 165.369C46.1386 173.415 48.9856 181.467 51.7141 189.559C52.9523 193.231 58.8002 191.655 57.5507 187.95C52.1428 171.913 46.368 155.997 40.6109 140.084C34.3494 122.774 28.0257 105.489 21.6398 88.2264C19.5127 82.4718 17.3944 76.7247 15.2144 70.9978C14.9826 70.2354 14.4673 69.5909 13.7747 69.1969C13.0821 68.8028 12.2648 68.6893 11.491 68.8796C10.7205 69.0981 10.0669 69.611 9.67144 70.3075C9.27601 71.0039 9.17053 71.828 9.37778 72.6017Z" fill="#211715"/>
<path d="M0.603232 65.9076C1.04622 67.0004 1.48963 68.0932 1.93345 69.1859C2.87659 71.5047 3.6142 73.9987 6.02499 75.199C7.31726 75.8471 8.78617 76.0544 10.2073 75.7891C11.314 75.5111 12.3893 75.1202 13.4162 74.6228C14.7669 74.2071 16.0328 73.5543 17.1547 72.6949C18.0615 71.8684 18.7119 70.7988 19.0284 69.6134C19.6399 67.2467 18.6287 65.2167 17.7776 63.077C17.2556 61.7632 16.7815 60.3951 16.1637 59.1241C14.3846 55.4676 9.48104 52.1149 5.30755 53.3998C2.88667 54.145 1.43541 56.4259 0.633493 58.6841C-0.202422 61.0166 -0.211325 63.5656 0.608276 65.9039C0.837359 66.6675 1.35215 67.3134 2.04547 67.707C2.73879 68.1007 3.55722 68.2117 4.33037 68.0171C5.09962 67.7966 5.75176 67.2833 6.14685 66.5875C6.54194 65.8916 6.64848 65.0685 6.4436 64.295C6.31341 63.9337 6.2023 63.5659 6.11073 63.193C5.96068 62.6332 6.08551 63.2409 6.11073 63.3128C6.07123 63.123 6.05765 62.9287 6.07038 62.7353C6.05777 62.386 6.07038 62.0418 6.09812 61.6938C6.14477 60.9486 5.98338 62.1528 6.09812 61.7014C6.1536 61.482 6.18638 61.2563 6.24312 61.0369C6.27842 60.9007 6.59616 60.2211 6.54447 60.0887C6.63777 60.3232 6.28221 60.5931 6.53564 60.1316C6.6176 59.9828 6.69073 59.829 6.77647 59.6815C6.84203 59.5692 6.91895 59.4621 6.98451 59.3486C7.29217 58.8115 6.61634 59.6714 6.90508 59.4394C7.01409 59.3415 7.11488 59.2348 7.20643 59.1204C7.56073 58.7156 6.63777 59.4848 7.10303 59.1884C7.13456 59.1695 7.36782 59.0384 7.36908 59.0397C7.39934 59.2074 6.55582 59.2918 7.17364 59.1658C7.57082 59.0838 6.37173 59.1544 7.0009 59.1897C7.12069 59.1973 7.25308 59.196 7.37917 59.1897C7.9453 59.1897 7.15851 59.2111 7.15473 59.1531C7.15473 59.1531 7.70699 59.2868 7.74734 59.2994C7.88503 59.3278 8.01881 59.3727 8.14578 59.4331C7.78895 59.2754 7.7133 59.2427 7.92008 59.3385C8.01969 59.3826 8.1193 59.4318 8.21639 59.4822C8.5543 59.655 8.86321 59.8605 9.18474 60.0648C9.31082 60.1455 9.60083 60.4191 9.12548 60.0055C9.24148 60.1076 9.36378 60.2035 9.47852 60.3056C9.76852 60.5578 10.0245 60.8465 10.293 61.1264C10.6625 61.5148 10.312 61.1365 10.2489 61.047C10.375 61.2285 10.5074 61.4114 10.6272 61.603C10.747 61.7947 10.8365 61.9813 10.9424 62.1767C11.0811 62.4289 10.984 62.6029 10.8592 61.9624C10.914 62.1446 10.9853 62.3214 11.0723 62.4907C11.2446 62.9219 11.4169 63.3531 11.5892 63.7843C12.139 65.1625 12.6824 66.5419 13.2019 67.9288C13.3847 68.4168 13.0871 67.7208 13.1918 67.7624C13.1918 67.7624 13.2057 68.5719 13.2158 67.9919C13.2271 67.4308 13.241 68.1924 13.1388 68.2012C13.0934 68.2012 13.5335 67.5317 13.1981 68.0524C13.1098 68.1898 12.7669 68.4849 13.0808 68.263C13.5284 67.9477 12.8387 68.4206 12.8804 68.413C12.8804 68.413 13.5108 68.0499 12.9623 68.3084C12.2751 68.6299 13.6457 68.0562 12.6988 68.4344C11.8086 68.7837 10.9247 69.1456 10.0371 69.5011C9.77357 69.607 9.51004 69.7281 9.23895 69.8126C9.09543 69.8396 8.95389 69.8762 8.8153 69.9223C8.95148 69.7735 9.41169 69.8668 8.983 69.8718C8.33995 69.8807 9.51761 70.0648 8.95526 69.8718C8.29834 69.6487 9.48104 70.2627 8.90356 69.8718L8.72326 69.7672C8.45259 69.5831 8.48958 69.6142 8.83421 69.8605C8.79639 69.8706 8.53665 69.5327 8.53917 69.5566C8.76613 69.8617 8.81908 69.9202 8.69804 69.7319C8.63897 69.6391 8.5859 69.5427 8.53917 69.4431C8.83421 69.9475 8.52152 69.3927 8.45973 69.2389L8.13065 68.4307L7.5973 67.1193C7.21399 66.1779 6.83111 65.2364 6.44864 64.295C6.21794 63.5324 5.70286 62.8877 5.01002 62.4943C4.31718 62.101 3.49961 61.9891 2.72654 62.1818C1.95424 62.3995 1.2986 62.9124 0.901305 63.6096C0.504006 64.3067 0.396937 65.1322 0.603232 65.9076Z" fill="#211715"/>
<path d="M339.347 220.817C338.137 220.288 320.56 210.15 317.307 202.093C315.668 198.032 315.518 192.822 315.534 187.948C329.343 178.911 339.978 160.461 342.013 154.93C343.171 152.324 344.158 149.645 344.968 146.91L345.792 147.049C347.317 147.252 348.867 147.136 350.346 146.709C351.824 146.283 353.198 145.554 354.381 144.57C359.754 140.173 361.984 134.042 363.344 130.033C365.264 124.374 365.386 115.227 362.523 110.263C361.565 108.6 359.337 105.766 354.099 105.582C352.765 105.523 351.433 105.73 350.179 106.189C348.925 106.648 347.775 107.35 346.794 108.257C347.566 97.6878 345.483 87.1058 340.764 77.6174C333.427 63.4515 317.625 49.7143 283.929 49.7143C209.118 49.7143 217.506 108.254 217.506 108.254C216.526 107.348 215.375 106.645 214.121 106.186C212.867 105.727 211.534 105.521 210.2 105.58C204.963 105.764 202.735 108.597 201.776 110.26C198.914 115.224 199.035 124.372 200.956 130.031C202.317 134.039 204.546 140.171 209.92 144.567C211.19 145.636 212.687 146.401 214.297 146.804C215.908 147.207 217.589 147.237 219.212 146.892C222.144 156.963 227.107 166.327 233.796 174.407C238.341 180.097 243.865 184.93 250.108 188.68C250.138 193.724 250.066 199.236 248.336 203.503C245.07 211.56 230.255 220.285 229.045 220.815C229.045 220.815 245.49 246.066 282.615 246.066C319.741 246.066 339.347 220.817 339.347 220.817Z" fill="white"/>
<path d="M312.516 190.329C312.609 195.436 312.894 201.158 315.735 205.586C317.85 208.666 320.436 211.396 323.397 213.676C326.345 216.077 329.43 218.306 332.635 220.351C334.289 221.498 336.021 222.526 337.82 223.429C338.518 223.81 339.336 223.91 340.106 223.708C340.875 223.507 341.539 223.018 341.96 222.343C342.359 221.648 342.468 220.825 342.265 220.05C342.062 219.275 341.562 218.612 340.874 218.202C339.254 217.391 337.69 216.47 336.195 215.447C333.451 213.734 330.803 211.872 328.261 209.87C326.81 208.72 325.419 207.495 324.093 206.201C323.076 205.222 322.14 204.162 321.295 203.031C320.855 202.403 320.466 201.74 320.133 201.049C320.462 201.742 319.894 200.395 319.88 200.338C319.66 199.683 319.478 199.013 319.323 198.338C318.797 195.701 318.546 193.016 318.573 190.327C318.502 186.437 312.45 186.424 312.521 190.327L312.516 190.329Z" fill="#211715"/>
<path d="M230.572 223.437C232.315 222.555 233.984 221.534 235.564 220.385C238.566 218.394 241.419 216.186 244.1 213.78C246.802 211.503 249.043 208.729 250.701 205.609C252.927 200.907 253.117 195.486 253.14 190.374C253.159 186.479 247.107 186.474 247.088 190.374C247.124 192.797 247.002 195.221 246.723 197.629C246.487 199.527 245.97 201.38 245.188 203.126C243.636 205.766 241.619 208.103 239.236 210.024C236.948 212.019 234.525 213.851 231.983 215.509C230.567 216.524 229.074 217.427 227.518 218.211C226.83 218.621 226.33 219.284 226.127 220.059C225.924 220.834 226.034 221.657 226.433 222.352C226.851 223.031 227.514 223.522 228.285 223.724C229.056 223.926 229.875 223.824 230.572 223.437Z" fill="#211715"/>
<path d="M352.008 44.348C348.971 39.47 345.223 35.0725 340.889 31.3004L330.566 22.1238C317.183 7.21145 299.396 3.08461 281.863 3.08461C264.127 2.83324 246.817 8.52391 232.689 19.2503C227.418 23.3908 222.753 28.2496 218.83 33.6848C209.844 42.4781 202.675 61.6913 203.211 80.7444C203.15 89.3689 204.206 97.9651 206.352 106.319C207.586 105.857 208.888 105.607 210.205 105.577C211.54 105.518 212.872 105.724 214.126 106.183C215.38 106.642 216.531 107.345 217.512 108.252L220.412 110.282C220.623 106.39 221.044 102.513 221.673 98.6677C223.017 90.5035 231.489 86.7398 235.089 79.452C237.163 75.2545 238.397 70.3472 241.944 67.3602C244.616 65.1108 248.18 64.3479 251.619 63.9861C256.945 63.425 274.959 64.2282 280.983 65.3403C286.081 65.6265 291.021 66.6453 298.29 67.5695C302.233 68.0738 309.545 69.3624 312.342 69.9235C323.34 72.4516 327.555 75.1978 333.079 82.6811C335.196 85.5495 337.449 90.7847 339.534 97.5972L346.803 108.252C347.784 107.345 348.935 106.642 350.189 106.183C351.442 105.724 352.775 105.518 354.109 105.577C355.329 105.607 356.537 105.823 357.692 106.218C360.088 96.6868 361.108 89.5188 360.737 80.7481C360.017 63.9142 357.243 53.0127 352.008 44.348Z" fill="#85807F"/>
<path d="M271.385 162.623C275.26 164.625 279.575 165.622 283.935 165.523C288.413 165.494 292.958 164.623 296.544 161.826C297.108 161.257 297.424 160.488 297.424 159.686C297.424 158.885 297.108 158.116 296.544 157.547C295.967 156.998 295.201 156.691 294.404 156.691C293.608 156.691 292.842 156.998 292.265 157.547C293.166 156.844 292.409 157.421 292.177 157.571C291.924 157.733 291.66 157.885 291.392 158.025C291.197 158.128 290.257 158.511 291.04 158.219C290.68 158.354 290.324 158.494 289.959 158.612C287.884 159.281 285.706 159.572 283.528 159.471C281.451 159.534 279.378 159.255 277.392 158.645C276.996 158.526 276.609 158.384 276.218 158.25C276.092 158.206 275.965 158.141 275.839 158.103C276.596 158.321 276.084 158.212 275.877 158.115C275.392 157.887 274.914 157.648 274.44 157.398C273.743 157.01 272.923 156.906 272.151 157.109C271.38 157.311 270.716 157.803 270.299 158.483C269.903 159.178 269.795 160.001 269.998 160.775C270.2 161.548 270.698 162.212 271.385 162.623Z" fill="#211715"/>
<path d="M282.521 132.898C283.105 135.007 283.572 137.147 283.922 139.308L283.813 138.504C283.855 138.796 283.863 139.092 283.837 139.386L283.946 138.582C283.925 138.717 283.893 138.85 283.849 138.979L284.154 138.257C284.114 138.345 284.067 138.429 284.013 138.509L284.487 137.896C284.424 137.973 284.354 138.042 284.276 138.103L284.889 137.63C284.727 137.731 284.558 137.82 284.384 137.899L285.107 137.593C284.833 137.711 284.545 137.796 284.251 137.846L285.055 137.737C284.788 137.769 284.519 137.769 284.252 137.737L285.057 137.846C284.754 137.803 284.456 137.73 284.154 137.689C283.365 137.505 282.537 137.613 281.822 137.993C281.479 138.194 281.179 138.46 280.938 138.776C280.698 139.093 280.522 139.454 280.422 139.839C280.321 140.223 280.297 140.624 280.351 141.017C280.405 141.411 280.536 141.791 280.737 142.134C280.929 142.475 281.188 142.774 281.499 143.012C281.81 143.251 282.165 143.424 282.545 143.521C283.211 143.61 283.857 143.78 284.535 143.811C285.542 143.817 286.536 143.582 287.435 143.125C287.999 142.871 288.5 142.494 288.899 142.021C289.299 141.548 289.587 140.992 289.743 140.393C289.947 139.411 289.937 138.398 289.713 137.421C289.364 135.355 288.887 133.309 288.355 131.283C288.142 130.509 287.63 129.852 286.932 129.455C286.234 129.059 285.407 128.956 284.633 129.169C283.859 129.383 283.202 129.895 282.805 130.593C282.409 131.291 282.306 132.118 282.52 132.892L282.521 132.898Z" fill="#211715"/>
<path d="M248.241 114.814C247.171 118.293 247.863 126.295 254.458 126.977C263.168 126.924 263.632 117.249 260.7 112.7C258.299 108.975 251.241 107.427 248.241 114.814Z" fill="#211715"/>
<path d="M318.263 114.814C319.333 118.293 318.641 126.296 312.045 126.977C303.335 126.924 302.871 117.249 305.803 112.7C308.203 108.975 315.262 107.427 318.263 114.814Z" fill="#211715"/>
<path d="M219.647 106.117C217.584 104.276 215.022 103.088 212.284 102.702C209.546 102.316 206.756 102.75 204.264 103.948C200.482 105.75 198.312 109.476 197.358 113.421C195.12 122.682 197.467 133.217 202.77 141.067C206.612 146.751 212.167 150.956 219.32 149.966C220.092 149.749 220.746 149.236 221.142 148.539C221.537 147.843 221.642 147.018 221.434 146.244C221.202 145.482 220.687 144.838 219.994 144.444C219.302 144.051 218.485 143.939 217.711 144.131C213.684 144.688 210.204 141.22 208.129 138.205C206.215 135.321 204.742 132.168 203.757 128.85C202.684 125.264 202.333 121.5 202.726 117.777C202.857 116.075 203.244 114.401 203.872 112.813C204.116 112.264 204.405 111.736 204.736 111.235C204.844 111.062 205.178 110.669 204.862 111.042C205.079 110.79 205.308 110.546 205.547 110.312C206.06 109.823 206.661 109.435 207.318 109.169C208.073 108.875 208.867 108.694 209.675 108.631C210.695 108.513 211.728 108.609 212.709 108.913C213.69 109.217 214.597 109.722 215.371 110.396C218.25 113.009 222.543 108.742 219.652 106.117H219.647Z" fill="#211715"/>
<path d="M348.934 110.396C349.631 109.725 350.456 109.203 351.36 108.861C352.264 108.518 353.228 108.363 354.194 108.404C355.16 108.446 356.108 108.683 356.979 109.101C357.851 109.52 358.628 110.111 359.265 110.839C359.666 111.255 359.139 110.606 359.438 111.044C359.603 111.289 359.764 111.535 359.912 111.79C360.695 113.272 361.208 114.883 361.425 116.546C362.39 123.606 360.849 130.781 357.071 136.823C354.961 140.319 351.208 144.766 346.597 144.136C345.824 143.95 345.009 144.064 344.318 144.457C343.627 144.849 343.111 145.49 342.875 146.249C342.667 147.023 342.772 147.847 343.168 148.544C343.563 149.24 344.217 149.753 344.988 149.971C356.662 151.587 363.494 139.884 366.444 130.278C367.866 125.369 368.157 120.202 367.297 115.165C366.64 111.084 364.917 107.171 361.442 104.76C358.882 103.116 355.852 102.359 352.819 102.605C349.785 102.851 346.917 104.087 344.655 106.122C341.765 108.746 346.056 113.015 348.934 110.401V110.396Z" fill="#211715"/>
<path d="M343.271 141.355C342.171 145.941 340.69 150.427 338.843 154.767C338.979 154.413 338.979 154.47 338.752 154.957C338.636 155.209 338.523 155.461 338.404 155.703C338.098 156.345 337.774 156.979 337.444 157.609C336.626 159.163 335.75 160.689 334.833 162.188C330.226 170.02 324.325 177.016 317.38 182.876C313.645 186.061 309.229 188.347 304.473 189.559C300.679 190.433 302.284 196.269 306.081 195.396C315.862 193.144 323.996 185.978 330.375 178.557C335.853 172.38 340.433 165.461 343.978 158.004C344.188 157.54 344.387 157.073 344.581 156.602C344.631 156.476 344.99 155.61 344.809 156.034C344.577 156.58 344.977 155.676 344.979 155.671C345.152 155.278 345.316 154.884 345.484 154.488C345.759 153.827 346.021 153.162 346.272 152.492C347.465 149.392 348.414 146.204 349.111 142.956C349.305 142.183 349.193 141.365 348.8 140.672C348.407 139.979 347.761 139.464 346.998 139.234C346.225 139.028 345.401 139.135 344.705 139.53C344.009 139.925 343.496 140.577 343.276 141.347L343.271 141.355Z" fill="#211715"/>
<path d="M215.01 142.742C217.15 152.273 221.001 161.337 226.375 169.494C232.175 178.235 239.814 186.417 249.047 191.574C253.804 194.242 259.006 196.022 264.399 196.827C265.172 197.014 265.987 196.9 266.679 196.507C267.37 196.115 267.886 195.473 268.122 194.714C268.329 193.94 268.223 193.116 267.828 192.419C267.432 191.723 266.779 191.21 266.008 190.991C246.791 188.161 232.438 171.518 225.117 154.466C223.29 150.161 221.861 145.698 220.846 141.133C219.986 137.335 214.151 138.943 215.01 142.742Z" fill="#211715"/>
<path d="M332.706 19.9841C323.609 10.1346 311.482 3.60768 298.25 1.44045C284.858 -0.971428 271.096 -0.348391 257.977 3.26367C245.226 6.82177 233.582 13.5444 224.125 22.8072C221.536 25.381 219.147 28.1483 216.978 31.0849C215.372 33.2725 213.406 35.1701 211.858 37.4346C208.225 42.9419 205.453 48.9715 203.639 55.3151C201.208 63.3749 200.037 71.762 200.167 80.1795C200.15 88.925 201.157 97.6425 203.169 106.153C204.134 109.925 209.978 108.326 209.006 104.545C207.272 97.4407 206.355 90.162 206.273 82.85C206.018 75.8928 206.633 68.931 208.104 62.1263C209.461 55.8997 211.696 49.8973 214.74 44.2988C215.985 41.9934 217.456 39.817 219.13 37.8015C220.002 36.7827 220.956 35.8711 221.744 34.7843C222.753 33.391 223.827 32.0545 224.963 30.7595C233.126 21.4825 243.564 14.4918 255.249 10.4759C267.233 6.4447 279.967 5.14748 292.517 6.67938C306.298 8.21639 319.045 13.9092 328.426 24.2635C331.046 27.156 335.315 22.8652 332.705 19.9841H332.706Z" fill="#211715"/>
<path d="M360.81 106.155C362.559 99.4678 363.567 92.6084 363.814 85.7009C363.888 79.248 363.434 72.7998 362.458 66.4208C361.115 57.137 358.324 47.9503 352.913 40.1947C350.043 36.1575 346.727 32.4566 343.029 29.162C340.15 26.5508 335.857 30.8188 338.749 33.449C344.658 38.8077 349.609 44.8296 352.552 52.1099C356.467 61.7985 357.61 72.6206 357.768 82.9887C357.767 90.2659 356.828 97.5125 354.974 104.55C354.048 108.332 359.882 109.946 360.81 106.159V106.155Z" fill="#211715"/>
<path d="M281.78 62.4239C276.567 61.6075 271.306 61.1353 266.031 61.0104C261.068 60.6139 256.082 60.6139 251.119 61.0104C247.191 61.4643 243.333 62.3835 240.185 64.9053C237.296 67.2177 235.667 70.5527 234.251 73.8865C233.136 76.9084 231.536 79.7288 229.515 82.2372C227.459 84.5862 225.116 86.673 223.146 89.1002C220.642 92.0825 219.025 95.7088 218.481 99.5654C217.876 103.6 217.581 107.641 217.261 111.703C217.268 112.503 217.589 113.269 218.155 113.835C218.721 114.401 219.486 114.722 220.287 114.729C221.085 114.713 221.845 114.389 222.409 113.825C222.974 113.261 223.297 112.5 223.313 111.703C223.773 105.851 223.414 98.8619 227.019 93.9243C230.549 89.0863 235.542 85.6807 238.114 80.1026C239.489 77.1231 240.484 73.8058 242.481 71.1579C244.406 68.6072 247.398 67.6388 250.447 67.1635C254.941 66.6732 259.471 66.6108 263.976 66.9769C267.084 67.0941 270.19 67.2618 273.291 67.5027C274.699 67.6111 276.106 67.7347 277.509 67.8885C277.761 67.9162 278.022 67.9452 278.279 67.9767C278.414 67.9919 279.431 68.1293 278.746 68.0322C279.224 68.0986 279.7 68.1743 280.173 68.2592C280.946 68.4506 281.764 68.3382 282.456 67.945C283.149 67.5519 283.665 66.9079 283.897 66.146C284.103 65.3722 283.997 64.5484 283.601 63.8521C283.206 63.1559 282.552 62.6429 281.782 62.4239H281.78Z" fill="#211715"/>
<path d="M311.529 72.8463C314.752 73.5121 317.9 74.5023 320.925 75.8018C323.288 76.8778 325.414 78.4106 327.183 80.3119C332.056 85.3365 334.535 91.6825 336.609 98.4067C337.754 102.116 343.598 100.534 342.445 96.7978C341.187 92.4344 339.532 88.1954 337.501 84.1336C335.882 81.1609 333.849 78.4332 331.462 76.0325C326.49 70.9058 319.953 68.5934 313.139 67.011C309.349 66.1283 307.731 71.9649 311.529 72.8463Z" fill="#211715"/>
<path d="M301.595 65.5142C300.599 61.2739 297.271 57.6603 293.932 55.0629C288.374 50.9147 281.803 48.3374 274.906 47.601C274.105 47.6047 273.337 47.9247 272.771 48.4914C272.204 49.0581 271.884 49.8257 271.88 50.6271C271.9 51.4234 272.225 52.1817 272.789 52.7449C273.352 53.3082 274.11 53.6334 274.906 53.6532C277.963 54.0634 280.954 54.8686 283.803 56.0489C283.455 55.9051 284.236 56.2405 284.308 56.272C284.652 56.4284 284.993 56.5923 285.331 56.76C285.939 57.0626 286.536 57.3833 287.123 57.722C287.683 58.0457 288.231 58.3874 288.769 58.7471C289.048 58.9337 289.323 59.1246 289.594 59.3196C289.693 59.3902 290.343 59.8769 289.874 59.515C290.766 60.2037 291.608 60.9532 292.396 61.7581C292.732 62.0943 293.054 62.444 293.362 62.8071C293.535 63.0064 293.701 63.2119 293.866 63.4161C294.005 63.5918 293.96 63.5322 293.73 63.2371C293.814 63.3506 293.898 63.4653 293.982 63.5813C294.473 64.2707 294.913 64.9951 295.297 65.7488C295.374 65.9039 295.435 66.0716 295.518 66.2229C295.113 65.484 295.392 65.8774 295.46 66.1144C295.563 66.4536 295.681 66.7814 295.761 67.1231C295.975 67.8971 296.487 68.5546 297.185 68.951C297.883 69.3475 298.71 69.4503 299.484 69.237C300.258 69.0236 300.916 68.5115 301.312 67.8134C301.708 67.1153 301.811 66.2882 301.598 65.5142H301.595Z" fill="#211715"/>
<path d="M67.0727 301.187C72.9799 299.013 96.8848 290.167 106.916 285.013C108.026 287.245 110.295 292.516 111.834 295.744L112.412 296.96C100.013 303.242 83.3644 310.704 70.8616 314.286C70.6094 313.629 70.4392 313.219 70.4392 313.219C68.8757 309.336 66.5683 302.666 66.064 301.556L67.0727 301.187Z" fill="white"/>
<path d="M438.789 448.966C432.625 363.788 422.978 287.964 415.185 261.979C412.943 254.507 409.58 250.023 405.844 247.035C402.108 244.046 395.897 242.062 391.579 239.974C377.545 233.194 359.221 225.645 344.835 219.645L342.094 218.5C337.86 214.074 333.111 210.17 327.95 206.871C321.668 233.803 310.507 262.875 301.659 289.08C295.722 306.661 289.784 324.243 283.848 341.823C275.931 322.193 270.695 308.98 263.976 289.08C255.128 262.879 243.967 233.807 237.684 206.871C232.237 210.361 227.247 214.516 222.83 219.241L219.796 220.502C205.411 226.503 187.086 234.051 173.053 240.831C168.734 242.917 163.666 243.895 160.395 247.4C157.05 250.988 154.461 255.213 152.783 259.823C142.696 286.146 141.243 300.824 130.511 328.023C125.865 316.985 121.583 306.371 116.815 294.676C102.676 302.137 80.1466 312.455 66.0122 315.519C73.058 338.081 80.134 362.352 90.0596 384.947C96.9591 400.644 106.406 415.276 122.989 419.64C129.2 421.382 135.728 421.681 142.073 420.516C148.418 419.35 154.413 416.751 159.601 412.915C168.553 406.369 178.425 393.108 184.631 385.269L185.233 384.513C185.989 394.037 185.803 403.218 185.803 413.296C185.803 425.842 185.059 435.109 185.046 449.344L438.789 448.966Z" fill="#106194"/>
<path d="M73.3571 312.415C71.718 308.321 70.4457 304.067 68.6767 300.028L66.8686 304.474C77.7323 300.479 88.5695 296.384 99.2214 291.849C102.332 290.523 105.432 289.164 108.443 287.626L104.304 286.54C106.04 290.071 107.536 293.716 109.221 297.27C109.631 297.958 110.295 298.457 111.069 298.661C111.843 298.864 112.666 298.754 113.361 298.356C114.041 297.939 114.533 297.275 114.736 296.504C114.938 295.732 114.834 294.912 114.446 294.215C112.762 290.661 111.265 287.016 109.529 283.485C109.115 282.803 108.451 282.308 107.679 282.105C106.906 281.903 106.086 282.008 105.39 282.4C94.2132 288.109 82.1983 292.339 70.442 296.721C68.7171 297.365 66.9897 298.003 65.2598 298.637C64.8201 298.771 64.4159 299.002 64.0766 299.312C63.7373 299.622 63.4714 300.004 63.2982 300.43C63.125 300.856 63.0489 301.315 63.0755 301.774C63.102 302.233 63.2305 302.68 63.4517 303.083C63.1465 302.387 63.318 302.759 63.4769 303.184C63.6118 303.541 63.7467 303.898 63.8778 304.256C64.2561 305.287 64.6344 306.322 65.0126 307.355C65.8259 309.587 66.6404 311.818 67.523 314.024C67.7569 314.784 68.2726 315.426 68.9645 315.819C69.6564 316.212 70.4722 316.326 71.2451 316.137C72.016 315.919 72.6701 315.406 73.0656 314.709C73.4611 314.013 73.5663 313.188 73.3584 312.415H73.3571Z" fill="#211715"/>
<path d="M286.143 218.531C286.043 218.601 285.957 218.69 285.891 218.792H280.044C279.287 218.137 278.407 217.639 277.455 217.327C264.133 211.969 253.02 203.797 248.152 197.253C243.35 201.666 241.825 205.083 238.695 211.063C245.108 236.801 255.581 264.234 263.972 289.084C270.691 308.984 275.928 322.197 283.845 341.828L301.656 289.084C310.089 264.111 320.623 236.53 327.028 210.681C324.038 204.935 322.477 201.573 317.777 197.253C312.91 203.797 301.796 211.969 288.475 217.327C287.654 217.639 286.872 218.043 286.143 218.531Z" fill="white"/>
<path d="M306.048 241.062C314.287 231.45 321.083 220.69 326.222 209.12C323.719 204.294 322.037 201.167 317.774 197.253C312.907 203.797 301.793 211.969 288.472 217.327C287.52 217.639 286.639 218.137 285.882 218.792C285.563 219.386 286.183 219.908 286.476 220.375C286.933 221.107 289.184 222.99 293.013 227.192C297.363 231.961 302.452 236.766 306.048 241.062Z" fill="white"/>
<path d="M259.881 241.062C251.643 231.45 244.847 220.69 239.708 209.12C242.21 204.294 243.892 201.167 248.155 197.253C253.024 203.797 264.137 211.969 277.458 217.327C278.41 217.639 279.29 218.137 280.048 218.792C280.367 219.386 279.747 219.908 279.455 220.375C278.996 221.107 276.746 222.99 272.916 227.192C268.566 231.961 263.478 236.766 259.881 241.062Z" fill="white"/>
<path d="M286.684 222.569C283.395 222.579 280.661 222.586 277.337 222.589C276.248 223.668 274.764 225.159 272.91 227.192C271.918 228.282 270.893 229.372 269.844 230.459C270.578 234.266 271.092 236.672 271.902 240.135C272.028 240.744 272.184 241.332 272.337 241.941C272.716 243.244 272.936 244.588 272.99 245.944C272.99 246.721 269.182 274.509 266.517 296.495C272.095 312.508 276.955 324.739 283.849 341.828L300.186 293.45C296.834 271.038 293.286 247.62 293.309 246.379C293.474 243.95 294.002 241.559 294.875 239.287C295.813 236.406 296.388 233.886 297.003 231.409C295.649 230.01 294.301 228.599 293.02 227.192C291.152 225.142 289.659 223.644 288.567 222.562L286.684 222.569Z" fill="#2198D6"/>
<path d="M273.914 248.781C280.18 248.781 286.445 248.644 292.71 248.641C293.513 248.641 294.282 248.322 294.85 247.755C295.417 247.187 295.736 246.418 295.736 245.615C295.736 244.812 295.417 244.043 294.85 243.475C294.282 242.908 293.513 242.589 292.71 242.589C286.445 242.589 280.18 242.726 273.914 242.729C273.112 242.729 272.342 243.048 271.775 243.615C271.207 244.183 270.888 244.952 270.888 245.755C270.888 246.557 271.207 247.327 271.775 247.895C272.342 248.462 273.112 248.781 273.914 248.781Z" fill="#211715"/>
<path d="M267.221 232.782C267.763 235.512 268.351 238.231 268.987 240.94C269.561 242.642 269.883 244.419 269.942 246.215C269.816 248.085 269.476 249.962 269.233 251.818C268.115 260.371 266.981 268.922 265.88 277.476C265.123 283.36 264.383 289.248 263.658 295.14C263.663 295.941 263.983 296.708 264.549 297.275C265.116 297.841 265.883 298.161 266.684 298.166C267.481 298.147 268.24 297.822 268.803 297.258C269.367 296.695 269.692 295.936 269.71 295.14C270.96 284.908 272.284 274.684 273.619 264.464C274.406 258.457 275.474 252.416 275.972 246.377C276.007 244.497 275.738 242.623 275.176 240.829C274.383 237.629 273.696 234.398 273.055 231.167C272.95 230.783 272.77 230.425 272.526 230.111C272.281 229.797 271.978 229.535 271.632 229.339C271.286 229.142 270.905 229.016 270.511 228.967C270.116 228.918 269.716 228.947 269.333 229.053C268.95 229.158 268.591 229.338 268.277 229.583C267.964 229.827 267.701 230.131 267.505 230.476C267.309 230.822 267.182 231.203 267.133 231.597C267.084 231.992 267.113 232.392 267.219 232.775L267.221 232.782Z" fill="#211715"/>
<path d="M288.21 219.544C284.493 219.55 280.778 219.558 277.062 219.568C276.26 219.568 275.49 219.887 274.922 220.454C274.355 221.022 274.036 221.791 274.036 222.594C274.036 223.396 274.355 224.166 274.922 224.734C275.49 225.301 276.26 225.62 277.062 225.62C280.778 225.612 284.494 225.604 288.21 225.596C289.012 225.596 289.782 225.277 290.349 224.71C290.917 224.142 291.236 223.372 291.236 222.57C291.236 221.767 290.917 220.998 290.349 220.43C289.782 219.863 289.012 219.544 288.21 219.544Z" fill="#211715"/>
<path d="M303.1 292.63C301.639 282.86 300.178 273.089 298.718 263.318C298.18 259.686 297.647 256.053 297.121 252.419C296.935 251.123 296.753 249.828 296.575 248.531C296.544 248.298 296.646 249.087 296.566 248.465C296.543 248.278 296.517 248.086 296.495 247.903C296.453 247.574 296.404 247.244 296.376 246.914C296.323 245.512 296.519 244.112 296.955 242.779C297.69 240.123 298.594 237.525 299.272 234.848C300.223 231.066 294.388 229.458 293.436 233.239C292.361 237.508 290.113 242.053 290.284 246.524C290.357 248.391 290.751 250.28 291.011 252.126C292.146 260.202 293.373 268.265 294.579 276.335C295.472 282.303 296.366 288.271 297.261 294.239C297.479 295.01 297.992 295.664 298.689 296.06C299.385 296.455 300.21 296.56 300.983 296.353C301.746 296.122 302.391 295.607 302.785 294.914C303.178 294.221 303.29 293.404 303.097 292.63H303.1Z" fill="#211715"/>
<path d="M279.128 346.373C276.812 353.065 275.626 360.096 275.62 367.177C275.711 371.637 276.199 376.108 276.48 380.557C277.341 394.151 277.9 407.757 278.847 421.347C279.497 430.685 280.232 440.015 281.049 449.338C281.07 450.134 281.395 450.892 281.958 451.455C282.522 452.018 283.279 452.344 284.076 452.364C284.876 452.359 285.643 452.038 286.209 451.472C286.775 450.905 287.096 450.139 287.102 449.338C284.756 422.664 283.593 395.936 281.769 369.23C281.467 362.005 282.552 354.79 284.964 347.974C286.174 344.262 280.332 342.678 279.128 346.365V346.373Z" fill="#211715"/>
<path d="M218.991 217.597C209.619 221.506 200.237 225.393 190.921 229.43C186.269 231.448 181.633 233.499 177.032 235.629C174.873 236.629 172.745 237.723 170.57 238.671C168.451 239.593 166.253 240.322 164.14 241.272C154.746 245.506 150.893 255.952 147.655 264.977C144.417 274.002 141.729 283.164 139.095 292.364C136.01 303.142 132.725 313.837 128.724 324.316C128.517 325.09 128.623 325.914 129.018 326.61C129.414 327.306 130.067 327.819 130.837 328.038C131.611 328.234 132.43 328.123 133.124 327.73C133.817 327.336 134.332 326.689 134.561 325.925C141.28 308.327 145.552 290.007 151.549 272.178C153.034 267.284 154.827 262.49 156.917 257.823C158.717 254.109 161.241 249.864 164.87 247.692C166.676 246.693 168.564 245.85 170.513 245.17C172.666 244.333 174.741 243.363 176.827 242.374C181.24 240.284 185.688 238.28 190.156 236.316C200.243 231.883 210.426 227.669 220.596 223.427C221.356 223.192 221.997 222.676 222.39 221.984C222.782 221.293 222.897 220.478 222.71 219.705C222.492 218.934 221.979 218.28 221.283 217.884C220.586 217.489 219.761 217.384 218.988 217.592L218.991 217.597Z" fill="#211715"/>
<path d="M325.032 206.074C320.745 224.392 314.713 242.261 308.544 260.012C302.26 278.102 296.057 296.216 289.935 314.355L279.126 346.373C277.878 350.071 283.721 351.658 284.963 347.982C291.435 328.816 297.908 309.651 304.38 290.486C310.346 272.827 316.798 255.335 322.461 237.574C325.607 227.713 328.514 217.769 330.873 207.692C331.755 203.903 325.926 202.286 325.036 206.083L325.032 206.074Z" fill="#211715"/>
<path d="M326.423 209.492C331.058 212.423 335.328 215.894 339.145 219.831C341.201 221.864 343.131 224.021 344.923 226.29C345.664 227.239 346.361 228.225 347.017 229.236C347.346 229.741 347.665 230.261 347.968 230.787C348.094 231.01 348.22 231.236 348.346 231.462C348.436 231.63 348.523 231.798 348.607 231.966C348.748 232.256 348.726 232.183 348.54 231.748L348.952 230.22C349.167 230.007 349.12 230.007 348.812 230.22L347.999 230.669L346.913 231.267L343.928 232.914L338.229 236.058C337.833 236.294 337.495 236.618 337.242 237.004C336.99 237.39 336.827 237.828 336.768 238.286C336.709 238.743 336.755 239.208 336.902 239.646C337.049 240.083 337.293 240.482 337.616 240.811C340.415 243.345 343.201 245.895 345.904 248.534C346.473 249.089 347.038 249.649 347.599 250.213C348.381 250.827 349.077 251.543 349.67 252.34C349.786 252.593 349.819 252.269 349.631 252.707C349.227 253.654 348.642 254.571 348.157 255.481C344.765 261.833 341.312 268.151 337.797 274.436C330.557 287.414 323.118 300.284 315.582 313.088C311.42 320.161 307.232 327.217 303.016 334.256C301.014 337.607 306.244 340.653 308.242 337.311C324.111 310.764 339.806 284.085 354.324 256.771C355.371 254.798 356.267 252.862 355.514 250.607C354.848 248.616 353.108 247.167 351.668 245.726C348.507 242.56 345.21 239.535 341.895 236.533L341.282 241.286L348.882 237.094C351.088 235.877 354.438 234.717 354.592 231.753C354.694 229.771 353.281 227.792 352.243 226.191C351.083 224.431 349.826 222.737 348.478 221.116C343.12 214.489 336.7 208.797 329.478 204.272C326.146 202.236 323.102 207.467 326.423 209.498V209.492Z" fill="#211715"/>
<path d="M234.769 207.683C239.062 226.001 245.089 243.87 251.257 261.62C257.212 278.768 262.906 296.021 269.288 313.014C272.818 322.416 276.549 331.74 280.303 341.056C280.537 341.816 281.053 342.458 281.744 342.851C282.436 343.244 283.252 343.357 284.025 343.169C284.796 342.951 285.45 342.438 285.845 341.741C286.241 341.045 286.346 340.22 286.138 339.447C279.478 322.917 273.025 306.326 267.296 289.445C261.306 271.793 254.881 254.28 249.2 236.522C245.986 226.476 243.021 216.348 240.61 206.074C239.728 202.284 233.885 203.888 234.774 207.683H234.769Z" fill="#211715"/>
<path d="M236.156 204.272C228.935 208.794 222.515 214.483 217.156 221.107C215.852 222.675 214.631 224.311 213.499 226.008C212.425 227.647 210.937 229.712 211.038 231.744C211.186 234.72 214.537 235.866 216.747 237.085L224.348 241.278L223.735 236.524C220.641 239.327 217.557 242.148 214.595 245.085C213.091 246.359 211.758 247.823 210.631 249.44C210.106 250.415 209.843 251.51 209.868 252.617C209.893 253.724 210.205 254.806 210.773 255.756C214.121 262.455 217.928 268.966 221.626 275.476C229.545 289.423 237.79 303.183 246.154 316.868C250.784 324.446 255.445 332.005 260.139 339.544C262.191 342.845 267.428 339.81 265.366 336.489C249.491 310.927 233.67 285.283 219.294 258.839C218.354 257.109 217.421 255.375 216.495 253.638C216.247 253.288 216.047 252.906 215.9 252.503C215.837 252.115 215.774 252.738 215.959 252.332C216.31 251.575 217.447 250.792 218.031 250.204C221.255 246.962 224.625 243.87 228.015 240.802C228.337 240.473 228.581 240.074 228.728 239.637C228.875 239.199 228.92 238.734 228.861 238.277C228.802 237.819 228.64 237.381 228.387 236.995C228.135 236.609 227.798 236.286 227.402 236.049L221.703 232.905L218.988 231.409L217.631 230.66C217.407 230.534 216.427 229.747 216.677 230.213L217.09 231.742C217.111 232.223 216.904 232.146 217.196 231.628C217.322 231.405 217.44 231.178 217.566 230.956C217.862 230.431 218.175 229.917 218.499 229.41C219.144 228.401 219.834 227.417 220.564 226.469C225.829 219.849 232.123 214.118 239.206 209.496C242.524 207.467 239.486 202.231 236.151 204.27L236.156 204.272Z" fill="#211715"/>
<path d="M308.189 243.202C314.394 235.924 319.827 228.022 324.401 219.623C325.505 217.559 326.561 215.47 327.568 213.355C328.19 212.26 328.716 211.114 329.141 209.928C329.554 208.427 328.573 207.074 327.901 205.808C325.863 201.82 323.165 198.205 319.921 195.117C319.589 194.8 319.19 194.562 318.753 194.419C318.317 194.276 317.854 194.232 317.399 194.291C316.943 194.349 316.507 194.509 316.121 194.758C315.735 195.007 315.41 195.339 315.169 195.73C310.094 202.459 301.403 207.834 293.658 211.701C291.137 212.956 288.504 213.923 285.98 215.145C283.341 216.421 281.8 218.903 283.665 221.619C285.632 224.481 288.538 226.789 290.881 229.336C295.168 234.001 299.816 238.357 303.909 243.205C304.48 243.767 305.248 244.081 306.049 244.081C306.849 244.081 307.618 243.767 308.189 243.205C308.741 242.63 309.05 241.863 309.05 241.066C309.05 240.268 308.741 239.501 308.189 238.926C304.34 234.368 299.985 230.27 295.934 225.899C294.192 224.019 292.447 222.151 290.627 220.351C290.135 219.864 289.653 219.369 289.161 218.883C288.965 218.69 288.53 218.051 289.151 218.937C289.076 218.831 288.672 218.139 288.718 218.344V219.952L288.806 219.604L288.029 220.94C287.721 221.3 288.345 220.724 288.574 220.602C288.804 220.479 289.044 220.361 289.283 220.252C290.302 219.794 291.353 219.4 292.379 218.954C294.179 218.17 295.953 217.329 297.701 216.432C300.914 214.787 304.023 212.946 307.01 210.919C312.104 207.634 316.626 203.536 320.395 198.789L315.642 199.401C318.941 202.654 321.638 206.464 323.61 210.656V207.602C318.474 218.879 311.847 229.416 303.909 238.931C303.361 239.509 303.055 240.274 303.055 241.071C303.055 241.867 303.361 242.633 303.909 243.21C304.481 243.771 305.25 244.084 306.051 244.083C306.851 244.081 307.619 243.764 308.189 243.202Z" fill="#211715"/>
<path d="M262.021 238.922C254.084 229.407 247.457 218.87 242.32 207.593V210.647C244.293 206.455 246.99 202.645 250.289 199.393L245.537 198.78C249.305 203.528 253.827 207.626 258.921 210.911C261.908 212.937 265.017 214.778 268.23 216.423C269.892 217.278 271.579 218.081 273.291 218.833C274.315 219.282 275.356 219.691 276.381 220.138C276.714 220.283 277.035 220.424 277.356 220.594C277.562 220.704 278.266 221.358 277.902 220.932L277.124 219.597L277.212 219.945V218.336C277.259 218.132 276.854 218.824 276.78 218.93C277.41 218.047 276.965 218.678 276.77 218.876C276.278 219.361 275.795 219.857 275.305 220.343C273.484 222.148 271.739 224.015 269.998 225.891C265.945 230.263 261.59 234.36 257.742 238.918C257.194 239.496 256.888 240.262 256.888 241.058C256.888 241.854 257.194 242.62 257.742 243.198C258.313 243.759 259.081 244.074 259.882 244.074C260.682 244.074 261.451 243.759 262.021 243.198C265.621 238.934 269.67 235.074 273.495 231.013C275.267 229.129 276.997 227.21 278.825 225.379C279.708 224.497 280.665 223.648 281.473 222.686C283.203 220.614 283.976 217.857 281.435 216.003C279.353 214.49 276.622 213.755 274.296 212.666C269.488 210.427 264.893 207.758 260.568 204.691C256.897 202.176 253.599 199.156 250.772 195.72C250.531 195.329 250.205 194.997 249.82 194.748C249.434 194.499 248.997 194.339 248.542 194.281C248.086 194.222 247.624 194.266 247.187 194.409C246.751 194.552 246.352 194.79 246.02 195.107C242.776 198.196 240.078 201.81 238.04 205.798C237.427 206.953 236.562 208.156 236.746 209.516C237.073 210.779 237.583 211.988 238.259 213.103C239.305 215.297 240.397 217.467 241.537 219.613C246.111 228.012 251.545 235.914 257.75 243.192C258.32 243.754 259.088 244.069 259.889 244.069C260.69 244.069 261.459 243.754 262.029 243.192C262.577 242.616 262.882 241.851 262.881 241.055C262.879 240.26 262.572 239.496 262.021 238.922Z" fill="#211715"/>
<path d="M382.07 449.341C382.05 436.807 381.333 424.292 381.314 411.759C381.292 398.052 381.258 384.453 383.692 370.914C388.37 344.902 392.275 318.748 395.65 292.537C397.375 279.135 398.947 265.712 400.279 252.266C400.273 251.465 399.953 250.698 399.387 250.132C398.82 249.566 398.054 249.245 397.253 249.24C396.455 249.257 395.696 249.581 395.132 250.145C394.568 250.709 394.244 251.469 394.227 252.266C391.764 277.123 388.553 301.909 384.851 326.611C382.892 339.701 380.768 352.769 378.478 365.815C377.186 372.591 376.26 379.431 375.704 386.306C375.245 393.073 375.234 399.859 375.252 406.639C375.291 420.879 376.001 435.103 376.023 449.341C376.031 453.234 382.083 453.242 382.075 449.341H382.07Z" fill="#211715"/>
<path d="M164.034 254.649C166.515 279.589 169.771 304.454 173.518 329.237C175.491 342.288 177.628 355.313 179.928 368.312C181.159 374.833 181.998 381.421 182.442 388.042C182.821 394.631 182.803 401.234 182.783 407.838C182.74 421.68 182.036 435.505 182.014 449.346C182.014 453.241 188.06 453.246 188.066 449.346C188.086 437.323 188.81 425.318 188.822 413.297C188.838 399.85 189.027 386.413 186.888 373.091C184.793 360.046 182.355 347.059 180.332 334.003C178.334 321.129 176.489 308.232 174.798 295.312C173.033 281.784 171.439 268.234 170.088 254.658C170.067 253.862 169.741 253.105 169.178 252.542C168.615 251.979 167.858 251.653 167.062 251.632C166.261 251.637 165.495 251.958 164.929 252.524C164.362 253.091 164.042 253.857 164.036 254.658L164.034 254.649Z" fill="#211715"/>
<path d="M344.031 222.57C362.104 230.109 380.006 237.965 397.863 245.989C401.525 247.444 404.776 249.773 407.331 252.774C409.704 255.94 411.438 259.537 412.438 263.366C413.761 267.871 414.792 272.464 415.747 277.06C418.598 290.772 420.693 304.645 422.619 318.514C425.19 337.027 427.323 355.602 429.242 374.194C431.512 396.176 433.47 418.187 435.116 440.228C435.338 443.14 435.553 446.051 435.763 448.962C435.782 449.759 436.107 450.518 436.671 451.081C437.234 451.645 437.993 451.97 438.789 451.988C439.59 451.982 440.356 451.661 440.922 451.095C441.488 450.529 441.809 449.763 441.815 448.962C440.17 426.258 438.225 403.577 435.978 380.919C434.012 361.28 431.797 341.665 429.169 322.103C427.203 307.499 425.062 292.895 422.194 278.437C419.777 266.255 417.541 251.832 406.849 244.015C403.088 241.267 398.54 239.819 394.331 237.925C389.963 235.959 385.664 233.842 381.289 231.888C371.672 227.592 361.956 223.523 352.234 219.471L345.644 216.725C344.87 216.516 344.045 216.621 343.349 217.017C342.652 217.412 342.139 218.067 341.922 218.838C341.729 219.611 341.84 220.429 342.234 221.122C342.627 221.814 343.272 222.329 344.035 222.56L344.031 222.57Z" fill="#211715"/>
<path d="M304.353 358.882C304.689 359.184 304.96 359.551 305.288 359.856C304.981 359.451 304.918 359.374 305.099 359.623C305.157 359.708 305.214 359.792 305.269 359.875C305.363 360.023 305.45 360.173 305.532 360.328C305.658 360.569 305.793 361.095 305.5 360.193C305.558 360.37 305.634 360.541 305.688 360.719C305.793 361.063 305.87 361.414 305.92 361.77L305.812 360.966C305.892 361.599 305.892 362.24 305.812 362.874L305.919 362.069C305.869 362.426 305.797 362.779 305.702 363.126C305.66 363.273 305.615 363.421 305.566 363.566C305.517 363.711 305.273 364.306 305.522 363.72C305.77 363.133 305.522 363.698 305.453 363.834C305.385 363.971 305.316 364.097 305.24 364.224C305.165 364.351 305.094 364.457 305.018 364.573C304.706 365.058 305.548 363.966 305.196 364.349C305.07 364.484 304.566 365.168 304.384 365.138C304.404 365.138 305.085 364.648 304.621 364.942C304.547 364.989 304.474 365.04 304.398 365.086C304.23 365.193 304.055 365.292 303.874 365.383C303.793 365.423 303.712 365.46 303.632 365.499C303.205 365.709 304.262 365.267 303.919 365.373C303.748 365.428 303.58 365.499 303.407 365.548C302.994 365.671 302.573 365.764 302.146 365.824L302.951 365.716C302.191 365.816 301.421 365.818 300.661 365.723L301.465 365.832C300.865 365.732 300.274 365.581 299.7 365.38C300.612 365.672 300.197 365.596 299.964 365.481C299.815 365.409 299.67 365.33 299.529 365.245C299.424 365.182 299.324 365.119 299.221 365.047C298.806 364.78 299.868 365.603 299.385 365.174C299.109 364.926 298.846 364.664 298.597 364.389C298.241 363.997 299.031 365.03 298.597 364.372C298.512 364.246 298.433 364.119 298.359 363.985C298.284 363.85 298.224 363.723 298.156 363.592C297.918 363.135 298.433 364.377 298.198 363.65C298.102 363.341 298.03 363.024 297.984 362.703L298.091 363.508C298.024 362.964 298.024 362.413 298.091 361.869L297.984 362.673C298.038 362.287 298.123 361.905 298.236 361.532C298.29 361.354 298.353 361.18 298.415 361.006C298.621 360.431 298.11 361.637 298.385 361.086C298.561 360.728 298.755 360.379 298.966 360.041C299.067 359.882 299.173 359.726 299.283 359.574C299.33 359.492 299.387 359.416 299.45 359.347C299.358 359.428 298.954 359.948 299.283 359.576C299.396 359.45 299.507 359.324 299.63 359.198C299.752 359.072 300.215 358.705 299.756 359.056C299.297 359.406 299.807 359.032 299.931 358.954C300.099 358.847 300.274 358.748 300.455 358.657C300.487 358.642 300.675 358.531 300.701 358.541C300.701 358.541 299.954 358.826 300.357 358.688C300.532 358.627 300.704 358.562 300.882 358.509C301.287 358.388 301.702 358.301 302.121 358.246L301.317 358.353C301.977 358.273 302.645 358.273 303.305 358.353L302.501 358.246C302.782 358.285 303.06 358.341 303.335 358.413C303.449 358.443 303.562 358.476 303.674 358.512C303.787 358.549 304.305 358.758 303.775 358.532C303.271 358.316 303.683 358.496 303.799 358.554C303.915 358.612 304.051 358.68 304.17 358.757C304.288 358.834 304.406 358.911 304.524 358.988C304.95 359.266 303.945 358.514 304.358 358.862C304.938 359.412 305.702 359.726 306.501 359.744C307.101 359.746 307.687 359.569 308.186 359.237C308.685 358.904 309.074 358.431 309.304 357.877C309.534 357.323 309.594 356.714 309.476 356.126C309.359 355.538 309.069 354.998 308.645 354.575C306.928 353.086 304.739 352.252 302.466 352.222C300.459 352.172 298.481 352.714 296.779 353.78C295.046 354.965 293.695 356.626 292.888 358.563C292.08 360.501 291.852 362.63 292.231 364.694C292.796 366.936 294.169 368.89 296.086 370.183C297.262 370.929 298.573 371.435 299.945 371.672C301.317 371.91 302.722 371.873 304.08 371.565C305.438 371.256 306.721 370.682 307.856 369.876C308.991 369.069 309.955 368.046 310.692 366.866C311.618 365.129 312.041 363.167 311.912 361.203C311.708 358.659 310.542 356.288 308.65 354.575C308.081 354.015 307.313 353.702 306.515 353.706C305.717 353.709 304.952 354.027 304.388 354.592C303.823 355.156 303.505 355.921 303.501 356.719C303.498 357.518 303.811 358.285 304.37 358.854L304.353 358.882Z" fill="#211715"/>
<path d="M144.378 352.32C135.671 333.048 127.714 313.464 119.733 293.884C119.6 293.443 119.37 293.038 119.061 292.698C118.751 292.358 118.369 292.091 117.943 291.918C117.517 291.744 117.057 291.668 116.598 291.696C116.139 291.723 115.691 291.852 115.289 292.074C107.068 296.397 98.6773 300.384 90.1177 304.035C82.0959 307.651 73.7572 310.519 65.2079 312.601C64.4378 312.821 63.7848 313.334 63.3893 314.03C62.9938 314.726 62.8875 315.55 63.0934 316.323C67.6212 330.824 71.9813 345.389 77.0008 359.733C79.4885 366.842 82.1351 373.896 85.0389 380.846C87.4703 386.956 90.3247 392.89 93.5813 398.603C99.6776 408.892 108.165 417.902 119.728 421.819C126.101 423.952 132.864 424.661 139.54 423.896C146.217 423.131 152.644 420.911 158.369 417.391C164.286 413.708 169.212 408.665 173.784 403.456C178.323 398.278 182.502 392.807 186.771 387.409C187.316 386.83 187.619 386.065 187.619 385.269C187.619 384.474 187.316 383.709 186.771 383.13C186.201 382.567 185.433 382.251 184.632 382.251C183.831 382.251 183.062 382.567 182.492 383.13C175.235 392.306 168.21 402.237 158.999 409.593C154.251 413.332 148.715 415.943 142.809 417.226C136.903 418.51 130.782 418.433 124.91 417.002C113.992 414.401 105.882 406.805 100.012 397.519C93.0076 386.438 88.4281 373.768 84.0277 361.488C78.5 346.06 73.8146 330.353 68.93 314.71L66.8205 318.437C75.7387 316.475 84.3265 313.015 92.71 309.459C101.418 305.767 109.963 301.715 118.346 297.301L113.902 295.493C122.08 315.557 130.232 335.626 139.156 355.375C139.565 356.064 140.229 356.564 141.003 356.767C141.778 356.97 142.602 356.86 143.296 356.461C143.975 356.043 144.467 355.379 144.669 354.608C144.871 353.837 144.768 353.017 144.382 352.32H144.378Z" fill="#211715"/>
</svg>
